<svg xmlns="http://www.w3.org/2000/svg" viewBox="0 0 185 120"><defs><style>.cls-1{fill:#fff;}.cls-2{fill:#d1d1d1;}.cls-3{fill:#ffd000;}.cls-4{fill:#666;}</style></defs><title>area-hokuriku</title><g id="レイヤー_2" data-name="レイヤー 2"><g id="メインデザイン"><rect class="cls-1" x="0.5" y="0.5" width="184" height="119"/><path class="cls-2" d="M184,1V119H1V1H184m1-1H0V120H185V0Z"/><rect class="cls-3" x="168" width="17" height="120"/><path class="cls-1" d="M172,65.17V54.83L181,60Z"/><path d="M10.9,14.44a8.67,8.67,0,0,0-1.79.12V12.33a8.06,8.06,0,0,0,1.79.12h2.85V10.36a15.37,15.37,0,0,0-.12-2.17H16a12.56,12.56,0,0,0-.12,2.17V23.18A13.37,13.37,0,0,0,16,25.46H13.63a16.77,16.77,0,0,0,.12-2.3v-2c-1.14.64-2.19,1.14-3.54,1.75-.32.13-.64.28-.83.38L8.67,21a8,8,0,0,0,1.62-.5,31.24,31.24,0,0,0,3.46-1.58v-4.5Zm9.46,8c0,.48.24.57,1.54.57s1.74-.11,2-.55a11.34,11.34,0,0,0,.34-3.5,10.48,10.48,0,0,0,2,.84c-.12,2.56-.46,3.95-1.1,4.52a2.78,2.78,0,0,1-1.39.55A14.36,14.36,0,0,1,21.8,25a6.09,6.09,0,0,1-2.75-.31c-.57-.26-.8-.76-.8-1.65V10.38a14.73,14.73,0,0,0-.12-2.19h2.34a14.65,14.65,0,0,0-.11,2.19v3.76a17.61,17.61,0,0,0,4.25-3.25l1.5,1.79a7.09,7.09,0,0,0-.6.47c-.56.44-2.15,1.54-3,2.09s-.77.48-2.12,1.22Z"/><path d="M38.31,14.69a4.81,4.81,0,0,1-.47,1.67A4.91,4.91,0,0,1,35,18.77a6,6,0,0,0-.93-1.31,5.74,5.74,0,0,1,.13,1.12,2.22,2.22,0,0,1-1.41,2.36,5.55,5.55,0,0,1-1.9.27,3.86,3.86,0,0,0-.36-2,5,5,0,0,0,.63.06c.76,0,1-.19,1-.91a5.77,5.77,0,0,0-1.52-3.78,21.4,21.4,0,0,0,1.69-4.18H30.41v13a19.06,19.06,0,0,0,.11,2.19H28.3a18.11,18.11,0,0,0,.11-2.43V10.36c0-.61,0-1-.07-1.86.38,0,.83.05,1.54.05H32.1c.68,0,1.08,0,1.44-.05l1,1.25-.21.49a25.88,25.88,0,0,1-1.78,4.16A7.13,7.13,0,0,1,34,17.16c1.5-.51,2.18-1.24,2.35-2.47h-.89a13.2,13.2,0,0,0-1.8.09V12.83a10.94,10.94,0,0,0,1.8.09h2.66V11.4H36.37a12.55,12.55,0,0,0-1.74.08v-2a7.77,7.77,0,0,0,1.74.12h1.77V9.12A5.31,5.31,0,0,0,38,8h2.2a6.67,6.67,0,0,0-.09,1.14v.5h2.43a8,8,0,0,0,1.78-.12v2a13.8,13.8,0,0,0-1.78-.08H40.14v1.52h3.21a11.57,11.57,0,0,0,1.8-.09v1.95a13.2,13.2,0,0,0-1.8-.09H41.58v1.56c0,.17,0,.21.15.26a1.66,1.66,0,0,0,.5.06c1.15,0,1.21-.06,1.21-1.42a7.12,7.12,0,0,0,1.81.53c-.14,1.25-.23,1.61-.5,1.95s-1.06.59-2.69.59A4.75,4.75,0,0,1,40.15,18c0,.28,0,.41,0,.83v.63h2.54a10.43,10.43,0,0,0,1.79-.1v2a13.58,13.58,0,0,0-1.79-.08H40.14v1.87h3.19a14,14,0,0,0,2-.1v2a16,16,0,0,0-2.13-.12H34.57a14.18,14.18,0,0,0-2.13.12V23a20.06,20.06,0,0,0,2.05.1h3.65V21.24h-2a13.83,13.83,0,0,0-1.81.08v-2a10.55,10.55,0,0,0,1.81.1h2v-.63a6.12,6.12,0,0,0-.09-1.23h1.72a2,2,0,0,1-.05-.61v-2.3Z"/><path d="M56.5,20.64h4.59a12.93,12.93,0,0,0,2.47-.14v2.4a18.51,18.51,0,0,0-2.43-.1H49.73a18.51,18.51,0,0,0-2.43.1V20.5a12.93,12.93,0,0,0,2.47.14h4.29V12.83h-2.9a20.9,20.9,0,0,0-2.43.09V10.55a14.12,14.12,0,0,0,2.47.13h8.45a14.19,14.19,0,0,0,2.47-.13v2.37a20.79,20.79,0,0,0-2.43-.09H56.5Z"/><path d="M71.39,9a10.44,10.44,0,0,0-.07,1.71v5.24a10.09,10.09,0,0,0,.07,1.68h-2.6a13.34,13.34,0,0,0,.09-1.71V10.68A11.83,11.83,0,0,0,68.81,9ZM80,9a8.53,8.53,0,0,0-.1,1.77v2.56a22.7,22.7,0,0,1-.49,5.76,7.27,7.27,0,0,1-3.74,4.42A16.44,16.44,0,0,1,72,25a6.37,6.37,0,0,0-1.33-2.26,10.38,10.38,0,0,0,4.1-1.52c1.79-1.18,2.42-2.34,2.63-4.85.07-.82.09-1.65.09-3.17V10.81A10.79,10.79,0,0,0,77.38,9Z"/><path d="M94,13.27a7.76,7.76,0,0,0-.07,1.53c-.08,3.25-.59,5.08-1.89,6.73A11,11,0,0,1,87.14,25a6.64,6.64,0,0,0-1.5-2.17A8.7,8.7,0,0,0,89,21.17c1.93-1.54,2.54-3.17,2.54-6.77a5,5,0,0,0-.09-1.13Zm7.71-2.4A5.59,5.59,0,0,0,101,12.2,11.94,11.94,0,0,1,98,16a12.52,12.52,0,0,1-2.28,1.58A6.38,6.38,0,0,0,94,15.87a8.85,8.85,0,0,0,2.77-1.75,7.92,7.92,0,0,0,1.81-2.41h-10a19.14,19.14,0,0,0-2.58.11V9.45a15.58,15.58,0,0,0,2.62.15H98.6a5.26,5.26,0,0,0,1.84-.17Z"/><path class="cls-4" d="M14.79,34.65a6.65,6.65,0,0,0-.09-1.08h1.15a6.21,6.21,0,0,0-.09,1.08v.12h4.43a13.36,13.36,0,0,0,1.5-.06,5.88,5.88,0,0,0-.06,1v.72a6.15,6.15,0,0,0,.06,1h-1V35.58H10.17v1.88h-1a6.48,6.48,0,0,0,.06-1v-.7a6.09,6.09,0,0,0-.06-1,13.53,13.53,0,0,0,1.52.06h4.08ZM9.88,43.22a10.29,10.29,0,0,0-.06-1.46,13.83,13.83,0,0,0,1.43.05H19.6A13.83,13.83,0,0,0,21,41.76,10.46,10.46,0,0,0,21,43.22v2.56a9.93,9.93,0,0,0,.09,1.55h-1v-.69H10.8v.69h-1a10.29,10.29,0,0,0,.09-1.55Zm.92.58h4V42.57h-4Zm0,2.07h4v-1.3h-4Zm0-9.42a6.94,6.94,0,0,0,1.23.08h6.75A6.89,6.89,0,0,0,20,36.45v.92a7.18,7.18,0,0,0-1.22-.08H12.07a7.23,7.23,0,0,0-1.23.08Zm8.85,3.47a7.78,7.78,0,0,0,.06,1,10.11,10.11,0,0,0-1.27-.06H12.39a9.86,9.86,0,0,0-1.26.06,8.12,8.12,0,0,0,.06-1v-.74a8.6,8.6,0,0,0-.06-1,9.32,9.32,0,0,0,1.26.06h6.1a9.41,9.41,0,0,0,1.26-.06,7.89,7.89,0,0,0-.06,1Zm-7.6-1v1.22h6.69V38.94Zm3.63,4.86h4.33V42.57H15.72Zm0,2.07h4.33v-1.3H15.72Z"/><path class="cls-4" d="M29.92,35.25a8.24,8.24,0,0,0-.1-1.39h1.24a8,8,0,0,0-.1,1.39V44.9h4.42V38a8.8,8.8,0,0,0-.09-1.39h1.19a11.24,11.24,0,0,0-.09,1.41v7.47a11.5,11.5,0,0,0,.1,1.59H35.38V45.86H25.8v1.26H24.69a12.08,12.08,0,0,0,.1-1.52V38.12a9.09,9.09,0,0,0-.1-1.47h1.18a10.09,10.09,0,0,0-.07,1.45v6.8h4.12Z"/><path class="cls-4" d="M43.53,44.15A8.9,8.9,0,0,1,40.06,47a3.11,3.11,0,0,0-.73-.72,7.72,7.72,0,0,0,2-1.11,6.6,6.6,0,0,0,1.47-1.54Zm2.76,1.72a8.23,8.23,0,0,0,.1,1.5H45.22a7.53,7.53,0,0,0,.11-1.5V43.05h-3.9c-.6,0-1,0-1.49.05A8.81,8.81,0,0,0,40,41.63v-5a7.4,7.4,0,0,0-.09-1.35H41A8.28,8.28,0,0,0,41,36.59v5.62h9.89a10.06,10.06,0,0,0,1.47-.07v1a8.61,8.61,0,0,0-1.46-.09H46.29Zm4.21-6a8.07,8.07,0,0,0,.08,1.41A13.63,13.63,0,0,0,49,41.18H44.26a13.59,13.59,0,0,0-1.54.06,13.69,13.69,0,0,0,.06-1.46V35.55c0-.55,0-.91-.06-1.35a12.54,12.54,0,0,0,1.63.08h4.7a11.9,11.9,0,0,0,1.53-.08,8.45,8.45,0,0,0-.08,1.41Zm-6.82-3.48h5.91V35.09H43.68Zm0,2h5.91V37.1H43.68Zm0,2h5.91V39.12H43.68Zm5.17,3.27a9.9,9.9,0,0,0,2,1.73,9.47,9.47,0,0,0,1.65.87,3.25,3.25,0,0,0-.69.78,12,12,0,0,1-3.74-2.9Z"/><path class="cls-4" d="M62.11,40.47a1.23,1.23,0,0,1-2.46,0,1.23,1.23,0,0,1,2.46,0Z"/><path class="cls-4" d="M71.43,35.57a13.45,13.45,0,0,0-1.79.1V34.56a9.83,9.83,0,0,0,1.77.11h9.32a10.09,10.09,0,0,0,1.75-.11v1.11a13.33,13.33,0,0,0-1.75-.1H75.12a13.38,13.38,0,0,1-1.67,3.82h6.42a10,10,0,0,0,1.49-.07,11.54,11.54,0,0,0-.08,1.47v4.68A10.78,10.78,0,0,0,81.37,47H80.29V46H73.35v.95H72.27a11,11,0,0,0,.1-1.49v-3.4c0-.44,0-.83,0-1.16a12.34,12.34,0,0,1-2.8,3,2.36,2.36,0,0,0-.68-.87,13.07,13.07,0,0,0,5.15-7.41Zm1.92,9.54h7V40.28h-7Z"/><path class="cls-4" d="M87.22,38.25c0,4.46-.55,6.63-2.23,8.81a3.46,3.46,0,0,0-.86-.8c1.56-1.72,2.07-3.73,2.07-8v-3a8.42,8.42,0,0,0-.09-1.33h1.2a6.56,6.56,0,0,0-.09,1.36ZM92,34.53a9.63,9.63,0,0,0-.09,1.41v7.94A11.7,11.7,0,0,0,92,45.57h-1.2a11.79,11.79,0,0,0,.09-1.69V35.94a8.15,8.15,0,0,0-.09-1.41ZM96.87,34a7.11,7.11,0,0,0-.09,1.46v9.76a11.16,11.16,0,0,0,.09,1.88h-1.2a13.85,13.85,0,0,0,.09-1.88V35.42A8,8,0,0,0,95.67,34Z"/><path class="cls-4" d="M104.13,44.15A8.9,8.9,0,0,1,100.66,47a3.11,3.11,0,0,0-.73-.72,7.72,7.72,0,0,0,1.95-1.11,6.6,6.6,0,0,0,1.47-1.54Zm2.76,1.72a8.23,8.23,0,0,0,.1,1.5h-1.17a7.53,7.53,0,0,0,.11-1.5V43.05H102c-.6,0-1,0-1.49.05a8.81,8.81,0,0,0,.08-1.47v-5a7.4,7.4,0,0,0-.09-1.35h1.11a8.28,8.28,0,0,0-.08,1.34v5.62h9.89a10.06,10.06,0,0,0,1.47-.07v1a8.61,8.61,0,0,0-1.46-.09h-4.57Zm4.21-6a8.07,8.07,0,0,0,.08,1.41,13.63,13.63,0,0,0-1.58-.06h-4.74a13.59,13.59,0,0,0-1.54.06,13.69,13.69,0,0,0,.06-1.46V35.55c0-.55,0-.91-.06-1.35a12.54,12.54,0,0,0,1.63.08h4.7a11.9,11.9,0,0,0,1.53-.08,8.45,8.45,0,0,0-.08,1.41Zm-6.82-3.48h5.91V35.09h-5.91Zm0,2h5.91V37.1h-5.91Zm0,2h5.91V39.12h-5.91Zm5.17,3.27a9.9,9.9,0,0,0,2,1.73,9.47,9.47,0,0,0,1.65.87,3.25,3.25,0,0,0-.69.78,12,12,0,0,1-3.74-2.9Z"/><path class="cls-4" d="M122.71,40.47a1.23,1.23,0,0,1-2.46,0,1.23,1.23,0,1,1,2.46,0Z"/><path class="cls-4" d="M131.94,41.18A14.15,14.15,0,0,1,130,43a2.49,2.49,0,0,0-.54-.83,12,12,0,0,0,2.67-2.4,11.15,11.15,0,0,0,1.63-2.64h-2.61c-.37,0-.75,0-1.15.06v-1a10.37,10.37,0,0,0,1.12.06h.83V34.85a10.89,10.89,0,0,0-.09-1.17h1.09a6.29,6.29,0,0,0-.09,1.18v1.37h.9a3.26,3.26,0,0,0,.71,0l.43.57a5.25,5.25,0,0,0-.3.59A13.37,13.37,0,0,1,133,40a5.93,5.93,0,0,0,1.87,1.44,3.14,3.14,0,0,0-.46.82A7.8,7.8,0,0,1,132.85,41v4.79a11.11,11.11,0,0,0,.08,1.57h-1.07a14.81,14.81,0,0,0,.08-1.57Zm2.77-7a13,13,0,0,0,1.49.08h5.53a11.78,11.78,0,0,0,1.49-.08v1a11.79,11.79,0,0,0-1.43-.08h-5.65a12.3,12.3,0,0,0-1.43.08Zm6.83,6.54a10.21,10.21,0,0,0,1.45-.06,13,13,0,0,0-.06,1.44v3.59a11.2,11.2,0,0,0,.09,1.54h-1v-.75h-6.12v.69h-1a10.94,10.94,0,0,0,.09-1.51V42.17a13.27,13.27,0,0,0-.06-1.44c.36,0,.82,0,1.48,0Zm-5.84-3.31a9.16,9.16,0,0,0-.06-1.25,9.33,9.33,0,0,0,1.41.08h3.78a10.58,10.58,0,0,0,1.38-.08,10.26,10.26,0,0,0-.06,1.23v1a10.24,10.24,0,0,0,.06,1.26,12.61,12.61,0,0,0-1.42-.06h-3.72a13.84,13.84,0,0,0-1.43.06,8.6,8.6,0,0,0,.06-1.23Zm.21,5.71h2.52V41.55h-2.52Zm0,2.58h2.52V43.94h-2.52Zm.68-6.91h4.66V37.07h-4.66Zm2.7,4.33H142V41.55h-2.74Zm0,2.58H142V43.94h-2.74Z"/><path class="cls-4" d="M147.09,37.62a9,9,0,0,0-1.62.09V36.6a9.26,9.26,0,0,0,1.6.11h1.85V35.37a8.42,8.42,0,0,0-.11-1.53H150a8.68,8.68,0,0,0-.09,1.55v1.32H154V35.42a10.11,10.11,0,0,0-.09-1.58l1.18,0a9.19,9.19,0,0,0-.1,1.57v1.28h1.74a9.2,9.2,0,0,0,1.57-.11v1.11a9.15,9.15,0,0,0-1.57-.09H155v3.93h2.1a10.87,10.87,0,0,0,1.57-.09v1.11a9.59,9.59,0,0,0-1.57-.1H155v3.06a10.82,10.82,0,0,0,.1,1.69h-1.18a11.35,11.35,0,0,0,.09-1.68V42.47h-4.32a7.36,7.36,0,0,1-1.13,3,8,8,0,0,1-1.87,1.91,3.47,3.47,0,0,0-.78-.83,6.8,6.8,0,0,0,1.92-1.83,5.85,5.85,0,0,0,.87-2.23h-2.09a8.9,8.9,0,0,0-1.53.1V41.46a10.4,10.4,0,0,0,1.52.09h2.23a26.2,26.2,0,0,0,.14-2.95v-1Zm2.8,1.08a26.69,26.69,0,0,1-.13,2.85H154V37.62h-4.07Z"/><path class="cls-4" d="M13.23,65.15A8.9,8.9,0,0,1,9.76,68,3.11,3.11,0,0,0,9,67.32a7.72,7.72,0,0,0,2-1.11,6.6,6.6,0,0,0,1.47-1.54ZM16,66.87a8.23,8.23,0,0,0,.1,1.5H14.92a7.53,7.53,0,0,0,.11-1.5V64.05h-3.9c-.6,0-1,0-1.49,0a8.81,8.81,0,0,0,.08-1.47v-5a7.4,7.4,0,0,0-.09-1.35h1.11a8.28,8.28,0,0,0-.08,1.34v5.62h9.89A10.06,10.06,0,0,0,22,63.14v1a8.61,8.61,0,0,0-1.46-.09H16Zm4.21-6a8.07,8.07,0,0,0,.08,1.41,13.63,13.63,0,0,0-1.58-.06H14a13.59,13.59,0,0,0-1.54.06,13.69,13.69,0,0,0,.06-1.46V56.55c0-.55,0-.91-.06-1.35a12.54,12.54,0,0,0,1.63.08h4.7a11.9,11.9,0,0,0,1.53-.08,8.45,8.45,0,0,0-.08,1.41Zm-6.82-3.48h5.91V56.09H13.38Zm0,2h5.91V58.1H13.38Zm0,2h5.91V60.12H13.38Zm5.17,3.27a9.9,9.9,0,0,0,2,1.73,9.47,9.47,0,0,0,1.65.87,3.25,3.25,0,0,0-.69.78,12,12,0,0,1-3.74-2.9Z"/><path class="cls-4" d="M36.18,68.39a10.08,10.08,0,0,1-2.09-3.23,9.82,9.82,0,0,1,0-7.38,10.16,10.16,0,0,1,2.09-3.22h1.33a9.55,9.55,0,0,0-2.28,3.1,9.37,9.37,0,0,0,0,7.62,9.57,9.57,0,0,0,2.28,3.11Z"/><path class="cls-4" d="M52.33,61.92a14.33,14.33,0,0,0-2-.1H41.11a15,15,0,0,0-2,.1V60.68a14.49,14.49,0,0,0,2,.1h9.24a13.86,13.86,0,0,0,2-.1Z"/><path class="cls-4" d="M60.58,60.45a7.91,7.91,0,0,0,1.4-.07v1a10.7,10.7,0,0,0-1.37-.07h-5a8.73,8.73,0,0,0-1.43.07v-1a8.8,8.8,0,0,0,1.44.07h3.24a12.22,12.22,0,0,0,1.08-3l.92.31a16,16,0,0,1-1.11,2.67Zm-.19-4.08a8.19,8.19,0,0,0,1.39-.07v1a7.61,7.61,0,0,0-1.38-.08H55.92a7.8,7.8,0,0,0-1.35.08v-1a8.19,8.19,0,0,0,1.39.07h1.82v-.55a5.69,5.69,0,0,0-.09-1.14h1.12a6.24,6.24,0,0,0-.09,1.15v.54ZM56.13,68.21h-1a9.21,9.21,0,0,0,.06-1.35v-3a12.09,12.09,0,0,0,0-1.26,11.76,11.76,0,0,0,1.18.05h3.56A8.71,8.71,0,0,0,61,62.55a8.74,8.74,0,0,0,0,1.25V67A7.78,7.78,0,0,0,61,68.21H60v-.93H56.13Zm.25-10.71a11.79,11.79,0,0,1,1,2.49l-.87.3a10.37,10.37,0,0,0-1-2.49Zm-.25,8.94H60v-3H56.13Zm11.58-10.7a10.68,10.68,0,0,0-.62,1.34,31.57,31.57,0,0,1-1.54,3,7,7,0,0,1,1.69,2.35,5.22,5.22,0,0,1,.45,2.1,1.81,1.81,0,0,1-.76,1.68,3,3,0,0,1-1.35.23c-.41,0-.8,0-1.25-.06a2.84,2.84,0,0,0-.19-1,7.28,7.28,0,0,0,1.45.15c.86,0,1.14-.27,1.14-1.06a4.63,4.63,0,0,0-.49-2,6.18,6.18,0,0,0-1.79-2.18,22.38,22.38,0,0,0,2-4.18h-3V66.69a9,9,0,0,0,.11,1.67H62.46a11.93,11.93,0,0,0,.09-1.65V56.51c0-.45,0-.87-.06-1.38.39,0,.67,0,1.2,0H66.1a6.63,6.63,0,0,0,1.16-.06Z"/><path class="cls-4" d="M70,56.28c0-.42,0-.84,0-1.14a7.75,7.75,0,0,0,1,0h2a5.21,5.21,0,0,0,1-.06l.53.51a1.09,1.09,0,0,1-.11.24s-.06.13-.12.25a25,25,0,0,1-1.63,3.32,5.06,5.06,0,0,1,1,1.65,5.94,5.94,0,0,1,.3,1.86c0,1-.26,1.5-.8,1.68a3.61,3.61,0,0,1-1.06.13H71.4a2.77,2.77,0,0,0-.18-.9,7.63,7.63,0,0,0,.88.06c.57,0,.78-.24.78-.92a4.62,4.62,0,0,0-1.36-3.48A17.83,17.83,0,0,0,73.23,56H70.89V66.65c0,.58,0,1.12.07,1.59H69.88A12.11,12.11,0,0,0,70,66.63Zm6.08,7.31a9,9,0,0,1-2.57,3.84,2.84,2.84,0,0,0-.7-.69,7,7,0,0,0,1.39-1.43,8,8,0,0,0,1-2.08Zm.19-3.77a10.13,10.13,0,0,0-1.15.06v-.94a11.34,11.34,0,0,1-1.25.85,2.41,2.41,0,0,0-.6-.81A9.83,9.83,0,0,0,77.5,54.8h1A10.67,10.67,0,0,0,83.28,59a6.26,6.26,0,0,0-.57.9,13.15,13.15,0,0,1-4.65-4.25,12,12,0,0,1-3,3.29,8.87,8.87,0,0,0,1.17.06H80a8.79,8.79,0,0,0,1.14-.06v.94A9.7,9.7,0,0,0,80,59.82H78.46V61.7h2.81a9.31,9.31,0,0,0,1.42-.09v1a9.4,9.4,0,0,0-1.42-.09H78.46v4.38c0,.87-.36,1.16-1.42,1.16-.35,0-.87,0-1.32-.06a3,3,0,0,0-.3-1,10.94,10.94,0,0,0,1.53.13c.42,0,.57-.09.57-.34V62.55H75.4a8.94,8.94,0,0,0-1.29.08v-1a8.94,8.94,0,0,0,1.29.08h2.12V59.82Zm4.31,3.44A8.41,8.41,0,0,0,83,66.65a4,4,0,0,0-.72.79,11.75,11.75,0,0,1-2.57-3.82Z"/><path class="cls-4" d="M94,55.86c-.17.14-.29.24-1.85,1.74a43.41,43.41,0,0,1-3.45,2.84c-.55.42-.66.54-.66.75s.12.37,1.34,1.32a45.12,45.12,0,0,1,4.8,4.09,3.17,3.17,0,0,0,.42.38l-1,.93a14.28,14.28,0,0,0-1.93-2.06c-1-.93-1.61-1.42-3.8-3.13-.84-.66-1.08-1-1.08-1.5a1.45,1.45,0,0,1,.44-1,11.75,11.75,0,0,1,1.27-1A23.75,23.75,0,0,0,93,55.08Z"/><path class="cls-4" d="M99.4,68.39a9.23,9.23,0,0,0,2.28-3.11,9.37,9.37,0,0,0,0-7.62,9.3,9.3,0,0,0-2.28-3.1h1.34a10.11,10.11,0,0,1,2.08,3.22,9.82,9.82,0,0,1,0,7.38,10,10,0,0,1-2.08,3.23Z"/><path class="cls-4" d="M115.21,61.47a1.23,1.23,0,0,1-2.46,0,1.23,1.23,0,1,1,2.46,0Z"/><path class="cls-4" d="M124.81,56.45a10.89,10.89,0,0,0-.09-1.59h1a10.34,10.34,0,0,0-.09,1.59v8.32h1.16V58.5a12.07,12.07,0,0,0-.08-1.5h1a10.74,10.74,0,0,0-.07,1.52v6.22a14.32,14.32,0,0,0,.06,1.68h-.89v-.81h-3.16v1.31h-1a11.68,11.68,0,0,0,.09-1.59V58.49c0-.56,0-1-.07-1.49h1a10.61,10.61,0,0,0-.07,1.49v6.28h1.12Zm4.95,1.39a11.26,11.26,0,0,0-1.57.09v-1a10.44,10.44,0,0,0,1.56.09h1.65v-.75a10.12,10.12,0,0,0-.09-1.52h1.09a9.94,9.94,0,0,0-.09,1.52V57h2.13A10.72,10.72,0,0,0,136,56.9v1a11.1,11.1,0,0,0-1.54-.09h-2.15v2.28h1.37a5.28,5.28,0,0,0,1-.06l.51.56c-.1.19-.12.24-.3.63a12.23,12.23,0,0,1-2.37,3.84,10,10,0,0,0,3.72,2.29,4.73,4.73,0,0,0-.54,1,12.26,12.26,0,0,1-3.82-2.58,13.21,13.21,0,0,1-4.23,2.55,3.59,3.59,0,0,0-.59-.9,11.48,11.48,0,0,0,4.19-2.34,9.35,9.35,0,0,1-1.4-2.13,9.91,9.91,0,0,1-.78-2l-.76.06v-1a10.52,10.52,0,0,0,1.26.07h1.8V57.84ZM130,61a8.79,8.79,0,0,0,1.9,3.45A10.45,10.45,0,0,0,134,61Z"/><path class="cls-4" d="M142.78,55.94a6.24,6.24,0,0,0,.72-1.49l1,.2a13.77,13.77,0,0,1-.72,1.29h3.95a10.42,10.42,0,0,0,1.27-.06A8.72,8.72,0,0,0,149,57v1.08a8.32,8.32,0,0,0,.06,1.06,11.31,11.31,0,0,0-1.26-.06h-7.44v1.22h8a11.15,11.15,0,0,0,1.29-.06,7.22,7.22,0,0,0-.06,1.09v1.11a7,7,0,0,0,.06,1.07,9.32,9.32,0,0,0-1.26-.06h-3.68v1.35h4.7a10.68,10.68,0,0,0,1.57-.09v1a10.87,10.87,0,0,0-1.57-.09h-4.7v1.25a9.42,9.42,0,0,0,.11,1.53h-1.16a9.25,9.25,0,0,0,.11-1.53V65.64h-4.55a11.26,11.26,0,0,0-1.57.09v-1a10.68,10.68,0,0,0,1.57.09h4.55V63.44h-3.17a8.94,8.94,0,0,0-1.23.06,7.43,7.43,0,0,0,.06-1.07V57a7.3,7.3,0,0,0-.06-1.09,11.45,11.45,0,0,0,1.28.06ZM148,58.25V56.76h-7.71v1.49Zm.59,4.36v-1.5h-8.3v1.5Z"/><path class="cls-4" d="M13.23,86.15A8.9,8.9,0,0,1,9.76,89,3.11,3.11,0,0,0,9,88.32a7.72,7.72,0,0,0,2-1.11,6.6,6.6,0,0,0,1.47-1.54ZM16,87.87a8.23,8.23,0,0,0,.1,1.5H14.92a7.53,7.53,0,0,0,.11-1.5V85.05h-3.9c-.6,0-1,0-1.49,0a8.81,8.81,0,0,0,.08-1.47v-5a7.4,7.4,0,0,0-.09-1.35h1.11a8.28,8.28,0,0,0-.08,1.34v5.62h9.89A10.06,10.06,0,0,0,22,84.14v1a8.61,8.61,0,0,0-1.46-.09H16Zm4.21-6a8.07,8.07,0,0,0,.08,1.41,13.63,13.63,0,0,0-1.58-.06H14a13.59,13.59,0,0,0-1.54.06,13.69,13.69,0,0,0,.06-1.46V77.55c0-.55,0-.91-.06-1.35a12.54,12.54,0,0,0,1.63.08h4.7a11.9,11.9,0,0,0,1.53-.08,8.45,8.45,0,0,0-.08,1.41Zm-6.82-3.48h5.91V77.09H13.38Zm0,2h5.91V79.1H13.38Zm0,2h5.91V81.12H13.38Zm5.17,3.27a9.9,9.9,0,0,0,2,1.73,9.47,9.47,0,0,0,1.65.87,3.25,3.25,0,0,0-.69.78,12,12,0,0,1-3.74-2.9Z"/><path class="cls-4" d="M36.18,89.39a10.08,10.08,0,0,1-2.09-3.23,9.82,9.82,0,0,1,0-7.38,10.16,10.16,0,0,1,2.09-3.22h1.33a9.55,9.55,0,0,0-2.28,3.1,9.37,9.37,0,0,0,0,7.62,9.57,9.57,0,0,0,2.28,3.11Z"/><path class="cls-4" d="M52.33,82.92a14.33,14.33,0,0,0-2-.1H41.11a15,15,0,0,0-2,.1V81.68a14.49,14.49,0,0,0,2,.1h9.24a13.86,13.86,0,0,0,2-.1Z"/><path class="cls-4" d="M60.58,81.45a7.91,7.91,0,0,0,1.4-.07v1a10.7,10.7,0,0,0-1.37-.07h-5a8.73,8.73,0,0,0-1.43.07v-1a8.8,8.8,0,0,0,1.44.07h3.24a12.22,12.22,0,0,0,1.08-3l.92.31a16,16,0,0,1-1.11,2.67Zm-.19-4.08a8.19,8.19,0,0,0,1.39-.07v1a7.61,7.61,0,0,0-1.38-.08H55.92a7.8,7.8,0,0,0-1.35.08v-1a8.19,8.19,0,0,0,1.39.07h1.82v-.55a5.69,5.69,0,0,0-.09-1.14h1.12a6.24,6.24,0,0,0-.09,1.15v.54ZM56.13,89.21h-1a9.21,9.21,0,0,0,.06-1.35v-3a12.09,12.09,0,0,0,0-1.26,11.76,11.76,0,0,0,1.18,0h3.56a8.71,8.71,0,0,0,1.09,0,8.74,8.74,0,0,0,0,1.25V88A7.78,7.78,0,0,0,61,89.21H60v-.93H56.13Zm.25-10.71a11.79,11.79,0,0,1,1,2.49l-.87.3a10.37,10.37,0,0,0-1-2.49Zm-.25,8.94H60v-3H56.13Zm11.58-10.7a10.68,10.68,0,0,0-.62,1.34,31.57,31.57,0,0,1-1.54,3,7,7,0,0,1,1.69,2.35,5.22,5.22,0,0,1,.45,2.1,1.81,1.81,0,0,1-.76,1.68,3,3,0,0,1-1.35.23c-.41,0-.8,0-1.25-.06a2.84,2.84,0,0,0-.19-1,7.28,7.28,0,0,0,1.45.15c.86,0,1.14-.27,1.14-1.06a4.63,4.63,0,0,0-.49-2,6.18,6.18,0,0,0-1.79-2.18,22.38,22.38,0,0,0,2-4.18h-3V87.69a9,9,0,0,0,.11,1.67H62.46a11.93,11.93,0,0,0,.09-1.65V77.51c0-.45,0-.87-.06-1.38.39,0,.67,0,1.2,0H66.1a6.63,6.63,0,0,0,1.16-.06Z"/><path class="cls-4" d="M71.17,77.54a12.36,12.36,0,0,0-.09-1.67h1.11a12.52,12.52,0,0,0-.09,1.68v2.24h.42a5.55,5.55,0,0,0,1.2-.08v1a8.47,8.47,0,0,0-1.21-.06H72.1v4.71c.65-.3.92-.44,1.7-.87l.09.91A29.55,29.55,0,0,1,70,87.21c-.21.08-.44.18-.6.26l-.26-1a8.37,8.37,0,0,0,2-.67V80.63h-.55a5.4,5.4,0,0,0-1.26.09v-1a5.79,5.79,0,0,0,1.26.09h.55Zm4.59,9.72c0,.36.09.48.45.57a11.46,11.46,0,0,0,2.42.13c2.11,0,2.74-.09,3-.43a4.36,4.36,0,0,0,.32-2,2.59,2.59,0,0,0,1,.39c-.18,2.78-.45,3-4.35,3-3.11,0-3.72-.23-3.72-1.4V82l-.33.1a10.14,10.14,0,0,0-1.25.48l-.27-1a5.32,5.32,0,0,0,1.31-.3l.54-.18V78.68a10.84,10.84,0,0,0-.09-1.53h1.12a10.58,10.58,0,0,0-.09,1.48v2.1L77.91,80V77.24a9.49,9.49,0,0,0-.09-1.4h1.11a10,10,0,0,0-.09,1.41v2.46L81.15,79a10.74,10.74,0,0,0,1.18-.47c-.06,1.5-.12,2.55-.24,4s-.3,2-.69,2.19a2,2,0,0,1-1.08.21l-.66,0a3.39,3.39,0,0,0-.22-1,5.3,5.3,0,0,0,1.15.14c.35,0,.42-.08.5-.51a31.52,31.52,0,0,0,.24-3.8l-2.49.86v4.14a9.88,9.88,0,0,0,.09,1.44H77.82a9.79,9.79,0,0,0,.09-1.46V80.91l-2.15.72Z"/><path class="cls-4" d="M86.14,77.51a12.24,12.24,0,0,0-.09-1.65h1.1a9.76,9.76,0,0,0-.09,1.65V79.8h.28a8.58,8.58,0,0,0,1.25-.06v1a10.28,10.28,0,0,0-1.25-.06h-.28v4.44a13.4,13.4,0,0,0,1.6-.91l.08.94A39.73,39.73,0,0,1,85,87a2.93,2.93,0,0,0-.5.26l-.3-1a12.17,12.17,0,0,0,1.92-.75V80.64h-.43a9.66,9.66,0,0,0-1.26.08v-1a8.35,8.35,0,0,0,1.29.07h.4Zm7.17,8.43c-1.33.43-2.26.69-4.12,1.14l-.93.25-.24-1A25.83,25.83,0,0,0,93.3,85.1Zm-3.24-6.87c-.58,0-1.18,0-1.59.07v-1a10.83,10.83,0,0,0,1.61.09h3.66a19,19,0,0,0-.12-2.49h1.11a7.76,7.76,0,0,0-.09,1.55v.94h1.53a10.44,10.44,0,0,0,1.56-.09v1c-.42,0-1-.07-1.59-.07H94.68A25.62,25.62,0,0,0,95.26,84a10.8,10.8,0,0,0,1.17-3.3l1,.33a7.92,7.92,0,0,0-.33.87,17.32,17.32,0,0,1-1.52,3.25c.5,1.52,1.08,2.64,1.47,2.78a3.56,3.56,0,0,0,.44-2.07,2.72,2.72,0,0,0,.79.57,5.93,5.93,0,0,1-.48,2.13c-.19.36-.43.54-.69.54-.7,0-1.57-1.19-2.19-3a11.54,11.54,0,0,1-3.39,3,2.61,2.61,0,0,0-.73-.71,10.08,10.08,0,0,0,3.82-3.34,24.89,24.89,0,0,1-.84-6Zm-.88,2.19c0-.33,0-.68,0-.93a8.14,8.14,0,0,0,1,0h1.77a9.74,9.74,0,0,0,1,0,5.19,5.19,0,0,0,0,.76V83.6a6.42,6.42,0,0,0,0,.88c-.32,0-.65,0-1.07,0H90.13a7.89,7.89,0,0,0-1,0,8.17,8.17,0,0,0,0-.91Zm.85,2.4h2V81.15H90Zm6.84-5.75a7.12,7.12,0,0,0-1.74-1.5l.59-.51a10,10,0,0,1,1.77,1.4Z"/><path class="cls-4" d="M99.4,89.39a9.23,9.23,0,0,0,2.28-3.11,9.37,9.37,0,0,0,0-7.62,9.3,9.3,0,0,0-2.28-3.1h1.34a10.11,10.11,0,0,1,2.08,3.22,9.82,9.82,0,0,1,0,7.38,10,10,0,0,1-2.08,3.23Z"/></g></g></svg>