<svg xmlns="http://www.w3.org/2000/svg" viewBox="0 0 185 145"><defs><style>.cls-1{fill:#fff;}.cls-2{fill:#d1d1d1;}.cls-3{fill:#4aae60;}.cls-4{fill:#666;}</style></defs><title>area-touhoku</title><g id="レイヤー_2" data-name="レイヤー 2"><g id="メインデザイン"><rect class="cls-1" x="0.5" y="0.5" width="184" height="144"/><path class="cls-2" d="M184,1V144H1V1H184m1-1H0V145H185V0Z"/><rect class="cls-3" x="168" width="17" height="145"/><path class="cls-1" d="M172,77.67V67.33l9,5.16Z"/><path d="M11.16,11.54a17.17,17.17,0,0,0-2.3.11V9.56a16.21,16.21,0,0,0,2.44.13h5A11.81,11.81,0,0,0,16.18,8H18.5a9,9,0,0,0-.12,1.71h5.19a15.4,15.4,0,0,0,2.49-.13v2.09a19.66,19.66,0,0,0-2.36-.11H18.38V12.6h4a17.5,17.5,0,0,0,2.11-.08,18.55,18.55,0,0,0-.08,1.92V18a14.34,14.34,0,0,0,.08,1.94,14.24,14.24,0,0,0-2.13-.1H20.05a13.43,13.43,0,0,0,6.59,3.25,13.09,13.09,0,0,0-1.08,2,19.1,19.1,0,0,1-3.89-1.73,12.18,12.18,0,0,1-3.33-2.73c0,.63,0,1,0,1.31v1.37a11.92,11.92,0,0,0,.13,2.16H16.18a16,16,0,0,0,.13-2.16V21.91c0-.23,0-.93,0-1.29a12.59,12.59,0,0,1-3.63,3,19.9,19.9,0,0,1-3.25,1.46,8.47,8.47,0,0,0-1.06-1.92A16.39,16.39,0,0,0,12,21.76a11.31,11.31,0,0,0,2.72-2H12.64a13.74,13.74,0,0,0-2.14.1,2.37,2.37,0,0,1,.06-.56c0-.07,0-.07,0-1.38v-3.5a17.41,17.41,0,0,0-.07-2,14.32,14.32,0,0,0,2.07.09h3.74V11.54Zm1.43,2.69v1.16h3.72V14.23Zm0,2.74v1.2h3.72V17Zm5.79-1.58h4V14.23h-4Zm0,2.78h4V17h-4Z"/><path d="M29.9,14.44a8.67,8.67,0,0,0-1.79.12V12.33a8.06,8.06,0,0,0,1.79.12h2.85V10.36a15.37,15.37,0,0,0-.12-2.17H35a12.56,12.56,0,0,0-.12,2.17V23.18A13.37,13.37,0,0,0,35,25.46H32.63a16.77,16.77,0,0,0,.12-2.3v-2c-1.14.64-2.19,1.14-3.54,1.75-.32.13-.64.28-.83.38L27.67,21a8,8,0,0,0,1.62-.5,31.24,31.24,0,0,0,3.46-1.58v-4.5Zm9.46,8c0,.48.24.57,1.54.57s1.74-.11,2-.55a11.34,11.34,0,0,0,.34-3.5,10.48,10.48,0,0,0,2,.84c-.12,2.56-.46,3.95-1.1,4.52a2.78,2.78,0,0,1-1.39.55A14.36,14.36,0,0,1,40.8,25a6.09,6.09,0,0,1-2.75-.31c-.57-.26-.8-.76-.8-1.65V10.38a14.73,14.73,0,0,0-.12-2.19h2.34a14.65,14.65,0,0,0-.11,2.19v3.76a17.61,17.61,0,0,0,4.25-3.25l1.5,1.79a7.09,7.09,0,0,0-.6.47c-.56.44-2.15,1.54-3,2.09s-.77.48-2.12,1.22Z"/><path d="M56.5,20.64h4.59a12.93,12.93,0,0,0,2.47-.14v2.4a18.51,18.51,0,0,0-2.43-.1H49.73a18.51,18.51,0,0,0-2.43.1V20.5a12.93,12.93,0,0,0,2.47.14h4.29V12.83h-2.9a20.9,20.9,0,0,0-2.43.09V10.55a14.12,14.12,0,0,0,2.47.13h8.45a14.19,14.19,0,0,0,2.47-.13v2.37a20.79,20.79,0,0,0-2.43-.09H56.5Z"/><path d="M71.39,9a10.44,10.44,0,0,0-.07,1.71v5.24a10.09,10.09,0,0,0,.07,1.68h-2.6a13.34,13.34,0,0,0,.09-1.71V10.68A11.83,11.83,0,0,0,68.81,9ZM80,9a8.53,8.53,0,0,0-.1,1.77v2.56a22.7,22.7,0,0,1-.49,5.76,7.27,7.27,0,0,1-3.74,4.42A16.44,16.44,0,0,1,72,25a6.37,6.37,0,0,0-1.33-2.26,10.38,10.38,0,0,0,4.1-1.52c1.79-1.18,2.42-2.34,2.63-4.85.07-.82.09-1.65.09-3.17V10.81A10.79,10.79,0,0,0,77.38,9Z"/><path d="M94,13.27a7.76,7.76,0,0,0-.07,1.53c-.08,3.25-.59,5.08-1.89,6.73A11,11,0,0,1,87.14,25a6.64,6.64,0,0,0-1.5-2.17A8.7,8.7,0,0,0,89,21.17c1.93-1.54,2.54-3.17,2.54-6.77a5,5,0,0,0-.09-1.13Zm7.71-2.4A5.59,5.59,0,0,0,101,12.2,11.94,11.94,0,0,1,98,16a12.52,12.52,0,0,1-2.28,1.58A6.38,6.38,0,0,0,94,15.87a8.85,8.85,0,0,0,2.77-1.75,7.92,7.92,0,0,0,1.81-2.41h-10a19.14,19.14,0,0,0-2.58.11V9.45a15.58,15.58,0,0,0,2.62.15H98.6a5.26,5.26,0,0,0,1.84-.17Z"/><path class="cls-4" d="M14.92,34.88a4.89,4.89,0,0,0-.09-1.23h1.1a5.16,5.16,0,0,0-.11,1.23V35h4a10.05,10.05,0,0,0,1.54-.09v.93a9.29,9.29,0,0,0-1.48-.07H15.82v.94h3.5a9.25,9.25,0,0,0,1.36-.07v.93a9.39,9.39,0,0,0-1.36-.08h-3.5v1H20.5A8.59,8.59,0,0,0,22,38.4v1a10.24,10.24,0,0,0-1.49-.09h-10A10.14,10.14,0,0,0,9,39.36v-1a8.35,8.35,0,0,0,1.49.09h4.42v-1H11.76a12.29,12.29,0,0,0-1.4.08v-.93a9.75,9.75,0,0,0,1.4.07h3.16v-.94H11a9.36,9.36,0,0,0-1.49.07v-.93A10.2,10.2,0,0,0,11.1,35h3.82ZM12.1,44.6v1.06a14.41,14.41,0,0,0,.06,1.56H11.08a9.23,9.23,0,0,0,.08-1.68V41.46a12.57,12.57,0,0,0-.06-1.33,8.87,8.87,0,0,0,1.2.06h6.48A9.24,9.24,0,0,0,20,40.13a11.34,11.34,0,0,0-.06,1.3v4.4c0,.93-.34,1.15-1.77,1.15-.24,0-.37,0-1.54-.06a3.49,3.49,0,0,0-.2-.9,14.3,14.3,0,0,0,1.83.14c.65,0,.75-.06.75-.47V44.6ZM19,41H12.1v1H19Zm-6.9,1.82v1H19v-1Z"/><path class="cls-4" d="M25.26,41.85a7.65,7.65,0,0,0-1.31.08V41a7.75,7.75,0,0,0,1.32.07h1.56v-.52a5.44,5.44,0,0,0-.06-1h1a6.24,6.24,0,0,0-.06,1V41h1A8.86,8.86,0,0,0,30,41v.93a10.65,10.65,0,0,0-1.27-.06h-.89A5.37,5.37,0,0,0,30,44a4.22,4.22,0,0,0-.62.72,6.48,6.48,0,0,1-1.77-2.09,13.69,13.69,0,0,1,.06,1.46v1.8a8.9,8.9,0,0,0,.09,1.41H26.74a8.68,8.68,0,0,0,.09-1.4V44.12c0-.48,0-1,.06-1.41a9.32,9.32,0,0,1-1.29,2,10.08,10.08,0,0,1-1.39,1.35,2.85,2.85,0,0,0-.63-.72,9,9,0,0,0,3.06-3.48Zm9.79-6.67a10.57,10.57,0,0,0,1.55-.09v1A11.05,11.05,0,0,0,35.05,36H31.36a10.42,10.42,0,0,0,2.45,1.67,16.5,16.5,0,0,0,3.33,1.18,3,3,0,0,0-.54.9,13.43,13.43,0,0,1-5.78-3.28c0,.39.06.79.06,1v1.38A6.51,6.51,0,0,0,31,40.13H29.89A8.08,8.08,0,0,0,30,38.84V37.47a8.84,8.84,0,0,1,.06-1,13,13,0,0,1-5.48,3.24,2.35,2.35,0,0,0-.51-.79A13.51,13.51,0,0,0,29.5,36H26.08a10.8,10.8,0,0,0-1.54.09v-1a10.61,10.61,0,0,0,1.54.09H30v-.29a6.36,6.36,0,0,0-.09-1.18H31a6,6,0,0,0-.09,1.17v.3Zm-3.12,6.67a8.57,8.57,0,0,0-1.27.06V41A7.62,7.62,0,0,0,32,41H33v-.52a5.44,5.44,0,0,0-.06-1h1a5.08,5.08,0,0,0-.06,1V41h1.93A7,7,0,0,0,37.17,41v1a7.29,7.29,0,0,0-1.31-.08H34.11a9.25,9.25,0,0,0,1.48,1.85,9.65,9.65,0,0,0,2.15,1.57,2.86,2.86,0,0,0-.62.84,10.47,10.47,0,0,1-3.25-3.51c0,.32,0,.78.06,1.43v1.83A7.92,7.92,0,0,0,34,47.27H33A8.58,8.58,0,0,0,33,45.84V44c0-.69.05-1.16.06-1.41a8.66,8.66,0,0,1-3.18,3.43,2.63,2.63,0,0,0-.63-.7,9.17,9.17,0,0,0,3.59-3.5Z"/><path class="cls-4" d="M43.53,44.15A8.9,8.9,0,0,1,40.06,47a3.11,3.11,0,0,0-.73-.72,7.72,7.72,0,0,0,2-1.11,6.6,6.6,0,0,0,1.47-1.54Zm2.76,1.72a8.23,8.23,0,0,0,.1,1.5H45.22a7.53,7.53,0,0,0,.11-1.5V43.05h-3.9c-.6,0-1,0-1.49.05A8.81,8.81,0,0,0,40,41.63v-5a7.4,7.4,0,0,0-.09-1.35H41A8.28,8.28,0,0,0,41,36.59v5.62h9.89a10.06,10.06,0,0,0,1.47-.07v1a8.61,8.61,0,0,0-1.46-.09H46.29Zm4.21-6a8.07,8.07,0,0,0,.08,1.41A13.63,13.63,0,0,0,49,41.18H44.26a13.59,13.59,0,0,0-1.54.06,13.69,13.69,0,0,0,.06-1.46V35.55c0-.55,0-.91-.06-1.35a12.54,12.54,0,0,0,1.63.08h4.7a11.9,11.9,0,0,0,1.53-.08,8.45,8.45,0,0,0-.08,1.41Zm-6.82-3.48h5.91V35.09H43.68Zm0,2h5.91V37.1H43.68Zm0,2h5.91V39.12H43.68Zm5.17,3.27a9.9,9.9,0,0,0,2,1.73,9.47,9.47,0,0,0,1.65.87,3.25,3.25,0,0,0-.69.78,12,12,0,0,1-3.74-2.9Z"/><path class="cls-4" d="M62.11,40.47a1.23,1.23,0,0,1-2.46,0,1.23,1.23,0,0,1,2.46,0Z"/><path class="cls-4" d="M71.82,35.61c-.59.14-.87.18-1.79.33a2.86,2.86,0,0,0-.42-.81,11,11,0,0,0,4.56-1.27l.62.79-.54.23c-.41.16-1,.37-1.52.51v2.38h.84a7.52,7.52,0,0,0,1.22-.06v1a7.92,7.92,0,0,0-1.2-.06h-.83a4.68,4.68,0,0,0,.42,1,8,8,0,0,0,1.55,2,2.34,2.34,0,0,0-.57.75,8.09,8.09,0,0,1-1.5-2.54c0,.68.07,1.92.07,2.27v3.43a11.92,11.92,0,0,0,.09,1.74H71.73a12.4,12.4,0,0,0,.09-1.74V42.29c0-.47,0-1.59.09-2.39A11.88,11.88,0,0,1,69.7,44a2.92,2.92,0,0,0-.6-.78,11.33,11.33,0,0,0,2.57-4.6h-1a11.06,11.06,0,0,0-1.23.07v-1a7.87,7.87,0,0,0,1.27.07h1.1ZM79,33.86a10.86,10.86,0,0,0-.09,2,18,18,0,0,0,.49,5.42,8.41,8.41,0,0,0,1.94,3.49,8.55,8.55,0,0,0,1.78,1.44,3.57,3.57,0,0,0-.79.84,8.93,8.93,0,0,1-3.21-4.05,9,9,0,0,1-.66-2.46,9.66,9.66,0,0,1-1.74,4.49,7.69,7.69,0,0,1-2.31,2.14,3.87,3.87,0,0,0-.72-.81A7.11,7.11,0,0,0,76.84,43a12.59,12.59,0,0,0,.89-3.14,20.17,20.17,0,0,0,.18-3,21.08,21.08,0,0,0-.09-2.94Zm-4.23,6.61a8.88,8.88,0,0,0,.85-4.12l.9.13a11.29,11.29,0,0,1-.91,4.4Zm7.65-3.82a18.24,18.24,0,0,1-1.5,4.17,3,3,0,0,0-.8-.48,12.23,12.23,0,0,0,1.37-4.07Z"/><path class="cls-4" d="M96.13,47.09v-.92H86.25v.92h-1a14.91,14.91,0,0,0,.09-1.74V36a14,14,0,0,0-.08-1.5,15.36,15.36,0,0,0,1.73.08h8.52a15.22,15.22,0,0,0,1.71-.08,11.22,11.22,0,0,0-.08,1.5v9.32a14.55,14.55,0,0,0,.09,1.74Zm-9.88-7.31h4.3v-4.3h-4.3Zm0,5.52h4.3V40.64h-4.3Zm5.25-5.52h4.63v-4.3H91.5Zm0,5.52h4.63V40.64H91.5Z"/><path class="cls-4" d="M104.13,44.15A8.9,8.9,0,0,1,100.66,47a3.11,3.11,0,0,0-.73-.72,7.72,7.72,0,0,0,1.95-1.11,6.6,6.6,0,0,0,1.47-1.54Zm2.76,1.72a8.23,8.23,0,0,0,.1,1.5h-1.17a7.53,7.53,0,0,0,.11-1.5V43.05H102c-.6,0-1,0-1.49.05a8.81,8.81,0,0,0,.08-1.47v-5a7.4,7.4,0,0,0-.09-1.35h1.11a8.28,8.28,0,0,0-.08,1.34v5.62h9.89a10.06,10.06,0,0,0,1.47-.07v1a8.61,8.61,0,0,0-1.46-.09h-4.57Zm4.21-6a8.07,8.07,0,0,0,.08,1.41,13.63,13.63,0,0,0-1.58-.06h-4.74a13.59,13.59,0,0,0-1.54.06,13.69,13.69,0,0,0,.06-1.46V35.55c0-.55,0-.91-.06-1.35a12.54,12.54,0,0,0,1.63.08h4.7a11.9,11.9,0,0,0,1.53-.08,8.45,8.45,0,0,0-.08,1.41Zm-6.82-3.48h5.91V35.09h-5.91Zm0,2h5.91V37.1h-5.91Zm0,2h5.91V39.12h-5.91Zm5.17,3.27a9.9,9.9,0,0,0,2,1.73,9.47,9.47,0,0,0,1.65.87,3.25,3.25,0,0,0-.69.78,12,12,0,0,1-3.74-2.9Z"/><path class="cls-4" d="M122.71,40.47a1.23,1.23,0,0,1-2.46,0,1.23,1.23,0,1,1,2.46,0Z"/><path class="cls-4" d="M131.79,39.92a12.34,12.34,0,0,0-1.71.07V38.93a10.07,10.07,0,0,0,1.71.09h9.87a11.36,11.36,0,0,0,1.71-.09V40a12.87,12.87,0,0,0-1.7-.07h-6.1a10.12,10.12,0,0,1-1.4,2.08h6.15a7.91,7.91,0,0,0,1.4-.07,10.44,10.44,0,0,0-.08,1.38v2.52a10.17,10.17,0,0,0,.09,1.41h-1.06v-.72h-6.93v.7h-1.07a9.11,9.11,0,0,0,.09-1.38V43.43a14,14,0,0,1-2.38,1.63,2.55,2.55,0,0,0-.6-.88,10.53,10.53,0,0,0,3.31-2.34,7.9,7.9,0,0,0,1.41-1.92ZM136.08,35a7.08,7.08,0,0,0-.11-1.38h1.14A8.93,8.93,0,0,0,137,35v1.54h4V35.45a6,6,0,0,0-.09-1.05H142a7.23,7.23,0,0,0-.08,1.06v1a5.76,5.76,0,0,0,.06,1c-.42,0-.85,0-1.44,0h-7.83c-.61,0-.9,0-1.42,0a9.06,9.06,0,0,0,0-.94v-1a5.89,5.89,0,0,0-.09-1.08h1.11a5.56,5.56,0,0,0-.07,1v1.11h3.78Zm-2.36,10.63h6.95V42.89h-6.95Z"/><path class="cls-4" d="M151.36,35.78a44.37,44.37,0,0,1-4.92.39,2.65,2.65,0,0,0-.39-.93,39.89,39.89,0,0,0,6.21-.48,14.89,14.89,0,0,0,3.83-1l.82.88a25.6,25.6,0,0,1-4.57,1v2.52H156a11.18,11.18,0,0,0,1.59-.09v1A11.38,11.38,0,0,0,156,39h-3.63v2.36h4.29a10.87,10.87,0,0,0,1.57-.09v1.06a11.36,11.36,0,0,0-1.57-.09h-4.29v3.47c0,.93-.36,1.18-1.64,1.18a21.83,21.83,0,0,1-2.25-.13,3.27,3.27,0,0,0-.27-1,15.79,15.79,0,0,0,2.55.26c.48,0,.63-.11.63-.44v-3.3h-4.62a11.26,11.26,0,0,0-1.57.09V41.3a10.68,10.68,0,0,0,1.57.09h4.62V39h-3.78a12.32,12.32,0,0,0-1.59.09v-1a11.18,11.18,0,0,0,1.59.09h3.78Z"/><path class="cls-4" d="M13.23,65.15A8.9,8.9,0,0,1,9.76,68,3.11,3.11,0,0,0,9,67.32a7.72,7.72,0,0,0,2-1.11,6.6,6.6,0,0,0,1.47-1.54ZM16,66.87a8.23,8.23,0,0,0,.1,1.5H14.92a7.53,7.53,0,0,0,.11-1.5V64.05h-3.9c-.6,0-1,0-1.49,0a8.81,8.81,0,0,0,.08-1.47v-5a7.4,7.4,0,0,0-.09-1.35h1.11a8.28,8.28,0,0,0-.08,1.34v5.62h9.89A10.06,10.06,0,0,0,22,63.14v1a8.61,8.61,0,0,0-1.46-.09H16Zm4.21-6a8.07,8.07,0,0,0,.08,1.41,13.63,13.63,0,0,0-1.58-.06H14a13.59,13.59,0,0,0-1.54.06,13.69,13.69,0,0,0,.06-1.46V56.55c0-.55,0-.91-.06-1.35a12.54,12.54,0,0,0,1.63.08h4.7a11.9,11.9,0,0,0,1.53-.08,8.45,8.45,0,0,0-.08,1.41Zm-6.82-3.48h5.91V56.09H13.38Zm0,2h5.91V58.1H13.38Zm0,2h5.91V60.12H13.38Zm5.17,3.27a9.9,9.9,0,0,0,2,1.73,9.47,9.47,0,0,0,1.65.87,3.25,3.25,0,0,0-.69.78,12,12,0,0,1-3.74-2.9Z"/><path class="cls-4" d="M31.81,61.47a1.23,1.23,0,0,1-2.46,0,1.23,1.23,0,0,1,2.46,0Z"/><path class="cls-4" d="M45.07,56.25a8.24,8.24,0,0,0-.1-1.39h1.24a8,8,0,0,0-.1,1.39V65.9h4.42V59a8.8,8.8,0,0,0-.09-1.39h1.19a11.24,11.24,0,0,0-.09,1.41v7.47a11.5,11.5,0,0,0,.1,1.59H50.53V66.86H41v1.26H39.84a12.08,12.08,0,0,0,.1-1.52V59.12a9.09,9.09,0,0,0-.1-1.47H41A10.09,10.09,0,0,0,41,59.1v6.8h4.12Z"/><path class="cls-4" d="M55.89,56.27a7.57,7.57,0,0,0-1.29.07v-1A9.21,9.21,0,0,0,56,55.4h4.71A8.88,8.88,0,0,0,62,55.31v1a7.25,7.25,0,0,0-1.27-.07h-.33V60h.46a7.42,7.42,0,0,0,1.32-.08V61a7.75,7.75,0,0,0-1.32-.07h-.46v5.62a10.44,10.44,0,0,0,.09,1.56l-1.11,0a10.17,10.17,0,0,0,.09-1.56V60.89H57.22A17,17,0,0,1,57,63.63a8.73,8.73,0,0,1-2.24,4.52,3,3,0,0,0-.79-.68c1.63-1.57,2.29-3.43,2.35-6.58h-.61a8.79,8.79,0,0,0-1.37.09V59.9a8.44,8.44,0,0,0,1.37.09h.61V56.27ZM57.22,60h2.27V56.27H57.22ZM68,63.14a11.44,11.44,0,0,0-1,1.12,16.15,16.15,0,0,1-5.2,3.86,4.78,4.78,0,0,0-.59-.87,13.84,13.84,0,0,0,4.91-3.41,7.52,7.52,0,0,0,1.06-1.42ZM67,55.46c-.18.15-.3.27-.78.72a16,16,0,0,1-4,2.89,3.21,3.21,0,0,0-.6-.85,11.69,11.69,0,0,0,3.47-2.31,6.43,6.43,0,0,0,1-1.11Zm.54,3.79a5.21,5.21,0,0,0-.63.59,17,17,0,0,1-4.62,3.46,4.08,4.08,0,0,0-.59-.88,12.33,12.33,0,0,0,3.86-2.55,6.92,6.92,0,0,0,1.14-1.32Z"/><path class="cls-4" d="M73.83,65.15A8.9,8.9,0,0,1,70.36,68a3.11,3.11,0,0,0-.73-.72,7.72,7.72,0,0,0,2-1.11,6.6,6.6,0,0,0,1.47-1.54Zm2.76,1.72a8.23,8.23,0,0,0,.1,1.5H75.52a7.53,7.53,0,0,0,.11-1.5V64.05h-3.9c-.6,0-1,0-1.49,0a8.81,8.81,0,0,0,.08-1.47v-5a7.4,7.4,0,0,0-.09-1.35h1.11a8.28,8.28,0,0,0-.08,1.34v5.62h9.89a10.06,10.06,0,0,0,1.47-.07v1a8.61,8.61,0,0,0-1.46-.09H76.59Zm4.21-6a8.07,8.07,0,0,0,.08,1.41,13.63,13.63,0,0,0-1.58-.06H74.56a13.59,13.59,0,0,0-1.54.06,13.69,13.69,0,0,0,.06-1.46V56.55c0-.55,0-.91-.06-1.35a12.54,12.54,0,0,0,1.63.08h4.7a11.9,11.9,0,0,0,1.53-.08,8.45,8.45,0,0,0-.08,1.41ZM74,57.35h5.91V56.09H74Zm0,2h5.91V58.1H74Zm0,2h5.91V60.12H74Zm5.17,3.27a9.9,9.9,0,0,0,2,1.73,9.47,9.47,0,0,0,1.65.87,3.25,3.25,0,0,0-.69.78,12,12,0,0,1-3.74-2.9Z"/><path class="cls-4" d="M92.41,61.47a1.23,1.23,0,1,1-2.46,0,1.23,1.23,0,1,1,2.46,0Z"/><path class="cls-4" d="M105.73,55.59a4.42,4.42,0,0,0-.1-.94h1.18a4,4,0,0,0-.1.93v.51h4.42c.68,0,1,0,1.5-.06a7.16,7.16,0,0,0-.06,1v1.08a7.73,7.73,0,0,0,.06,1h-1V56.94H101.1v2.24h-1a8,8,0,0,0,.06-1.07V57.05a7.26,7.26,0,0,0-.06-1c.46,0,.84.06,1.51.06h4.11Zm-1.93,6.2a12,12,0,0,0-1.61.06,7.32,7.32,0,0,0,.06-1.19V59.31a11.28,11.28,0,0,0,0-1.14,9.85,9.85,0,0,0,1.44.08h5.47a9.85,9.85,0,0,0,1.44-.08,7.82,7.82,0,0,0-.06,1.16v1.33a8.3,8.3,0,0,0,.06,1.19,13.6,13.6,0,0,0-1.6-.06h-2.27c-.19.55-.43,1.15-.64,1.6h4.09a11.2,11.2,0,0,0,1.44-.06,9.5,9.5,0,0,0-.07,1.41v2.09a10.08,10.08,0,0,0,.09,1.42h-1v-.72h-8.35v.72h-1a10.39,10.39,0,0,0,.09-1.42V64.74a9.27,9.27,0,0,0-.07-1.41,11.32,11.32,0,0,0,1.42.06h2.46a10.26,10.26,0,0,0,.63-1.6Zm-1.59,4.9h8.35V64.22h-8.35Zm1-5.68h6.42V59h-6.42Z"/><path class="cls-4" d="M116.43,56.45a12.14,12.14,0,0,0-.09-1.65h1.09a12.51,12.51,0,0,0-.09,1.66v2.22h.24a8.36,8.36,0,0,0,1.23-.06v1c-.43,0-.85-.06-1.24-.06h-.23v4.22a12.81,12.81,0,0,0,1.37-.86l.07.93a26.68,26.68,0,0,1-3.3,1.85l-.58.3-.32-1a9.49,9.49,0,0,0,1.85-.75V59.52h-.36a9.86,9.86,0,0,0-1.28.08v-1a8.62,8.62,0,0,0,1.31.07h.33ZM124.71,58a29.29,29.29,0,0,0,.72,4.94,11.7,11.7,0,0,0,1.23-3.38l1,.36c-.18.42-.21.53-.34.87A19.88,19.88,0,0,1,125.74,64c.54,1.48,1.31,2.86,1.58,2.86s.34-.81.46-2.19a2.58,2.58,0,0,0,.78.62c-.25,1.93-.57,2.65-1.17,2.65s-1.56-1.11-2.29-3a10.37,10.37,0,0,1-3.24,3,2.43,2.43,0,0,0-.71-.72A9.75,9.75,0,0,0,124.78,64a24.38,24.38,0,0,1-1-6h-3.45v.47c0,.25,0,1.08,0,1.66h1.59a10,10,0,0,0,1.33-.06.62.62,0,0,0,0,.12c0,.2,0,.2-.09,1.7a7.19,7.19,0,0,1-.59,3.22,1.36,1.36,0,0,1-1.14.36c-.28,0-.72,0-1.09,0a2.65,2.65,0,0,0-.17-1,6.54,6.54,0,0,0,1.17.12c.41,0,.59-.09.66-.33a14,14,0,0,0,.33-3.3h-2a18,18,0,0,1-.72,4.5A7.78,7.78,0,0,1,118.2,68a2.45,2.45,0,0,0-.81-.6c1.54-1.73,2-3.86,2-8.55a13.94,13.94,0,0,0-.06-1.76c.78.06,1,.08,1.46.08h2.92c0-.44,0-.86,0-1.41a5.94,5.94,0,0,0-.06-1h1a5.72,5.72,0,0,0-.07,1.11c0,.22,0,.61,0,1.32h1.74a10.35,10.35,0,0,0,1.56-.09v1a15.61,15.61,0,0,0-1.61-.08ZM127,56.91a7.53,7.53,0,0,0-1.71-1.51l.57-.53a10.84,10.84,0,0,1,1.76,1.43Z"/><path class="cls-4" d="M134.43,65.15A8.9,8.9,0,0,1,131,68a3.11,3.11,0,0,0-.73-.72,7.72,7.72,0,0,0,2-1.11,6.6,6.6,0,0,0,1.47-1.54Zm2.76,1.72a8.23,8.23,0,0,0,.1,1.5h-1.17a7.53,7.53,0,0,0,.11-1.5V64.05h-3.9c-.6,0-1,0-1.49,0a8.81,8.81,0,0,0,.08-1.47v-5a7.4,7.4,0,0,0-.09-1.35h1.11a8.28,8.28,0,0,0-.08,1.34v5.62h9.89a10.06,10.06,0,0,0,1.47-.07v1a8.61,8.61,0,0,0-1.46-.09h-4.57Zm4.21-6a8.07,8.07,0,0,0,.08,1.41,13.63,13.63,0,0,0-1.58-.06h-4.74a13.59,13.59,0,0,0-1.54.06,13.69,13.69,0,0,0,.06-1.46V56.55c0-.55,0-.91-.06-1.35a12.54,12.54,0,0,0,1.63.08H140a11.9,11.9,0,0,0,1.53-.08,8.45,8.45,0,0,0-.08,1.41Zm-6.82-3.48h5.91V56.09h-5.91Zm0,2h5.91V58.1h-5.91Zm0,2h5.91V60.12h-5.91Zm5.17,3.27a9.9,9.9,0,0,0,2,1.73,9.47,9.47,0,0,0,1.65.87,3.25,3.25,0,0,0-.69.78,12,12,0,0,1-3.74-2.9Z"/><path class="cls-4" d="M153,61.47a1.23,1.23,0,0,1-2.46,0,1.23,1.23,0,1,1,2.46,0Z"/><path class="cls-4" d="M10.74,83.18a14.15,14.15,0,0,1-2,1.77,2.49,2.49,0,0,0-.54-.83,12,12,0,0,0,2.67-2.4,11.15,11.15,0,0,0,1.63-2.64H9.94c-.37,0-.75,0-1.15.06v-1a10.37,10.37,0,0,0,1.12.06h.83V76.85a10.89,10.89,0,0,0-.09-1.17h1.09a6.29,6.29,0,0,0-.09,1.18v1.37h.9a3.26,3.26,0,0,0,.71,0l.43.57a5.25,5.25,0,0,0-.3.59A13.37,13.37,0,0,1,11.76,82a5.93,5.93,0,0,0,1.87,1.44,3.14,3.14,0,0,0-.46.82A7.8,7.8,0,0,1,11.65,83v4.79a11.11,11.11,0,0,0,.08,1.57H10.66a14.81,14.81,0,0,0,.08-1.57Zm2.77-7a13,13,0,0,0,1.49.08h5.53A11.78,11.78,0,0,0,22,76.23v1a11.79,11.79,0,0,0-1.43-.08H14.94a12.3,12.3,0,0,0-1.43.08Zm6.83,6.54a10.21,10.21,0,0,0,1.45-.06,13,13,0,0,0-.06,1.44v3.59a11.2,11.2,0,0,0,.09,1.54h-1v-.75H14.71v.69h-1a10.94,10.94,0,0,0,.09-1.51V84.17a13.27,13.27,0,0,0-.06-1.44c.36,0,.82,0,1.48,0ZM14.5,79.46a9.16,9.16,0,0,0-.06-1.25,9.33,9.33,0,0,0,1.41.08h3.78A10.58,10.58,0,0,0,21,78.21,10.26,10.26,0,0,0,21,79.44v1A10.24,10.24,0,0,0,21,81.66a12.61,12.61,0,0,0-1.42-.06H15.87a13.84,13.84,0,0,0-1.43.06,8.6,8.6,0,0,0,.06-1.23Zm.21,5.71h2.52V83.55H14.71Zm0,2.58h2.52V85.94H14.71Zm.68-6.91h4.66V79.07H15.39Zm2.7,4.33h2.74V83.55H18.09Zm0,2.58h2.74V85.94H18.09Z"/><path class="cls-4" d="M28.36,85.08H27.07c-.66,0-.82,0-1.24,0a12.32,12.32,0,0,0,.06-1.35V78.18c0-.45,0-.81-.06-1.17a7.69,7.69,0,0,0,1.2.06h1.68a7.77,7.77,0,0,0,.72-1.5l1,.2a14.57,14.57,0,0,1-.72,1.3h3.67A8,8,0,0,0,34.6,77a6.22,6.22,0,0,0,0,.95v2.49c0,.39,0,.7,0,1-.45,0-.76,0-1.17,0H26.82v1h8.77A9,9,0,0,0,37,82.34v1a12.35,12.35,0,0,0-1.44-.08H26.82V84.3h8.59a7.78,7.78,0,0,0,1.19-.06c0,.14-.05.38-.11.84a10.84,10.84,0,0,1-.7,3.45c-.29.42-.69.57-1.58.57-.42,0-.66,0-1.14,0a3,3,0,0,0-.22-1,9.6,9.6,0,0,0,1.47.14c.49,0,.67-.11.79-.5a16,16,0,0,0,.45-2.67H29.29v2h2.82v-.74a4.43,4.43,0,0,0-.06-.84h1a5.17,5.17,0,0,0-.06.9v.75a6.52,6.52,0,0,0,0,.78h-.56a4.27,4.27,0,0,0-.52,0H25.72v.69h-1a7.43,7.43,0,0,0,.09-1.18v-.95a4.25,4.25,0,0,0-.08-.9h1a4.21,4.21,0,0,0-.05.84v.68h2.64Zm5.25-6.22v-1H26.82v1Zm-6.79,1.81h6.79V79.59H26.82Z"/><path class="cls-4" d="M43.53,86.15A8.9,8.9,0,0,1,40.06,89a3.11,3.11,0,0,0-.73-.72,7.72,7.72,0,0,0,2-1.11,6.6,6.6,0,0,0,1.47-1.54Zm2.76,1.72a8.23,8.23,0,0,0,.1,1.5H45.22a7.53,7.53,0,0,0,.11-1.5V85.05h-3.9c-.6,0-1,0-1.49,0A8.81,8.81,0,0,0,40,83.63v-5a7.4,7.4,0,0,0-.09-1.35H41A8.28,8.28,0,0,0,41,78.59v5.62h9.89a10.06,10.06,0,0,0,1.47-.07v1a8.61,8.61,0,0,0-1.46-.09H46.29Zm4.21-6a8.07,8.07,0,0,0,.08,1.41A13.63,13.63,0,0,0,49,83.18H44.26a13.59,13.59,0,0,0-1.54.06,13.69,13.69,0,0,0,.06-1.46V77.55c0-.55,0-.91-.06-1.35a12.54,12.54,0,0,0,1.63.08h4.7a11.9,11.9,0,0,0,1.53-.08,8.45,8.45,0,0,0-.08,1.41Zm-6.82-3.48h5.91V77.09H43.68Zm0,2h5.91V79.1H43.68Zm0,2h5.91V81.12H43.68Zm5.17,3.27a9.9,9.9,0,0,0,2,1.73,9.47,9.47,0,0,0,1.65.87,3.25,3.25,0,0,0-.69.78,12,12,0,0,1-3.74-2.9Z"/><path class="cls-4" d="M62.11,82.47a1.23,1.23,0,0,1-2.46,0,1.23,1.23,0,1,1,2.46,0Z"/><path class="cls-4" d="M70.56,83.88a5.76,5.76,0,0,0-1.23.09V83a5.21,5.21,0,0,0,1.26.09h1.83v-.79a2.51,2.51,0,0,0-.08-.62h1a2.51,2.51,0,0,0-.06.62v.79h1.65A5.47,5.47,0,0,0,76.15,83v1a6.42,6.42,0,0,0-1.21-.08H73.51a6.28,6.28,0,0,0,2.12,1.91,3.54,3.54,0,0,0-.53.81,7.75,7.75,0,0,1-1.87-2.07c0,.33,0,.76.06,1.32V88a8.28,8.28,0,0,0,.07,1.29h-1A8.24,8.24,0,0,0,72.42,88V85.89c0-.36,0-.75,0-1.24A8.87,8.87,0,0,1,69.63,88a3,3,0,0,0-.57-.84,10.56,10.56,0,0,0,2-1.65,7.14,7.14,0,0,0,1.09-1.61Zm2.67-3.34a8.13,8.13,0,0,0,1-2.46l.9.28a15.68,15.68,0,0,1-1,2.18H75a6.42,6.42,0,0,0,1.21-.08v1A6.84,6.84,0,0,0,75,81.39H70.54a6.71,6.71,0,0,0-1.24.08v-1a6.51,6.51,0,0,0,1.24.08Zm1.53-3.45A6.88,6.88,0,0,0,76,77v1a7.64,7.64,0,0,0-1.28-.08H70.9a7.45,7.45,0,0,0-1.3.08V77a7.14,7.14,0,0,0,1.32.08h1.5v-.41a5.15,5.15,0,0,0-.08-1.05h1.1a5,5,0,0,0-.08,1.05v.41ZM71.32,80.4a8.44,8.44,0,0,0-.85-2l.79-.3a9.11,9.11,0,0,1,.86,2Zm10.28,0A7.68,7.68,0,0,0,83,80.34v1a7.78,7.78,0,0,0-1.32-.08H81.1v6.54a7.86,7.86,0,0,0,.09,1.5H80a9,9,0,0,0,.09-1.5V81.3H77.77v.59a16.45,16.45,0,0,1-.85,5.38,7.74,7.74,0,0,1-1.11,2.06A3.07,3.07,0,0,0,75,88.7c1.44-1.77,1.89-3.87,1.89-8.88,0-1.7,0-2.34-.07-2.78H77a14.48,14.48,0,0,0,3.55-.69,4.69,4.69,0,0,0,1.38-.64l.77.84a3.19,3.19,0,0,0-.54.21,18.64,18.64,0,0,1-4.32,1.11v2.56Z"/><path class="cls-4" d="M85.08,79.49a14.23,14.23,0,0,1,2.52,1.9l-.6.8a11.75,11.75,0,0,0-2.49-2Zm2.55,5a23.71,23.71,0,0,1-1.95,4.07,5.41,5.41,0,0,0-.3.54l-.86-.78a13.86,13.86,0,0,0,2.34-4.44Zm-1.8-8.59a12.81,12.81,0,0,1,2.37,2l-.59.77a11.65,11.65,0,0,0-2.4-2.06ZM95.89,77.1H94.2a9.89,9.89,0,0,0-1.13.06v-.93a7.23,7.23,0,0,0,1.2.08h1.25a11.32,11.32,0,0,0,1.33-.06,13.85,13.85,0,0,0-.06,1.48v2.63c0,.61,0,1,0,1.48a12.67,12.67,0,0,0-1.44,0H91.74a6.68,6.68,0,0,1-.83,1.36h5.25a10.61,10.61,0,0,0,1.49-.06,8.3,8.3,0,0,0-.09,1.22,24,24,0,0,1-.39,3.4c-.24,1-.53,1.31-1.52,1.31a14.6,14.6,0,0,1-1.57-.09,2.74,2.74,0,0,0-.26-1,8.65,8.65,0,0,0,1.82.19c.54,0,.61-.13.81-1.51A21.91,21.91,0,0,0,96.66,84H90.24a9.2,9.2,0,0,1-2.09,1.59,2.91,2.91,0,0,0-.58-.75,7.5,7.5,0,0,0,2.2-1.58,4.88,4.88,0,0,0,1-1.42h-.54a10.4,10.4,0,0,0-1.36.06,14.08,14.08,0,0,0,.06-1.46V78.24a10.73,10.73,0,0,0-.08-1.45,10.46,10.46,0,0,0,2.3-.6,3.13,3.13,0,0,0,.76-.42l.6.78a10.81,10.81,0,0,1-2.68.91v1.19h1.05a6.61,6.61,0,0,0,1.26-.08v.92a9.15,9.15,0,0,0-1.26-.06H89.82V81h6.07V79.43H94.6a10,10,0,0,0-1.36.07v-.93a7.5,7.5,0,0,0,1.36.08h1.29ZM90,85.25a11.74,11.74,0,0,1-1.23,3.4l-.89-.49A7.58,7.58,0,0,0,89.22,85Zm1.53-.35a15.67,15.67,0,0,1,.46,3l-.88.25a14.64,14.64,0,0,0-.33-3.09Zm1.63-.28a11.86,11.86,0,0,1,1,2.47l-.79.35a10.5,10.5,0,0,0-.84-2.63Zm1.64-.3a9.34,9.34,0,0,1,1.11,1.93l-.69.39a7.82,7.82,0,0,0-1-2Z"/><path class="cls-4" d="M104.13,86.15A8.9,8.9,0,0,1,100.66,89a3.11,3.11,0,0,0-.73-.72,7.72,7.72,0,0,0,1.95-1.11,6.6,6.6,0,0,0,1.47-1.54Zm2.76,1.72a8.23,8.23,0,0,0,.1,1.5h-1.17a7.53,7.53,0,0,0,.11-1.5V85.05H102c-.6,0-1,0-1.49,0a8.81,8.81,0,0,0,.08-1.47v-5a7.4,7.4,0,0,0-.09-1.35h1.11a8.28,8.28,0,0,0-.08,1.34v5.62h9.89a10.06,10.06,0,0,0,1.47-.07v1a8.61,8.61,0,0,0-1.46-.09h-4.57Zm4.21-6a8.07,8.07,0,0,0,.08,1.41,13.63,13.63,0,0,0-1.58-.06h-4.74a13.59,13.59,0,0,0-1.54.06,13.69,13.69,0,0,0,.06-1.46V77.55c0-.55,0-.91-.06-1.35a12.54,12.54,0,0,0,1.63.08h4.7a11.9,11.9,0,0,0,1.53-.08,8.45,8.45,0,0,0-.08,1.41Zm-6.82-3.48h5.91V77.09h-5.91Zm0,2h5.91V79.1h-5.91Zm0,2h5.91V81.12h-5.91Zm5.17,3.27a9.9,9.9,0,0,0,2,1.73,9.47,9.47,0,0,0,1.65.87,3.25,3.25,0,0,0-.69.78,12,12,0,0,1-3.74-2.9Z"/><path class="cls-4" d="M127.08,89.39A10.08,10.08,0,0,1,125,86.16a9.82,9.82,0,0,1,0-7.38,10.16,10.16,0,0,1,2.09-3.22h1.33a9.55,9.55,0,0,0-2.28,3.1,9.37,9.37,0,0,0,0,7.62,9.57,9.57,0,0,0,2.28,3.11Z"/><path class="cls-4" d="M143.23,82.92a14.33,14.33,0,0,0-2-.1H132a15,15,0,0,0-2,.1V81.68a14.49,14.49,0,0,0,2,.1h9.24a13.86,13.86,0,0,0,2-.1Z"/><path class="cls-4" d="M151.48,81.45a7.91,7.91,0,0,0,1.4-.07v1a10.7,10.7,0,0,0-1.37-.07h-5a8.73,8.73,0,0,0-1.43.07v-1a8.8,8.8,0,0,0,1.44.07h3.24a12.22,12.22,0,0,0,1.08-3l.92.31a16,16,0,0,1-1.11,2.67Zm-.19-4.08a8.19,8.19,0,0,0,1.39-.07v1a7.61,7.61,0,0,0-1.38-.08h-4.48a7.8,7.8,0,0,0-1.35.08v-1a8.19,8.19,0,0,0,1.39.07h1.82v-.55a5.69,5.69,0,0,0-.09-1.14h1.12a6.24,6.24,0,0,0-.09,1.15v.54ZM147,89.21h-1a9.21,9.21,0,0,0,.06-1.35v-3a12.09,12.09,0,0,0,0-1.26,11.76,11.76,0,0,0,1.18,0h3.56a8.71,8.71,0,0,0,1.09,0,8.74,8.74,0,0,0,0,1.25V88a7.78,7.78,0,0,0,.06,1.19h-1v-.93H147Zm.25-10.71a11.79,11.79,0,0,1,1,2.49l-.87.3a10.37,10.37,0,0,0-1-2.49ZM147,87.44h3.87v-3H147Zm11.58-10.7a10.68,10.68,0,0,0-.62,1.34,31.57,31.57,0,0,1-1.54,3,7,7,0,0,1,1.69,2.35,5.22,5.22,0,0,1,.45,2.1,1.81,1.81,0,0,1-.76,1.68,3,3,0,0,1-1.35.23c-.41,0-.8,0-1.25-.06a2.84,2.84,0,0,0-.19-1,7.28,7.28,0,0,0,1.45.15c.86,0,1.14-.27,1.14-1.06a4.63,4.63,0,0,0-.49-2,6.18,6.18,0,0,0-1.79-2.18,22.38,22.38,0,0,0,2-4.18h-3V87.69a9,9,0,0,0,.11,1.67h-1.14a11.93,11.93,0,0,0,.09-1.65V77.51c0-.45,0-.87-.06-1.38.39,0,.67,0,1.2,0H157a6.63,6.63,0,0,0,1.16-.06Z"/><path class="cls-4" d="M13.38,99.08A6.65,6.65,0,0,0,14.1,97l1.2.21a3,3,0,0,0-.39.81,10.55,10.55,0,0,1-.47,1h.32a21,21,0,0,0,4.72-.57l.09,1a4.62,4.62,0,0,0-.6.07A48.32,48.32,0,0,1,14,100a10.54,10.54,0,0,1-1.35,2.13,7.23,7.23,0,0,1-.51.57l-.19.15a0,0,0,0,1,0,0h0l0,0,.69-.53a4,4,0,0,1,2.27-.73,1.82,1.82,0,0,1,2,1.66c1.09-.43,1.95-.75,2.61-1a3.41,3.41,0,0,0,1-.43l.48,1a24.06,24.06,0,0,0-4,1.32c0,.39,0,.54,0,.91,0,.2,0,.53,0,.83s0,.54,0,.67a3.26,3.26,0,0,0,0,.54l-1,0a20.2,20.2,0,0,0,.09-2.16c0-.24,0-.27,0-.45-2,1-2.82,1.66-2.82,2.56s.93,1.43,3,1.43a12.45,12.45,0,0,0,4-.59l.13,1.16a5.87,5.87,0,0,0-.6.07,22.62,22.62,0,0,1-3.64.3c-2.69,0-4-.76-4-2.31a3.12,3.12,0,0,1,1.53-2.37,12.33,12.33,0,0,1,2.23-1.2c-.12-.82-.48-1.18-1.18-1.18a5.62,5.62,0,0,0-3.35,1.59,5,5,0,0,0-1.15,1.24l-.84-.84a14.94,14.94,0,0,0,3.36-4.29L13,100l-.28,0-2.21,0h-.24l-.33,0,0-1a20.15,20.15,0,0,0,3.21.17Z"/><path class="cls-4" d="M24.52,98.28c0-.42,0-.84,0-1.14a7.75,7.75,0,0,0,1,0h2a5.21,5.21,0,0,0,1-.06l.53.51a1.09,1.09,0,0,1-.11.24s-.06.13-.12.25a25,25,0,0,1-1.63,3.32,5.06,5.06,0,0,1,1,1.65,5.94,5.94,0,0,1,.3,1.86c0,1-.26,1.5-.8,1.68a3.61,3.61,0,0,1-1.06.13H26a2.77,2.77,0,0,0-.18-.9,7.63,7.63,0,0,0,.88.06c.57,0,.78-.24.78-.92a4.62,4.62,0,0,0-1.36-3.48A17.83,17.83,0,0,0,27.78,98H25.44v10.64c0,.58,0,1.12.07,1.59H24.43a12.11,12.11,0,0,0,.09-1.61Zm6.08,7.31A9,9,0,0,1,28,109.43a2.84,2.84,0,0,0-.7-.69,7,7,0,0,0,1.39-1.43,8,8,0,0,0,1-2.08Zm.19-3.77a10.13,10.13,0,0,0-1.15.06v-.94a11.34,11.34,0,0,1-1.25.85,2.41,2.41,0,0,0-.6-.81,9.83,9.83,0,0,0,4.26-4.18H33.1a10.67,10.67,0,0,0,4.73,4.2,6.26,6.26,0,0,0-.57.9,13.15,13.15,0,0,1-4.65-4.25,12,12,0,0,1-3,3.29,8.87,8.87,0,0,0,1.17.06h3.76a8.79,8.79,0,0,0,1.14-.06v.94a9.7,9.7,0,0,0-1.14-.06H33v1.88h2.81a9.31,9.31,0,0,0,1.42-.09v1a9.4,9.4,0,0,0-1.42-.09H33v4.38c0,.87-.36,1.16-1.42,1.16-.35,0-.87,0-1.32-.06a3,3,0,0,0-.3-1,10.94,10.94,0,0,0,1.53.13c.42,0,.57-.09.57-.34v-4.28H30a8.94,8.94,0,0,0-1.29.08v-1a8.94,8.94,0,0,0,1.29.08h2.12v-1.88Zm4.31,3.44a8.41,8.41,0,0,0,2.49,3.39,4,4,0,0,0-.72.79,11.75,11.75,0,0,1-2.57-3.82Z"/><path class="cls-4" d="M48.57,97.86c-.17.14-.29.24-1.85,1.74a43.41,43.41,0,0,1-3.45,2.84c-.55.42-.66.54-.66.75s.12.37,1.34,1.32a45.12,45.12,0,0,1,4.8,4.09,3.17,3.17,0,0,0,.42.38l-1,.93a14.28,14.28,0,0,0-1.93-2.06c-1-.93-1.61-1.42-3.8-3.13-.84-.66-1.08-1-1.08-1.5a1.45,1.45,0,0,1,.44-1,11.75,11.75,0,0,1,1.27-1,23.75,23.75,0,0,0,4.4-4.11Z"/><path class="cls-4" d="M54,110.39a9.23,9.23,0,0,0,2.28-3.11,9.37,9.37,0,0,0,0-7.62A9.3,9.3,0,0,0,54,96.56h1.34a10.11,10.11,0,0,1,2.08,3.22,9.82,9.82,0,0,1,0,7.38,10,10,0,0,1-2.08,3.23Z"/></g></g></svg>