<svg xmlns="http://www.w3.org/2000/svg" viewBox="0 0 185 120"><defs><style>.cls-1{fill:#fff;}.cls-2{fill:#d1d1d1;}.cls-3{fill:#ed8a33;}.cls-4{fill:#666;}</style></defs><title>area-chuubu</title><g id="レイヤー_2" data-name="レイヤー 2"><g id="メインデザイン"><rect class="cls-1" x="0.5" y="0.5" width="184" height="119"/><path class="cls-2" d="M184,1V119H1V1H184m1-1H0V120H185V0Z"/><rect class="cls-3" x="168" width="17" height="120"/><path class="cls-1" d="M172,65.17V54.83L181,60Z"/><path d="M16.23,10A12,12,0,0,0,16.12,8h2.39a15.09,15.09,0,0,0-.11,2v1.23h5.21a13.11,13.11,0,0,0,1.72-.07,15.72,15.72,0,0,0-.07,1.67v5.79a14.07,14.07,0,0,0,.09,1.9H23.11V19.34H18.4V23.2a15.77,15.77,0,0,0,.13,2.36H16.1a15.47,15.47,0,0,0,.13-2.36V19.34H11.75v1.14H9.51a13.59,13.59,0,0,0,.09-1.9V12.77a14.25,14.25,0,0,0-.07-1.65,14.14,14.14,0,0,0,1.71.07h5Zm-4.48,3.17v4.12h4.48V13.21Zm11.36,4.12V13.21H18.4v4.12Z"/><path d="M35.92,15a7.89,7.89,0,0,0,1.63-.1V17a8.43,8.43,0,0,0-1.54-.1H29.65a11.84,11.84,0,0,0-1.9.1V14.88a11.51,11.51,0,0,0,1.92.1h3.74a15.56,15.56,0,0,0,1-3.1l2,.49a17.35,17.35,0,0,1-1,2.61Zm-.27-5.13a9.39,9.39,0,0,0,1.73-.1V11.8a8.77,8.77,0,0,0-1.59-.09H29.71a9.24,9.24,0,0,0-1.56.09V9.75a9.73,9.73,0,0,0,1.8.1h1.94V9.31A7.2,7.2,0,0,0,31.78,8H34a8.11,8.11,0,0,0-.1,1.33v.54ZM30.87,25.46H28.81a14.62,14.62,0,0,0,.08-1.78V19.55A14.57,14.57,0,0,0,28.83,18c.44,0,.82.05,1.52.05h4.9A12.49,12.49,0,0,0,36.64,18a10.12,10.12,0,0,0-.06,1.4V24a9.06,9.06,0,0,0,.08,1.42H34.57V24.36h-3.7Zm.3-13.73a12.79,12.79,0,0,1,1,2.66L30.28,15a11.51,11.51,0,0,0-.9-2.66Zm-.3,10.81h3.72V19.88H30.87ZM45.34,9.75a6.61,6.61,0,0,0-.38.84,38.06,38.06,0,0,1-2.05,4.52,8.49,8.49,0,0,1,1.82,2.75,7,7,0,0,1,.54,2.64,2.32,2.32,0,0,1-1.35,2.38,5.13,5.13,0,0,1-1.94.24c-.32,0-.5,0-.95,0A4.39,4.39,0,0,0,40.59,21a9.32,9.32,0,0,0,1.43.11c.95,0,1.25-.21,1.25-.82a5.64,5.64,0,0,0-.61-2.45,7.73,7.73,0,0,0-2-2.47,21.14,21.14,0,0,0,2.09-5H40.14V23.35a12.79,12.79,0,0,0,.13,2.23H38a19.45,19.45,0,0,0,.11-2.17V10.05c0-.55,0-1.08-.07-1.59a12.34,12.34,0,0,0,1.55.07h3.29a7.1,7.1,0,0,0,1.5-.09Z"/><path d="M56.5,20.64h4.59a12.93,12.93,0,0,0,2.47-.14v2.4a18.51,18.51,0,0,0-2.43-.1H49.73a18.51,18.51,0,0,0-2.43.1V20.5a12.93,12.93,0,0,0,2.47.14h4.29V12.83h-2.9a20.9,20.9,0,0,0-2.43.09V10.55a14.12,14.12,0,0,0,2.47.13h8.45a14.19,14.19,0,0,0,2.47-.13v2.37a20.79,20.79,0,0,0-2.43-.09H56.5Z"/><path d="M71.39,9a10.44,10.44,0,0,0-.07,1.71v5.24a10.09,10.09,0,0,0,.07,1.68h-2.6a13.34,13.34,0,0,0,.09-1.71V10.68A11.83,11.83,0,0,0,68.81,9ZM80,9a8.53,8.53,0,0,0-.1,1.77v2.56a22.7,22.7,0,0,1-.49,5.76,7.27,7.27,0,0,1-3.74,4.42A16.44,16.44,0,0,1,72,25a6.37,6.37,0,0,0-1.33-2.26,10.38,10.38,0,0,0,4.1-1.52c1.79-1.18,2.42-2.34,2.63-4.85.07-.82.09-1.65.09-3.17V10.81A10.79,10.79,0,0,0,77.38,9Z"/><path d="M94,13.27a7.76,7.76,0,0,0-.07,1.53c-.08,3.25-.59,5.08-1.89,6.73A11,11,0,0,1,87.14,25a6.64,6.64,0,0,0-1.5-2.17A8.7,8.7,0,0,0,89,21.17c1.93-1.54,2.54-3.17,2.54-6.77a5,5,0,0,0-.09-1.13Zm7.71-2.4A5.59,5.59,0,0,0,101,12.2,11.94,11.94,0,0,1,98,16a12.52,12.52,0,0,1-2.28,1.58A6.38,6.38,0,0,0,94,15.87a8.85,8.85,0,0,0,2.77-1.75,7.92,7.92,0,0,0,1.81-2.41h-10a19.14,19.14,0,0,0-2.58.11V9.45a15.58,15.58,0,0,0,2.62.15H98.6a5.26,5.26,0,0,0,1.84-.17Z"/><path class="cls-4" d="M15.13,41.28a6.58,6.58,0,0,0,1.94,2.3,9.92,9.92,0,0,0,2.34-2.13l.88.54-.27.24s-.09.09-.16.16a12.61,12.61,0,0,1-2.13,1.68A13.36,13.36,0,0,0,22.29,46a4.5,4.5,0,0,0-.53,1,13.1,13.1,0,0,1-5.32-2.73,8.44,8.44,0,0,1-2.28-3H12.34v4.16a27.2,27.2,0,0,0,3.29-1l0,.91A45.65,45.65,0,0,1,10,47c-.21.06-.36.11-.65.18l-.31-1a13.08,13.08,0,0,0,2.37-.43v-4.4H10.2a10.53,10.53,0,0,0-1.49.09v-1a9.59,9.59,0,0,0,1.49.09h1.17V35.82a12.74,12.74,0,0,0-.06-1.48,10.7,10.7,0,0,0,1.56.07h6.39a7.7,7.7,0,0,0,1.6-.09v1a11.6,11.6,0,0,0-1.59-.08H12.34v1.16h6.47a9.65,9.65,0,0,0,1.45-.08v1a10.32,10.32,0,0,0-1.45-.09H12.34V38.4h6.47a7.91,7.91,0,0,0,1.45-.09v1a9.84,9.84,0,0,0-1.45-.09H12.34v1.25h8.27a9.38,9.38,0,0,0,1.45-.09v1a9.26,9.26,0,0,0-1.41-.09Z"/><path class="cls-4" d="M25.81,40.53a11.58,11.58,0,0,0-1.38.06,10.86,10.86,0,0,0,.06-1.42V35.79a10.46,10.46,0,0,0-.06-1.38,12.46,12.46,0,0,0,1.4.06h3.36a9.29,9.29,0,0,0,1.35-.06c0,.33-.05.75-.05,1.38V39.2c0,.7,0,1.08.05,1.39a10.71,10.71,0,0,0-1.34-.06H27.88v1.68H29.4a7.91,7.91,0,0,0,1.3-.07v1A7.91,7.91,0,0,0,29.4,43H27.88v2c.95-.17,1.53-.29,2.93-.62v.83c-2.22.52-3.54.78-5.55,1.09a11.29,11.29,0,0,0-1.15.24l-.24-1.06A19.32,19.32,0,0,0,27,45.15V43h-1.5a8.18,8.18,0,0,0-1.31.07v-1a8,8,0,0,0,1.31.07H27V40.53Zm-.49-5.25v1.79H27V35.28Zm0,2.57v1.9H27v-1.9Zm2.56-.78h1.79V35.28H27.88Zm0,2.68h1.79v-1.9H27.88ZM37,35a6.87,6.87,0,0,0-.72.85,14.31,14.31,0,0,1-1.82,1.88l.84.75-.55.57H36A7,7,0,0,0,37.09,39l.5.61a14.43,14.43,0,0,1-2.12,3,2.94,2.94,0,0,0-.75-.52,8.34,8.34,0,0,0,1.73-2.15H34.32v6c0,.87-.36,1.11-1.61,1.11A13.78,13.78,0,0,1,31.32,47a3.41,3.41,0,0,0-.23-1,11.12,11.12,0,0,0,1.71.19c.48,0,.59-.06.59-.34V39.93H32.14a7.7,7.7,0,0,0-1.29.08V39a7.4,7.4,0,0,0,1.29.08h2.4a13.26,13.26,0,0,0-2.92-2.37l.58-.63a17.29,17.29,0,0,1,1.59,1.15,12,12,0,0,0,1.85-1.92H32.46a7.85,7.85,0,0,0-1.29.08v-1a8,8,0,0,0,1.33.07h2.79a6.18,6.18,0,0,0,1.13-.06Z"/><path class="cls-4" d="M43.53,44.15A8.9,8.9,0,0,1,40.06,47a3.11,3.11,0,0,0-.73-.72,7.72,7.72,0,0,0,2-1.11,6.6,6.6,0,0,0,1.47-1.54Zm2.76,1.72a8.23,8.23,0,0,0,.1,1.5H45.22a7.53,7.53,0,0,0,.11-1.5V43.05h-3.9c-.6,0-1,0-1.49.05A8.81,8.81,0,0,0,40,41.63v-5a7.4,7.4,0,0,0-.09-1.35H41A8.28,8.28,0,0,0,41,36.59v5.62h9.89a10.06,10.06,0,0,0,1.47-.07v1a8.61,8.61,0,0,0-1.46-.09H46.29Zm4.21-6a8.07,8.07,0,0,0,.08,1.41A13.63,13.63,0,0,0,49,41.18H44.26a13.59,13.59,0,0,0-1.54.06,13.69,13.69,0,0,0,.06-1.46V35.55c0-.55,0-.91-.06-1.35a12.54,12.54,0,0,0,1.63.08h4.7a11.9,11.9,0,0,0,1.53-.08,8.45,8.45,0,0,0-.08,1.41Zm-6.82-3.48h5.91V35.09H43.68Zm0,2h5.91V37.1H43.68Zm0,2h5.91V39.12H43.68Zm5.17,3.27a9.9,9.9,0,0,0,2,1.73,9.47,9.47,0,0,0,1.65.87,3.25,3.25,0,0,0-.69.78,12,12,0,0,1-3.74-2.9Z"/><path class="cls-4" d="M62.11,40.47a1.23,1.23,0,0,1-2.46,0,1.23,1.23,0,0,1,2.46,0Z"/><path class="cls-4" d="M71.71,35.45a10.89,10.89,0,0,0-.09-1.59h1a10.34,10.34,0,0,0-.09,1.59v8.32h1.16V37.5a12.07,12.07,0,0,0-.08-1.5h1a10.74,10.74,0,0,0-.07,1.52v6.22a14.32,14.32,0,0,0,.06,1.68h-.89v-.81H70.59v1.31h-1a11.68,11.68,0,0,0,.09-1.59V37.49c0-.56,0-1-.07-1.49h1a10.61,10.61,0,0,0-.07,1.49v6.28h1.12Zm5,1.39a11.26,11.26,0,0,0-1.57.09v-1a10.44,10.44,0,0,0,1.56.09H78.3v-.75a10.12,10.12,0,0,0-.09-1.52H79.3a9.94,9.94,0,0,0-.09,1.52V36h2.13a10.72,10.72,0,0,0,1.56-.09v1a11.1,11.1,0,0,0-1.54-.09H79.21v2.28h1.37a5.28,5.28,0,0,0,1-.06l.51.56c-.1.19-.12.24-.3.63a12.23,12.23,0,0,1-2.37,3.84,10,10,0,0,0,3.72,2.29,4.73,4.73,0,0,0-.54.95,12.26,12.26,0,0,1-3.82-2.58,13.21,13.21,0,0,1-4.23,2.55,3.59,3.59,0,0,0-.59-.9,11.48,11.48,0,0,0,4.19-2.34,9.35,9.35,0,0,1-1.4-2.13A9.91,9.91,0,0,1,76,40l-.76.06v-1a10.52,10.52,0,0,0,1.26.07h1.8V36.84ZM76.92,40a8.79,8.79,0,0,0,1.9,3.45A10.45,10.45,0,0,0,80.94,40Z"/><path class="cls-4" d="M89.68,34.94a6.24,6.24,0,0,0,.72-1.49l1,.2a13.77,13.77,0,0,1-.72,1.29h4a10.42,10.42,0,0,0,1.27-.06A8.72,8.72,0,0,0,95.86,36v1.08a8.32,8.32,0,0,0,.06,1.06,11.31,11.31,0,0,0-1.26-.06H87.22v1.22h8a11.15,11.15,0,0,0,1.29-.06,7.22,7.22,0,0,0-.06,1.09v1.11a7,7,0,0,0,.06,1.07,9.32,9.32,0,0,0-1.26-.06H91.57v1.35h4.7a10.68,10.68,0,0,0,1.57-.09v1a10.87,10.87,0,0,0-1.57-.09h-4.7v1.25a9.42,9.42,0,0,0,.11,1.53H90.52a9.25,9.25,0,0,0,.11-1.53V44.64H86.08a11.26,11.26,0,0,0-1.57.09v-1a10.68,10.68,0,0,0,1.57.09h4.55V42.44H87.46a8.94,8.94,0,0,0-1.23.06,7.43,7.43,0,0,0,.06-1.07V36a7.3,7.3,0,0,0-.06-1.09,11.45,11.45,0,0,0,1.28.06Zm5.25,2.31V35.76H87.22v1.49Zm.59,4.36v-1.5h-8.3v1.5Z"/><path class="cls-4" d="M104.13,44.15A8.9,8.9,0,0,1,100.66,47a3.11,3.11,0,0,0-.73-.72,7.72,7.72,0,0,0,1.95-1.11,6.6,6.6,0,0,0,1.47-1.54Zm2.76,1.72a8.23,8.23,0,0,0,.1,1.5h-1.17a7.53,7.53,0,0,0,.11-1.5V43.05H102c-.6,0-1,0-1.49.05a8.81,8.81,0,0,0,.08-1.47v-5a7.4,7.4,0,0,0-.09-1.35h1.11a8.28,8.28,0,0,0-.08,1.34v5.62h9.89a10.06,10.06,0,0,0,1.47-.07v1a8.61,8.61,0,0,0-1.46-.09h-4.57Zm4.21-6a8.07,8.07,0,0,0,.08,1.41,13.63,13.63,0,0,0-1.58-.06h-4.74a13.59,13.59,0,0,0-1.54.06,13.69,13.69,0,0,0,.06-1.46V35.55c0-.55,0-.91-.06-1.35a12.54,12.54,0,0,0,1.63.08h4.7a11.9,11.9,0,0,0,1.53-.08,8.45,8.45,0,0,0-.08,1.41Zm-6.82-3.48h5.91V35.09h-5.91Zm0,2h5.91V37.1h-5.91Zm0,2h5.91V39.12h-5.91Zm5.17,3.27a9.9,9.9,0,0,0,2,1.73,9.47,9.47,0,0,0,1.65.87,3.25,3.25,0,0,0-.69.78,12,12,0,0,1-3.74-2.9Z"/><path class="cls-4" d="M127.08,47.39A10.08,10.08,0,0,1,125,44.16a9.82,9.82,0,0,1,0-7.38,10.16,10.16,0,0,1,2.09-3.22h1.33a9.55,9.55,0,0,0-2.28,3.1,9.37,9.37,0,0,0,0,7.62,9.57,9.57,0,0,0,2.28,3.11Z"/><path class="cls-4" d="M143.23,40.92a14.33,14.33,0,0,0-2-.1H132a15,15,0,0,0-2,.1V39.68a14.49,14.49,0,0,0,2,.1h9.24a13.86,13.86,0,0,0,2-.1Z"/><path class="cls-4" d="M151.48,39.45a7.91,7.91,0,0,0,1.4-.07v1a10.7,10.7,0,0,0-1.37-.07h-5a8.73,8.73,0,0,0-1.43.07v-1a8.8,8.8,0,0,0,1.44.07h3.24a12.22,12.22,0,0,0,1.08-3l.92.31a16,16,0,0,1-1.11,2.67Zm-.19-4.08a8.19,8.19,0,0,0,1.39-.07v1a7.61,7.61,0,0,0-1.38-.08h-4.48a7.8,7.8,0,0,0-1.35.08v-1a8.19,8.19,0,0,0,1.39.07h1.82v-.55a5.69,5.69,0,0,0-.09-1.14h1.12a6.24,6.24,0,0,0-.09,1.15v.54ZM147,47.21h-1a9.21,9.21,0,0,0,.06-1.35v-3a12.09,12.09,0,0,0,0-1.26,11.76,11.76,0,0,0,1.18.05h3.56a8.71,8.71,0,0,0,1.09-.05,8.74,8.74,0,0,0,0,1.25V46a7.78,7.78,0,0,0,.06,1.19h-1v-.93H147Zm.25-10.71a11.79,11.79,0,0,1,1,2.49l-.87.3a10.37,10.37,0,0,0-1-2.49ZM147,45.44h3.87v-3H147Zm11.58-10.7a10.68,10.68,0,0,0-.62,1.34,31.57,31.57,0,0,1-1.54,3,7,7,0,0,1,1.69,2.35,5.22,5.22,0,0,1,.45,2.1,1.81,1.81,0,0,1-.76,1.68,3,3,0,0,1-1.35.23c-.41,0-.8,0-1.25-.06a2.84,2.84,0,0,0-.19-1,7.28,7.28,0,0,0,1.45.15c.86,0,1.14-.27,1.14-1.06a4.63,4.63,0,0,0-.49-2,6.18,6.18,0,0,0-1.79-2.18,22.38,22.38,0,0,0,2-4.18h-3V45.69a9,9,0,0,0,.11,1.67h-1.14a11.93,11.93,0,0,0,.09-1.65V35.51c0-.45,0-.87-.06-1.38.39,0,.67,0,1.2,0H157a6.63,6.63,0,0,0,1.16-.06Z"/><path class="cls-4" d="M9.37,56.28c0-.42,0-.84,0-1.14a7.75,7.75,0,0,0,1,0h2a5.21,5.21,0,0,0,1-.06l.53.51a1.09,1.09,0,0,1-.11.24s-.06.13-.12.25a25,25,0,0,1-1.63,3.32,5.06,5.06,0,0,1,1,1.65,5.94,5.94,0,0,1,.3,1.86c0,1-.26,1.5-.8,1.68a3.61,3.61,0,0,1-1.06.13H10.8a2.77,2.77,0,0,0-.18-.9,7.63,7.63,0,0,0,.88.06c.57,0,.78-.24.78-.92a4.62,4.62,0,0,0-1.36-3.48A17.83,17.83,0,0,0,12.63,56H10.29V66.65c0,.58,0,1.12.07,1.59H9.28a12.11,12.11,0,0,0,.09-1.61Zm6.08,7.31a9,9,0,0,1-2.57,3.84,2.84,2.84,0,0,0-.7-.69,7,7,0,0,0,1.39-1.43,8,8,0,0,0,1-2.08Zm.19-3.77a10.13,10.13,0,0,0-1.15.06v-.94a11.34,11.34,0,0,1-1.25.85,2.41,2.41,0,0,0-.6-.81A9.83,9.83,0,0,0,16.9,54.8H18A10.67,10.67,0,0,0,22.68,59a6.26,6.26,0,0,0-.57.9,13.15,13.15,0,0,1-4.65-4.25,12,12,0,0,1-3,3.29,8.87,8.87,0,0,0,1.17.06h3.76a8.79,8.79,0,0,0,1.14-.06v.94a9.7,9.7,0,0,0-1.14-.06H17.86V61.7h2.81a9.31,9.31,0,0,0,1.42-.09v1a9.4,9.4,0,0,0-1.42-.09H17.86v4.38c0,.87-.36,1.16-1.42,1.16-.35,0-.87,0-1.32-.06a3,3,0,0,0-.3-1,10.94,10.94,0,0,0,1.53.13c.42,0,.57-.09.57-.34V62.55H14.8a8.94,8.94,0,0,0-1.29.08v-1a8.94,8.94,0,0,0,1.29.08h2.12V59.82ZM20,63.26a8.41,8.41,0,0,0,2.49,3.39,4,4,0,0,0-.72.79,11.75,11.75,0,0,1-2.57-3.82Z"/><path class="cls-4" d="M33.42,55.86c-.17.14-.29.24-1.85,1.74a43.41,43.41,0,0,1-3.45,2.84c-.55.42-.66.54-.66.75s.12.37,1.34,1.32a45.12,45.12,0,0,1,4.8,4.09A3.17,3.17,0,0,0,34,67l-1,.93a14.28,14.28,0,0,0-1.93-2.06c-1-.93-1.61-1.42-3.8-3.13-.84-.66-1.08-1-1.08-1.5a1.45,1.45,0,0,1,.44-1,11.75,11.75,0,0,1,1.27-1,23.75,23.75,0,0,0,4.4-4.11Z"/><path class="cls-4" d="M38.8,68.39a9.23,9.23,0,0,0,2.28-3.11,9.37,9.37,0,0,0,0-7.62,9.3,9.3,0,0,0-2.28-3.1h1.34a10.11,10.11,0,0,1,2.08,3.22,9.82,9.82,0,0,1,0,7.38,10,10,0,0,1-2.08,3.23Z"/><path class="cls-4" d="M54.61,61.47a1.23,1.23,0,1,1-2.46,0,1.23,1.23,0,1,1,2.46,0Z"/><path class="cls-4" d="M64.78,55.74a8.57,8.57,0,0,0-.07-1.06h1a6.32,6.32,0,0,0-.08,1V56H67a6.49,6.49,0,0,0,1.08-.06v.87A8.21,8.21,0,0,0,67,56.7H65.62v1h1a5.23,5.23,0,0,0,1-.06v.86a5.81,5.81,0,0,0-1-.06h-1v1.08h1.46a7.14,7.14,0,0,0,1.08-.06v.88a7.82,7.82,0,0,0-1.1-.06H63a9.5,9.5,0,0,0-1.2.06v-.88a8.9,8.9,0,0,0,1.19.06h1.78V58.43H63.57a6,6,0,0,0-1,.06v-.86a5.65,5.65,0,0,0,1,.06h1.21v-1h-1.6a7.51,7.51,0,0,0-1.08.06v-.87a6.82,6.82,0,0,0,1.11.06h1.57Zm-1.29,11a9.74,9.74,0,0,0,.09,1.45h-1a10.68,10.68,0,0,0,.09-1.5V62.46a11.82,11.82,0,0,0-.06-1.38,11.27,11.27,0,0,0,1.24.05h2.51a9,9,0,0,0,1.3-.06c0,.34,0,.72,0,1.44v4.56c0,.81-.26,1-1.22,1-.3,0-.66,0-1,0a3.61,3.61,0,0,0-.16-.87,5.87,5.87,0,0,0,1.12.11c.3,0,.38-.06.38-.35V65.48H63.49Zm3.26-3.87v-1H63.49v1Zm0,1.83V63.65H63.49v1.08Zm6.6-6.23a7.57,7.57,0,0,0,1.26-.06,8.87,8.87,0,0,0-.06,1.28V60.9a3.18,3.18,0,0,0,.94-.09v1a6.67,6.67,0,0,0-.94-.07v1.83A9.93,9.93,0,0,0,74.64,65h-1V64.4H71.82V67c0,.9-.27,1.11-1.43,1.11-.3,0-.78,0-1.12,0a3.21,3.21,0,0,0-.24-1,8.26,8.26,0,0,0,1.39.13c.44,0,.51-.06.51-.36V64.4H70a7.94,7.94,0,0,0-1.22.07v-.94a7.12,7.12,0,0,0,1.19.07h1V61.73H69.52a11.21,11.21,0,0,0-1.23.07v-1a8.62,8.62,0,0,0,1.22.06h1.42V59.28H70.2a8.36,8.36,0,0,0-1.19.08v-.9c-.22.24-.3.31-.58.58a2.2,2.2,0,0,0-.69-.58,8.74,8.74,0,0,0,2-2.24,5.7,5.7,0,0,0,.75-1.65l1,.26-.33.61a3.46,3.46,0,0,1-.22.44h1.75a5,5,0,0,0,.9-.05l.42.47c-.12.16-.12.16-.55.84a14,14,0,0,1-1,1.36Zm-1.92,0a9.57,9.57,0,0,0,1.26-1.84h-2.3A10.88,10.88,0,0,1,69,58.43a9.68,9.68,0,0,0,1.17.07Zm2.26.78H71.82V60.9h1.87Zm0,4.32V61.73H71.82V63.6Z"/><path class="cls-4" d="M77.74,56.64a10.38,10.38,0,0,0-.06-1.32,11.45,11.45,0,0,0,1.46.06h9.24a9.37,9.37,0,0,0,1.35-.06,10.66,10.66,0,0,0-.06,1.37V67c0,.82-.41,1.06-1.8,1.06A13,13,0,0,1,86.26,68a3.37,3.37,0,0,0-.24-1,10.72,10.72,0,0,0,2,.18c.54,0,.71-.07.71-.36V56.24h-10V66.75a8.43,8.43,0,0,0,.08,1.47H77.65a10.28,10.28,0,0,0,.09-1.48Zm6.65,2.79a9.83,9.83,0,0,0,1.38-2.79l.9.33a12,12,0,0,1-1.37,2.46h1.46a7.81,7.81,0,0,0,1.33-.07v1a8.31,8.31,0,0,0-1.33-.07H84.1v4.15h2.12v-2a9.77,9.77,0,0,0-.06-1.19h1a7.56,7.56,0,0,0-.08,1.25v2.25A11.27,11.27,0,0,0,87.13,66h-.91v-.78h-5V66.6h-.93a9.51,9.51,0,0,0,.07-1.48V62.48a8.11,8.11,0,0,0-.07-1.25h1a7.92,7.92,0,0,0-.06,1.2v2h2V60.26H80.71a8.64,8.64,0,0,0-1.36.07v-1a8.42,8.42,0,0,0,1.36.07ZM81.63,56.7a11.8,11.8,0,0,1,1.21,2.16l-.82.35a8.74,8.74,0,0,0-1.22-2.15Z"/><path class="cls-4" d="M96.63,65.15A8.9,8.9,0,0,1,93.16,68a3.11,3.11,0,0,0-.73-.72,7.72,7.72,0,0,0,1.95-1.11,6.6,6.6,0,0,0,1.47-1.54Zm2.76,1.72a8.23,8.23,0,0,0,.1,1.5H98.32a7.53,7.53,0,0,0,.11-1.5V64.05h-3.9c-.6,0-1,0-1.49,0a8.81,8.81,0,0,0,.08-1.47v-5A7.4,7.4,0,0,0,93,56.25h1.11a8.28,8.28,0,0,0-.08,1.34v5.62H104a10.06,10.06,0,0,0,1.47-.07v1a8.61,8.61,0,0,0-1.46-.09H99.39Zm4.21-6a8.07,8.07,0,0,0,.08,1.41,13.63,13.63,0,0,0-1.58-.06H97.36a13.59,13.59,0,0,0-1.54.06,13.69,13.69,0,0,0,.06-1.46V56.55c0-.55,0-.91-.06-1.35a12.54,12.54,0,0,0,1.63.08h4.7a11.9,11.9,0,0,0,1.53-.08,8.45,8.45,0,0,0-.08,1.41Zm-6.82-3.48h5.91V56.09H96.78Zm0,2h5.91V58.1H96.78Zm0,2h5.91V60.12H96.78ZM102,64.68a9.9,9.9,0,0,0,2,1.73,9.47,9.47,0,0,0,1.65.87,3.25,3.25,0,0,0-.69.78,12,12,0,0,1-3.74-2.9Z"/><path class="cls-4" d="M119.58,68.39a10.08,10.08,0,0,1-2.09-3.23,9.82,9.82,0,0,1,0-7.38,10.16,10.16,0,0,1,2.09-3.22h1.33a9.55,9.55,0,0,0-2.28,3.1,9.37,9.37,0,0,0,0,7.62,9.57,9.57,0,0,0,2.28,3.11Z"/><path class="cls-4" d="M128.49,55.65a6.65,6.65,0,0,0-.09-1.08h1.15a6.21,6.21,0,0,0-.09,1.08v.12h4.43a13.36,13.36,0,0,0,1.5-.06,5.88,5.88,0,0,0-.06,1v.72a6.15,6.15,0,0,0,.06,1h-1V56.58H123.87v1.88h-1a6.48,6.48,0,0,0,.06-1v-.7a6.09,6.09,0,0,0-.06-1,13.53,13.53,0,0,0,1.52.06h4.08Zm-4.91,8.57a10.29,10.29,0,0,0-.06-1.46,13.83,13.83,0,0,0,1.43.05h8.35a13.83,13.83,0,0,0,1.43-.05,10.46,10.46,0,0,0-.06,1.46v2.56a9.93,9.93,0,0,0,.09,1.55h-1v-.69H124.5v.69h-1a10.29,10.29,0,0,0,.09-1.55Zm.92.58h4V63.57h-4Zm0,2.07h4v-1.3h-4Zm0-9.42a6.94,6.94,0,0,0,1.23.08h6.75a6.89,6.89,0,0,0,1.22-.08v.92a7.18,7.18,0,0,0-1.22-.08h-6.75a7.23,7.23,0,0,0-1.23.08Zm8.85,3.47a7.78,7.78,0,0,0,.06,1,10.11,10.11,0,0,0-1.27-.06h-6.09a9.86,9.86,0,0,0-1.26.06,8.12,8.12,0,0,0,.06-1v-.74a8.6,8.6,0,0,0-.06-1,9.32,9.32,0,0,0,1.26.06h6.1a9.41,9.41,0,0,0,1.26-.06,7.89,7.89,0,0,0-.06,1Zm-7.6-1v1.22h6.69V59.94Zm3.63,4.86h4.33V63.57h-4.33Zm0,2.07h4.33v-1.3h-4.33Z"/><path class="cls-4" d="M143.61,56.37a9.63,9.63,0,0,0-.11-1.56h1.26a11.06,11.06,0,0,0-.1,1.56v3.09h4.44a12.91,12.91,0,0,0,1.69-.1v1.15a12.65,12.65,0,0,0-1.68-.1h-4.45v6h3.64a8.33,8.33,0,0,0,1.61-.09v1.13a10.83,10.83,0,0,0-1.61-.09h-8.05a10.7,10.7,0,0,0-1.62.09V66.3a10.14,10.14,0,0,0,1.6.09h3.38v-6h-4a14.92,14.92,0,0,0-1.8.1V59.36a14.35,14.35,0,0,0,1.8.1h4Z"/><path class="cls-4" d="M11.47,80.25c0,4.46-.55,6.63-2.23,8.81a3.46,3.46,0,0,0-.86-.8c1.56-1.72,2.07-3.73,2.07-8.05v-3a8.42,8.42,0,0,0-.09-1.33h1.2a6.56,6.56,0,0,0-.09,1.36Zm4.8-3.72a9.63,9.63,0,0,0-.09,1.41v7.94a11.7,11.7,0,0,0,.09,1.69h-1.2a11.79,11.79,0,0,0,.09-1.69V77.94a8.15,8.15,0,0,0-.09-1.41ZM21.12,76A7.11,7.11,0,0,0,21,77.42v9.76a11.16,11.16,0,0,0,.09,1.88h-1.2A13.85,13.85,0,0,0,20,87.18V77.42A8,8,0,0,0,19.92,76Z"/><path class="cls-4" d="M25.51,77.78a8.74,8.74,0,0,0-.12-1.58h1.2a9.73,9.73,0,0,0-.09,1.41v.18l.08,7.61c.82-.33,1.32-.56,2-.87a20.75,20.75,0,0,0,2.3-1.26l.19.93A33.7,33.7,0,0,1,25.15,87a7.36,7.36,0,0,0-.88.38l-.33-1.1a14.73,14.73,0,0,0,1.65-.49Zm10.38-1.59a13.16,13.16,0,0,0-.12,1.48,22.87,22.87,0,0,1-.67,4,11,11,0,0,1-1.2,2.73,9.56,9.56,0,0,0,3.67,3.8,3.51,3.51,0,0,0-.67,1A10.86,10.86,0,0,1,34.59,87a10.15,10.15,0,0,1-1.26-1.8,12,12,0,0,1-5.49,4,3,3,0,0,0-.65-.9,12.89,12.89,0,0,0,3-1.49,9.59,9.59,0,0,0,4.1-5.94,16.6,16.6,0,0,0,.48-4,5.56,5.56,0,0,0-.05-.78Zm-6.55,1a22.94,22.94,0,0,1,2.91,3.59l-.9.63a17,17,0,0,0-2.84-3.66Z"/><path class="cls-4" d="M40.6,77.61a11.51,11.51,0,0,0-1.54.09V76.64a10.82,10.82,0,0,0,1.56.09H50.83a11,11,0,0,0,1.56-.09V77.7a11.51,11.51,0,0,0-1.54-.09H47.38v2.25h2.33a15.11,15.11,0,0,0,1.78-.07,15.89,15.89,0,0,0-.09,1.84v5.78a11.91,11.91,0,0,0,.09,1.78h-1V88.13H41v1.06h-1A10.63,10.63,0,0,0,40,87.38V81.63a17,17,0,0,0-.09-1.84,14.36,14.36,0,0,0,1.76.07h2.08c0-.52,0-.84,0-1.33v-.92ZM41,80.73v6.5h9.46v-6.5H47.38v2.73c0,.32.11.36.74.36.82,0,1,0,1.05-.25a3.94,3.94,0,0,0,.07-1.11,2.47,2.47,0,0,0,.83.28,3.2,3.2,0,0,1-.26,1.5c-.21.33-.61.44-1.68.44-1.33,0-1.65-.18-1.65-.93v-3H44.64a6.44,6.44,0,0,1-.83,3.08,4.57,4.57,0,0,1-1.92,1.81,2.41,2.41,0,0,0-.69-.73A4.15,4.15,0,0,0,43,83.33a5.54,5.54,0,0,0,.69-2.6Zm3.75-2.23c0,.54,0,.85,0,1.36h1.78V77.61H44.73Z"/><path class="cls-4" d="M54,89.39a9.23,9.23,0,0,0,2.28-3.11,9.37,9.37,0,0,0,0-7.62A9.3,9.3,0,0,0,54,75.56h1.34a10.11,10.11,0,0,1,2.08,3.22,9.82,9.82,0,0,1,0,7.38,10,10,0,0,1-2.08,3.23Z"/><path class="cls-4" d="M69.76,82.47a1.23,1.23,0,0,1-2.46,0,1.23,1.23,0,0,1,2.46,0Z"/><path class="cls-4" d="M87.48,84.56a1.23,1.23,0,0,0-.24.22A10.82,10.82,0,0,1,84.54,87a16.41,16.41,0,0,0,5.89,1.31,2.56,2.56,0,0,0-.43,1,20.44,20.44,0,0,1-3.42-.63,13.28,13.28,0,0,1-2.93-1.14,18.92,18.92,0,0,1-6.09,1.81,2.4,2.4,0,0,0-.51-.88A18.55,18.55,0,0,0,82.78,87a10,10,0,0,1-2.14-1.8A11.52,11.52,0,0,1,77.79,87a2.29,2.29,0,0,0-.63-.72,11.11,11.11,0,0,0,3.06-1.78A7.26,7.26,0,0,0,81.64,83c-.61-.07-.78-.22-.78-.72V81.12A6,6,0,0,0,80.79,80h1a5,5,0,0,0-.07,1v1c0,.13,0,.18.16.22a7.81,7.81,0,0,0,1.47.08,7.8,7.8,0,0,0,2.34-.14c.24-.1.33-.36.44-1.08a2.09,2.09,0,0,0,.79.42C86.56,83,86.5,83,83.67,83h-1c-.43.58-.55.72-.79,1h3.75A7,7,0,0,0,86.91,84ZM80,78.69a7.45,7.45,0,0,0-.63-1.3l-1.35,0a2.86,2.86,0,0,0-.38-.83h.8a68.3,68.3,0,0,0,7.32-.43,12,12,0,0,0,2.94-.59l.72.86-2.1.36.84.24c-.56,1-.66,1.2-1,1.66h1.18a15.13,15.13,0,0,0,1.7-.06A8,8,0,0,0,90,79.76v.87a6.79,6.79,0,0,0,.07.94h-1V79.49H78.27v2.13h-1a7.37,7.37,0,0,0,.08-1.07v-.82a10,10,0,0,0-.06-1.11,14.38,14.38,0,0,0,1.84.07ZM77.65,83a5.23,5.23,0,0,0,1.83-2.67l.78.38a8.2,8.2,0,0,1-1.93,3Zm5.81-4.35a7.65,7.65,0,0,0-.66-1.45c-1.11.06-1.92.1-2.57.12a7.16,7.16,0,0,1,.66,1.33Zm-2.15,6.08a8.41,8.41,0,0,0,2.33,1.83A8.66,8.66,0,0,0,86,84.77Zm3.18-3a9.17,9.17,0,0,0-1.93-1.48l.52-.56a11.39,11.39,0,0,1,2,1.41Zm1.79-3a7.26,7.26,0,0,0,.94-1.89c-1.15.17-2,.26-3.55.38a8.91,8.91,0,0,1,.66,1.51ZM89,83.58A12.25,12.25,0,0,0,86.7,80.7l.67-.46A16.32,16.32,0,0,1,89.7,83Z"/><path class="cls-4" d="M94.2,78.65a10.46,10.46,0,0,1-1.4,2.2,2,2,0,0,0-.73-.66,7.67,7.67,0,0,0,2-3.75,3.75,3.75,0,0,0,.14-.82l1,.16c-.09.24-.12.36-.26.81a9.18,9.18,0,0,1-.39,1.19h2.72a8.4,8.4,0,0,0,1.47-.09v1c-.47,0-1-.07-1.47-.07h-1c0,1.62,0,1.8-.11,2.8H97.5a8.78,8.78,0,0,0,1.42-.09v1a9.13,9.13,0,0,0-1.42-.09H96.15c-.05.35-.06.53-.12.89a9.08,9.08,0,0,0,2.85,3.42,2.83,2.83,0,0,0-.6.9,11.73,11.73,0,0,1-2.52-3.18,7.89,7.89,0,0,1-3,4.32,2.66,2.66,0,0,0-.75-.78,7,7,0,0,0,3.22-5.57H93.87a9.71,9.71,0,0,0-1.59.09v-1a8.63,8.63,0,0,0,1.62.09h1.42c.06-.82.08-1.14.09-2.8Zm6.16,10.08h-1A13.34,13.34,0,0,0,99.42,87V78.69a13,13,0,0,0-.09-1.57,8.36,8.36,0,0,0,1.35.07h3a8.5,8.5,0,0,0,1.35-.07,11.2,11.2,0,0,0-.08,1.57v8.22a14.94,14.94,0,0,0,.09,1.82H104V87.66h-3.63Zm0-1.94H104V78.06h-3.63Z"/><path class="cls-4" d="M111.78,86.15A8.9,8.9,0,0,1,108.31,89a3.11,3.11,0,0,0-.73-.72,7.72,7.72,0,0,0,2-1.11A6.6,6.6,0,0,0,111,85.67Zm2.76,1.72a8.23,8.23,0,0,0,.1,1.5h-1.17a7.53,7.53,0,0,0,.11-1.5V85.05h-3.9c-.6,0-1,0-1.49,0a8.81,8.81,0,0,0,.08-1.47v-5a7.4,7.4,0,0,0-.09-1.35h1.11a8.28,8.28,0,0,0-.08,1.34v5.62h9.89a10.06,10.06,0,0,0,1.47-.07v1a8.61,8.61,0,0,0-1.46-.09h-4.57Zm4.21-6a8.07,8.07,0,0,0,.08,1.41,13.63,13.63,0,0,0-1.58-.06h-4.74a13.59,13.59,0,0,0-1.54.06,13.69,13.69,0,0,0,.06-1.46V77.55c0-.55,0-.91-.06-1.35a12.54,12.54,0,0,0,1.63.08h4.7a11.9,11.9,0,0,0,1.53-.08,8.45,8.45,0,0,0-.08,1.41Zm-6.82-3.48h5.91V77.09h-5.91Zm0,2h5.91V79.1h-5.91Zm0,2h5.91V81.12h-5.91Zm5.17,3.27a9.9,9.9,0,0,0,2,1.73,9.47,9.47,0,0,0,1.65.87,3.25,3.25,0,0,0-.69.78,12,12,0,0,1-3.74-2.9Z"/><path class="cls-4" d="M130.36,82.47a1.23,1.23,0,0,1-2.46,0,1.23,1.23,0,0,1,2.46,0Z"/><path class="cls-4" d="M150.75,88.2a11.11,11.11,0,0,0-1.74-.1h-9.36a13,13,0,0,0-1.83.1V87a14.42,14.42,0,0,0,1.81.09H149a13.88,13.88,0,0,0,1.76-.09ZM138.94,76.73a10.63,10.63,0,0,0,1.73.1h7.18a11.81,11.81,0,0,0,1.8-.1v1.18a14.25,14.25,0,0,0-1.8-.09h-7.18a12.84,12.84,0,0,0-1.73.09Zm.92,4.89a10.08,10.08,0,0,0,1.56.09h5.73a10.35,10.35,0,0,0,1.56-.09v1.15a11.45,11.45,0,0,0-1.56-.07h-5.72a10.94,10.94,0,0,0-1.57.07Z"/><path class="cls-4" d="M14.85,98.22c-3,.2-3,.2-4.68.24a2.56,2.56,0,0,0-.38-.84h.77A49.38,49.38,0,0,0,18,97a8.08,8.08,0,0,0,1.9-.46l.66.85-1.89.35c-.66.12-1.77.27-2.91.37v1.25h4.77a10.79,10.79,0,0,0,1.52-.09v1a10.31,10.31,0,0,0-1.52-.09H15.76v1h3.53a8.32,8.32,0,0,0,1.2-.06,7.26,7.26,0,0,0-.06,1v2.68a6.59,6.59,0,0,0,.06,1,10.8,10.8,0,0,0-1.22-.06H15.76V107h3.78a10.4,10.4,0,0,0,1.52-.09v1a10.79,10.79,0,0,0-1.52-.09H15.76V109h4.83a10.84,10.84,0,0,0,1.53-.09v1a10.84,10.84,0,0,0-1.53-.09H10.32A10.59,10.59,0,0,0,8.8,110v-1a10.59,10.59,0,0,0,1.52.09h4.53v-1.26h-3.5a10.29,10.29,0,0,0-1.5.09v-1a10.48,10.48,0,0,0,1.5.09h3.5v-1.14H11.61a10.43,10.43,0,0,0-1.2.06,8.72,8.72,0,0,0,.06-1v-2.68a9.07,9.07,0,0,0-.06-1,8.32,8.32,0,0,0,1.2.06h3.24v-1H10.38a10.59,10.59,0,0,0-1.52.09v-1a10.4,10.4,0,0,0,1.52.09h4.47Zm-3.45,3.71v1.2h3.45v-1.2Zm0,1.93v1.22h3.45v-1.22Zm4.36-.73H19.5v-1.2H15.76Zm0,2H19.5v-1.22H15.76Z"/><path class="cls-4" d="M28.38,107.15A8.9,8.9,0,0,1,24.91,110a3.11,3.11,0,0,0-.73-.72,7.72,7.72,0,0,0,1.95-1.11,6.6,6.6,0,0,0,1.47-1.54Zm2.76,1.72a8.23,8.23,0,0,0,.1,1.5H30.07a7.53,7.53,0,0,0,.11-1.5v-2.82h-3.9c-.6,0-1,0-1.49,0a8.81,8.81,0,0,0,.08-1.47v-5a7.4,7.4,0,0,0-.09-1.35h1.11a8.28,8.28,0,0,0-.08,1.34v5.62H35.7a10.06,10.06,0,0,0,1.47-.07v1a8.61,8.61,0,0,0-1.46-.09H31.14Zm4.21-6a8.07,8.07,0,0,0,.08,1.41,13.63,13.63,0,0,0-1.58-.06H29.11a13.59,13.59,0,0,0-1.54.06,13.69,13.69,0,0,0,.06-1.46V98.55c0-.55,0-.91-.06-1.35a12.54,12.54,0,0,0,1.63.08h4.7a11.9,11.9,0,0,0,1.53-.08,8.45,8.45,0,0,0-.08,1.41Zm-6.82-3.48h5.91V98.09H28.53Zm0,2h5.91V100.1H28.53Zm0,2h5.91v-1.29H28.53Zm5.17,3.27a9.9,9.9,0,0,0,2,1.73,9.47,9.47,0,0,0,1.65.87,3.25,3.25,0,0,0-.69.78,12,12,0,0,1-3.74-2.9Z"/><path class="cls-4" d="M51.33,110.39a10.08,10.08,0,0,1-2.09-3.23,9.82,9.82,0,0,1,0-7.38,10.16,10.16,0,0,1,2.09-3.22h1.33a9.55,9.55,0,0,0-2.28,3.1,9.37,9.37,0,0,0,0,7.62,9.57,9.57,0,0,0,2.28,3.11Z"/><path class="cls-4" d="M67.48,103.92a14.33,14.33,0,0,0-2-.1H56.26a15,15,0,0,0-2,.1v-1.24a14.49,14.49,0,0,0,2,.1H65.5a13.86,13.86,0,0,0,2-.1Z"/><path class="cls-4" d="M75.73,102.45a7.91,7.91,0,0,0,1.4-.07v1a10.7,10.7,0,0,0-1.37-.07h-5a8.73,8.73,0,0,0-1.43.07v-1a8.8,8.8,0,0,0,1.44.07H74a12.22,12.22,0,0,0,1.08-3l.92.31a16,16,0,0,1-1.11,2.67Zm-.19-4.08a8.19,8.19,0,0,0,1.39-.07v1a7.61,7.61,0,0,0-1.38-.08H71.07a7.8,7.8,0,0,0-1.35.08v-1a8.19,8.19,0,0,0,1.39.07h1.82v-.55a5.69,5.69,0,0,0-.09-1.14H74a6.24,6.24,0,0,0-.09,1.15v.54Zm-4.26,11.84h-1a9.21,9.21,0,0,0,.06-1.35v-3a12.09,12.09,0,0,0,0-1.26,11.76,11.76,0,0,0,1.18,0H75a8.71,8.71,0,0,0,1.09,0,8.74,8.74,0,0,0,0,1.25V109a7.78,7.78,0,0,0,.06,1.19h-1v-.93H71.28Zm.25-10.71a11.79,11.79,0,0,1,1,2.49l-.87.3a10.37,10.37,0,0,0-1-2.49Zm-.25,8.94h3.87v-3H71.28Zm11.58-10.7a10.68,10.68,0,0,0-.62,1.34,31.57,31.57,0,0,1-1.54,3,7,7,0,0,1,1.69,2.35,5.22,5.22,0,0,1,.45,2.1,1.81,1.81,0,0,1-.76,1.68,3,3,0,0,1-1.35.23c-.41,0-.8,0-1.25-.06a2.84,2.84,0,0,0-.19-1,7.28,7.28,0,0,0,1.45.15c.86,0,1.14-.27,1.14-1.06a4.63,4.63,0,0,0-.49-2,6.18,6.18,0,0,0-1.79-2.18,22.38,22.38,0,0,0,2-4.18h-3v10.66a9,9,0,0,0,.11,1.67H77.61a11.93,11.93,0,0,0,.09-1.65V98.51c0-.45,0-.87-.06-1.38.39,0,.67,0,1.2,0h2.41a6.63,6.63,0,0,0,1.16-.06Z"/><path class="cls-4" d="M85.12,98.28c0-.42,0-.84,0-1.14a7.75,7.75,0,0,0,1,0h2a5.21,5.21,0,0,0,1-.06l.53.51a1.09,1.09,0,0,1-.11.24s-.06.13-.12.25a25,25,0,0,1-1.63,3.32,5.06,5.06,0,0,1,1,1.65,5.94,5.94,0,0,1,.3,1.86c0,1-.26,1.5-.8,1.68a3.61,3.61,0,0,1-1.06.13h-.51a2.77,2.77,0,0,0-.18-.9,7.63,7.63,0,0,0,.88.06c.57,0,.78-.24.78-.92a4.62,4.62,0,0,0-1.36-3.48A17.83,17.83,0,0,0,88.38,98H86v10.64c0,.58,0,1.12.07,1.59H85a12.11,12.11,0,0,0,.09-1.61Zm6.08,7.31a9,9,0,0,1-2.57,3.84,2.84,2.84,0,0,0-.7-.69,7,7,0,0,0,1.39-1.43,8,8,0,0,0,1-2.08Zm.19-3.77a10.13,10.13,0,0,0-1.15.06v-.94a11.34,11.34,0,0,1-1.25.85,2.41,2.41,0,0,0-.6-.81,9.83,9.83,0,0,0,4.26-4.18h1a10.67,10.67,0,0,0,4.73,4.2,6.26,6.26,0,0,0-.57.9,13.15,13.15,0,0,1-4.65-4.25,12,12,0,0,1-3,3.29,8.87,8.87,0,0,0,1.17.06h3.76a8.79,8.79,0,0,0,1.14-.06v.94a9.7,9.7,0,0,0-1.14-.06H93.61v1.88h2.81a9.31,9.31,0,0,0,1.42-.09v1a9.4,9.4,0,0,0-1.42-.09H93.61v4.38c0,.87-.36,1.16-1.42,1.16-.35,0-.87,0-1.32-.06a3,3,0,0,0-.3-1,10.94,10.94,0,0,0,1.53.13c.42,0,.57-.09.57-.34v-4.28H90.55a8.94,8.94,0,0,0-1.29.08v-1a8.94,8.94,0,0,0,1.29.08h2.12v-1.88Zm4.31,3.44a8.41,8.41,0,0,0,2.49,3.39,4,4,0,0,0-.72.79,11.75,11.75,0,0,1-2.57-3.82Z"/><path class="cls-4" d="M109.17,97.86c-.17.14-.29.24-1.85,1.74a43.41,43.41,0,0,1-3.45,2.84c-.55.42-.66.54-.66.75s.12.37,1.34,1.32a45.12,45.12,0,0,1,4.8,4.09,3.17,3.17,0,0,0,.42.38l-1,.93a14.28,14.28,0,0,0-1.93-2.06c-1-.93-1.61-1.42-3.8-3.13-.84-.66-1.08-1-1.08-1.5a1.45,1.45,0,0,1,.44-1,11.75,11.75,0,0,1,1.27-1,23.75,23.75,0,0,0,4.4-4.11Z"/><path class="cls-4" d="M114.55,110.39a9.23,9.23,0,0,0,2.28-3.11,9.37,9.37,0,0,0,0-7.62,9.3,9.3,0,0,0-2.28-3.1h1.34A10.11,10.11,0,0,1,118,99.78a9.82,9.82,0,0,1,0,7.38,10,10,0,0,1-2.08,3.23Z"/></g></g></svg>