<svg xmlns="http://www.w3.org/2000/svg" viewBox="0 0 185 180"><defs><style>.cls-1{fill:#fff;}.cls-2{fill:#d1d1d1;}.cls-3{fill:#99c43a;}.cls-4{fill:#666;}</style></defs><title>area-kansai</title><g id="レイヤー_2" data-name="レイヤー 2"><g id="メインデザイン"><rect class="cls-1" x="0.5" y="0.5" width="184" height="179"/><path class="cls-2" d="M184,1V179H1V1H184m1-1H0V180H185V0Z"/><rect class="cls-3" x="168" width="17" height="180"/><path class="cls-1" d="M172,95.17V84.83L181,90Z"/><path d="M11.49,23.16a16,16,0,0,0,.11,2.3H9.38a18.17,18.17,0,0,0,.11-2.35V10.59a20.06,20.06,0,0,0-.08-2.13,16.6,16.6,0,0,0,1.94.07h3.44a15.72,15.72,0,0,0,1.94-.07c0,.53-.06,1-.06,1.77v2.69a16.84,16.84,0,0,0,.06,1.71c-.51,0-1.07-.05-1.77-.05H11.49Zm0-12.27h3.32V10H11.49Zm0,2.22h3.32v-.93H11.49Zm7.06,7.6a6.34,6.34,0,0,0,3.38,1.83,7.51,7.51,0,0,0-.41.79,8,8,0,0,0,1.36.12c.48,0,.59-.1.59-.51V14.58H19.73c-.66,0-1.25,0-1.75.05,0-.47.06-.87.06-1.71V10.23C18,9.5,18,9,18,8.46a16.11,16.11,0,0,0,1.94.07h3.69a16.69,16.69,0,0,0,1.95-.07,18.54,18.54,0,0,0-.09,2.11V23.18c0,1.79-.44,2.13-2.7,2.13-.38,0-.61,0-1.1,0a6.6,6.6,0,0,0-.32-1.56,6.63,6.63,0,0,0-.21.63,8.81,8.81,0,0,1-3.73-2.58c-.83,1.52-2,2.39-4.29,3.13a5.64,5.64,0,0,0-1.06-1.65,7.88,7.88,0,0,0,2.45-.91A3.94,3.94,0,0,0,16,20.71H14.11a10.19,10.19,0,0,0-1.66.1V19.06a7.89,7.89,0,0,0,1.52.09h2.36c0-.41,0-.58.06-1.15H14.18a8.78,8.78,0,0,0-1.37.07V16.42a8.16,8.16,0,0,0,1.33.07h.65a9.44,9.44,0,0,0-.93-1.31l1.75-.43a15.64,15.64,0,0,1,1.08,1.74h1.56a8.11,8.11,0,0,0,.83-1.74l1.85.36c-.29.55-.44.81-.8,1.38h.64a8.63,8.63,0,0,0,1.37-.07v1.65A8.22,8.22,0,0,0,20.79,18H18.25c0,.41,0,.76-.08,1.15H21a7.77,7.77,0,0,0,1.52-.09v1.75a8.36,8.36,0,0,0-1.54-.1Zm1.37-9.82h3.55V10H19.92Zm0,2.22h3.55v-.93H19.92Z"/><path d="M30.05,10.89a21.29,21.29,0,0,0-2.2.11V8.84A19.38,19.38,0,0,0,30.09,9H42.81A19.32,19.32,0,0,0,45,8.84V11a21.94,21.94,0,0,0-2.21-.11H39.05V13h2.83a17.63,17.63,0,0,0,2.23-.1,20,20,0,0,0-.1,2.3v7.7a18.14,18.14,0,0,0,.12,2.43H42v-1.1H30.88v1.1H28.76a22.5,22.5,0,0,0,.11-2.45V15.22c0-.82,0-1.52-.11-2.3A16.9,16.9,0,0,0,31,13h2.6V10.89ZM35.44,15a8.58,8.58,0,0,1-.83,3.68A6.13,6.13,0,0,1,32.33,21a6.11,6.11,0,0,0-1.45-1.38v2.64H42v-5s0,0,0,.33A4.29,4.29,0,0,1,41.71,19c-.28.67-.87.91-2.24.91-1.84,0-2.3-.32-2.3-1.65V15Zm-4.56,0v4.57a4.59,4.59,0,0,0,1.75-1.46A5.73,5.73,0,0,0,33.51,15Zm4.64-3V13h1.65V10.89H35.52Zm3.53,5.71c0,.36.08.4.65.4s.74-.05.74-1.54A4,4,0,0,0,42,17V15h-3Z"/><path d="M56.5,20.64h4.59a12.93,12.93,0,0,0,2.47-.14v2.4a18.51,18.51,0,0,0-2.43-.1H49.73a18.51,18.51,0,0,0-2.43.1V20.5a12.93,12.93,0,0,0,2.47.14h4.29V12.83h-2.9a20.9,20.9,0,0,0-2.43.09V10.55a14.12,14.12,0,0,0,2.47.13h8.45a14.19,14.19,0,0,0,2.47-.13v2.37a20.79,20.79,0,0,0-2.43-.09H56.5Z"/><path d="M71.39,9a10.44,10.44,0,0,0-.07,1.71v5.24a10.09,10.09,0,0,0,.07,1.68h-2.6a13.34,13.34,0,0,0,.09-1.71V10.68A11.83,11.83,0,0,0,68.81,9ZM80,9a8.53,8.53,0,0,0-.1,1.77v2.56a22.7,22.7,0,0,1-.49,5.76,7.27,7.27,0,0,1-3.74,4.42A16.44,16.44,0,0,1,72,25a6.37,6.37,0,0,0-1.33-2.26,10.38,10.38,0,0,0,4.1-1.52c1.79-1.18,2.42-2.34,2.63-4.85.07-.82.09-1.65.09-3.17V10.81A10.79,10.79,0,0,0,77.38,9Z"/><path d="M94,13.27a7.76,7.76,0,0,0-.07,1.53c-.08,3.25-.59,5.08-1.89,6.73A11,11,0,0,1,87.14,25a6.64,6.64,0,0,0-1.5-2.17A8.7,8.7,0,0,0,89,21.17c1.93-1.54,2.54-3.17,2.54-6.77a5,5,0,0,0-.09-1.13Zm7.71-2.4A5.59,5.59,0,0,0,101,12.2,11.94,11.94,0,0,1,98,16a12.52,12.52,0,0,1-2.28,1.58A6.38,6.38,0,0,0,94,15.87a8.85,8.85,0,0,0,2.77-1.75,7.92,7.92,0,0,0,1.81-2.41h-10a19.14,19.14,0,0,0-2.58.11V9.45a15.58,15.58,0,0,0,2.62.15H98.6a5.26,5.26,0,0,0,1.84-.17Z"/><path class="cls-4" d="M9.09,37.52a14,14,0,0,1,2.41,1.77l-.57.79a10,10,0,0,0-2.4-1.86Zm2.68,4.92a23.51,23.51,0,0,1-2.38,4.63l-.81-.81A2.8,2.8,0,0,0,9,45.8a16.53,16.53,0,0,0,2-4Zm-2-8.6A12.34,12.34,0,0,1,12,35.76l-.61.74a9.94,9.94,0,0,0-2.3-2Zm1.49,11.87h.3l.6,0c.52-.76,1-1.59,1.71-2.77a15.8,15.8,0,0,0-2.24-3.06l.62-.68c.33.39.43.51.66.81a11.85,11.85,0,0,0,1.39-3.07l.87.42a16,16,0,0,1-1.74,3.36,14.59,14.59,0,0,1,.9,1.36,19.7,19.7,0,0,0,1.31-2.85l.84.51.46-.48c.29.33.41.5.57.71a13.55,13.55,0,0,0,1.38-3l.84.39A20.44,20.44,0,0,1,18,40.68a13.9,13.9,0,0,1,1,1.59,23.49,23.49,0,0,0,1.41-3l.86.45A42.39,42.39,0,0,1,18,45.54a22.48,22.48,0,0,0,2.86-.42,11.56,11.56,0,0,0-.91-1.95l.81-.28a20.86,20.86,0,0,1,1.59,3.79l-.9.32a10.48,10.48,0,0,0-.33-1.16c-.86.2-1.05.23-1.79.35l-2.17.28-.3.05a3,3,0,0,0,.07.34l-.87.23c-.09-.53-.13-.71-.22-1.08a34.42,34.42,0,0,1-3.65.58,5.5,5.5,0,0,0-.73.12Zm3.94-9.77A10.19,10.19,0,0,0,14,34l.92-.35a15.92,15.92,0,0,1,1.23,2.28h1.78a9,9,0,0,0,1.16-2.29L20,34a16,16,0,0,1-1.17,1.92h1.94a8.24,8.24,0,0,0,1.33-.09v1a7.67,7.67,0,0,0-1.3-.08H13.54a7.75,7.75,0,0,0-1.3.08v-1a8.6,8.6,0,0,0,1.33.09Zm.56,7.16a18.85,18.85,0,0,1,.87,2.5l.31,0H17c.44-.68.95-1.52,1.52-2.49a17.83,17.83,0,0,0-2.19-3.2,44.39,44.39,0,0,1-3.2,5.69,21.19,21.19,0,0,0,2.46-.36,13.48,13.48,0,0,0-.67-1.91Z"/><path class="cls-4" d="M29.46,34.89c.45,0,.78,0,1.14,0,0,.16-.05.4-.11,1.14-.16,2-.34,2.28-1.6,2.28-.35,0-.75,0-1.17-.05a2.68,2.68,0,0,0-.21-.82,9.22,9.22,0,0,0,1.23.1c.48,0,.61-.06.7-.31a7.41,7.41,0,0,0,.18-1.53H27.51a5.21,5.21,0,0,1-3.09,3.27,2.66,2.66,0,0,0-.66-.69c1.63-.68,2.41-1.38,2.83-2.58H25.42a9,9,0,0,0-1.29.06v-.9a7.88,7.88,0,0,0,1.34.07H26.8a5.13,5.13,0,0,0,.09-.84,2.21,2.21,0,0,0,0-.39h1c0,.33,0,.39-.1.86,0,.12,0,.22-.06.37ZM29,45.74a11.75,11.75,0,0,1-4.47,1.6,2.77,2.77,0,0,0-.56-.85,10.28,10.28,0,0,0,4.26-1.31ZM34,39a14.41,14.41,0,0,0,1.56-.06,14.73,14.73,0,0,0-.05,1.65v2.82a13.13,13.13,0,0,0,.06,1.54c-.37,0-.94-.06-1.68-.06H27.4c-.73,0-1.3,0-1.66.06a13.11,13.11,0,0,0,.06-1.51V40.52c0-.65,0-1.16-.06-1.61.39,0,.87.05,1.56.05ZM26.7,40.7h7.86v-1H26.7Zm0,1.71h7.86v-1H26.7Zm0,1.71h7.86v-1H26.7Zm6-6a11.37,11.37,0,0,0-1.25.06,8.17,8.17,0,0,0,.06-1.11V35.7a9.34,9.34,0,0,0-.06-1.21,10.87,10.87,0,0,0,1.25.06h2.76a11.06,11.06,0,0,0,1.26-.06,8.89,8.89,0,0,0-.06,1.21V37a8.46,8.46,0,0,0,.06,1.17,11.38,11.38,0,0,0-1.23-.06Zm.15,7.1a11.1,11.1,0,0,0,4.47,1.26,4.43,4.43,0,0,0-.57.88,12.71,12.71,0,0,1-4.59-1.6Zm-.44-7.86h3.35v-2H32.41Z"/><path class="cls-4" d="M43.53,44.15A8.9,8.9,0,0,1,40.06,47a3.11,3.11,0,0,0-.73-.72,7.72,7.72,0,0,0,2-1.11,6.6,6.6,0,0,0,1.47-1.54Zm2.76,1.72a8.23,8.23,0,0,0,.1,1.5H45.22a7.53,7.53,0,0,0,.11-1.5V43.05h-3.9c-.6,0-1,0-1.49.05A8.81,8.81,0,0,0,40,41.63v-5a7.4,7.4,0,0,0-.09-1.35H41A8.28,8.28,0,0,0,41,36.59v5.62h9.89a10.06,10.06,0,0,0,1.47-.07v1a8.61,8.61,0,0,0-1.46-.09H46.29Zm4.21-6a8.07,8.07,0,0,0,.08,1.41A13.63,13.63,0,0,0,49,41.18H44.26a13.59,13.59,0,0,0-1.54.06,13.69,13.69,0,0,0,.06-1.46V35.55c0-.55,0-.91-.06-1.35a12.54,12.54,0,0,0,1.63.08h4.7a11.9,11.9,0,0,0,1.53-.08,8.45,8.45,0,0,0-.08,1.41Zm-6.82-3.48h5.91V35.09H43.68Zm0,2h5.91V37.1H43.68Zm0,2h5.91V39.12H43.68Zm5.17,3.27a9.9,9.9,0,0,0,2,1.73,9.47,9.47,0,0,0,1.65.87,3.25,3.25,0,0,0-.69.78,12,12,0,0,1-3.74-2.9Z"/><path class="cls-4" d="M62.11,40.47a1.23,1.23,0,0,1-2.46,0,1.23,1.23,0,0,1,2.46,0Z"/><path class="cls-4" d="M73.56,42.9A11.26,11.26,0,0,1,70,46.67a3.19,3.19,0,0,0-.69-.78,8.16,8.16,0,0,0,1.93-1.49,7.5,7.5,0,0,0,1.46-2ZM75.42,35a6.09,6.09,0,0,0-.11-1.26H76.5A5.06,5.06,0,0,0,76.39,35v.55H81a10.15,10.15,0,0,0,1.66-.1v1.06a9,9,0,0,0-1.63-.09h-10a9.1,9.1,0,0,0-1.61.09V35.42a10.46,10.46,0,0,0,1.67.1h4.26Zm-2.73,6.75a10.43,10.43,0,0,0-1.34.06,8.62,8.62,0,0,0,.06-1.22V38.87a9.16,9.16,0,0,0-.06-1.25,10,10,0,0,0,1.34.06h6.52a9.18,9.18,0,0,0,1.38-.06,10.06,10.06,0,0,0-.06,1.25v1.69c0,.53,0,.83,0,1.2-.39,0-.8,0-1.37,0H76.6v4.17c0,.85-.39,1.12-1.65,1.12-.33,0-1,0-1.47-.06a3.07,3.07,0,0,0-.25-1,8.87,8.87,0,0,0,1.62.15c.66,0,.78-.06.78-.36v-4Zm-.33-.83h7.23V38.54H72.36Zm6.81,1.49a8,8,0,0,0,1.47,1.89,9.16,9.16,0,0,0,2.08,1.57,3.39,3.39,0,0,0-.69.83,11.47,11.47,0,0,1-1.89-1.56,15.18,15.18,0,0,1-1.8-2.21Z"/><path class="cls-4" d="M86.1,39a7.71,7.71,0,0,0-1.53.09v-1a8.57,8.57,0,0,0,1.53.09h1.54V36.24H86.53a8.47,8.47,0,0,0-1.36.08v-1a6,6,0,0,0,1.36.09h1.11v-.49a7.86,7.86,0,0,0-.09-1.32h1.08a7.62,7.62,0,0,0-.07,1.32v.49H89a5,5,0,0,0,1.23-.09v1a10.76,10.76,0,0,0-1.17-.06h-.52v1.91H89a14.5,14.5,0,0,0,2.06-2.9,5.8,5.8,0,0,0,.42-1l.93.54a3,3,0,0,0-.36.53,16,16,0,0,1-1.94,2.82h.48a10.39,10.39,0,0,0,1.58-.08v1A11.86,11.86,0,0,0,90.75,39H89.4a22.12,22.12,0,0,1-1.71,1.59h2.22a10.33,10.33,0,0,0,1.36-.06,14.61,14.61,0,0,0,0,1.57v3.48A11.51,11.51,0,0,0,91.29,47h-1v-.68H87v.92H86a12,12,0,0,0,.09-1.64V41.82c-.64.48-.81.62-1.5,1.07a2.4,2.4,0,0,0-.52-.81A17.67,17.67,0,0,0,88.24,39ZM87,43h3.37V41.33H87Zm0,2.6h3.37V43.74H87ZM97.84,34.71c-.1.2-.1.2-.6,1.34-.42.94-.85,1.77-1.51,3a6.51,6.51,0,0,1,1.51,2,5.26,5.26,0,0,1,.59,2.33A1.86,1.86,0,0,1,97,45.11a3.14,3.14,0,0,1-1.5.25c-.24,0-.6,0-1,0a3,3,0,0,0-.21-1,8.3,8.3,0,0,0,1.44.12c.83,0,1.11-.3,1.11-1.22a4.82,4.82,0,0,0-.7-2.41,6.65,6.65,0,0,0-1.47-1.65,22.44,22.44,0,0,0,2-4.17h-3V45.29a16.8,16.8,0,0,0,.1,2H92.62a14.67,14.67,0,0,0,.09-2.06V35.46a12.6,12.6,0,0,0-.06-1.36c.39,0,.66,0,1.23,0h2.36a6.37,6.37,0,0,0,1.15-.06Z"/><path class="cls-4" d="M106.27,34.49a4.48,4.48,0,0,0-.09-1h1.14a3.48,3.48,0,0,0-.09,1v.56h4.17a10.1,10.1,0,0,0,1.65-.09v1a12.33,12.33,0,0,0-1.62-.07h-9.57a48.79,48.79,0,0,1-.42,7.57,10.9,10.9,0,0,1-1.38,3.66,2.45,2.45,0,0,0-.81-.67,8.34,8.34,0,0,0,1.2-2.88,36.55,36.55,0,0,0,.45-6.8,16.7,16.7,0,0,0-.06-1.83,14.41,14.41,0,0,0,1.55.08h3.88Zm-2.53,12.79a9.94,9.94,0,0,0,.09-1.69V42.27c0-.81,0-1.53.06-2a7.82,7.82,0,0,1-1.46,1.85,2.71,2.71,0,0,0-.63-.81,10.3,10.3,0,0,0,2.39-3,8.07,8.07,0,0,0,.85-2.05l1,.28a16.48,16.48,0,0,1-1.29,2.55V45.6a11.85,11.85,0,0,0,.07,1.68Zm7.47-1.39c0,.84-.39,1.14-1.53,1.14-.51,0-1.16,0-1.77-.09a4,4,0,0,0-.27-1,10,10,0,0,0,1.93.22c.57,0,.69-.07.69-.43V39.56H107a9.31,9.31,0,0,0-1.45.07v-1a7.7,7.7,0,0,0,1.42.08h3.33v-1a7.42,7.42,0,0,0-.07-1.23h1.09a6.89,6.89,0,0,0-.07,1.22v1h.54a8.78,8.78,0,0,0,1.42-.09v1a9.22,9.22,0,0,0-1.42-.09h-.54Zm-4.38-5.33a15.46,15.46,0,0,1,2.25,2.76l-.83.6a10.79,10.79,0,0,0-2.16-2.85Z"/><path class="cls-4" d="M122.71,40.47a1.23,1.23,0,0,1-2.46,0,1.23,1.23,0,1,1,2.46,0Z"/><path class="cls-4" d="M137.07,38.33a12,12,0,0,0,2.44,4.83,10.67,10.67,0,0,0,4.07,2.92,4.2,4.2,0,0,0-.66,1,11.79,11.79,0,0,1-6.3-7.41,9.38,9.38,0,0,1-2.93,5.38,11.49,11.49,0,0,1-3.24,2,3.11,3.11,0,0,0-.64-.91,9.44,9.44,0,0,0,3.94-2.63,9.24,9.24,0,0,0,2.09-5.23h-4.08a9.62,9.62,0,0,0-1.65.1V37.26a8.6,8.6,0,0,0,1.68.11h4.14c0-.72.06-1.19.06-1.77a11.29,11.29,0,0,0-.11-1.64h1.23a9.54,9.54,0,0,0-.1,1.56c0,.77,0,1.2-.08,1.85h4.55a8.7,8.7,0,0,0,1.66-.11v1.17a10.43,10.43,0,0,0-1.65-.1Z"/><path class="cls-4" d="M145.69,35.27c0-.44,0-.75,0-1.14a8.47,8.47,0,0,0,1,0H149a4.45,4.45,0,0,0,.93-.06l.5.63a3.14,3.14,0,0,0-.24.56,21.82,21.82,0,0,1-1.61,3.3,5.42,5.42,0,0,1,1.16,1.81A4.36,4.36,0,0,1,150,42c0,.82-.29,1.36-.8,1.53a4.09,4.09,0,0,1-1.18.13l-.66,0a2.23,2.23,0,0,0-.23-.93,6.81,6.81,0,0,0,1.19.11c.63,0,.78-.17.78-.93a4,4,0,0,0-.53-1.82,6.68,6.68,0,0,0-1.06-1.32,16.1,16.1,0,0,0,1.75-3.7h-2.62V45.89a9.14,9.14,0,0,0,.07,1.33H145.6a9.08,9.08,0,0,0,.09-1.41ZM152,38.72a17,17,0,0,1-.78,5.16A8.66,8.66,0,0,1,149,47.24a2.26,2.26,0,0,0-.79-.63,6.85,6.85,0,0,0,2.19-3.33,26.94,26.94,0,0,0,.66-7.37c0-.58,0-1.08-.06-1.54.49,0,1,.07,1.62.07H157a9.85,9.85,0,0,0,1.47-.09v1a9.47,9.47,0,0,0-1.44-.07h-5v1.05c0,.45,0,.82,0,1.5h4.24a6,6,0,0,0,1.25-.08l.49.56c-.07.18-.13.36-.22.67a15.46,15.46,0,0,1-2.12,4.58,10,10,0,0,0,3.32,2.64,3,3,0,0,0-.6.9,11.2,11.2,0,0,1-3.3-2.79,11,11,0,0,1-3.78,2.85,2.7,2.7,0,0,0-.69-.77,10.17,10.17,0,0,0,2.92-1.77,11.26,11.26,0,0,0,1-1.05,11.68,11.68,0,0,1-1.86-4.9Zm1.6,0a9.46,9.46,0,0,0,1.53,4.12,13.9,13.9,0,0,0,1.76-4.12Z"/><path class="cls-4" d="M15.37,55.49a4.48,4.48,0,0,0-.09-1h1.14a3.48,3.48,0,0,0-.09,1v.56H20.5A10.1,10.1,0,0,0,22.15,56v1a12.33,12.33,0,0,0-1.62-.07H11a48.79,48.79,0,0,1-.42,7.57,10.9,10.9,0,0,1-1.38,3.66,2.45,2.45,0,0,0-.81-.67,8.34,8.34,0,0,0,1.2-2.88,36.55,36.55,0,0,0,.45-6.8A16.7,16.7,0,0,0,9.94,56a14.41,14.41,0,0,0,1.55.08h3.88ZM12.84,68.28a9.94,9.94,0,0,0,.09-1.69V63.27c0-.81,0-1.53.06-2a7.82,7.82,0,0,1-1.46,1.85,2.71,2.71,0,0,0-.63-.81,10.3,10.3,0,0,0,2.39-3,8.07,8.07,0,0,0,.85-2.05l1,.28a16.48,16.48,0,0,1-1.29,2.55V66.6a11.85,11.85,0,0,0,.07,1.68Zm7.47-1.39c0,.84-.39,1.14-1.53,1.14-.51,0-1.16,0-1.77-.09a4,4,0,0,0-.27-1,10,10,0,0,0,1.93.22c.57,0,.69-.07.69-.43V60.56h-3.3a9.31,9.31,0,0,0-1.45.07v-1a7.7,7.7,0,0,0,1.42.08h3.33v-1a7.42,7.42,0,0,0-.07-1.23h1.09a6.89,6.89,0,0,0-.07,1.22v1h.54a8.78,8.78,0,0,0,1.42-.09v1a9.22,9.22,0,0,0-1.42-.09h-.54Zm-4.38-5.33a15.46,15.46,0,0,1,2.25,2.76l-.83.6a10.79,10.79,0,0,0-2.16-2.85Z"/><path class="cls-4" d="M31,61.47a1.23,1.23,0,1,1-1.23-1.23A1.24,1.24,0,0,1,31,61.47Z"/><path class="cls-4" d="M48.93,56.31a11.51,11.51,0,0,0,1.69-.09v1c-.39,0-1-.07-1.65-.07H46a10,10,0,0,0,5.26,3.73,5.37,5.37,0,0,0-.57.9,12.5,12.5,0,0,1-3.57-2.16,10.81,10.81,0,0,1-2.16-2.47H43.39a9.4,9.4,0,0,1-1.81,2.17,15.75,15.75,0,0,1-3.77,2.45,2.65,2.65,0,0,0-.63-.81,13.12,13.12,0,0,0,3.29-1.86,8.79,8.79,0,0,0,1.87-1.95H39.27c-.74,0-1.26,0-1.67.07v-1a11.26,11.26,0,0,0,1.68.09h3.57a5.36,5.36,0,0,0,.66-1.77l1.13.18a4.75,4.75,0,0,0-.29.62c-.16.36-.27.61-.46,1ZM41.62,64.2a11.25,11.25,0,0,1-3.24,3.57,2.65,2.65,0,0,0-.76-.73,8.49,8.49,0,0,0,3.15-3.3Zm-1.93-1a10.78,10.78,0,0,0-1.5.09v-1a9.31,9.31,0,0,0,1.47.09h9a9.25,9.25,0,0,0,1.46-.09v1a10.88,10.88,0,0,0-1.5-.09H44.77V67c0,.9-.31,1.11-1.65,1.11l-1.23,0a2.83,2.83,0,0,0-.27-1,10.56,10.56,0,0,0,1.56.14c.48,0,.62-.09.62-.42V63.2Zm1.42-3.41a6.61,6.61,0,0,0,1.22.08h3.6a6.35,6.35,0,0,0,1.21-.08v1a6.51,6.51,0,0,0-1.21-.07h-3.6a7,7,0,0,0-1.22.07Zm6.3,4a8.71,8.71,0,0,0,3.32,3.16,4.3,4.3,0,0,0-.72.83A12.13,12.13,0,0,1,46.6,64.2Z"/><path class="cls-4" d="M55.66,62.3v4.36c1.55-.36,2.55-.63,3.86-1v.93a51.28,51.28,0,0,1-5.86,1.53c-.41.08-.63.14-.84.2l-.3-1.1a14.36,14.36,0,0,0,2.16-.31V57.63a12.52,12.52,0,0,0-.06-1.36,11,11,0,0,0,1.3.06h2.78v-.59a4.71,4.71,0,0,0-.11-1.08h1.19a4.55,4.55,0,0,0-.11,1.1v.57h2.94a11.13,11.13,0,0,0,1.32-.06c0,.33-.06.82-.06,1.38V61a11.72,11.72,0,0,0,0,1.34c-.38,0-1,0-1.28,0h-3.4a5.8,5.8,0,0,0,1.45,2.28,12,12,0,0,0,3.45-2.36l.75.72-.55.39a18,18,0,0,1-3,1.82A11.71,11.71,0,0,0,66,67.31a4,4,0,0,0-.54,1,12.72,12.72,0,0,1-5.22-2.9,7.45,7.45,0,0,1-2-3.1Zm0-3.48H63V57.18H55.66Zm0,2.64H63V59.64H55.66Z"/><path class="cls-4" d="M72.22,65.15A8.87,8.87,0,0,1,68.76,68a3.15,3.15,0,0,0-.74-.72,7.38,7.38,0,0,0,2-1.11,6.6,6.6,0,0,0,1.47-1.54ZM75,66.87a7.27,7.27,0,0,0,.11,1.5H73.92a8.52,8.52,0,0,0,.1-1.5V64.05h-3.9c-.6,0-1,0-1.48,0a9.07,9.07,0,0,0,.07-1.47v-5a6.6,6.6,0,0,0-.09-1.35h1.11a8.44,8.44,0,0,0-.07,1.34v5.62h9.88A9.91,9.91,0,0,0,81,63.14v1a8.55,8.55,0,0,0-1.45-.09H75Zm4.22-6a8.32,8.32,0,0,0,.07,1.41,13.44,13.44,0,0,0-1.57-.06H73a13.89,13.89,0,0,0-1.55.06,11.45,11.45,0,0,0,.06-1.46V56.55a11.07,11.07,0,0,0-.06-1.35,12.71,12.71,0,0,0,1.64.08h4.69a11.7,11.7,0,0,0,1.53-.08,8.68,8.68,0,0,0-.07,1.41Zm-6.83-3.48h5.91V56.09H72.37Zm0,2h5.91V58.1H72.37Zm0,2h5.91V60.12H72.37Zm5.18,3.27a9.86,9.86,0,0,0,2,1.73,9.47,9.47,0,0,0,1.65.87,3.74,3.74,0,0,0-.69.78,11.85,11.85,0,0,1-3.73-2.9Z"/><path class="cls-4" d="M90,61.47a1.23,1.23,0,0,1-2.46,0,1.23,1.23,0,0,1,2.46,0Z"/><path class="cls-4" d="M99.22,56.72c-.81.19-1.19.28-2.25.48a2,2,0,0,0-.42-.86,19.1,19.1,0,0,0,4.57-1.12,3.72,3.72,0,0,0,.9-.45l.65.79a2.42,2.42,0,0,0-.35.14,21.26,21.26,0,0,1-2.19.76v2.3h1.14a7.29,7.29,0,0,0,1.31-.08v1a8,8,0,0,0-1.31-.07h-1.09a5.46,5.46,0,0,0,.63,1.18,8.62,8.62,0,0,0,1.81,2.06,3,3,0,0,0-.61.76,9.42,9.42,0,0,1-2-3c0,.81,0,.81.07,2.55v3.21a11.61,11.61,0,0,0,.09,1.83H99.11a12.91,12.91,0,0,0,.09-1.83V63.29c0-.56,0-1.65.08-2.48a11.74,11.74,0,0,1-1.2,2.78,10.3,10.3,0,0,1-1.37,1.84,4.13,4.13,0,0,0-.63-.81,11.48,11.48,0,0,0,3-5H97.93a9.93,9.93,0,0,0-1.43.09v-1a9.27,9.27,0,0,0,1.43.09h1.29Zm5,11h-1a14.74,14.74,0,0,0,.08-1.74V57.68a13.47,13.47,0,0,0-.08-1.59,9.5,9.5,0,0,0,1.41.07h3.24a9.4,9.4,0,0,0,1.43-.07,11.06,11.06,0,0,0-.08,1.59v8.23a14.69,14.69,0,0,0,.09,1.85h-1V66.69h-4Zm0-2h4V57.06h-4Z"/><path class="cls-4" d="M121.88,59a3.91,3.91,0,0,0-.06.73,9.67,9.67,0,0,0,1.8,5.88,8,8,0,0,0,1.83,1.73,2.43,2.43,0,0,0-.34.4s-.08.14-.18.29l-.09.18a9.39,9.39,0,0,1-2.42-2.81,8.32,8.32,0,0,1-1-3,8.66,8.66,0,0,1-1.29,3.87,7.42,7.42,0,0,1-1.8,2,2.69,2.69,0,0,0-.59-.79c-.12.25-.21.34-.4.4a3.88,3.88,0,0,1-1.19.12l-.88,0a3.84,3.84,0,0,0-.15-.9,6.89,6.89,0,0,0,1.18.11c.59,0,.62,0,.62-.47V62.21h-4.11a8.08,8.08,0,0,0-1.35.07v-1a8.16,8.16,0,0,0,1.33.09h4.8a10.12,10.12,0,0,0,1.52-.09v1c-.41,0-.77-.06-1.31-.07v4.5a2.65,2.65,0,0,1-.06.73,4,4,0,0,0,1-.84,8.09,8.09,0,0,0,1.93-4.09,14.17,14.17,0,0,0,.26-2.85,3.77,3.77,0,0,0-.06-.66Zm-8.94-2.78a7.69,7.69,0,0,0-1.33.08v-.95a8.71,8.71,0,0,0,1.39.09h4.32a11.12,11.12,0,0,0,1.58-.09v.95a7.45,7.45,0,0,0-1.08-.08v3.57c0,.87-.29,1.11-1.32,1.11h-.59a2.9,2.9,0,0,0-.16-.8c-.26,0-.59,0-1,0h-1.42c-.3,0-.65,0-1,0,0-.24.06-.68.06-.9v-1c0-.52,0-.85,0-1.18.32,0,.65,0,1.22,0h1.11a12,12,0,0,0,1.2,0,9,9,0,0,0,0,1V59a8.46,8.46,0,0,0,0,1,3.86,3.86,0,0,0,.58,0c.33,0,.41-.07.41-.36V56.22ZM112.27,67a7.05,7.05,0,0,0,.09-1.25V64.23a9.94,9.94,0,0,0-.06-1.18,9.14,9.14,0,0,0,1.23,0h1.23a8.47,8.47,0,0,0,1.21,0,6.85,6.85,0,0,0,0,1.06v1a6.69,6.69,0,0,0,0,1,9.33,9.33,0,0,0-1.12,0h-1.7V67Zm.88-1.52h2V63.8h-2Zm.11-6h1.89V57.8h-1.89Zm10.15-2.34a5.64,5.64,0,0,0,1.23-.08l.51.56a5,5,0,0,0-.28.84,13.36,13.36,0,0,1-1.29,2.89,3.84,3.84,0,0,0-.8-.45,10.1,10.1,0,0,0,1.31-2.94h-3.68a11.36,11.36,0,0,1-1.53,3,2.66,2.66,0,0,0-.73-.65,9.69,9.69,0,0,0,1.83-4,8.27,8.27,0,0,0,.22-1.55l1,.21a6.28,6.28,0,0,0-.18.72c-.09.44-.2.86-.36,1.46Z"/><path class="cls-4" d="M132.76,56.25a7.25,7.25,0,0,0-.11-1.39h1.25a7.05,7.05,0,0,0-.11,1.39V65.9h4.43V59a8.8,8.8,0,0,0-.09-1.39h1.18a11.24,11.24,0,0,0-.09,1.41v7.47a10.1,10.1,0,0,0,.11,1.59h-1.11V66.86h-9.59v1.26h-1.11a10.55,10.55,0,0,0,.11-1.52V59.12a8,8,0,0,0-.11-1.47h1.19a9.91,9.91,0,0,0-.08,1.45v6.8h4.13Z"/><path class="cls-4" d="M146.36,65.15A8.87,8.87,0,0,1,142.9,68a3.15,3.15,0,0,0-.74-.72,7.38,7.38,0,0,0,2-1.11,6.6,6.6,0,0,0,1.47-1.54Zm2.76,1.72a7.27,7.27,0,0,0,.11,1.5h-1.17a8.52,8.52,0,0,0,.1-1.5V64.05h-3.9c-.6,0-1,0-1.48,0a9.07,9.07,0,0,0,.07-1.47v-5a6.6,6.6,0,0,0-.09-1.35h1.11a8.44,8.44,0,0,0-.07,1.34v5.62h9.88a9.91,9.91,0,0,0,1.47-.07v1a8.55,8.55,0,0,0-1.45-.09h-4.58Zm4.22-6a8.32,8.32,0,0,0,.07,1.41,13.44,13.44,0,0,0-1.57-.06H147.1a13.89,13.89,0,0,0-1.55.06,11.45,11.45,0,0,0,.06-1.46V56.55a11.07,11.07,0,0,0-.06-1.35,12.71,12.71,0,0,0,1.64.08h4.69a11.7,11.7,0,0,0,1.53-.08,8.68,8.68,0,0,0-.07,1.41Zm-6.83-3.48h5.91V56.09h-5.91Zm0,2h5.91V58.1h-5.91Zm0,2h5.91V60.12h-5.91Zm5.18,3.27a9.86,9.86,0,0,0,2,1.73,9.47,9.47,0,0,0,1.65.87,3.74,3.74,0,0,0-.69.78,11.85,11.85,0,0,1-3.73-2.9Z"/><path class="cls-4" d="M164.55,61.47a1.23,1.23,0,1,1-1.23-1.23A1.24,1.24,0,0,1,164.55,61.47Z"/><path class="cls-4" d="M20.62,84.29a10.5,10.5,0,0,0,1.52-.09v1.06a11.19,11.19,0,0,0-1.52-.09H10.27a10.73,10.73,0,0,0-1.51.09V84.2a10.25,10.25,0,0,0,1.51.09h1.11v-5.9c0-.54,0-.88,0-1.21,2.91-.08,7-.87,8.2-1.59l.72.9-.7.22A32.84,32.84,0,0,1,12.37,78v1.87h7.82a8.29,8.29,0,0,0,1.35-.07v1a8.33,8.33,0,0,0-1.35-.08H18.33v3.53ZM13.86,86.4a12.13,12.13,0,0,1-4.28,2.94,3.39,3.39,0,0,0-.75-.85A10.39,10.39,0,0,0,13,85.86Zm3.49-5.64h-5v3.53h5Zm.09,5a10.46,10.46,0,0,0,4.29,2.79,9.23,9.23,0,0,0-.66.89,12.92,12.92,0,0,1-2.44-1.37,11.94,11.94,0,0,1-2-1.75Z"/><path class="cls-4" d="M30.4,76.56a4.14,4.14,0,0,0-.09-1h1.11a4.21,4.21,0,0,0-.07,1v.36h4.26a10.61,10.61,0,0,0,1.54-.09v1a9.13,9.13,0,0,0-1.51-.08H25.83a46.84,46.84,0,0,1-.38,8A8.89,8.89,0,0,1,24.22,89a2.82,2.82,0,0,0-.78-.73A7.48,7.48,0,0,0,24.6,85.1a51.61,51.61,0,0,0,.31-6.89,1.42,1.42,0,0,0,0-.24c0-.3,0-.79-.06-1.11a13,13,0,0,0,1.66.08h3.9Zm-2.64,3.17a7.63,7.63,0,0,0-1.3.07v-.91a7.63,7.63,0,0,0,1.3.07H31a5.7,5.7,0,0,0-.08-.84h1a4.76,4.76,0,0,0-.06.84h3.69a6.1,6.1,0,0,0,1.29-.09v.95a7.72,7.72,0,0,0-1.29-.09H31.9v1.12h2.84a10.45,10.45,0,0,0,1.39-.06,9.31,9.31,0,0,0,0,1.23v2.21a9.49,9.49,0,0,0,0,1.24,13,13,0,0,0-1.39-.06H31.9v1.23h3.89a10,10,0,0,0,1.53-.09v1a11.72,11.72,0,0,0-1.56-.09H31.9v.46A8.26,8.26,0,0,0,32,89.4H30.93A9.36,9.36,0,0,0,31,87.89v-.45H27.34a13.25,13.25,0,0,0-1.42.07v-.94a9,9,0,0,0,1.38.07H31V85.41H28.38a13.16,13.16,0,0,0-1.41.06A9.59,9.59,0,0,0,27,84.21V82A9.28,9.28,0,0,0,27,80.79a10.83,10.83,0,0,0,1.44.06H31V79.73Zm.15,1.87v1.11H31V81.6Zm0,1.83v1.23H31V83.43Zm4-.72h3.3V81.6H31.9Zm0,2h3.3V83.43H31.9Z"/><path class="cls-4" d="M43.53,86.15A8.9,8.9,0,0,1,40.06,89a3.11,3.11,0,0,0-.73-.72,7.72,7.72,0,0,0,2-1.11,6.6,6.6,0,0,0,1.47-1.54Zm2.76,1.72a8.23,8.23,0,0,0,.1,1.5H45.22a7.53,7.53,0,0,0,.11-1.5V85.05h-3.9c-.6,0-1,0-1.49,0A8.81,8.81,0,0,0,40,83.63v-5a7.4,7.4,0,0,0-.09-1.35H41A8.28,8.28,0,0,0,41,78.59v5.62h9.89a10.06,10.06,0,0,0,1.47-.07v1a8.61,8.61,0,0,0-1.46-.09H46.29Zm4.21-6a8.07,8.07,0,0,0,.08,1.41A13.63,13.63,0,0,0,49,83.18H44.26a13.59,13.59,0,0,0-1.54.06,13.69,13.69,0,0,0,.06-1.46V77.55c0-.55,0-.91-.06-1.35a12.54,12.54,0,0,0,1.63.08h4.7a11.9,11.9,0,0,0,1.53-.08,8.45,8.45,0,0,0-.08,1.41Zm-6.82-3.48h5.91V77.09H43.68Zm0,2h5.91V79.1H43.68Zm0,2h5.91V81.12H43.68Zm5.17,3.27a9.9,9.9,0,0,0,2,1.73,9.47,9.47,0,0,0,1.65.87,3.25,3.25,0,0,0-.69.78,12,12,0,0,1-3.74-2.9Z"/><path class="cls-4" d="M66.48,89.39a10.08,10.08,0,0,1-2.09-3.23,9.82,9.82,0,0,1,0-7.38,10.16,10.16,0,0,1,2.09-3.22h1.33a9.55,9.55,0,0,0-2.28,3.1,9.37,9.37,0,0,0,0,7.62,9.57,9.57,0,0,0,2.28,3.11Z"/><path class="cls-4" d="M82.63,82.92a14.33,14.33,0,0,0-2-.1H71.41a15,15,0,0,0-2,.1V81.68a14.49,14.49,0,0,0,2,.1h9.24a13.86,13.86,0,0,0,2-.1Z"/><path class="cls-4" d="M90.88,81.45a7.91,7.91,0,0,0,1.4-.07v1a10.7,10.7,0,0,0-1.37-.07h-5a8.73,8.73,0,0,0-1.43.07v-1a8.8,8.8,0,0,0,1.44.07h3.24a12.22,12.22,0,0,0,1.08-3l.92.31A16,16,0,0,1,90,81.45Zm-.19-4.08a8.19,8.19,0,0,0,1.39-.07v1a7.61,7.61,0,0,0-1.38-.08H86.22a7.8,7.8,0,0,0-1.35.08v-1a8.19,8.19,0,0,0,1.39.07h1.82v-.55A5.69,5.69,0,0,0,88,75.68h1.12A6.24,6.24,0,0,0,89,76.83v.54ZM86.43,89.21h-1a9.21,9.21,0,0,0,.06-1.35v-3a12.09,12.09,0,0,0,0-1.26,11.76,11.76,0,0,0,1.18,0h3.56a8.71,8.71,0,0,0,1.09,0,8.74,8.74,0,0,0,0,1.25V88a7.78,7.78,0,0,0,.06,1.19h-1v-.93H86.43Zm.25-10.71a11.79,11.79,0,0,1,1,2.49l-.87.3a10.37,10.37,0,0,0-1-2.49Zm-.25,8.94H90.3v-3H86.43ZM98,76.74a10.68,10.68,0,0,0-.62,1.34,31.57,31.57,0,0,1-1.54,3,7,7,0,0,1,1.69,2.35A5.22,5.22,0,0,1,98,85.5a1.81,1.81,0,0,1-.76,1.68,3,3,0,0,1-1.35.23c-.41,0-.8,0-1.25-.06a2.84,2.84,0,0,0-.19-1,7.28,7.28,0,0,0,1.45.15c.86,0,1.14-.27,1.14-1.06a4.63,4.63,0,0,0-.49-2,6.18,6.18,0,0,0-1.79-2.18,22.38,22.38,0,0,0,2-4.18h-3V87.69a9,9,0,0,0,.11,1.67H92.76a11.93,11.93,0,0,0,.09-1.65V77.51c0-.45,0-.87-.06-1.38.39,0,.67,0,1.2,0H96.4a6.63,6.63,0,0,0,1.16-.06Z"/><path class="cls-4" d="M100.27,77.28c0-.42,0-.84,0-1.14a7.75,7.75,0,0,0,1,0h2a5.21,5.21,0,0,0,1-.06l.53.51a1.09,1.09,0,0,1-.11.24s-.06.13-.12.25a25,25,0,0,1-1.63,3.32,5.06,5.06,0,0,1,1,1.65,5.94,5.94,0,0,1,.3,1.86c0,1-.26,1.5-.8,1.68a3.61,3.61,0,0,1-1.06.13h-.51a2.77,2.77,0,0,0-.18-.9,7.63,7.63,0,0,0,.88.06c.57,0,.78-.24.78-.92a4.62,4.62,0,0,0-1.36-3.48A17.83,17.83,0,0,0,103.53,77h-2.34V87.65c0,.58,0,1.12.07,1.59h-1.08a12.11,12.11,0,0,0,.09-1.61Zm6.08,7.31a9,9,0,0,1-2.57,3.84,2.84,2.84,0,0,0-.7-.69,7,7,0,0,0,1.39-1.43,8,8,0,0,0,1-2.08Zm.19-3.77a10.13,10.13,0,0,0-1.15.06v-.94a11.34,11.34,0,0,1-1.25.85,2.41,2.41,0,0,0-.6-.81,9.83,9.83,0,0,0,4.26-4.18h1a10.67,10.67,0,0,0,4.73,4.2,6.26,6.26,0,0,0-.57.9,13.15,13.15,0,0,1-4.65-4.25,12,12,0,0,1-3,3.29,8.87,8.87,0,0,0,1.17.06h3.76a8.79,8.79,0,0,0,1.14-.06v.94a9.7,9.7,0,0,0-1.14-.06h-1.56V82.7h2.81a9.31,9.31,0,0,0,1.42-.09v1a9.4,9.4,0,0,0-1.42-.09h-2.81v4.38c0,.87-.36,1.16-1.42,1.16-.35,0-.87,0-1.32-.06a3,3,0,0,0-.3-1,10.94,10.94,0,0,0,1.53.13c.42,0,.57-.09.57-.34V83.55H105.7a8.94,8.94,0,0,0-1.29.08v-1a8.94,8.94,0,0,0,1.29.08h2.12V80.82Zm4.31,3.44a8.41,8.41,0,0,0,2.49,3.39,4,4,0,0,0-.72.79,11.75,11.75,0,0,1-2.57-3.82Z"/><path class="cls-4" d="M124.32,76.86c-.17.14-.29.24-1.85,1.74A43.41,43.41,0,0,1,119,81.44c-.55.42-.66.54-.66.75s.12.37,1.34,1.32a45.12,45.12,0,0,1,4.8,4.09,3.17,3.17,0,0,0,.42.38l-1,.93A14.28,14.28,0,0,0,122,86.85c-1-.93-1.61-1.42-3.8-3.13-.84-.66-1.08-1-1.08-1.5a1.45,1.45,0,0,1,.44-1,11.75,11.75,0,0,1,1.27-1,23.75,23.75,0,0,0,4.4-4.11Z"/><path class="cls-4" d="M129.7,89.39A9.23,9.23,0,0,0,132,86.28a9.37,9.37,0,0,0,0-7.62,9.3,9.3,0,0,0-2.28-3.1H131a10.11,10.11,0,0,1,2.08,3.22,9.82,9.82,0,0,1,0,7.38A10,10,0,0,1,131,89.39Z"/><path class="cls-4" d="M145.51,82.47a1.23,1.23,0,0,1-2.46,0,1.23,1.23,0,1,1,2.46,0Z"/><path class="cls-4" d="M10.74,104.18a14.15,14.15,0,0,1-2,1.77,2.49,2.49,0,0,0-.54-.83,12,12,0,0,0,2.67-2.4,11.15,11.15,0,0,0,1.63-2.64H9.94c-.37,0-.75,0-1.15.06v-1a10.37,10.37,0,0,0,1.12.06h.83V97.85a10.89,10.89,0,0,0-.09-1.17h1.09a6.29,6.29,0,0,0-.09,1.18v1.37h.9a3.26,3.26,0,0,0,.71,0l.43.57a5.25,5.25,0,0,0-.3.59A13.37,13.37,0,0,1,11.76,103a5.93,5.93,0,0,0,1.87,1.44,3.14,3.14,0,0,0-.46.82A7.8,7.8,0,0,1,11.65,104v4.79a11.11,11.11,0,0,0,.08,1.57H10.66a14.81,14.81,0,0,0,.08-1.57Zm2.77-7a13,13,0,0,0,1.49.08h5.53A11.78,11.78,0,0,0,22,97.23v1a11.79,11.79,0,0,0-1.43-.08H14.94a12.3,12.3,0,0,0-1.43.08Zm6.83,6.54a10.21,10.21,0,0,0,1.45-.06,13,13,0,0,0-.06,1.44v3.59a11.2,11.2,0,0,0,.09,1.54h-1v-.75H14.71v.69h-1a10.94,10.94,0,0,0,.09-1.51v-3.54a13.27,13.27,0,0,0-.06-1.44c.36,0,.82,0,1.48,0Zm-5.84-3.31a9.16,9.16,0,0,0-.06-1.25,9.33,9.33,0,0,0,1.41.08h3.78A10.58,10.58,0,0,0,21,99.21a10.26,10.26,0,0,0-.06,1.23v1a10.24,10.24,0,0,0,.06,1.26,12.61,12.61,0,0,0-1.42-.06H15.87a13.84,13.84,0,0,0-1.43.06,8.6,8.6,0,0,0,.06-1.23Zm.21,5.71h2.52v-1.62H14.71Zm0,2.58h2.52v-1.81H14.71Zm.68-6.91h4.66v-1.77H15.39Zm2.7,4.33h2.74v-1.62H18.09Zm0,2.58h2.74v-1.81H18.09Z"/><path class="cls-4" d="M25.89,100.62a9,9,0,0,0-1.62.09V99.6a9.26,9.26,0,0,0,1.6.11h1.85V98.37a8.42,8.42,0,0,0-.11-1.53h1.17a8.68,8.68,0,0,0-.09,1.55v1.32h4.07V98.42a10.11,10.11,0,0,0-.09-1.58l1.18,0a9.19,9.19,0,0,0-.1,1.57v1.28h1.74a9.2,9.2,0,0,0,1.57-.11v1.11a9.15,9.15,0,0,0-1.57-.09H33.75v3.93h2.1a10.87,10.87,0,0,0,1.57-.09v1.11a9.59,9.59,0,0,0-1.57-.1h-2.1v3.06a10.82,10.82,0,0,0,.1,1.69H32.67a11.35,11.35,0,0,0,.09-1.68v-3.06H28.44a7.36,7.36,0,0,1-1.13,3,8,8,0,0,1-1.87,1.91,3.47,3.47,0,0,0-.78-.83,6.8,6.8,0,0,0,1.92-1.83,5.85,5.85,0,0,0,.87-2.23H25.36a8.9,8.9,0,0,0-1.53.1v-1.11a10.4,10.4,0,0,0,1.52.09h2.23a26.2,26.2,0,0,0,.14-3v-1Zm2.8,1.08a26.69,26.69,0,0,1-.13,2.85h4.2v-3.93H28.69Z"/><path class="cls-4" d="M43.53,107.15A8.9,8.9,0,0,1,40.06,110a3.11,3.11,0,0,0-.73-.72,7.72,7.72,0,0,0,2-1.11,6.6,6.6,0,0,0,1.47-1.54Zm2.76,1.72a8.23,8.23,0,0,0,.1,1.5H45.22a7.53,7.53,0,0,0,.11-1.5v-2.82h-3.9c-.6,0-1,0-1.49,0a8.81,8.81,0,0,0,.08-1.47v-5a7.4,7.4,0,0,0-.09-1.35H41A8.28,8.28,0,0,0,41,99.59v5.62h9.89a10.06,10.06,0,0,0,1.47-.07v1a8.61,8.61,0,0,0-1.46-.09H46.29Zm4.21-6a8.07,8.07,0,0,0,.08,1.41,13.63,13.63,0,0,0-1.58-.06H44.26a13.59,13.59,0,0,0-1.54.06,13.69,13.69,0,0,0,.06-1.46V98.55c0-.55,0-.91-.06-1.35a12.54,12.54,0,0,0,1.63.08h4.7a11.9,11.9,0,0,0,1.53-.08,8.45,8.45,0,0,0-.08,1.41Zm-6.82-3.48h5.91V98.09H43.68Zm0,2h5.91V100.1H43.68Zm0,2h5.91v-1.29H43.68Zm5.17,3.27a9.9,9.9,0,0,0,2,1.73,9.47,9.47,0,0,0,1.65.87,3.25,3.25,0,0,0-.69.78,12,12,0,0,1-3.74-2.9Z"/><path class="cls-4" d="M66.48,110.39a10.08,10.08,0,0,1-2.09-3.23,9.82,9.82,0,0,1,0-7.38,10.16,10.16,0,0,1,2.09-3.22h1.33a9.55,9.55,0,0,0-2.28,3.1,9.37,9.37,0,0,0,0,7.62,9.57,9.57,0,0,0,2.28,3.11Z"/><path class="cls-4" d="M82.63,103.92a14.33,14.33,0,0,0-2-.1H71.41a15,15,0,0,0-2,.1v-1.24a14.49,14.49,0,0,0,2,.1h9.24a13.86,13.86,0,0,0,2-.1Z"/><path class="cls-4" d="M90.88,102.45a7.91,7.91,0,0,0,1.4-.07v1a10.7,10.7,0,0,0-1.37-.07h-5a8.73,8.73,0,0,0-1.43.07v-1a8.8,8.8,0,0,0,1.44.07h3.24a12.22,12.22,0,0,0,1.08-3l.92.31A16,16,0,0,1,90,102.45Zm-.19-4.08a8.19,8.19,0,0,0,1.39-.07v1a7.61,7.61,0,0,0-1.38-.08H86.22a7.8,7.8,0,0,0-1.35.08v-1a8.19,8.19,0,0,0,1.39.07h1.82v-.55A5.69,5.69,0,0,0,88,96.68h1.12A6.24,6.24,0,0,0,89,97.83v.54Zm-4.26,11.84h-1a9.21,9.21,0,0,0,.06-1.35v-3a12.09,12.09,0,0,0,0-1.26,11.76,11.76,0,0,0,1.18,0h3.56a8.71,8.71,0,0,0,1.09,0,8.74,8.74,0,0,0,0,1.25V109a7.78,7.78,0,0,0,.06,1.19h-1v-.93H86.43Zm.25-10.71a11.79,11.79,0,0,1,1,2.49l-.87.3a10.37,10.37,0,0,0-1-2.49Zm-.25,8.94H90.3v-3H86.43ZM98,97.74a10.68,10.68,0,0,0-.62,1.34,31.57,31.57,0,0,1-1.54,3,7,7,0,0,1,1.69,2.35,5.22,5.22,0,0,1,.45,2.1,1.81,1.81,0,0,1-.76,1.68,3,3,0,0,1-1.35.23c-.41,0-.8,0-1.25-.06a2.84,2.84,0,0,0-.19-1,7.28,7.28,0,0,0,1.45.15c.86,0,1.14-.27,1.14-1.06a4.63,4.63,0,0,0-.49-2,6.18,6.18,0,0,0-1.79-2.18,22.38,22.38,0,0,0,2-4.18h-3v10.66a9,9,0,0,0,.11,1.67H92.76a11.93,11.93,0,0,0,.09-1.65V98.51c0-.45,0-.87-.06-1.38.39,0,.67,0,1.2,0H96.4a6.63,6.63,0,0,0,1.16-.06Z"/><path class="cls-4" d="M101.47,98.54a12.36,12.36,0,0,0-.09-1.67h1.11a12.52,12.52,0,0,0-.09,1.68v2.24h.42a5.55,5.55,0,0,0,1.2-.08v1a8.47,8.47,0,0,0-1.21-.06h-.41v4.71c.65-.3.92-.44,1.7-.87l.09.91a29.55,29.55,0,0,1-3.87,1.83c-.21.08-.44.18-.6.26l-.26-1a8.37,8.37,0,0,0,2-.67v-5.13h-.55a5.4,5.4,0,0,0-1.26.09v-1a5.79,5.79,0,0,0,1.26.09h.55Zm4.59,9.72c0,.36.09.48.45.57a11.46,11.46,0,0,0,2.42.13c2.11,0,2.74-.09,3-.43a4.36,4.36,0,0,0,.32-2,2.59,2.59,0,0,0,1,.39c-.18,2.78-.45,3-4.35,3-3.11,0-3.72-.23-3.72-1.4V103l-.33.1a10.14,10.14,0,0,0-1.25.48l-.27-1a5.32,5.32,0,0,0,1.31-.3l.54-.18V99.68a10.84,10.84,0,0,0-.09-1.53h1.12a10.58,10.58,0,0,0-.09,1.48v2.1l2.15-.72V98.24a9.49,9.49,0,0,0-.09-1.4h1.11a10,10,0,0,0-.09,1.41v2.46l2.31-.76a10.74,10.74,0,0,0,1.18-.47c-.06,1.5-.12,2.55-.24,4s-.3,2-.69,2.19a2,2,0,0,1-1.08.21l-.66,0a3.39,3.39,0,0,0-.22-1,5.3,5.3,0,0,0,1.15.14c.35,0,.42-.08.5-.51a31.52,31.52,0,0,0,.24-3.8l-2.49.86v4.14a9.88,9.88,0,0,0,.09,1.44h-1.11a9.79,9.79,0,0,0,.09-1.46v-3.81l-2.15.72Z"/><path class="cls-4" d="M116.44,98.51a12.24,12.24,0,0,0-.09-1.65h1.1a9.76,9.76,0,0,0-.09,1.65v2.29h.28a8.58,8.58,0,0,0,1.25-.06v1a10.28,10.28,0,0,0-1.25-.06h-.28v4.44a13.4,13.4,0,0,0,1.6-.91l.08.94a39.73,39.73,0,0,1-3.72,1.92,2.93,2.93,0,0,0-.5.26l-.3-1a12.17,12.17,0,0,0,1.92-.75v-4.88H116a9.66,9.66,0,0,0-1.26.08v-1a8.35,8.35,0,0,0,1.29.07h.4Zm7.17,8.43c-1.33.43-2.26.69-4.12,1.14l-.93.25-.24-1a25.83,25.83,0,0,0,5.28-1.21Zm-3.24-6.87c-.58,0-1.18,0-1.59.07v-1a10.83,10.83,0,0,0,1.61.09h3.66a19,19,0,0,0-.12-2.49H125a7.76,7.76,0,0,0-.09,1.55v.94h1.53a10.44,10.44,0,0,0,1.56-.09v1c-.42,0-1-.07-1.59-.07H125a25.62,25.62,0,0,0,.58,4.89,10.8,10.8,0,0,0,1.17-3.3l1,.33a7.92,7.92,0,0,0-.33.87,17.32,17.32,0,0,1-1.52,3.25c.5,1.52,1.08,2.64,1.47,2.78a3.56,3.56,0,0,0,.44-2.07,2.72,2.72,0,0,0,.79.57,5.93,5.93,0,0,1-.48,2.13c-.19.36-.43.54-.69.54-.7,0-1.57-1.19-2.19-3a11.54,11.54,0,0,1-3.39,3,2.61,2.61,0,0,0-.73-.71,10.08,10.08,0,0,0,3.82-3.34,24.89,24.89,0,0,1-.84-6Zm-.88,2.19c0-.33,0-.68,0-.93a8.14,8.14,0,0,0,1,0h1.77a9.74,9.74,0,0,0,1,0,5.19,5.19,0,0,0,0,.76v2.51a6.42,6.42,0,0,0,0,.88c-.32,0-.65,0-1.07,0h-1.74a7.89,7.89,0,0,0-1,0,8.17,8.17,0,0,0,0-.91Zm.85,2.4h2v-2.51h-2Zm6.84-5.75a7.12,7.12,0,0,0-1.74-1.5l.59-.51a10,10,0,0,1,1.77,1.4Z"/><path class="cls-4" d="M129.7,110.39a9.23,9.23,0,0,0,2.28-3.11,9.37,9.37,0,0,0,0-7.62,9.3,9.3,0,0,0-2.28-3.1H131a10.11,10.11,0,0,1,2.08,3.22,9.82,9.82,0,0,1,0,7.38,10,10,0,0,1-2.08,3.23Z"/><path class="cls-4" d="M145.51,103.47a1.23,1.23,0,0,1-2.46,0,1.23,1.23,0,1,1,2.46,0Z"/><path class="cls-4" d="M11.11,119.45a10.89,10.89,0,0,0-.09-1.59h1.05a10.34,10.34,0,0,0-.09,1.59v8.32h1.16V121.5a12.07,12.07,0,0,0-.08-1.5h1a10.74,10.74,0,0,0-.07,1.52v6.22a14.32,14.32,0,0,0,.06,1.68h-.89v-.81H10v1.31H9a11.68,11.68,0,0,0,.09-1.59v-6.84c0-.56,0-1-.07-1.49h1a10.61,10.61,0,0,0-.07,1.49v6.28h1.12Zm4.95,1.39a11.26,11.26,0,0,0-1.57.09v-1a10.44,10.44,0,0,0,1.56.09H17.7v-.75a10.12,10.12,0,0,0-.09-1.52H18.7a9.94,9.94,0,0,0-.09,1.52V120h2.13a10.72,10.72,0,0,0,1.56-.09v1a11.1,11.1,0,0,0-1.54-.09H18.61v2.28H20a5.28,5.28,0,0,0,1-.06l.51.56c-.1.19-.12.24-.3.63a12.23,12.23,0,0,1-2.37,3.84,10,10,0,0,0,3.72,2.29,4.73,4.73,0,0,0-.54,1,12.26,12.26,0,0,1-3.82-2.58A13.21,13.21,0,0,1,14,131.3a3.59,3.59,0,0,0-.59-.9,11.48,11.48,0,0,0,4.19-2.34,9.35,9.35,0,0,1-1.4-2.13,9.91,9.91,0,0,1-.78-2l-.76.06v-1a10.52,10.52,0,0,0,1.26.07h1.8v-2.28Zm.26,3.12a8.79,8.79,0,0,0,1.9,3.45A10.45,10.45,0,0,0,20.34,124Z"/><path class="cls-4" d="M29.08,118.94a6.24,6.24,0,0,0,.72-1.49l1,.2a13.77,13.77,0,0,1-.72,1.29h3.95a10.42,10.42,0,0,0,1.27-.06,8.72,8.72,0,0,0-.06,1.11v1.08a8.32,8.32,0,0,0,.06,1.06,11.31,11.31,0,0,0-1.26-.06H26.62v1.22h8a11.15,11.15,0,0,0,1.29-.06,7.22,7.22,0,0,0-.06,1.09v1.11a7,7,0,0,0,.06,1.07,9.32,9.32,0,0,0-1.26-.06H31v1.35h4.7a10.68,10.68,0,0,0,1.57-.09v1a10.87,10.87,0,0,0-1.57-.09H31v1.25a9.42,9.42,0,0,0,.11,1.53H29.92a9.25,9.25,0,0,0,.11-1.53v-1.25H25.48a11.26,11.26,0,0,0-1.57.09v-1a10.68,10.68,0,0,0,1.57.09H30v-1.35H26.86a8.94,8.94,0,0,0-1.23.06,7.43,7.43,0,0,0,.06-1.07V120a7.3,7.3,0,0,0-.06-1.09,11.45,11.45,0,0,0,1.28.06Zm5.25,2.31v-1.49H26.62v1.49Zm.59,4.36v-1.5h-8.3v1.5Z"/><path class="cls-4" d="M43.53,128.15A8.9,8.9,0,0,1,40.06,131a3.11,3.11,0,0,0-.73-.72,7.72,7.72,0,0,0,2-1.11,6.6,6.6,0,0,0,1.47-1.54Zm2.76,1.72a8.23,8.23,0,0,0,.1,1.5H45.22a7.53,7.53,0,0,0,.11-1.5v-2.82h-3.9c-.6,0-1,0-1.49,0a8.81,8.81,0,0,0,.08-1.47v-5a7.4,7.4,0,0,0-.09-1.35H41a8.28,8.28,0,0,0-.08,1.34v5.62h9.89a10.06,10.06,0,0,0,1.47-.07v1a8.61,8.61,0,0,0-1.46-.09H46.29Zm4.21-6a8.07,8.07,0,0,0,.08,1.41,13.63,13.63,0,0,0-1.58-.06H44.26a13.59,13.59,0,0,0-1.54.06,13.69,13.69,0,0,0,.06-1.46v-4.23c0-.55,0-.91-.06-1.35a12.54,12.54,0,0,0,1.63.08h4.7a11.9,11.9,0,0,0,1.53-.08,8.45,8.45,0,0,0-.08,1.41Zm-6.82-3.48h5.91v-1.26H43.68Zm0,2h5.91V121.1H43.68Zm0,2h5.91v-1.29H43.68Zm5.17,3.27a9.9,9.9,0,0,0,2,1.73,9.47,9.47,0,0,0,1.65.87,3.25,3.25,0,0,0-.69.78,12,12,0,0,1-3.74-2.9Z"/><path class="cls-4" d="M66.48,131.39a10.08,10.08,0,0,1-2.09-3.23,9.82,9.82,0,0,1,0-7.38,10.16,10.16,0,0,1,2.09-3.22h1.33a9.55,9.55,0,0,0-2.28,3.1,9.37,9.37,0,0,0,0,7.62,9.57,9.57,0,0,0,2.28,3.11Z"/><path class="cls-4" d="M82.63,124.92a14.33,14.33,0,0,0-2-.1H71.41a15,15,0,0,0-2,.1v-1.24a14.49,14.49,0,0,0,2,.1h9.24a13.86,13.86,0,0,0,2-.1Z"/><path class="cls-4" d="M90.88,123.45a7.91,7.91,0,0,0,1.4-.07v1a10.7,10.7,0,0,0-1.37-.07h-5a8.73,8.73,0,0,0-1.43.07v-1a8.8,8.8,0,0,0,1.44.07h3.24a12.22,12.22,0,0,0,1.08-3l.92.31A16,16,0,0,1,90,123.45Zm-.19-4.08a8.19,8.19,0,0,0,1.39-.07v1a7.61,7.61,0,0,0-1.38-.08H86.22a7.8,7.8,0,0,0-1.35.08v-1a8.19,8.19,0,0,0,1.39.07h1.82v-.55a5.69,5.69,0,0,0-.09-1.14h1.12a6.24,6.24,0,0,0-.09,1.15v.54Zm-4.26,11.84h-1a9.21,9.21,0,0,0,.06-1.35v-3.05a12.09,12.09,0,0,0,0-1.26,11.76,11.76,0,0,0,1.18,0h3.56a8.71,8.71,0,0,0,1.09,0,8.74,8.74,0,0,0,0,1.25V130a7.78,7.78,0,0,0,.06,1.19h-1v-.93H86.43Zm.25-10.71a11.79,11.79,0,0,1,1,2.49l-.87.3a10.37,10.37,0,0,0-1-2.49Zm-.25,8.94H90.3v-3H86.43ZM98,118.74a10.68,10.68,0,0,0-.62,1.34,31.57,31.57,0,0,1-1.54,3,7,7,0,0,1,1.69,2.35,5.22,5.22,0,0,1,.45,2.1,1.81,1.81,0,0,1-.76,1.68,3,3,0,0,1-1.35.23c-.41,0-.8,0-1.25-.06a2.84,2.84,0,0,0-.19-1,7.28,7.28,0,0,0,1.45.15c.86,0,1.14-.27,1.14-1.06a4.63,4.63,0,0,0-.49-2,6.18,6.18,0,0,0-1.79-2.18,22.38,22.38,0,0,0,2-4.18h-3v10.66a9,9,0,0,0,.11,1.67H92.76a11.93,11.93,0,0,0,.09-1.65v-10.2c0-.45,0-.87-.06-1.38.39,0,.67,0,1.2,0H96.4a6.63,6.63,0,0,0,1.16-.06Z"/><path class="cls-4" d="M101.47,119.54a12.36,12.36,0,0,0-.09-1.67h1.11a12.52,12.52,0,0,0-.09,1.68v2.24h.42a5.55,5.55,0,0,0,1.2-.08v1a8.47,8.47,0,0,0-1.21-.06h-.41v4.71c.65-.3.92-.44,1.7-.87l.09.91a29.55,29.55,0,0,1-3.87,1.83c-.21.08-.44.18-.6.26l-.26-1a8.37,8.37,0,0,0,2-.67v-5.13h-.55a5.4,5.4,0,0,0-1.26.09v-1a5.79,5.79,0,0,0,1.26.09h.55Zm4.59,9.72c0,.36.09.48.45.57a11.46,11.46,0,0,0,2.42.13c2.11,0,2.74-.09,3-.43a4.36,4.36,0,0,0,.32-2,2.59,2.59,0,0,0,1,.39c-.18,2.78-.45,3-4.35,3-3.11,0-3.72-.23-3.72-1.4V124l-.33.1a10.14,10.14,0,0,0-1.25.48l-.27-1a5.32,5.32,0,0,0,1.31-.3l.54-.18v-2.35a10.84,10.84,0,0,0-.09-1.53h1.12a10.58,10.58,0,0,0-.09,1.48v2.1l2.15-.72v-2.77a9.49,9.49,0,0,0-.09-1.4h1.11a10,10,0,0,0-.09,1.41v2.46l2.31-.76a10.74,10.74,0,0,0,1.18-.47c-.06,1.5-.12,2.55-.24,4s-.3,2-.69,2.19a2,2,0,0,1-1.08.21l-.66,0a3.39,3.39,0,0,0-.22-1,5.3,5.3,0,0,0,1.15.14c.35,0,.42-.08.5-.51a31.52,31.52,0,0,0,.24-3.8l-2.49.86v4.14a9.88,9.88,0,0,0,.09,1.44h-1.11a9.79,9.79,0,0,0,.09-1.46v-3.81l-2.15.72Z"/><path class="cls-4" d="M116.44,119.51a12.24,12.24,0,0,0-.09-1.65h1.1a9.76,9.76,0,0,0-.09,1.65v2.29h.28a8.58,8.58,0,0,0,1.25-.06v1a10.28,10.28,0,0,0-1.25-.06h-.28v4.44a13.4,13.4,0,0,0,1.6-.91l.08.94a39.73,39.73,0,0,1-3.72,1.92,2.93,2.93,0,0,0-.5.26l-.3-1a12.17,12.17,0,0,0,1.92-.75v-4.88H116a9.66,9.66,0,0,0-1.26.08v-1a8.35,8.35,0,0,0,1.29.07h.4Zm7.17,8.43c-1.33.43-2.26.69-4.12,1.14l-.93.25-.24-1a25.83,25.83,0,0,0,5.28-1.21Zm-3.24-6.87c-.58,0-1.18,0-1.59.07v-1a10.83,10.83,0,0,0,1.61.09h3.66a19,19,0,0,0-.12-2.49H125a7.76,7.76,0,0,0-.09,1.55v.94h1.53a10.44,10.44,0,0,0,1.56-.09v1c-.42,0-1-.07-1.59-.07H125a25.62,25.62,0,0,0,.58,4.89,10.8,10.8,0,0,0,1.17-3.3l1,.33a7.92,7.92,0,0,0-.33.87,17.32,17.32,0,0,1-1.52,3.25c.5,1.52,1.08,2.64,1.47,2.78a3.56,3.56,0,0,0,.44-2.07,2.72,2.72,0,0,0,.79.57,5.93,5.93,0,0,1-.48,2.13c-.19.36-.43.54-.69.54-.7,0-1.57-1.19-2.19-3a11.54,11.54,0,0,1-3.39,3,2.61,2.61,0,0,0-.73-.71,10.08,10.08,0,0,0,3.82-3.34,24.89,24.89,0,0,1-.84-6Zm-.88,2.19c0-.33,0-.68,0-.93a8.14,8.14,0,0,0,1,0h1.77a9.74,9.74,0,0,0,1,0,5.19,5.19,0,0,0,0,.76v2.51a6.42,6.42,0,0,0,0,.88c-.32,0-.65,0-1.07,0h-1.74a7.89,7.89,0,0,0-1,0,8.17,8.17,0,0,0,0-.91Zm.85,2.4h2v-2.51h-2Zm6.84-5.75a7.12,7.12,0,0,0-1.74-1.5l.59-.51a10,10,0,0,1,1.77,1.4Z"/><path class="cls-4" d="M129.7,131.39a9.23,9.23,0,0,0,2.28-3.11,9.37,9.37,0,0,0,0-7.62,9.3,9.3,0,0,0-2.28-3.1H131a10.11,10.11,0,0,1,2.08,3.22,9.82,9.82,0,0,1,0,7.38,10,10,0,0,1-2.08,3.23Z"/><path class="cls-4" d="M145.51,124.47a1.23,1.23,0,0,1-2.46,0,1.23,1.23,0,1,1,2.46,0Z"/><path class="cls-4" d="M21.9,151.2a11.11,11.11,0,0,0-1.74-.1H10.8a13,13,0,0,0-1.83.1V150a14.42,14.42,0,0,0,1.81.09h9.36A13.88,13.88,0,0,0,21.9,150ZM10.09,139.73a10.63,10.63,0,0,0,1.73.1H19a11.81,11.81,0,0,0,1.8-.1v1.18a14.25,14.25,0,0,0-1.8-.09H11.82a12.84,12.84,0,0,0-1.73.09Zm.92,4.89a10.08,10.08,0,0,0,1.56.09H18.3a10.35,10.35,0,0,0,1.56-.09v1.15a11.45,11.45,0,0,0-1.56-.07H12.58a10.94,10.94,0,0,0-1.57.07Z"/><path class="cls-4" d="M30,140.22c-3,.2-3,.2-4.68.24a2.56,2.56,0,0,0-.38-.84h.77a49.38,49.38,0,0,0,7.44-.6,8.08,8.08,0,0,0,1.9-.46l.66.85-1.89.35c-.66.12-1.77.27-2.91.37v1.25h4.77a10.79,10.79,0,0,0,1.52-.09v1a10.31,10.31,0,0,0-1.52-.09H30.91v1h3.53a8.32,8.32,0,0,0,1.2-.06,7.26,7.26,0,0,0-.06,1v2.68a6.59,6.59,0,0,0,.06,1,10.8,10.8,0,0,0-1.22-.06H30.91V149h3.78a10.4,10.4,0,0,0,1.52-.09v1a10.79,10.79,0,0,0-1.52-.09H30.91V151h4.83a10.84,10.84,0,0,0,1.53-.09v1a10.84,10.84,0,0,0-1.53-.09H25.47A10.59,10.59,0,0,0,24,152v-1a10.59,10.59,0,0,0,1.52.09H30v-1.26H26.5a10.29,10.29,0,0,0-1.5.09v-1a10.48,10.48,0,0,0,1.5.09H30v-1.14H26.76a10.43,10.43,0,0,0-1.2.06,8.72,8.72,0,0,0,.06-1v-2.68a9.07,9.07,0,0,0-.06-1,8.32,8.32,0,0,0,1.2.06H30v-1H25.53a10.59,10.59,0,0,0-1.52.09v-1a10.4,10.4,0,0,0,1.52.09H30Zm-3.45,3.71v1.2H30v-1.2Zm0,1.93v1.22H30v-1.22Zm4.36-.73h3.74v-1.2H30.91Zm0,2h3.74v-1.22H30.91Z"/><path class="cls-4" d="M43.53,149.15A8.9,8.9,0,0,1,40.06,152a3.11,3.11,0,0,0-.73-.72,7.72,7.72,0,0,0,2-1.11,6.6,6.6,0,0,0,1.47-1.54Zm2.76,1.72a8.23,8.23,0,0,0,.1,1.5H45.22a7.53,7.53,0,0,0,.11-1.5v-2.82h-3.9c-.6,0-1,0-1.49,0a8.81,8.81,0,0,0,.08-1.47v-5a7.4,7.4,0,0,0-.09-1.35H41a8.28,8.28,0,0,0-.08,1.34v5.62h9.89a10.06,10.06,0,0,0,1.47-.07v1a8.61,8.61,0,0,0-1.46-.09H46.29Zm4.21-6a8.07,8.07,0,0,0,.08,1.41,13.63,13.63,0,0,0-1.58-.06H44.26a13.59,13.59,0,0,0-1.54.06,13.69,13.69,0,0,0,.06-1.46v-4.23c0-.55,0-.91-.06-1.35a12.54,12.54,0,0,0,1.63.08h4.7a11.9,11.9,0,0,0,1.53-.08,8.45,8.45,0,0,0-.08,1.41Zm-6.82-3.48h5.91v-1.26H43.68Zm0,2h5.91V142.1H43.68Zm0,2h5.91v-1.29H43.68Zm5.17,3.27a9.9,9.9,0,0,0,2,1.73,9.47,9.47,0,0,0,1.65.87,3.25,3.25,0,0,0-.69.78,12,12,0,0,1-3.74-2.9Z"/><path class="cls-4" d="M66.48,152.39a10.08,10.08,0,0,1-2.09-3.23,9.82,9.82,0,0,1,0-7.38,10.16,10.16,0,0,1,2.09-3.22h1.33a9.55,9.55,0,0,0-2.28,3.1,9.37,9.37,0,0,0,0,7.62,9.57,9.57,0,0,0,2.28,3.11Z"/><path class="cls-4" d="M82.63,145.92a14.33,14.33,0,0,0-2-.1H71.41a15,15,0,0,0-2,.1v-1.24a14.49,14.49,0,0,0,2,.1h9.24a13.86,13.86,0,0,0,2-.1Z"/><path class="cls-4" d="M90.88,144.45a7.91,7.91,0,0,0,1.4-.07v1a10.7,10.7,0,0,0-1.37-.07h-5a8.73,8.73,0,0,0-1.43.07v-1a8.8,8.8,0,0,0,1.44.07h3.24a12.22,12.22,0,0,0,1.08-3l.92.31A16,16,0,0,1,90,144.45Zm-.19-4.08a8.19,8.19,0,0,0,1.39-.07v1a7.61,7.61,0,0,0-1.38-.08H86.22a7.8,7.8,0,0,0-1.35.08v-1a8.19,8.19,0,0,0,1.39.07h1.82v-.55a5.69,5.69,0,0,0-.09-1.14h1.12a6.24,6.24,0,0,0-.09,1.15v.54Zm-4.26,11.84h-1a9.21,9.21,0,0,0,.06-1.35v-3.05a12.09,12.09,0,0,0,0-1.26,11.76,11.76,0,0,0,1.18,0h3.56a8.71,8.71,0,0,0,1.09,0,8.74,8.74,0,0,0,0,1.25V151a7.78,7.78,0,0,0,.06,1.19h-1v-.93H86.43Zm.25-10.71a11.79,11.79,0,0,1,1,2.49l-.87.3a10.37,10.37,0,0,0-1-2.49Zm-.25,8.94H90.3v-3H86.43ZM98,139.74a10.68,10.68,0,0,0-.62,1.34,31.57,31.57,0,0,1-1.54,3,7,7,0,0,1,1.69,2.35,5.22,5.22,0,0,1,.45,2.1,1.81,1.81,0,0,1-.76,1.68,3,3,0,0,1-1.35.23c-.41,0-.8,0-1.25-.06a2.84,2.84,0,0,0-.19-1,7.28,7.28,0,0,0,1.45.15c.86,0,1.14-.27,1.14-1.06a4.63,4.63,0,0,0-.49-2,6.18,6.18,0,0,0-1.79-2.18,22.38,22.38,0,0,0,2-4.18h-3v10.66a9,9,0,0,0,.11,1.67H92.76a11.93,11.93,0,0,0,.09-1.65v-10.2c0-.45,0-.87-.06-1.38.39,0,.67,0,1.2,0H96.4a6.63,6.63,0,0,0,1.16-.06Z"/><path class="cls-4" d="M101.47,140.54a12.36,12.36,0,0,0-.09-1.67h1.11a12.52,12.52,0,0,0-.09,1.68v2.24h.42a5.55,5.55,0,0,0,1.2-.08v1a8.47,8.47,0,0,0-1.21-.06h-.41v4.71c.65-.3.92-.44,1.7-.87l.09.91a29.55,29.55,0,0,1-3.87,1.83c-.21.08-.44.18-.6.26l-.26-1a8.37,8.37,0,0,0,2-.67v-5.13h-.55a5.4,5.4,0,0,0-1.26.09v-1a5.79,5.79,0,0,0,1.26.09h.55Zm4.59,9.72c0,.36.09.48.45.57a11.46,11.46,0,0,0,2.42.13c2.11,0,2.74-.09,3-.43a4.36,4.36,0,0,0,.32-2,2.59,2.59,0,0,0,1,.39c-.18,2.78-.45,3-4.35,3-3.11,0-3.72-.23-3.72-1.4V145l-.33.1a10.14,10.14,0,0,0-1.25.48l-.27-1a5.32,5.32,0,0,0,1.31-.3l.54-.18v-2.35a10.84,10.84,0,0,0-.09-1.53h1.12a10.58,10.58,0,0,0-.09,1.48v2.1l2.15-.72v-2.77a9.49,9.49,0,0,0-.09-1.4h1.11a10,10,0,0,0-.09,1.41v2.46l2.31-.76a10.74,10.74,0,0,0,1.18-.47c-.06,1.5-.12,2.55-.24,4s-.3,2-.69,2.19a2,2,0,0,1-1.08.21l-.66,0a3.39,3.39,0,0,0-.22-1,5.3,5.3,0,0,0,1.15.14c.35,0,.42-.08.5-.51a31.52,31.52,0,0,0,.24-3.8l-2.49.86v4.14a9.88,9.88,0,0,0,.09,1.44h-1.11a9.79,9.79,0,0,0,.09-1.46v-3.81l-2.15.72Z"/><path class="cls-4" d="M116.44,140.51a12.24,12.24,0,0,0-.09-1.65h1.1a9.76,9.76,0,0,0-.09,1.65v2.29h.28a8.58,8.58,0,0,0,1.25-.06v1a10.28,10.28,0,0,0-1.25-.06h-.28v4.44a13.4,13.4,0,0,0,1.6-.91l.08.94a39.73,39.73,0,0,1-3.72,1.92,2.93,2.93,0,0,0-.5.26l-.3-1a12.17,12.17,0,0,0,1.92-.75v-4.88H116a9.66,9.66,0,0,0-1.26.08v-1a8.35,8.35,0,0,0,1.29.07h.4Zm7.17,8.43c-1.33.43-2.26.69-4.12,1.14l-.93.25-.24-1a25.83,25.83,0,0,0,5.28-1.21Zm-3.24-6.87c-.58,0-1.18,0-1.59.07v-1a10.83,10.83,0,0,0,1.61.09h3.66a19,19,0,0,0-.12-2.49H125a7.76,7.76,0,0,0-.09,1.55v.94h1.53a10.44,10.44,0,0,0,1.56-.09v1c-.42,0-1-.07-1.59-.07H125a25.62,25.62,0,0,0,.58,4.89,10.8,10.8,0,0,0,1.17-3.3l1,.33a7.92,7.92,0,0,0-.33.87,17.32,17.32,0,0,1-1.52,3.25c.5,1.52,1.08,2.64,1.47,2.78a3.56,3.56,0,0,0,.44-2.07,2.72,2.72,0,0,0,.79.57,5.93,5.93,0,0,1-.48,2.13c-.19.36-.43.54-.69.54-.7,0-1.57-1.19-2.19-3a11.54,11.54,0,0,1-3.39,3,2.61,2.61,0,0,0-.73-.71,10.08,10.08,0,0,0,3.82-3.34,24.89,24.89,0,0,1-.84-6Zm-.88,2.19c0-.33,0-.68,0-.93a8.14,8.14,0,0,0,1,0h1.77a9.74,9.74,0,0,0,1,0,5.19,5.19,0,0,0,0,.76v2.51a6.42,6.42,0,0,0,0,.88c-.32,0-.65,0-1.07,0h-1.74a7.89,7.89,0,0,0-1,0,8.17,8.17,0,0,0,0-.91Zm.85,2.4h2v-2.51h-2Zm6.84-5.75a7.12,7.12,0,0,0-1.74-1.5l.59-.51a10,10,0,0,1,1.77,1.4Z"/><path class="cls-4" d="M129.7,152.39a9.23,9.23,0,0,0,2.28-3.11,9.37,9.37,0,0,0,0-7.62,9.3,9.3,0,0,0-2.28-3.1H131a10.11,10.11,0,0,1,2.08,3.22,9.82,9.82,0,0,1,0,7.38,10,10,0,0,1-2.08,3.23Z"/></g></g></svg>