<svg xmlns="http://www.w3.org/2000/svg" viewBox="0 0 185 100"><defs><style>.cls-1{fill:#fff;}.cls-2{fill:#d1d1d1;}.cls-3{fill:#1dbaea;}.cls-4{fill:#666;}</style></defs><title>area-kyuusyuu</title><g id="レイヤー_2" data-name="レイヤー 2"><g id="メインデザイン"><rect class="cls-1" x="0.5" y="0.5" width="184" height="99"/><path class="cls-2" d="M184,1V99H1V1H184m1-1H0V100H185V0Z"/><rect class="cls-3" x="168" width="17" height="100"/><path class="cls-1" d="M172,55.17V44.83L181,50Z"/><path d="M16.52,14.18A20.06,20.06,0,0,1,16,17.46a12,12,0,0,1-3.19,5.93,13.32,13.32,0,0,1-2.72,2.13,6.29,6.29,0,0,0-1.56-1.84,9.9,9.9,0,0,0,4.39-4.26,13.46,13.46,0,0,0,1.44-5.24H11.9a19.94,19.94,0,0,0-2.39.11V12a17.26,17.26,0,0,0,2.39.12h2.61c0-1,.05-1.43.05-2.28,0-.61,0-1.2-.09-1.73h2.39a15.43,15.43,0,0,0-.11,1.74c0,1,0,1.47-.08,2.27h3.16c1,0,1.65,0,2.33-.1-.07.78-.07,1.14-.09,2.17l0,8.47c0,.47.06.51.78.51.89,0,1.14-.09,1.27-.53a14.52,14.52,0,0,0,.36-3.57,5.3,5.3,0,0,0,2,.78c-.19,2.83-.4,4-.86,4.58s-1.19.72-3.09.72c-2.09,0-2.63-.34-2.63-1.66l.06-9.32Z"/><path d="M30.47,12.89a21,21,0,0,1-1.11,5.54l-1.84-.68a14.16,14.16,0,0,0,1.14-5.24Zm2.75,2a15.13,15.13,0,0,1-1.46,7.44,13.11,13.11,0,0,1-2.34,3.18,5.25,5.25,0,0,0-1.54-1.64,8.83,8.83,0,0,0,2.26-3.17A8.74,8.74,0,0,0,31,17.92a22.5,22.5,0,0,0,.27-3.32V10.32a16.47,16.47,0,0,0-.14-2.2h2.23a10.81,10.81,0,0,0-.12,2.16Zm1.69-2.36a29.07,29.07,0,0,1,1.5,4.79l-1.76.84a23,23,0,0,0-1.33-5Zm3.8-3.89a12.85,12.85,0,0,0-.11,2.16v11a20.67,20.67,0,0,0,.11,2.44H36.47a19.34,19.34,0,0,0,.11-2.46V10.85a13.2,13.2,0,0,0-.11-2.18Zm1.48,3.78a32.4,32.4,0,0,1,1.9,4.6l-1.67,1a26,26,0,0,0-1.75-4.84ZM44.3,8.1a18.26,18.26,0,0,0-.12,2.37V22.84a19.57,19.57,0,0,0,.12,2.56H42.07a19.89,19.89,0,0,0,.12-2.56V10.45a17.3,17.3,0,0,0-.12-2.35Z"/><path d="M56.5,20.64h4.59a12.93,12.93,0,0,0,2.47-.14v2.4a18.51,18.51,0,0,0-2.43-.1H49.73a18.51,18.51,0,0,0-2.43.1V20.5a12.93,12.93,0,0,0,2.47.14h4.29V12.83h-2.9a20.9,20.9,0,0,0-2.43.09V10.55a14.12,14.12,0,0,0,2.47.13h8.45a14.19,14.19,0,0,0,2.47-.13v2.37a20.79,20.79,0,0,0-2.43-.09H56.5Z"/><path d="M71.39,9a10.44,10.44,0,0,0-.07,1.71v5.24a10.09,10.09,0,0,0,.07,1.68h-2.6a13.34,13.34,0,0,0,.09-1.71V10.68A11.83,11.83,0,0,0,68.81,9ZM80,9a8.53,8.53,0,0,0-.1,1.77v2.56a22.7,22.7,0,0,1-.49,5.76,7.27,7.27,0,0,1-3.74,4.42A16.44,16.44,0,0,1,72,25a6.37,6.37,0,0,0-1.33-2.26,10.38,10.38,0,0,0,4.1-1.52c1.79-1.18,2.42-2.34,2.63-4.85.07-.82.09-1.65.09-3.17V10.81A10.79,10.79,0,0,0,77.38,9Z"/><path d="M94,13.27a7.76,7.76,0,0,0-.07,1.53c-.08,3.25-.59,5.08-1.89,6.73A11,11,0,0,1,87.14,25a6.64,6.64,0,0,0-1.5-2.17A8.7,8.7,0,0,0,89,21.17c1.93-1.54,2.54-3.17,2.54-6.77a5,5,0,0,0-.09-1.13Zm7.71-2.4A5.59,5.59,0,0,0,101,12.2,11.94,11.94,0,0,1,98,16a12.52,12.52,0,0,1-2.28,1.58A6.38,6.38,0,0,0,94,15.87a8.85,8.85,0,0,0,2.77-1.75,7.92,7.92,0,0,0,1.81-2.41h-10a19.14,19.14,0,0,0-2.58.11V9.45a15.58,15.58,0,0,0,2.62.15H98.6a5.26,5.26,0,0,0,1.84-.17Z"/><path class="cls-4" d="M10.74,41.18a14.15,14.15,0,0,1-2,1.77,2.49,2.49,0,0,0-.54-.83,12,12,0,0,0,2.67-2.4,11.15,11.15,0,0,0,1.63-2.64H9.94c-.37,0-.75,0-1.15.06v-1a10.37,10.37,0,0,0,1.12.06h.83V34.85a10.89,10.89,0,0,0-.09-1.17h1.09a6.29,6.29,0,0,0-.09,1.18v1.37h.9a3.26,3.26,0,0,0,.71,0l.43.57a5.25,5.25,0,0,0-.3.59A13.37,13.37,0,0,1,11.76,40a5.93,5.93,0,0,0,1.87,1.44,3.14,3.14,0,0,0-.46.82A7.8,7.8,0,0,1,11.65,41v4.79a11.11,11.11,0,0,0,.08,1.57H10.66a14.81,14.81,0,0,0,.08-1.57Zm2.77-7a13,13,0,0,0,1.49.08h5.53A11.78,11.78,0,0,0,22,34.23v1a11.79,11.79,0,0,0-1.43-.08H14.94a12.3,12.3,0,0,0-1.43.08Zm6.83,6.54a10.21,10.21,0,0,0,1.45-.06,13,13,0,0,0-.06,1.44v3.59a11.2,11.2,0,0,0,.09,1.54h-1v-.75H14.71v.69h-1a10.94,10.94,0,0,0,.09-1.51V42.17a13.27,13.27,0,0,0-.06-1.44c.36,0,.82,0,1.48,0ZM14.5,37.46a9.16,9.16,0,0,0-.06-1.25,9.33,9.33,0,0,0,1.41.08h3.78A10.58,10.58,0,0,0,21,36.21,10.26,10.26,0,0,0,21,37.44v1A10.24,10.24,0,0,0,21,39.66a12.61,12.61,0,0,0-1.42-.06H15.87a13.84,13.84,0,0,0-1.43.06,8.6,8.6,0,0,0,.06-1.23Zm.21,5.71h2.52V41.55H14.71Zm0,2.58h2.52V43.94H14.71Zm.68-6.91h4.66V37.07H15.39Zm2.7,4.33h2.74V41.55H18.09Zm0,2.58h2.74V43.94H18.09Z"/><path class="cls-4" d="M24.64,35.64a10.38,10.38,0,0,0-.06-1.32,11.45,11.45,0,0,0,1.46.06h9.24a9.37,9.37,0,0,0,1.35-.06,10.66,10.66,0,0,0-.06,1.37V46c0,.82-.41,1.06-1.8,1.06A13,13,0,0,1,33.16,47a3.37,3.37,0,0,0-.24-1,10.72,10.72,0,0,0,2,.18c.54,0,.71-.07.71-.36V35.24h-10V45.75a8.43,8.43,0,0,0,.08,1.47H24.55a10.28,10.28,0,0,0,.09-1.48Zm6.65,2.79a9.83,9.83,0,0,0,1.38-2.79l.9.33a12,12,0,0,1-1.37,2.46h1.46A7.81,7.81,0,0,0,35,38.36v1a8.31,8.31,0,0,0-1.33-.07H31v4.15h2.12v-2a9.77,9.77,0,0,0-.06-1.19h1A7.56,7.56,0,0,0,34,41.48v2.25A11.27,11.27,0,0,0,34,45h-.91v-.78H28.17V45.6h-.93a9.51,9.51,0,0,0,.07-1.48V41.48a8.11,8.11,0,0,0-.07-1.25h1a7.92,7.92,0,0,0-.06,1.2v2h1.95V39.26H27.61a8.64,8.64,0,0,0-1.36.07v-1a8.42,8.42,0,0,0,1.36.07ZM28.53,35.7a11.8,11.8,0,0,1,1.21,2.16l-.82.35a8.74,8.74,0,0,0-1.22-2.15Z"/><path class="cls-4" d="M43.53,44.15A8.9,8.9,0,0,1,40.06,47a3.11,3.11,0,0,0-.73-.72,7.72,7.72,0,0,0,2-1.11,6.6,6.6,0,0,0,1.47-1.54Zm2.76,1.72a8.23,8.23,0,0,0,.1,1.5H45.22a7.53,7.53,0,0,0,.11-1.5V43.05h-3.9c-.6,0-1,0-1.49.05A8.81,8.81,0,0,0,40,41.63v-5a7.4,7.4,0,0,0-.09-1.35H41A8.28,8.28,0,0,0,41,36.59v5.62h9.89a10.06,10.06,0,0,0,1.47-.07v1a8.61,8.61,0,0,0-1.46-.09H46.29Zm4.21-6a8.07,8.07,0,0,0,.08,1.41A13.63,13.63,0,0,0,49,41.18H44.26a13.59,13.59,0,0,0-1.54.06,13.69,13.69,0,0,0,.06-1.46V35.55c0-.55,0-.91-.06-1.35a12.54,12.54,0,0,0,1.63.08h4.7a11.9,11.9,0,0,0,1.53-.08,8.45,8.45,0,0,0-.08,1.41Zm-6.82-3.48h5.91V35.09H43.68Zm0,2h5.91V37.1H43.68Zm0,2h5.91V39.12H43.68Zm5.17,3.27a9.9,9.9,0,0,0,2,1.73,9.47,9.47,0,0,0,1.65.87,3.25,3.25,0,0,0-.69.78,12,12,0,0,1-3.74-2.9Z"/><path class="cls-4" d="M62.11,40.47a1.23,1.23,0,0,1-2.46,0,1.23,1.23,0,0,1,2.46,0Z"/><path class="cls-4" d="M72,45.5c0,.72,0,1.26.07,1.75H70.93A15.1,15.1,0,0,0,71,45.44v-5c0-.68,0-1.17.06-1.82A12.62,12.62,0,0,1,69.51,41a2.27,2.27,0,0,0-.65-.83,14.64,14.64,0,0,0,2.73-4.26,11.23,11.23,0,0,0,.74-2.41l1.06.33a6.62,6.62,0,0,0-.34.85A21.78,21.78,0,0,1,72,37.28Zm8.41-4.89a10.34,10.34,0,0,0,1.56-.08v1a10.15,10.15,0,0,0-1.56-.07H78.79v4.24h2.54a12.12,12.12,0,0,0,1.53-.09v1a9.93,9.93,0,0,0-1.56-.08H75a10.8,10.8,0,0,0-1.59.08v-1a12.32,12.32,0,0,0,1.59.09h2.82V41.48H75.42a16.21,16.21,0,0,1-2.27,3.37,2.63,2.63,0,0,0-.82-.64,13.1,13.1,0,0,0,2.22-3.08A18,18,0,0,0,76,37.67H74.47a10.21,10.21,0,0,0-1.59.07V36.69a10.89,10.89,0,0,0,1.59.09H76.2a17,17,0,0,0,.54-3.1l1.11.15c-.09.36-.15.57-.23,1-.21,1.06-.28,1.41-.43,2h3.93a11.54,11.54,0,0,0,1.6-.09v1.05a14.57,14.57,0,0,0-1.59-.07h-4.2a18.79,18.79,0,0,1-1.09,2.94Z"/><path class="cls-4" d="M90.06,34.89c.45,0,.78,0,1.14,0,0,.16,0,.4-.11,1.14-.16,2-.34,2.28-1.6,2.28-.35,0-.75,0-1.17-.05a2.68,2.68,0,0,0-.21-.82,9.22,9.22,0,0,0,1.23.1c.48,0,.61-.06.7-.31a7.41,7.41,0,0,0,.18-1.53H88.11A5.21,5.21,0,0,1,85,38.93a2.66,2.66,0,0,0-.66-.69c1.63-.68,2.41-1.38,2.83-2.58H86a9,9,0,0,0-1.29.06v-.9a7.88,7.88,0,0,0,1.34.07H87.4a5.13,5.13,0,0,0,.09-.84,2.21,2.21,0,0,0,0-.39h1c0,.33,0,.39-.1.86,0,.12,0,.22-.06.37Zm-.51,10.85a11.75,11.75,0,0,1-4.47,1.6,2.77,2.77,0,0,0-.56-.85,10.28,10.28,0,0,0,4.26-1.31Zm5-6.78a14.41,14.41,0,0,0,1.56-.06,14.73,14.73,0,0,0-.05,1.65v2.82a13.13,13.13,0,0,0,.06,1.54c-.37,0-.94-.06-1.68-.06H88c-.73,0-1.3,0-1.66.06a13.11,13.11,0,0,0,.06-1.51V40.52c0-.65,0-1.16-.06-1.61.39,0,.87.05,1.56.05ZM87.3,40.7h7.86v-1H87.3Zm0,1.71h7.86v-1H87.3Zm0,1.71h7.86v-1H87.3Zm6-6a11.37,11.37,0,0,0-1.25.06,8.17,8.17,0,0,0,.06-1.11V35.7a9.34,9.34,0,0,0-.06-1.21,10.87,10.87,0,0,0,1.25.06h2.76a11.06,11.06,0,0,0,1.26-.06,8.89,8.89,0,0,0-.06,1.21V37a8.46,8.46,0,0,0,.06,1.17,11.38,11.38,0,0,0-1.23-.06Zm.15,7.1a11.1,11.1,0,0,0,4.47,1.26,4.43,4.43,0,0,0-.57.88,12.71,12.71,0,0,1-4.59-1.6ZM93,37.34h3.35v-2H93Z"/><path class="cls-4" d="M104.13,44.15A8.9,8.9,0,0,1,100.66,47a3.11,3.11,0,0,0-.73-.72,7.72,7.72,0,0,0,1.95-1.11,6.6,6.6,0,0,0,1.47-1.54Zm2.76,1.72a8.23,8.23,0,0,0,.1,1.5h-1.17a7.53,7.53,0,0,0,.11-1.5V43.05H102c-.6,0-1,0-1.49.05a8.81,8.81,0,0,0,.08-1.47v-5a7.4,7.4,0,0,0-.09-1.35h1.11a8.28,8.28,0,0,0-.08,1.34v5.62h9.89a10.06,10.06,0,0,0,1.47-.07v1a8.61,8.61,0,0,0-1.46-.09h-4.57Zm4.21-6a8.07,8.07,0,0,0,.08,1.41,13.63,13.63,0,0,0-1.58-.06h-4.74a13.59,13.59,0,0,0-1.54.06,13.69,13.69,0,0,0,.06-1.46V35.55c0-.55,0-.91-.06-1.35a12.54,12.54,0,0,0,1.63.08h4.7a11.9,11.9,0,0,0,1.53-.08,8.45,8.45,0,0,0-.08,1.41Zm-6.82-3.48h5.91V35.09h-5.91Zm0,2h5.91V37.1h-5.91Zm0,2h5.91V39.12h-5.91Zm5.17,3.27a9.9,9.9,0,0,0,2,1.73,9.47,9.47,0,0,0,1.65.87,3.25,3.25,0,0,0-.69.78,12,12,0,0,1-3.74-2.9Z"/><path class="cls-4" d="M122.71,40.47a1.23,1.23,0,0,1-2.46,0,1.23,1.23,0,1,1,2.46,0Z"/><path class="cls-4" d="M136.33,41.28a6.58,6.58,0,0,0,1.94,2.3,9.92,9.92,0,0,0,2.34-2.13l.88.54-.27.24s-.09.09-.16.16a12.61,12.61,0,0,1-2.13,1.68A13.36,13.36,0,0,0,143.49,46a4.5,4.5,0,0,0-.53,1,13.1,13.1,0,0,1-5.32-2.73,8.44,8.44,0,0,1-2.28-3h-1.82v4.16a27.2,27.2,0,0,0,3.29-1l0,.91a45.65,45.65,0,0,1-5.7,1.65c-.21.06-.36.11-.65.18l-.31-1a13.08,13.08,0,0,0,2.37-.43v-4.4H131.4a10.53,10.53,0,0,0-1.49.09v-1a9.59,9.59,0,0,0,1.49.09h1.17V35.82a12.74,12.74,0,0,0-.06-1.48,10.7,10.7,0,0,0,1.56.07h6.39a7.7,7.7,0,0,0,1.6-.09v1a11.6,11.6,0,0,0-1.59-.08h-6.93v1.16H140a9.65,9.65,0,0,0,1.45-.08v1a10.32,10.32,0,0,0-1.45-.09h-6.47V38.4H140a7.91,7.91,0,0,0,1.45-.09v1a9.84,9.84,0,0,0-1.45-.09h-6.47v1.25h8.27a9.38,9.38,0,0,0,1.45-.09v1a9.26,9.26,0,0,0-1.41-.09Z"/><path class="cls-4" d="M147.42,35.46a12.32,12.32,0,0,0-.09-1.57h1.06a12.27,12.27,0,0,0-.09,1.56v8.71h1V37.61c0-.57,0-1-.07-1.49h1a10.07,10.07,0,0,0-.08,1.49v1.78h7.11a8.4,8.4,0,0,0,1.47-.09v1a7.07,7.07,0,0,0-1.2-.09v6c0,.91-.28,1.09-1.68,1.09l-1.2,0a3.08,3.08,0,0,0-.24-1,10.37,10.37,0,0,0,1.61.12c.49,0,.58-.06.58-.37V40.23h-6.45v3.84c0,.65,0,1.31.06,1.62h-.9V45h-2.88v1.49h-.94a11.89,11.89,0,0,0,.09-1.59V37.64a12.25,12.25,0,0,0-.08-1.52h1a10.75,10.75,0,0,0-.08,1.5v6.54h1Zm7.48.6a3.48,3.48,0,0,0,1.1,1.2,5.3,5.3,0,0,0,2.23,1,3.08,3.08,0,0,0-.48.85,6.24,6.24,0,0,1-2.55-1.41,3.64,3.64,0,0,1-.94-1.18A4.39,4.39,0,0,1,153,38.13a5.56,5.56,0,0,1-1.88,1,2.63,2.63,0,0,0-.57-.79c1.79-.51,2.52-1.07,3-2.24h-1.38a8.49,8.49,0,0,0-1.35.08v-1a8.7,8.7,0,0,0,1.37.09h1.56a7.38,7.38,0,0,0,.06-.89,3.4,3.4,0,0,0-.05-.63h1a6.93,6.93,0,0,0-.08.74c0,.31,0,.46-.09.78h2a10.65,10.65,0,0,0,1.53-.09v1a15,15,0,0,0-1.52-.08Zm.29,7.73c0,.57,0,.91,0,1.21-.31,0-.69,0-1.17,0H152.2v.9h-.9a8.58,8.58,0,0,0,.06-1.25V42.5c0-.51,0-.77,0-1.2a12,12,0,0,0,1.2,0H154a12,12,0,0,0,1.2,0c0,.31,0,.66,0,1.21Zm-3,.42h2.15V42.09H152.2Z"/><path class="cls-4" d="M13.23,65.15A8.9,8.9,0,0,1,9.76,68,3.11,3.11,0,0,0,9,67.32a7.72,7.72,0,0,0,2-1.11,6.6,6.6,0,0,0,1.47-1.54ZM16,66.87a8.23,8.23,0,0,0,.1,1.5H14.92a7.53,7.53,0,0,0,.11-1.5V64.05h-3.9c-.6,0-1,0-1.49,0a8.81,8.81,0,0,0,.08-1.47v-5a7.4,7.4,0,0,0-.09-1.35h1.11a8.28,8.28,0,0,0-.08,1.34v5.62h9.89A10.06,10.06,0,0,0,22,63.14v1a8.61,8.61,0,0,0-1.46-.09H16Zm4.21-6a8.07,8.07,0,0,0,.08,1.41,13.63,13.63,0,0,0-1.58-.06H14a13.59,13.59,0,0,0-1.54.06,13.69,13.69,0,0,0,.06-1.46V56.55c0-.55,0-.91-.06-1.35a12.54,12.54,0,0,0,1.63.08h4.7a11.9,11.9,0,0,0,1.53-.08,8.45,8.45,0,0,0-.08,1.41Zm-6.82-3.48h5.91V56.09H13.38Zm0,2h5.91V58.1H13.38Zm0,2h5.91V60.12H13.38Zm5.17,3.27a9.9,9.9,0,0,0,2,1.73,9.47,9.47,0,0,0,1.65.87,3.25,3.25,0,0,0-.69.78,12,12,0,0,1-3.74-2.9Z"/><path class="cls-4" d="M31.81,61.47a1.23,1.23,0,0,1-2.46,0,1.23,1.23,0,0,1,2.46,0Z"/><path class="cls-4" d="M46.17,59.33a12,12,0,0,0,2.44,4.83,10.67,10.67,0,0,0,4.07,2.92,4.2,4.2,0,0,0-.66,1,11.79,11.79,0,0,1-6.3-7.41,9.38,9.38,0,0,1-2.93,5.38,11.49,11.49,0,0,1-3.24,2,3.11,3.11,0,0,0-.64-.91,9.44,9.44,0,0,0,3.94-2.63,9.24,9.24,0,0,0,2.09-5.23H40.86a9.62,9.62,0,0,0-1.65.1V58.26a8.6,8.6,0,0,0,1.68.11H45c0-.72.06-1.19.06-1.77A11.29,11.29,0,0,0,45,55h1.23a9.54,9.54,0,0,0-.1,1.56c0,.77,0,1.2-.08,1.85h4.55a8.7,8.7,0,0,0,1.66-.11v1.17a10.43,10.43,0,0,0-1.65-.1Z"/><path class="cls-4" d="M59.77,55.16a4.92,4.92,0,0,0-.42.76,14.85,14.85,0,0,1-4.72,5.63,3.24,3.24,0,0,0-.74-.81A12.33,12.33,0,0,0,58,56.34a4.84,4.84,0,0,0,.65-1.57ZM58.32,61a12.22,12.22,0,0,0-1.55.09V60a11.62,11.62,0,0,0,1.56.09h4.94A11.11,11.11,0,0,0,64.84,60a8.2,8.2,0,0,0-.06,1.07c0,2.91-.28,5.44-.67,6.15-.26.45-.62.6-1.49.6-.49,0-1,0-2-.12a4.42,4.42,0,0,0-.24-1.07,11.1,11.1,0,0,0,2.11.26c.48,0,.65-.09.75-.38a21,21,0,0,0,.5-5.55h-3.5a8.5,8.5,0,0,1-1.17,3.95,8.87,8.87,0,0,1-3.78,3.27,2.88,2.88,0,0,0-.66-.84,7.63,7.63,0,0,0,3.78-3.29A7.1,7.1,0,0,0,59.26,61ZM63,54.8a6.35,6.35,0,0,0,.57,1.26A12.55,12.55,0,0,0,68,60.72a3.74,3.74,0,0,0-.71.92,15.22,15.22,0,0,1-5-6L62,55.19Z"/><path class="cls-4" d="M73.83,65.15A8.9,8.9,0,0,1,70.36,68a3.11,3.11,0,0,0-.73-.72,7.72,7.72,0,0,0,2-1.11,6.6,6.6,0,0,0,1.47-1.54Zm2.76,1.72a8.23,8.23,0,0,0,.1,1.5H75.52a7.53,7.53,0,0,0,.11-1.5V64.05h-3.9c-.6,0-1,0-1.49,0a8.81,8.81,0,0,0,.08-1.47v-5a7.4,7.4,0,0,0-.09-1.35h1.11a8.28,8.28,0,0,0-.08,1.34v5.62h9.89a10.06,10.06,0,0,0,1.47-.07v1a8.61,8.61,0,0,0-1.46-.09H76.59Zm4.21-6a8.07,8.07,0,0,0,.08,1.41,13.63,13.63,0,0,0-1.58-.06H74.56a13.59,13.59,0,0,0-1.54.06,13.69,13.69,0,0,0,.06-1.46V56.55c0-.55,0-.91-.06-1.35a12.54,12.54,0,0,0,1.63.08h4.7a11.9,11.9,0,0,0,1.53-.08,8.45,8.45,0,0,0-.08,1.41ZM74,57.35h5.91V56.09H74Zm0,2h5.91V58.1H74Zm0,2h5.91V60.12H74Zm5.17,3.27a9.9,9.9,0,0,0,2,1.73,9.47,9.47,0,0,0,1.65.87,3.25,3.25,0,0,0-.69.78,12,12,0,0,1-3.74-2.9Z"/><path class="cls-4" d="M92.41,61.47a1.23,1.23,0,1,1-2.46,0,1.23,1.23,0,1,1,2.46,0Z"/><path class="cls-4" d="M99.57,57c.22,0,.48,0,.84,0h.43a9,9,0,0,0,1.22-2.36l1,.27c-.29.54-.84,1.44-1.25,2.06,1.26-.05,1.76-.08,3-.2a13.59,13.59,0,0,0-1-1.12l.69-.41a20.93,20.93,0,0,1,2,2.51l-.74.49c-.25-.42-.3-.49-.51-.81-2,.24-2.4.27-4.77.41-.27,0-.6,0-.82.07Zm.07,10.44a5.38,5.38,0,0,0,1.92-2.55l.86.38a7.94,7.94,0,0,1-2,2.8Zm1.76-4.35a8.45,8.45,0,0,0,.07,1.44h-1a10.09,10.09,0,0,0,.07-1.54V59.67a12,12,0,0,0,0-1.23,12.47,12.47,0,0,0,1.33.05h2.6a9.05,9.05,0,0,0,1.27-.06,12.91,12.91,0,0,0-.06,1.5v3.36c0,.88-.27,1.11-1.33,1.11-.35,0-.72,0-1.14-.06a2,2,0,0,0-.21-.81,11.57,11.57,0,0,0,1.26.12c.49,0,.58-.06.58-.38v-.81h-3.4Zm3.4-3v-.9h-3.4v.9Zm0,1.65v-.95h-3.4v.95ZM104.16,68a12.86,12.86,0,0,0-.33-2.85l.85-.12a14.29,14.29,0,0,1,.45,2.85Zm3.63-6.69a11.55,11.55,0,0,0,3.72-1.29l.69.76c-.09,0-.2.08-.32.11l-.52.21a20.16,20.16,0,0,1-3.57,1V63c0,.4.24.46,1.83.46,1.32,0,1.72,0,1.92-.19s.25-.54.3-1.49a2.52,2.52,0,0,0,.88.38c-.18,2-.36,2.13-3.09,2.13a6.16,6.16,0,0,1-2.32-.26.74.74,0,0,1-.41-.78V61a4.52,4.52,0,0,0-.09-1.11h1.07a4.22,4.22,0,0,0-.09,1.08ZM107.62,68a11.87,11.87,0,0,0-.81-2.79l.84-.21a14.76,14.76,0,0,1,.92,2.77Zm.23-11.45a18.22,18.22,0,0,0,3.07-.94,3.79,3.79,0,0,0,.78-.42l.71.73a21.64,21.64,0,0,1-4.56,1.4v.76c0,.42.24.48,1.84.48,1.28,0,1.68-.06,1.85-.25s.22-.59.25-1.47a2.92,2.92,0,0,0,.89.4,4,4,0,0,1-.26,1.37c-.31.66-.7.76-2.68.76-2.27,0-2.78-.19-2.78-1v-2.4a4.3,4.3,0,0,0-.09-1.11h1.07a4,4,0,0,0-.09,1.05ZM112,68.21a11.84,11.84,0,0,0-1.94-2.93l.78-.43a16.93,16.93,0,0,1,2,2.8Z"/><path class="cls-4" d="M116.67,58.26a14.67,14.67,0,0,0-1.65.09V57.26a11.89,11.89,0,0,0,1.65.1h4.2V56.09a8,8,0,0,0-.11-1.37H122a7.61,7.61,0,0,0-.11,1.35v1.29h4.43a10.51,10.51,0,0,0,1.68-.1v1.09a16.19,16.19,0,0,0-1.68-.09h-4a15.59,15.59,0,0,0,6.18,6.48,3.87,3.87,0,0,0-.69,1,16.53,16.53,0,0,1-3.12-2.63,14.17,14.17,0,0,1-2.81-4.21c0,.9.06,1.45.06,1.95v3.4h1.64a8.94,8.94,0,0,0,1.45-.07v1a7.79,7.79,0,0,0-1.48-.09h-1.61v1.42a10.53,10.53,0,0,0,.11,1.73h-1.19a11.23,11.23,0,0,0,.11-1.74V65.12h-1.44a8,8,0,0,0-1.52.09v-1a9.21,9.21,0,0,0,1.49.07h1.47v-3.4c0-.56,0-1.13.06-1.94a14,14,0,0,1-2.84,4.34,16.09,16.09,0,0,1-2.85,2.52,2.71,2.71,0,0,0-.7-.89,13.66,13.66,0,0,0,3.51-3,16.28,16.28,0,0,0,2.44-3.56Z"/><path class="cls-4" d="M134.43,65.15A8.9,8.9,0,0,1,131,68a3.11,3.11,0,0,0-.73-.72,7.72,7.72,0,0,0,2-1.11,6.6,6.6,0,0,0,1.47-1.54Zm2.76,1.72a8.23,8.23,0,0,0,.1,1.5h-1.17a7.53,7.53,0,0,0,.11-1.5V64.05h-3.9c-.6,0-1,0-1.49,0a8.81,8.81,0,0,0,.08-1.47v-5a7.4,7.4,0,0,0-.09-1.35h1.11a8.28,8.28,0,0,0-.08,1.34v5.62h9.89a10.06,10.06,0,0,0,1.47-.07v1a8.61,8.61,0,0,0-1.46-.09h-4.57Zm4.21-6a8.07,8.07,0,0,0,.08,1.41,13.63,13.63,0,0,0-1.58-.06h-4.74a13.59,13.59,0,0,0-1.54.06,13.69,13.69,0,0,0,.06-1.46V56.55c0-.55,0-.91-.06-1.35a12.54,12.54,0,0,0,1.63.08H140a11.9,11.9,0,0,0,1.53-.08,8.45,8.45,0,0,0-.08,1.41Zm-6.82-3.48h5.91V56.09h-5.91Zm0,2h5.91V58.1h-5.91Zm0,2h5.91V60.12h-5.91Zm5.17,3.27a9.9,9.9,0,0,0,2,1.73,9.47,9.47,0,0,0,1.65.87,3.25,3.25,0,0,0-.69.78,12,12,0,0,1-3.74-2.9Z"/><path class="cls-4" d="M153,61.47a1.23,1.23,0,0,1-2.46,0,1.23,1.23,0,1,1,2.46,0Z"/><path class="cls-4" d="M14.83,76.59a4.42,4.42,0,0,0-.1-.94h1.18a4,4,0,0,0-.1.93v.51h4.42c.68,0,1,0,1.5-.06a7.16,7.16,0,0,0-.06,1v1.08a7.73,7.73,0,0,0,.06,1.05h-1V77.94H10.2v2.24h-1a8,8,0,0,0,.06-1.07V78.05a7.26,7.26,0,0,0-.06-1c.46,0,.84.06,1.51.06h4.11Zm-1.93,6.2a12,12,0,0,0-1.61.06,7.32,7.32,0,0,0,.06-1.19V80.31a11.28,11.28,0,0,0,0-1.14,9.85,9.85,0,0,0,1.44.08h5.47a9.85,9.85,0,0,0,1.44-.08,7.82,7.82,0,0,0-.06,1.16v1.33a8.3,8.3,0,0,0,.06,1.19,13.6,13.6,0,0,0-1.6-.06H15.79c-.19.55-.43,1.15-.64,1.6h4.09a11.2,11.2,0,0,0,1.44-.06,9.5,9.5,0,0,0-.07,1.41v2.09a10.08,10.08,0,0,0,.09,1.42h-1v-.72H11.31v.72h-1a10.39,10.39,0,0,0,.09-1.42V85.74a9.27,9.27,0,0,0-.07-1.41,11.32,11.32,0,0,0,1.42.06h2.46a10.26,10.26,0,0,0,.63-1.6Zm-1.59,4.9h8.35V85.22H11.31Zm1-5.68h6.42V80H12.27Z"/><path class="cls-4" d="M26.22,77.46a12.32,12.32,0,0,0-.09-1.57h1.06a12.27,12.27,0,0,0-.09,1.56v8.71h1V79.61c0-.57,0-1-.07-1.49h1a10.07,10.07,0,0,0-.08,1.49v1.78H36a8.4,8.4,0,0,0,1.47-.09v1a7.07,7.07,0,0,0-1.2-.09v6c0,.91-.28,1.09-1.68,1.09l-1.2,0a3.08,3.08,0,0,0-.24-1,10.37,10.37,0,0,0,1.61.12c.49,0,.58-.06.58-.37V82.23H28.93v3.84c0,.65,0,1.31.06,1.62h-.9V87H25.21v1.49h-.94a11.89,11.89,0,0,0,.09-1.59V79.64a12.25,12.25,0,0,0-.08-1.52h1a10.75,10.75,0,0,0-.08,1.5v6.54h1Zm7.48.6a3.48,3.48,0,0,0,1.1,1.2,5.3,5.3,0,0,0,2.23,1,3.08,3.08,0,0,0-.48.85A6.24,6.24,0,0,1,34,79.68a3.64,3.64,0,0,1-.94-1.18,4.39,4.39,0,0,1-1.29,1.63,5.56,5.56,0,0,1-1.88,1,2.63,2.63,0,0,0-.57-.79c1.79-.51,2.52-1.07,3-2.24H30.94a8.49,8.49,0,0,0-1.35.08v-1a8.7,8.7,0,0,0,1.37.09h1.56a7.38,7.38,0,0,0,.06-.89,3.4,3.4,0,0,0,0-.63h1a6.93,6.93,0,0,0-.08.74c0,.31,0,.46-.09.78h2a10.65,10.65,0,0,0,1.53-.09v1a15,15,0,0,0-1.52-.08ZM34,85.79c0,.57,0,.91,0,1.21-.31,0-.69,0-1.17,0H31v.9h-.9a8.58,8.58,0,0,0,.06-1.25V84.5c0-.51,0-.77,0-1.2a12,12,0,0,0,1.2,0h1.51a12,12,0,0,0,1.2,0c0,.31,0,.66,0,1.21Zm-3,.42h2.15V84.09H31Z"/><path class="cls-4" d="M43.53,86.15A8.9,8.9,0,0,1,40.06,89a3.11,3.11,0,0,0-.73-.72,7.72,7.72,0,0,0,2-1.11,6.6,6.6,0,0,0,1.47-1.54Zm2.76,1.72a8.23,8.23,0,0,0,.1,1.5H45.22a7.53,7.53,0,0,0,.11-1.5V85.05h-3.9c-.6,0-1,0-1.49,0A8.81,8.81,0,0,0,40,83.63v-5a7.4,7.4,0,0,0-.09-1.35H41A8.28,8.28,0,0,0,41,78.59v5.62h9.89a10.06,10.06,0,0,0,1.47-.07v1a8.61,8.61,0,0,0-1.46-.09H46.29Zm4.21-6a8.07,8.07,0,0,0,.08,1.41A13.63,13.63,0,0,0,49,83.18H44.26a13.59,13.59,0,0,0-1.54.06,13.69,13.69,0,0,0,.06-1.46V77.55c0-.55,0-.91-.06-1.35a12.54,12.54,0,0,0,1.63.08h4.7a11.9,11.9,0,0,0,1.53-.08,8.45,8.45,0,0,0-.08,1.41Zm-6.82-3.48h5.91V77.09H43.68Zm0,2h5.91V79.1H43.68Zm0,2h5.91V81.12H43.68Zm5.17,3.27a9.9,9.9,0,0,0,2,1.73,9.47,9.47,0,0,0,1.65.87,3.25,3.25,0,0,0-.69.78,12,12,0,0,1-3.74-2.9Z"/><path class="cls-4" d="M62.11,82.47a1.23,1.23,0,0,1-2.46,0,1.23,1.23,0,1,1,2.46,0Z"/><path class="cls-4" d="M80.71,79.17a7,7,0,0,0,1.11-.06,8.38,8.38,0,0,0-.06,1v1.52a8,8,0,0,0,.06,1,7.87,7.87,0,0,0-1.18-.06H71.2c-.16,3.36-.48,4.81-1.42,6.57a2.66,2.66,0,0,0-.77-.72,7.47,7.47,0,0,0,1-3.15,51,51,0,0,0,.28-6.86,17.1,17.1,0,0,0-.06-1.72,12.37,12.37,0,0,0,1.67.07h3.93v-.19a4.29,4.29,0,0,0-.09-1H76.9a3.75,3.75,0,0,0-.09,1v.18h4.32a11.05,11.05,0,0,0,1.55-.09v1a9.36,9.36,0,0,0-1.49-.07h-3v1.48Zm-5.34,5.34a7,7,0,0,0,1.25-.07v1a6.69,6.69,0,0,0-1.25-.08H73.6v2.36a27.9,27.9,0,0,0,3-.81v.82a38.31,38.31,0,0,1-4.5,1.22,6,6,0,0,0-.84.21l-.27-1a10.47,10.47,0,0,0,1.73-.23V84.32a5.8,5.8,0,0,0-.08-1.19h1.07a6.52,6.52,0,0,0-.08,1.19v.19ZM74,80H71.26l0,1.89H74Zm0-2.29h-2.7v1.48H74Zm3.39,0H74.85v1.48h2.52Zm0,4.18V80H74.85v1.89Zm1,3.14a11.4,11.4,0,0,0,3.54-1.52l.68.75-.69.33a21.69,21.69,0,0,1-3.53,1.26v1.74c0,.42.18.47,1.7.47s1.71-.05,1.84-1.8a3.55,3.55,0,0,0,.9.39c-.27,2-.54,2.23-2.83,2.23a8.67,8.67,0,0,1-1.79-.12.75.75,0,0,1-.73-.88V84.3a7.29,7.29,0,0,0-.08-1.17h1.07a6.19,6.19,0,0,0-.08,1.19Zm2.55-3.14V80H78.24v1.89Z"/><path class="cls-4" d="M89.65,83.69a4.54,4.54,0,0,0-.09.61A5.69,5.69,0,0,1,88.87,87a4.91,4.91,0,0,1-2.07,1.8,9.61,9.61,0,0,1-1.81.69,3.62,3.62,0,0,0-.62-.89,7.88,7.88,0,0,0,2.31-.84,3.64,3.64,0,0,0,1.89-3.45,6.6,6.6,0,0,0,0-.69Zm-3.87-.27a11.92,11.92,0,0,0,.09-1.68v-4.1A12,12,0,0,0,85.78,76h1.14a10.62,10.62,0,0,0-.09,1.59v4.21a10.11,10.11,0,0,0,.09,1.61Zm10.7-1.8a10.8,10.8,0,0,0,.07,1.47A12.94,12.94,0,0,0,94.89,83h-4a13.21,13.21,0,0,0-1.67.08,12.11,12.11,0,0,0,.08-1.58V77.72a11.44,11.44,0,0,0-.08-1.55,12.48,12.48,0,0,0,1.65.08h4a13.1,13.1,0,0,0,1.71-.08,8.79,8.79,0,0,0-.07,1.46Zm-6.32-2.48h5.39v-2H90.16Zm0,3h5.39V80H90.16Zm2.7,5.46c0,.39.27.47,1.73.47,1.71,0,2-.09,2.16-.56a7.23,7.23,0,0,0,.16-1.74V85.4a5.73,5.73,0,0,0,1,.39,4.9,4.9,0,0,1-.5,2.65c-.3.41-1,.53-3,.53a6.76,6.76,0,0,1-2-.18c-.38-.15-.48-.33-.48-.87V85.1a9,9,0,0,0-.09-1.44h1.11a7.78,7.78,0,0,0-.08,1.41Z"/><path class="cls-4" d="M104.11,85.08h-1.29c-.66,0-.82,0-1.24,0a12.32,12.32,0,0,0,.06-1.35V78.18c0-.45,0-.81-.06-1.17a7.69,7.69,0,0,0,1.2.06h1.68a7.77,7.77,0,0,0,.72-1.5l1,.2a14.57,14.57,0,0,1-.72,1.3h3.67a8,8,0,0,0,1.23-.06,6.22,6.22,0,0,0,0,.95v2.49c0,.39,0,.7,0,1-.45,0-.76,0-1.17,0h-6.61v1h8.77a9,9,0,0,0,1.41-.09v1a12.35,12.35,0,0,0-1.44-.08h-8.74V84.3h8.59a7.78,7.78,0,0,0,1.19-.06c0,.14,0,.38-.11.84a10.84,10.84,0,0,1-.7,3.45c-.29.42-.69.57-1.58.57-.42,0-.66,0-1.14,0a3,3,0,0,0-.22-1,9.6,9.6,0,0,0,1.47.14c.49,0,.67-.11.79-.5a16,16,0,0,0,.45-2.67H105v2h2.82v-.74a4.43,4.43,0,0,0-.06-.84h1a5.17,5.17,0,0,0-.06.9v.75a6.52,6.52,0,0,0,0,.78h-.56a4.27,4.27,0,0,0-.52,0h-6.23v.69h-1a7.43,7.43,0,0,0,.09-1.18v-.95a4.25,4.25,0,0,0-.08-.9h1a4.21,4.21,0,0,0,0,.84v.68h2.64Zm5.25-6.22v-1h-6.79v1Zm-6.79,1.81h6.79V79.59h-6.79Z"/><path class="cls-4" d="M119.28,86.15A8.9,8.9,0,0,1,115.81,89a3.11,3.11,0,0,0-.73-.72,7.72,7.72,0,0,0,2-1.11,6.6,6.6,0,0,0,1.47-1.54ZM122,87.87a8.23,8.23,0,0,0,.1,1.5H121a7.53,7.53,0,0,0,.11-1.5V85.05h-3.9c-.6,0-1,0-1.49,0a8.81,8.81,0,0,0,.08-1.47v-5a7.4,7.4,0,0,0-.09-1.35h1.11a8.28,8.28,0,0,0-.08,1.34v5.62h9.89a10.06,10.06,0,0,0,1.47-.07v1a8.61,8.61,0,0,0-1.46-.09H122Zm4.21-6a8.07,8.07,0,0,0,.08,1.41,13.63,13.63,0,0,0-1.58-.06H120a13.59,13.59,0,0,0-1.54.06,13.69,13.69,0,0,0,.06-1.46V77.55c0-.55,0-.91-.06-1.35a12.54,12.54,0,0,0,1.63.08h4.7a11.9,11.9,0,0,0,1.53-.08,8.45,8.45,0,0,0-.08,1.41Zm-6.82-3.48h5.91V77.09h-5.91Zm0,2h5.91V79.1h-5.91Zm0,2h5.91V81.12h-5.91Zm5.17,3.27a9.9,9.9,0,0,0,2,1.73,9.47,9.47,0,0,0,1.65.87,3.25,3.25,0,0,0-.69.78,12,12,0,0,1-3.74-2.9Z"/></g></g></svg>