<svg xmlns="http://www.w3.org/2000/svg" viewBox="0 0 185 100"><defs><style>.cls-1{fill:#fff;}.cls-2{fill:#d1d1d1;}.cls-3{fill:#0277b6;}.cls-4{fill:#666;}</style></defs><title>area-shikoku</title><g id="レイヤー_2" data-name="レイヤー 2"><g id="メインデザイン"><rect class="cls-1" x="0.25" y="0.25" width="184.5" height="99.5"/><path class="cls-2" d="M184.5.5v99H.5V.5h184M185,0H0V100H185V0Z"/><rect class="cls-3" x="168" width="17" height="100"/><path class="cls-1" d="M172,55.17V44.83L181,50Z"/><path d="M9.34,11.37c0-.73,0-1.62-.11-2.3a19.26,19.26,0,0,0,2.24.09H23.4a21.05,21.05,0,0,0,2.24-.09,18.35,18.35,0,0,0-.12,2.28V22.76A12.14,12.14,0,0,0,25.64,25h-2.2V23.9h-12V25H9.23a14.06,14.06,0,0,0,.11-2.22ZM11.45,22h12V11.08H20.21v5.83c0,.4,0,.44.43.44s.53-.1.59-.27a11.24,11.24,0,0,0,.15-2.35,6.49,6.49,0,0,0,1.79.68c-.11,2.19-.21,2.79-.57,3.23s-1,.61-2.41.61c-1.66,0-2-.31-2-1.63V11.08H16.29a24.93,24.93,0,0,1-.19,3.34,8.14,8.14,0,0,1-3.32,5.86,5.83,5.83,0,0,0-1.33-1.51Zm0-3.42c2.13-1.45,2.85-3.35,2.85-7.45H11.45Z"/><path d="M28.3,10.87c0-.82,0-1.52-.11-2.3a16.77,16.77,0,0,0,2.24.1h12a18.6,18.6,0,0,0,2.24-.1,18.69,18.69,0,0,0-.12,2.28v12.2a14.59,14.59,0,0,0,.12,2.45H42.49V24.42H30.35V25.5H28.19A19.28,19.28,0,0,0,28.3,23Zm2.05,11.7H42.49V10.51H30.35Zm2.85-9.08a10.22,10.22,0,0,0-1.73.1V11.67a10.12,10.12,0,0,0,1.73.09h6.46a10.31,10.31,0,0,0,1.77-.09v1.92a10.46,10.46,0,0,0-1.77-.1H37.25v2h2a8.32,8.32,0,0,0,1.63-.1v1.88a8.7,8.7,0,0,0-1.22-.09A9.1,9.1,0,0,1,40.82,19l-1,.57a10.28,10.28,0,0,0,1.87-.11v2a13.32,13.32,0,0,0-1.79-.09H33a12.07,12.07,0,0,0-1.8.09v-2a9.9,9.9,0,0,0,1.8.11h2.28V17.16H33.64a9.88,9.88,0,0,0-1.63.09V15.37a8.32,8.32,0,0,0,1.63.1h1.63v-2Zm4,6.08h2a8.14,8.14,0,0,0-1.2-1.9l1-.51H37.25Z"/><path d="M56.5,20.64h4.59a12.93,12.93,0,0,0,2.47-.14v2.4a18.51,18.51,0,0,0-2.43-.1H49.73a18.51,18.51,0,0,0-2.43.1V20.5a12.93,12.93,0,0,0,2.47.14h4.29V12.83h-2.9a20.9,20.9,0,0,0-2.43.09V10.55a14.12,14.12,0,0,0,2.47.13h8.45a14.19,14.19,0,0,0,2.47-.13v2.37a20.79,20.79,0,0,0-2.43-.09H56.5Z"/><path d="M71.39,9a10.44,10.44,0,0,0-.07,1.71v5.24a10.09,10.09,0,0,0,.07,1.68h-2.6a13.34,13.34,0,0,0,.09-1.71V10.68A11.83,11.83,0,0,0,68.81,9ZM80,9a8.53,8.53,0,0,0-.1,1.77v2.56a22.7,22.7,0,0,1-.49,5.76,7.27,7.27,0,0,1-3.74,4.42A16.44,16.44,0,0,1,72,25a6.37,6.37,0,0,0-1.33-2.26,10.38,10.38,0,0,0,4.1-1.52c1.79-1.18,2.42-2.34,2.63-4.85.07-.82.09-1.65.09-3.17V10.81A10.79,10.79,0,0,0,77.38,9Z"/><path d="M94,13.27a7.76,7.76,0,0,0-.07,1.53c-.08,3.25-.59,5.08-1.89,6.73A11,11,0,0,1,87.14,25a6.64,6.64,0,0,0-1.5-2.17A8.7,8.7,0,0,0,89,21.17c1.93-1.54,2.54-3.17,2.54-6.77a5,5,0,0,0-.09-1.13Zm7.71-2.4A5.59,5.59,0,0,0,101,12.2,11.94,11.94,0,0,1,98,16a12.52,12.52,0,0,1-2.28,1.58A6.38,6.38,0,0,0,94,15.87a8.85,8.85,0,0,0,2.77-1.75,7.92,7.92,0,0,0,1.81-2.41h-10a19.14,19.14,0,0,0-2.58.11V9.45a15.58,15.58,0,0,0,2.62.15H98.6a5.26,5.26,0,0,0,1.84-.17Z"/><path class="cls-4" d="M10.23,41.91c0-.6,0-1.06,0-1.77a7.45,7.45,0,0,1-1.42,1.59,2.64,2.64,0,0,0-.54-.84,10.27,10.27,0,0,0,2.53-2.8,6.78,6.78,0,0,0,.68-1.35l.85.52c-.1.15-.21.33-.42.68a11.21,11.21,0,0,1-.81,1.23v6.27a11.92,11.92,0,0,0,.08,1.8H10.14a12.7,12.7,0,0,0,.09-1.74Zm2.23-7.8-.43.51A14.31,14.31,0,0,1,9.1,37.34a2.36,2.36,0,0,0-.6-.77,9.55,9.55,0,0,0,1.74-1.32,6.29,6.29,0,0,0,1.37-1.71ZM11.77,46a7.87,7.87,0,0,0,1.38-3.39l.86.32a11.94,11.94,0,0,1-1.43,3.63Zm8.4-8.52a9.6,9.6,0,0,0,1.37-.06,6.76,6.76,0,0,0-.06,1.1v1.77a5.29,5.29,0,0,0,.06,1,10,10,0,0,0-1.35-.06H14.13c-.53,0-.9,0-1.29,0a8.12,8.12,0,0,0,0-.94V38.45a9.23,9.23,0,0,0,0-1c.39,0,.73,0,1.23,0h2.55V36H13.9a12.77,12.77,0,0,0-1.44.06v-1a10.28,10.28,0,0,0,1.49.07h2.67V34.7a4.71,4.71,0,0,0-.08-1h1.05a4.67,4.67,0,0,0-.07,1v.48h3.09a10,10,0,0,0,1.51-.07v1A10.39,10.39,0,0,0,20.65,36H17.52v1.45Zm-6.4,3h1.72V38.24H13.77Zm2,5.25c0,.36.27.43,1.59.43,1.78,0,1.86-.07,1.93-2a2.82,2.82,0,0,0,.87.35c-.18,1.47-.33,2-.67,2.19a5.08,5.08,0,0,1-2.37.31c-1.8,0-2.27-.21-2.27-1V43.7a7.37,7.37,0,0,0-.09-1.23h1.1a5.33,5.33,0,0,0-.09,1.2ZM18,44.24a8.92,8.92,0,0,0-1.89-2.13l.66-.5a11.3,11.3,0,0,1,2,2Zm-1.71-3.78H18V38.24H16.33Zm2.52,0h1.74V38.24H18.85Zm2.78,5.88a13.7,13.7,0,0,0-1.79-3.44l.77-.4a20,20,0,0,1,1.84,3.33Z"/><path class="cls-4" d="M28.36,43.08H27.07c-.66,0-.82,0-1.24,0a12.32,12.32,0,0,0,.06-1.35V36.18c0-.45,0-.81-.06-1.17a7.69,7.69,0,0,0,1.2.06h1.68a7.77,7.77,0,0,0,.72-1.5l1,.2a14.57,14.57,0,0,1-.72,1.3h3.67A8,8,0,0,0,34.6,35a6.22,6.22,0,0,0,0,1v2.49c0,.39,0,.7,0,1-.45,0-.76,0-1.17,0H26.82v1h8.77A9,9,0,0,0,37,40.34v1a12.35,12.35,0,0,0-1.44-.08H26.82V42.3h8.59a7.78,7.78,0,0,0,1.19-.06c0,.14-.05.38-.11.84a10.84,10.84,0,0,1-.7,3.45c-.29.42-.69.57-1.58.57-.42,0-.66,0-1.14,0a3,3,0,0,0-.22-1,9.6,9.6,0,0,0,1.47.14c.49,0,.67-.11.79-.5a16,16,0,0,0,.45-2.67H29.29v2h2.82v-.74a4.43,4.43,0,0,0-.06-.84h1a5.17,5.17,0,0,0-.06.9v.75a6.52,6.52,0,0,0,0,.78h-.56a4.27,4.27,0,0,0-.52,0H25.72v.69h-1a7.43,7.43,0,0,0,.09-1.18v-1a4.25,4.25,0,0,0-.08-.9h1a4.21,4.21,0,0,0-.05.84v.68h2.64Zm5.25-6.22v-1H26.82v1Zm-6.79,1.81h6.79V37.59H26.82Z"/><path class="cls-4" d="M43.53,44.15A8.9,8.9,0,0,1,40.06,47a3.11,3.11,0,0,0-.73-.72,7.72,7.72,0,0,0,2-1.11,6.6,6.6,0,0,0,1.47-1.54Zm2.76,1.72a8.23,8.23,0,0,0,.1,1.5H45.22a7.53,7.53,0,0,0,.11-1.5V43.05h-3.9c-.6,0-1,0-1.49.05A8.81,8.81,0,0,0,40,41.63v-5a7.4,7.4,0,0,0-.09-1.35H41A8.28,8.28,0,0,0,41,36.59v5.62h9.89a10.06,10.06,0,0,0,1.47-.07v1a8.61,8.61,0,0,0-1.46-.09H46.29Zm4.21-6a8.07,8.07,0,0,0,.08,1.41A13.63,13.63,0,0,0,49,41.18H44.26a13.59,13.59,0,0,0-1.54.06,13.69,13.69,0,0,0,.06-1.46V35.55c0-.55,0-.91-.06-1.35a12.54,12.54,0,0,0,1.63.08h4.7a11.9,11.9,0,0,0,1.53-.08,8.45,8.45,0,0,0-.08,1.41Zm-6.82-3.48h5.91V35.09H43.68Zm0,2h5.91V37.1H43.68Zm0,2h5.91V39.12H43.68Zm5.17,3.27a9.9,9.9,0,0,0,2,1.73,9.47,9.47,0,0,0,1.65.87,3.25,3.25,0,0,0-.69.78,12,12,0,0,1-3.74-2.9Z"/><path class="cls-4" d="M62.11,40.47a1.23,1.23,0,0,1-2.46,0,1.23,1.23,0,0,1,2.46,0Z"/><path class="cls-4" d="M75.42,34.62a5.53,5.53,0,0,0-.09-1h1.14a5.27,5.27,0,0,0-.09,1v.3h4.68a10.38,10.38,0,0,0,1.48-.09v1a11,11,0,0,0-1.48-.08H71a11,11,0,0,0-1.48.08v-1a10.44,10.44,0,0,0,1.51.09h4.43ZM70,42a11.47,11.47,0,0,0-.06-1.35,12.76,12.76,0,0,0,1.49.06h9.3a10.65,10.65,0,0,0,1.45-.06c0,.47-.06.8-.06,1.32v4c0,.51-.09.76-.34.93s-.5.21-1.29.21c-.35,0-.44,0-1.4-.05a3.08,3.08,0,0,0-.19-.93,11.54,11.54,0,0,0,1.69.14c.54,0,.62,0,.62-.35V41.51H70.9v4.32A9.92,9.92,0,0,0,71,47.36H69.88A10.89,10.89,0,0,0,70,45.84Zm2-4.21c0-.48,0-.83,0-1.14a13.19,13.19,0,0,0,1.43.06h5.56a11.32,11.32,0,0,0,1.28-.06c0,.43,0,.64,0,1.15v.81a6.84,6.84,0,0,0,0,1.17,12.93,12.93,0,0,0-1.38-.06H73.27c-.57,0-.87,0-1.35.06a10.56,10.56,0,0,0,0-1.17ZM72.88,39h6.35V37.49H72.88ZM79,44.43a9,9,0,0,0,0,1.07c-.39,0-.86,0-1.38,0H73.86v.83h-1A8.05,8.05,0,0,0,73,45v-1.5a10.38,10.38,0,0,0,0-1.09c.35,0,.66,0,1.22,0h3.6c.57,0,.93,0,1.32,0a8.57,8.57,0,0,0,0,1Zm-5.16.27h4.29V43.23H73.84Z"/><path class="cls-4" d="M86.55,36.65a10.46,10.46,0,0,1-1.4,2.2,2,2,0,0,0-.73-.66,7.67,7.67,0,0,0,2-3.75,3.75,3.75,0,0,0,.14-.82l1,.16c-.09.24-.12.36-.26.81a9.18,9.18,0,0,1-.39,1.19h2.72a8.4,8.4,0,0,0,1.47-.09v1c-.47,0-1-.07-1.47-.07h-1c0,1.62,0,1.8-.11,2.8h1.28a8.78,8.78,0,0,0,1.42-.09v1a9.13,9.13,0,0,0-1.42-.09H88.5c0,.35-.06.53-.12.89a9.08,9.08,0,0,0,2.85,3.42,2.83,2.83,0,0,0-.6.9,11.73,11.73,0,0,1-2.52-3.18,7.89,7.89,0,0,1-3,4.32,2.66,2.66,0,0,0-.75-.78,7,7,0,0,0,3.22-5.57H86.22a9.71,9.71,0,0,0-1.59.09v-1a8.63,8.63,0,0,0,1.62.09h1.42c.06-.82.08-1.14.09-2.8Zm6.16,10.08h-1A13.34,13.34,0,0,0,91.77,45V36.69a13,13,0,0,0-.09-1.57,8.36,8.36,0,0,0,1.35.07h3a8.5,8.5,0,0,0,1.35-.07,11.2,11.2,0,0,0-.08,1.57v8.22a14.94,14.94,0,0,0,.09,1.82h-1V45.66H92.71Zm0-1.94h3.63V36.06H92.71Z"/><path class="cls-4" d="M104.13,44.15A8.9,8.9,0,0,1,100.66,47a3.11,3.11,0,0,0-.73-.72,7.72,7.72,0,0,0,1.95-1.11,6.6,6.6,0,0,0,1.47-1.54Zm2.76,1.72a8.23,8.23,0,0,0,.1,1.5h-1.17a7.53,7.53,0,0,0,.11-1.5V43.05H102c-.6,0-1,0-1.49.05a8.81,8.81,0,0,0,.08-1.47v-5a7.4,7.4,0,0,0-.09-1.35h1.11a8.28,8.28,0,0,0-.08,1.34v5.62h9.89a10.06,10.06,0,0,0,1.47-.07v1a8.61,8.61,0,0,0-1.46-.09h-4.57Zm4.21-6a8.07,8.07,0,0,0,.08,1.41,13.63,13.63,0,0,0-1.58-.06h-4.74a13.59,13.59,0,0,0-1.54.06,13.69,13.69,0,0,0,.06-1.46V35.55c0-.55,0-.91-.06-1.35a12.54,12.54,0,0,0,1.63.08h4.7a11.9,11.9,0,0,0,1.53-.08,8.45,8.45,0,0,0-.08,1.41Zm-6.82-3.48h5.91V35.09h-5.91Zm0,2h5.91V37.1h-5.91Zm0,2h5.91V39.12h-5.91Zm5.17,3.27a9.9,9.9,0,0,0,2,1.73,9.47,9.47,0,0,0,1.65.87,3.25,3.25,0,0,0-.69.78,12,12,0,0,1-3.74-2.9Z"/><path class="cls-4" d="M122.71,40.47a1.23,1.23,0,0,1-2.46,0,1.23,1.23,0,1,1,2.46,0Z"/><path class="cls-4" d="M136.08,35.3c-1.79.15-2.66.19-4.47.21a3,3,0,0,0-.41-.89l1.26,0a40.43,40.43,0,0,0,7.43-.69,7.09,7.09,0,0,0,1.2-.32l.7.9-.6.09c-1,.2-3.34.53-4.21.6v1.61h4.38a11.82,11.82,0,0,0,1.68-.09v1a12.86,12.86,0,0,0-1.7-.09h-3.55a13.49,13.49,0,0,0,5.65,2.94,3.91,3.91,0,0,0-.54.92A17.69,17.69,0,0,1,139.66,40a10.61,10.61,0,0,1-2.74-2.19c0,.45.06.67.06.87v.63a5,5,0,0,0,.07,1.06H136a5.28,5.28,0,0,0,.08-1.08v-.61a5.77,5.77,0,0,1,.06-.87A10.3,10.3,0,0,1,133.66,40a17.27,17.27,0,0,1-3.16,1.58,3.12,3.12,0,0,0-.57-.84,13,13,0,0,0,5.34-3.08h-3.48a12.18,12.18,0,0,0-1.64.09v-1a11.64,11.64,0,0,0,1.65.09h4.28Zm-3.9,12a10,10,0,0,0,.09-1.52V42.47c0-.84,0-1.11-.06-1.64a15.13,15.13,0,0,0,1.63.06h5.58a15,15,0,0,0,1.62-.06,15.91,15.91,0,0,0-.06,1.64v3.31a9.33,9.33,0,0,0,.09,1.52h-1v-.87h-6.84v.87Zm1-4.1h6.85V41.7H133.2Zm0,2.42h6.85V44H133.2Z"/><path class="cls-4" d="M147.82,38.25c0,4.46-.55,6.63-2.23,8.81a3.46,3.46,0,0,0-.86-.8c1.56-1.72,2.07-3.73,2.07-8v-3a8.42,8.42,0,0,0-.09-1.33h1.2a6.56,6.56,0,0,0-.09,1.36Zm4.8-3.72a9.63,9.63,0,0,0-.09,1.41v7.94a11.7,11.7,0,0,0,.09,1.69h-1.2a11.79,11.79,0,0,0,.09-1.69V35.94a8.15,8.15,0,0,0-.09-1.41Zm4.85-.57a7.11,7.11,0,0,0-.09,1.46v9.76a11.16,11.16,0,0,0,.09,1.88h-1.2a13.85,13.85,0,0,0,.09-1.88V35.42a8,8,0,0,0-.09-1.46Z"/><path class="cls-4" d="M13.23,65.15A8.9,8.9,0,0,1,9.76,68,3.11,3.11,0,0,0,9,67.32a7.72,7.72,0,0,0,2-1.11,6.6,6.6,0,0,0,1.47-1.54ZM16,66.87a8.23,8.23,0,0,0,.1,1.5H14.92a7.53,7.53,0,0,0,.11-1.5V64.05h-3.9c-.6,0-1,0-1.49,0a8.81,8.81,0,0,0,.08-1.47v-5a7.4,7.4,0,0,0-.09-1.35h1.11a8.28,8.28,0,0,0-.08,1.34v5.62h9.89A10.06,10.06,0,0,0,22,63.14v1a8.61,8.61,0,0,0-1.46-.09H16Zm4.21-6a8.07,8.07,0,0,0,.08,1.41,13.63,13.63,0,0,0-1.58-.06H14a13.59,13.59,0,0,0-1.54.06,13.69,13.69,0,0,0,.06-1.46V56.55c0-.55,0-.91-.06-1.35a12.54,12.54,0,0,0,1.63.08h4.7a11.9,11.9,0,0,0,1.53-.08,8.45,8.45,0,0,0-.08,1.41Zm-6.82-3.48h5.91V56.09H13.38Zm0,2h5.91V58.1H13.38Zm0,2h5.91V60.12H13.38Zm5.17,3.27a9.9,9.9,0,0,0,2,1.73,9.47,9.47,0,0,0,1.65.87,3.25,3.25,0,0,0-.69.78,12,12,0,0,1-3.74-2.9Z"/><path class="cls-4" d="M36.18,68.39a10.08,10.08,0,0,1-2.09-3.23,9.82,9.82,0,0,1,0-7.38,10.16,10.16,0,0,1,2.09-3.22h1.33a9.55,9.55,0,0,0-2.28,3.1,9.37,9.37,0,0,0,0,7.62,9.57,9.57,0,0,0,2.28,3.11Z"/><path class="cls-4" d="M52.33,61.92a14.33,14.33,0,0,0-2-.1H41.11a15,15,0,0,0-2,.1V60.68a14.49,14.49,0,0,0,2,.1h9.24a13.86,13.86,0,0,0,2-.1Z"/><path class="cls-4" d="M60.58,60.45a7.91,7.91,0,0,0,1.4-.07v1a10.7,10.7,0,0,0-1.37-.07h-5a8.73,8.73,0,0,0-1.43.07v-1a8.8,8.8,0,0,0,1.44.07h3.24a12.22,12.22,0,0,0,1.08-3l.92.31a16,16,0,0,1-1.11,2.67Zm-.19-4.08a8.19,8.19,0,0,0,1.39-.07v1a7.61,7.61,0,0,0-1.38-.08H55.92a7.8,7.8,0,0,0-1.35.08v-1a8.19,8.19,0,0,0,1.39.07h1.82v-.55a5.69,5.69,0,0,0-.09-1.14h1.12a6.24,6.24,0,0,0-.09,1.15v.54ZM56.13,68.21h-1a9.21,9.21,0,0,0,.06-1.35v-3a12.09,12.09,0,0,0,0-1.26,11.76,11.76,0,0,0,1.18.05h3.56A8.71,8.71,0,0,0,61,62.55a8.74,8.74,0,0,0,0,1.25V67A7.78,7.78,0,0,0,61,68.21H60v-.93H56.13Zm.25-10.71a11.79,11.79,0,0,1,1,2.49l-.87.3a10.37,10.37,0,0,0-1-2.49Zm-.25,8.94H60v-3H56.13Zm11.58-10.7a10.68,10.68,0,0,0-.62,1.34,31.57,31.57,0,0,1-1.54,3,7,7,0,0,1,1.69,2.35,5.22,5.22,0,0,1,.45,2.1,1.81,1.81,0,0,1-.76,1.68,3,3,0,0,1-1.35.23c-.41,0-.8,0-1.25-.06a2.84,2.84,0,0,0-.19-1,7.28,7.28,0,0,0,1.45.15c.86,0,1.14-.27,1.14-1.06a4.63,4.63,0,0,0-.49-2,6.18,6.18,0,0,0-1.79-2.18,22.38,22.38,0,0,0,2-4.18h-3V66.69a9,9,0,0,0,.11,1.67H62.46a11.93,11.93,0,0,0,.09-1.65V56.51c0-.45,0-.87-.06-1.38.39,0,.67,0,1.2,0H66.1a6.63,6.63,0,0,0,1.16-.06Z"/><path class="cls-4" d="M70,56.28c0-.42,0-.84,0-1.14a7.75,7.75,0,0,0,1,0h2a5.21,5.21,0,0,0,1-.06l.53.51a1.09,1.09,0,0,1-.11.24s-.06.13-.12.25a25,25,0,0,1-1.63,3.32,5.06,5.06,0,0,1,1,1.65,5.94,5.94,0,0,1,.3,1.86c0,1-.26,1.5-.8,1.68a3.61,3.61,0,0,1-1.06.13H71.4a2.77,2.77,0,0,0-.18-.9,7.63,7.63,0,0,0,.88.06c.57,0,.78-.24.78-.92a4.62,4.62,0,0,0-1.36-3.48A17.83,17.83,0,0,0,73.23,56H70.89V66.65c0,.58,0,1.12.07,1.59H69.88A12.11,12.11,0,0,0,70,66.63Zm6.08,7.31a9,9,0,0,1-2.57,3.84,2.84,2.84,0,0,0-.7-.69,7,7,0,0,0,1.39-1.43,8,8,0,0,0,1-2.08Zm.19-3.77a10.13,10.13,0,0,0-1.15.06v-.94a11.34,11.34,0,0,1-1.25.85,2.41,2.41,0,0,0-.6-.81A9.83,9.83,0,0,0,77.5,54.8h1A10.67,10.67,0,0,0,83.28,59a6.26,6.26,0,0,0-.57.9,13.15,13.15,0,0,1-4.65-4.25,12,12,0,0,1-3,3.29,8.87,8.87,0,0,0,1.17.06H80a8.79,8.79,0,0,0,1.14-.06v.94A9.7,9.7,0,0,0,80,59.82H78.46V61.7h2.81a9.31,9.31,0,0,0,1.42-.09v1a9.4,9.4,0,0,0-1.42-.09H78.46v4.38c0,.87-.36,1.16-1.42,1.16-.35,0-.87,0-1.32-.06a3,3,0,0,0-.3-1,10.94,10.94,0,0,0,1.53.13c.42,0,.57-.09.57-.34V62.55H75.4a8.94,8.94,0,0,0-1.29.08v-1a8.94,8.94,0,0,0,1.29.08h2.12V59.82Zm4.31,3.44A8.41,8.41,0,0,0,83,66.65a4,4,0,0,0-.72.79,11.75,11.75,0,0,1-2.57-3.82Z"/><path class="cls-4" d="M94,55.86c-.17.14-.29.24-1.85,1.74a43.41,43.41,0,0,1-3.45,2.84c-.55.42-.66.54-.66.75s.12.37,1.34,1.32a45.12,45.12,0,0,1,4.8,4.09,3.17,3.17,0,0,0,.42.38l-1,.93a14.28,14.28,0,0,0-1.93-2.06c-1-.93-1.61-1.42-3.8-3.13-.84-.66-1.08-1-1.08-1.5a1.45,1.45,0,0,1,.44-1,11.75,11.75,0,0,1,1.27-1A23.75,23.75,0,0,0,93,55.08Z"/><path class="cls-4" d="M99.4,68.39a9.23,9.23,0,0,0,2.28-3.11,9.37,9.37,0,0,0,0-7.62,9.3,9.3,0,0,0-2.28-3.1h1.34a10.11,10.11,0,0,1,2.08,3.22,9.82,9.82,0,0,1,0,7.38,10,10,0,0,1-2.08,3.23Z"/><path class="cls-4" d="M115.21,61.47a1.23,1.23,0,0,1-2.46,0,1.23,1.23,0,1,1,2.46,0Z"/><path class="cls-4" d="M132.93,63.56a1.23,1.23,0,0,0-.24.22A10.82,10.82,0,0,1,130,66a16.41,16.41,0,0,0,5.89,1.31,2.56,2.56,0,0,0-.43,1,20.44,20.44,0,0,1-3.42-.63,13.28,13.28,0,0,1-2.93-1.14A18.92,18.92,0,0,1,123,68.34a2.4,2.4,0,0,0-.51-.88A18.55,18.55,0,0,0,128.23,66a10,10,0,0,1-2.14-1.8A11.52,11.52,0,0,1,123.24,66a2.29,2.29,0,0,0-.63-.72,11.11,11.11,0,0,0,3.06-1.78A7.26,7.26,0,0,0,127.09,62c-.61-.07-.78-.22-.78-.72V60.12a6,6,0,0,0-.07-1.08h1a5,5,0,0,0-.07,1V61c0,.13,0,.18.16.22a16.73,16.73,0,0,0,3.81-.06c.24-.1.33-.36.44-1.08a2.09,2.09,0,0,0,.79.42C132,62,132,62,129.12,62h-1c-.43.58-.55.72-.79,1H131a7,7,0,0,0,1.32-.07Zm-7.47-5.87a7.45,7.45,0,0,0-.63-1.3l-1.35,0a2.86,2.86,0,0,0-.38-.83h.8a68.3,68.3,0,0,0,7.32-.43,12,12,0,0,0,2.94-.59l.72.86-2.1.36.84.24c-.56,1-.66,1.2-1,1.66h1.18a15.13,15.13,0,0,0,1.7-.06,8,8,0,0,0-.06,1.13v.87a6.79,6.79,0,0,0,.07.94h-1V58.49H123.72v2.13h-1a7.37,7.37,0,0,0,.08-1.07v-.82a10,10,0,0,0-.06-1.11,14.38,14.38,0,0,0,1.84.07ZM123.1,62a5.23,5.23,0,0,0,1.83-2.67l.78.38a8.2,8.2,0,0,1-1.93,3Zm5.81-4.35a7.65,7.65,0,0,0-.66-1.45c-1.11.06-1.92.1-2.57.12a7.16,7.16,0,0,1,.66,1.33Zm-2.15,6.08a8.41,8.41,0,0,0,2.33,1.83,8.66,8.66,0,0,0,2.4-1.83Zm3.18-3.05A9.17,9.17,0,0,0,128,59.24l.52-.56a11.39,11.39,0,0,1,2,1.41Zm1.79-3a7.26,7.26,0,0,0,.94-1.89c-1.15.17-2,.26-3.55.38a8.91,8.91,0,0,1,.66,1.51Zm2.67,4.89a12.25,12.25,0,0,0-2.25-2.88l.67-.46A16.32,16.32,0,0,1,135.15,62Z"/><path class="cls-4" d="M140.92,57.75a7.49,7.49,0,0,0,1.26-.06c0,.45,0,.45-.09,1.22A16.18,16.18,0,0,1,141,64.19c.39.31.57.49,1.12,1l-.57.81a11.82,11.82,0,0,0-1-1,10.28,10.28,0,0,1-2.44,3,3.45,3.45,0,0,0-.65-.72,8.65,8.65,0,0,0,2.42-2.88,17.34,17.34,0,0,0-2.13-1.56,21,21,0,0,0,1.15-4.29h-.25a6.57,6.57,0,0,0-1.22.07v-1a7,7,0,0,0,1.26.07h.35a21.16,21.16,0,0,0,.24-2.7v-.33l1,.11a15.77,15.77,0,0,0-.21,1.6c-.06.53-.1.81-.18,1.32Zm-1.09.83a.74.74,0,0,0,0,.22,27.2,27.2,0,0,1-1,3.75c.66.45.87.62,1.45,1.07a16,16,0,0,0,1-5Zm4.14,1a10.51,10.51,0,0,0-1.35.06v-.9a7.92,7.92,0,0,0,1.38.07h4.14a11.19,11.19,0,0,0,1.44-2.73l.93.33a17.23,17.23,0,0,1-1.43,2.4h.33a5.64,5.64,0,0,0,1.28-.09v.92a10.38,10.38,0,0,0-1.32-.06h-3.65c0,.54-.07.76-.13,1.24h3.75a7.09,7.09,0,0,0,1.53-.09v1a9.68,9.68,0,0,0-1.53-.09h-3.9a7.7,7.7,0,0,1-.29,1.17h3.11a7.64,7.64,0,0,0,1.26-.06l.48.53c-.09.12-.09.12-.32.48A10.26,10.26,0,0,1,147.84,66a14.84,14.84,0,0,0,3.37,1.36,4.28,4.28,0,0,0-.49.87,13.24,13.24,0,0,1-3.57-1.68,10.88,10.88,0,0,1-4,1.77,2.27,2.27,0,0,0-.56-.76,9.7,9.7,0,0,0,3.86-1.52,7.9,7.9,0,0,1-1.83-2,12.44,12.44,0,0,1-1,1.89,12.17,12.17,0,0,1-2.09,2.2,2.83,2.83,0,0,0-.64-.66,9.59,9.59,0,0,0,2.89-3.54,9.4,9.4,0,0,0,.78-2.31h-.61a9.61,9.61,0,0,0-1.47.08v-.93a9.29,9.29,0,0,0,1.48.07h.74c.06-.45.07-.58.12-1.24Zm6.42-4.32-.8.22a31.23,31.23,0,0,1-6.76,1,2.37,2.37,0,0,0-.38-.81,30.67,30.67,0,0,0,5.69-.7,5.86,5.86,0,0,0,1.56-.53Zm-6.33,3.51a7.51,7.51,0,0,0-1-1.74l.73-.35a9.42,9.42,0,0,1,1,1.7Zm1.17,4.75a7.6,7.6,0,0,0,1.93,2,7.11,7.11,0,0,0,1.65-2Zm1.3-4.87a6.83,6.83,0,0,0-1-1.89l.77-.32a9.89,9.89,0,0,1,1,1.86Z"/><path class="cls-4" d="M13.23,86.15A8.9,8.9,0,0,1,9.76,89,3.11,3.11,0,0,0,9,88.32a7.72,7.72,0,0,0,2-1.11,6.6,6.6,0,0,0,1.47-1.54ZM16,87.87a8.23,8.23,0,0,0,.1,1.5H14.92a7.53,7.53,0,0,0,.11-1.5V85.05h-3.9c-.6,0-1,0-1.49,0a8.81,8.81,0,0,0,.08-1.47v-5a7.4,7.4,0,0,0-.09-1.35h1.11a8.28,8.28,0,0,0-.08,1.34v5.62h9.89A10.06,10.06,0,0,0,22,84.14v1a8.61,8.61,0,0,0-1.46-.09H16Zm4.21-6a8.07,8.07,0,0,0,.08,1.41,13.63,13.63,0,0,0-1.58-.06H14a13.59,13.59,0,0,0-1.54.06,13.69,13.69,0,0,0,.06-1.46V77.55c0-.55,0-.91-.06-1.35a12.54,12.54,0,0,0,1.63.08h4.7a11.9,11.9,0,0,0,1.53-.08,8.45,8.45,0,0,0-.08,1.41Zm-6.82-3.48h5.91V77.09H13.38Zm0,2h5.91V79.1H13.38Zm0,2h5.91V81.12H13.38Zm5.17,3.27a9.9,9.9,0,0,0,2,1.73,9.47,9.47,0,0,0,1.65.87,3.25,3.25,0,0,0-.69.78,12,12,0,0,1-3.74-2.9Z"/><path class="cls-4" d="M36.18,89.39a10.08,10.08,0,0,1-2.09-3.23,9.82,9.82,0,0,1,0-7.38,10.16,10.16,0,0,1,2.09-3.22h1.33a9.55,9.55,0,0,0-2.28,3.1,9.37,9.37,0,0,0,0,7.62,9.57,9.57,0,0,0,2.28,3.11Z"/><path class="cls-4" d="M52.33,82.92a14.33,14.33,0,0,0-2-.1H41.11a15,15,0,0,0-2,.1V81.68a14.49,14.49,0,0,0,2,.1h9.24a13.86,13.86,0,0,0,2-.1Z"/><path class="cls-4" d="M60.58,81.45a7.91,7.91,0,0,0,1.4-.07v1a10.7,10.7,0,0,0-1.37-.07h-5a8.73,8.73,0,0,0-1.43.07v-1a8.8,8.8,0,0,0,1.44.07h3.24a12.22,12.22,0,0,0,1.08-3l.92.31a16,16,0,0,1-1.11,2.67Zm-.19-4.08a8.19,8.19,0,0,0,1.39-.07v1a7.61,7.61,0,0,0-1.38-.08H55.92a7.8,7.8,0,0,0-1.35.08v-1a8.19,8.19,0,0,0,1.39.07h1.82v-.55a5.69,5.69,0,0,0-.09-1.14h1.12a6.24,6.24,0,0,0-.09,1.15v.54ZM56.13,89.21h-1a9.21,9.21,0,0,0,.06-1.35v-3a12.09,12.09,0,0,0,0-1.26,11.76,11.76,0,0,0,1.18,0h3.56a8.71,8.71,0,0,0,1.09,0,8.74,8.74,0,0,0,0,1.25V88A7.78,7.78,0,0,0,61,89.21H60v-.93H56.13Zm.25-10.71a11.79,11.79,0,0,1,1,2.49l-.87.3a10.37,10.37,0,0,0-1-2.49Zm-.25,8.94H60v-3H56.13Zm11.58-10.7a10.68,10.68,0,0,0-.62,1.34,31.57,31.57,0,0,1-1.54,3,7,7,0,0,1,1.69,2.35,5.22,5.22,0,0,1,.45,2.1,1.81,1.81,0,0,1-.76,1.68,3,3,0,0,1-1.35.23c-.41,0-.8,0-1.25-.06a2.84,2.84,0,0,0-.19-1,7.28,7.28,0,0,0,1.45.15c.86,0,1.14-.27,1.14-1.06a4.63,4.63,0,0,0-.49-2,6.18,6.18,0,0,0-1.79-2.18,22.38,22.38,0,0,0,2-4.18h-3V87.69a9,9,0,0,0,.11,1.67H62.46a11.93,11.93,0,0,0,.09-1.65V77.51c0-.45,0-.87-.06-1.38.39,0,.67,0,1.2,0H66.1a6.63,6.63,0,0,0,1.16-.06Z"/><path class="cls-4" d="M70,77.28c0-.42,0-.84,0-1.14a7.75,7.75,0,0,0,1,0h2a5.21,5.21,0,0,0,1-.06l.53.51a1.09,1.09,0,0,1-.11.24s-.06.13-.12.25a25,25,0,0,1-1.63,3.32,5.06,5.06,0,0,1,1,1.65,5.94,5.94,0,0,1,.3,1.86c0,1-.26,1.5-.8,1.68a3.61,3.61,0,0,1-1.06.13H71.4a2.77,2.77,0,0,0-.18-.9,7.63,7.63,0,0,0,.88.06c.57,0,.78-.24.78-.92a4.62,4.62,0,0,0-1.36-3.48A17.83,17.83,0,0,0,73.23,77H70.89V87.65c0,.58,0,1.12.07,1.59H69.88A12.11,12.11,0,0,0,70,87.63Zm6.08,7.31a9,9,0,0,1-2.57,3.84,2.84,2.84,0,0,0-.7-.69,7,7,0,0,0,1.39-1.43,8,8,0,0,0,1-2.08Zm.19-3.77a10.13,10.13,0,0,0-1.15.06v-.94a11.34,11.34,0,0,1-1.25.85,2.41,2.41,0,0,0-.6-.81A9.83,9.83,0,0,0,77.5,75.8h1A10.67,10.67,0,0,0,83.28,80a6.26,6.26,0,0,0-.57.9,13.15,13.15,0,0,1-4.65-4.25,12,12,0,0,1-3,3.29,8.87,8.87,0,0,0,1.17.06H80a8.79,8.79,0,0,0,1.14-.06v.94A9.7,9.7,0,0,0,80,80.82H78.46V82.7h2.81a9.31,9.31,0,0,0,1.42-.09v1a9.4,9.4,0,0,0-1.42-.09H78.46v4.38c0,.87-.36,1.16-1.42,1.16-.35,0-.87,0-1.32-.06a3,3,0,0,0-.3-1,10.94,10.94,0,0,0,1.53.13c.42,0,.57-.09.57-.34V83.55H75.4a8.94,8.94,0,0,0-1.29.08v-1a8.94,8.94,0,0,0,1.29.08h2.12V80.82Zm4.31,3.44A8.41,8.41,0,0,0,83,87.65a4,4,0,0,0-.72.79,11.75,11.75,0,0,1-2.57-3.82Z"/><path class="cls-4" d="M94,76.86c-.17.14-.29.24-1.85,1.74a43.41,43.41,0,0,1-3.45,2.84c-.55.42-.66.54-.66.75s.12.37,1.34,1.32a45.12,45.12,0,0,1,4.8,4.09,3.17,3.17,0,0,0,.42.38l-1,.93a14.28,14.28,0,0,0-1.93-2.06c-1-.93-1.61-1.42-3.8-3.13-.84-.66-1.08-1-1.08-1.5a1.45,1.45,0,0,1,.44-1,11.75,11.75,0,0,1,1.27-1A23.75,23.75,0,0,0,93,76.08Z"/><path class="cls-4" d="M99.4,89.39a9.23,9.23,0,0,0,2.28-3.11,9.37,9.37,0,0,0,0-7.62,9.3,9.3,0,0,0-2.28-3.1h1.34a10.11,10.11,0,0,1,2.08,3.22,9.82,9.82,0,0,1,0,7.38,10,10,0,0,1-2.08,3.23Z"/></g></g></svg>