<svg xmlns="http://www.w3.org/2000/svg" viewBox="0 0 185 180"><defs><style>.cls-1{fill:#fff;}.cls-2{fill:#d1d1d1;}.cls-3{fill:#e8809f;}.cls-4{fill:#666;}</style></defs><title>area-chugoku</title><g id="レイヤー_2" data-name="レイヤー 2"><g id="メインデザイン"><rect class="cls-1" x="0.5" y="0.5" width="184" height="179"/><path class="cls-2" d="M184,1V179H1V1H184m1-1H0V180H185V0Z"/><rect class="cls-3" x="168" width="17" height="180"/><path class="cls-1" d="M172,95.17V84.83L181,90Z"/><path d="M16.23,10A12,12,0,0,0,16.12,8h2.39a15.09,15.09,0,0,0-.11,2v1.23h5.21a13.11,13.11,0,0,0,1.72-.07,15.72,15.72,0,0,0-.07,1.67v5.79a14.07,14.07,0,0,0,.09,1.9H23.11V19.34H18.4V23.2a15.77,15.77,0,0,0,.13,2.36H16.1a15.47,15.47,0,0,0,.13-2.36V19.34H11.75v1.14H9.51a13.59,13.59,0,0,0,.09-1.9V12.77a14.25,14.25,0,0,0-.07-1.65,14.14,14.14,0,0,0,1.71.07h5Zm-4.48,3.17v4.12h4.48V13.21Zm11.36,4.12V13.21H18.4v4.12Z"/><path d="M28.3,10.87c0-.82,0-1.52-.11-2.3a16.77,16.77,0,0,0,2.24.1h12a18.6,18.6,0,0,0,2.24-.1,18.69,18.69,0,0,0-.12,2.28v12.2a14.59,14.59,0,0,0,.12,2.45H42.49V24.42H30.35V25.5H28.19A19.28,19.28,0,0,0,28.3,23Zm2.05,11.7H42.49V10.51H30.35Zm2.85-9.08a10.22,10.22,0,0,0-1.73.1V11.67a10.12,10.12,0,0,0,1.73.09h6.46a10.31,10.31,0,0,0,1.77-.09v1.92a10.46,10.46,0,0,0-1.77-.1H37.25v2h2a8.32,8.32,0,0,0,1.63-.1v1.88a8.7,8.7,0,0,0-1.22-.09A9.1,9.1,0,0,1,40.82,19l-1,.57a10.28,10.28,0,0,0,1.87-.11v2a13.32,13.32,0,0,0-1.79-.09H33a12.07,12.07,0,0,0-1.8.09v-2a9.9,9.9,0,0,0,1.8.11h2.28V17.16H33.64a9.88,9.88,0,0,0-1.63.09V15.37a8.32,8.32,0,0,0,1.63.1h1.63v-2Zm4,6.08h2a8.14,8.14,0,0,0-1.2-1.9l1-.51H37.25Z"/><path d="M56.5,20.64h4.59a12.93,12.93,0,0,0,2.47-.14v2.4a18.51,18.51,0,0,0-2.43-.1H49.73a18.51,18.51,0,0,0-2.43.1V20.5a12.93,12.93,0,0,0,2.47.14h4.29V12.83h-2.9a20.9,20.9,0,0,0-2.43.09V10.55a14.12,14.12,0,0,0,2.47.13h8.45a14.19,14.19,0,0,0,2.47-.13v2.37a20.79,20.79,0,0,0-2.43-.09H56.5Z"/><path d="M71.39,9a10.44,10.44,0,0,0-.07,1.71v5.24a10.09,10.09,0,0,0,.07,1.68h-2.6a13.34,13.34,0,0,0,.09-1.71V10.68A11.83,11.83,0,0,0,68.81,9ZM80,9a8.53,8.53,0,0,0-.1,1.77v2.56a22.7,22.7,0,0,1-.49,5.76,7.27,7.27,0,0,1-3.74,4.42A16.44,16.44,0,0,1,72,25a6.37,6.37,0,0,0-1.33-2.26,10.38,10.38,0,0,0,4.1-1.52c1.79-1.18,2.42-2.34,2.63-4.85.07-.82.09-1.65.09-3.17V10.81A10.79,10.79,0,0,0,77.38,9Z"/><path d="M94,13.27a7.76,7.76,0,0,0-.07,1.53c-.08,3.25-.59,5.08-1.89,6.73A11,11,0,0,1,87.14,25a6.64,6.64,0,0,0-1.5-2.17A8.7,8.7,0,0,0,89,21.17c1.93-1.54,2.54-3.17,2.54-6.77a5,5,0,0,0-.09-1.13Zm7.71-2.4A5.59,5.59,0,0,0,101,12.2,11.94,11.94,0,0,1,98,16a12.52,12.52,0,0,1-2.28,1.58A6.38,6.38,0,0,0,94,15.87a8.85,8.85,0,0,0,2.77-1.75,7.92,7.92,0,0,0,1.81-2.41h-10a19.14,19.14,0,0,0-2.58.11V9.45a15.58,15.58,0,0,0,2.62.15H98.6a5.26,5.26,0,0,0,1.84-.17Z"/><path class="cls-4" d="M11,44a8.39,8.39,0,0,1-1.5,3.21l-.81-.54a6.94,6.94,0,0,0,1.49-3Zm2.78-8.89a6.57,6.57,0,0,0,.7-1.5l1,.19c-.18.35-.54,1-.74,1.31h3.74A9.7,9.7,0,0,0,19.74,35a7.12,7.12,0,0,0,0,1v2.59c0,.39,0,.71,0,1-.39,0-.75-.05-1.17-.05H11.86v1h8.61a9.7,9.7,0,0,0,1.46-.09v1a10.23,10.23,0,0,0-1.47-.09h-8.6v1.14h8.72a7.42,7.42,0,0,0,1.14-.06,6.18,6.18,0,0,0-.12.73c-.44,3.5-.72,4-2.4,4-.41,0-.95,0-1.37-.06a3.08,3.08,0,0,0-.21-1,9.86,9.86,0,0,0,1.55.14c.75,0,1-.17,1.14-.89a14.77,14.77,0,0,0,.34-2.11H12.12c-.59,0-.9,0-1.25,0a10.56,10.56,0,0,0,.06-1.37V36.17A8.63,8.63,0,0,0,10.87,35a10,10,0,0,0,1.2.06Zm5,1.86V35.84h-6.9v1.08Zm-6.9,1.86h6.9V37.67h-6.9Zm1.26,5a19.58,19.58,0,0,1,.59,2.86l-1,.17a17.85,17.85,0,0,0-.48-2.91Zm2.42-.09a12.68,12.68,0,0,1,1,2.4l-.84.25a11.94,11.94,0,0,0-.89-2.46ZM18,43.46a8.66,8.66,0,0,1,1,1.74l-.76.36a7.92,7.92,0,0,0-.95-1.8Z"/><path class="cls-4" d="M25,35.12a6.51,6.51,0,0,0-1.09.07v-1a8.17,8.17,0,0,0,1.17.08h4.75A8.73,8.73,0,0,0,31,34.22v.93c-.6,0-.66,0-1.08,0V45.78A10.2,10.2,0,0,0,30,47.33H28.84a11.72,11.72,0,0,0,.09-1.56V44c-.94.29-2.11.59-4.14,1a4.41,4.41,0,0,0-.73.2l-.3-1.07A8.27,8.27,0,0,0,25.12,44V35.12Zm1.07,2.22h2.86V35.12H26.07Zm0,3h2.86V38.12H26.07Zm0,3.44c1.15-.23,1.74-.36,2.86-.68v-2H26.07ZM36,35.3a10.28,10.28,0,0,0,1.13-.06c0,.15-.09.55-.14.85A18.12,18.12,0,0,1,34.56,43a9.77,9.77,0,0,0,3.25,3,3.36,3.36,0,0,0-.58,1A11.31,11.31,0,0,1,34,43.79a11.91,11.91,0,0,1-3.29,3.15,2.83,2.83,0,0,0-.6-.9A10.15,10.15,0,0,0,33.46,43a16.46,16.46,0,0,1-2-6.78,5.91,5.91,0,0,0-.89.07v-1a7.46,7.46,0,0,0,1.26.08Zm-3.6.87a18.94,18.94,0,0,0,.57,3.13A13.89,13.89,0,0,0,34,42.08,16.25,16.25,0,0,0,36,36.17Z"/><path class="cls-4" d="M43.53,44.15A8.9,8.9,0,0,1,40.06,47a3.11,3.11,0,0,0-.73-.72,7.72,7.72,0,0,0,2-1.11,6.6,6.6,0,0,0,1.47-1.54Zm2.76,1.72a8.23,8.23,0,0,0,.1,1.5H45.22a7.53,7.53,0,0,0,.11-1.5V43.05h-3.9c-.6,0-1,0-1.49.05A8.81,8.81,0,0,0,40,41.63v-5a7.4,7.4,0,0,0-.09-1.35H41A8.28,8.28,0,0,0,41,36.59v5.62h9.89a10.06,10.06,0,0,0,1.47-.07v1a8.61,8.61,0,0,0-1.46-.09H46.29Zm4.21-6a8.07,8.07,0,0,0,.08,1.41A13.63,13.63,0,0,0,49,41.18H44.26a13.59,13.59,0,0,0-1.54.06,13.69,13.69,0,0,0,.06-1.46V35.55c0-.55,0-.91-.06-1.35a12.54,12.54,0,0,0,1.63.08h4.7a11.9,11.9,0,0,0,1.53-.08,8.45,8.45,0,0,0-.08,1.41Zm-6.82-3.48h5.91V35.09H43.68Zm0,2h5.91V37.1H43.68Zm0,2h5.91V39.12H43.68Zm5.17,3.27a9.9,9.9,0,0,0,2,1.73,9.47,9.47,0,0,0,1.65.87,3.25,3.25,0,0,0-.69.78,12,12,0,0,1-3.74-2.9Z"/><path class="cls-4" d="M62.11,40.47a1.23,1.23,0,0,1-2.46,0,1.23,1.23,0,0,1,2.46,0Z"/><path class="cls-4" d="M73.81,43.08H72.52c-.66,0-.82,0-1.24,0a12.32,12.32,0,0,0,.06-1.35V36.18c0-.45,0-.81-.06-1.17a7.69,7.69,0,0,0,1.2.06h1.68a7.77,7.77,0,0,0,.72-1.5l1,.2a14.57,14.57,0,0,1-.72,1.3h3.67A8,8,0,0,0,80.05,35a6.22,6.22,0,0,0,0,1v2.49c0,.39,0,.7,0,1-.45,0-.76,0-1.17,0H72.27v1H81a9,9,0,0,0,1.41-.09v1A12.35,12.35,0,0,0,81,41.22H72.27V42.3h8.59a7.78,7.78,0,0,0,1.19-.06c0,.14,0,.38-.11.84a10.84,10.84,0,0,1-.7,3.45c-.29.42-.69.57-1.58.57-.42,0-.66,0-1.14,0a3,3,0,0,0-.22-1,9.6,9.6,0,0,0,1.47.14c.49,0,.67-.11.79-.5A16,16,0,0,0,81,43.08H74.74v2h2.82v-.74a4.43,4.43,0,0,0-.06-.84h1a5.17,5.17,0,0,0-.06.9v.75a6.52,6.52,0,0,0,0,.78h-.56a4.27,4.27,0,0,0-.52,0H71.17v.69h-1a7.43,7.43,0,0,0,.09-1.18v-1a4.25,4.25,0,0,0-.08-.9h1a4.21,4.21,0,0,0,0,.84v.68h2.64Zm5.25-6.22v-1H72.27v1Zm-6.79,1.81h6.79V37.59H72.27Z"/><path class="cls-4" d="M86.8,35.18a9.33,9.33,0,0,0-.07-1.56h1.08a9.56,9.56,0,0,0-.08,1.54v1.55h.84a6.47,6.47,0,0,0,1-.06v.94a9.45,9.45,0,0,0-1-.06h-.79a9.27,9.27,0,0,0,1.89,3,4.06,4.06,0,0,0-.62.75,9.7,9.7,0,0,1-1.39-2.54c0,.74.07,1.8.07,2.46v4.34a10.87,10.87,0,0,0,.09,1.74H86.73a12.6,12.6,0,0,0,.09-1.74v-4c0-.71,0-1.46.07-2.42a11.87,11.87,0,0,1-2.1,4.29,3.58,3.58,0,0,0-.61-.81,12,12,0,0,0,2.5-5.13h-1c-.29,0-.63,0-1,.06v-.94a7.57,7.57,0,0,0,1,.06H86.8ZM97.56,41.6a14.89,14.89,0,0,1-2.66,2.07,9.14,9.14,0,0,0,3.27,2.56,4,4,0,0,0-.69.86,10.58,10.58,0,0,1-3.19-2.79,10.18,10.18,0,0,1-1.64-3.54H91.09V45.6c1.08-.27,1.67-.45,2.73-.81l.09.87a36.38,36.38,0,0,1-4.33,1.23c-.38.11-.53.14-.78.23l-.26-1a10.62,10.62,0,0,0,1.62-.25V36c0-.59,0-1.05-.06-1.56.44,0,.84.06,1.52.06h3.64a8.76,8.76,0,0,0,1.5-.08,15.64,15.64,0,0,0,0,1.64v3.22a13.15,13.15,0,0,0,0,1.55,11.68,11.68,0,0,0-1.5-.06H93.54a7.43,7.43,0,0,0,.88,2.2,8.65,8.65,0,0,0,2.43-2.05ZM95.8,37.17V35.31H91.09v1.86ZM91.09,40H95.8V38H91.09Z"/><path class="cls-4" d="M104.13,44.15A8.9,8.9,0,0,1,100.66,47a3.11,3.11,0,0,0-.73-.72,7.72,7.72,0,0,0,1.95-1.11,6.6,6.6,0,0,0,1.47-1.54Zm2.76,1.72a8.23,8.23,0,0,0,.1,1.5h-1.17a7.53,7.53,0,0,0,.11-1.5V43.05H102c-.6,0-1,0-1.49.05a8.81,8.81,0,0,0,.08-1.47v-5a7.4,7.4,0,0,0-.09-1.35h1.11a8.28,8.28,0,0,0-.08,1.34v5.62h9.89a10.06,10.06,0,0,0,1.47-.07v1a8.61,8.61,0,0,0-1.46-.09h-4.57Zm4.21-6a8.07,8.07,0,0,0,.08,1.41,13.63,13.63,0,0,0-1.58-.06h-4.74a13.59,13.59,0,0,0-1.54.06,13.69,13.69,0,0,0,.06-1.46V35.55c0-.55,0-.91-.06-1.35a12.54,12.54,0,0,0,1.63.08h4.7a11.9,11.9,0,0,0,1.53-.08,8.45,8.45,0,0,0-.08,1.41Zm-6.82-3.48h5.91V35.09h-5.91Zm0,2h5.91V37.1h-5.91Zm0,2h5.91V39.12h-5.91Zm5.17,3.27a9.9,9.9,0,0,0,2,1.73,9.47,9.47,0,0,0,1.65.87,3.25,3.25,0,0,0-.69.78,12,12,0,0,1-3.74-2.9Z"/><path class="cls-4" d="M122.71,40.47a1.23,1.23,0,0,1-2.46,0,1.23,1.23,0,1,1,2.46,0Z"/><path class="cls-4" d="M130.69,35.64a10.38,10.38,0,0,0-.06-1.32,11.45,11.45,0,0,0,1.46.06h9.24a9.37,9.37,0,0,0,1.35-.06,10.66,10.66,0,0,0-.06,1.37V46c0,.82-.41,1.06-1.8,1.06a13,13,0,0,1-1.61-.09,3.37,3.37,0,0,0-.24-1,10.72,10.72,0,0,0,2,.18c.54,0,.71-.07.71-.36V35.24h-10V45.75a8.43,8.43,0,0,0,.08,1.47H130.6a10.28,10.28,0,0,0,.09-1.48Zm6.65,2.79a9.83,9.83,0,0,0,1.38-2.79l.9.33a12,12,0,0,1-1.37,2.46h1.46a7.81,7.81,0,0,0,1.33-.07v1a8.31,8.31,0,0,0-1.33-.07h-2.66v4.15h2.12v-2a9.77,9.77,0,0,0-.06-1.19h1a7.56,7.56,0,0,0-.08,1.25v2.25a11.27,11.27,0,0,0,.06,1.29h-.91v-.78h-4.95V45.6h-.93a9.51,9.51,0,0,0,.07-1.48V41.48a8.11,8.11,0,0,0-.07-1.25h1a7.92,7.92,0,0,0-.06,1.2v2h1.95V39.26h-2.51a8.64,8.64,0,0,0-1.36.07v-1a8.42,8.42,0,0,0,1.36.07Zm-2.76-2.73a11.8,11.8,0,0,1,1.21,2.16l-.82.35a8.74,8.74,0,0,0-1.22-2.15Z"/><path class="cls-4" d="M151.12,35.25a8.24,8.24,0,0,0-.1-1.39h1.24a8,8,0,0,0-.1,1.39V44.9h4.42V38a8.8,8.8,0,0,0-.09-1.39h1.19a11.24,11.24,0,0,0-.09,1.41v7.47a11.5,11.5,0,0,0,.1,1.59h-1.11V45.86H147v1.26h-1.11a12.08,12.08,0,0,0,.1-1.52V38.12a9.09,9.09,0,0,0-.1-1.47h1.18A10.09,10.09,0,0,0,147,38.1v6.8h4.12Z"/><path class="cls-4" d="M13.23,65.15A8.9,8.9,0,0,1,9.76,68,3.11,3.11,0,0,0,9,67.32a7.72,7.72,0,0,0,2-1.11,6.6,6.6,0,0,0,1.47-1.54ZM16,66.87a8.23,8.23,0,0,0,.1,1.5H14.92a7.53,7.53,0,0,0,.11-1.5V64.05h-3.9c-.6,0-1,0-1.49,0a8.81,8.81,0,0,0,.08-1.47v-5a7.4,7.4,0,0,0-.09-1.35h1.11a8.28,8.28,0,0,0-.08,1.34v5.62h9.89A10.06,10.06,0,0,0,22,63.14v1a8.61,8.61,0,0,0-1.46-.09H16Zm4.21-6a8.07,8.07,0,0,0,.08,1.41,13.63,13.63,0,0,0-1.58-.06H14a13.59,13.59,0,0,0-1.54.06,13.69,13.69,0,0,0,.06-1.46V56.55c0-.55,0-.91-.06-1.35a12.54,12.54,0,0,0,1.63.08h4.7a11.9,11.9,0,0,0,1.53-.08,8.45,8.45,0,0,0-.08,1.41Zm-6.82-3.48h5.91V56.09H13.38Zm0,2h5.91V58.1H13.38Zm0,2h5.91V60.12H13.38Zm5.17,3.27a9.9,9.9,0,0,0,2,1.73,9.47,9.47,0,0,0,1.65.87,3.25,3.25,0,0,0-.69.78,12,12,0,0,1-3.74-2.9Z"/><path class="cls-4" d="M31.81,61.47a1.23,1.23,0,0,1-2.46,0,1.23,1.23,0,0,1,2.46,0Z"/><path class="cls-4" d="M45.7,55.74a3.48,3.48,0,0,0-.09-1h1.16a3.43,3.43,0,0,0-.09,1v.87h4.06a10.35,10.35,0,0,0,1.62-.09v1.05a10,10,0,0,0-1.62-.08H41.43a38.28,38.28,0,0,1-.48,7.1,10.55,10.55,0,0,1-1.34,3.52,3.81,3.81,0,0,0-.82-.72,9.06,9.06,0,0,0,1.15-2.73,29,29,0,0,0,.5-6.25c0-1,0-1.41-.06-1.88a11.32,11.32,0,0,0,1.5.08H45.7ZM41.2,66.51a2.53,2.53,0,0,0,.48,0c.27,0,.83,0,1.19,0a31.91,31.91,0,0,0,2.85-8.22l1.18.3c-.1.28-.16.46-.3.91A44.71,44.71,0,0,1,44,66.44c1.62-.15,2.67-.26,3.18-.32C48.42,66,49,65.88,50,65.69a25.69,25.69,0,0,0-2.36-3.26l.83-.49a31,31,0,0,1,3.75,5.73l-.89.58a18.58,18.58,0,0,0-.87-1.78,64.11,64.11,0,0,1-8.43,1.08,3.91,3.91,0,0,0-.64.07Z"/><path class="cls-4" d="M58.66,64.08H57.37c-.66,0-.82,0-1.24,0a12.32,12.32,0,0,0,.06-1.35V57.18c0-.45,0-.81-.06-1.17a7.69,7.69,0,0,0,1.2.06H59a7.77,7.77,0,0,0,.72-1.5l1,.2a14.57,14.57,0,0,1-.72,1.3h3.67A8,8,0,0,0,64.9,56a6.22,6.22,0,0,0,0,1v2.49c0,.39,0,.7,0,1-.45,0-.76,0-1.17,0H57.12v1h8.77a9,9,0,0,0,1.41-.09v1a12.35,12.35,0,0,0-1.44-.08H57.12V63.3h8.59a7.78,7.78,0,0,0,1.19-.06c0,.14-.05.38-.11.84a10.84,10.84,0,0,1-.7,3.45c-.29.42-.69.57-1.58.57-.42,0-.66,0-1.14,0a3,3,0,0,0-.22-1,9.6,9.6,0,0,0,1.47.14c.49,0,.67-.11.79-.5a16,16,0,0,0,.45-2.67H59.59v2h2.82v-.74a4.43,4.43,0,0,0-.06-.84h1a5.17,5.17,0,0,0-.06.9v.75a6.52,6.52,0,0,0,0,.78h-.56a4.27,4.27,0,0,0-.52,0H56v.69H55a7.43,7.43,0,0,0,.09-1.18v-.95a4.25,4.25,0,0,0-.08-.9h1a4.21,4.21,0,0,0,0,.84v.68h2.64Zm5.25-6.22v-1H57.12v1Zm-6.79,1.81h6.79V58.59H57.12Z"/><path class="cls-4" d="M73.83,65.15A8.9,8.9,0,0,1,70.36,68a3.11,3.11,0,0,0-.73-.72,7.72,7.72,0,0,0,2-1.11,6.6,6.6,0,0,0,1.47-1.54Zm2.76,1.72a8.23,8.23,0,0,0,.1,1.5H75.52a7.53,7.53,0,0,0,.11-1.5V64.05h-3.9c-.6,0-1,0-1.49,0a8.81,8.81,0,0,0,.08-1.47v-5a7.4,7.4,0,0,0-.09-1.35h1.11a8.28,8.28,0,0,0-.08,1.34v5.62h9.89a10.06,10.06,0,0,0,1.47-.07v1a8.61,8.61,0,0,0-1.46-.09H76.59Zm4.21-6a8.07,8.07,0,0,0,.08,1.41,13.63,13.63,0,0,0-1.58-.06H74.56a13.59,13.59,0,0,0-1.54.06,13.69,13.69,0,0,0,.06-1.46V56.55c0-.55,0-.91-.06-1.35a12.54,12.54,0,0,0,1.63.08h4.7a11.9,11.9,0,0,0,1.53-.08,8.45,8.45,0,0,0-.08,1.41ZM74,57.35h5.91V56.09H74Zm0,2h5.91V58.1H74Zm0,2h5.91V60.12H74Zm5.17,3.27a9.9,9.9,0,0,0,2,1.73,9.47,9.47,0,0,0,1.65.87,3.25,3.25,0,0,0-.69.78,12,12,0,0,1-3.74-2.9Z"/><path class="cls-4" d="M92.41,61.47a1.23,1.23,0,1,1-2.46,0,1.23,1.23,0,1,1,2.46,0Z"/><path class="cls-4" d="M105.67,56.25a8.24,8.24,0,0,0-.1-1.39h1.24a8,8,0,0,0-.1,1.39V65.9h4.42V59a8.8,8.8,0,0,0-.09-1.39h1.19a11.24,11.24,0,0,0-.09,1.41v7.47a11.5,11.5,0,0,0,.1,1.59h-1.11V66.86h-9.58v1.26h-1.11a12.08,12.08,0,0,0,.1-1.52V59.12a9.09,9.09,0,0,0-.1-1.47h1.18a10.09,10.09,0,0,0-.07,1.45v6.8h4.12Z"/><path class="cls-4" d="M115.92,67.67a13,13,0,0,0,.1-1.73V57.63A12.55,12.55,0,0,0,116,56a12.34,12.34,0,0,0,1.6.08h7.89a12.57,12.57,0,0,0,1.62-.08,12,12,0,0,0-.07,1.59v8.31a12.91,12.91,0,0,0,.1,1.73H126v-1.2H117v1.2ZM117,65.54H126V57.05H117Z"/><path class="cls-4" d="M134.43,65.15A8.9,8.9,0,0,1,131,68a3.11,3.11,0,0,0-.73-.72,7.72,7.72,0,0,0,2-1.11,6.6,6.6,0,0,0,1.47-1.54Zm2.76,1.72a8.23,8.23,0,0,0,.1,1.5h-1.17a7.53,7.53,0,0,0,.11-1.5V64.05h-3.9c-.6,0-1,0-1.49,0a8.81,8.81,0,0,0,.08-1.47v-5a7.4,7.4,0,0,0-.09-1.35h1.11a8.28,8.28,0,0,0-.08,1.34v5.62h9.89a10.06,10.06,0,0,0,1.47-.07v1a8.61,8.61,0,0,0-1.46-.09h-4.57Zm4.21-6a8.07,8.07,0,0,0,.08,1.41,13.63,13.63,0,0,0-1.58-.06h-4.74a13.59,13.59,0,0,0-1.54.06,13.69,13.69,0,0,0,.06-1.46V56.55c0-.55,0-.91-.06-1.35a12.54,12.54,0,0,0,1.63.08H140a11.9,11.9,0,0,0,1.53-.08,8.45,8.45,0,0,0-.08,1.41Zm-6.82-3.48h5.91V56.09h-5.91Zm0,2h5.91V58.1h-5.91Zm0,2h5.91V60.12h-5.91Zm5.17,3.27a9.9,9.9,0,0,0,2,1.73,9.47,9.47,0,0,0,1.65.87,3.25,3.25,0,0,0-.69.78,12,12,0,0,1-3.74-2.9Z"/><path class="cls-4" d="M153,61.47a1.23,1.23,0,0,1-2.46,0,1.23,1.23,0,1,1,2.46,0Z"/><path class="cls-4" d="M20.62,84.29a10.5,10.5,0,0,0,1.52-.09v1.06a11.19,11.19,0,0,0-1.52-.09H10.27a10.73,10.73,0,0,0-1.51.09V84.2a10.25,10.25,0,0,0,1.51.09h1.11v-5.9c0-.54,0-.88,0-1.21,2.91-.08,7-.87,8.2-1.59l.72.9-.7.22A32.84,32.84,0,0,1,12.37,78v1.87h7.82a8.29,8.29,0,0,0,1.35-.07v1a8.33,8.33,0,0,0-1.35-.08H18.33v3.53ZM13.86,86.4a12.13,12.13,0,0,1-4.28,2.94,3.39,3.39,0,0,0-.75-.85A10.39,10.39,0,0,0,13,85.86Zm3.49-5.64h-5v3.53h5Zm.09,5a10.46,10.46,0,0,0,4.29,2.79,9.23,9.23,0,0,0-.66.89,12.92,12.92,0,0,1-2.44-1.37,11.94,11.94,0,0,1-2-1.75Z"/><path class="cls-4" d="M30.4,76.56a4.14,4.14,0,0,0-.09-1h1.11a4.21,4.21,0,0,0-.07,1v.36h4.26a10.61,10.61,0,0,0,1.54-.09v1a9.13,9.13,0,0,0-1.51-.08H25.83a46.84,46.84,0,0,1-.38,8A8.89,8.89,0,0,1,24.22,89a2.82,2.82,0,0,0-.78-.73A7.48,7.48,0,0,0,24.6,85.1a51.61,51.61,0,0,0,.31-6.89,1.42,1.42,0,0,0,0-.24c0-.3,0-.79-.06-1.11a13,13,0,0,0,1.66.08h3.9Zm-2.64,3.17a7.63,7.63,0,0,0-1.3.07v-.91a7.63,7.63,0,0,0,1.3.07H31a5.7,5.7,0,0,0-.08-.84h1a4.76,4.76,0,0,0-.06.84h3.69a6.1,6.1,0,0,0,1.29-.09v.95a7.72,7.72,0,0,0-1.29-.09H31.9v1.12h2.84a10.45,10.45,0,0,0,1.39-.06,9.31,9.31,0,0,0,0,1.23v2.21a9.49,9.49,0,0,0,0,1.24,13,13,0,0,0-1.39-.06H31.9v1.23h3.89a10,10,0,0,0,1.53-.09v1a11.72,11.72,0,0,0-1.56-.09H31.9v.46A8.26,8.26,0,0,0,32,89.4H30.93A9.36,9.36,0,0,0,31,87.89v-.45H27.34a13.25,13.25,0,0,0-1.42.07v-.94a9,9,0,0,0,1.38.07H31V85.41H28.38a13.16,13.16,0,0,0-1.41.06A9.59,9.59,0,0,0,27,84.21V82A9.28,9.28,0,0,0,27,80.79a10.83,10.83,0,0,0,1.44.06H31V79.73Zm.15,1.87v1.11H31V81.6Zm0,1.83v1.23H31V83.43Zm4-.72h3.3V81.6H31.9Zm0,2h3.3V83.43H31.9Z"/><path class="cls-4" d="M43.53,86.15A8.9,8.9,0,0,1,40.06,89a3.11,3.11,0,0,0-.73-.72,7.72,7.72,0,0,0,2-1.11,6.6,6.6,0,0,0,1.47-1.54Zm2.76,1.72a8.23,8.23,0,0,0,.1,1.5H45.22a7.53,7.53,0,0,0,.11-1.5V85.05h-3.9c-.6,0-1,0-1.49,0A8.81,8.81,0,0,0,40,83.63v-5a7.4,7.4,0,0,0-.09-1.35H41A8.28,8.28,0,0,0,41,78.59v5.62h9.89a10.06,10.06,0,0,0,1.47-.07v1a8.61,8.61,0,0,0-1.46-.09H46.29Zm4.21-6a8.07,8.07,0,0,0,.08,1.41A13.63,13.63,0,0,0,49,83.18H44.26a13.59,13.59,0,0,0-1.54.06,13.69,13.69,0,0,0,.06-1.46V77.55c0-.55,0-.91-.06-1.35a12.54,12.54,0,0,0,1.63.08h4.7a11.9,11.9,0,0,0,1.53-.08,8.45,8.45,0,0,0-.08,1.41Zm-6.82-3.48h5.91V77.09H43.68Zm0,2h5.91V79.1H43.68Zm0,2h5.91V81.12H43.68Zm5.17,3.27a9.9,9.9,0,0,0,2,1.73,9.47,9.47,0,0,0,1.65.87,3.25,3.25,0,0,0-.69.78,12,12,0,0,1-3.74-2.9Z"/><path class="cls-4" d="M66.48,89.39a10.08,10.08,0,0,1-2.09-3.23,9.82,9.82,0,0,1,0-7.38,10.16,10.16,0,0,1,2.09-3.22h1.33a9.55,9.55,0,0,0-2.28,3.1,9.37,9.37,0,0,0,0,7.62,9.57,9.57,0,0,0,2.28,3.11Z"/><path class="cls-4" d="M72.39,82.68a9.57,9.57,0,0,1-1,2.25,9.1,9.1,0,0,1-1.24,1.73,3.38,3.38,0,0,0-.87-.6,7.71,7.71,0,0,0,2.13-3.72Zm-1.31-1.23a11.51,11.51,0,0,0-1.56.09V80.49a10.35,10.35,0,0,0,1.56.09h4.35V78.47H72.07a9.21,9.21,0,0,0-1.39.07v-1a8.62,8.62,0,0,0,1.39.07h3.36V77a5.63,5.63,0,0,0-.09-1.32H76.5A5.35,5.35,0,0,0,76.39,77v.55h3.69a8.75,8.75,0,0,0,1.4-.07v1a9.2,9.2,0,0,0-1.4-.07H76.39v2.11H81.1a10.35,10.35,0,0,0,1.56-.09v1.05a11.51,11.51,0,0,0-1.56-.09h-3V88c0,.84-.39,1.12-1.53,1.12-.45,0-1,0-1.59-.07a5.43,5.43,0,0,0-.24-1,9.8,9.8,0,0,0,1.64.15c.61,0,.76-.08.76-.39V81.45H75.1a12.84,12.84,0,0,1-.7,4.22,7,7,0,0,1-3.62,3.63,2.86,2.86,0,0,0-.75-.83c2-.87,2.87-1.71,3.47-3.16a10.84,10.84,0,0,0,.63-3.86Zm9.3.84a10.46,10.46,0,0,0,2.34,4.28,4.74,4.74,0,0,0-.93.63,14.55,14.55,0,0,1-2.32-4.56Z"/><path class="cls-4" d="M86.53,77.42c-.7.18-.93.22-1.66.37a3.37,3.37,0,0,0-.44-.82A11.88,11.88,0,0,0,87.94,76a2.56,2.56,0,0,0,.62-.35l.58.83a2.72,2.72,0,0,0-.34.13c-.6.24-.86.35-1.4.53v2.41h.36a7.09,7.09,0,0,0,1.13-.06v1a7.15,7.15,0,0,0-1.14-.06H87.4A7.45,7.45,0,0,0,89,82.82a3.26,3.26,0,0,0-.51.75,7.62,7.62,0,0,1-1.17-2.06c.06,1,.09,1.68.09,2.25v3.81a10.22,10.22,0,0,0,.09,1.71h-1a12.21,12.21,0,0,0,.09-1.71v-3.3c0-.66,0-1.54.08-2.49a10.94,10.94,0,0,1-2.09,4.13,2.45,2.45,0,0,0-.54-.86,8.58,8.58,0,0,0,1.64-2.47,13.18,13.18,0,0,0,.78-2.16h-.75a7,7,0,0,0-1.29.07v-1a7.43,7.43,0,0,0,1.3.07h.87Zm1.68,10.72a7.82,7.82,0,0,0,1.35-3.22l.83.31A10.92,10.92,0,0,1,89,88.64ZM90.3,78.05a10.11,10.11,0,0,0-1.38.07v-1a8.35,8.35,0,0,0,1.38.08h2.49V77a7,7,0,0,0-.09-1.22h1A6.54,6.54,0,0,0,93.64,77v.27h2.67a10.84,10.84,0,0,0,1.53-.09v1a11.35,11.35,0,0,0-1.51-.09H93.64v1.23h2.1a14.28,14.28,0,0,0,1.5-.06,12.3,12.3,0,0,0-.06,1.38v1.92a10.63,10.63,0,0,0,.06,1.56A13.92,13.92,0,0,0,95.65,84H90.93a14.37,14.37,0,0,0-1.53,0,13.24,13.24,0,0,0,0-1.53V80.6c0-.8,0-1,0-1.38a14.28,14.28,0,0,0,1.5.06h1.89V78.05Zm0,2v1.2h2.51V80Zm0,1.94v1.27h2.51V82ZM92,87.8c0,.34.22.4,1.53.4,1.06,0,1.44-.09,1.59-.36a4.47,4.47,0,0,0,.24-1.63,2.29,2.29,0,0,0,.87.34c-.18,1.43-.29,1.83-.59,2.1s-.93.39-2.28.39c-1.84,0-2.25-.16-2.25-.94V85.92a7,7,0,0,0-.07-1.23h1A7.82,7.82,0,0,0,92,85.91Zm2.25-1.22a9.55,9.55,0,0,0-1.8-1.93l.63-.48A11.45,11.45,0,0,1,95,86Zm2.07-5.34V80H93.64v1.2Zm0,2V82H93.64v1.27Zm1.11,5a11.93,11.93,0,0,0-1.5-3.08l.78-.39a16.08,16.08,0,0,1,1.54,3Z"/><path class="cls-4" d="M105.66,77a7.44,7.44,0,0,0-.11-1.28h1.2a6.85,6.85,0,0,0-.1,1.28v.91h4.71a11.19,11.19,0,0,0,1.71-.1v1.08a10.85,10.85,0,0,0-1.7-.09h-10a11.9,11.9,0,0,0-1.66.09V77.78a11.48,11.48,0,0,0,1.68.1h4.29Zm0,3.37a7.06,7.06,0,0,0-.08-1.18h1.13a6.92,6.92,0,0,0-.08,1.2v.48h3.56c.6,0,1,0,1.42-.06a10.61,10.61,0,0,0-.06,1.21v4.32c0,1-.3,1.23-1.53,1.23-.61,0-.87,0-1.56-.06a3.13,3.13,0,0,0-.25-1,12.49,12.49,0,0,0,1.75.15c.48,0,.6-.09.6-.42V81.69h-3.93v6a10.32,10.32,0,0,0,.11,1.64h-1.19a11.11,11.11,0,0,0,.11-1.64v-6H102.1v4.52a11.75,11.75,0,0,0,.09,1.62H101a12.38,12.38,0,0,0,.09-1.62V82a11.51,11.51,0,0,0-.06-1.23,14.33,14.33,0,0,0,1.44.06h3.18Z"/><path class="cls-4" d="M116.79,83.18a14.15,14.15,0,0,1-2,1.77,2.49,2.49,0,0,0-.54-.83,12,12,0,0,0,2.67-2.4,11.15,11.15,0,0,0,1.63-2.64H116c-.37,0-.75,0-1.15.06v-1a10.37,10.37,0,0,0,1.12.06h.83V76.85a10.89,10.89,0,0,0-.09-1.17h1.09a6.29,6.29,0,0,0-.09,1.18v1.37h.9a3.26,3.26,0,0,0,.71,0l.43.57a5.25,5.25,0,0,0-.3.59A13.37,13.37,0,0,1,117.81,82a5.93,5.93,0,0,0,1.87,1.44,3.14,3.14,0,0,0-.46.82A7.8,7.8,0,0,1,117.7,83v4.79a11.11,11.11,0,0,0,.08,1.57h-1.07a14.81,14.81,0,0,0,.08-1.57Zm2.77-7a13,13,0,0,0,1.49.08h5.53a11.78,11.78,0,0,0,1.49-.08v1a11.79,11.79,0,0,0-1.43-.08H121a12.3,12.3,0,0,0-1.43.08Zm6.83,6.54a10.21,10.21,0,0,0,1.45-.06,13,13,0,0,0-.06,1.44v3.59a11.2,11.2,0,0,0,.09,1.54h-1v-.75h-6.12v.69h-1a10.94,10.94,0,0,0,.09-1.51V84.17a13.27,13.27,0,0,0-.06-1.44c.36,0,.82,0,1.48,0Zm-5.84-3.31a9.16,9.16,0,0,0-.06-1.25,9.33,9.33,0,0,0,1.41.08h3.78a10.58,10.58,0,0,0,1.38-.08,10.26,10.26,0,0,0-.06,1.23v1a10.24,10.24,0,0,0,.06,1.26,12.61,12.61,0,0,0-1.42-.06h-3.72a13.84,13.84,0,0,0-1.43.06,8.6,8.6,0,0,0,.06-1.23Zm.21,5.71h2.52V83.55h-2.52Zm0,2.58h2.52V85.94h-2.52Zm.68-6.91h4.66V79.07h-4.66Zm2.7,4.33h2.74V83.55h-2.74Zm0,2.58h2.74V85.94h-2.74Z"/><path class="cls-4" d="M130.3,79.46a13.74,13.74,0,0,1,2.51,1.86l-.57.79a10.37,10.37,0,0,0-2.49-2Zm2.61,4.92a20.11,20.11,0,0,1-1.74,3.7c-.24.42-.24.42-.33.56l-.22.37-.86-.81a12.7,12.7,0,0,0,2.4-4.45ZM131,75.81a11.54,11.54,0,0,1,2.28,1.92l-.61.72a10,10,0,0,0-2.28-2Zm3.92,9.92v1.9a10,10,0,0,0,.09,1.52h-1.1a10.89,10.89,0,0,0,.09-1.52V81.17a11,11,0,0,0-.06-1.4,9.62,9.62,0,0,0,1.43.08h2.38V78.32h-2.61a10.61,10.61,0,0,0-1.54.09v-1a10.63,10.63,0,0,0,1.56.09h2.59V77a8.51,8.51,0,0,0-.09-1.35h1.1a8.56,8.56,0,0,0-.09,1.36v.47h3.13a10.82,10.82,0,0,0,1.56-.09v1a11.14,11.14,0,0,0-1.53-.09h-3.16v1.53h2.59a13.64,13.64,0,0,0,1.53-.06c0,.42-.07,1-.07,1.68v6.45c0,.81-.33,1.08-1.28,1.08a13.27,13.27,0,0,1-1.47-.09,3.13,3.13,0,0,0-.22-1,8.42,8.42,0,0,0,1.59.16c.39,0,.46-.06.46-.39v-2h-3.13v2a9,9,0,0,0,.09,1.38h-1.1a9,9,0,0,0,.09-1.38v-2Zm2.83-5.07h-2.83v1.69h2.83Zm0,2.49h-2.83v1.78h2.83Zm4-.8V80.66h-3.13v1.69Zm0,2.58V83.15h-3.13v1.78Zm-.06-7.62a8.65,8.65,0,0,0-2-1.11l.54-.64a9.65,9.65,0,0,1,2,1.09Z"/><path class="cls-4" d="M144.85,89.39a9.23,9.23,0,0,0,2.28-3.11,9.37,9.37,0,0,0,0-7.62,9.3,9.3,0,0,0-2.28-3.1h1.34a10.11,10.11,0,0,1,2.08,3.22,9.82,9.82,0,0,1,0,7.38,10,10,0,0,1-2.08,3.23Z"/><path class="cls-4" d="M160.66,82.47a1.23,1.23,0,1,1-2.46,0,1.23,1.23,0,1,1,2.46,0Z"/><path class="cls-4" d="M14.88,98.3c-1.79.15-2.66.19-4.47.21a3,3,0,0,0-.41-.89l1.26,0A40.43,40.43,0,0,0,18.69,97a7.09,7.09,0,0,0,1.2-.32l.7.9-.6.09c-1,.2-3.34.53-4.21.6v1.61h4.38a11.82,11.82,0,0,0,1.68-.09v1a12.86,12.86,0,0,0-1.7-.09H16.59a13.49,13.49,0,0,0,5.65,2.94,3.91,3.91,0,0,0-.54.92A17.69,17.69,0,0,1,18.46,103a10.61,10.61,0,0,1-2.74-2.19c0,.45.06.67.06.87v.63a5,5,0,0,0,.07,1.06h-1a5.28,5.28,0,0,0,.08-1.08v-.61a5.77,5.77,0,0,1,.06-.87A10.3,10.3,0,0,1,12.46,103a17.27,17.27,0,0,1-3.16,1.58,3.12,3.12,0,0,0-.57-.84,13,13,0,0,0,5.34-3.08H10.59a12.18,12.18,0,0,0-1.64.09v-1a11.64,11.64,0,0,0,1.65.09h4.28Zm-3.9,12a10,10,0,0,0,.09-1.52v-3.31c0-.84,0-1.11-.06-1.64a15.13,15.13,0,0,0,1.63.06h5.58a15,15,0,0,0,1.62-.06,15.91,15.91,0,0,0-.06,1.64v3.31a9.33,9.33,0,0,0,.09,1.52h-1v-.87H12v.87Zm1-4.1h6.85v-1.5H12Zm0,2.42h6.85V107H12Z"/><path class="cls-4" d="M26.62,101.25c0,4.46-.55,6.63-2.23,8.81a3.46,3.46,0,0,0-.86-.8c1.56-1.72,2.07-3.73,2.07-8.05v-3a8.42,8.42,0,0,0-.09-1.33h1.2a6.56,6.56,0,0,0-.09,1.36Zm4.8-3.72a9.63,9.63,0,0,0-.09,1.41v7.94a11.7,11.7,0,0,0,.09,1.69h-1.2a11.79,11.79,0,0,0,.09-1.69V98.94a8.15,8.15,0,0,0-.09-1.41ZM36.27,97a7.11,7.11,0,0,0-.09,1.46v9.76a11.16,11.16,0,0,0,.09,1.88h-1.2a13.85,13.85,0,0,0,.09-1.88V98.42A8,8,0,0,0,35.07,97Z"/><path class="cls-4" d="M43.53,107.15A8.9,8.9,0,0,1,40.06,110a3.11,3.11,0,0,0-.73-.72,7.72,7.72,0,0,0,2-1.11,6.6,6.6,0,0,0,1.47-1.54Zm2.76,1.72a8.23,8.23,0,0,0,.1,1.5H45.22a7.53,7.53,0,0,0,.11-1.5v-2.82h-3.9c-.6,0-1,0-1.49,0a8.81,8.81,0,0,0,.08-1.47v-5a7.4,7.4,0,0,0-.09-1.35H41A8.28,8.28,0,0,0,41,99.59v5.62h9.89a10.06,10.06,0,0,0,1.47-.07v1a8.61,8.61,0,0,0-1.46-.09H46.29Zm4.21-6a8.07,8.07,0,0,0,.08,1.41,13.63,13.63,0,0,0-1.58-.06H44.26a13.59,13.59,0,0,0-1.54.06,13.69,13.69,0,0,0,.06-1.46V98.55c0-.55,0-.91-.06-1.35a12.54,12.54,0,0,0,1.63.08h4.7a11.9,11.9,0,0,0,1.53-.08,8.45,8.45,0,0,0-.08,1.41Zm-6.82-3.48h5.91V98.09H43.68Zm0,2h5.91V100.1H43.68Zm0,2h5.91v-1.29H43.68Zm5.17,3.27a9.9,9.9,0,0,0,2,1.73,9.47,9.47,0,0,0,1.65.87,3.25,3.25,0,0,0-.69.78,12,12,0,0,1-3.74-2.9Z"/><path class="cls-4" d="M66.48,110.39a10.08,10.08,0,0,1-2.09-3.23,9.82,9.82,0,0,1,0-7.38,10.16,10.16,0,0,1,2.09-3.22h1.33a9.55,9.55,0,0,0-2.28,3.1,9.37,9.37,0,0,0,0,7.62,9.57,9.57,0,0,0,2.28,3.11Z"/><path class="cls-4" d="M72.91,100.53c-.07.24-.12.42-.43,1.65a15.63,15.63,0,0,1-2.54,5.61,3.54,3.54,0,0,0-.91-.61,12.5,12.5,0,0,0,2.32-4.67,11.08,11.08,0,0,0,.45-2.25Zm3.74-3.63a10.27,10.27,0,0,0-.09,1.53v10.32c0,1-.35,1.23-1.59,1.23-.62,0-1.22,0-2.07-.1a3.76,3.76,0,0,0-.27-1.11,11.84,11.84,0,0,0,2.22.25c.54,0,.67-.07.67-.37V98.42a10.59,10.59,0,0,0-.09-1.52ZM80,100.17a12.48,12.48,0,0,0,.93,3.11,13.46,13.46,0,0,0,2.23,3.81,3.73,3.73,0,0,0-.85.75,15.61,15.61,0,0,1-2.55-4.77s-.24-.78-.72-2.3a3,3,0,0,0-.11-.3Z"/><path class="cls-4" d="M92.25,108.57a13.48,13.48,0,0,0,1.47-3.48l1,.39a21.45,21.45,0,0,1-1.47,3.09h2.94a12.33,12.33,0,0,0,1.63-.09v1.13a9.25,9.25,0,0,0-1.63-.11h-10a10.42,10.42,0,0,0-1.71.11v-1.13a13.68,13.68,0,0,0,1.71.09Zm5.19-10.09a13.9,13.9,0,0,0-1.71-.09H86.5a13.15,13.15,0,0,0-1.66.09V97.35a9.4,9.4,0,0,0,1.66.11h9.21a10.29,10.29,0,0,0,1.73-.11Zm-10.88,3a7.36,7.36,0,0,0-.09-1.41,13.38,13.38,0,0,0,1.65.07h5.94A14.77,14.77,0,0,0,95.8,100a8.93,8.93,0,0,0-.09,1.38v2a7.92,7.92,0,0,0,.09,1.37,13.79,13.79,0,0,0-1.63-.08h-6a13.7,13.7,0,0,0-1.65.08,10.08,10.08,0,0,0,.09-1.46Zm1,2.37h7.23V101H87.52Zm1.17,1.32a14,14,0,0,1,1.17,2.8l-.93.39a11.24,11.24,0,0,0-1.2-2.88Z"/><path class="cls-4" d="M102.33,100c0-.29.06-.89.1-1.8h-1a8,8,0,0,0-1.17.06v-.92a8.4,8.4,0,0,0,1.27.08h3.83c.43,0,.72,0,1.09-.05a8.2,8.2,0,0,0,0,.89V100h.13a9.55,9.55,0,0,0,1,0v.93a9.49,9.49,0,0,0-1,0h-.13v1.71a8.16,8.16,0,0,0,0,.9c-.34,0-.72-.05-1.09-.05h-2.7a11.38,11.38,0,0,1-.59,1.59h3.29c.52,0,.76,0,1.11,0a10.25,10.25,0,0,0,0,1.21v2.81a6.84,6.84,0,0,0,.08,1.29h-1v-.71h-3.14v.86h-1a8,8,0,0,0,.08-1.26v-1.73a9.57,9.57,0,0,1,.06-1.32,12.23,12.23,0,0,1-1.47,2.34,3.93,3.93,0,0,0-.69-.75,10.21,10.21,0,0,0,2.38-4.29h-.39a6.56,6.56,0,0,0-1.21.08v-.93a10.07,10.07,0,0,0,1.2.06H102a14.81,14.81,0,0,0,.3-1.77h-1.48a9.25,9.25,0,0,0-1.31.07v-1a8.77,8.77,0,0,0,1.31.08Zm0,8.74h3.14v-2.94h-3.14Zm.77-7.9c-.08.67-.17,1.21-.29,1.77h2.69v-1.77Zm2.4-.84v-1.8h-2.21c0,.3,0,.51,0,.66,0,.61,0,.61-.07,1.14Zm7.57-2.21c-.12.23-.16.32-.28.6a30.49,30.49,0,0,1-1.83,3.71,6.62,6.62,0,0,1,1.63,2.31,5.2,5.2,0,0,1,.41,2c0,1.44-.57,1.93-2.18,1.93a11.29,11.29,0,0,1-1.23-.06,2.66,2.66,0,0,0-.19-1,8.65,8.65,0,0,0,1.54.13c.8,0,1.08-.25,1.08-1a5,5,0,0,0-.33-1.76,6.13,6.13,0,0,0-1.84-2.43,19.25,19.25,0,0,0,2-4.17h-3v10.61a10.07,10.07,0,0,0,.1,1.66h-1.14a11.41,11.41,0,0,0,.09-1.66V98.49a12.6,12.6,0,0,0-.06-1.36c.38,0,.71,0,1.2,0h2.42a6.5,6.5,0,0,0,1.15-.06Z"/><path class="cls-4" d="M122.71,103.47a1.23,1.23,0,1,1-2.46,0,1.23,1.23,0,1,1,2.46,0Z"/><path class="cls-4" d="M136.08,98.3c-1.79.15-2.66.19-4.47.21a3,3,0,0,0-.41-.89l1.26,0a40.43,40.43,0,0,0,7.43-.69,7.09,7.09,0,0,0,1.2-.32l.7.9-.6.09c-1,.2-3.34.53-4.21.6v1.61h4.38a11.82,11.82,0,0,0,1.68-.09v1a12.86,12.86,0,0,0-1.7-.09h-3.55a13.49,13.49,0,0,0,5.65,2.94,3.91,3.91,0,0,0-.54.92,17.69,17.69,0,0,1-3.24-1.47,10.61,10.61,0,0,1-2.74-2.19c0,.45.06.67.06.87v.63a5,5,0,0,0,.07,1.06H136a5.28,5.28,0,0,0,.08-1.08v-.61a5.77,5.77,0,0,1,.06-.87,10.3,10.3,0,0,1-2.48,2.14,17.27,17.27,0,0,1-3.16,1.58,3.12,3.12,0,0,0-.57-.84,13,13,0,0,0,5.34-3.08h-3.48a12.18,12.18,0,0,0-1.64.09v-1a11.64,11.64,0,0,0,1.65.09h4.28Zm-3.9,12a10,10,0,0,0,.09-1.52v-3.31c0-.84,0-1.11-.06-1.64a15.13,15.13,0,0,0,1.63.06h5.58a15,15,0,0,0,1.62-.06,15.91,15.91,0,0,0-.06,1.64v3.31a9.33,9.33,0,0,0,.09,1.52h-1v-.87h-6.84v.87Zm1-4.1h6.85v-1.5H133.2Zm0,2.42h6.85V107H133.2Z"/><path class="cls-4" d="M147.82,101.25c0,4.46-.55,6.63-2.23,8.81a3.46,3.46,0,0,0-.86-.8c1.56-1.72,2.07-3.73,2.07-8.05v-3a8.42,8.42,0,0,0-.09-1.33h1.2a6.56,6.56,0,0,0-.09,1.36Zm4.8-3.72a9.63,9.63,0,0,0-.09,1.41v7.94a11.7,11.7,0,0,0,.09,1.69h-1.2a11.79,11.79,0,0,0,.09-1.69V98.94a8.15,8.15,0,0,0-.09-1.41Zm4.85-.57a7.11,7.11,0,0,0-.09,1.46v9.76a11.16,11.16,0,0,0,.09,1.88h-1.2a13.85,13.85,0,0,0,.09-1.88V98.42a8,8,0,0,0-.09-1.46Z"/><path class="cls-4" d="M11.43,121c0-.29.06-.89.1-1.8h-1a8,8,0,0,0-1.17.06v-.92a8.4,8.4,0,0,0,1.27.08h3.83c.43,0,.72,0,1.09-.05a8.2,8.2,0,0,0,0,.89V121h.13a9.55,9.55,0,0,0,1,0v.93a9.49,9.49,0,0,0-1,0h-.13v1.71a8.16,8.16,0,0,0,0,.9c-.34,0-.72-.05-1.09-.05h-2.7a11.38,11.38,0,0,1-.59,1.59h3.29c.52,0,.76,0,1.11,0a10.25,10.25,0,0,0-.05,1.21v2.81a6.84,6.84,0,0,0,.08,1.29h-1v-.71H11.47v.86h-1a8,8,0,0,0,.08-1.26v-1.73a9.57,9.57,0,0,1,.06-1.32,12.23,12.23,0,0,1-1.47,2.34,3.93,3.93,0,0,0-.69-.75,10.21,10.21,0,0,0,2.38-4.29h-.39a6.56,6.56,0,0,0-1.21.08v-.93a10.07,10.07,0,0,0,1.2.06h.61a14.81,14.81,0,0,0,.3-1.77H9.87a9.25,9.25,0,0,0-1.31.07v-1a8.77,8.77,0,0,0,1.31.08Zm0,8.74h3.14v-2.94H11.47Zm.77-7.9c-.08.67-.17,1.21-.29,1.77h2.69v-1.77Zm2.4-.84v-1.8H12.43c0,.3,0,.51,0,.66,0,.61,0,.61-.07,1.14Zm7.57-2.21c-.12.23-.16.32-.28.6a30.49,30.49,0,0,1-1.83,3.71,6.62,6.62,0,0,1,1.63,2.31,5.2,5.2,0,0,1,.41,2c0,1.44-.57,1.93-2.18,1.93a11.29,11.29,0,0,1-1.23-.06,2.66,2.66,0,0,0-.19-1,8.65,8.65,0,0,0,1.54.13c.8,0,1.08-.25,1.08-1a5,5,0,0,0-.33-1.76A6.13,6.13,0,0,0,19,123.18,19.25,19.25,0,0,0,21,119H18v10.61a10.07,10.07,0,0,0,.1,1.66H16.93a11.41,11.41,0,0,0,.09-1.66V119.49a12.6,12.6,0,0,0-.06-1.36c.38,0,.71,0,1.2,0h2.42a6.5,6.5,0,0,0,1.15-.06Z"/><path class="cls-4" d="M23.65,131.39a9.23,9.23,0,0,0,2.28-3.11,9.37,9.37,0,0,0,0-7.62,9.3,9.3,0,0,0-2.28-3.1H25a10.11,10.11,0,0,1,2.08,3.22,9.82,9.82,0,0,1,0,7.38A10,10,0,0,1,25,131.39Z"/><path class="cls-4" d="M39.46,124.47a1.23,1.23,0,0,1-2.46,0,1.23,1.23,0,0,1,2.46,0Z"/><path class="cls-4" d="M57.18,126.56a1.23,1.23,0,0,0-.24.22,10.82,10.82,0,0,1-2.7,2.25,16.41,16.41,0,0,0,5.89,1.31,2.56,2.56,0,0,0-.43,1,20.44,20.44,0,0,1-3.42-.63,13.28,13.28,0,0,1-2.93-1.14,18.92,18.92,0,0,1-6.09,1.81,2.4,2.4,0,0,0-.51-.88A18.55,18.55,0,0,0,52.48,129a10,10,0,0,1-2.14-1.8A11.52,11.52,0,0,1,47.49,129a2.29,2.29,0,0,0-.63-.72,11.11,11.11,0,0,0,3.06-1.78A7.26,7.26,0,0,0,51.34,125c-.61-.07-.78-.22-.78-.72v-1.14a6,6,0,0,0-.07-1.08h1a5,5,0,0,0-.07,1v1c0,.13,0,.18.16.22a7.81,7.81,0,0,0,1.47.08,7.8,7.8,0,0,0,2.34-.14c.24-.1.33-.36.44-1.08a2.09,2.09,0,0,0,.79.42C56.26,125,56.2,125,53.37,125h-1c-.43.58-.55.72-.79,1h3.75a7,7,0,0,0,1.32-.07Zm-7.47-5.87a7.45,7.45,0,0,0-.63-1.3l-1.35,0a2.86,2.86,0,0,0-.38-.83h.8a68.3,68.3,0,0,0,7.32-.43,12,12,0,0,0,2.94-.59l.72.86-2.1.36.84.24c-.56,1-.66,1.2-1,1.66h1.18a15.13,15.13,0,0,0,1.7-.06,8,8,0,0,0-.06,1.13v.87a6.79,6.79,0,0,0,.07.94h-1v-2.08H48v2.13H47a7.37,7.37,0,0,0,.08-1.07v-.82a10,10,0,0,0-.06-1.11,14.38,14.38,0,0,0,1.84.07ZM47.35,125a5.23,5.23,0,0,0,1.83-2.67l.78.38a8.2,8.2,0,0,1-1.93,3Zm5.81-4.35a7.65,7.65,0,0,0-.66-1.45c-1.11.06-1.92.1-2.57.12a7.16,7.16,0,0,1,.66,1.33ZM51,126.77a8.41,8.41,0,0,0,2.33,1.83,8.66,8.66,0,0,0,2.4-1.83Zm3.18-3a9.17,9.17,0,0,0-1.93-1.48l.52-.56a11.39,11.39,0,0,1,2,1.41Zm1.79-3a7.26,7.26,0,0,0,.94-1.89c-1.15.17-2,.26-3.55.38a8.91,8.91,0,0,1,.66,1.51Zm2.67,4.89a12.25,12.25,0,0,0-2.25-2.88l.67-.46A16.32,16.32,0,0,1,59.4,125Z"/><path class="cls-4" d="M65.17,120.75a7.49,7.49,0,0,0,1.26-.06c0,.45,0,.45-.09,1.22a16.18,16.18,0,0,1-1.09,5.28c.39.31.57.49,1.12,1l-.57.81a11.82,11.82,0,0,0-1-1,10.28,10.28,0,0,1-2.44,3,3.45,3.45,0,0,0-.65-.72,8.65,8.65,0,0,0,2.42-2.88A17.34,17.34,0,0,0,62,125.87a21,21,0,0,0,1.15-4.29h-.25a6.57,6.57,0,0,0-1.22.07v-1a7,7,0,0,0,1.26.07h.35a21.16,21.16,0,0,0,.24-2.7v-.33l1,.11a15.77,15.77,0,0,0-.21,1.6c-.06.53-.1.81-.18,1.32Zm-1.09.83a.74.74,0,0,0,0,.22,27.2,27.2,0,0,1-1,3.75c.66.45.87.62,1.45,1.07a16,16,0,0,0,1-5Zm4.14,1a10.51,10.51,0,0,0-1.35.06v-.9a7.92,7.92,0,0,0,1.38.07h4.14a11.19,11.19,0,0,0,1.44-2.73l.93.33a17.23,17.23,0,0,1-1.43,2.4h.33a5.64,5.64,0,0,0,1.28-.09v.92a10.38,10.38,0,0,0-1.32-.06H70c0,.54-.07.76-.13,1.24h3.75a7.09,7.09,0,0,0,1.53-.09v1a9.68,9.68,0,0,0-1.53-.09h-3.9a7.7,7.7,0,0,1-.29,1.17h3.11a7.64,7.64,0,0,0,1.26-.06l.48.53c-.09.12-.09.12-.32.48A10.26,10.26,0,0,1,72.09,129a14.84,14.84,0,0,0,3.37,1.36,4.28,4.28,0,0,0-.49.87,13.24,13.24,0,0,1-3.57-1.68,10.88,10.88,0,0,1-4,1.77,2.27,2.27,0,0,0-.56-.76,9.7,9.7,0,0,0,3.86-1.52,7.9,7.9,0,0,1-1.83-2,12.44,12.44,0,0,1-1,1.89,12.17,12.17,0,0,1-2.09,2.2,2.83,2.83,0,0,0-.64-.66A9.59,9.59,0,0,0,68,126.93a9.4,9.4,0,0,0,.78-2.31h-.61a9.61,9.61,0,0,0-1.47.08v-.93a9.29,9.29,0,0,0,1.48.07h.74c.06-.45.07-.58.12-1.24Zm6.42-4.32-.8.22a31.23,31.23,0,0,1-6.76,1,2.37,2.37,0,0,0-.38-.81,30.67,30.67,0,0,0,5.69-.7,5.86,5.86,0,0,0,1.56-.53Zm-6.33,3.51a7.51,7.51,0,0,0-1-1.74l.73-.35a9.42,9.42,0,0,1,1,1.7Zm1.17,4.75a7.6,7.6,0,0,0,1.93,2,7.11,7.11,0,0,0,1.65-2Zm1.3-4.87a6.83,6.83,0,0,0-1-1.89l.77-.32a9.89,9.89,0,0,1,1,1.86Z"/><path class="cls-4" d="M81.48,128.15A8.9,8.9,0,0,1,78,131a3.11,3.11,0,0,0-.73-.72,7.72,7.72,0,0,0,2-1.11,6.6,6.6,0,0,0,1.47-1.54Zm2.76,1.72a8.23,8.23,0,0,0,.1,1.5H83.17a7.53,7.53,0,0,0,.11-1.5v-2.82h-3.9c-.6,0-1,0-1.49,0a8.81,8.81,0,0,0,.08-1.47v-5a7.4,7.4,0,0,0-.09-1.35H79a8.28,8.28,0,0,0-.08,1.34v5.62H88.8a10.06,10.06,0,0,0,1.47-.07v1a8.61,8.61,0,0,0-1.46-.09H84.24Zm4.21-6a8.07,8.07,0,0,0,.08,1.41,13.63,13.63,0,0,0-1.58-.06H82.21a13.59,13.59,0,0,0-1.54.06,13.69,13.69,0,0,0,.06-1.46v-4.23c0-.55,0-.91-.06-1.35a12.54,12.54,0,0,0,1.63.08H87a11.9,11.9,0,0,0,1.53-.08,8.45,8.45,0,0,0-.08,1.41Zm-6.82-3.48h5.91v-1.26H81.63Zm0,2h5.91V121.1H81.63Zm0,2h5.91v-1.29H81.63Zm5.17,3.27a9.9,9.9,0,0,0,2,1.73,9.47,9.47,0,0,0,1.65.87,3.25,3.25,0,0,0-.69.78,12,12,0,0,1-3.74-2.9Z"/><path class="cls-4" d="M104.43,131.39a10.08,10.08,0,0,1-2.09-3.23,9.82,9.82,0,0,1,0-7.38,10.16,10.16,0,0,1,2.09-3.22h1.33a9.55,9.55,0,0,0-2.28,3.1,9.37,9.37,0,0,0,0,7.62,9.57,9.57,0,0,0,2.28,3.11Z"/><path class="cls-4" d="M110.16,119.21a7.89,7.89,0,0,0-.09-1.47h1.05a9.12,9.12,0,0,0-.08,1.47v.6h.71a6.76,6.76,0,0,0,1.35-.08v1a8.33,8.33,0,0,0-1.35-.08H111v2H112a7.92,7.92,0,0,0,1.41-.09v1a8.39,8.39,0,0,0-1.41-.09h-.87v2h.84a7,7,0,0,0,1.21-.08v1a6.73,6.73,0,0,0-1.23-.09h-.82v3.06a4.52,4.52,0,0,0,2,.59c.9.09,2.25.13,3.53.13a40.7,40.7,0,0,0,4.21-.19,3,3,0,0,0-.34,1c-.48,0-2.07.08-2.48.08a44.21,44.21,0,0,1-4.74-.12,5.18,5.18,0,0,1-3.33-1.34,6,6,0,0,1-1.23-1.53,11.06,11.06,0,0,1-1.14,3.26,2.45,2.45,0,0,0-.78-.56,10.49,10.49,0,0,0,1.37-5.56,2.47,2.47,0,0,0-.05-.6l1,.06c0,.25,0,.25-.07,1.14,0,.37-.06.66-.12,1.21a6.3,6.3,0,0,0,1.32,1.74v-5.17h-1.49a6.68,6.68,0,0,0-1.42.09v-1a8,8,0,0,0,1.42.09h1.43v-2H109a8.11,8.11,0,0,0-1.31.08v-1a6.61,6.61,0,0,0,1.31.08h1.2Zm10,3a5.48,5.48,0,0,0-.26.72,14.53,14.53,0,0,1-1.41,3.24c.39.9,1,1.81,1.26,1.81s.39-.78.51-1.92a2.19,2.19,0,0,0,.72.54,7.38,7.38,0,0,1-.4,1.64c-.17.46-.42.73-.68.73a1.53,1.53,0,0,1-1.09-.69,6.78,6.78,0,0,1-.86-1.33,11.07,11.07,0,0,1-2.34,2.29,3.17,3.17,0,0,0-.64-.61,9.28,9.28,0,0,0,2.62-2.51,17.41,17.41,0,0,1-.91-5.26h-2v5.73a15.79,15.79,0,0,0,1.93-1.17l.11.82a20.36,20.36,0,0,1-3.47,1.94l-.58.28-.35-.88a10.92,10.92,0,0,0,1.49-.56v-5.67a12.4,12.4,0,0,0-.06-1.36,12.17,12.17,0,0,0,1.38.06h1.53a17.18,17.18,0,0,0-.09-2.37h1a7.71,7.71,0,0,0-.08,1.36c0,.3,0,.42,0,1h1.68a7.86,7.86,0,0,0,1.41-.08v1a9.63,9.63,0,0,0-1.41-.09h-1.65a17,17,0,0,0,.6,4.36,11.23,11.23,0,0,0,1.12-3.34Zm-1.43-4.49a7.89,7.89,0,0,1,1.41,1.49l-.63.52a7.52,7.52,0,0,0-1.39-1.54Z"/><path class="cls-4" d="M124.44,119.7a8.22,8.22,0,0,1-1,1.17,2.18,2.18,0,0,0-.66-.55,5.16,5.16,0,0,0,1.89-2.79l.9.25a1.08,1.08,0,0,0-.12.24c-.15.3-.27.54-.47.89h2.87a8.46,8.46,0,0,0,1.39-.09v1a9.13,9.13,0,0,0-1.36-.08h-1a9.35,9.35,0,0,1-.15,1.52h1.53a8.26,8.26,0,0,0,1.35-.09v1a8.24,8.24,0,0,0-1.33-.09h-1.53a4.36,4.36,0,0,0,.72.76,5.37,5.37,0,0,0,1.9,1.1,3.19,3.19,0,0,0-.6.78,7,7,0,0,1-2.49-2,6.22,6.22,0,0,1-3.16,3,2.3,2.3,0,0,0-.63-.72,5.16,5.16,0,0,0,3.16-2.91H124a9.27,9.27,0,0,0-1.43.09v-1a8.24,8.24,0,0,0,1.38.09h1.94a7.37,7.37,0,0,0,.15-1.52Zm.25,11.55a9.73,9.73,0,0,0,.09-1.53v-3.13a13.64,13.64,0,0,0-.06-1.65c.48,0,.89.06,1.62.06h5.73c.74,0,1.13,0,1.62-.06a16,16,0,0,0-.06,1.65v3.13a9.39,9.39,0,0,0,.09,1.53h-1v-.72h-7v.72Zm1-3.94h7v-1.49h-7Zm0,2.4h7V128.1h-7Zm5.53-5.75A10.68,10.68,0,0,0,130,124a9.41,9.41,0,0,0,.06-1.11v-3a11.65,11.65,0,0,0-.06-1.23,8.51,8.51,0,0,0,1.24.06h2.64a8.58,8.58,0,0,0,1.25-.06,8.79,8.79,0,0,0-.06,1.22v2.95a8,8,0,0,0,.06,1.17,10.31,10.31,0,0,0-1.22-.06Zm-.28-.79h3.19v-3.62H131Z"/><path class="cls-4" d="M140.28,121c0-.29.06-.89.1-1.8h-1a8,8,0,0,0-1.17.06v-.92a8.4,8.4,0,0,0,1.27.08h3.83c.43,0,.72,0,1.09-.05a8.2,8.2,0,0,0,0,.89V121h.13a9.55,9.55,0,0,0,1,0v.93a9.49,9.49,0,0,0-1,0h-.13v1.71a8.16,8.16,0,0,0,0,.9c-.34,0-.72-.05-1.09-.05h-2.7a11.38,11.38,0,0,1-.59,1.59h3.29c.52,0,.76,0,1.11,0a10.25,10.25,0,0,0,0,1.21v2.81a6.84,6.84,0,0,0,.08,1.29h-1v-.71h-3.14v.86h-1a8,8,0,0,0,.08-1.26v-1.73a9.57,9.57,0,0,1,.06-1.32,12.23,12.23,0,0,1-1.47,2.34,3.93,3.93,0,0,0-.69-.75,10.21,10.21,0,0,0,2.38-4.29h-.39a6.56,6.56,0,0,0-1.21.08v-.93a10.07,10.07,0,0,0,1.2.06h.61a14.81,14.81,0,0,0,.3-1.77h-1.48a9.25,9.25,0,0,0-1.31.07v-1a8.77,8.77,0,0,0,1.31.08Zm0,8.74h3.14v-2.94h-3.14Zm.77-7.9c-.08.67-.17,1.21-.29,1.77h2.69v-1.77Zm2.4-.84v-1.8h-2.21c0,.3,0,.51,0,.66,0,.61,0,.61-.07,1.14Zm7.57-2.21c-.12.23-.16.32-.28.6a30.49,30.49,0,0,1-1.83,3.71,6.62,6.62,0,0,1,1.63,2.31,5.2,5.2,0,0,1,.41,2c0,1.44-.57,1.93-2.18,1.93a11.29,11.29,0,0,1-1.23-.06,2.66,2.66,0,0,0-.19-1,8.65,8.65,0,0,0,1.54.13c.8,0,1.08-.25,1.08-1a5,5,0,0,0-.33-1.76,6.13,6.13,0,0,0-1.84-2.43,19.25,19.25,0,0,0,2-4.17h-3v10.61a10.07,10.07,0,0,0,.1,1.66h-1.14a11.41,11.41,0,0,0,.09-1.66V119.49a12.6,12.6,0,0,0-.06-1.36c.38,0,.71,0,1.2,0h2.42a6.5,6.5,0,0,0,1.15-.06Z"/><path class="cls-4" d="M160.66,124.47a1.23,1.23,0,1,1-2.46,0,1.23,1.23,0,1,1,2.46,0Z"/><path class="cls-4" d="M15.88,138.66a11.28,11.28,0,0,0,3.08,3.2,14.24,14.24,0,0,0,3.51,2,3.1,3.1,0,0,0-.62,1,20.29,20.29,0,0,1-3.61-2.25,13.61,13.61,0,0,1-2.91-3,15.7,15.7,0,0,1-3,3.12A16.55,16.55,0,0,1,9,144.75a3.51,3.51,0,0,0-.63-.87,15.56,15.56,0,0,0,4.2-2.68,10.76,10.76,0,0,0,2.19-2.54Zm5,8c-.18.18-.45.46-.62.67l-3,3.66c-.41.51-.71.9-1,1.35l-1.06-.63a9.28,9.28,0,0,0,1.18-1.23L19.3,147H11.88c-.57,0-1.11,0-1.74.09V146a15.79,15.79,0,0,0,1.74.09h6.67a10,10,0,0,0,1.68-.07Zm-8.64-3.5a7.19,7.19,0,0,0,1.18.06h3.95a8.48,8.48,0,0,0,1.26-.06v1a9.36,9.36,0,0,0-1.29-.06h-3.9a7.69,7.69,0,0,0-1.2.06Z"/><path class="cls-4" d="M24.39,142.68A19.77,19.77,0,0,1,27,144.56l-.6.82a13,13,0,0,0-2.63-2Zm2.8,4.58a22.36,22.36,0,0,1-1.93,4.21c-.15.26-.21.38-.29.54l-.88-.78A6.34,6.34,0,0,0,25,150a17.51,17.51,0,0,0,1.43-3.3Zm-1.87-8.34A14.56,14.56,0,0,1,27.9,141l-.62.76a12.53,12.53,0,0,0-2.59-2.17Zm2,4.6a7,7,0,0,0,.86,0h.61A19.08,19.08,0,0,0,31,138.66l1.09.36a5.94,5.94,0,0,0-.31.69,31.47,31.47,0,0,1-1.86,3.83c1.84-.06,3.79-.21,5.4-.41a16.48,16.48,0,0,0-1.74-2.28l.84-.42A27.67,27.67,0,0,1,37.54,145l-.91.52c-.42-.82-.59-1.12-.87-1.6-1.83.21-4.4.43-6.6.54a8.32,8.32,0,0,0-1.65.15Zm2.27,8.72h-1a11.74,11.74,0,0,0,.06-1.4v-3.48a12.13,12.13,0,0,0-.06-1.39A13.2,13.2,0,0,0,30,146H34.6a12.42,12.42,0,0,0,1.47-.06,9.11,9.11,0,0,0-.07,1.56v3.09a9.56,9.56,0,0,0,.09,1.63H35v-.88H29.61Zm0-1.74H35v-3.6H29.59Z"/><path class="cls-4" d="M45.06,140a7.44,7.44,0,0,0-.11-1.28h1.2a6.85,6.85,0,0,0-.1,1.28v.91h4.71a11.19,11.19,0,0,0,1.71-.1v1.08a10.85,10.85,0,0,0-1.7-.09h-10a11.9,11.9,0,0,0-1.66.09v-1.08a11.48,11.48,0,0,0,1.68.1h4.29Zm0,3.37a7.06,7.06,0,0,0-.08-1.18h1.13a6.92,6.92,0,0,0-.08,1.2v.48h3.56c.6,0,1,0,1.42-.06A10.61,10.61,0,0,0,51,145v4.32c0,1-.3,1.23-1.53,1.23-.61,0-.87,0-1.56-.06a3.13,3.13,0,0,0-.25-1,12.49,12.49,0,0,0,1.75.15c.48,0,.6-.09.6-.42v-4.52H46v6a10.32,10.32,0,0,0,.11,1.64H45a11.11,11.11,0,0,0,.11-1.64v-6H41.5v4.52a11.75,11.75,0,0,0,.09,1.62H40.41a12.38,12.38,0,0,0,.09-1.62V145a11.51,11.51,0,0,0-.06-1.23,14.33,14.33,0,0,0,1.44.06h3.18Z"/><path class="cls-4" d="M60.22,147.18c-.87,2-1.75,2.88-2.83,2.88-1.43,0-2.49-1.56-2.49-3.66a6.08,6.08,0,0,1,6.42-6.13,5.78,5.78,0,0,1,4.12,1.48,5,5,0,0,1,1.46,3.66,5.46,5.46,0,0,1-3.44,5.18,12.09,12.09,0,0,1-2.28.69,2.42,2.42,0,0,0-.52-1,9,9,0,0,0,2.5-.7,4.54,4.54,0,0,0,2.66-4.2,4,4,0,0,0-2.39-3.77,4.3,4.3,0,0,0-1.74-.37A22.07,22.07,0,0,1,60.22,147.18ZM58.38,142a5.17,5.17,0,0,0-2.45,4.47c0,1.44.63,2.55,1.44,2.55.63,0,1.23-.71,1.88-2.18a20.61,20.61,0,0,0,1.36-5.55A4.78,4.78,0,0,0,58.38,142Z"/><path class="cls-4" d="M82.63,145.92a14.33,14.33,0,0,0-2-.1H71.41a15,15,0,0,0-2,.1v-1.24a14.49,14.49,0,0,0,2,.1h9.24a13.86,13.86,0,0,0,2-.1Z"/><path class="cls-4" d="M90.88,144.45a7.91,7.91,0,0,0,1.4-.07v1a10.7,10.7,0,0,0-1.37-.07h-5a8.73,8.73,0,0,0-1.43.07v-1a8.8,8.8,0,0,0,1.44.07h3.24a12.22,12.22,0,0,0,1.08-3l.92.31A16,16,0,0,1,90,144.45Zm-.19-4.08a8.19,8.19,0,0,0,1.39-.07v1a7.61,7.61,0,0,0-1.38-.08H86.22a7.8,7.8,0,0,0-1.35.08v-1a8.19,8.19,0,0,0,1.39.07h1.82v-.55a5.69,5.69,0,0,0-.09-1.14h1.12a6.24,6.24,0,0,0-.09,1.15v.54Zm-4.26,11.84h-1a9.21,9.21,0,0,0,.06-1.35v-3.05a12.09,12.09,0,0,0,0-1.26,11.76,11.76,0,0,0,1.18,0h3.56a8.71,8.71,0,0,0,1.09,0,8.74,8.74,0,0,0,0,1.25V151a7.78,7.78,0,0,0,.06,1.19h-1v-.93H86.43Zm.25-10.71a11.79,11.79,0,0,1,1,2.49l-.87.3a10.37,10.37,0,0,0-1-2.49Zm-.25,8.94H90.3v-3H86.43ZM98,139.74a10.68,10.68,0,0,0-.62,1.34,31.57,31.57,0,0,1-1.54,3,7,7,0,0,1,1.69,2.35,5.22,5.22,0,0,1,.45,2.1,1.81,1.81,0,0,1-.76,1.68,3,3,0,0,1-1.35.23c-.41,0-.8,0-1.25-.06a2.84,2.84,0,0,0-.19-1,7.28,7.28,0,0,0,1.45.15c.86,0,1.14-.27,1.14-1.06a4.63,4.63,0,0,0-.49-2,6.18,6.18,0,0,0-1.79-2.18,22.38,22.38,0,0,0,2-4.18h-3v10.66a9,9,0,0,0,.11,1.67H92.76a11.93,11.93,0,0,0,.09-1.65v-10.2c0-.45,0-.87-.06-1.38.39,0,.67,0,1.2,0H96.4a6.63,6.63,0,0,0,1.16-.06Z"/><path class="cls-4" d="M99.4,152.39a9.23,9.23,0,0,0,2.28-3.11,9.37,9.37,0,0,0,0-7.62,9.3,9.3,0,0,0-2.28-3.1h1.34a10.11,10.11,0,0,1,2.08,3.22,9.82,9.82,0,0,1,0,7.38,10,10,0,0,1-2.08,3.23Z"/></g></g></svg>