<svg xmlns="http://www.w3.org/2000/svg" viewBox="0 0 185 145"><defs><style>.cls-1{fill:#fff;}.cls-2{fill:#d1d1d1;}.cls-3{fill:#ca2238;}.cls-4{fill:#666;}</style></defs><title>area-kantou</title><g id="レイヤー_2" data-name="レイヤー 2"><g id="メインデザイン"><rect class="cls-1" x="0.5" y="0.5" width="184" height="144"/><path class="cls-2" d="M184,1V144H1V1H184m1-1H0V145H185V0Z"/><rect class="cls-3" x="168" width="17" height="145"/><path class="cls-1" d="M172,77.67V67.33l9,5.16Z"/><path d="M11.49,23.16a16,16,0,0,0,.11,2.3H9.38a18.17,18.17,0,0,0,.11-2.35V10.59a20.06,20.06,0,0,0-.08-2.13,16.6,16.6,0,0,0,1.94.07h3.44a15.72,15.72,0,0,0,1.94-.07c0,.53-.06,1-.06,1.77v2.69a16.84,16.84,0,0,0,.06,1.71c-.51,0-1.07-.05-1.77-.05H11.49Zm0-12.27h3.32V10H11.49Zm0,2.22h3.32v-.93H11.49Zm7.06,7.6a6.34,6.34,0,0,0,3.38,1.83,7.51,7.51,0,0,0-.41.79,8,8,0,0,0,1.36.12c.48,0,.59-.1.59-.51V14.58H19.73c-.66,0-1.25,0-1.75.05,0-.47.06-.87.06-1.71V10.23C18,9.5,18,9,18,8.46a16.11,16.11,0,0,0,1.94.07h3.69a16.69,16.69,0,0,0,1.95-.07,18.54,18.54,0,0,0-.09,2.11V23.18c0,1.79-.44,2.13-2.7,2.13-.38,0-.61,0-1.1,0a6.6,6.6,0,0,0-.32-1.56,6.63,6.63,0,0,0-.21.63,8.81,8.81,0,0,1-3.73-2.58c-.83,1.52-2,2.39-4.29,3.13a5.64,5.64,0,0,0-1.06-1.65,7.88,7.88,0,0,0,2.45-.91A3.94,3.94,0,0,0,16,20.71H14.11a10.19,10.19,0,0,0-1.66.1V19.06a7.89,7.89,0,0,0,1.52.09h2.36c0-.41,0-.58.06-1.15H14.18a8.78,8.78,0,0,0-1.37.07V16.42a8.16,8.16,0,0,0,1.33.07h.65a9.44,9.44,0,0,0-.93-1.31l1.75-.43a15.64,15.64,0,0,1,1.08,1.74h1.56a8.11,8.11,0,0,0,.83-1.74l1.85.36c-.29.55-.44.81-.8,1.38h.64a8.63,8.63,0,0,0,1.37-.07v1.65A8.22,8.22,0,0,0,20.79,18H18.25c0,.41,0,.76-.08,1.15H21a7.77,7.77,0,0,0,1.52-.09v1.75a8.36,8.36,0,0,0-1.54-.1Zm1.37-9.82h3.55V10H19.92Zm0,2.22h3.55v-.93H19.92Z"/><path d="M30.16,11.54a17.17,17.17,0,0,0-2.3.11V9.56a16.21,16.21,0,0,0,2.44.13h5A11.81,11.81,0,0,0,35.18,8H37.5a9,9,0,0,0-.12,1.71h5.19a15.4,15.4,0,0,0,2.49-.13v2.09a19.66,19.66,0,0,0-2.36-.11H37.38V12.6h4a17.5,17.5,0,0,0,2.11-.08,18.55,18.55,0,0,0-.08,1.92V18a14.34,14.34,0,0,0,.08,1.94,14.24,14.24,0,0,0-2.13-.1H39.05a13.43,13.43,0,0,0,6.59,3.25,13.09,13.09,0,0,0-1.08,2,19.1,19.1,0,0,1-3.89-1.73,12.18,12.18,0,0,1-3.33-2.73c0,.63,0,1,0,1.31v1.37a11.92,11.92,0,0,0,.13,2.16H35.18a16,16,0,0,0,.13-2.16V21.91c0-.23,0-.93,0-1.29a12.59,12.59,0,0,1-3.63,3,19.9,19.9,0,0,1-3.25,1.46,8.47,8.47,0,0,0-1.06-1.92A16.39,16.39,0,0,0,31,21.76a11.31,11.31,0,0,0,2.72-2H31.64a13.74,13.74,0,0,0-2.14.1,2.37,2.37,0,0,1,.06-.56c0-.07,0-.07,0-1.38v-3.5a17.41,17.41,0,0,0-.07-2,14.32,14.32,0,0,0,2.07.09h3.74V11.54Zm1.43,2.69v1.16h3.72V14.23Zm0,2.74v1.2h3.72V17Zm5.79-1.58h4V14.23h-4Zm0,2.78h4V17h-4Z"/><path d="M56.5,20.64h4.59a12.93,12.93,0,0,0,2.47-.14v2.4a18.51,18.51,0,0,0-2.43-.1H49.73a18.51,18.51,0,0,0-2.43.1V20.5a12.93,12.93,0,0,0,2.47.14h4.29V12.83h-2.9a20.9,20.9,0,0,0-2.43.09V10.55a14.12,14.12,0,0,0,2.47.13h8.45a14.19,14.19,0,0,0,2.47-.13v2.37a20.79,20.79,0,0,0-2.43-.09H56.5Z"/><path d="M71.39,9a10.44,10.44,0,0,0-.07,1.71v5.24a10.09,10.09,0,0,0,.07,1.68h-2.6a13.34,13.34,0,0,0,.09-1.71V10.68A11.83,11.83,0,0,0,68.81,9ZM80,9a8.53,8.53,0,0,0-.1,1.77v2.56a22.7,22.7,0,0,1-.49,5.76,7.27,7.27,0,0,1-3.74,4.42A16.44,16.44,0,0,1,72,25a6.37,6.37,0,0,0-1.33-2.26,10.38,10.38,0,0,0,4.1-1.52c1.79-1.18,2.42-2.34,2.63-4.85.07-.82.09-1.65.09-3.17V10.81A10.79,10.79,0,0,0,77.38,9Z"/><path d="M94,13.27a7.76,7.76,0,0,0-.07,1.53c-.08,3.25-.59,5.08-1.89,6.73A11,11,0,0,1,87.14,25a6.64,6.64,0,0,0-1.5-2.17A8.7,8.7,0,0,0,89,21.17c1.93-1.54,2.54-3.17,2.54-6.77a5,5,0,0,0-.09-1.13Zm7.71-2.4A5.59,5.59,0,0,0,101,12.2,11.94,11.94,0,0,1,98,16a12.52,12.52,0,0,1-2.28,1.58A6.38,6.38,0,0,0,94,15.87a8.85,8.85,0,0,0,2.77-1.75,7.92,7.92,0,0,0,1.81-2.41h-10a19.14,19.14,0,0,0-2.58.11V9.45a15.58,15.58,0,0,0,2.62.15H98.6a5.26,5.26,0,0,0,1.84-.17Z"/><path class="cls-4" d="M10.93,35.3a9.47,9.47,0,0,0-.07-1.56h1.06a10.24,10.24,0,0,0-.07,1.54V36.8h.79a6.29,6.29,0,0,0,1-.06v.91c-.3,0-.63,0-1,0h-.75a7.68,7.68,0,0,0,1.71,2.83,4.54,4.54,0,0,0-.51.8,8.31,8.31,0,0,1-1.32-2.52c0,1.11.06,1.89.06,2.46v4.53a12.3,12.3,0,0,0,.09,1.74h-1.1A9.67,9.67,0,0,0,11,45.71V41.45c0-.71,0-1,.09-2.4A12.29,12.29,0,0,1,9,43.52a3.75,3.75,0,0,0-.54-.86,13.07,13.07,0,0,0,2.36-5H9.87a6.36,6.36,0,0,0-1.07.06v-.93a7.41,7.41,0,0,0,1.08.06h1Zm9.69,2.25A7.8,7.8,0,0,0,22,37.47v1a7.66,7.66,0,0,0-1.35-.08H17.94c0,.9,0,1.31-.08,2h2.37a9.53,9.53,0,0,0,1.28-.06A11.81,11.81,0,0,0,21.39,42a17.47,17.47,0,0,1-.62,4.27c-.22.6-.61.83-1.44.83-.43,0-.93,0-1.45-.08a3.17,3.17,0,0,0-.18-1,8.53,8.53,0,0,0,1.56.16c.51,0,.67-.15.81-.73a22.39,22.39,0,0,0,.43-4.31H17.77a13.27,13.27,0,0,1-1.06,4,7.35,7.35,0,0,1-1.44,2.16,3.12,3.12,0,0,0-.78-.66A6.65,6.65,0,0,0,16.3,43.7,16.58,16.58,0,0,0,17,38.4H15.09a22.4,22.4,0,0,1-.65,5.84,8.89,8.89,0,0,1-1.35,3.06,3,3,0,0,0-.75-.69,6.69,6.69,0,0,0,1.13-2.21,25.59,25.59,0,0,0,.73-7.29,15.12,15.12,0,0,0-.07-2,2.14,2.14,0,0,0,.4,0,26.79,26.79,0,0,0,4.86-.66,7.09,7.09,0,0,0,1.79-.62l.55.89a5.69,5.69,0,0,0-.66.18,29.88,29.88,0,0,1-6,1v1.59Z"/><path class="cls-4" d="M31.11,37.76a17,17,0,0,0,2.58,3.54,15.75,15.75,0,0,0,3.82,3,3.65,3.65,0,0,0-.75.94,16.17,16.17,0,0,1-2-1.54A13.61,13.61,0,0,1,32.25,41a15.92,15.92,0,0,1-1.37-2.25c.05.7.08,1.38.08,1.93v4.88a11.88,11.88,0,0,0,.1,1.72H29.85a12.36,12.36,0,0,0,.1-1.72V40.68c0-.49,0-1.26.06-1.87a13.81,13.81,0,0,1-2.73,4,19.46,19.46,0,0,1-2.89,2.46,3.12,3.12,0,0,0-.77-.87,17.42,17.42,0,0,0,6.2-6.63h-4a14.8,14.8,0,0,0-1.65.09V36.77a11.45,11.45,0,0,0,1.64.1H30V35.21a8.88,8.88,0,0,0-.1-1.38h1.21a8.89,8.89,0,0,0-.1,1.36v1.68h4.41a10.49,10.49,0,0,0,1.69-.1v1.08a15.35,15.35,0,0,0-1.68-.09Z"/><path class="cls-4" d="M43.53,44.15A8.9,8.9,0,0,1,40.06,47a3.11,3.11,0,0,0-.73-.72,7.72,7.72,0,0,0,2-1.11,6.6,6.6,0,0,0,1.47-1.54Zm2.76,1.72a8.23,8.23,0,0,0,.1,1.5H45.22a7.53,7.53,0,0,0,.11-1.5V43.05h-3.9c-.6,0-1,0-1.49.05A8.81,8.81,0,0,0,40,41.63v-5a7.4,7.4,0,0,0-.09-1.35H41A8.28,8.28,0,0,0,41,36.59v5.62h9.89a10.06,10.06,0,0,0,1.47-.07v1a8.61,8.61,0,0,0-1.46-.09H46.29Zm4.21-6a8.07,8.07,0,0,0,.08,1.41A13.63,13.63,0,0,0,49,41.18H44.26a13.59,13.59,0,0,0-1.54.06,13.69,13.69,0,0,0,.06-1.46V35.55c0-.55,0-.91-.06-1.35a12.54,12.54,0,0,0,1.63.08h4.7a11.9,11.9,0,0,0,1.53-.08,8.45,8.45,0,0,0-.08,1.41Zm-6.82-3.48h5.91V35.09H43.68Zm0,2h5.91V37.1H43.68Zm0,2h5.91V39.12H43.68Zm5.17,3.27a9.9,9.9,0,0,0,2,1.73,9.47,9.47,0,0,0,1.65.87,3.25,3.25,0,0,0-.69.78,12,12,0,0,1-3.74-2.9Z"/><path class="cls-4" d="M62.11,40.47a1.23,1.23,0,0,1-2.46,0,1.23,1.23,0,0,1,2.46,0Z"/><path class="cls-4" d="M71.7,36.77c0-.29,0-.8,0-1.55h-.9a8.54,8.54,0,0,0-1.08.06v-.94a5.53,5.53,0,0,0,1.14.07h3.3a10.67,10.67,0,0,0,1.11,0,4.42,4.42,0,0,0,0,.87v1.52a3.34,3.34,0,0,0,.74-.06v.93a3.1,3.1,0,0,0-.74-.06v1.57a4.48,4.48,0,0,0,0,.89L75,40H72.12a9.56,9.56,0,0,1-.5,1.41h2.79a5.68,5.68,0,0,0,1-.06,7.46,7.46,0,0,0,0,1.09v3a8.08,8.08,0,0,0,.07,1.27h-1v-.61H71.86v1h-1A11,11,0,0,0,71,45.93V44.18c0-.36,0-.92.06-1.46a11.22,11.22,0,0,1-1.41,2.19,2.62,2.62,0,0,0-.6-.76A10.21,10.21,0,0,0,71.25,40h-.48l-1,0v-.91a5.87,5.87,0,0,0,1,.06h.69c.09-.54.16-1,.21-1.62H70.41a6.67,6.67,0,0,0-1.26.07v-1a6.74,6.74,0,0,0,1.26.08Zm.16,8.55h2.58V42.23H71.86Zm.65-7.74c-.08.7-.12,1.05-.21,1.62h2.1V37.58Zm1.89-.81V35.22H72.63c0,1.05,0,1.05-.06,1.55Zm5.25-.15a12.66,12.66,0,0,0,1.36-3L82,34a16.7,16.7,0,0,1-1.4,2.64h.86a7.05,7.05,0,0,0,1.33-.08v1a7.53,7.53,0,0,0-1.3-.08H79.77v2.07h1.29a6.65,6.65,0,0,0,1.33-.07v1a8.41,8.41,0,0,0-1.3-.08H79.77v2.31h1.89A9.33,9.33,0,0,0,83,42.62v1a8.88,8.88,0,0,0-1.33-.09H79.77v2.16a9.15,9.15,0,0,0,.09,1.59H78.73a12.1,12.1,0,0,0,.09-1.59V43.56H77a6.39,6.39,0,0,0-1.23.08v-1a6.94,6.94,0,0,0,1.24.07h1.77V40.38h-1.2a5.81,5.81,0,0,0-1.18.08v-1a6.16,6.16,0,0,0,1.18.07h1.2V37.47H77.53a7.83,7.83,0,0,0-1.24.08v-1a6.51,6.51,0,0,0,1.24.08Zm-1.86-.21A10,10,0,0,0,76.69,34l.84-.31a13.31,13.31,0,0,1,1.11,2.4Z"/><path class="cls-4" d="M87.18,43.29a12.39,12.39,0,0,1-1.76,3.57l-1-.54A8.15,8.15,0,0,0,86.32,43Zm4.63-1.78H96a9.37,9.37,0,0,0,1.34-.06c0,.19,0,.19-.17,1.36a17.24,17.24,0,0,1-.61,3.47c-.26.76-.6.94-1.83.94-.38,0-.66,0-1.23,0a3.11,3.11,0,0,0-.24-1,10.45,10.45,0,0,0,1.56.14c.69,0,.85-.14,1-.87a19.42,19.42,0,0,0,.47-3.09H87.51c-.45,0-.83,0-1.19,0,0-.39.05-.67.05-1.41V35.87c0-.56,0-.93-.06-1.38a10.56,10.56,0,0,0,1.54.07h7.29a11,11,0,0,0,1.56-.07v1a9.26,9.26,0,0,0-1.42-.07H91.81V36.9h2.72A8.8,8.8,0,0,0,96,36.83v1a8.47,8.47,0,0,0-1.44-.08H91.81v1.44h2.75A8.32,8.32,0,0,0,96,39.08v1A8.6,8.6,0,0,0,94.56,40H91.81Zm-.88-6.09H87.3V36.9h3.63Zm0,2.29H87.3v1.44h3.63ZM87.3,40v1.55h3.63V40Zm1.89,3.23a14.91,14.91,0,0,1,.55,3.09l-.94.19a14.94,14.94,0,0,0-.47-3.13Zm2.31-.11a12.27,12.27,0,0,1,1,2.61l-.87.33a11,11,0,0,0-1-2.71Zm2.34-.15A11.63,11.63,0,0,1,95,45l-.77.42a9.57,9.57,0,0,0-1.11-2.19Z"/><path class="cls-4" d="M104.13,44.15A8.9,8.9,0,0,1,100.66,47a3.11,3.11,0,0,0-.73-.72,7.72,7.72,0,0,0,1.95-1.11,6.6,6.6,0,0,0,1.47-1.54Zm2.76,1.72a8.23,8.23,0,0,0,.1,1.5h-1.17a7.53,7.53,0,0,0,.11-1.5V43.05H102c-.6,0-1,0-1.49.05a8.81,8.81,0,0,0,.08-1.47v-5a7.4,7.4,0,0,0-.09-1.35h1.11a8.28,8.28,0,0,0-.08,1.34v5.62h9.89a10.06,10.06,0,0,0,1.47-.07v1a8.61,8.61,0,0,0-1.46-.09h-4.57Zm4.21-6a8.07,8.07,0,0,0,.08,1.41,13.63,13.63,0,0,0-1.58-.06h-4.74a13.59,13.59,0,0,0-1.54.06,13.69,13.69,0,0,0,.06-1.46V35.55c0-.55,0-.91-.06-1.35a12.54,12.54,0,0,0,1.63.08h4.7a11.9,11.9,0,0,0,1.53-.08,8.45,8.45,0,0,0-.08,1.41Zm-6.82-3.48h5.91V35.09h-5.91Zm0,2h5.91V37.1h-5.91Zm0,2h5.91V39.12h-5.91Zm5.17,3.27a9.9,9.9,0,0,0,2,1.73,9.47,9.47,0,0,0,1.65.87,3.25,3.25,0,0,0-.69.78,12,12,0,0,1-3.74-2.9Z"/><path class="cls-4" d="M122.71,40.47a1.23,1.23,0,0,1-2.46,0,1.23,1.23,0,1,1,2.46,0Z"/><path class="cls-4" d="M134.62,43.34A26.37,26.37,0,0,1,131,45.09a6,6,0,0,0-.64.29l-.42-1.07a5,5,0,0,0,1.2-.33,16.22,16.22,0,0,0,3.33-1.59Zm-.75-8.76a5.45,5.45,0,0,0-.09-1h1.1a5,5,0,0,0-.09,1v.51h3.55v-.51a5.28,5.28,0,0,0-.09-1h1.1a5,5,0,0,0-.09,1v.51h2.32a11.73,11.73,0,0,0,1.68-.09v1a12.17,12.17,0,0,0-1.66-.08h-2.34v.47a5,5,0,0,0,.07.94h-1.05a6,6,0,0,0,.06-.93v-.48h-3.55v.56a5.38,5.38,0,0,0,.06.93h-1a8.18,8.18,0,0,0,.07-.93v-.56h-2.16a12.27,12.27,0,0,0-1.66.08V35a12,12,0,0,0,1.69.09h2.13Zm-3.4,3.81a6.82,6.82,0,0,0,1.23.07h1.5a6.84,6.84,0,0,0,1.2-.07v1a6.91,6.91,0,0,0-1.2-.07h-1.52a6.9,6.9,0,0,0-1.21.07Zm7.86,1.42a3.29,3.29,0,0,0-.08.72,4.72,4.72,0,0,0,1.29,3.41,7.36,7.36,0,0,0,3.93,2.32,3.51,3.51,0,0,0-.55.93,8.92,8.92,0,0,1-3.38-1.95,5.37,5.37,0,0,1-1.71-2.59,4.92,4.92,0,0,1-1.56,2.73,8,8,0,0,1-3.36,1.87,3.37,3.37,0,0,0-.6-.87,6.75,6.75,0,0,0,2.87-1.27,5.23,5.23,0,0,0,2-2.93,5.7,5.7,0,0,0,.17-1.54,4.49,4.49,0,0,0-.08-.83Zm2.77-1.41a10.42,10.42,0,0,0,1.41-.06l.57.57a4.31,4.31,0,0,0-.36.53,11.91,11.91,0,0,1-2.07,2.61,3.5,3.5,0,0,0-.79-.53,7.59,7.59,0,0,0,2-2.32h-5.44a12.13,12.13,0,0,1-1.91,2.53,3,3,0,0,0-.82-.58,8.55,8.55,0,0,0,1.71-1.95,7.14,7.14,0,0,0,1-2.36l1,.26a12.14,12.14,0,0,1-.54,1.3Z"/><path class="cls-4" d="M146.73,35.45a12.14,12.14,0,0,0-.09-1.65h1.09a12.51,12.51,0,0,0-.09,1.66v2.22h.24a8.36,8.36,0,0,0,1.23-.06v1c-.43,0-.85-.06-1.24-.06h-.23v4.22a12.81,12.81,0,0,0,1.37-.86l.07.93a26.68,26.68,0,0,1-3.3,1.85l-.58.3-.32-1a9.49,9.49,0,0,0,1.85-.75V38.52h-.36a9.86,9.86,0,0,0-1.28.08v-1a8.62,8.62,0,0,0,1.31.07h.33ZM155,37a29.29,29.29,0,0,0,.72,4.94A11.7,11.7,0,0,0,157,38.58l1,.36c-.18.42-.21.53-.34.87A19.88,19.88,0,0,1,156,43c.54,1.48,1.31,2.86,1.58,2.86s.34-.81.46-2.19a2.58,2.58,0,0,0,.78.62c-.25,1.93-.57,2.65-1.17,2.65s-1.56-1.11-2.29-3a10.37,10.37,0,0,1-3.24,3,2.43,2.43,0,0,0-.71-.72A9.75,9.75,0,0,0,155.08,43a24.38,24.38,0,0,1-1-6h-3.45v.47c0,.25,0,1.08,0,1.66h1.59a10,10,0,0,0,1.33-.06.62.62,0,0,0,0,.12c0,.2,0,.2-.09,1.7a7.19,7.19,0,0,1-.59,3.22,1.36,1.36,0,0,1-1.14.36c-.28,0-.72,0-1.09,0a2.65,2.65,0,0,0-.17-1,6.54,6.54,0,0,0,1.17.12c.41,0,.59-.09.66-.33a14,14,0,0,0,.33-3.3h-2a18,18,0,0,1-.72,4.5A7.78,7.78,0,0,1,148.5,47a2.45,2.45,0,0,0-.81-.6c1.54-1.73,2.05-3.86,2.05-8.55a13.94,13.94,0,0,0-.06-1.76c.78.06.95.08,1.46.08h2.92c0-.44,0-.86,0-1.41a5.94,5.94,0,0,0-.06-1H155a5.72,5.72,0,0,0-.07,1.11c0,.22,0,.61,0,1.32h1.74a10.35,10.35,0,0,0,1.56-.09v1a15.61,15.61,0,0,0-1.61-.08Zm2.26-1.11a7.53,7.53,0,0,0-1.71-1.51l.57-.53a10.84,10.84,0,0,1,1.76,1.43Z"/><path class="cls-4" d="M13.23,65.15A8.9,8.9,0,0,1,9.76,68,3.11,3.11,0,0,0,9,67.32a7.72,7.72,0,0,0,2-1.11,6.6,6.6,0,0,0,1.47-1.54ZM16,66.87a8.23,8.23,0,0,0,.1,1.5H14.92a7.53,7.53,0,0,0,.11-1.5V64.05h-3.9c-.6,0-1,0-1.49,0a8.81,8.81,0,0,0,.08-1.47v-5a7.4,7.4,0,0,0-.09-1.35h1.11a8.28,8.28,0,0,0-.08,1.34v5.62h9.89A10.06,10.06,0,0,0,22,63.14v1a8.61,8.61,0,0,0-1.46-.09H16Zm4.21-6a8.07,8.07,0,0,0,.08,1.41,13.63,13.63,0,0,0-1.58-.06H14a13.59,13.59,0,0,0-1.54.06,13.69,13.69,0,0,0,.06-1.46V56.55c0-.55,0-.91-.06-1.35a12.54,12.54,0,0,0,1.63.08h4.7a11.9,11.9,0,0,0,1.53-.08,8.45,8.45,0,0,0-.08,1.41Zm-6.82-3.48h5.91V56.09H13.38Zm0,2h5.91V58.1H13.38Zm0,2h5.91V60.12H13.38Zm5.17,3.27a9.9,9.9,0,0,0,2,1.73,9.47,9.47,0,0,0,1.65.87,3.25,3.25,0,0,0-.69.78,12,12,0,0,1-3.74-2.9Z"/><path class="cls-4" d="M31.81,61.47a1.23,1.23,0,0,1-2.46,0,1.23,1.23,0,0,1,2.46,0Z"/><path class="cls-4" d="M40.84,56.28a9.68,9.68,0,0,0-.09-1.42h1.11a8.27,8.27,0,0,0-.09,1.41v2.28h.35a5,5,0,0,0,1.2-.09v1a8.4,8.4,0,0,0-1.2-.06h-.35V64.1c.63-.29.92-.44,1.68-.86l.06.95a27.2,27.2,0,0,1-3.88,1.72l-.53.23-.27-1a11.67,11.67,0,0,0,2-.63V59.39h-.55a5.6,5.6,0,0,0-1.26.09v-1a6,6,0,0,0,1.26.09h.55Zm3.6,5a9.39,9.39,0,0,0-1.5.09v-1a7.61,7.61,0,0,0,1.38.09h7a7.06,7.06,0,0,0,1.3-.09v1a6.31,6.31,0,0,0-1.29-.09h-.12v5.8c0,.5-.12.78-.4.93a2.59,2.59,0,0,1-1.16.15l-1.51,0a3.71,3.71,0,0,0-.24-.94,17.24,17.24,0,0,0,1.75.1c.54,0,.65-.06.65-.36V61.28Zm3.9-4.17a6,6,0,0,0,3.93,2.28,3.37,3.37,0,0,0-.51.85,7,7,0,0,1-4.12-2.76,5.43,5.43,0,0,1-3.56,2.75,2.33,2.33,0,0,0-.52-.77,7.85,7.85,0,0,0,1.89-.76,3.53,3.53,0,0,0,1.42-1.59H45a8.21,8.21,0,0,0-1.36.07v-1a8.93,8.93,0,0,0,1.38.09H47.1a4.55,4.55,0,0,0,.1-1,3.6,3.6,0,0,0,0-.56l1,0a4.59,4.59,0,0,0-.07.7c0,.36,0,.56-.09.87h2.46a10.63,10.63,0,0,0,1.56-.09v1c-.47,0-.95-.07-1.55-.07Zm.42,7.6a11.79,11.79,0,0,0,.05,1.22c-.32,0-.68-.05-1.16-.05H45.13v1h-.94a10.28,10.28,0,0,0,.06-1.25V63.59c0-.51,0-.77,0-1.2a11.86,11.86,0,0,0,1.2,0h2.22a11.76,11.76,0,0,0,1.19,0,12,12,0,0,0-.05,1.21Zm-3.63.38h2.76V63.21H45.13Z"/><path class="cls-4" d="M56.58,56.63a12.86,12.86,0,0,0-1.7.09V55.59a9.18,9.18,0,0,0,1.7.11h8.61a10,10,0,0,0,1.75-.11v1.13a14,14,0,0,0-1.74-.09h-4v3.81h3.27A9.09,9.09,0,0,0,66,60.35v1.06c-.47,0-.87-.06-1.55-.06H61.2v5h4.66a10.46,10.46,0,0,0,1.61-.09v1.14a9.38,9.38,0,0,0-1.64-.11H56.08a10.74,10.74,0,0,0-1.74.11V66.29a13.11,13.11,0,0,0,1.74.09h4.1v-5H57.37c-.72,0-1.17,0-1.6.06V60.35a9.88,9.88,0,0,0,1.6.09h2.81V56.63Zm6.9,5.49A21.11,21.11,0,0,1,65.89,65l-.79.63a19.23,19.23,0,0,0-2.39-3Z"/><path class="cls-4" d="M73.83,65.15A8.9,8.9,0,0,1,70.36,68a3.11,3.11,0,0,0-.73-.72,7.72,7.72,0,0,0,2-1.11,6.6,6.6,0,0,0,1.47-1.54Zm2.76,1.72a8.23,8.23,0,0,0,.1,1.5H75.52a7.53,7.53,0,0,0,.11-1.5V64.05h-3.9c-.6,0-1,0-1.49,0a8.81,8.81,0,0,0,.08-1.47v-5a7.4,7.4,0,0,0-.09-1.35h1.11a8.28,8.28,0,0,0-.08,1.34v5.62h9.89a10.06,10.06,0,0,0,1.47-.07v1a8.61,8.61,0,0,0-1.46-.09H76.59Zm4.21-6a8.07,8.07,0,0,0,.08,1.41,13.63,13.63,0,0,0-1.58-.06H74.56a13.59,13.59,0,0,0-1.54.06,13.69,13.69,0,0,0,.06-1.46V56.55c0-.55,0-.91-.06-1.35a12.54,12.54,0,0,0,1.63.08h4.7a11.9,11.9,0,0,0,1.53-.08,8.45,8.45,0,0,0-.08,1.41ZM74,57.35h5.91V56.09H74Zm0,2h5.91V58.1H74Zm0,2h5.91V60.12H74Zm5.17,3.27a9.9,9.9,0,0,0,2,1.73,9.47,9.47,0,0,0,1.65.87,3.25,3.25,0,0,0-.69.78,12,12,0,0,1-3.74-2.9Z"/><path class="cls-4" d="M92.41,61.47a1.23,1.23,0,1,1-2.46,0,1.23,1.23,0,1,1,2.46,0Z"/><path class="cls-4" d="M101.46,57.09a11.3,11.3,0,0,0-1.77.09v-1a10.72,10.72,0,0,0,1.81.11h4.26v-.12a8.4,8.4,0,0,0-.1-1.46h1.11a7.89,7.89,0,0,0-.11,1.46v.12h4.49a9.82,9.82,0,0,0,1.87-.11v1a14,14,0,0,0-1.84-.09h-4.52v1.25h3.27a10.77,10.77,0,0,0,1.71-.08,14.46,14.46,0,0,0-.06,1.58V62a10.57,10.57,0,0,0,.06,1.59,9.78,9.78,0,0,0-1.71-.09h-2.58a11.82,11.82,0,0,0,6.18,3.33,4.06,4.06,0,0,0-.57.95,16.56,16.56,0,0,1-3.37-1.49,10.9,10.9,0,0,1-3-2.46c0,.39,0,.89,0,1.17v1.53a8.16,8.16,0,0,0,.11,1.67h-1.11a10.71,10.71,0,0,0,.1-1.67V65.06c0-.29,0-.74,0-1.16A9.2,9.2,0,0,1,104,65.61a14.46,14.46,0,0,1-4.19,2.19,3.68,3.68,0,0,0-.55-.9,12.35,12.35,0,0,0,3.64-1.6,8.3,8.3,0,0,0,2.1-1.76h-2.19a9.82,9.82,0,0,0-1.74.09l0-.19a13.6,13.6,0,0,0,0-1.4V59.87a13.18,13.18,0,0,0-.06-1.62,8.9,8.9,0,0,0,1.67.09h3V57.09Zm.64,2V60.5h3.66V59.12Zm0,2.14v1.52h3.66V61.26Zm4.56-.76h4V59.12h-4Zm0,2.28h4V61.26h-4Z"/><path class="cls-4" d="M119,63.9a11.26,11.26,0,0,1-3.54,3.77,3.19,3.19,0,0,0-.69-.78,8.16,8.16,0,0,0,1.93-1.49,7.5,7.5,0,0,0,1.46-2ZM120.87,56a6.09,6.09,0,0,0-.11-1.26H122a5.06,5.06,0,0,0-.11,1.26v.55h4.64a10.15,10.15,0,0,0,1.66-.1v1.06a9,9,0,0,0-1.63-.09h-10a9.1,9.1,0,0,0-1.61.09V56.42a10.46,10.46,0,0,0,1.67.1h4.26Zm-2.73,6.75a10.43,10.43,0,0,0-1.34.06,8.62,8.62,0,0,0,.06-1.22V59.87a9.16,9.16,0,0,0-.06-1.25,10,10,0,0,0,1.34.06h6.52a9.18,9.18,0,0,0,1.38-.06,10.06,10.06,0,0,0-.06,1.25v1.69c0,.53,0,.83,0,1.2-.39,0-.8,0-1.37,0h-2.61v4.17c0,.85-.39,1.12-1.65,1.12-.33,0-1,0-1.47-.06a3.07,3.07,0,0,0-.25-1,8.87,8.87,0,0,0,1.62.15c.66,0,.78-.06.78-.36v-4Zm-.33-.83H125V59.54h-7.23Zm6.81,1.49a8,8,0,0,0,1.47,1.89,9.16,9.16,0,0,0,2.08,1.57,3.39,3.39,0,0,0-.69.83,11.47,11.47,0,0,1-1.89-1.56,15.18,15.18,0,0,1-1.8-2.21Z"/><path class="cls-4" d="M131.55,60a7.71,7.71,0,0,0-1.53.09v-1a8.57,8.57,0,0,0,1.53.09h1.54V57.24H132a8.47,8.47,0,0,0-1.36.08v-1a6,6,0,0,0,1.36.09h1.11v-.49a7.86,7.86,0,0,0-.09-1.32h1.08a7.62,7.62,0,0,0-.07,1.32v.49h.46a5,5,0,0,0,1.23-.09v1a10.76,10.76,0,0,0-1.17-.06H134v1.91h.46a14.5,14.5,0,0,0,2.06-2.9,5.8,5.8,0,0,0,.42-1l.93.54a3,3,0,0,0-.36.53,16,16,0,0,1-1.94,2.82h.48a10.39,10.39,0,0,0,1.58-.08v1A11.86,11.86,0,0,0,136.2,60h-1.35a22.12,22.12,0,0,1-1.71,1.59h2.22a10.33,10.33,0,0,0,1.36-.06,14.61,14.61,0,0,0,0,1.57v3.48a11.51,11.51,0,0,0,.06,1.49h-1v-.68h-3.37v.92h-1a12,12,0,0,0,.09-1.64V62.82c-.64.48-.81.62-1.5,1.07a2.4,2.4,0,0,0-.52-.81A17.67,17.67,0,0,0,133.69,60Zm.87,4h3.37V62.33h-3.37Zm0,2.6h3.37V64.74h-3.37Zm10.87-10.85c-.1.2-.1.2-.6,1.34-.42.94-.85,1.77-1.51,3a6.51,6.51,0,0,1,1.51,2,5.26,5.26,0,0,1,.59,2.33,1.86,1.86,0,0,1-.83,1.77,3.14,3.14,0,0,1-1.5.25c-.24,0-.6,0-1,0a3,3,0,0,0-.21-1,8.3,8.3,0,0,0,1.44.12c.83,0,1.11-.3,1.11-1.22a4.82,4.82,0,0,0-.7-2.41,6.65,6.65,0,0,0-1.47-1.65,22.44,22.44,0,0,0,2-4.17h-3V66.29a16.8,16.8,0,0,0,.1,2h-1.14a14.67,14.67,0,0,0,.09-2.06V56.46a12.6,12.6,0,0,0-.06-1.36c.39,0,.66,0,1.23,0h2.36a6.37,6.37,0,0,0,1.15-.06Z"/><path class="cls-4" d="M153,61.47a1.23,1.23,0,0,1-2.46,0,1.23,1.23,0,1,1,2.46,0Z"/><path class="cls-4" d="M11.83,87.66a12.59,12.59,0,0,0,.09,1.62H10.83a11.17,11.17,0,0,0,.09-1.62V83.18a12.92,12.92,0,0,1-2,1.86,2.81,2.81,0,0,0-.52-.84,12.06,12.06,0,0,0,4.32-5.15H10.09a6.64,6.64,0,0,0-1.17.08v-1a6,6,0,0,0,1.13.07h.85V76.8a7.59,7.59,0,0,0-.09-1.17h1.11a6.18,6.18,0,0,0-.09,1.19v1.39h.75a5.5,5.5,0,0,0,.86,0l.43.52a2.29,2.29,0,0,0-.21.42A18.21,18.21,0,0,1,12,81.87a11.09,11.09,0,0,0,2.16,1.82,3.71,3.71,0,0,0-.48.82,10.6,10.6,0,0,1-1.83-1.69Zm5.61-10.44a11.89,11.89,0,0,0-.09-1.59h1.08a12.65,12.65,0,0,0-.09,1.61V78h1.92a10.37,10.37,0,0,0,1.47-.06,10.45,10.45,0,0,0-.06,1.32v5a12,12,0,0,0,.06,1.36h-1v-.88H18.34v2.85a13,13,0,0,0,.09,1.71H17.35a13.5,13.5,0,0,0,.09-1.68V84.74h-2.2v1h-1a12.27,12.27,0,0,0,.06-1.36V79.26a11.85,11.85,0,0,0-.06-1.32,10.28,10.28,0,0,0,1.47.06h1.69Zm-2.2,1.62V80.9h2.2V78.84Zm0,2.87v2.2h2.2v-2.2Zm5.53-.81V78.84H18.34V80.9Zm0,3v-2.2H18.34v2.2Z"/><path class="cls-4" d="M35.38,77.31a11.66,11.66,0,0,0,1.7-.09v1c-.39,0-1-.07-1.65-.07h-3a10,10,0,0,0,5.27,3.73,4.34,4.34,0,0,0-.57.9,12.5,12.5,0,0,1-3.57-2.16,10.57,10.57,0,0,1-2.16-2.47H29.85A9.43,9.43,0,0,1,28,80.34a15.67,15.67,0,0,1-3.76,2.45,2.65,2.65,0,0,0-.63-.81,12.86,12.86,0,0,0,3.28-1.86,8.62,8.62,0,0,0,1.88-2H25.72c-.73,0-1.26,0-1.66.07v-1a11.17,11.17,0,0,0,1.68.09h3.57A5.85,5.85,0,0,0,30,75.54l1.12.18a5,5,0,0,0-.28.62c-.17.36-.27.61-.47,1Zm-7.3,7.89a11.36,11.36,0,0,1-3.24,3.57,2.82,2.82,0,0,0-.77-.73,8.49,8.49,0,0,0,3.15-3.3Zm-1.94-1a11,11,0,0,0-1.5.09v-1a9.31,9.31,0,0,0,1.47.09h9a9.2,9.2,0,0,0,1.45-.09v1a10.88,10.88,0,0,0-1.5-.09H31.23V88c0,.9-.32,1.11-1.65,1.11l-1.23,0a3.07,3.07,0,0,0-.27-1,10.45,10.45,0,0,0,1.56.14c.48,0,.61-.09.61-.42V84.2Zm1.43-3.41a6.42,6.42,0,0,0,1.21.08h3.6a6.47,6.47,0,0,0,1.22-.08v1a6.63,6.63,0,0,0-1.22-.07h-3.6a6.77,6.77,0,0,0-1.21.07Zm6.3,4a8.76,8.76,0,0,0,3.31,3.16,4.67,4.67,0,0,0-.72.83,12,12,0,0,1-3.4-3.56Z"/><path class="cls-4" d="M41.77,80.25c0,4.46-.55,6.63-2.23,8.81a3.46,3.46,0,0,0-.86-.8c1.56-1.72,2.07-3.73,2.07-8.05v-3a8.42,8.42,0,0,0-.09-1.33h1.2a6.56,6.56,0,0,0-.09,1.36Zm4.8-3.72a9.63,9.63,0,0,0-.09,1.41v7.94a11.7,11.7,0,0,0,.09,1.69h-1.2a11.79,11.79,0,0,0,.09-1.69V77.94a8.15,8.15,0,0,0-.09-1.41ZM51.42,76a7.11,7.11,0,0,0-.09,1.46v9.76a11.16,11.16,0,0,0,.09,1.88h-1.2a13.85,13.85,0,0,0,.09-1.88V77.42A8,8,0,0,0,50.22,76Z"/><path class="cls-4" d="M58.68,86.15A8.9,8.9,0,0,1,55.21,89a3.11,3.11,0,0,0-.73-.72,7.72,7.72,0,0,0,2-1.11,6.6,6.6,0,0,0,1.47-1.54Zm2.76,1.72a8.23,8.23,0,0,0,.1,1.5H60.37a7.53,7.53,0,0,0,.11-1.5V85.05h-3.9c-.6,0-1,0-1.49,0a8.81,8.81,0,0,0,.08-1.47v-5a7.4,7.4,0,0,0-.09-1.35h1.11a8.28,8.28,0,0,0-.08,1.34v5.62H66a10.06,10.06,0,0,0,1.47-.07v1A8.61,8.61,0,0,0,66,85.05H61.44Zm4.21-6a8.07,8.07,0,0,0,.08,1.41,13.63,13.63,0,0,0-1.58-.06H59.41a13.59,13.59,0,0,0-1.54.06,13.69,13.69,0,0,0,.06-1.46V77.55c0-.55,0-.91-.06-1.35a12.54,12.54,0,0,0,1.63.08h4.7a11.9,11.9,0,0,0,1.53-.08,8.45,8.45,0,0,0-.08,1.41Zm-6.82-3.48h5.91V77.09H58.83Zm0,2h5.91V79.1H58.83Zm0,2h5.91V81.12H58.83ZM64,85.68a9.9,9.9,0,0,0,2,1.73,9.47,9.47,0,0,0,1.65.87,3.25,3.25,0,0,0-.69.78,12,12,0,0,1-3.74-2.9Z"/><path class="cls-4" d="M77.26,82.47a1.23,1.23,0,0,1-2.46,0,1.23,1.23,0,0,1,2.46,0Z"/><path class="cls-4" d="M90.55,78a40.46,40.46,0,0,1-4.66.5,2.7,2.7,0,0,0-.44-1,31.59,31.59,0,0,0,8.75-1.29,5.4,5.4,0,0,0,1.38-.57l.72.93-.47.15a29.52,29.52,0,0,1-4.23,1.08v3.57h4.59a10.35,10.35,0,0,0,1.68-.1v1.15a11.79,11.79,0,0,0-1.65-.1H91.6v5.29a8.91,8.91,0,0,0,.11,1.77H90.45a11.44,11.44,0,0,0,.1-1.81V82.34H86.19a11.9,11.9,0,0,0-1.61.1V81.29a10.18,10.18,0,0,0,1.62.1h4.35Z"/><path class="cls-4" d="M111.31,84.93a12,12,0,0,0,1.7-.09v1a14,14,0,0,0-1.7-.09h-4.08a13.11,13.11,0,0,0,2.6,1.45,16.3,16.3,0,0,0,3.46,1,2.7,2.7,0,0,0-.58.88,14.78,14.78,0,0,1-6-2.85c0,.6.06.93.06,1.2V88a6.07,6.07,0,0,0,.09,1.38h-1a9.79,9.79,0,0,0,.09-1.38v-.62c0-.25,0-.7.06-1.2a12.65,12.65,0,0,1-3,1.86,15.21,15.21,0,0,1-2.75,1,2.8,2.8,0,0,0-.61-.84,13.75,13.75,0,0,0,5.82-2.47h-3.93a13.67,13.67,0,0,0-1.67.09v-1a11.29,11.29,0,0,0,1.67.09h4.38a6.17,6.17,0,0,0-.06-.94h1a5.45,5.45,0,0,0-.06.85v.09Zm0-5.34A9.17,9.17,0,0,0,113,79.5v.93a12.19,12.19,0,0,0-1.68-.07h-.77v.81a5.68,5.68,0,0,0,.06,1c-.42,0-.91,0-1.47,0h-2c-.58,0-1,0-1.47,0a8.09,8.09,0,0,0,0-.92v-.85H103v2.53h7.57a8.62,8.62,0,0,0,1.7-.09v.93a11.45,11.45,0,0,0-1.65-.09h-7.13c-.55,0-.94,0-1.47,0,0-.36,0-.6,0-1V80.36h-.72a12.13,12.13,0,0,0-1.65.07V79.5a9.7,9.7,0,0,0,1.57.09h.8v-.18a4.53,4.53,0,0,0-.08-1H103a5.84,5.84,0,0,0-.06,1v.18h2.67v-.13a4.59,4.59,0,0,0-.08-1h1a5.39,5.39,0,0,0-.06,1v.15h3.13v-.15a5.87,5.87,0,0,0-.06-1h1a6,6,0,0,0-.08,1v.15Zm-6.72-1.86a7,7,0,0,0,0,.9h-1a7.23,7.23,0,0,0,.06-.9v-.12h-2.3a12.17,12.17,0,0,0-1.66.08v-1a11.41,11.41,0,0,0,1.66.09h2.3v-.26a5.23,5.23,0,0,0-.09-.94h1.08a5.07,5.07,0,0,0-.09.94v.26H108v-.26a5.42,5.42,0,0,0-.08-.94H109a6,6,0,0,0-.08.94v.26h2.37a11.73,11.73,0,0,0,1.68-.09v1a12.31,12.31,0,0,0-1.68-.08h-2.37v.12a6.58,6.58,0,0,0,.06.9h-1a4.75,4.75,0,0,0,0-.9v-.12h-3.42Zm2,3.63h3.13v-1H106.5Z"/><path class="cls-4" d="M119.28,86.15A8.9,8.9,0,0,1,115.81,89a3.11,3.11,0,0,0-.73-.72,7.72,7.72,0,0,0,2-1.11,6.6,6.6,0,0,0,1.47-1.54ZM122,87.87a8.23,8.23,0,0,0,.1,1.5H121a7.53,7.53,0,0,0,.11-1.5V85.05h-3.9c-.6,0-1,0-1.49,0a8.81,8.81,0,0,0,.08-1.47v-5a7.4,7.4,0,0,0-.09-1.35h1.11a8.28,8.28,0,0,0-.08,1.34v5.62h9.89a10.06,10.06,0,0,0,1.47-.07v1a8.61,8.61,0,0,0-1.46-.09H122Zm4.21-6a8.07,8.07,0,0,0,.08,1.41,13.63,13.63,0,0,0-1.58-.06H120a13.59,13.59,0,0,0-1.54.06,13.69,13.69,0,0,0,.06-1.46V77.55c0-.55,0-.91-.06-1.35a12.54,12.54,0,0,0,1.63.08h4.7a11.9,11.9,0,0,0,1.53-.08,8.45,8.45,0,0,0-.08,1.41Zm-6.82-3.48h5.91V77.09h-5.91Zm0,2h5.91V79.1h-5.91Zm0,2h5.91V81.12h-5.91Zm5.17,3.27a9.9,9.9,0,0,0,2,1.73,9.47,9.47,0,0,0,1.65.87,3.25,3.25,0,0,0-.69.78,12,12,0,0,1-3.74-2.9Z"/><path class="cls-4" d="M137.86,82.47a1.23,1.23,0,0,1-2.46,0,1.23,1.23,0,0,1,2.46,0Z"/><path class="cls-4" d="M151.12,77.25a8.24,8.24,0,0,0-.1-1.39h1.24a8,8,0,0,0-.1,1.39V86.9h4.42V80a8.8,8.8,0,0,0-.09-1.39h1.19a11.24,11.24,0,0,0-.09,1.41v7.47a11.5,11.5,0,0,0,.1,1.59h-1.11V87.86H147v1.26h-1.11a12.08,12.08,0,0,0,.1-1.52V80.12a9.09,9.09,0,0,0-.1-1.47h1.18A10.09,10.09,0,0,0,147,80.1v6.8h4.12Z"/><path class="cls-4" d="M20.16,105.15a8.86,8.86,0,0,0,1.69-.09v1a14,14,0,0,0-1.69-.09H16.33a14.44,14.44,0,0,0,6,2.88,3.14,3.14,0,0,0-.63.9,13.2,13.2,0,0,1-5.94-3.29c0,.51.06,1,.06,1.34v.9a7.67,7.67,0,0,0,.09,1.57H14.82a8.88,8.88,0,0,0,.1-1.57v-.9c0-.33,0-.83.05-1.32a13.87,13.87,0,0,1-5.72,3.24,2.8,2.8,0,0,0-.66-.86A14,14,0,0,0,14.47,106H10.69a13.49,13.49,0,0,0-1.66.09v-1a8.56,8.56,0,0,0,1.66.09h4.23v-.6a4.72,4.72,0,0,0-.07-1h1.08a4.65,4.65,0,0,0-.08,1v.61ZM12.3,98.33c-1,.16-1.46.21-2.51.3a2.31,2.31,0,0,0-.34-.81,16.35,16.35,0,0,0,5.4-1l.63.76a17.73,17.73,0,0,1-2.31.6v1.5h1.72a7,7,0,0,0,1.29-.07v.93a6.66,6.66,0,0,0-1.23-.08H13.5a6.29,6.29,0,0,0,.64.68,6.4,6.4,0,0,0,1.77,1.08,2.46,2.46,0,0,0-.58.73,6.51,6.51,0,0,1-2.22-2c0,.27.06.71.06,1v1.39a5.17,5.17,0,0,0,.06,1h-1a6.26,6.26,0,0,0,.06-1v-1.37c0-.19,0-.43,0-.93a9.41,9.41,0,0,1-3.15,3,2.52,2.52,0,0,0-.58-.77,8.64,8.64,0,0,0,2.32-1.63,7,7,0,0,0,1-1.13h-1.7a7.29,7.29,0,0,0-1.27.08v-.93a7.15,7.15,0,0,0,1.32.07h2Zm5.89-.77a8.9,8.9,0,0,0-.06,1.14V101a7.44,7.44,0,0,0,.06,1.1h-1a7.73,7.73,0,0,0,.06-1.1V98.69a6.24,6.24,0,0,0-.08-1.13Zm3.18,5.58c0,.81-.31,1-1.54,1q-.52,0-1.26-.06a3.2,3.2,0,0,0-.26-1,6.9,6.9,0,0,0,1.46.17c.57,0,.67-.06.67-.38V98.15a7.9,7.9,0,0,0-.07-1.31h1.08a8.49,8.49,0,0,0-.08,1.35Z"/><path class="cls-4" d="M28.38,107.15A8.9,8.9,0,0,1,24.91,110a3.11,3.11,0,0,0-.73-.72,7.72,7.72,0,0,0,1.95-1.11,6.6,6.6,0,0,0,1.47-1.54Zm2.76,1.72a8.23,8.23,0,0,0,.1,1.5H30.07a7.53,7.53,0,0,0,.11-1.5v-2.82h-3.9c-.6,0-1,0-1.49,0a8.81,8.81,0,0,0,.08-1.47v-5a7.4,7.4,0,0,0-.09-1.35h1.11a8.28,8.28,0,0,0-.08,1.34v5.62H35.7a10.06,10.06,0,0,0,1.47-.07v1a8.61,8.61,0,0,0-1.46-.09H31.14Zm4.21-6a8.07,8.07,0,0,0,.08,1.41,13.63,13.63,0,0,0-1.58-.06H29.11a13.59,13.59,0,0,0-1.54.06,13.69,13.69,0,0,0,.06-1.46V98.55c0-.55,0-.91-.06-1.35a12.54,12.54,0,0,0,1.63.08h4.7a11.9,11.9,0,0,0,1.53-.08,8.45,8.45,0,0,0-.08,1.41Zm-6.82-3.48h5.91V98.09H28.53Zm0,2h5.91V100.1H28.53Zm0,2h5.91v-1.29H28.53Zm5.17,3.27a9.9,9.9,0,0,0,2,1.73,9.47,9.47,0,0,0,1.65.87,3.25,3.25,0,0,0-.69.78,12,12,0,0,1-3.74-2.9Z"/><path class="cls-4" d="M47,103.47a1.23,1.23,0,0,1-2.46,0,1.23,1.23,0,1,1,2.46,0Z"/><path class="cls-4" d="M57.13,97.74a8.57,8.57,0,0,0-.07-1.06h1a6.32,6.32,0,0,0-.08,1V98h1.35a6.49,6.49,0,0,0,1.08-.06v.87a8.21,8.21,0,0,0-1.06-.06H58v1h1a5.23,5.23,0,0,0,1-.06v.86a5.81,5.81,0,0,0-1-.06H58v1.08h1.46a7.14,7.14,0,0,0,1.08-.06v.88a7.82,7.82,0,0,0-1.1-.06h-4a9.5,9.5,0,0,0-1.2.06v-.88a8.9,8.9,0,0,0,1.19.06h1.78v-1.08H55.92a6,6,0,0,0-1,.06v-.86a5.65,5.65,0,0,0,1,.06h1.21v-1h-1.6a7.51,7.51,0,0,0-1.08.06v-.87a6.82,6.82,0,0,0,1.11.06h1.57Zm-1.29,11a9.74,9.74,0,0,0,.09,1.45h-1a10.68,10.68,0,0,0,.09-1.5v-4.26a11.82,11.82,0,0,0-.06-1.38,11.27,11.27,0,0,0,1.24,0h2.51a9,9,0,0,0,1.3-.06c0,.34,0,.72,0,1.44v4.56c0,.81-.26,1-1.22,1-.3,0-.66,0-1,0a3.61,3.61,0,0,0-.16-.87,5.87,5.87,0,0,0,1.12.11c.3,0,.38-.06.38-.35v-1.45H55.84Zm3.26-3.87v-1H55.84v1Zm0,1.83v-1.08H55.84v1.08Zm6.6-6.23a7.57,7.57,0,0,0,1.26-.06,8.87,8.87,0,0,0-.06,1.28v1.18a3.18,3.18,0,0,0,.94-.09v1a6.67,6.67,0,0,0-.94-.07v1.83A9.93,9.93,0,0,0,67,107H66v-.61H64.17V109c0,.9-.27,1.11-1.43,1.11-.3,0-.78,0-1.12,0a3.21,3.21,0,0,0-.24-1,8.26,8.26,0,0,0,1.39.13c.44,0,.51-.06.51-.36V106.4h-1a7.94,7.94,0,0,0-1.22.07v-.94a7.12,7.12,0,0,0,1.19.07h1v-1.87H61.87a11.21,11.21,0,0,0-1.23.07v-1a8.62,8.62,0,0,0,1.22.06h1.42v-1.62h-.73a8.36,8.36,0,0,0-1.19.08v-.9c-.22.24-.3.31-.58.58a2.2,2.2,0,0,0-.69-.58A8.74,8.74,0,0,0,62,98.22a5.7,5.7,0,0,0,.75-1.65l1,.26-.33.61a3.46,3.46,0,0,1-.22.44H65a5,5,0,0,0,.9,0l.42.47c-.12.16-.12.16-.55.84a14,14,0,0,1-1,1.36Zm-1.92,0A9.57,9.57,0,0,0,65,98.66h-2.3a10.88,10.88,0,0,1-1.36,1.77,9.68,9.68,0,0,0,1.17.07Zm2.26.78H64.17v1.62H66Zm0,4.32v-1.87H64.17v1.87Z"/><path class="cls-4" d="M70.09,98.64A10.38,10.38,0,0,0,70,97.32a11.45,11.45,0,0,0,1.46.06h9.24a9.37,9.37,0,0,0,1.35-.06A10.66,10.66,0,0,0,82,98.69V109c0,.82-.41,1.06-1.8,1.06a13,13,0,0,1-1.61-.09,3.37,3.37,0,0,0-.24-1,10.72,10.72,0,0,0,2,.18c.54,0,.71-.07.71-.36V98.24h-10v10.51a8.43,8.43,0,0,0,.08,1.47H70a10.28,10.28,0,0,0,.09-1.48Zm6.65,2.79a9.83,9.83,0,0,0,1.38-2.79L79,99a12,12,0,0,1-1.37,2.46h1.46a7.81,7.81,0,0,0,1.33-.07v1a8.31,8.31,0,0,0-1.33-.07H76.45v4.15h2.12v-2a9.77,9.77,0,0,0-.06-1.19h1a7.56,7.56,0,0,0-.08,1.25v2.25a11.27,11.27,0,0,0,.06,1.29h-.91v-.78H73.62v1.36h-.93a9.51,9.51,0,0,0,.07-1.48v-2.64a8.11,8.11,0,0,0-.07-1.25h1a7.92,7.92,0,0,0-.06,1.2v2h1.95v-4.15H73.06a8.64,8.64,0,0,0-1.36.07v-1a8.42,8.42,0,0,0,1.36.07ZM74,98.7a11.8,11.8,0,0,1,1.21,2.16l-.82.35a8.74,8.74,0,0,0-1.22-2.15Z"/><path class="cls-4" d="M89,107.15A8.9,8.9,0,0,1,85.51,110a3.11,3.11,0,0,0-.73-.72,7.72,7.72,0,0,0,2-1.11,6.6,6.6,0,0,0,1.47-1.54Zm2.76,1.72a8.23,8.23,0,0,0,.1,1.5H90.67a7.53,7.53,0,0,0,.11-1.5v-2.82h-3.9c-.6,0-1,0-1.49,0a8.81,8.81,0,0,0,.08-1.47v-5a7.4,7.4,0,0,0-.09-1.35h1.11a8.28,8.28,0,0,0-.08,1.34v5.62H96.3a10.06,10.06,0,0,0,1.47-.07v1a8.61,8.61,0,0,0-1.46-.09H91.74Zm4.21-6a8.07,8.07,0,0,0,.08,1.41,13.63,13.63,0,0,0-1.58-.06H89.71a13.59,13.59,0,0,0-1.54.06,13.69,13.69,0,0,0,.06-1.46V98.55c0-.55,0-.91-.06-1.35a12.54,12.54,0,0,0,1.63.08h4.7A11.9,11.9,0,0,0,96,97.2,8.45,8.45,0,0,0,96,98.61Zm-6.82-3.48H95V98.09H89.13Zm0,2H95V100.1H89.13Zm0,2H95v-1.29H89.13Zm5.17,3.27a9.9,9.9,0,0,0,2,1.73,9.47,9.47,0,0,0,1.65.87,3.25,3.25,0,0,0-.69.78,12,12,0,0,1-3.74-2.9Z"/><path class="cls-4" d="M111.93,110.39a10.08,10.08,0,0,1-2.09-3.23,9.82,9.82,0,0,1,0-7.38,10.16,10.16,0,0,1,2.09-3.22h1.33a9.55,9.55,0,0,0-2.28,3.1,9.37,9.37,0,0,0,0,7.62,9.57,9.57,0,0,0,2.28,3.11Z"/><path class="cls-4" d="M120.84,97.65a6.65,6.65,0,0,0-.09-1.08h1.15a6.21,6.21,0,0,0-.09,1.08v.12h4.43a13.36,13.36,0,0,0,1.5-.06,5.88,5.88,0,0,0-.06,1v.72a6.15,6.15,0,0,0,.06,1h-1V98.58H116.22v1.88h-1a6.48,6.48,0,0,0,.06-1v-.7a6.09,6.09,0,0,0-.06-1,13.53,13.53,0,0,0,1.52.06h4.08Zm-4.91,8.57a10.29,10.29,0,0,0-.06-1.46,13.83,13.83,0,0,0,1.43,0h8.35a13.83,13.83,0,0,0,1.43,0,10.46,10.46,0,0,0-.06,1.46v2.56a9.93,9.93,0,0,0,.09,1.55h-1v-.69h-9.25v.69h-1a10.29,10.29,0,0,0,.09-1.55Zm.92.58h4v-1.23h-4Zm0,2.07h4v-1.3h-4Zm0-9.42a6.94,6.94,0,0,0,1.23.08h6.75a6.89,6.89,0,0,0,1.22-.08v.92a7.18,7.18,0,0,0-1.22-.08h-6.75a7.23,7.23,0,0,0-1.23.08Zm8.85,3.47a7.78,7.78,0,0,0,.06,1,10.11,10.11,0,0,0-1.27-.06h-6.09a9.86,9.86,0,0,0-1.26.06,8.12,8.12,0,0,0,.06-1v-.74a8.6,8.6,0,0,0-.06-1,9.32,9.32,0,0,0,1.26.06h6.1a9.41,9.41,0,0,0,1.26-.06,7.89,7.89,0,0,0-.06,1Zm-7.6-1v1.22h6.69v-1.22Zm3.63,4.86h4.33v-1.23h-4.33Zm0,2.07h4.33v-1.3h-4.33Z"/><path class="cls-4" d="M136,98.37a9.63,9.63,0,0,0-.11-1.56h1.26a11.06,11.06,0,0,0-.1,1.56v3.09h4.44a12.91,12.91,0,0,0,1.69-.1v1.15a12.65,12.65,0,0,0-1.68-.1H137v6h3.64a8.33,8.33,0,0,0,1.61-.09v1.13a10.83,10.83,0,0,0-1.61-.09H132.6a10.7,10.7,0,0,0-1.62.09V108.3a10.14,10.14,0,0,0,1.6.09H136v-6h-4a14.92,14.92,0,0,0-1.8.1v-1.15a14.35,14.35,0,0,0,1.8.1h4Z"/><path class="cls-4" d="M147.82,101.25c0,4.46-.55,6.63-2.23,8.81a3.46,3.46,0,0,0-.86-.8c1.56-1.72,2.07-3.73,2.07-8.05v-3a8.42,8.42,0,0,0-.09-1.33h1.2a6.56,6.56,0,0,0-.09,1.36Zm4.8-3.72a9.63,9.63,0,0,0-.09,1.41v7.94a11.7,11.7,0,0,0,.09,1.69h-1.2a11.79,11.79,0,0,0,.09-1.69V98.94a8.15,8.15,0,0,0-.09-1.41Zm4.85-.57a7.11,7.11,0,0,0-.09,1.46v9.76a11.16,11.16,0,0,0,.09,1.88h-1.2a13.85,13.85,0,0,0,.09-1.88V98.42a8,8,0,0,0-.09-1.46Z"/><path class="cls-4" d="M10.36,119.78a8.74,8.74,0,0,0-.12-1.58h1.2a9.73,9.73,0,0,0-.09,1.41v.18l.08,7.61c.82-.33,1.32-.56,2-.87a20.75,20.75,0,0,0,2.3-1.26l.19.93A33.7,33.7,0,0,1,10,129a7.36,7.36,0,0,0-.88.38l-.33-1.1a14.73,14.73,0,0,0,1.65-.49Zm10.38-1.59a13.16,13.16,0,0,0-.12,1.48,22.87,22.87,0,0,1-.67,4,11,11,0,0,1-1.2,2.73,9.56,9.56,0,0,0,3.67,3.8,3.51,3.51,0,0,0-.67,1A10.86,10.86,0,0,1,19.44,129a10.15,10.15,0,0,1-1.26-1.8,12,12,0,0,1-5.49,4,3,3,0,0,0-.65-.9,12.89,12.89,0,0,0,3-1.49,9.59,9.59,0,0,0,4.1-5.94,16.6,16.6,0,0,0,.48-4,5.56,5.56,0,0,0-.05-.78Zm-6.55,1a22.94,22.94,0,0,1,2.91,3.59l-.9.63a17,17,0,0,0-2.84-3.66Z"/><path class="cls-4" d="M25.71,120.09a11.3,11.3,0,0,0-1.77.09v-1.05a10.72,10.72,0,0,0,1.81.11H30v-.12a8.4,8.4,0,0,0-.1-1.46H31a7.89,7.89,0,0,0-.11,1.46v.12H35.4a9.82,9.82,0,0,0,1.87-.11v1.05a14,14,0,0,0-1.84-.09H30.91v1.25h3.27a10.77,10.77,0,0,0,1.71-.08,14.46,14.46,0,0,0-.06,1.58V125a10.57,10.57,0,0,0,.06,1.59,9.78,9.78,0,0,0-1.71-.09H31.6a11.82,11.82,0,0,0,6.18,3.33,4.06,4.06,0,0,0-.57.95,16.56,16.56,0,0,1-3.37-1.49,10.9,10.9,0,0,1-3-2.46c0,.39,0,.89,0,1.17v1.53a8.16,8.16,0,0,0,.11,1.67H29.91a10.71,10.71,0,0,0,.1-1.67v-1.51c0-.29,0-.74,0-1.16a9.2,9.2,0,0,1-1.77,1.71,14.46,14.46,0,0,1-4.19,2.19,3.68,3.68,0,0,0-.55-.9,12.35,12.35,0,0,0,3.64-1.6,8.3,8.3,0,0,0,2.1-1.76H27.1a9.82,9.82,0,0,0-1.74.09l0-.19a13.6,13.6,0,0,0,0-1.4v-2.17a13.18,13.18,0,0,0-.06-1.62,8.9,8.9,0,0,0,1.67.09h3v-1.25Zm.64,2v1.38H30v-1.38Zm0,2.14v1.52H30v-1.52Zm4.56-.76h4v-1.38h-4Zm0,2.28h4v-1.52h-4Z"/><path class="cls-4" d="M38.8,131.39a9.23,9.23,0,0,0,2.28-3.11,9.37,9.37,0,0,0,0-7.62,9.3,9.3,0,0,0-2.28-3.1h1.34a10.11,10.11,0,0,1,2.08,3.22,9.82,9.82,0,0,1,0,7.38,10,10,0,0,1-2.08,3.23Z"/></g></g></svg>