<svg xmlns="http://www.w3.org/2000/svg" viewBox="0 0 50 64.51"><defs><style>.cls-1{fill:#666;}.cls-2{fill:#00b900;}.cls-3{fill:#fff;}</style></defs><title>icon-line</title><g id="レイヤー_2" data-name="レイヤー 2"><g id="メインデザイン"><path class="cls-1" d="M9.08,63.87a9.71,9.71,0,0,0-1.42-.07h-3c-.56,0-.91,0-1.27,0a7.8,7.8,0,0,0,.08-1.31V57.33a9.75,9.75,0,0,0-.08-1.48H4.94a9.12,9.12,0,0,0-.08,1.47V62.6h2.8a10.55,10.55,0,0,0,1.42-.07Z"/><path class="cls-1" d="M11.38,55.85a7.47,7.47,0,0,0-.08,1.29v5.38a7.42,7.42,0,0,0,.08,1.28H9.86a7.42,7.42,0,0,0,.08-1.28V57.14a7.47,7.47,0,0,0-.08-1.29Z"/><path class="cls-1" d="M18,63.8a9.94,9.94,0,0,0-.64-1.06l-2.58-3.89c-.19-.3-.44-.73-.68-1.2,0,.14,0,.14,0,.51,0,.19,0,.64,0,.87v3.28a10.8,10.8,0,0,0,.08,1.49H12.79a10.65,10.65,0,0,0,.08-1.5V57.14a8.33,8.33,0,0,0-.08-1.29h1.56A5.48,5.48,0,0,0,15,56.91l2.53,3.81c.24.36.56.88.78,1.28,0-.39-.07-1-.07-1.41V57.23a8.74,8.74,0,0,0-.08-1.38h1.46a8.74,8.74,0,0,0-.08,1.38v5.29a7.49,7.49,0,0,0,.08,1.28Z"/><path class="cls-1" d="M26.68,63.87a8.6,8.6,0,0,0-1.29-.07H22.27c-.6,0-.87,0-1.27,0a8,8,0,0,0,.08-1.31V57.11A8.85,8.85,0,0,0,21,55.82c.4,0,.66,0,1.27,0h3a10.68,10.68,0,0,0,1.29-.07V57.1A9,9,0,0,0,25.29,57H22.41v2.06h2.43a10.41,10.41,0,0,0,1.3-.07v1.31a7.84,7.84,0,0,0-1.3-.07H22.4v2.36h3a9.56,9.56,0,0,0,1.28-.07Z"/><path class="cls-1" d="M31.79,61.92v.57H30.61a7.61,7.61,0,0,0,.05-1V57.58a6.71,6.71,0,0,0-.05-1c.37,0,.61,0,1.11,0H34v-.29A6.48,6.48,0,0,0,34,55.28H35.2a5.88,5.88,0,0,0-.07,1v.33H37.5a11.28,11.28,0,0,0,1.14,0,6.57,6.57,0,0,0,0,1v3.89a7.35,7.35,0,0,0,0,1H37.46v-.57H35.13v1.34a8,8,0,0,0,.07,1.25H34A8.62,8.62,0,0,0,34,63.26V61.92Zm0-4.26v1.12H34V57.66Zm0,2.11v1.15H34V59.77Zm3.34-1h2.33V57.66H35.13Zm0,2.14h2.33V59.77H35.13Z"/><path class="cls-1" d="M40.11,59a4.47,4.47,0,0,0,.8.05h.82a4.33,4.33,0,0,0,.76-.05,10.29,10.29,0,0,0,0,1.1v2.09a1.25,1.25,0,0,0,.57.64c.48.3,1,.37,2.72.37a27.3,27.3,0,0,0,3.7-.21,6,6,0,0,0-.3,1.18c-.88,0-2.33.06-3,.06a10.72,10.72,0,0,1-3-.23,2.41,2.41,0,0,1-1.27-.93,10.24,10.24,0,0,1-1,.88l-.3.24-.15.12-.49-1.13a6.36,6.36,0,0,0,1.49-1V60.09h-.61a3.69,3.69,0,0,0-.68,0Zm1-3.61a12.35,12.35,0,0,1,1.75,1.83l-.83.81a10.28,10.28,0,0,0-1.72-1.89Zm3.22,1.23a5.06,5.06,0,0,0-.83.05V55.63a4.44,4.44,0,0,0,.83,0h1.43a4.73,4.73,0,0,0,.73,0c0,.23,0,.37,0,.54a6.86,6.86,0,0,0,.66,2.9,6,6,0,0,0,2.19,2.57,4.8,4.8,0,0,0-.66,1.05A7.38,7.38,0,0,1,47,61.14a7.07,7.07,0,0,1-1.12-2.37,5.88,5.88,0,0,1-1.09,2.44,6.39,6.39,0,0,1-1.35,1.37,5.71,5.71,0,0,0-.79-.87A5.38,5.38,0,0,0,44,60.43a6.48,6.48,0,0,0,1.11-2.38,7.36,7.36,0,0,0,.19-1.39Z"/><g id="FULL_COLOR_ICON" data-name="FULL COLOR ICON"><rect class="cls-2" width="50" height="50" rx="10.83"/><g id="TYPE_A" data-name="TYPE A"><path class="cls-3" d="M43.12,22.8C43.12,14.66,35,8,24.92,8S6.71,14.66,6.71,22.8c0,7.3,6.48,13.42,15.23,14.58.59.12,1.4.39,1.6.89a3.68,3.68,0,0,1,.06,1.65s-.21,1.28-.26,1.56c-.08.46-.36,1.8,1.58,1s10.48-6.17,14.3-10.57h0a13.13,13.13,0,0,0,3.9-9.09"/><path class="cls-2" d="M21.22,18.86H19.94a.36.36,0,0,0-.35.36v7.93a.35.35,0,0,0,.35.35h1.28a.34.34,0,0,0,.35-.35V19.22a.35.35,0,0,0-.35-.36"/><path class="cls-2" d="M30,18.86H28.73a.36.36,0,0,0-.35.36v4.71L24.74,19l0,0h0l0,0h0v0h-1.5a.35.35,0,0,0-.35.36v7.93a.34.34,0,0,0,.35.35h1.28a.35.35,0,0,0,.35-.35V22.44l3.64,4.92.09.08H30a.34.34,0,0,0,.35-.35V19.22a.35.35,0,0,0-.35-.36"/><path class="cls-2" d="M18.14,25.52H14.67v-6.3a.36.36,0,0,0-.35-.36H13a.36.36,0,0,0-.35.36v7.93h0a.33.33,0,0,0,.1.25h0a.35.35,0,0,0,.24.1h5.1a.36.36,0,0,0,.36-.36V25.87a.36.36,0,0,0-.36-.35"/><path class="cls-2" d="M37.06,20.85a.35.35,0,0,0,.35-.35V19.22a.35.35,0,0,0-.35-.36H32a.37.37,0,0,0-.25.1h0a.37.37,0,0,0-.09.25h0v7.93h0a.37.37,0,0,0,.09.25h0a.37.37,0,0,0,.25.1h5.1a.35.35,0,0,0,.35-.36V25.87a.35.35,0,0,0-.35-.35H33.59V24.18h3.47a.35.35,0,0,0,.35-.36V22.55a.35.35,0,0,0-.35-.36H33.59V20.85Z"/></g></g></g></g></svg>