<svg xmlns="http://www.w3.org/2000/svg" viewBox="0 0 50 64.51"><defs><style>.cls-1{fill:#666;}.cls-2{fill:#0071a7;}</style></defs><title>icon-web</title><g id="レイヤー_2" data-name="レイヤー 2"><g id="メインデザイン"><path class="cls-1" d="M8.06,63.8a9.12,9.12,0,0,0-.23-1L6.76,59.08a12.43,12.43,0,0,1-.29-1.28c-.11.57-.21,1-.3,1.28L5.11,62.8a8,8,0,0,0-.23,1H3.55a10.08,10.08,0,0,0-.27-1L1.69,57a10,10,0,0,0-.4-1.19h1.6a5.5,5.5,0,0,0,.18,1.08L4,60.74c.07.31.18.82.24,1.17.13-.62.2-.9.28-1.18l1.11-3.86a6.36,6.36,0,0,0,.22-1H7.08a7.12,7.12,0,0,0,.23,1L8.42,60.7c.08.26.12.46.28,1.21.05-.23.05-.23.11-.58,0-.16.11-.55.13-.64l.93-3.77A5.33,5.33,0,0,0,10,55.85h1.6A9.2,9.2,0,0,0,11.25,57l-1.6,5.73c-.07.28-.12.45-.14.55a2.27,2.27,0,0,0-.11.48Z"/><path class="cls-1" d="M18.15,63.87a8.6,8.6,0,0,0-1.29-.07H13.74c-.6,0-.87,0-1.27,0a8,8,0,0,0,.08-1.31V57.11a8.85,8.85,0,0,0-.08-1.29c.4,0,.66,0,1.27,0h3A10.4,10.4,0,0,0,18,55.78V57.1A8.71,8.71,0,0,0,16.76,57H13.88v2.06h2.43a10.41,10.41,0,0,0,1.3-.07v1.31a7.84,7.84,0,0,0-1.3-.07H13.87v2.36h3a9.56,9.56,0,0,0,1.28-.07Z"/><path class="cls-1" d="M20.6,63.8c-.58,0-.87,0-1.28,0a7,7,0,0,0,.09-1.34V57.06a9.53,9.53,0,0,0-.08-1.23c.42,0,.58,0,1.26,0H23c1.55,0,2.41.7,2.41,1.95a1.79,1.79,0,0,1-.56,1.41,1.65,1.65,0,0,1-.78.42,1.8,1.8,0,0,1,1,.46,2,2,0,0,1,.62,1.53c0,1.4-.93,2.18-2.58,2.18Zm2.21-4.69a1.12,1.12,0,0,0,1-1.83,1.42,1.42,0,0,0-1-.31H20.73v2.14Zm-2.08,3.57h2.15c.89,0,1.39-.44,1.39-1.25a1.12,1.12,0,0,0-.32-.87,1.63,1.63,0,0,0-1.09-.34H20.73Z"/><path class="cls-1" d="M30.8,61.92v.57H29.62a7.61,7.61,0,0,0,.05-1V57.58a6.71,6.71,0,0,0-.05-1c.37,0,.61,0,1.11,0H33v-.29A6.48,6.48,0,0,0,33,55.28H34.2a7.24,7.24,0,0,0-.06,1v.33H36.5c.57,0,.79,0,1.15,0a6.39,6.39,0,0,0,0,1v3.89a7.08,7.08,0,0,0,0,1H36.46v-.57H34.14v1.34a9.84,9.84,0,0,0,.06,1.25H33A8.62,8.62,0,0,0,33,63.26V61.92Zm0-4.26v1.12H33V57.66Zm0,2.11v1.15H33V59.77Zm3.34-1h2.32V57.66H34.14Zm0,2.14h2.32V59.77H34.14Z"/><path class="cls-1" d="M39.12,59a4.47,4.47,0,0,0,.8.05h.82A4.33,4.33,0,0,0,41.5,59a10.29,10.29,0,0,0,0,1.1v2.09a1.25,1.25,0,0,0,.57.64c.48.3,1,.37,2.72.37a27.51,27.51,0,0,0,3.7-.21,5.38,5.38,0,0,0-.3,1.18c-.89,0-2.34.06-3,.06a10.68,10.68,0,0,1-3-.23,2.41,2.41,0,0,1-1.27-.93,10.24,10.24,0,0,1-1,.88l-.3.24-.15.12-.49-1.13a6.36,6.36,0,0,0,1.49-1V60.09H39.8a3.69,3.69,0,0,0-.68,0Zm1-3.61a12.35,12.35,0,0,1,1.75,1.83l-.83.81a10.28,10.28,0,0,0-1.72-1.89Zm3.22,1.23a5.06,5.06,0,0,0-.83.05V55.63a4.44,4.44,0,0,0,.83,0h1.42a4.65,4.65,0,0,0,.73,0c0,.23,0,.37,0,.54a6.86,6.86,0,0,0,.66,2.9,6,6,0,0,0,2.2,2.57,4.8,4.8,0,0,0-.66,1.05A7.22,7.22,0,0,1,46,61.14a7.07,7.07,0,0,1-1.11-2.37,6,6,0,0,1-1.09,2.44,6.39,6.39,0,0,1-1.35,1.37,5.71,5.71,0,0,0-.79-.87A5.38,5.38,0,0,0,43,60.43a6.48,6.48,0,0,0,1.11-2.38,7.51,7.51,0,0,0,.18-1.39Z"/><path class="cls-2" d="M21.54,11.16a14.34,14.34,0,0,0-7.77,5H18A16.69,16.69,0,0,1,21.54,11.16Z"/><path class="cls-2" d="M29.89,16.2A13.38,13.38,0,0,0,25,10.87a13.38,13.38,0,0,0-4.89,5.33Z"/><path class="cls-2" d="M17.25,18.1H12.52a14,14,0,0,0-1.76,5.95h5.38A21.12,21.12,0,0,1,17.25,18.1Z"/><path class="cls-2" d="M16.14,26H10.76a14,14,0,0,0,1.76,5.95h4.73A21.12,21.12,0,0,1,16.14,26Z"/><path class="cls-2" d="M36.23,16.2a14.34,14.34,0,0,0-7.77-5,16.69,16.69,0,0,1,3.54,5Z"/><path class="cls-2" d="M19.25,31.9h11.5A19.2,19.2,0,0,0,32,26H18A19.2,19.2,0,0,0,19.25,31.9Z"/><path class="cls-2" d="M30.75,18.1H19.25A19.2,19.2,0,0,0,18,24.05H32A19.2,19.2,0,0,0,30.75,18.1Z"/><path class="cls-2" d="M33.86,24.05h5.38a14.11,14.11,0,0,0-1.75-5.95H32.75A21.12,21.12,0,0,1,33.86,24.05Z"/><path class="cls-2" d="M32.75,31.9h4.74A14.11,14.11,0,0,0,39.24,26H33.86A21.12,21.12,0,0,1,32.75,31.9Z"/><path class="cls-2" d="M40.36,0H9.64A9.65,9.65,0,0,0,0,9.64V40.36A9.65,9.65,0,0,0,9.64,50H40.36A9.65,9.65,0,0,0,50,40.36V9.64A9.65,9.65,0,0,0,40.36,0ZM36.43,36.43A16.16,16.16,0,1,1,25,8.84h0A16.16,16.16,0,0,1,36.43,36.43Z"/><path class="cls-2" d="M28.46,38.84a14.34,14.34,0,0,0,7.77-5H32A16.69,16.69,0,0,1,28.46,38.84Z"/><path class="cls-2" d="M13.77,33.8a14.34,14.34,0,0,0,7.77,5,16.69,16.69,0,0,1-3.54-5Z"/><path class="cls-2" d="M20.11,33.8A13.38,13.38,0,0,0,25,39.13a13.38,13.38,0,0,0,4.89-5.33Z"/></g></g></svg>