<svg xmlns="http://www.w3.org/2000/svg" viewBox="0 0 50.26 64.15"><defs><style>.cls-1{fill:#666;}.cls-2{fill:#373c81;}</style></defs><title>icon-mypage</title><g id="レイヤー_2" data-name="レイヤー 2"><g id="メインデザイン"><path class="cls-1" d="M3.42,58.89c.53.44.83.71,1.24,1.11.55.56.55.56.62.62a13.14,13.14,0,0,0,1.3-1.26A13.23,13.23,0,0,0,7.8,57.73l.06-.09,0,0-.46,0H2.66a10.85,10.85,0,0,0-1.28,0V56.39a7.29,7.29,0,0,0,1.3.07H8.23a2.62,2.62,0,0,0,.83-.08l.7.79a3.12,3.12,0,0,0-.44.59,15.47,15.47,0,0,1-3.23,3.79c.42.48.8,1,1.32,1.67l-1,.83a16.91,16.91,0,0,0-1.93-2.51,16.14,16.14,0,0,0-2-1.93Z"/><path class="cls-1" d="M19.23,56.37a4.12,4.12,0,0,0-.37.35,17.68,17.68,0,0,1-2.36,2.06v4.27a7.49,7.49,0,0,0,.05,1.1H15.16a5.62,5.62,0,0,0,.06-1.08V59.56a16.2,16.2,0,0,1-3.57,1.62A3.76,3.76,0,0,0,11,60a14.48,14.48,0,0,0,5.24-2.6,8,8,0,0,0,1.86-1.87Z"/><path class="cls-1" d="M20.83,60.49A13.09,13.09,0,0,0,23,58.06a3.38,3.38,0,0,1,.75-.79,1.27,1.27,0,0,1,.68-.19c.5,0,.73.16,1.49,1a32.07,32.07,0,0,0,3.23,3.19,7.17,7.17,0,0,0,.95.76l-.63,1.36a49.4,49.4,0,0,1-4.22-4.22c-.64-.7-.64-.7-.81-.7s-.2,0-.61.58S22.56,60.66,22,61.3l-.34.42Zm8.55-3.08a1.16,1.16,0,1,1-1.16-1.15A1.16,1.16,0,0,1,29.38,57.41Zm-1.81,0a.66.66,0,1,0,.65-.65A.65.65,0,0,0,27.57,57.41Z"/><path class="cls-1" d="M31.16,59.16a9.82,9.82,0,0,0,1.62.07H38.1a9.82,9.82,0,0,0,1.62-.07v1.39a11,11,0,0,0-1.63,0h-5.3a11,11,0,0,0-1.63,0Z"/><path class="cls-1" d="M42.06,58.25a15.78,15.78,0,0,1,2.66,1.36l-.62,1.13a11.61,11.61,0,0,0-2.71-1.46Zm-.45,4.48a8.88,8.88,0,0,0,2.89-.65,6.86,6.86,0,0,0,4-4.41,4.86,4.86,0,0,0,1,.89c-1.24,3-3.34,4.66-6.92,5.36a5.9,5.9,0,0,0-.7.17Zm1.22-6.9a16.47,16.47,0,0,1,2.66,1.29l-.64,1.1a12.11,12.11,0,0,0-2.67-1.37Zm5.19-.2a6.48,6.48,0,0,1,1,1.47l-.7.37a6.75,6.75,0,0,0-1-1.49Zm1.55,1.21a7.37,7.37,0,0,0-1-1.45l.67-.35a5.78,5.78,0,0,1,1,1.41Z"/><circle class="cls-2" cx="25" cy="18.18" r="6.82" transform="translate(-2.59 4.24) rotate(-9.22)"/><path class="cls-2" d="M40.36,0H9.64A9.65,9.65,0,0,0,0,9.64V40.36A9.65,9.65,0,0,0,9.64,50H40.36A9.65,9.65,0,0,0,50,40.36V9.64A9.65,9.65,0,0,0,40.36,0Zm-.52,41.16A1.25,1.25,0,0,1,38.59,40a13.64,13.64,0,0,0-27.18,0,1.25,1.25,0,0,1-1.25,1.16A1.27,1.27,0,0,1,8.9,39.8,16.17,16.17,0,0,1,19.71,25.88a9.34,9.34,0,1,1,10.58,0A16.17,16.17,0,0,1,41.1,39.8,1.27,1.27,0,0,1,39.84,41.16Z"/></g></g></svg>