<svg xmlns="http://www.w3.org/2000/svg" viewBox="0 0 765.66 668.2"><defs><style>.cls-1{fill:#959596;}.cls-2{fill:#fff;}.cls-3{fill:#99c43a;}.cls-4{fill:#8e5081;}.cls-5{fill:#0277b6;}.cls-6{fill:#1dbaea;}.cls-7{fill:#ffd000;}.cls-8{fill:#ed8a33;}.cls-9{fill:#ca2238;}.cls-10{fill:#4aae60;}.cls-11{fill:#e8809f;}</style></defs><title>map-area-set</title><g id="レイヤー_2" data-name="レイヤー 2"><g id="メインデザイン"><path class="cls-1" d="M749,10.25H565.25A11.19,11.19,0,0,0,554.09,21.4V159.08a11.19,11.19,0,0,0,11.16,11.15h29.2a11.19,11.19,0,0,0,11.15-11.15v-7.35a11.18,11.18,0,0,1,11.15-11.15H749a11.19,11.19,0,0,0,11.16-11.16V21.4A11.19,11.19,0,0,0,749,10.25Z"/><path class="cls-1" d="M594.45,175.77h-29.2a16.71,16.71,0,0,1-16.7-16.69V21.4a16.71,16.71,0,0,1,16.7-16.69H749a16.71,16.71,0,0,1,16.7,16.69v108a16.72,16.72,0,0,1-16.7,16.7H616.75a5.61,5.61,0,0,0-5.61,5.61v7.35A16.71,16.71,0,0,1,594.45,175.77Zm-29.2-160a5.62,5.62,0,0,0-5.62,5.61V159.08a5.62,5.62,0,0,0,5.62,5.61h29.2a5.62,5.62,0,0,0,5.61-5.61v-7.35A16.71,16.71,0,0,1,616.75,135H749a5.62,5.62,0,0,0,5.62-5.62V21.4A5.62,5.62,0,0,0,749,15.79Z"/><rect class="cls-1" x="191.85" y="574" width="147.98" height="86.22" rx="11.15"/><path class="cls-1" d="M328.67,665.75H203a16.71,16.71,0,0,1-16.69-16.69V585.15A16.71,16.71,0,0,1,203,568.46H328.67a16.71,16.71,0,0,1,16.7,16.69v63.91A16.71,16.71,0,0,1,328.67,665.75ZM203,579.54a5.61,5.61,0,0,0-5.61,5.61v63.91a5.62,5.62,0,0,0,5.61,5.61H328.67a5.61,5.61,0,0,0,5.61-5.61V585.15a5.61,5.61,0,0,0-5.61-5.61Z"/><path class="cls-1" d="M159.29,433.36h-122a11.19,11.19,0,0,0-11.15,11.15v48a11.19,11.19,0,0,0,11.15,11.16H71.85A11.17,11.17,0,0,1,83,514.83l-.06,134.23a11.18,11.18,0,0,0,11.15,11.15h65.2a11.19,11.19,0,0,0,11.16-11.15V444.51A11.19,11.19,0,0,0,159.29,433.36Z"/><path class="cls-1" d="M159.29,665.75H94.09A16.71,16.71,0,0,1,77.4,649.06l.06-134.23a5.63,5.63,0,0,0-5.61-5.61H37.29a16.71,16.71,0,0,1-16.69-16.7v-48a16.71,16.71,0,0,1,16.69-16.69h122A16.71,16.71,0,0,1,176,444.51V649.06A16.71,16.71,0,0,1,159.29,665.75ZM37.29,438.9a5.62,5.62,0,0,0-5.61,5.61v48a5.62,5.62,0,0,0,5.61,5.62H71.85a16.71,16.71,0,0,1,16.69,16.69l-.06,134.23a5.63,5.63,0,0,0,5.61,5.61h65.2a5.62,5.62,0,0,0,5.62-5.61V444.51a5.62,5.62,0,0,0-5.62-5.61Z"/><path class="cls-1" d="M700.58,189H562.9a11.19,11.19,0,0,0-11.15,11.15V338.57a11.2,11.2,0,0,1-11.15,11.16l-69.15,0a11.17,11.17,0,0,1-11.15-11.14V326.48a11.19,11.19,0,0,0-11.15-11.15H435.09a11.19,11.19,0,0,0-11.16,11.15v97.13a11.19,11.19,0,0,1-11.15,11.15H203.93a11.19,11.19,0,0,0-11.15,11.15V543a11.18,11.18,0,0,0,11.15,11.15H346.28a11.19,11.19,0,0,1,11.16,11.16V651.5a11.19,11.19,0,0,0,11.15,11.16h80.15a11.19,11.19,0,0,0,11.15-11.16v-9.69A11.19,11.19,0,0,1,471,630.66H571.82c6.13,0,11.15-4.56,11.15-10.14a9.42,9.42,0,0,1,1.42-4.94v-.05a11.41,11.41,0,0,1,9.73-5.23h31.55a11.21,11.21,0,0,0,11.15-11.2V566.64A11.2,11.2,0,0,1,648,555.44h5a11.21,11.21,0,0,1,11.15,11.2v49.7a11.21,11.21,0,0,0,11.15,11.2h25.3a11.21,11.21,0,0,0,11.15-11.2V200.11A11.19,11.19,0,0,0,700.58,189Z"/><path class="cls-1" d="M448.74,668.2H368.59a16.71,16.71,0,0,1-16.69-16.7V565.34a5.62,5.62,0,0,0-5.62-5.62H203.93A16.71,16.71,0,0,1,187.24,543V445.91a16.71,16.71,0,0,1,16.69-16.69H412.78a5.61,5.61,0,0,0,5.61-5.61V326.48a16.71,16.71,0,0,1,16.7-16.69h14.06a16.71,16.71,0,0,1,16.69,16.69v12.16a5.63,5.63,0,0,0,5.61,5.6l69.15-.05a5.63,5.63,0,0,0,5.61-5.62V200.11a16.71,16.71,0,0,1,16.69-16.69H700.58a16.71,16.71,0,0,1,16.69,16.69V616.34a16.74,16.74,0,0,1-16.69,16.74h-25.3a16.74,16.74,0,0,1-16.69-16.74v-49.7A5.64,5.64,0,0,0,653,561h-5a5.64,5.64,0,0,0-5.61,5.66V599.1a16.74,16.74,0,0,1-16.69,16.74H594.12a5.94,5.94,0,0,0-4.77,2.24l-.24.41a3.8,3.8,0,0,0-.6,2c0,8.65-7.49,15.68-16.69,15.68H471a5.62,5.62,0,0,0-5.61,5.61v9.69A16.71,16.71,0,0,1,448.74,668.2ZM203.93,440.3a5.62,5.62,0,0,0-5.61,5.61V543a5.62,5.62,0,0,0,5.61,5.61H346.28a16.72,16.72,0,0,1,16.7,16.7V651.5a5.62,5.62,0,0,0,5.61,5.62h80.15a5.62,5.62,0,0,0,5.61-5.62v-9.69A16.71,16.71,0,0,1,471,625.12H571.82c3,0,5.61-2.11,5.61-4.6a14.92,14.92,0,0,1,1.42-6.32V614l.82-1.39a17,17,0,0,1,14.45-7.87h31.55a5.64,5.64,0,0,0,5.61-5.66V566.64A16.73,16.73,0,0,1,648,549.9h5a16.74,16.74,0,0,1,16.69,16.74v49.7a5.64,5.64,0,0,0,5.61,5.66h25.3a5.64,5.64,0,0,0,5.61-5.66V200.11a5.62,5.62,0,0,0-5.61-5.61H562.9a5.62,5.62,0,0,0-5.61,5.61V338.57a16.72,16.72,0,0,1-16.69,16.7l-69.14.05a16.71,16.71,0,0,1-16.7-16.68V326.48a5.62,5.62,0,0,0-5.61-5.61H435.09a5.62,5.62,0,0,0-5.62,5.61v97.13a16.71,16.71,0,0,1-16.69,16.69Z"/><path class="cls-2" d="M745,5.54H561.32a11.19,11.19,0,0,0-11.15,11.15V154.37a11.19,11.19,0,0,0,11.15,11.15h29.2a11.19,11.19,0,0,0,11.15-11.15V147a11.19,11.19,0,0,1,11.16-11.16H745a11.18,11.18,0,0,0,11.15-11.15v-108A11.19,11.19,0,0,0,745,5.54Z"/><path class="cls-2" d="M590.52,171.06h-29.2a16.71,16.71,0,0,1-16.69-16.69V16.69A16.71,16.71,0,0,1,561.32,0H745a16.71,16.71,0,0,1,16.69,16.69v108A16.71,16.71,0,0,1,745,141.41H612.83a5.62,5.62,0,0,0-5.62,5.61v7.35A16.71,16.71,0,0,1,590.52,171.06Zm-29.2-160a5.62,5.62,0,0,0-5.61,5.61V154.37a5.62,5.62,0,0,0,5.61,5.61h29.2a5.62,5.62,0,0,0,5.61-5.61V147a16.72,16.72,0,0,1,16.7-16.7H745a5.61,5.61,0,0,0,5.61-5.61v-108A5.62,5.62,0,0,0,745,11.08Z"/><rect class="cls-2" x="187.92" y="569.28" width="147.97" height="86.22" rx="11.15"/><path class="cls-2" d="M324.74,661H199.08a16.71,16.71,0,0,1-16.7-16.69V580.43a16.71,16.71,0,0,1,16.7-16.69H324.74a16.71,16.71,0,0,1,16.7,16.69v63.92A16.71,16.71,0,0,1,324.74,661ZM199.08,574.82a5.62,5.62,0,0,0-5.62,5.61v63.92a5.62,5.62,0,0,0,5.62,5.61H324.74a5.62,5.62,0,0,0,5.62-5.61V580.43a5.62,5.62,0,0,0-5.62-5.61Z"/><path class="cls-2" d="M155.37,428.64h-122A11.18,11.18,0,0,0,22.22,439.8v48A11.18,11.18,0,0,0,33.37,499H67.93a11.19,11.19,0,0,1,11.15,11.16L79,644.35A11.19,11.19,0,0,0,90.16,655.5h65.21a11.19,11.19,0,0,0,11.15-11.15V439.8A11.19,11.19,0,0,0,155.37,428.64Z"/><path class="cls-2" d="M155.37,661H90.16a16.73,16.73,0,0,1-16.69-16.7l.07-134.23a5.67,5.67,0,0,0-5.61-5.61H33.37a16.71,16.71,0,0,1-16.69-16.69v-48a16.71,16.71,0,0,1,16.69-16.7h122a16.71,16.71,0,0,1,16.69,16.7V644.35A16.71,16.71,0,0,1,155.37,661Zm-122-226.86a5.62,5.62,0,0,0-5.61,5.62v48a5.61,5.61,0,0,0,5.61,5.61H67.93a16.73,16.73,0,0,1,16.69,16.7l-.07,134.23A5.63,5.63,0,0,0,90.16,650h65.21a5.62,5.62,0,0,0,5.61-5.61V439.8a5.62,5.62,0,0,0-5.61-5.62Z"/><path class="cls-2" d="M696.65,184.25H559a11.18,11.18,0,0,0-11.15,11.15V333.86A11.2,11.2,0,0,1,536.67,345l-69.14.05a11.16,11.16,0,0,1-11.15-11.14V321.77a11.19,11.19,0,0,0-11.16-11.15H431.16A11.19,11.19,0,0,0,420,321.77v97.12a11.19,11.19,0,0,1-11.15,11.16H200a11.19,11.19,0,0,0-11.15,11.15v97.11A11.19,11.19,0,0,0,200,549.47H342.36a11.19,11.19,0,0,1,11.15,11.15v86.17a11.18,11.18,0,0,0,11.16,11.15h80.14A11.17,11.17,0,0,0,456,646.79V637.1A11.18,11.18,0,0,1,467.12,626H567.89C574,626,579,621.38,579,615.8a9.27,9.27,0,0,1,1.43-4.93v0a11.37,11.37,0,0,1,9.73-5.24h31.54a11.21,11.21,0,0,0,11.15-11.2V561.93A11.21,11.21,0,0,1,644,550.73h5a11.2,11.2,0,0,1,11.15,11.2v49.7a11.21,11.21,0,0,0,11.15,11.19h25.3a11.21,11.21,0,0,0,11.16-11.19V195.4A11.19,11.19,0,0,0,696.65,184.25Z"/><path class="cls-2" d="M444.81,663.48H364.67A16.71,16.71,0,0,1,348,646.79V560.62a5.62,5.62,0,0,0-5.61-5.61H200a16.71,16.71,0,0,1-16.69-16.7V441.2A16.71,16.71,0,0,1,200,424.51H408.86a5.62,5.62,0,0,0,5.61-5.62V321.77a16.71,16.71,0,0,1,16.69-16.69h14.06a16.71,16.71,0,0,1,16.7,16.69v12.16a5.63,5.63,0,0,0,5.6,5.6l69.15,0a5.63,5.63,0,0,0,5.62-5.62V195.4A16.71,16.71,0,0,1,559,178.71H696.65a16.71,16.71,0,0,1,16.7,16.69V611.63a16.73,16.73,0,0,1-16.7,16.73h-25.3a16.73,16.73,0,0,1-16.69-16.73v-49.7a5.64,5.64,0,0,0-5.61-5.66h-5a5.64,5.64,0,0,0-5.61,5.66v32.45a16.73,16.73,0,0,1-16.69,16.74H590.2a5.9,5.9,0,0,0-4.83,2.32,3.54,3.54,0,0,1-.19.33,3.92,3.92,0,0,0-.6,2c0,8.65-7.48,15.69-16.69,15.69H467.12a5.61,5.61,0,0,0-5.61,5.61v9.69A16.71,16.71,0,0,1,444.81,663.48ZM200,435.59a5.62,5.62,0,0,0-5.61,5.61v97.11a5.62,5.62,0,0,0,5.61,5.62H342.36a16.71,16.71,0,0,1,16.69,16.69v86.17a5.62,5.62,0,0,0,5.62,5.61h80.14a5.61,5.61,0,0,0,5.61-5.61V637.1a16.71,16.71,0,0,1,16.7-16.69H567.89c3,0,5.61-2.11,5.61-4.61a15,15,0,0,1,2-7.35,5.45,5.45,0,0,1,.29-.53A17,17,0,0,1,590.2,600h31.54a5.64,5.64,0,0,0,5.61-5.66V561.93A16.74,16.74,0,0,1,644,545.19h5a16.73,16.73,0,0,1,16.69,16.74v49.7a5.64,5.64,0,0,0,5.61,5.65h25.3a5.64,5.64,0,0,0,5.62-5.65V195.4a5.62,5.62,0,0,0-5.62-5.61H559a5.61,5.61,0,0,0-5.61,5.61V333.86a16.73,16.73,0,0,1-16.69,16.7l-69.15.05a16.7,16.7,0,0,1-16.69-16.68V321.77a5.62,5.62,0,0,0-5.62-5.61H431.16a5.62,5.62,0,0,0-5.61,5.61v97.12a16.71,16.71,0,0,1-16.69,16.7Z"/><path class="cls-3" d="M387.37,463.94V430.05H310.56V549.47h31.8a11.19,11.19,0,0,1,11.15,11.15v86.17a11.18,11.18,0,0,0,11.16,11.15h56.44V517.78h35.05V463.94Z"/><path class="cls-4" d="M745,135.86a11.18,11.18,0,0,0,11.15-11.15v-108A11.19,11.19,0,0,0,745,5.54H561.32a11.19,11.19,0,0,0-11.15,11.15V154.36a11.19,11.19,0,0,0,11.15,11.16h29.2a11.19,11.19,0,0,0,11.15-11.16V147a11.19,11.19,0,0,1,11.15-11.16Z"/><rect class="cls-5" x="187.92" y="569.28" width="147.97" height="86.22" rx="11.15"/><path class="cls-6" d="M79.08,510.12A11.19,11.19,0,0,0,67.93,499H33.37a11.18,11.18,0,0,1-11.15-11.15v-48a11.18,11.18,0,0,1,11.15-11.16h122a11.19,11.19,0,0,1,11.15,11.16V644.35a11.19,11.19,0,0,1-11.15,11.15H90.16A11.19,11.19,0,0,1,79,644.35Z"/><path class="cls-7" d="M547.44,517.38V401.49l33,.28V325.4H547.83v18.46c0,6.13-5,1.15-11.16,1.16l-69.14.05a11.16,11.16,0,0,1-11.15-11.14V321.77a11.19,11.19,0,0,0-11.16-11.15H431.16A11.19,11.19,0,0,0,420,321.77v97.12a11.19,11.19,0,0,1-11.15,11.16H387.37v33.89H457V402.21h42.35v163h81.12V517.38Z"/><path class="cls-8" d="M456,646.79V637.1A11.18,11.18,0,0,1,467.12,626H567.89C574,626,579,621.38,579,615.8a9.27,9.27,0,0,1,1.43-4.93V565.16H547.35V402.21h-91.3V517.78H421.11V657.94h23.7A11.17,11.17,0,0,0,456,646.79Z"/><path class="cls-9" d="M590.2,605.58h31.54a11.21,11.21,0,0,0,11.15-11.2V561.93A11.21,11.21,0,0,1,644,550.73h5a11.2,11.2,0,0,1,11.15,11.2v49.7a11.21,11.21,0,0,0,11.16,11.19h25.29a11.21,11.21,0,0,0,11.16-11.19V400.56H547.44v117.5h-18v47.09h51v45.66A11.37,11.37,0,0,1,590.2,605.58Z"/><path class="cls-10" d="M696.65,184.25H559a11.18,11.18,0,0,0-11.15,11.15v130l.26,19.45-35.62.84v55.08H707.81V195.4A11.19,11.19,0,0,0,696.65,184.25Z"/><path class="cls-11" d="M200,430.05a11.19,11.19,0,0,0-11.15,11.15v97.11A11.19,11.19,0,0,0,200,549.47H310.56V430.05Z"/><rect class="cls-2" x="547.72" y="223.91" width="160.02" height="1.98"/><rect class="cls-2" x="547.72" y="280.62" width="160.02" height="1.98"/><rect class="cls-2" x="547.96" y="344.5" width="160" height="1.98"/><rect class="cls-2" x="626.86" y="226.33" width="1.98" height="119.11"/><rect class="cls-2" x="658.43" y="400.83" width="2" height="154.63"/><rect class="cls-2" x="547.57" y="462.24" width="111.15" height="1.97"/><rect class="cls-2" x="386.72" y="463.24" width="69" height="1.97"/><rect class="cls-2" x="603.15" y="345.5" width="2.01" height="117"/><rect class="cls-2" x="579.15" y="515.69" width="2.01" height="101.82"/><rect class="cls-2" x="580.47" y="517.51" width="79.68" height="1.97"/><rect class="cls-2" x="658.72" y="483.05" width="48.75" height="1.98"/><rect class="cls-2" x="512.47" y="564.15" width="120.36" height="2.01"/><rect class="cls-2" x="510.53" y="345.23" width="2.05" height="56.12"/><rect class="cls-2" x="421.11" y="400.52" width="287" height="1.97"/><rect class="cls-2" x="456.73" y="339.75" width="1.97" height="62.45"/><rect class="cls-2" x="385.73" y="430.21" width="1.97" height="35"/><polygon class="cls-2" points="530.7 565 528.67 565 528.67 516.03 580.63 516.03 580.63 518.05 530.7 518.05 530.7 565"/><rect class="cls-2" x="454.84" y="401.07" width="1.97" height="233"/><rect class="cls-2" x="500.84" y="401.07" width="1.97" height="163"/><rect class="cls-2" x="546.84" y="401.07" width="1.97" height="117"/><rect class="cls-2" x="419.84" y="517.07" width="1.97" height="144"/><rect class="cls-2" x="511.28" y="565.01" width="1.99" height="60.87"/><rect class="cls-2" x="351.19" y="430.06" width="2" height="123.74"/><rect class="cls-2" x="309.19" y="430.06" width="2" height="122"/><polygon class="cls-2" points="421.38 518.06 352.91 518.06 352.91 516.06 419.39 516.06 419.39 464.23 421.38 464.23 421.38 518.06"/><polygon class="cls-2" points="421.11 625.14 385.68 625.14 385.68 517.92 387.63 517.92 387.63 623.19 421.11 623.19 421.11 625.14"/><rect class="cls-2" x="353.77" y="595.03" width="32.38" height="1.99"/><rect class="cls-2" x="421.77" y="516.03" width="34" height="1.99"/><rect class="cls-2" x="226.3" y="430.35" width="1.98" height="119.02"/><rect class="cls-2" x="267.93" y="430.35" width="1.98" height="119.02"/><rect class="cls-2" x="227.81" y="484.48" width="82.69" height="2"/><rect class="cls-2" x="260.03" y="569.46" width="1.98" height="86.15"/><rect class="cls-2" x="187.95" y="610.83" width="147.96" height="1.98"/><rect class="cls-2" x="456.28" y="563.01" width="57.07" height="2"/><rect class="cls-2" x="75.55" y="428.91" width="1.98" height="73.08"/><rect class="cls-2" x="49.01" y="428.91" width="1.95" height="70.2"/><rect class="cls-2" x="77.58" y="484.49" width="89.01" height="1.97"/><rect class="cls-2" x="79.23" y="594.33" width="87.28" height="1.95"/><rect class="cls-2" x="116.45" y="486.19" width="2.01" height="109.67"/><rect class="cls-2" x="118.17" y="540.49" width="48.1" height="1.97"/><path class="cls-2" d="M533.3,461.42v1.69h-8.94a15.05,15.05,0,0,0,2.95,2.56l.54.35a19.47,19.47,0,0,0,2.52-2.68l1.65,1a19.43,19.43,0,0,1-2.46,2.62,29.08,29.08,0,0,0,3.88,1.53l-.86,1.65a23.47,23.47,0,0,1-6.47-3.08,16.76,16.76,0,0,1-4.08-4h-1.66v4.81q2.75-.35,5.45-.87l.23,1.64a84.54,84.54,0,0,1-9.85,1.36l-.22-1.69c.56,0,1.32-.1,2.29-.21v-5h-2.62v-1.69h2.62v-8.2h13.15v1.71h-11v1.12h10.47v1.49H520.37v1.17h10.47v1.49H520.37v1.22Z"/><path class="cls-2" d="M525.62,476.61l1.24-1.26c.74.67,1.37,1.26,1.88,1.78a26.54,26.54,0,0,0,2.1-2.54h-5.59v-1.75H533v1.75a29.19,29.19,0,0,1-3,3.82c.37.39.63.68.8.87h2.79V481a20.15,20.15,0,0,1-2,4.05l-1.55-1a19.55,19.55,0,0,0,1.67-3h-1.94v6.67a3.71,3.71,0,0,1-.11.77,1.46,1.46,0,0,1-.2.51,1.06,1.06,0,0,1-.35.27,1.51,1.51,0,0,1-.56.15,7.26,7.26,0,0,1-.79,0c-.5,0-1.32,0-2.49-.09l-.09-1.79c.72,0,1.37.08,1.94.08q.51,0,.6-.12a2.62,2.62,0,0,0,.07-.89V481h-3.2v.64h-3.1v1.45h3.2v1.59h-3.2v1.9c1.14-.17,2.21-.34,3.22-.52l.06,1.63q-4.89.94-8.88,1.41l-.18-1.78q2.58-.27,3.75-.45v-2.19H516v-1.59h3.4v-1.45h-3.2v-9h8.33v6.63h3.86C527.48,478.31,526.54,477.42,525.62,476.61Zm-6.18-2.25h-1.36v2.09h1.36Zm-1.36,3.55v2.21h1.36v-2.21Zm4.69-1.46v-2.09h-1.3v2.09Zm0,1.46h-1.3v2.21h1.3Z"/><path class="cls-2" d="M619.27,72.93h2.09V90.38h-2.09V86.25a44.15,44.15,0,0,1-4.44,1.52l-.49-1.85a47.38,47.38,0,0,0,4.93-1.63V78.85h-4.66V77h4.66Zm8.63,15.32a10.84,10.84,0,0,0,1.16-.06.93.93,0,0,0,.64-.31,11.5,11.5,0,0,0,.33-3.27c0-.34,0-.81.06-1.4l1.88.19q0,.51-.06,1.26l0,.76c0,.4,0,.91-.1,1.53,0,.09-.06.47-.15,1.15a3.16,3.16,0,0,1-.19.79,2.38,2.38,0,0,1-.28.52,1,1,0,0,1-.4.31,1.73,1.73,0,0,1-.51.18,1.55,1.55,0,0,0-.29,0l-.37.06q-.93.09-1.74.09c-.66,0-1.25,0-1.77-.07l-.85-.06a1.55,1.55,0,0,1-.54-.18,1.28,1.28,0,0,1-.39-.25,1.27,1.27,0,0,1-.19-.5,2.85,2.85,0,0,1-.08-.74c0-.07,0-.22,0-.47s0-.45,0-.64V72.93h2.13V79c.43-.26.88-.57,1.36-.93a32.1,32.1,0,0,0,3.24-2.89l1.3,1.38a29.86,29.86,0,0,1-3.47,3.06,23.46,23.46,0,0,1-2.43,1.57v5.68a3.84,3.84,0,0,0,.08,1.07c.06.12.24.19.52.23A10.13,10.13,0,0,0,627.9,88.25Z"/><path class="cls-2" d="M636.76,81.74a45.44,45.44,0,0,0-3.53-3l1.18-1.4A37.09,37.09,0,0,1,638,80.28ZM638.27,84a22.45,22.45,0,0,1-2.93,6.24l-1.65-1.11a24.83,24.83,0,0,0,2.84-5.83Zm-4.19-9.47,1.2-1.39a30.08,30.08,0,0,1,3.2,2.61l-1.2,1.46A36.17,36.17,0,0,0,634.08,74.5Zm3.44,4.35A18.35,18.35,0,0,0,641,72.53l1.92.38c-.12.4-.26.81-.41,1.22h8.8v1.71h-9.52c-.14.31-.38.76-.72,1.36h9.82q-.12,1.68-.39,4.65h1.2v1.71h-1.36c0,.06-.13,1.06-.35,3h1.13v1.67h-1.34c0,.08,0,.19,0,.33a2.55,2.55,0,0,0,0,.31,1.94,1.94,0,0,1-.58,1.38,2.75,2.75,0,0,1-1.59.35c-.47,0-1.14,0-2-.06l-.09-1.63,1.65,0q.5,0,.6-.12a1.33,1.33,0,0,0,.15-.6h-7.25c-.09.53-.17,1-.25,1.32l-2-.14c.36-1.75.7-3.7,1-5.83h-1.19V81.85h1.42c.16-1.26.26-2.21.33-2.85a13.16,13.16,0,0,1-1,1.22Zm6,7.69c.15-1,.29-2,.41-3h-2.56c-.13,1-.29,2-.47,3Zm.6-4.69c.06-.59.17-1.59.31-3h-2.5c-.08.73-.19,1.74-.33,3Zm1.28,4.69H648c.22-1.92.33-2.92.35-3h-2.58C645.64,84.52,645.5,85.51,645.35,86.54Zm.6-4.69h2.54c.13-1.26.22-2.27.27-3h-2.5C646.12,80.26,646,81.26,646,81.85Z"/><path class="cls-2" d="M653.24,80.15h4.36v6.06a3.27,3.27,0,0,0,1.19,1.27,6.11,6.11,0,0,0,2.17.62,35.15,35.15,0,0,0,4.21.19h5.48L670.54,90h-5.47a28.14,28.14,0,0,1-5-.34,6.22,6.22,0,0,1-2.74-1.09,6,6,0,0,1-.54-.56,19.73,19.73,0,0,1-2.87,2.32l-.93-1.7a19.44,19.44,0,0,0,2.62-2.06V81.89h-2.37Zm4.58-3.26-1.36,1.2c-1-1.12-2.09-2.29-3.3-3.49l1.4-1.2C655.68,74.52,656.77,75.69,657.82,76.89Zm0-.51v-1.7h3c-.38-.74-.69-1.29-.91-1.65l1.86-.45c.43.74.81,1.44,1.15,2.1h2.77c.38-.68.72-1.37,1-2.08l1.92.37c-.2.44-.48,1-.86,1.71h2.91v1.7h-5.41c-.09.42-.18.81-.29,1.17h4.73v9.5H659v-9.5h3.84c.09-.36.19-.75.29-1.17ZM661,80.26h6.67V79.1H661Zm0,1.4v1.2h6.67v-1.2Zm0,2.62v1.26h6.67V84.28Z"/><path class="cls-2" d="M615,204.28h7.8v1.55H604.94v-1.55h7.79v-.84h-6.44V202h6.44v-.84h-7.11v-1.61h7.11v-1.2H615v1.2h7.12v1.61H615V202h6.44v1.43H615Zm-8.07,2.27H620.8v6.88a8.71,8.71,0,0,1,0,.91,2.69,2.69,0,0,1-.12.62.81.81,0,0,1-.27.39,1.34,1.34,0,0,1-.48.23,6,6,0,0,1-.72.12c-.17,0-.52,0-1,0-.32,0-1.28,0-2.87-.1l0-1.75c1.45.07,2.34.1,2.68.1a2,2,0,0,0,.66-.06q.12-.06.12-.48v-.49h-9.62v2.83h-2.14Zm2.14,2.48h9.62v-.88h-9.62Zm0,1.51v.91h9.62v-.91Z"/><path class="cls-2" d="M624.52,207.57h3v-1.84h2v1.84h2.37v1.69h-2.13c.85.74,1.75,1.58,2.69,2.52l-1.12,1.28c-.58-.67-1.19-1.31-1.81-1.92V216h-2v-4.77a18.34,18.34,0,0,1-2.6,3.29l-1-1.51a15.21,15.21,0,0,0,3.14-3.76h-2.44Zm17.4-2.75-.76,1.73a29.72,29.72,0,0,1-6.85-3.84v4h-2.13v-4a29.42,29.42,0,0,1-6.84,3.84l-.76-1.73A35.56,35.56,0,0,0,631,201.7H625.3V200h6.88v-1.59h2.13V200h6.89v1.75h-5.72A35.23,35.23,0,0,0,641.92,204.82Zm.05,2.75v1.69h-3.16a17.77,17.77,0,0,0,3.84,4.09l-1.06,1.53a21.19,21.19,0,0,1-3.4-3.58V216h-2v-4.54a21.43,21.43,0,0,1-3.53,3.68l-1.09-1.39a19.74,19.74,0,0,0,4.19-4.5h-3v-1.69h3.4v-1.84h2v1.84Z"/><path class="cls-2" d="M566.21,252.31h2.66v-2.4c-.54.07-1.33.14-2.35.21l-.17-1.62a41.73,41.73,0,0,0,6.92-1.13l.49,1.59a25.82,25.82,0,0,1-3,.68v2.67h2.44v1.75H571q1.51,2.71,2.7,5l-1.44,1c-.41-.91-.9-1.93-1.45-3v7.85h-1.94V258a17.66,17.66,0,0,1-1.92,3.72L565.82,260a19.56,19.56,0,0,0,2.89-5.95h-2.5Zm11.25-4.75h2v4.66a15,15,0,0,0,1.21,6.47,9.77,9.77,0,0,0,3.68,4.15l-1.14,1.77a11.28,11.28,0,0,1-4-5c-.27-.6-.49-1.18-.68-1.74a16.62,16.62,0,0,1-.67,1.67,11.91,11.91,0,0,1-4.25,5.06l-1.16-1.77a10.23,10.23,0,0,0,3.74-4.18,14.87,14.87,0,0,0,1.24-6.44ZM573,256.48a25.69,25.69,0,0,0,1.69-6.36l1.84.26a25.46,25.46,0,0,1-1.79,6.69Zm9,.16-1.77-.7a25.39,25.39,0,0,0,1.92-6.17l1.88.37A25.18,25.18,0,0,1,582,256.64Z"/><path class="cls-2" d="M586.49,248.3h16v16.1H600.4v-1.17H588.57v1.17h-2.08Zm7,1.75h-4.91v4.69h4.91Zm-4.91,6.39v5.09h4.91v-5.09Zm6.92-6.39v4.69h4.91v-4.69Zm0,11.48h4.91v-5.09h-4.91Z"/><path class="cls-2" d="M567.05,302.89h2v9.41H574V298.43h2.13V312.3h4.94v-9.41h2V315.5h-2v-1.36h-12v1.36h-2Z"/><path class="cls-2" d="M587.89,305.41c0-.6,0-1.62,0-3v-1.71h-2v-1.74h10.75v1.74h-2.14v4.75h2.14v1.75h-2.14v8.34h-2v-8.34h-2.72c0,.89-.1,1.54-.15,2a14.4,14.4,0,0,1-.9,3.91,10,10,0,0,1-1.62,2.64l-1.58-1.55A7.43,7.43,0,0,0,587,312a13,13,0,0,0,.72-3.38c0-.36.08-.83.11-1.41h-2.07v-1.75Zm2,0h2.62v-4.75h-2.58v1.71C589.93,303.78,589.91,304.79,589.89,305.41Zm5.29,8.44a20.75,20.75,0,0,0,3.92-1.94,17.17,17.17,0,0,0,3.22-2.77l1.36,1.28a18.49,18.49,0,0,1-3.36,3,19.91,19.91,0,0,1-4.11,2.12Zm.62-11.64a17.26,17.26,0,0,0,6-3.7l1.34,1.26a18.21,18.21,0,0,1-6.38,4.09Zm0,5.63a16.4,16.4,0,0,0,6.27-4.23l1.35,1.24a16.87,16.87,0,0,1-2.93,2.64,19.77,19.77,0,0,1-3.7,2Z"/><path class="cls-2" d="M653.69,299.5h7.46v4.65h-2v-2.91h-13v2.91h-2V299.5h7.46v-1.75h2.14Zm-6,15.22v1h-2.09V309h5.08c.14-.35.3-.82.48-1.4h-4.3v-5.27h11.44v5.27h-4.92c-.19.58-.35,1.05-.49,1.4h6.67v6.65h-2.09v-1Zm0-1.55h9.78v-2.42h-9.78Zm1.24-7.08h7.3v-2H649Z"/><path class="cls-2" d="M674.76,303.92a44.79,44.79,0,0,1-.29,7c-.14.57-.4.91-.79,1a5,5,0,0,1-.7,0c-.53,0-1.23-.05-2.09-.14l-.22-1.74a10.08,10.08,0,0,0,1.44.13c.31,0,.5-.07.58-.23a13.67,13.67,0,0,0,.23-3.55c0-.17,0-.46,0-.87h-2.19v.58a27,27,0,0,1-.5,5.51,13.8,13.8,0,0,1-1.59,4.05l-1.83-1A10.31,10.31,0,0,0,668,312.3a32.94,32.94,0,0,1-4.89,1.84l-.25-1.78c.9-.26,1.58-.46,2-.61v-7.17H662.9v-1.75h1.94v-4.14h1.9v4.14h1.63v1.75h-1.63v6.48c.47-.2,1-.44,1.68-.74a36.64,36.64,0,0,0,.33-5.62v-4.52H675c0-.44,0-1.12,0-2h2c0,.92,0,1.6,0,2h1.26c-.09-.27-.32-.86-.69-1.75l1.62-.68c.35.82.68,1.63,1,2.43H681v1.74h-3.88c0,.11,0,.79.12,2.06s.21,2.62.37,3.84a24.93,24.93,0,0,0,1.41-4.07l1.75.62a24,24,0,0,1-2.62,6.38c0,.05,0,.12,0,.22a.93.93,0,0,0,.05.2,13.14,13.14,0,0,0,.54,1.65c.15.32.28.49.39.49s.4-1.1.56-3.3l1.55.64c-.19,3.3-.81,4.94-1.84,4.94-1.19,0-2.13-.94-2.83-2.83a17.11,17.11,0,0,1-3.32,2.81L672,314.16a15,15,0,0,0,4-3.59,50.67,50.67,0,0,1-.9-8.65h-4.32v2Z"/><path class="cls-2" d="M623.33,371.59h2.07v1.85a13.86,13.86,0,0,1-1.47,3.6c.69.77,1.35,1.55,2,2.35v-1.94h11V386h-2v-.78h-6.94V386h-2V380.2l-1,.89c-.62-.82-1.14-1.48-1.55-2v7h-2.06v-6.07a13.55,13.55,0,0,1-1.86,1.47l-.66-2.07a11.26,11.26,0,0,0,4.63-6h-4.13v-1.85h2v-2.9h2.06Zm2.46-.73v-1.69H637v1.69Zm2.77,5.68h-2v-4.75h9.69v4.75Zm-.7,4.13h2.49v-1.55h-2.49Zm0,1.43v1.61h2.49V382.1Zm.7-7h5.57v-1.74h-5.57Zm3.72,5.59h2.52v-1.55h-2.52Zm0,1.43v1.61h2.52V382.1Z"/><path class="cls-2" d="M640.62,381.09V369.81h4.69c.13-.39.28-1,.45-1.73l2.13.14c-.11.54-.25,1.07-.4,1.59H654v6.48H642.72v.83h13.41v1.61H642.72v.81h12.93v.82a20.79,20.79,0,0,1-.23,3.53,3.07,3.07,0,0,1-.72,1.67,2.13,2.13,0,0,1-1.44.42c-.77,0-1.71,0-2.81-.13l-.07-1h-9.14v1h-2v-4.15h2v1.59h2.91v-2.14Zm2.1-8.62h9.19V371.4h-9.19Zm0,1.35v1.07h9.19v-1.07Zm8.22,10.34c.57,0,1.1.08,1.61.08a.85.85,0,0,0,.62-.2,1.72,1.72,0,0,0,.31-.85,18.31,18.31,0,0,0,.13-2.1h-7.46v2.14h2.91v-1.59h1.88Z"/><path class="cls-2" d="M662.17,453.54a22.33,22.33,0,0,0,4.49-3.65l1.48,1.36a23.79,23.79,0,0,1-4.77,3.92Zm.48-13.05h3.78v-1.75h2v1.75h5.62v-1.75h2v1.75h3.78v1.74h-3.78v1.55h-2v-1.55h-5.62v1.55h-2v-1.55h-3.78Zm3.59,7.42a38,38,0,0,0-3.53-2.52l1.3-1.61a35.75,35.75,0,0,1,3.55,2.47Zm13.28,8.57a11.37,11.37,0,0,1-5.22-3.12,10.4,10.4,0,0,1-1-1.32,9.67,9.67,0,0,1-1.07,1.34,11.32,11.32,0,0,1-5.18,3.1l-.87-1.78a10.19,10.19,0,0,0,4.38-2.36,4.77,4.77,0,0,0,1.63-3.46v-1.66h2.14v1.66a4.73,4.73,0,0,0,1.6,3.42,10.08,10.08,0,0,0,4.5,2.34Zm-1.9-10h-6.4l-.29.52a15.32,15.32,0,0,1-2.27,3.09l-1.74-1.17a14.06,14.06,0,0,0,3.43-5.77l2,.29a14.43,14.43,0,0,1-.46,1.41h7.87v1.63a12.15,12.15,0,0,1-2.71,4.07l-1.71-1.1A11.13,11.13,0,0,0,677.62,446.44Z"/><path class="cls-2" d="M693.42,444.62a44.88,44.88,0,0,1-.29,7,1.22,1.22,0,0,1-.79,1c-.21,0-.44,0-.7,0a20.79,20.79,0,0,1-2.09-.13l-.22-1.75a10.35,10.35,0,0,0,1.44.14c.31,0,.5-.08.58-.23a13.73,13.73,0,0,0,.23-3.55c0-.17,0-.46,0-.87h-2.19v.58a27,27,0,0,1-.5,5.51,13.8,13.8,0,0,1-1.59,4.05l-1.83-1a10.37,10.37,0,0,0,1.13-2.43,33,33,0,0,1-4.89,1.85l-.25-1.79,2-.6v-7.17h-1.94v-1.75h1.94v-4.15h1.9v4.15H687v1.75H685.4v6.47c.47-.19,1-.44,1.68-.73a36.79,36.79,0,0,0,.33-5.63v-4.51h6.29c0-.44,0-1.12,0-2h2c0,.92,0,1.6,0,2H697c-.09-.28-.32-.86-.69-1.75l1.62-.68c.35.82.68,1.62,1,2.43h.78v1.74h-3.88c0,.1,0,.79.12,2.05s.21,2.63.37,3.84a24.6,24.6,0,0,0,1.41-4.07l1.75.62a23.81,23.81,0,0,1-2.62,6.38l.05.23a1.13,1.13,0,0,0,0,.2,13.14,13.14,0,0,0,.54,1.65q.23.48.39.48c.22,0,.4-1.1.56-3.29l1.55.64c-.19,3.29-.81,4.94-1.84,4.94-1.19,0-2.14-.94-2.83-2.83a17.41,17.41,0,0,1-3.32,2.81l-1.32-1.41a15,15,0,0,0,4-3.59,50.79,50.79,0,0,1-.9-8.65h-4.32v2Z"/><path class="cls-2" d="M628.17,428.8a44.61,44.61,0,0,1-8.61,1v1.65h9v1.68h-5.23c0,.52,0,1.21,0,2.06h4.85q0,2-.06,3.45c0,1-.1,1.82-.19,2.44a15.06,15.06,0,0,1-.31,1.63,2.41,2.41,0,0,1-.49.93,1.3,1.3,0,0,1-.64.45,3.31,3.31,0,0,1-.83.1,24.21,24.21,0,0,1-2.64-.2l-.08-1.74a14.42,14.42,0,0,0,2.08.19.79.79,0,0,0,.68-.35,4,4,0,0,0,.4-1.59,32.14,32.14,0,0,0,.18-3.68h-3.05a16.5,16.5,0,0,1-.5,3.16,11.18,11.18,0,0,1-2.37,4.26l-1.55-1.35a10.22,10.22,0,0,0,1.57-2.39,10.6,10.6,0,0,0,.78-2.87,35.36,35.36,0,0,0,.23-4.5h-1.74v1.55a18.55,18.55,0,0,1-.62,5.22,15.82,15.82,0,0,1-2.16,4.34l-1.35-1.65a13.2,13.2,0,0,0,1.68-3.91c.11-.44.16-.72.18-.84l-.84.68c-.16-.35-.66-1.32-1.47-2.9v8.91h-2v-7a16.61,16.61,0,0,1-1.55,3.49l-1.2-1.92a21.55,21.55,0,0,0,2.68-6.79h-2.22v-1.8H613v-3.4h2v3.4h2v1.8H615.1c.67,1.19,1.45,2.6,2.34,4.25.08-.91.12-2,.12-3.2v-5.18a41.64,41.64,0,0,0,10.14-1.07Z"/><path class="cls-2" d="M631.09,442.55l-1.24-1.5a30.49,30.49,0,0,0,7.64-9h-6.84v-1.78h7.29v-3.45H640v3.45h7.29v1.78h-6.84a30.64,30.64,0,0,0,7.64,9l-1.24,1.5a29.31,29.31,0,0,1-6.85-8v10h-2.09v-10A29.14,29.14,0,0,1,631.09,442.55Z"/><path class="cls-2" d="M570.81,438.4h3.49v1.8h-3.49v4.3h-2.08v-4.3h-3.64v-1.8h3.64v-2.81h-3.22v-1.71h3.22v-2.6h-3.29v1.2h-.93v3.3h-4.58c-.16.62-.28,1.08-.37,1.39h5v7.14h-2v-.87h-3v.87h-1.84v-3.9a10.88,10.88,0,0,1-1.18,1.63l-.78-1.94a11.91,11.91,0,0,0,2.19-4.32h-1.4v-1.59h1.77c.13-.71.21-1.28.25-1.71H556v-1.64h2.68c0-.7,0-1.25,0-1.65h-2v-1.56h7.76v3.21h.77v-1.3h1.86c-.41-1-.81-1.76-1.18-2.45l1.88-.37c.48.9.92,1.83,1.34,2.82h1.16a27.11,27.11,0,0,0,1.24-2.82l1.94.31c-.31.82-.68,1.65-1.1,2.51h1.68v1.74h-3.29v2.6h3v1.71h-3Zm-11.25,3.43h3v-3.05h-3Zm.93-9.35c0,.57-.13,1.14-.23,1.71h2.31v-1.71Zm.14-1.64h1.94v-1.65h-1.9C560.67,429.56,560.65,430.11,560.63,430.84Z"/><path class="cls-2" d="M575.48,443.69a31.61,31.61,0,0,0,1.59-4.36l1.78.56a28.16,28.16,0,0,1-1.61,4.56Zm17.14-5.29a23.08,23.08,0,0,1-.23,3.74,3.16,3.16,0,0,1-.72,1.74,2,2,0,0,1-1.41.47c-.79,0-1.74-.05-2.84-.14l-.11-1.74a21.08,21.08,0,0,0,2.11.14.83.83,0,0,0,.66-.24,2.36,2.36,0,0,0,.35-1.08,22.5,22.5,0,0,0,.16-2.6h-2.22c.52,1.25.92,2.31,1.19,3.16l-1.53.46c-.44-1.28-.84-2.36-1.21-3.23l1.21-.39H577.21V427.54h14.67v1.69h-6.14v1.51h5.56v1.55h-5.56v1.55h5.56v1.55h-5.56V437h6.88Zm-9-7.66v-1.51h-4.38v1.51Zm0,1.55h-4.38v1.55h4.38Zm0,3.1h-4.38V437h4.38Zm-3.06,8.49c-.14-1.19-.37-2.56-.68-4.11l1.69-.29a37,37,0,0,1,.73,4.13Zm3.86-.64c-.26-1.21-.58-2.42-1-3.62l1.61-.39a36.73,36.73,0,0,1,1,3.65Z"/><path class="cls-2" d="M595.22,501v-5.43h-9.85v-1.74h1.07l-.48-1.13h-1.75v6.89c.66-.27,1.32-.56,2-.88l.15,1.81a38.11,38.11,0,0,1-5.85,2.27l-.25-1.79c.93-.28,1.57-.49,1.93-.62v-7.68h-1.84v-1.74h1.84v-4.15h2v4.15h1.84v1.32a6.33,6.33,0,0,0,3.78-1.94,4.59,4.59,0,0,0,.55-.81h-4.33v-1.75H591a9,9,0,0,0,.13-1.67h2a9.3,9.3,0,0,1-.14,1.67h5v1.75h-5.55a.12.12,0,0,1,0,.08l0,.07a40.53,40.53,0,0,1,5.94,2.95l-.64,1.2h.83v1.74h-1.28v5.34c0,.55,0,.92,0,1.1a3.62,3.62,0,0,1-.13.76,1.32,1.32,0,0,1-.24.5,1.12,1.12,0,0,1-.46.27,3.13,3.13,0,0,1-.68.14c-.34,0-.67,0-1,0-.52,0-1.47,0-2.85-.1l-.1-1.69c1.05.06,1.9.08,2.56.08a1.24,1.24,0,0,0,.76-.15A1.57,1.57,0,0,0,595.22,501Zm-6.39-4.5h4.84v4.93h-4.84v1.28h-1.9v-6.21Zm7.89-2.67c-.78-.5-1.57-1-2.37-1.4-1.2-.64-2.12-1.11-2.77-1.39a3.15,3.15,0,0,1-.27.31,7.5,7.5,0,0,1-4.06,2.48ZM588.83,498v1.82h3V498Z"/><path class="cls-2" d="M600.79,487.28h16.09v1.85h-7.07v4.5h5.72v1.8h-5.72v5.72h7.46V503H600.4v-1.84h7.27v-5.72h-5.52v-1.8h5.52v-4.5h-6.88Zm11.94,8.65c1.31,1.14,2.43,2.2,3.38,3.18l-1.4,1.36q-1.43-1.5-3.29-3.1Z"/><path class="cls-2" d="M535,536.5h2v9.41H542V532h2.13v13.87h5V536.5h2v12.61h-2v-1.36h-12v1.36h-2Z"/><path class="cls-2" d="M561.38,540.83h2.13v1.43h7.37V544h-6.49a25.87,25.87,0,0,0,7.11,3.45l-.75,1.73a26.1,26.1,0,0,1-7.24-3.82v4.07h-2.13v-4.07a25.89,25.89,0,0,1-7.23,3.82l-.76-1.73a26.09,26.09,0,0,0,7.12-3.45H554v-1.71h7.37Zm1.69-5.29v1.6h-2.54l2.79,2.27-1.55,1.26c-.82-.89-1.62-1.74-2.43-2.54v3.36H557.5v-3.18a10.25,10.25,0,0,1-2.85,3l-1.12-1.74a11.21,11.21,0,0,0,3-2.41h-2.62v-1.6h3.53v-1.19c-.71.07-1.74.14-3.1.22l-.19-1.61a78.3,78.3,0,0,0,8.3-.92l.54,1.56c-1,.19-2.25.37-3.61.54v1.4Zm.89,3.23v-6h2v6Zm4.6-6.53h2v6.4a4.06,4.06,0,0,1-.41,2.34c-.27.31-1,.47-2.11.47-.17,0-1,0-2.52-.1l-.1-1.65c1.29.07,2,.1,2.23.1.43,0,.68,0,.76-.14a1.87,1.87,0,0,0,.12-.89Z"/><path class="cls-2" d="M594.74,548.2h-5.29v-7.37h6.11v-1.1H587.9v-1.67h7.66v-1.59h2.13v1.59h7.66v1.67h-7.66v1.1h6.11v7.37h-5.3a26.67,26.67,0,0,0,7.18,3.88l-.85,1.74a26.89,26.89,0,0,1-7.14-4.17v4.46h-2.13v-4.46a27,27,0,0,1-7.14,4.17l-.85-1.74A26.44,26.44,0,0,0,594.74,548.2Zm.82-5.82h-4.13v1.36h4.13Zm-4.13,2.81v1.46h4.13v-1.46Zm6.26-2.81v1.36h4.13v-1.36Zm0,4.27h4.13v-1.46h-4.13Z"/><path class="cls-2" d="M613.24,548.84a18.74,18.74,0,0,1-4.83,4.63L607.19,552a18.36,18.36,0,0,0,4.58-4.32Zm11.5-10.78v1.7H607.29v-1.7H615v-1.59h2.13v1.59Zm-10.18,15.86c-.45,0-1.38,0-2.77-.1l-.08-1.8q1.8.12,2.52.12c.45,0,.72,0,.8-.14a2.08,2.08,0,0,0,.11-.89v-3.78h-5.91v-6.4H622.8v6.4h-5.53v3.78c0,1.28-.14,2.07-.44,2.36A3.61,3.61,0,0,1,614.56,553.92Zm-3.24-8.18h9.39v-3.26h-9.39Zm7.29,3.35,1.3-1.4a36.25,36.25,0,0,1,5,4.56l-1.36,1.34A35.75,35.75,0,0,0,618.61,549.09Z"/><path class="cls-2" d="M589.13,581.54h1.68v1.84a23.54,23.54,0,0,1-1.21,3.44c.6.86,1.21,1.82,1.82,2.88v-8.84h3.28v-2.23h1.52v2.23h3.28v11.77H598v-1.16h-1.78v4.61H594.7v-4.61h-1.83v1.16h-1.45v-2.4l-.86,1c-.51-.89-1-1.69-1.43-2.39v7.23h-1.49v-6.26a11,11,0,0,1-1.55,1.67l-.49-2.08a12.63,12.63,0,0,0,3.66-6H586v-1.84h1.66v-2.91h1.49Zm5.57,1.07h-1.83v2.66h1.83ZM592.87,587v2.81h1.83V587Zm3.35-4.36v2.66H598v-2.66Zm0,7.17H598V587h-1.78Z"/><path class="cls-2" d="M600.49,588l-.84-1.63a13.13,13.13,0,0,0,3.72-3.43,9.15,9.15,0,0,0,.77-1.24h-3.95V580h4.72a10.61,10.61,0,0,0,.48-1.63l1.57.25c-.09.44-.22.9-.37,1.38h6v1.75h-3.93a11.61,11.61,0,0,0,4.47,4.65l-.85,1.65a12.21,12.21,0,0,1-2.79-2.41v1h-6.11v-1A14,14,0,0,1,600.49,588Zm-.57,6.16a15.38,15.38,0,0,0,3-3.89l1.08,1a16.24,16.24,0,0,1-3.14,4.21Zm12.41-5.91V590h-5v3.36c0,.31,0,.63,0,1a4,4,0,0,1-.09.68,1.32,1.32,0,0,1-.21.46.68.68,0,0,1-.36.23,2,2,0,0,1-.54.12,6.57,6.57,0,0,1-.78,0c-.31,0-1,0-2-.1l0-1.74c.9.06,1.48.1,1.73.1a1.24,1.24,0,0,0,.61-.08c.06-.05.09-.27.09-.64V590H600.4v-1.74Zm-6.43-6.55a15.52,15.52,0,0,1-1.31,2.28c-.27.39-.48.68-.62.86h4.87a14.33,14.33,0,0,1-1.86-3.14Zm2.65,9.73,1-1.28a39.79,39.79,0,0,1,3.28,4.23l-1,1.26A43.17,43.17,0,0,0,608.55,591.47Z"/><path class="cls-2" d="M615.06,579.21h1.52v7.47a24.43,24.43,0,0,1-.48,5.33,11.43,11.43,0,0,1-1.6,3.8l-1.24-1.1a10.88,10.88,0,0,0,1.41-3.51,27.05,27.05,0,0,0,.39-5.24ZM619.6,594V579.7h1.53V594Zm4.8,1.65V579.21H626V595.6Z"/><path class="cls-2" d="M664.44,538.79a69.77,69.77,0,0,0,7.68-.43,44.09,44.09,0,0,0,6.56-1.12l.42,1.84a41.43,41.43,0,0,1-6.42,1.14V545h7.66v1.9h-7.66v7.76h-2.13v-7.76h-7.66V545h7.66v-4.61q-3,.21-6.11.21Z"/><path class="cls-2" d="M699.64,538.25V540h-4.17v.78h1.59v1h2.58v1.66h-2.58v2.33h-7.95V543.4h-2.33v3h11.69v1.59h-6.39v.74h7.36v1.65h-6a29.77,29.77,0,0,0,6.59,2.52l-.69,1.65a28.36,28.36,0,0,1-7.29-3.32v3.41h-2.14v-3.41a28.36,28.36,0,0,1-7.29,3.32l-.7-1.65a29.68,29.68,0,0,0,6.6-2.52h-6v-1.65h7.37v-.74h-5.23V543.4h-2.33v-1.66h2.33v-1h1.84V540h-4.17v-1.7h4.17V537h2v1.24h4.85V537h2v1.24Zm-10.53,3.49v-1h2v1H695V541h-1.61v-1h-4.85v1h-1.8v.78Zm2,1.66v.92H695v-.92Z"/><path class="cls-2" d="M533,376h-3.69v1.22h3.49v1.68h-3.39c.85.74,1.75,1.58,2.7,2.53L531,382.67a22.68,22.68,0,0,0-1.67-1.79v4.54h-2V381a15.52,15.52,0,0,1-2.56,3.14l-1.15-1.51a12.86,12.86,0,0,0,3.17-3.77H524v-1.68h3.3V376H524v-1.63h2c-.3-1.13-.6-2.14-.89-3h-1v-1.68h3.2v-1.94h2v1.94h3.75v1.68H532a15.84,15.84,0,0,1-1,3h2Zm-5.14-1.63h1.22a17.83,17.83,0,0,0,1.07-3H527C527.37,372.35,527.66,373.36,527.89,374.33Zm4.77,10.9-1.49-1.34a13.81,13.81,0,0,0,1.65-3.16,17.81,17.81,0,0,0,.85-4.27q.27-2.77.27-7.12a27.48,27.48,0,0,0,7-1.33l.5,1.82a27.12,27.12,0,0,1-5.58,1.18c0,1.26-.05,2.19-.08,2.79h6v1.85H540v9.59h-2v-9.59h-2.3c-.06.62-.09,1.07-.12,1.35a21.38,21.38,0,0,1-1,4.81A12.91,12.91,0,0,1,532.66,385.23Z"/><path class="cls-2" d="M546.45,376.77a41.94,41.94,0,0,0-3.53-3l1.18-1.39a37.8,37.8,0,0,1,3.55,2.91Zm10.91,5.68a31,31,0,0,0-.87-3.16l1.32-.31h-7.12c-.51.52-.91.89-1.18,1.12l1.49.3a34.17,34.17,0,0,1-1.16,4.61l-1.72-.54c.47-1.54.84-2.92,1.1-4.13l-.31.24-.37.28-.81-1.1a23.06,23.06,0,0,1-2.68,5.48l-1.67-1.1a25.34,25.34,0,0,0,2.85-5.84l1.73.7a15.68,15.68,0,0,0,1.88-1.69,11,11,0,0,0,.87-1h-1.92v-7.22a22.35,22.35,0,0,0,4.89-1.28l.62,1.75a19.81,19.81,0,0,1-3.53.93v1.32h3v1.55h-3v1.39H558v-1.39h-3v-1.55h3v-1.42H554.8V368.7h5.32v7.61h-7.27c-.17.27-.44.64-.8,1.12h9q0,2.56-.12,4.11a9,9,0,0,1-.46,2.37,2,2,0,0,1-.74,1.08,2.32,2.32,0,0,1-1.2.27c-.89,0-1.88,0-3-.07l-.09-1.75c.84.05,1.6.08,2.28.08a.89.89,0,0,0,.74-.27,2.73,2.73,0,0,0,.37-1.15Zm-13.43-12.91,1.2-1.4a33.48,33.48,0,0,1,3.2,2.62l-1.2,1.45C546.17,371.32,545.1,370.43,543.93,369.54Zm8,14.77c-.12-1.38-.29-2.75-.48-4.11l1.59-.27a39.47,39.47,0,0,1,.54,4.13Zm2.78-.85c-.16-1-.38-2.18-.68-3.61l1.53-.35c.31,1.34.56,2.54.74,3.61ZM558,379c.38,1.2.66,2.2.84,3a26.15,26.15,0,0,0,.17-3Z"/><path class="cls-2" d="M480.66,370.53H467.94v2.52h-2v-4.11h7.27v-1.65h2.13v1.65h7.27v4.11h-2Zm-11.83,14v.77h-2.05v-7.46h15.05v7.46h-2.06v-.77Zm1.36-7.31H468.1v-3.8h12.41v3.8Zm-1.51-4.46v-1.52h11.25v1.52Zm.15,7.69h4.5v-1.06h-4.5Zm0,1.46v1.12h4.5v-1.12Zm1.36-6h8.22v-1h-8.22Zm5.08,4.55h4.5v-1.06h-4.5Zm0,1.46v1.12h4.5v-1.12Z"/><path class="cls-2" d="M485.65,372.52h2v9.41h4.95V368.06h2.13v13.87h4.95v-9.41h2v12.61h-2v-1.36h-12v1.36h-2Z"/><path class="cls-2" d="M658.61,264.63v-1h-8.37v1h-2v-5.06a18.43,18.43,0,0,1-3.3,2.09l-.71-1.76a16.12,16.12,0,0,0,4.07-2.74,11.76,11.76,0,0,0,1.7-2.07h-5.25v-1.75H662v1.75h-9.62a12.37,12.37,0,0,1-1.16,1.82h9.52v7.72ZM661.09,252H645.58v-3.84h2v2.13h4.67v-3h2.1v3h4.67v-2.13h2Zm-10.85,10h8.37v-3.39h-8.37Z"/><path class="cls-2" d="M663.91,257.45H672v-2.61h-7.11v-1.75H672v-2.42q-3,.22-6.34.23l-.1-1.78a72.32,72.32,0,0,0,7.68-.43,44,44,0,0,0,6.56-1.13l.42,1.79a44.36,44.36,0,0,1-6.09,1.1v2.64h6.46v1.75h-6.46v2.61h7.43v1.79h-7.43v2.58c0,.55,0,.92,0,1.1a4.25,4.25,0,0,1-.14.74,1.42,1.42,0,0,1-.27.5,1.08,1.08,0,0,1-.47.29,3,3,0,0,1-.7.14c-.33,0-.67,0-1,0-.64,0-1.77,0-3.42-.1l-.07-1.78c1.48.06,2.48.09,3,.09a1.39,1.39,0,0,0,.82-.15,1.51,1.51,0,0,0,.15-.87v-2.58h-8.08Z"/><path class="cls-2" d="M473.71,454h1.59v12.91a16.88,16.88,0,0,0,4.59-2.11,16.57,16.57,0,0,1-3.2-4.11l1.81-.78a12.78,12.78,0,0,0,2.92,3.71,11.88,11.88,0,0,0,3-4.15h-8.32v-1.69h4.07v-2.58h-4.36v-1.74h4.36v-2.18h2.14v2.18h4.61v1.74h-4.61v2.58h4.16v1.69a14.58,14.58,0,0,1-3.58,5.31,17.08,17.08,0,0,0,4.22,2.21l-.64,1.75a17.92,17.92,0,0,1-5.09-2.72,21.57,21.57,0,0,1-5.57,2.72l-.56-1.36h-4.35v1.16h-1.82V454h1.59v11.63h.68V451.56H473v14.05h.7Z"/><path class="cls-2" d="M485.48,483.59h-6.6V485h7.76v1.65h-7.76v2.72h-2.13v-2.72H469V485h7.76v-1.45h-6.21v-10.8h5.08c.13-.39.28-1,.45-1.73l2.13.14c-.11.54-.25,1.07-.4,1.59h6.9v4.79H472.62v1.3h12.86Zm-12.86-7.51h10v-1.66h-10Zm0,4.35v1.67H483.4v-1.67Z"/><path class="cls-2" d="M530,593.22h3.23v1.55h-8.61v-1.55H528v-.86h-2.75v-1.51H528V590h-3.14v-1.61H528v-1.2h2v1.2h3.16V590H530v.87h2.71v.68a17.53,17.53,0,0,0,1.53-1.88,14.8,14.8,0,0,0,1.53-2.72l1.81.26a11.73,11.73,0,0,1-.45,1.1H541v1.63a15.14,15.14,0,0,1-1.34,1.51h2.5V595H543v1.71h-.78v4H540.3v-.5h-1.61v1.61c0,.54,0,.9,0,1.08a4.48,4.48,0,0,1-.09.76,1.76,1.76,0,0,1-.22.5.84.84,0,0,1-.36.3,2.6,2.6,0,0,1-.59.13,6.85,6.85,0,0,1-.79,0c-.42,0-1.19,0-2.33-.1l-.1-1.78c.84.06,1.41.1,1.71.1s.58-.06.66-.16a1.8,1.8,0,0,0,.12-.87V600.2h-3.07v-1.59h3.07v-1.94h-3.45V595h3.45V593h-2.19v-.69a12.69,12.69,0,0,1-1,.95l-.95-.92H530Zm.83,11.36q-.52,0-1.86-.12l0-1.72,1.4.1c.29,0,.46,0,.5-.08a1,1,0,0,0,.08-.47v-.58h-3.73v2.91h-1.93v-9.15h7.56v6.82c0,.47,0,.78,0,.93a4.21,4.21,0,0,1-.1.62,1,1,0,0,1-.19.39,1.09,1.09,0,0,1-.39.23,3,3,0,0,1-.52.1C531.5,604.57,531.25,604.58,530.86,604.58Zm-3.65-6.65h3.73v-.87h-3.73Zm0,1.45v.88h3.73v-.88Zm9.93-8c.2-.16.48-.44.86-.81a2.61,2.61,0,0,1,.23-.22l.26-.26.2-.22h-2.4l-.18.28a2.36,2.36,0,0,1-.17.26c-.16.24-.39.56-.7,1ZM540.3,593h-1.61V595h1.61Zm-1.61,5.59h1.61v-1.94h-1.61Z"/><path class="cls-2" d="M559.11,601.67V589.49H546.9v15.09h-2V587.75h16.29v13.92c0,.54,0,.91,0,1.09a3.44,3.44,0,0,1-.14.77,1.08,1.08,0,0,1-.25.51,1.39,1.39,0,0,1-.46.27,3.93,3.93,0,0,1-.7.14h-1c-.79,0-1.86,0-3.22-.07l-.08-1.81c1.66.07,2.59.1,2.79.1.5,0,.79,0,.9-.16S559.11,602.15,559.11,601.67Zm-.77-6.45H554v4.07h1.61v-3.11h1.94v5.76h-1.94v-1h-5.23v1.94h-1.94v-6.73h1.94v3.11H552v-4.07h-4.33v-1.69h2.62c-.34-1-.72-2.09-1.16-3.16l1.78-.49c.54,1.32,1,2.54,1.32,3.65h1.39a20.91,20.91,0,0,0,1.58-3.72l1.78.52a20.43,20.43,0,0,1-1.32,3.2h2.68Z"/><path class="cls-2" d="M465.59,588.29q4.17,0,8.28-.27,3.93-.25,6.59-.7l.33,1.63c-.65.11-1.53.23-2.66.37l1.17.41a17.63,17.63,0,0,1-.72,1.61h2.85v3.88h-1.18c.32.45.66,1,1,1.55l-1.43,1a27.89,27.89,0,0,0-2.08-2.94c0,.34,0,.61-.05.79a3.72,3.72,0,0,1-.2.66,1.65,1.65,0,0,1-.23.47,1.3,1.3,0,0,1-.45.23,2.92,2.92,0,0,1-.64.12c-.23,0-.53,0-.91,0q-.88.06-2.19.06H472c-.24.24-.48.46-.74.68h7.46v1.55a12,12,0,0,1-3.29,2.39,33.34,33.34,0,0,0,6.18,1.12l-.46,1.73a32.43,32.43,0,0,1-7-1.48l-1-.34a35.36,35.36,0,0,1-8.12,1.82l-.47-1.73a37.08,37.08,0,0,0,6.22-1.1,17.55,17.55,0,0,1-2.19-1.26l.93-1.15h-.38a20.49,20.49,0,0,1-3.84,1.84l-.91-1.53A19.75,19.75,0,0,0,469.7,597a1.06,1.06,0,0,1-.41-.24.83.83,0,0,1-.27-.5,8.38,8.38,0,0,1,0-.93v-1.82h1.94v1.24a1.75,1.75,0,0,0,.08.73c.06.1.26.15.58.16.49,0,1,0,1.43,0s.9,0,1.44,0a2.19,2.19,0,0,0,1.16-.25,2.12,2.12,0,0,0,.29-1.15l1.71.35-.18-.22-.19-.22,1.4-1c.22.25.49.58.81,1v-1.28h-6.34a22.55,22.55,0,0,1,2.11,1.12l-.93,1.38a29.35,29.35,0,0,0-3-1.53l.6-1h-5.18v1.67a9.72,9.72,0,0,0,.6-1l1.4.93a10.33,10.33,0,0,1-2.7,3.33l-.31-.29a1.57,1.57,0,0,1-.19-.18l-.22-.24-.21-.2-.31-.29a13,13,0,0,0,1.44-1.43h-1.48v-3.88h3.32c-.22-.46-.47-.93-.76-1.42H465.7Zm7,3.05c-.26-.53-.52-1-.8-1.53-.54,0-1.33.05-2.36.07l.73,1.46Zm.62,9.67a15.93,15.93,0,0,0,3-1.59h-6A18.21,18.21,0,0,0,473.17,601Zm3.32-9.67c.33-.65.63-1.3.91-1.94-1.43.14-2.63.24-3.61.31.32.62.59,1.16.79,1.63Z"/><path class="cls-2" d="M483.8,596.05v-1.81h4v-3.68h-1.22a23.63,23.63,0,0,1-1.32,3.24l-1.67-.66a25.72,25.72,0,0,0,2-6.28l1.78.27c-.1.58-.22,1.14-.35,1.69h5.3v1.74h-2.53v3.68h2.78v1.81h-2.89c-.05.37-.1.68-.14.91q1.65,2.44,3.3,5.23l-1.63,1.11c-.71-1.24-1.51-2.57-2.38-4-.21.52-.35.84-.41,1A10.48,10.48,0,0,1,485,604.5l-1.22-1.61a9.36,9.36,0,0,0,3-3.58,10.15,10.15,0,0,0,.95-3.26ZM501,588.43v16h-2v-1.17h-3.82v1.17h-1.94v-16Zm-5.82,13.05H499V590.23h-3.82Z"/><path class="cls-2" d="M432.31,478.34c-1-1-2.07-1.95-3.28-2.95l1.18-1.36c1,.79,2,1.67,3,2.62l.87-1.16c.09.1.22.26.38.48l.36.51c.46-1,.91-2.15,1.33-3.34H433.7v-.7l-1.1,1.15c-.91-.89-1.89-1.78-3-2.66l1.24-1.26a31.86,31.86,0,0,1,2.81,2.47v-.7H437c-.32-.77-.6-1.38-.84-1.85l2-.42c.39.76.73,1.52,1,2.27h2.5c.34-.71.65-1.47.95-2.27l2,.37a20.43,20.43,0,0,1-.78,1.9h3.36v1.7H444.1q-.92,2.55-2,4.81l1.06,1.51c.62-1.31,1.32-2.95,2.08-4.9l1.59.73q-1.07,2.68-2.21,5.1l1.43-.3q.76,3.27,1.32,6.55l-1.65.33q0-.24-.12-.69c-.06-.3-.1-.53-.13-.69l-4.21.51a2.12,2.12,0,0,1,.05.28c0,.12,0,.21.05.26l-1.61.33c-.1-.65-.19-1.13-.25-1.46l-6.42.76-.12-1.69,1.73-.17c.58-1.09,1.09-2.08,1.53-3-.77-1.07-1.81-2.42-3.1-4.05Zm1.59,2.25a25.25,25.25,0,0,1-2.74,6.17l-1.65-1a27.26,27.26,0,0,0,2.64-5.84Zm7-4.31c.49-1.12.91-2.17,1.26-3.14h-4.1q-.87,2.44-2.05,5c.57.78.92,1.28,1.07,1.49.76-1.66,1.48-3.34,2.15-5.06l1.59.73-.24.59.15.19Zm-1.69,7.7c-.16-.82-.4-1.94-.72-3.35-.58,1.21-1.19,2.41-1.82,3.59Zm3.1-2.73q-1.57-2.26-2.5-3.51c-.34.79-.74,1.67-1.2,2.65l1.43-.3c.24,1,.52,2.32.86,4C441.34,483.23,441.81,482.3,442.33,481.25ZM445.2,484c-.22-1.16-.45-2.28-.7-3.35-.53,1.12-1.14,2.32-1.84,3.6Z"/><path class="cls-2" d="M438.16,489.55c0,.32,0,.72,0,1.2l0,.74a10,10,0,0,1-.11,1.32,8.62,8.62,0,0,1-.23.85,1,1,0,0,1-.33.42,1.24,1.24,0,0,1-.49.22c-.21,0-.43,0-.68,0-.4,0-1.2,0-2.4-.1l-.1-1.59c.61.05,1.14.08,1.59.08s.57-.07.62-.2a5.81,5.81,0,0,0,.16-1.39h-1.92a7,7,0,0,1-.68,1.65,7.39,7.39,0,0,1-2,2.07h13.83v7.95H442.1a35.61,35.61,0,0,1,4.87,1.86l-.92,1.57a44,44,0,0,0-6.18-2.4l.44-1h-4.22l.46.87a17.41,17.41,0,0,1-2.77,1.32,24.91,24.91,0,0,1-3.61,1.11l-.71-1.63a30,30,0,0,0,5.11-1.67H431v-7.58l-.88.52-1-1.67a6.61,6.61,0,0,0,2.67-2.24,3.57,3.57,0,0,0,.33-.7h-2.31v-1.59h2.66a10,10,0,0,0,.06-1.13h2a10.28,10.28,0,0,1-.06,1.13Zm-5,7.56h10.08v-.74H433.16Zm0,1.3v.77h10.08v-.77Zm0,2.07v.78h10.08v-.78Zm7.76-6.4h-2V489.2h7.5v4.88Zm0-1.49h3.49v-1.74h-3.49Z"/><path class="cls-2" d="M429.86,573.38v-1.84h16.68v1.84Zm1.26-12.89v-1.84h14.16v1.84Zm1.17,6v-1.78h11.82v1.78Z"/><path class="cls-2" d="M430,582.79h7.11v-.91c-2.21.09-4.24.13-6.11.13v-1.65a90.43,90.43,0,0,0,14.33-1l.24,1.69c-1.95.3-4.06.52-6.32.68v1h7.11v1.61h-7.11v.81h6v6h-6V592h6.53v1.61h-6.53v1h7.62v1.69H429.51v-1.69h7.62v-1H430.6V592h6.53v-.82h-5.95v-6h5.95v-.81H430Zm3.14,4.79h4v-.86h-4Zm0,1.28v.85h4v-.85Zm6.11-1.28h4v-.86h-4Zm0,2.13h4v-.85h-4Z"/><path class="cls-2" d="M428.69,347.13a14.84,14.84,0,0,0,6.59-9.23h-5.87v-1.78h16.86v1.78h-8.86a19.32,19.32,0,0,1-1.84,4.81h9.83v9.7h-2.09v-1h-7.95v1h-2.08V345.7a16.45,16.45,0,0,1-3.55,3.16Zm6.67,2.56h7.95v-5.18h-7.95Z"/><path class="cls-2" d="M431.21,355.9h2v7.46a18.79,18.79,0,0,1-.64,5.33,10.16,10.16,0,0,1-2.14,3.81l-1.65-1.11a9.57,9.57,0,0,0,1.89-3.51,20.78,20.78,0,0,0,.52-5.24Zm6.05,14.73V356.38h2v14.25Zm6.4,1.65V355.9h2.09v16.38Z"/><path class="cls-2" d="M407.64,442.28h2.07v1.85a13.86,13.86,0,0,1-1.47,3.6c.69.76,1.35,1.55,1.95,2.35v-1.94h11v8.59h-2V456h-6.94v.78h-2v-5.84l-1,.89c-.62-.82-1.14-1.48-1.55-2v7h-2.06v-6.07a13.55,13.55,0,0,1-1.86,1.47l-.66-2.07a11.26,11.26,0,0,0,4.63-6h-4.13v-1.85h2v-2.9h2.06Zm2.46-.73v-1.69h11.24v1.69Zm2.77,5.68h-2.05v-4.75h9.69v4.75Zm-.7,4.13h2.48v-1.55h-2.48Zm0,1.43v1.61h2.48v-1.61Zm.7-7h5.57V444h-5.57Zm3.72,5.59h2.52v-1.55h-2.52Zm0,1.43v1.61h2.52v-1.61Z"/><path class="cls-2" d="M427.65,439.41h2.09v3.3h5.12v-3.3H437v3.3h3.59v1.8H437v4.95h3.73v1.78H437v5.43h-2.09v-5.43h-5.57l0,.14a.32.32,0,0,0,0,.13,7.35,7.35,0,0,1-.78,2.14,9.91,9.91,0,0,1-1.2,1.63,14.79,14.79,0,0,1-1.79,1.57l-1.41-1.48c.48-.37.91-.74,1.3-1.1a8.33,8.33,0,0,0,.95-1.13,5.26,5.26,0,0,0,.68-1.3c0-.11.09-.31.17-.6h-4v-1.78h4.32c.08-.61.13-1.11.14-1.5s0-1.5,0-2.92v-.53h-4.37v-1.8h4.37Zm1.9,10h5.31v-4.95h-5.12V445c0,1.5,0,2.75-.12,3.76,0,.08,0,.19,0,.34A2.67,2.67,0,0,0,429.55,449.46Z"/><path class="cls-2" d="M367.73,490.7a18.9,18.9,0,0,1-4.83,4.63l-1.22-1.43a18.22,18.22,0,0,0,4.58-4.33Zm11.5-10.78v1.7H361.78v-1.7h7.66v-1.6h2.13v1.6Zm-10.18,15.86c-.45,0-1.38,0-2.77-.1l-.08-1.8c1.2.07,2,.11,2.52.11s.72,0,.79-.13a1.93,1.93,0,0,0,.12-.9v-3.78h-5.91v-6.39h13.57v6.39h-5.53V493a3.86,3.86,0,0,1-.44,2.37A3.61,3.61,0,0,1,369.05,495.78Zm-3.24-8.19h9.39v-3.25h-9.39ZM373.1,491l1.3-1.4a36.25,36.25,0,0,1,5,4.56L378,495.45A35.75,35.75,0,0,0,373.1,491Z"/><path class="cls-2" d="M396.72,485.77a6.74,6.74,0,0,1,1.71,2.21,6.16,6.16,0,0,1,.62,2.66,3.5,3.5,0,0,1-.74,2.46,3.12,3.12,0,0,1-2.31.74h-1.22l-.33-1.79H395a3,3,0,0,0,1.65-.31,1.35,1.35,0,0,0,.41-1.16q0-2.32-2.56-4.71a29.09,29.09,0,0,0,2.37-5.22h-2.91v15.22h-2V480.42a25.2,25.2,0,0,1-2.13,3.18h1.61v1.71h-3.13l-.62.62c-.46.43-.81.76-1,1h4.15v9h-2v-.77h-4.23v.77h-2v-6.09l-1.36.72-.56-1.88a23.19,23.19,0,0,0,4.94-3.31h-4.61V483.6h3.68v-2h-2.77v-1.66h2.77v-1.69h2v1.69h2.56v1.29a20.75,20.75,0,0,0,1.37-2.27l1.34.59V479h7v1.65A29.11,29.11,0,0,1,396.72,485.77Zm-12.16,4.42h4.23V488.6h-4.23Zm0,1.61v1.65h4.23V491.8Zm4.4-10.22h-2.3v2h.64A20.92,20.92,0,0,0,389,481.58Z"/><path class="cls-2" d="M362.08,549.62a13.81,13.81,0,0,0,5.64-4.67,11.19,11.19,0,0,0,1.88-5.18h-7.19v-1.84h7.27v-3.88h2.13v3.88h7.28v1.84h-7.2a11.42,11.42,0,0,0,1.88,5.18,13.88,13.88,0,0,0,5.64,4.67l-1.1,1.59a14.35,14.35,0,0,1-6.09-5.3,15.89,15.89,0,0,1-1.4-2.67,15.11,15.11,0,0,1-1.43,2.67,14.63,14.63,0,0,1-6.21,5.3Z"/><path class="cls-2" d="M366.48,563a4.14,4.14,0,0,0-.35-1.73,9.48,9.48,0,0,0-1.37-2,23.17,23.17,0,0,0,2.21-4.79h-2.43v15.26H362.6V553h6.21v1.61a25.09,25.09,0,0,1-2.06,4.7,8.16,8.16,0,0,1,1.2,2.07,6,6,0,0,1,.37,2.15,2.87,2.87,0,0,1-.66,2.1,2.79,2.79,0,0,1-2.05.66h-.39l-.33-1.65h.39a1.21,1.21,0,0,0,1-.31A2.1,2.1,0,0,0,366.48,563Zm13-10v1.75h-8.28v2.52h7.82V559a16.52,16.52,0,0,1-2.91,6.34A12.13,12.13,0,0,0,380,568l-1,1.69a12.92,12.92,0,0,1-4.19-2.89,14.72,14.72,0,0,1-4.65,2.89l-.8-1.61a8.93,8.93,0,0,1-1,1.51L367,567.88a10.94,10.94,0,0,0,1.66-3.78,23,23,0,0,0,.55-5.46v-5.59Zm-6,12.29a16.39,16.39,0,0,1-2.33-4.61,18.81,18.81,0,0,1-.73,4.69,17.18,17.18,0,0,1-1,2.52A12.17,12.17,0,0,0,373.54,565.34Zm1.32-1.55A14.91,14.91,0,0,0,377,559h-5.74v.9l1.61-.61A16,16,0,0,0,374.86,563.79Z"/><path class="cls-2" d="M397.48,560.08l-1.12-1.63a16.56,16.56,0,0,0,5-3.43,9.17,9.17,0,0,0,1-1.25h-5.28V552h6.31a11,11,0,0,0,.64-1.63l2.09.25a13.76,13.76,0,0,1-.5,1.38h7.95v1.74h-5.24a14,14,0,0,0,5.95,4.66l-1.12,1.65a15.93,15.93,0,0,1-3.72-2.41v1h-8.15v-1A18.3,18.3,0,0,1,397.48,560.08Zm-.76,6.16a17.29,17.29,0,0,0,4-3.89l1.43,1A17.75,17.75,0,0,1,398,567.6Zm16.55-5.91v1.74h-6.6v3.36c0,.31,0,.63,0,1a3,3,0,0,1-.11.68,1.39,1.39,0,0,1-.27.46,1.23,1.23,0,0,1-.49.24,4.38,4.38,0,0,1-.72.11c-.33,0-.68,0-1,0s-1.29,0-2.62-.1l-.08-1.74c1.2.06,2,.1,2.31.1a2.1,2.1,0,0,0,.81-.08c.08-.05.12-.27.12-.64v-3.4h-7.18v-1.74Zm-8.58-6.56a14.9,14.9,0,0,1-1.74,2.29c-.36.39-.64.68-.83.86h6.49a14.47,14.47,0,0,1-2.48-3.15Zm3.53,9.74,1.32-1.28a43.91,43.91,0,0,1,4.38,4.23l-1.35,1.26A45.48,45.48,0,0,0,408.22,563.51Z"/><path class="cls-2" d="M409.6,584.12a19.09,19.09,0,0,0,4.95,2l-.92,1.63a16.07,16.07,0,0,1-6.45-3.14,12.26,12.26,0,0,1-3.42-4.17H400.7v5.08c1.84-.23,3.66-.53,5.47-.88l.29,1.71a89.28,89.28,0,0,1-10,1.36l-.18-1.75,2.39-.21v-14h5.62V570h2.13v1.74h5.53v8.55l.95-.81,1.24,1.3A30.32,30.32,0,0,1,409.6,584.12Zm-8.9-8.82h9.11v-1.86H400.7Zm0,1.55v2h9.11v-2Zm7.35,6.17a31.67,31.67,0,0,0,3.66-2.54h-5.87A10.11,10.11,0,0,0,408.05,583Z"/><path class="cls-2" d="M362.29,648a18.49,18.49,0,0,0,2-3.51,17.46,17.46,0,0,0,.85-2.48H362.6v-1.75h2.87v-2.93c-.72.11-1.56.19-2.53.25L362.8,636a39.85,39.85,0,0,0,6.62-1.13l.46,1.59c-.9.26-1.82.47-2.74.64v3.2h2.8V642h-2.38q1.72,3,2.78,4.94L369,648.15q-.7-1.54-1.89-3.9v8h-1.67v-6.73a16.12,16.12,0,0,1-2.21,4.17Zm9.9,2.69v1.17h-1.71v-16h7.17v16h-1.74v-1.17Zm3.72-1.74V637.72h-3.72V649Z"/><path class="cls-2" d="M387.67,634.64l1.63.17c-.1.74-.22,1.43-.36,2.08h4.72v1.8a27.91,27.91,0,0,1-1.17,5.31l-1.57-.71a22.91,22.91,0,0,0,1.14-4.6H388.5l-.09.29a2.25,2.25,0,0,0-.07.29,23.92,23.92,0,0,1-1.49,3.86l-1.32-1a1.78,1.78,0,0,1-.18.49.86.86,0,0,1-.33.27,1.65,1.65,0,0,1-.47.12c-.22,0-.45,0-.68,0s-.74,0-1.34,0l0-1.07H379v-4.15h4.39v3.63c.27,0,.44-.05.5-.14a2.74,2.74,0,0,0,.08-.89v-3.24h-5.64v-1.65h8.44v1.65h-1.1v3.2c0,.52,0,.87,0,1.05a4.21,4.21,0,0,1,0,.44A25,25,0,0,0,387.67,634.64ZM393.91,650l-.54,2a7.32,7.32,0,0,1-2.25-2.23,12.56,12.56,0,0,1-1.5-3,10.48,10.48,0,0,1-.55,1.37,8.19,8.19,0,0,1-3,3.86l-.41-1.41a2.84,2.84,0,0,1-.09.52,1.35,1.35,0,0,1-.18.47.7.7,0,0,1-.35.27,1.21,1.21,0,0,1-.48.15,5.69,5.69,0,0,1-.7,0c-.34,0-.9,0-1.7-.06l-.09-1.72h.54l.46,0h.25c.31,0,.5,0,.57-.14a2.15,2.15,0,0,0,.1-.89V645h-5.64v-1.65h8.44V645h-1.1v4.83q3-2.13,3-7.74V639.8h1.72v2.32a11.41,11.41,0,0,0,.93,4.75A7.13,7.13,0,0,0,393.91,650Zm-13.43-.18V651H379v-5.31h4.39v4.15Zm0-9.31h1.39v-1.39h-1.39Zm0,8h1.39v-1.39h-1.39Z"/><path class="cls-2" d="M394.71,639.41h1.75v9.4h4.25V635h1.83v13.86h4.26v-9.4h1.75V652H406.8v-1.36H396.46V652h-1.75Z"/><path class="cls-2" d="M329.31,484.22h-6.26v-1.8h2.81v-9.6a61,61,0,0,0,6.9-.38,32.56,32.56,0,0,0,5.34-1l.54,1.84a31,31,0,0,1-5.49.95c-1.31.14-3,.24-5.16.31v1.26h11.79v1.74h-2.89v4.85h3.8v1.8h-6.12a34.37,34.37,0,0,1,5.7,3.26l-1.15,1.61a34.62,34.62,0,0,0-6-3.53l.82-1.34h-4l.83,1.17a21.8,21.8,0,0,1-2.9,2,28,28,0,0,1-3.44,1.61l-.95-1.69A23.61,23.61,0,0,0,329.31,484.22Zm5.49-1.8v-4.85H328v4.85Z"/><path class="cls-2" d="M339.59,498.2v6.5h-5.16v1.13h6.21v1.68h-6.21v1.94h-2.07v-1.94h-6.27v-1.68h6.27V504.7h-5.14v-6.5h5.14v-1H326.6v-1.61h5.76v-1H326v5.49a19,19,0,0,1-1.95,9.15l-1.5-1.69a13.68,13.68,0,0,0,1.13-3.68,32.25,32.25,0,0,0,.33-5.2v-5.76h7.17v-1.61h2.13v1.61h7.12v1.69h-6v1h5.82v1.61h-5.82v1Zm-7.23,2.53v-1.07h-3.2v1.07Zm0,1.35h-3.2v1.17h3.2Zm2.07-1.35h3.22v-1.07h-3.22Zm0,1.35v1.17h3.22v-1.17Z"/><path class="cls-2" d="M279.31,454.92a27.76,27.76,0,0,0,1.59-4.09l1.78.55a24.2,24.2,0,0,1-1.61,4.34Zm2.11-4.4V439.24h4.69c.13-.39.28-1,.45-1.73l2.13.14c-.11.54-.25,1.07-.4,1.59h6.51v6.47H283.5v.84h13.43v1.61H283.5V449h12.95v.82a20.87,20.87,0,0,1-.23,3.53,2.92,2.92,0,0,1-.74,1.66,2,2,0,0,1-1.4.43c-.78,0-1.73-.05-2.83-.14l-.11-1.74.62.06c-.31-.83-.68-1.7-1.11-2.62l1.3-.45Zm2.08-8.63h9.23v-1.06H283.5Zm0,1.36v1.07h9.23v-1.07Zm.93,12c-.14-1.13-.37-2.4-.68-3.82l1.74-.33a31.74,31.74,0,0,1,.72,3.83Zm3.86-.59c-.27-1.15-.59-2.27-1-3.37l1.66-.43a29.16,29.16,0,0,1,1,3.38Zm4.22-1h.84a.85.85,0,0,0,.62-.19,1.72,1.72,0,0,0,.31-.85,18.31,18.31,0,0,0,.13-2.1h-2.15c.45,1,.84,1.91,1.16,2.81Z"/><path class="cls-2" d="M286.13,469.39q-3.64.64-6.72,1l-.18-1.74,1.32-.16v-11h-1.07v-1.74h9.8v.93h7.65v1.78a24.09,24.09,0,0,1-3,8.83,13.83,13.83,0,0,0,3.66,3.31l-1,1.71a16.45,16.45,0,0,1-3.8-3.41,15.87,15.87,0,0,1-3.65,3.41l-1-1.51v1.86h-2Zm0-11.93h-3.64v2.37h3.64Zm-3.64,6.44h3.64v-2.52h-3.64Zm3.64,3.71v-2.16h-3.64v2.76C283.86,468,285.07,467.8,286.13,467.61Zm2.66-8.19,1.88-.42a22.46,22.46,0,0,0,2.06,6.38,22.28,22.28,0,0,0,2.17-6.95h-6v-1h-.74v13a13.33,13.33,0,0,0,3.43-3.28l0,0v0A23.32,23.32,0,0,1,288.79,459.42Z"/><path class="cls-2" d="M294.41,512.22V500H282.2v15.09h-2V498.3h16.29v13.92c0,.54,0,.91,0,1.09a4.37,4.37,0,0,1-.13.77,1.17,1.17,0,0,1-.26.51,1.39,1.39,0,0,1-.46.27,3.24,3.24,0,0,1-.7.13c-.17,0-.5,0-1,0-.79,0-1.86,0-3.22-.07l-.08-1.81c1.66.07,2.59.1,2.8.1.49,0,.78-.05.89-.16S294.41,512.7,294.41,512.22Zm-.77-6.46h-4.33v4.07h1.61v-3.1h1.94v5.76h-1.94v-1h-5.23v1.94h-1.94v-6.73h1.94v3.1h1.61v-4.07H283v-1.68h2.62c-.33-1-.72-2.09-1.16-3.16l1.78-.49c.54,1.32,1,2.53,1.32,3.65h1.4a20.69,20.69,0,0,0,1.57-3.73l1.78.53a20.84,20.84,0,0,1-1.32,3.2h2.68Z"/><path class="cls-2" d="M280.26,522.44h2v9.4h4.94V518h2.13v13.86h4.95v-9.4h2V535h-2v-1.35h-12V535h-2Z"/><path class="cls-2" d="M240.48,449.44V438.15h4.7c.13-.38.27-1,.44-1.72l2.13.13c-.11.55-.25,1.08-.4,1.59h6.51v6.48H242.58v.83H256v1.61H242.58v.82h12.93v.81a20.71,20.71,0,0,1-.23,3.53,3,3,0,0,1-.72,1.67,2.12,2.12,0,0,1-1.43.43c-.78,0-1.72-.05-2.82-.14l-.07-1H241.1v1h-2V450h2v1.59H244v-2.13Zm2.1-8.63h9.19v-1.07h-9.19Zm0,1.36v1.06h9.19v-1.06Zm8.22,10.33c.57.05,1.1.08,1.61.08a.85.85,0,0,0,.62-.19,1.77,1.77,0,0,0,.31-.86,18.27,18.27,0,0,0,.13-2.09H246v2.13h2.91V450h1.88Z"/><path class="cls-2" d="M245.43,458.67v1.78H243.8q1.2,2.52,2.4,5.16v-9.85h9.51v9h-4a10.72,10.72,0,0,0,1.11,2.56,21.46,21.46,0,0,0,2.54-2.37l1.22,1.22a20.8,20.8,0,0,1-2.72,2.56,9.87,9.87,0,0,0,2.91,2.25l-1.06,1.57a10.09,10.09,0,0,1-3.79-3.22,13.16,13.16,0,0,1-2.15-4.57H248.2v5.45q1.92-.35,3.51-.78l.33,1.73a53.2,53.2,0,0,1-7.52,1.36l-.18-1.75c.62-.05,1.24-.13,1.86-.23V466l-1.41,1c-.42-1.05-.93-2.31-1.55-3.78v9.44H241.3v-7.33a18.43,18.43,0,0,1-1.94,3.7l-1.24-1.57a24.18,24.18,0,0,0,3.18-7.06h-2.46v-1.74h2.46v-3.45h1.94v3.45Zm-2.19,1.8,0,0h0Zm5-1.14h5.47v-1.88H248.2Zm0,1.74v2h5.47v-2Z"/><path class="cls-2" d="M248.92,499.44h6.88v1.79H242v4.22a24.52,24.52,0,0,1-.53,5.47A14.63,14.63,0,0,1,239.9,515l-1.55-1.63a12.37,12.37,0,0,0,1.2-3.77,32.59,32.59,0,0,0,.39-5.5v-4.66h6.85v-2.17h2.13Zm1.43,8.26,1.75-.95c1.6,2.63,3,5.1,4.17,7.43l-1.77.93c-.11-.24-.29-.6-.54-1.06s-.39-.74-.45-.84a94.87,94.87,0,0,1-12.15,1.32l-.1-1.8,1.92-.1a110.18,110.18,0,0,0,4-10.7l2.07.46a106.34,106.34,0,0,1-3.72,10.07c2-.17,4.44-.45,7.15-.84C251.91,510.29,251.14,509,250.35,507.7Z"/><path class="cls-2" d="M240.48,529.85V518.56h4.7c.13-.39.27-1,.44-1.72l2.14.13c-.12.55-.26,1.08-.41,1.59h6.51V525H242.58v.83H256v1.61H242.58v.82h12.93v.81a20.71,20.71,0,0,1-.23,3.53,3,3,0,0,1-.72,1.67,2.12,2.12,0,0,1-1.43.43c-.78,0-1.72,0-2.81-.14l-.08-1H241.1v1h-2v-4.15h2V532H244v-2.13Zm2.1-8.63h9.19v-1.07h-9.19Zm0,1.36v1.06h9.19v-1.06Zm8.22,10.33c.57.05,1.11.08,1.61.08a.85.85,0,0,0,.62-.19,1.77,1.77,0,0,0,.31-.86,20.17,20.17,0,0,0,.14-2.09H246V532h2.91v-1.59h1.88Z"/><path class="cls-2" d="M199.14,467.63h2V477h4.94V463.17h2.13V477h4.95v-9.41h2v12.61h-2v-1.36h-12v1.36h-2Z"/><path class="cls-2" d="M201.52,496.2v1.16h-2.13v-15.9H215v15.9h-2.13V496.2Zm11.33-1.75V483.26H201.52v11.19Z"/><path class="cls-2" d="M205.22,585.69q4.17,0,8.28-.27a66.19,66.19,0,0,0,6.6-.7l.33,1.63c-.65.1-1.53.23-2.66.37l1.16.41a15.17,15.17,0,0,1-.71,1.61h2.85v3.87h-1.19c.33.46.67,1,1,1.56l-1.43,1a27.89,27.89,0,0,0-2.08-2.94c0,.35,0,.61-.06.79a3.53,3.53,0,0,1-.19.66,1.65,1.65,0,0,1-.23.47,1.51,1.51,0,0,1-.45.23,2.5,2.5,0,0,1-.64.11c-.23,0-.54,0-.91.06-.59,0-1.33.06-2.19.06h-1.07c-.23.23-.48.46-.73.68h7.46v1.55a12.23,12.23,0,0,1-3.3,2.39,33.46,33.46,0,0,0,6.19,1.12l-.47,1.73a32.94,32.94,0,0,1-7-1.48c-.24-.07-.57-.19-1-.35a34.9,34.9,0,0,1-8.13,1.83l-.46-1.73a37.08,37.08,0,0,0,6.22-1.1,16.86,16.86,0,0,1-2.19-1.26l.93-1.15h-.39a19.91,19.91,0,0,1-3.84,1.84l-.91-1.53a19.67,19.67,0,0,0,5.34-2.71,1.11,1.11,0,0,1-.41-.24.76.76,0,0,1-.27-.5,8.38,8.38,0,0,1,0-.93v-1.82h1.94v1.24a2,2,0,0,0,.07.74.89.89,0,0,0,.59.15c.49,0,1,0,1.43,0s.89,0,1.44,0a2.22,2.22,0,0,0,1.16-.25,2.19,2.19,0,0,0,.29-1.15l1.71.35-.19-.22-.18-.22,1.39-1c.22.24.5.58.82,1v-1.28h-6.34a23.88,23.88,0,0,1,2.11,1.12l-.93,1.38a29.43,29.43,0,0,0-3-1.53l.61-1h-5.18V592a7.87,7.87,0,0,0,.6-1l1.4.94a10.33,10.33,0,0,1-2.7,3.33l-.31-.29a1.57,1.57,0,0,1-.19-.18l-.23-.24-.2-.2-.31-.29a11.43,11.43,0,0,0,1.43-1.44h-1.47v-3.87h3.32c-.22-.46-.48-.93-.76-1.42h-1.61Zm7,3c-.26-.53-.53-1-.8-1.54-.54,0-1.33.06-2.36.08.07.16.32.64.73,1.46Zm.62,9.67a15.83,15.83,0,0,0,3-1.59h-6A18.21,18.21,0,0,0,212.81,598.41Zm3.31-9.67c.34-.65.64-1.3.91-1.94-1.42.14-2.62.24-3.6.31.32.62.58,1.16.79,1.63Z"/><path class="cls-2" d="M229.37,593.72v-1.59h1.88a1.33,1.33,0,0,1,0-.26q0-.17,0-.3c0-.09,0-.18,0-.26h-1.75V589.8h1.3c-.23-.54-.54-1.19-.91-1.94l1.22-.4-1.67,0-.13-1.71a53.32,53.32,0,0,0,11.07-.95l.37,1.63c-.48.11-1.09.24-1.83.37l1.32.29a27.93,27.93,0,0,1-.87,2.69h1.38v1.51h-7.57a2.35,2.35,0,0,1,0,.26c0,.09,0,.19,0,.3a1.33,1.33,0,0,0,0,.26H241v1.59h-8a5.11,5.11,0,0,1-.15.77h7.4V596a10.82,10.82,0,0,1-2.77,3.08,20.42,20.42,0,0,0,3.8,1.16l-.68,1.67a21.74,21.74,0,0,1-4.94-1.71,22.13,22.13,0,0,1-4.75,1.71l-.78-1.59a19.32,19.32,0,0,0,3.8-1.18,13.56,13.56,0,0,1-2.07-1.84,15.07,15.07,0,0,1-3.24,4.53l-1.18-1.55.2-.2.23-.23.21-.21c-.39-.59-.68-1-.87-1.28a13.93,13.93,0,0,1-3.38,4.11l-.85-1.7a13,13,0,0,0,2.94-4c-.19-.22-.49-.53-.91-1-.07.22-.2.54-.38,1l-1.44-1.41a35.5,35.5,0,0,0,1.49-5.84H223v-1.74h1.89c.16-1.25.29-2.29.36-3.13l1.89.08c-.12,1.31-.23,2.32-.34,3h2.35v.83a22.94,22.94,0,0,1-1.18,7.91c.37.47.78,1,1.22,1.67a11.78,11.78,0,0,0,1.8-4.46Zm-3.78.25c.3.26.64.57,1,.93a21.27,21.27,0,0,0,.78-5.39h-.8A39.9,39.9,0,0,1,225.59,594Zm8.82-4.17c-.29-.68-.61-1.39-1-2.13l1.08-.35q-1.32.07-2.73.12c.4.79.76,1.57,1.09,2.36Zm1.3,8.36a9,9,0,0,0,2.21-2.15h-5.55c0,.11-.15.4-.33.85l0,0,1.28-.7A11.32,11.32,0,0,0,235.71,598.16Zm1.66-8.36a27.53,27.53,0,0,0,1-2.89c-.94.13-2,.25-3.06.35.45,1,.83,1.81,1.12,2.54Z"/><path class="cls-2" d="M276.71,585.63a99.17,99.17,0,0,0,14.39-.87l.37,1.65q-2.79.42-6.42.66V589h7.62v1.68h-5.41a24.93,24.93,0,0,0,5.84,3.26l-.61,1.78-1.66-.81v7.21h-2v-.77h-9.5v.77h-2V594.9l-1.66.81-.61-1.78a24.93,24.93,0,0,0,5.84-3.26h-5.41V589H283v-1.81q-2.71.14-6.2.14Zm6.32,5.14a21,21,0,0,1-4.36,3.33H283Zm5.76,4.85h-9.5V597h9.5Zm-9.5,4.26h9.5v-1.45h-9.5Zm5.76-9.11v3.33h4.36A21,21,0,0,1,285.05,590.77Z"/><path class="cls-2" d="M296.8,585.34h2v7.47a18.89,18.89,0,0,1-.64,5.33,10.12,10.12,0,0,1-2.14,3.8l-1.65-1.11a9.57,9.57,0,0,0,1.89-3.51,20.69,20.69,0,0,0,.52-5.23Zm6.05,14.74V585.83h2v14.25Zm6.4,1.65V585.34h2.09v16.39Z"/><path class="cls-2" d="M214.51,630.47h7.57v1.74H204.82v-1.74h7.56v-1.59h2.13Zm7.08,7.68v5.47a4.31,4.31,0,0,1-.39,2.36c-.26.3-.95.45-2.09.45-.32,0-1.13,0-2.42-.1l-.06-1.36h-5.74v.78H209v-5.08h9v3.93c.22,0,.45,0,.69,0a1.61,1.61,0,0,0,.8-.11c.08-.08.12-.34.12-.8v-3.88H207.34v6.65h-2v-8.33Zm-12-.84h-2.08v-4.26h11.83v4.26Zm0-1.45h7.68v-1.32h-7.68Zm1.28,7.6H216v-1.24h-5.12Z"/><path class="cls-2" d="M224.15,638v-1.8h4v-3.68H227a22.31,22.31,0,0,1-1.32,3.23L224,635a25.17,25.17,0,0,0,2-6.28l1.79.27c-.11.58-.22,1.15-.35,1.69h5.29v1.75h-2.52v3.68H233V638H230.1c0,.38-.09.68-.13.91q1.65,2.45,3.3,5.24l-1.63,1.1q-1.06-1.86-2.39-4c-.21.52-.34.83-.41.95a10.42,10.42,0,0,1-3.51,4.23l-1.22-1.61a9.59,9.59,0,0,0,3-3.59,10.33,10.33,0,0,0,.95-3.26Zm17.18-7.62v16h-2v-1.16h-3.82v1.16h-1.93v-16Zm-5.82,13h3.82V632.14h-3.82Z"/><path class="cls-2" d="M289.14,641.6,288,642.93a22.21,22.21,0,0,0-3.14-2.36l.93-1.18h-5.47v-3.67a13.94,13.94,0,0,1-1.51,2.1v7a17.46,17.46,0,0,0,1.67-4.13l1.75.54a16,16,0,0,1-2.1,5l-1.32-.85v1.34h-2v-7.18a9.53,9.53,0,0,1-1.55,1.5l-.6-2.12a15.82,15.82,0,0,0,2.54-2.25,18,18,0,0,0,2-2.75l1.1.68v-1.23h4.95v-1.2h-5.49v-1a16.91,16.91,0,0,1-1.16,1.23,18.51,18.51,0,0,1-2.85,2.09l-.78-1.71a15.89,15.89,0,0,0,2.39-1.76,14.19,14.19,0,0,0,1.9-2.13l1.57.93c-.21.28-.36.49-.47.62h4.89V629h2.07v1.5H293v1.7h-5.59v1.2h5.05v6h-6.29A23,23,0,0,1,289.14,641.6Zm-6.88-3.76h1.55v-3h-1.55Zm7.23,3.39,1.7-.72a40.29,40.29,0,0,1,2.2,5l-1.67.73c-.39-1.08-.8-2.09-1.24-3,0,.11,0,.29,0,.52s0,.4,0,.49-.06.46-.14.85a2.94,2.94,0,0,1-.19.62,1.15,1.15,0,0,1-.35.43,1.73,1.73,0,0,1-.49.29,3.34,3.34,0,0,1-.73.13c-.44.05-.76.08-1,.08h-1.26c-.75,0-1.24,0-1.48,0a7.23,7.23,0,0,1-1-.13,2.07,2.07,0,0,1-.66-.26,1.13,1.13,0,0,1-.35-.5,3,3,0,0,1-.18-.76c0-.17,0-.54,0-1.1v-3.3h2v3.06c0,.68.07,1.07.21,1.19a3.67,3.67,0,0,0,1.52.17,3.73,3.73,0,0,0,1.88-.27,4,4,0,0,0,.37-1.92l1.82.31Q290,642.16,289.49,641.23Zm-3.9-3.39h1.55v-3h-1.55Zm4.89,0v-3h-1.55v3Z"/><path class="cls-2" d="M296.45,641.67V630.39h4.69c.13-.39.28-1,.45-1.73l2.13.14c-.12.54-.25,1.07-.41,1.59h6.52v6.48H298.54v.83H312v1.61H298.54v.81h12.94v.82a19.61,19.61,0,0,1-.24,3.53,3,3,0,0,1-.71,1.67,2.15,2.15,0,0,1-1.44.42c-.77,0-1.71,0-2.81-.14l-.08-1h-9.13v1h-2v-4.15h2v1.59H300v-2.14Zm2.09-8.62h9.19V632h-9.19Zm0,1.35v1.07h9.19V634.4Zm8.23,10.34c.56,0,1.1.08,1.6.08a.86.86,0,0,0,.63-.2,1.83,1.83,0,0,0,.31-.85,18.31,18.31,0,0,0,.13-2.1H302v2.14h2.9v-1.59h1.89Z"/><path class="cls-2" d="M102.28,452.5h2.07v1.85a13.86,13.86,0,0,1-1.47,3.6c.7.77,1.35,1.55,2,2.35v-1.94h11V467h-2v-.77h-7V467h-2v-5.84l-1,.9c-.62-.83-1.14-1.49-1.55-2v7h-2.06V461a12.82,12.82,0,0,1-1.86,1.47l-.66-2.07a11.33,11.33,0,0,0,4.64-6H98.2V452.5h2v-2.9h2.06Zm2.46-.73v-1.69H116v1.69Zm2.77,5.68h-2.05V452.7h9.69v4.75Zm-.7,4.13h2.49V460h-2.49Zm0,1.43v1.61h2.49V463Zm.7-7h5.57v-1.74h-5.57Zm3.73,5.59h2.52V460h-2.52Zm0,1.43v1.61h2.52V463Z"/><path class="cls-2" d="M132.66,463.91V451.73H120.45v15.08h-2V450H134.7v13.93c0,.54,0,.9,0,1.08a3.65,3.65,0,0,1-.14.78,1,1,0,0,1-.25.5,1.12,1.12,0,0,1-.46.27,3.2,3.2,0,0,1-.7.14l-1,0c-.79,0-1.86,0-3.22-.08l-.08-1.8,2.79.1a.76.76,0,0,0,1-1Zm-.77-6.46h-4.33v4.07h1.61v-3.1h1.94v5.76h-1.94v-1h-5.23v1.94H122v-6.73h1.94v3.1h1.61v-4.07h-4.33v-1.69h2.62c-.34-1-.73-2.09-1.16-3.16l1.78-.48c.54,1.32,1,2.53,1.32,3.64h1.39a20.3,20.3,0,0,0,1.58-3.72l1.78.52a20.43,20.43,0,0,1-1.32,3.2h2.68Z"/><path class="cls-2" d="M120.91,524.57a13.74,13.74,0,0,0,5.64-4.67,11.31,11.31,0,0,0,1.88-5.18h-7.19v-1.84h7.27V509h2.13v3.88h7.27v1.84h-7.19a11.31,11.31,0,0,0,1.88,5.18,13.74,13.74,0,0,0,5.64,4.67l-1.1,1.59a14.33,14.33,0,0,1-6.09-5.29,15.27,15.27,0,0,1-1.4-2.68,15.18,15.18,0,0,1-1.43,2.68,14.74,14.74,0,0,1-6.21,5.29Z"/><path class="cls-2" d="M141.11,524.86a8.51,8.51,0,0,0,3.61-3.33A12,12,0,0,0,146,517h-2.62v-1.26a20.45,20.45,0,0,1-2.21,2.15l-1.43-1.45a21.91,21.91,0,0,0,5.6-7.1l1.86.68a22.48,22.48,0,0,1-3.35,5.2h10.23a22.48,22.48,0,0,1-3.35-5.2l1.86-.68a21.81,21.81,0,0,0,5.61,7.1l-1.44,1.45A19.77,19.77,0,0,1,155,516.2v.95c0,1.73,0,2.9,0,3.52a19.73,19.73,0,0,1-.24,2.45,9.63,9.63,0,0,1-.36,1.63,2,2,0,0,1-.64.89,2.23,2.23,0,0,1-.86.43,7.16,7.16,0,0,1-1.2.09c-.59,0-1.65,0-3.16-.15l0-1.82c1.28.07,2.26.11,2.93.11a1,1,0,0,0,.89-.37,4.31,4.31,0,0,0,.47-1.78,37.9,37.9,0,0,0,.17-4.13V517H148a13.59,13.59,0,0,1-1.47,5.55,10.53,10.53,0,0,1-4.15,4Z"/><path class="cls-2" d="M93.44,519.38l1.77-.68a31,31,0,0,1,2.44,3.36l-1.79.72a2.4,2.4,0,0,0-.18-.28c-.08-.13-.15-.22-.18-.29q-4,.31-7.33.39l-.1-1.55,1.26,0a28.17,28.17,0,0,0,1.86-2.79l2.06.33c-.48.79-1,1.58-1.61,2.37l2.87-.16C94,520.16,93.69,519.69,93.44,519.38ZM88.38,534.8A27.11,27.11,0,0,0,91,531.27l1.57.83a23.16,23.16,0,0,1-2.68,3.71Zm8.22-5.95a2.33,2.33,0,0,1-.29,1.43,1.76,1.76,0,0,1-1.26.31l-2.29,0,0-1.55,1.5,0c.22,0,.35,0,.38-.06s.06-.16.06-.37v-.35H91v2.39H89v-7.76H96.6ZM91,525h3.68v-.72H91Zm0,1.26V527h3.68v-.73Zm3.49,9.46c-.14-1.13-.37-2.4-.68-3.82l1.84-.23a31.51,31.51,0,0,1,.72,3.84Zm4.71,0A38.45,38.45,0,0,0,97.69,532l1.76-.49c.61,1.32,1.13,2.59,1.55,3.8Zm2.48-13a4.57,4.57,0,0,0,1.83-.2c.18-.12.32-.57.42-1.33l1.9.27c0,.39-.09.69-.11.91a3.93,3.93,0,0,1-.16.68s-.08.22-.19.5a1,1,0,0,1-.35.33,1,1,0,0,1-.47.21l-.73.1c-.47,0-.78.08-.94.08h-1.27c-.6,0-1.18,0-1.75,0a9.38,9.38,0,0,1-1.09-.1,1.21,1.21,0,0,1-.64-.21,1,1,0,0,1-.23-.35,2,2,0,0,1-.06-.58v-4.46H99.9v1.53a45.3,45.3,0,0,0,5.35-1.41l.5,1.59a42.89,42.89,0,0,1-5.85,1.43v.54c0,.25.08.39.23.43A8.83,8.83,0,0,0,101.66,522.76Zm0,6.28a4.74,4.74,0,0,0,1.86-.19c.21-.15.36-.63.45-1.46l1.88.27q0,.24-.06.57c0,.22,0,.35,0,.4a6.05,6.05,0,0,1-.17.72,2.25,2.25,0,0,1-.19.54,1.14,1.14,0,0,1-.35.35,1.39,1.39,0,0,1-.47.24,6.93,6.93,0,0,1-.74.11,8.21,8.21,0,0,1-1,.06h-1.29c-.88,0-1.47,0-1.75,0a9.38,9.38,0,0,1-1.09-.1,1.21,1.21,0,0,1-.64-.21,1,1,0,0,1-.23-.37,2,2,0,0,1-.06-.56v-4.81H99.9v1.63a43.48,43.48,0,0,0,5.35-1.42l.5,1.59a41.53,41.53,0,0,1-5.85,1.44v.75c0,.24.08.37.23.41A10.26,10.26,0,0,0,101.66,529Zm2.52,6.71c-.72-1.1-1.61-2.31-2.65-3.63l1.59-1a43.62,43.62,0,0,1,2.67,3.69Z"/><path class="cls-2" d="M95,542.58H88.46v-1.79H96v-3.06h2.09v3.06h7.59v1.79h-6.5a31.19,31.19,0,0,0,7.29,8.8l-1.11,1.76a33.31,33.31,0,0,1-4.47-4.75,34.52,34.52,0,0,1-2.8-4.15v6.32h4.15v1.75H98.13v3.26H96v-3.26H91.89v-1.75H96v-6.32a35.7,35.7,0,0,1-2.79,4.15,33.94,33.94,0,0,1-4.48,4.75l-1.11-1.76A31.19,31.19,0,0,0,95,542.58Z"/><path class="cls-2" d="M130.64,561.74h7.47v4.65h-2v-2.91h-13v2.91h-2v-4.65h7.47V560h2.13ZM124.69,577v1h-2.1v-6.65h5.08c.15-.35.31-.82.49-1.4h-4.31v-5.27h11.44v5.27h-4.92c-.18.58-.34,1-.48,1.4h6.67v6.65h-2.1v-1Zm0-1.55h9.77V573h-9.77Zm1.24-7.08h7.29v-2h-7.29Z"/><path class="cls-2" d="M154.88,575.12v-5.43h-8.2v6.79h-4.46v1.16h-1.83V563.1H142v11.63h.64V560.67h1.75v14.06h.64V563.1h1.63v4.84h.83l-.64-1.51a5.56,5.56,0,0,0,3.39-2,4,4,0,0,0,.45-.77h-3.49v-1.75h4a10.61,10.61,0,0,0,.12-1.66h2.06a10.8,10.8,0,0,1-.12,1.66h4.38v1.75H152.8a.78.78,0,0,1-.09.21,36.4,36.4,0,0,1,5.21,2.89l-.6,1.2h.8v1.75h-1.24V575c0,.38,0,.75,0,1.11a7.37,7.37,0,0,1-.12.75,2.24,2.24,0,0,1-.23.53.83.83,0,0,1-.39.27,2.23,2.23,0,0,1-.62.11,8.06,8.06,0,0,1-.85,0c-.42,0-1.26,0-2.52-.1l-.08-1.68c.93.05,1.65.08,2.17.08.34,0,.53,0,.58-.14A2.06,2.06,0,0,0,154.88,575.12Zm-5.24-4.5h4.08v4.92h-4.08v1.28h-1.88v-6.2Zm6.77-2.68a30.23,30.23,0,0,0-4.5-2.65l0,.06a.14.14,0,0,1,0,.07,6.86,6.86,0,0,1-3.65,2.52Zm-6.77,4.23V574h2.27v-1.82Z"/><path class="cls-2" d="M94.61,627.73a18.37,18.37,0,0,1-1.84,8.38l-1.49-1.69a13.26,13.26,0,0,0,1-3.57,37.07,37.07,0,0,0,.31-5.31v-5.76h7.17v-1.61h2.13v1.61h7.14v1.63h-5.14v1.41h4.52v4.91Zm-.44,8.14-.2-1.7,2.14-.27v-5.71h2v1.48h3.75v1.55H98.1v2.35c1.52-.29,2.79-.55,3.82-.8v1.69A54.61,54.61,0,0,1,94.17,635.87Zm3.1-14.46H94.61v1.41h2.66Zm0,4.85v-2H94.61v2Zm2-4.85v1.41h2.65v-1.41Zm2.65,4.85v-2H99.27v2Zm4,7.81c.77,0,1.24-.1,1.39-.29a5,5,0,0,0,.35-2l1.79.2c0,.2,0,.44,0,.72s0,.44,0,.52a4.86,4.86,0,0,1-.16.91l-.06.29-.05.25a1.23,1.23,0,0,1,0,.16,1.87,1.87,0,0,1-.29.42.94.94,0,0,1-.41.32l-.13,0-.23,0-.26,0a4.45,4.45,0,0,1-.81.08h-2.41a6.89,6.89,0,0,1-.89-.08,2.19,2.19,0,0,1-.56-.13.81.81,0,0,1-.29-.26,1,1,0,0,1-.14-.35,4.87,4.87,0,0,1,0-.54v-6.17h2v1.87a31.48,31.48,0,0,0,4.17-1.71l.68,1.45a26.9,26.9,0,0,1-4.85,1.85v1.94q0,.36.15.42A6,6,0,0,0,105.92,634.07Zm-2-7.81h2.66v-2h-2.66Z"/><path class="cls-2" d="M116.62,629.32l1.94.1a6.16,6.16,0,0,1-1.74,4.17A10,10,0,0,1,112,636l-.88-1.69a9.18,9.18,0,0,0,4.08-1.78A4.77,4.77,0,0,0,116.62,629.32Zm-4.26.19V619h2v10.51Zm6.24-.81h-2v-9.56h10.86v9.56Zm0-5.59h6.79v-2.28H118.6Zm0,1.59V627h6.79V624.7Zm2.52,4.66h2.09v3.82a2,2,0,0,0,0,.37,1.18,1.18,0,0,0,.08.23c0,.05.13.09.31.12l.5.05a8.41,8.41,0,0,0,.86,0,3.92,3.92,0,0,0,.6,0l.19,0H126a.34.34,0,0,0,.29-.18,3.22,3.22,0,0,1,.17-.29,1.44,1.44,0,0,0,.12-.52q0-.37.06-.72c0-.22,0-.57,0-1.05l2,.16q0,.87-.06,1.41a6,6,0,0,1-.15,1c-.11.49-.16.76-.18.79a1.24,1.24,0,0,1-.33.53,1.5,1.5,0,0,1-.46.35,3.68,3.68,0,0,1-.7.17,4.63,4.63,0,0,1-.89.1h-1.2c-.73,0-1.21,0-1.44,0a5,5,0,0,1-1-.12,2.13,2.13,0,0,1-.66-.21,1.13,1.13,0,0,1-.35-.39,1.41,1.41,0,0,1-.19-.58,7.81,7.81,0,0,1,0-.83Z"/><path class="cls-2" d="M132.33,631.06V619.78H137c.13-.39.28-1,.45-1.73l2.13.14c-.12.54-.25,1.07-.41,1.59h6.52v6.48H134.42v.83h13.42v1.61H134.42v.81h12.94v.82a19.61,19.61,0,0,1-.24,3.53,3,3,0,0,1-.71,1.67A2.17,2.17,0,0,1,145,636c-.78,0-1.71,0-2.81-.14l-.08-1H133v1h-2v-4.15h2v1.59h2.91v-2.14Zm2.09-8.62h9.19v-1.07h-9.19Zm0,1.35v1.07h9.19v-1.07Zm8.22,10.34c.57,0,1.11.08,1.61.08a.84.84,0,0,0,.62-.2,1.63,1.63,0,0,0,.31-.85,17.68,17.68,0,0,0,.14-2.1h-7.47v2.14h2.91v-1.59h1.88Z"/><path class="cls-2" d="M58.92,447.78V446H62.4c.15-1,.25-2,.31-2.71l2.09.11c-.09,1-.19,1.85-.31,2.6h7.14v1.81H64.16a32.06,32.06,0,0,1-1,3.49h7.89V453H67.52v5.49h4.2v1.78H59.84V458.5h5.58V453H62.53a28.17,28.17,0,0,1-3.35,6l-1.36-1v2.87H55.76v-8.79a14.31,14.31,0,0,1-1.26,1.86l-1-1.9a19.66,19.66,0,0,0,3.91-8.7l1.89.29a25.12,25.12,0,0,1-1.44,5.06v8.65a25.86,25.86,0,0,0,4.25-9.56Z"/><path class="cls-2" d="M62.86,463.81c0,.33,0,.73,0,1.21l0,.73a9.71,9.71,0,0,1-.11,1.32,5.89,5.89,0,0,1-.24.85.91.91,0,0,1-.33.43,1,1,0,0,1-.48.21,4.79,4.79,0,0,1-.68,0q-.6,0-2.4-.09l-.1-1.59c.61.05,1.14.07,1.59.07s.57-.06.62-.19a5.93,5.93,0,0,0,.16-1.4H58.89a6.66,6.66,0,0,1-.68,1.65,7.29,7.29,0,0,1-2,2.08H70.08v7.95H66.8a33.73,33.73,0,0,1,4.86,1.86l-.91,1.57a43.92,43.92,0,0,0-6.18-2.41l.44-1H60.79l.46.87a17.41,17.41,0,0,1-2.77,1.32,23.71,23.71,0,0,1-3.61,1.1l-.72-1.63a30,30,0,0,0,5.12-1.66H55.73v-7.59l-.88.53-1-1.67a6.55,6.55,0,0,0,2.67-2.25,5.27,5.27,0,0,0,.33-.7H54.52v-1.59h2.66a9.71,9.71,0,0,0,.06-1.12h2a10.1,10.1,0,0,1-.06,1.12Zm-5,7.56H67.94v-.73H57.86Zm0,1.3v.78H67.94v-.78Zm0,2.08v.77H67.94v-.77Zm7.75-6.4h-2v-4.88h7.5v4.88Zm0-1.49h3.5v-1.75h-3.5Z"/><path class="cls-2" d="M45.16,450.86v1.69H36.22a15.39,15.39,0,0,0,3,2.56c.23.15.41.27.54.34a20,20,0,0,0,2.52-2.67l1.65,1a18.79,18.79,0,0,1-2.46,2.61,27.74,27.74,0,0,0,3.88,1.54l-.86,1.65A23.21,23.21,0,0,1,38,456.5a16.32,16.32,0,0,1-4.07-3.95H32.23v4.81q2.75-.36,5.45-.88l.23,1.65a86.43,86.43,0,0,1-9.85,1.36l-.21-1.69q.82-.06,2.28-.21v-5H27.52v-1.69h2.61v-8.2H43.28v1.7H32.23v1.13H42.7V447H32.23v1.17H42.7v1.49H32.23v1.22Z"/><path class="cls-2" d="M42.25,477.72v-5.43h-8.2v6.78H29.59v1.17H27.77V465.69H29.4v11.64H30V463.27h1.74v14.06h.64V465.69h1.63v4.85h.83L34.24,469a5.66,5.66,0,0,0,3.4-2,4.66,4.66,0,0,0,.44-.77H34.59v-1.75h4a10.72,10.72,0,0,0,.11-1.67h2.06a10.93,10.93,0,0,1-.12,1.67H45v1.75H40.18a.76.76,0,0,1-.1.21,36.5,36.5,0,0,1,5.22,2.89l-.6,1.2h.79v1.75H44.25v5.33c0,.37,0,.74,0,1.1a5.33,5.33,0,0,1-.11.76,2,2,0,0,1-.24.52.67.67,0,0,1-.39.27,1.81,1.81,0,0,1-.62.12,8.06,8.06,0,0,1-.85,0c-.41,0-1.25,0-2.52-.1l-.08-1.68c.93.05,1.66.07,2.17.07.34,0,.53,0,.59-.13A2.42,2.42,0,0,0,42.25,477.72ZM37,473.22h4.07v4.92H37v1.28H35.14v-6.2Zm6.76-2.68a30.64,30.64,0,0,0-4.49-2.65s0,0,0,.06a.25.25,0,0,1-.05.07,6.86,6.86,0,0,1-3.65,2.52ZM37,474.77v1.82h2.27v-1.82Z"/><rect class="cls-4" y="1.69" width="382" height="40"/><path class="cls-2" d="M142.71,18.86a7.6,7.6,0,0,0-1.59.11V17a7.87,7.87,0,0,0,1.59.1h2.56V15.21a13.9,13.9,0,0,0-.11-1.94h2.13a11.27,11.27,0,0,0-.1,1.94V26.68a12,12,0,0,0,.1,2h-2.13a15.29,15.29,0,0,0,.11-2V24.86c-1,.58-2,1-3.17,1.57-.29.12-.57.25-.74.34l-.63-2a6.66,6.66,0,0,0,1.44-.44,26.52,26.52,0,0,0,3.1-1.41v-4ZM151.18,26c0,.42.22.51,1.38.51s1.56-.1,1.77-.49a10.45,10.45,0,0,0,.3-3.13,9.47,9.47,0,0,0,1.8.75c-.1,2.29-.4,3.53-1,4a2.62,2.62,0,0,1-1.24.5,14.26,14.26,0,0,1-1.74.06A5.56,5.56,0,0,1,150,28c-.51-.24-.72-.68-.72-1.48V15.23a13.63,13.63,0,0,0-.1-2h2.09a13.09,13.09,0,0,0-.1,2v3.36A15.4,15.4,0,0,0,155,15.68l1.34,1.6c-.17.12-.27.21-.54.43-.5.39-1.92,1.37-2.71,1.87s-.69.42-1.9,1.09Z"/><path class="cls-2" d="M158.63,17.52a13,13,0,0,1,2.75,2.14l-1.21,1.4a10.91,10.91,0,0,0-2.71-2.26Zm2.8,5.93A28.23,28.23,0,0,1,160,27.36l-.66,1.4-1.6-1.35A1.78,1.78,0,0,0,158,27a19.53,19.53,0,0,0,1.89-4.67Zm-2-10.21a15.09,15.09,0,0,1,2.6,2.21l-1.3,1.36a12.35,12.35,0,0,0-2.57-2.33Zm11.27,1.36a16.21,16.21,0,0,0,2.45-.11v1.82a21.91,21.91,0,0,0-2.23-.06h-6.37c-.29.45-.49.79-.78,1.2h6.56c.82,0,1.33,0,1.78-.05,0,.24-.05.44-.08,1,0,.12,0,.95-.09,2.5a8.32,8.32,0,0,0,1.52-.08v1.8a10,10,0,0,0-1.43-.09h-.17c-.07.89-.1,1.43-.17,2.09a5.76,5.76,0,0,0,1.27-.08v1.78a9.44,9.44,0,0,0-1.29-.06h-.18c-.36,2.1-.75,2.5-2.54,2.5-.27,0-.47,0-1.53-.09a4.21,4.21,0,0,0-.35-1.75,9.39,9.39,0,0,0,1.71.17c.63,0,.72-.07.9-.83H164c-.12.54-.16.71-.31,1.34l-1.9-.19a27.48,27.48,0,0,0,1.12-4.88h-.25a7.87,7.87,0,0,0-1.33.09v-1.8a9.91,9.91,0,0,0,1.58.08h.19a25.48,25.48,0,0,0,.18-2.65,10.75,10.75,0,0,1-1,1.1,5,5,0,0,0-1.28-1.37,9.22,9.22,0,0,0,2.18-2.59,7.62,7.62,0,0,0,1-2.41l1.95.34c-.37.88-.37.88-.57,1.33Zm-4.5,10c.12-.78.15-1,.27-2.09h-1.9c-.11.73-.12.91-.34,2.09Zm.42-3.72c0-.54,0-.54.11-1.83H164.9c-.05.85-.07,1.05-.15,1.83ZM170,24.57c.09-.76.14-1.39.19-2.09h-2c-.07.65-.15,1.35-.25,2.09Zm.28-3.72c0-1,0-1,0-1.83h-1.91c-.1,1.36-.1,1.36-.13,1.83Z"/><path class="cls-2" d="M174.9,19.59a7.06,7.06,0,0,0,1.36.09h1.24a7.28,7.28,0,0,0,1.31-.09,12.55,12.55,0,0,0-.09,1.86V25a2.4,2.4,0,0,0,1.19,1.12,11.29,11.29,0,0,0,4.44.53,48.94,48.94,0,0,0,6.32-.36,6.08,6.08,0,0,0-.56,2c-3,.08-4.56.12-5.83.12a12.79,12.79,0,0,1-4.67-.53,4.23,4.23,0,0,1-1.81-1.38,12.63,12.63,0,0,1-1.93,1.65,5.84,5.84,0,0,0-.48.39l-.85-1.92A8.35,8.35,0,0,0,177,24.91V21.34h-.92a6.16,6.16,0,0,0-1.15.09Zm1.31-6.18a18.12,18.12,0,0,1,2.9,3.06l-1.39,1.3a17.82,17.82,0,0,0-2.87-3.14ZM182,14.94a7.84,7.84,0,0,0-.92-1.4l1.65-.52a11.08,11.08,0,0,1,1.16,1.92h1.49A8.82,8.82,0,0,0,186.47,13l1.82.44c-.31.51-.68,1.09-.93,1.47h1.07a10.4,10.4,0,0,0,1.68-.11v1.7c-.53-.05-1.07-.06-1.68-.06h-2.88c-.2.42-.27.57-.42.86h2.45a9.12,9.12,0,0,0,1.53-.07,14.25,14.25,0,0,0-.07,1.62v5a13.28,13.28,0,0,0,.08,1.65l-1.31,0H181.9c-.53,0-.9,0-1.58,0,0-.39.05-1,.05-1.61V18.86c0-.56,0-1.19-.07-1.58.39,0,.89,0,1.65,0h1.28a6.62,6.62,0,0,0,.4-.86h-2.5a15.14,15.14,0,0,0-1.69.06v-1.7a10.17,10.17,0,0,0,1.75.11Zm0,9.12h5.24v-.91h-5.24Zm0-4.36h5.25v-.92h-5.25Zm0,2.17h5.25V21h-5.25Z"/><path class="cls-2" d="M200.51,24.4h4.12a12.61,12.61,0,0,0,2.21-.11v2.14a16.93,16.93,0,0,0-2.18-.09h-10.2a16.75,16.75,0,0,0-2.17.09V24.29a12.55,12.55,0,0,0,2.21.11h3.84v-7h-2.6a17.37,17.37,0,0,0-2.18.08V15.38a12.53,12.53,0,0,0,2.21.12h7.57a12.53,12.53,0,0,0,2.21-.12V17.5a17.27,17.27,0,0,0-2.18-.08h-2.86Z"/><path class="cls-2" d="M213.84,14a9.82,9.82,0,0,0-.06,1.53v4.7a9.17,9.17,0,0,0,.06,1.49h-2.33a12.33,12.33,0,0,0,.09-1.53V15.5a10.76,10.76,0,0,0-.07-1.53Zm7.72,0a7.79,7.79,0,0,0-.09,1.58v2.3A19.6,19.6,0,0,1,221,23a6.51,6.51,0,0,1-3.35,4,14.42,14.42,0,0,1-3.31,1.31,6,6,0,0,0-1.19-2,9.09,9.09,0,0,0,3.67-1.36c1.6-1.05,2.16-2.09,2.35-4.33.07-.73.08-1.48.08-2.84V15.62A8.94,8.94,0,0,0,219.2,14Z"/><path class="cls-2" d="M234.07,17.81a8.14,8.14,0,0,0-.07,1.38c-.06,2.9-.52,4.53-1.68,6a9.79,9.79,0,0,1-4.38,3.06,6,6,0,0,0-1.35-1.93,7.89,7.89,0,0,0,3-1.45c1.73-1.38,2.28-2.84,2.28-6.05a4.18,4.18,0,0,0-.09-1Zm6.9-2.14a5.2,5.2,0,0,0-.68,1.19,10.7,10.7,0,0,1-2.61,3.41,10.29,10.29,0,0,1-2,1.41,5.89,5.89,0,0,0-1.53-1.54,7.78,7.78,0,0,0,2.48-1.57,6.93,6.93,0,0,0,1.61-2.15h-8.92a15.59,15.59,0,0,0-2.31.1V14.39a13.57,13.57,0,0,0,2.34.14h8.88a4.77,4.77,0,0,0,1.64-.15Z"/><rect class="cls-10" y="52.69" width="185" height="40"/><path class="cls-2" d="M52.45,67.26a15.32,15.32,0,0,0-2.05.1V65.49a14.15,14.15,0,0,0,2.17.12h4.49a9.7,9.7,0,0,0-.12-1.53H59a9,9,0,0,0-.1,1.53h4.64a13.63,13.63,0,0,0,2.23-.12v1.87a20.29,20.29,0,0,0-2.11-.1H58.91v.95h3.55a17.19,17.19,0,0,0,1.89-.06c0,.51-.07,1.07-.07,1.71V73a13,13,0,0,0,.07,1.73,13.24,13.24,0,0,0-1.9-.08h-2a12,12,0,0,0,5.9,2.9,11,11,0,0,0-1,1.81,17.83,17.83,0,0,1-3.49-1.55,11.27,11.27,0,0,1-3-2.45c0,.56,0,.88,0,1.17v1.23A10.66,10.66,0,0,0,59,79.71H56.94a13,13,0,0,0,.12-1.94V76.54c0-.2,0-.83,0-1.15a10.91,10.91,0,0,1-3.24,2.68,17.74,17.74,0,0,1-2.91,1.31A7.08,7.08,0,0,0,50,77.67a14.34,14.34,0,0,0,3.19-1.26,10.25,10.25,0,0,0,2.44-1.75H53.78a12.75,12.75,0,0,0-1.92.08,2.22,2.22,0,0,1,0-.49c0-.07,0-.07,0-1.24V69.88a16.37,16.37,0,0,0-.07-1.75,11.77,11.77,0,0,0,1.85.08h3.35v-.95Zm1.28,2.42v1h3.33v-1Zm0,2.44v1.07h3.33V72.12Zm5.18-1.41h3.57v-1H58.91Zm0,2.48h3.57V72.12H58.91Z"/><path class="cls-2" d="M69.21,69.86a7.6,7.6,0,0,0-1.59.11V68a7.87,7.87,0,0,0,1.59.1h2.56V66.21a13.9,13.9,0,0,0-.11-1.94h2.13a11.27,11.27,0,0,0-.1,1.94V77.68a12,12,0,0,0,.1,2H71.66a15.29,15.29,0,0,0,.11-2V75.86c-1,.58-2,1-3.17,1.57-.29.12-.57.25-.74.34l-.63-2a6.66,6.66,0,0,0,1.44-.44,26.52,26.52,0,0,0,3.1-1.41v-4ZM77.68,77c0,.42.22.51,1.38.51s1.56-.1,1.77-.49a10.45,10.45,0,0,0,.3-3.13,9.47,9.47,0,0,0,1.8.75c-.1,2.29-.4,3.53-1,4a2.62,2.62,0,0,1-1.24.5,14.26,14.26,0,0,1-1.74.06A5.56,5.56,0,0,1,76.51,79c-.51-.24-.72-.68-.72-1.48V66.23a13.63,13.63,0,0,0-.1-2h2.09a13.09,13.09,0,0,0-.1,2v3.36a15.4,15.4,0,0,0,3.81-2.91l1.34,1.6c-.17.12-.27.21-.54.43-.5.39-1.92,1.37-2.71,1.87s-.69.42-1.9,1.09Z"/><path class="cls-2" d="M93,75.4h4.12a12.61,12.61,0,0,0,2.21-.11v2.14a16.93,16.93,0,0,0-2.18-.09H87a16.75,16.75,0,0,0-2.17.09V75.29A12.55,12.55,0,0,0,87,75.4h3.84v-7h-2.6a17.37,17.37,0,0,0-2.18.08V66.38a12.53,12.53,0,0,0,2.21.12h7.57a12.53,12.53,0,0,0,2.21-.12V68.5a17.27,17.27,0,0,0-2.18-.08H93Z"/><path class="cls-2" d="M106.34,65a9.82,9.82,0,0,0-.06,1.53v4.7a9.17,9.17,0,0,0,.06,1.49H104a12.33,12.33,0,0,0,.09-1.53V66.5A10.76,10.76,0,0,0,104,65Zm7.72,0a7.79,7.79,0,0,0-.09,1.58v2.3a19.6,19.6,0,0,1-.44,5.15,6.51,6.51,0,0,1-3.35,4,14.42,14.42,0,0,1-3.31,1.31,6,6,0,0,0-1.19-2,9.09,9.09,0,0,0,3.67-1.36c1.6-1,2.16-2.09,2.35-4.33.07-.73.08-1.48.08-2.84V66.62A8.94,8.94,0,0,0,111.7,65Z"/><path class="cls-2" d="M126.57,68.81a8.14,8.14,0,0,0-.07,1.38c-.06,2.9-.52,4.53-1.68,6a9.79,9.79,0,0,1-4.38,3.06,6,6,0,0,0-1.35-1.93,7.89,7.89,0,0,0,3-1.45c1.73-1.38,2.28-2.84,2.28-6a4.18,4.18,0,0,0-.09-1Zm6.9-2.14a5.2,5.2,0,0,0-.68,1.19,10.7,10.7,0,0,1-2.61,3.41,10.29,10.29,0,0,1-2,1.41,5.89,5.89,0,0,0-1.53-1.54,7.78,7.78,0,0,0,2.48-1.57,6.93,6.93,0,0,0,1.61-2.15h-8.92a15.59,15.59,0,0,0-2.31.1V65.39a13.57,13.57,0,0,0,2.34.14h8.88a4.77,4.77,0,0,0,1.64-.15Z"/><rect class="cls-9" x="197" y="52.69" width="185" height="40"/><path class="cls-2" d="M249.74,77.67a16,16,0,0,0,.1,2h-2a16.67,16.67,0,0,0,.1-2.11V66.41a19,19,0,0,0-.07-1.9,15.25,15.25,0,0,0,1.73.07h3.08a14.45,14.45,0,0,0,1.73-.07c0,.47-.05.92-.05,1.58V68.5c0,.77,0,1.16.05,1.53-.46,0-1,0-1.58,0h-3.11Zm0-11h3v-.83h-3Zm0,2h3v-.83h-3Zm6.33,6.8a5.6,5.6,0,0,0,3,1.63,4.94,4.94,0,0,0-.37.72,8.13,8.13,0,0,0,1.22.1c.43,0,.53-.08.53-.46V70h-3.35c-.6,0-1.12,0-1.56,0,0-.42.05-.78.05-1.53V66.09c0-.65,0-1.09-.05-1.58a14.68,14.68,0,0,0,1.73.07h3.3a15.65,15.65,0,0,0,1.75-.07,14.85,14.85,0,0,0-.09,1.89V77.68c0,1.6-.39,1.91-2.41,1.91-.34,0-.55,0-1,0a4.94,4.94,0,0,0-.29-1.39c-.08.22-.1.3-.18.56A8,8,0,0,1,255,76.42a5.89,5.89,0,0,1-3.84,2.81,4.77,4.77,0,0,0-.95-1.48,7,7,0,0,0,2.2-.82,3.42,3.42,0,0,0,1.3-1.46h-1.66a9.17,9.17,0,0,0-1.48.09V74a7,7,0,0,0,1.36.09h2.11c0-.38,0-.53,0-1h-2a8.06,8.06,0,0,0-1.23.07V71.63a7.58,7.58,0,0,0,1.19.07h.58a7.45,7.45,0,0,0-.83-1.17l1.56-.39a13.07,13.07,0,0,1,1,1.56h1.39a7.11,7.11,0,0,0,.75-1.56l1.65.32a13.39,13.39,0,0,1-.71,1.24h.57a8.06,8.06,0,0,0,1.23-.07v1.48a7.69,7.69,0,0,0-1.21-.07h-2.28c0,.38,0,.68-.06,1h2.48a7,7,0,0,0,1.36-.09v1.57a7.62,7.62,0,0,0-1.38-.09Zm1.22-8.79h3.18v-.83h-3.18Zm0,2h3.18v-.83h-3.18Z"/><path class="cls-2" d="M266.45,67.26a15.32,15.32,0,0,0-2.05.1V65.49a14.15,14.15,0,0,0,2.17.12h4.49a9.7,9.7,0,0,0-.12-1.53H273a9,9,0,0,0-.1,1.53h4.64a13.63,13.63,0,0,0,2.23-.12v1.87a20.29,20.29,0,0,0-2.11-.1h-4.76v.95h3.55a17.19,17.19,0,0,0,1.89-.06c-.05.51-.07,1.07-.07,1.71V73a13,13,0,0,0,.07,1.73,13.24,13.24,0,0,0-1.9-.08h-2a12,12,0,0,0,5.9,2.9,11,11,0,0,0-1,1.81,17.83,17.83,0,0,1-3.49-1.55,11.27,11.27,0,0,1-3-2.45c0,.56,0,.88,0,1.17v1.23a10.66,10.66,0,0,0,.12,1.94h-2.09a13,13,0,0,0,.12-1.94V76.54c0-.2,0-.83,0-1.15a10.91,10.91,0,0,1-3.24,2.68,17.74,17.74,0,0,1-2.91,1.31,7.08,7.08,0,0,0-.95-1.71,14.34,14.34,0,0,0,3.19-1.26,10.25,10.25,0,0,0,2.44-1.75h-1.84a12.75,12.75,0,0,0-1.92.08,2.22,2.22,0,0,1,.05-.49c0-.07,0-.07,0-1.24V69.88a16.37,16.37,0,0,0-.07-1.75,11.77,11.77,0,0,0,1.85.08h3.35v-.95Zm1.28,2.42v1h3.33v-1Zm0,2.44v1.07h3.33V72.12Zm5.18-1.41h3.57v-1h-3.57Zm0,2.48h3.57V72.12h-3.57Z"/><path class="cls-2" d="M290,75.4h4.12a12.61,12.61,0,0,0,2.21-.11v2.14a16.93,16.93,0,0,0-2.18-.09H284a16.75,16.75,0,0,0-2.17.09V75.29a12.55,12.55,0,0,0,2.21.11h3.84v-7h-2.6a17.37,17.37,0,0,0-2.18.08V66.38a12.53,12.53,0,0,0,2.21.12h7.57a12.53,12.53,0,0,0,2.21-.12V68.5a17.27,17.27,0,0,0-2.18-.08H290Z"/><path class="cls-2" d="M303.34,65a9.82,9.82,0,0,0-.06,1.53v4.7a9.17,9.17,0,0,0,.06,1.49H301a12.33,12.33,0,0,0,.09-1.53V66.5A10.76,10.76,0,0,0,301,65Zm7.72,0a7.79,7.79,0,0,0-.09,1.58v2.3a19.6,19.6,0,0,1-.44,5.15,6.51,6.51,0,0,1-3.35,4,14.42,14.42,0,0,1-3.31,1.31,6,6,0,0,0-1.19-2,9.09,9.09,0,0,0,3.67-1.36c1.6-1,2.16-2.09,2.35-4.33.07-.73.08-1.48.08-2.84V66.62A8.94,8.94,0,0,0,308.7,65Z"/><path class="cls-2" d="M323.57,68.81a8.14,8.14,0,0,0-.07,1.38c-.06,2.9-.52,4.53-1.68,6a9.79,9.79,0,0,1-4.38,3.06,6,6,0,0,0-1.35-1.93,7.89,7.89,0,0,0,3-1.45c1.73-1.38,2.28-2.84,2.28-6a4.18,4.18,0,0,0-.09-1Zm6.9-2.14a5.2,5.2,0,0,0-.68,1.19,10.7,10.7,0,0,1-2.61,3.41,10.29,10.29,0,0,1-2,1.41,5.89,5.89,0,0,0-1.53-1.54,7.78,7.78,0,0,0,2.48-1.57,6.93,6.93,0,0,0,1.61-2.15h-8.92a15.59,15.59,0,0,0-2.31.1V65.39a13.57,13.57,0,0,0,2.34.14h8.88a4.77,4.77,0,0,0,1.64-.15Z"/><rect class="cls-7" y="105.69" width="185" height="40"/><path class="cls-2" d="M52.21,122.86a7.6,7.6,0,0,0-1.59.11v-2a7.87,7.87,0,0,0,1.59.1h2.56v-1.87a13.9,13.9,0,0,0-.11-1.94h2.13a11.27,11.27,0,0,0-.1,1.94v11.47a12,12,0,0,0,.1,2H54.66a15.29,15.29,0,0,0,.11-2.05v-1.81c-1,.58-2,1-3.17,1.57-.29.12-.57.25-.74.34l-.63-2a6.66,6.66,0,0,0,1.44-.44,26.52,26.52,0,0,0,3.1-1.41v-4ZM60.68,130c0,.42.22.51,1.38.51s1.56-.1,1.77-.49a10.45,10.45,0,0,0,.3-3.13,9.47,9.47,0,0,0,1.8.75c-.1,2.29-.4,3.53-1,4a2.62,2.62,0,0,1-1.24.5,14.26,14.26,0,0,1-1.74.06,5.56,5.56,0,0,1-2.46-.27c-.51-.24-.72-.68-.72-1.48V119.23a13.63,13.63,0,0,0-.1-2h2.09a13.09,13.09,0,0,0-.1,2v3.36a15.4,15.4,0,0,0,3.81-2.91l1.34,1.6c-.17.12-.27.21-.54.43-.5.39-1.92,1.37-2.71,1.87s-.69.42-1.9,1.09Z"/><path class="cls-2" d="M76.75,123.08a4.27,4.27,0,0,1-3,3.66,4.63,4.63,0,0,0-.83-1.17,4.41,4.41,0,0,1,.12,1,2,2,0,0,1-1.26,2.11,5,5,0,0,1-1.7.23,3.51,3.51,0,0,0-.32-1.81c.29,0,.41.05.56.05.68,0,.87-.17.87-.82A5.15,5.15,0,0,0,69.88,123a19.25,19.25,0,0,0,1.51-3.74H69.67v11.61a15.14,15.14,0,0,0,.11,2h-2a16.34,16.34,0,0,0,.1-2.17V119.21c0-.55,0-.94-.07-1.67a12.29,12.29,0,0,0,1.38,0h2a10.56,10.56,0,0,0,1.29,0l.92,1.12a3.89,3.89,0,0,0-.19.45,23.25,23.25,0,0,1-1.6,3.72,6.1,6.1,0,0,1,1.29,2.46c1.35-.45,2-1.1,2.11-2.21h-.8a10.62,10.62,0,0,0-1.61.09v-1.75a9.07,9.07,0,0,0,1.61.08h2.38v-1.36H75a12.05,12.05,0,0,0-1.56.07v-1.75a7,7,0,0,0,1.56.1h1.58v-.46a4.28,4.28,0,0,0-.1-1h2a6.3,6.3,0,0,0-.08,1v.44h2.17a7.23,7.23,0,0,0,1.6-.1v1.75a13.2,13.2,0,0,0-1.6-.07H78.38v1.36h2.87a9.68,9.68,0,0,0,1.62-.08v1.75a10.76,10.76,0,0,0-1.62-.09H79.67v1.4c0,.15,0,.19.13.24a1.75,1.75,0,0,0,.45,0c1,0,1.08,0,1.08-1.28A6.19,6.19,0,0,0,83,124c-.12,1.12-.2,1.44-.44,1.75s-1,.53-2.42.53a4.2,4.2,0,0,1-1.7-.21c0,.26,0,.38,0,.75v.56h2.28a10.8,10.8,0,0,0,1.59-.08V129a12.69,12.69,0,0,0-1.59-.07H78.38v1.66h2.85a13,13,0,0,0,1.82-.08v1.77a14.72,14.72,0,0,0-1.9-.1H73.4a13.21,13.21,0,0,0-1.91.1v-1.77c.55.05,1.11.08,1.84.08h3.26V129H74.77a12.85,12.85,0,0,0-1.61.07v-1.75a10.93,10.93,0,0,0,1.61.08h1.82v-.56a5.09,5.09,0,0,0-.08-1.11h1.54a1.52,1.52,0,0,1,0-.54v-2.06Z"/><path class="cls-2" d="M93,128.4h4.12a12.61,12.61,0,0,0,2.21-.11v2.14a16.93,16.93,0,0,0-2.18-.09H87a16.75,16.75,0,0,0-2.17.09v-2.14a12.55,12.55,0,0,0,2.21.11h3.84v-7h-2.6a17.37,17.37,0,0,0-2.18.08v-2.12a12.53,12.53,0,0,0,2.21.12h7.57a12.53,12.53,0,0,0,2.21-.12v2.12a17.27,17.27,0,0,0-2.18-.08H93Z"/><path class="cls-2" d="M106.34,118a9.82,9.82,0,0,0-.06,1.53v4.7a9.17,9.17,0,0,0,.06,1.49H104a12.33,12.33,0,0,0,.09-1.53V119.5A10.76,10.76,0,0,0,104,118Zm7.72,0a7.79,7.79,0,0,0-.09,1.58v2.3a19.6,19.6,0,0,1-.44,5.15,6.51,6.51,0,0,1-3.35,4,14.42,14.42,0,0,1-3.31,1.31,6,6,0,0,0-1.19-2,9.09,9.09,0,0,0,3.67-1.36c1.6-1,2.16-2.09,2.35-4.33.07-.73.08-1.48.08-2.84v-2.12a8.94,8.94,0,0,0-.08-1.62Z"/><path class="cls-2" d="M126.57,121.81a8.14,8.14,0,0,0-.07,1.38c-.06,2.9-.52,4.53-1.68,6a9.79,9.79,0,0,1-4.38,3.06,6,6,0,0,0-1.35-1.93,7.89,7.89,0,0,0,3-1.45c1.73-1.38,2.28-2.84,2.28-6a4.18,4.18,0,0,0-.09-1Zm6.9-2.14a5.2,5.2,0,0,0-.68,1.19,10.7,10.7,0,0,1-2.61,3.41,10.29,10.29,0,0,1-2,1.41,5.89,5.89,0,0,0-1.53-1.54,7.78,7.78,0,0,0,2.48-1.57,6.93,6.93,0,0,0,1.61-2.15h-8.92a15.59,15.59,0,0,0-2.31.1v-2.13a13.57,13.57,0,0,0,2.34.14h8.88a4.77,4.77,0,0,0,1.64-.15Z"/><rect class="cls-8" x="197" y="105.69" width="185" height="40"/><path class="cls-2" d="M254,118.92a11.6,11.6,0,0,0-.1-1.85H256a12.14,12.14,0,0,0-.1,1.78V120h4.66a12.21,12.21,0,0,0,1.54-.07,12.76,12.76,0,0,0-.06,1.49v5.19a11.54,11.54,0,0,0,.08,1.7h-2v-1h-4.21v3.45a12.83,12.83,0,0,0,.12,2.11h-2.18a13.63,13.63,0,0,0,.12-2.11v-3.45h-4v1h-2a12.38,12.38,0,0,0,.09-1.7v-5.2a13.49,13.49,0,0,0-.07-1.48,13.24,13.24,0,0,0,1.53.07H254Zm-4,2.84v3.69h4v-3.69Zm10.16,3.69v-3.69h-4.21v3.69Z"/><path class="cls-2" d="M271.6,123.34a7.37,7.37,0,0,0,1.47-.09v1.87a9,9,0,0,0-1.38-.08H266a12.55,12.55,0,0,0-1.7.08v-1.87a10.51,10.51,0,0,0,1.72.09h3.35a13.75,13.75,0,0,0,.88-2.77L272,121a13.5,13.5,0,0,1-.9,2.33Zm-.23-4.59a8.55,8.55,0,0,0,1.54-.09v1.84a7.17,7.17,0,0,0-1.43-.08H266a7.61,7.61,0,0,0-1.39.08v-1.84a8.88,8.88,0,0,0,1.62.09H268v-.48a5.87,5.87,0,0,0-.1-1.19h2a7.85,7.85,0,0,0-.08,1.19v.48Zm-4.29,14h-1.83a14.22,14.22,0,0,0,.06-1.6v-3.68a12.48,12.48,0,0,0-.05-1.4,12.44,12.44,0,0,0,1.36,0H271a8.29,8.29,0,0,0,1.24,0,10.67,10.67,0,0,0-.05,1.26v4.13a8.8,8.8,0,0,0,.07,1.28H270.4v-1h-3.32Zm.27-12.29a11.31,11.31,0,0,1,.89,2.38l-1.69.51a10.06,10.06,0,0,0-.79-2.38Zm-.27,9.67h3.33v-2.38h-3.33Zm13-11.44a5.72,5.72,0,0,0-.34.75,35.77,35.77,0,0,1-1.84,4,7.65,7.65,0,0,1,1.63,2.46,6.31,6.31,0,0,1,.48,2.37,2.05,2.05,0,0,1-1.21,2.12,4.55,4.55,0,0,1-1.73.22c-.29,0-.45,0-.85,0a4.12,4.12,0,0,0-.39-1.86,7.32,7.32,0,0,0,1.27.11c.85,0,1.12-.19,1.12-.73a5,5,0,0,0-.54-2.2,7.05,7.05,0,0,0-1.77-2.21,18.39,18.39,0,0,0,1.87-4.45h-2.36v11.58a11.13,11.13,0,0,0,.12,2h-2a15.55,15.55,0,0,0,.1-1.93V118.94a11,11,0,0,0-.07-1.43,11.9,11.9,0,0,0,1.4.07h2.94a6.28,6.28,0,0,0,1.34-.09Z"/><path class="cls-2" d="M290,128.4h4.12a12.61,12.61,0,0,0,2.21-.11v2.14a16.93,16.93,0,0,0-2.18-.09H284a16.75,16.75,0,0,0-2.17.09v-2.14a12.55,12.55,0,0,0,2.21.11h3.84v-7h-2.6a17.37,17.37,0,0,0-2.18.08v-2.12a12.53,12.53,0,0,0,2.21.12h7.57a12.53,12.53,0,0,0,2.21-.12v2.12a17.27,17.27,0,0,0-2.18-.08H290Z"/><path class="cls-2" d="M303.34,118a9.82,9.82,0,0,0-.06,1.53v4.7a9.17,9.17,0,0,0,.06,1.49H301a12.33,12.33,0,0,0,.09-1.53V119.5A10.76,10.76,0,0,0,301,118Zm7.72,0a7.79,7.79,0,0,0-.09,1.58v2.3a19.6,19.6,0,0,1-.44,5.15,6.51,6.51,0,0,1-3.35,4,14.42,14.42,0,0,1-3.31,1.31,6,6,0,0,0-1.19-2,9.09,9.09,0,0,0,3.67-1.36c1.6-1,2.16-2.09,2.35-4.33.07-.73.08-1.48.08-2.84v-2.12a8.94,8.94,0,0,0-.08-1.62Z"/><path class="cls-2" d="M323.57,121.81a8.14,8.14,0,0,0-.07,1.38c-.06,2.9-.52,4.53-1.68,6a9.79,9.79,0,0,1-4.38,3.06,6,6,0,0,0-1.35-1.93,7.89,7.89,0,0,0,3-1.45c1.73-1.38,2.28-2.84,2.28-6a4.18,4.18,0,0,0-.09-1Zm6.9-2.14a5.2,5.2,0,0,0-.68,1.19,10.7,10.7,0,0,1-2.61,3.41,10.29,10.29,0,0,1-2,1.41,5.89,5.89,0,0,0-1.53-1.54,7.78,7.78,0,0,0,2.48-1.57,6.93,6.93,0,0,0,1.61-2.15h-8.92a15.59,15.59,0,0,0-2.31.1v-2.13a13.57,13.57,0,0,0,2.34.14h8.88a4.77,4.77,0,0,0,1.64-.15Z"/><rect class="cls-3" y="158.69" width="185" height="40"/><path class="cls-2" d="M52.74,183.67a16,16,0,0,0,.1,2.05h-2a16.67,16.67,0,0,0,.1-2.11v-11.2a19,19,0,0,0-.07-1.9,15.25,15.25,0,0,0,1.73.07H55.7a14.45,14.45,0,0,0,1.73-.07c0,.47,0,.92,0,1.58v2.41c0,.77,0,1.16,0,1.53-.46,0-1-.05-1.58-.05H52.74Zm0-11h3v-.83h-3Zm0,2h3v-.83h-3Zm6.33,6.8a5.6,5.6,0,0,0,3,1.63,4.94,4.94,0,0,0-.37.72,8.13,8.13,0,0,0,1.22.1c.43,0,.53-.08.53-.46V176H60.12c-.6,0-1.12,0-1.56.05,0-.42,0-.78,0-1.53v-2.41c0-.65,0-1.09,0-1.58a14.68,14.68,0,0,0,1.73.07h3.3a15.65,15.65,0,0,0,1.75-.07,14.85,14.85,0,0,0-.09,1.89v11.28c0,1.6-.39,1.91-2.41,1.91-.34,0-.55,0-1,0a4.94,4.94,0,0,0-.29-1.39c-.08.22-.1.3-.18.56A8,8,0,0,1,58,182.42a5.89,5.89,0,0,1-3.84,2.81,4.77,4.77,0,0,0-1-1.48,7,7,0,0,0,2.2-.82,3.42,3.42,0,0,0,1.3-1.46H55.09a9.17,9.17,0,0,0-1.48.09V180a7,7,0,0,0,1.36.09h2.11c0-.38,0-.53.05-1h-2a8.06,8.06,0,0,0-1.23.07v-1.48a7.58,7.58,0,0,0,1.19.07h.58a7.45,7.45,0,0,0-.83-1.17l1.56-.39a13.07,13.07,0,0,1,1,1.56h1.39a7.11,7.11,0,0,0,.75-1.56l1.65.32a13.39,13.39,0,0,1-.71,1.24h.57a8.06,8.06,0,0,0,1.23-.07v1.48a7.69,7.69,0,0,0-1.21-.07H58.79c0,.38,0,.68-.06,1h2.48a7,7,0,0,0,1.36-.09v1.57a7.62,7.62,0,0,0-1.38-.09Zm1.22-8.79h3.18v-.83H60.29Zm0,2h3.18v-.83H60.29Z"/><path class="cls-2" d="M69.35,172.68a17.19,17.19,0,0,0-2,.11v-1.94a16,16,0,0,0,2,.1H80.77a15.61,15.61,0,0,0,2-.1v1.94a17.32,17.32,0,0,0-2-.11H77.41v1.91h2.53a16,16,0,0,0,2-.09,18.27,18.27,0,0,0-.09,2.06v6.88a16.44,16.44,0,0,0,.11,2.18H80v-1H70.1v1H68.2a20.68,20.68,0,0,0,.1-2.19v-6.87c0-.73,0-1.36-.1-2.06a15.2,15.2,0,0,0,2,.09h2.33v-1.91Zm4.83,3.64a7.68,7.68,0,0,1-.75,3.3,5.43,5.43,0,0,1-2,2.14,5.23,5.23,0,0,0-1.29-1.24v2.36H80v-4.5s0,0,0,.29a3.92,3.92,0,0,1-.22,1.27c-.26.6-.78.82-2,.82-1.65,0-2-.29-2-1.48v-3Zm-4.08,0v4.1a4.2,4.2,0,0,0,1.56-1.31,5.12,5.12,0,0,0,.79-2.79Zm4.15-2.7v1h1.48v-1.91H74.25Zm3.16,5.12c0,.32.07.35.58.35s.66-.05.66-1.37a3.69,3.69,0,0,0,1.39.42v-1.82H77.41Z"/><path class="cls-2" d="M93,181.4h4.12a12.61,12.61,0,0,0,2.21-.11v2.14a16.93,16.93,0,0,0-2.18-.09H87a16.75,16.75,0,0,0-2.17.09v-2.14a12.55,12.55,0,0,0,2.21.11h3.84v-7h-2.6a17.37,17.37,0,0,0-2.18.08v-2.12a12.53,12.53,0,0,0,2.21.12h7.57a12.53,12.53,0,0,0,2.21-.12v2.12a17.27,17.27,0,0,0-2.18-.08H93Z"/><path class="cls-2" d="M106.34,171a9.82,9.82,0,0,0-.06,1.53v4.7a9.17,9.17,0,0,0,.06,1.49H104a12.33,12.33,0,0,0,.09-1.53V172.5A10.76,10.76,0,0,0,104,171Zm7.72,0a7.79,7.79,0,0,0-.09,1.58v2.3a19.6,19.6,0,0,1-.44,5.15,6.51,6.51,0,0,1-3.35,4,14.42,14.42,0,0,1-3.31,1.31,6,6,0,0,0-1.19-2,9.09,9.09,0,0,0,3.67-1.36c1.6-1,2.16-2.09,2.35-4.33.07-.73.08-1.48.08-2.84v-2.12a8.94,8.94,0,0,0-.08-1.62Z"/><path class="cls-2" d="M126.57,174.81a8.14,8.14,0,0,0-.07,1.38c-.06,2.9-.52,4.53-1.68,6a9.79,9.79,0,0,1-4.38,3.06,6,6,0,0,0-1.35-1.93,7.89,7.89,0,0,0,3-1.45c1.73-1.38,2.28-2.84,2.28-6a4.18,4.18,0,0,0-.09-1Zm6.9-2.14a5.2,5.2,0,0,0-.68,1.19,10.7,10.7,0,0,1-2.61,3.41,10.29,10.29,0,0,1-2,1.41,5.89,5.89,0,0,0-1.53-1.54,7.78,7.78,0,0,0,2.48-1.57,6.93,6.93,0,0,0,1.61-2.15h-8.92a15.59,15.59,0,0,0-2.31.1v-2.13a13.57,13.57,0,0,0,2.34.14h8.88a4.77,4.77,0,0,0,1.64-.15Z"/><rect class="cls-11" x="197" y="158.69" width="185" height="40"/><path class="cls-2" d="M254,171.92a11.6,11.6,0,0,0-.1-1.85H256a12.14,12.14,0,0,0-.1,1.78V173h4.66a12.21,12.21,0,0,0,1.54-.07,12.76,12.76,0,0,0-.06,1.49v5.19a11.54,11.54,0,0,0,.08,1.7h-2v-1h-4.21v3.45a12.83,12.83,0,0,0,.12,2.11h-2.18a13.63,13.63,0,0,0,.12-2.11v-3.45h-4v1h-2a12.38,12.38,0,0,0,.09-1.7v-5.2a13.49,13.49,0,0,0-.07-1.48,13.24,13.24,0,0,0,1.53.07H254Zm-4,2.84v3.69h4v-3.69Zm10.16,3.69v-3.69h-4.21v3.69Z"/><path class="cls-2" d="M264.79,172.67c0-.73,0-1.36-.1-2.06a15.25,15.25,0,0,0,2,.09h10.73a16.85,16.85,0,0,0,2-.09,19.56,19.56,0,0,0-.1,2v10.91a14.57,14.57,0,0,0,.1,2.2h-1.94v-1H266.62v1h-1.93a17.75,17.75,0,0,0,.1-2.21Zm1.83,10.47h10.86v-10.8H266.62Zm2.55-8.13a9.05,9.05,0,0,0-1.54.09v-1.72a8.84,8.84,0,0,0,1.54.09H275a9.07,9.07,0,0,0,1.58-.09v1.72A9.43,9.43,0,0,0,275,175h-2.16v1.77h1.75a8.81,8.81,0,0,0,1.47-.08v1.68a7.06,7.06,0,0,0-1.09-.09,8.64,8.64,0,0,1,1.07,1.65l-.92.51a8.41,8.41,0,0,0,1.67-.1v1.77a10.64,10.64,0,0,0-1.6-.09H269a9.74,9.74,0,0,0-1.62.09v-1.77a8.09,8.09,0,0,0,1.62.1h2v-2.16h-1.47a8,8,0,0,0-1.46.09V176.7a8.9,8.9,0,0,0,1.46.08H271V175Zm3.62,5.44h1.84a7.73,7.73,0,0,0-1.07-1.7l.9-.46h-1.67Z"/><path class="cls-2" d="M290,181.4h4.12a12.61,12.61,0,0,0,2.21-.11v2.14a16.93,16.93,0,0,0-2.18-.09H284a16.75,16.75,0,0,0-2.17.09v-2.14a12.55,12.55,0,0,0,2.21.11h3.84v-7h-2.6a17.37,17.37,0,0,0-2.18.08v-2.12a12.53,12.53,0,0,0,2.21.12h7.57a12.53,12.53,0,0,0,2.21-.12v2.12a17.27,17.27,0,0,0-2.18-.08H290Z"/><path class="cls-2" d="M303.34,171a9.82,9.82,0,0,0-.06,1.53v4.7a9.17,9.17,0,0,0,.06,1.49H301a12.33,12.33,0,0,0,.09-1.53V172.5A10.76,10.76,0,0,0,301,171Zm7.72,0a7.79,7.79,0,0,0-.09,1.58v2.3a19.6,19.6,0,0,1-.44,5.15,6.51,6.51,0,0,1-3.35,4,14.42,14.42,0,0,1-3.31,1.31,6,6,0,0,0-1.19-2,9.09,9.09,0,0,0,3.67-1.36c1.6-1,2.16-2.09,2.35-4.33.07-.73.08-1.48.08-2.84v-2.12a8.94,8.94,0,0,0-.08-1.62Z"/><path class="cls-2" d="M323.57,174.81a8.14,8.14,0,0,0-.07,1.38c-.06,2.9-.52,4.53-1.68,6a9.79,9.79,0,0,1-4.38,3.06,6,6,0,0,0-1.35-1.93,7.89,7.89,0,0,0,3-1.45c1.73-1.38,2.28-2.84,2.28-6a4.18,4.18,0,0,0-.09-1Zm6.9-2.14a5.2,5.2,0,0,0-.68,1.19,10.7,10.7,0,0,1-2.61,3.41,10.29,10.29,0,0,1-2,1.41,5.89,5.89,0,0,0-1.53-1.54,7.78,7.78,0,0,0,2.48-1.57,6.93,6.93,0,0,0,1.61-2.15h-8.92a15.59,15.59,0,0,0-2.31.1v-2.13a13.57,13.57,0,0,0,2.34.14h8.88a4.77,4.77,0,0,0,1.64-.15Z"/><rect class="cls-5" y="211.69" width="185" height="40"/><path class="cls-2" d="M50.82,226.11a19.74,19.74,0,0,0-.1-2.06,15.54,15.54,0,0,0,2,.09H63.4a17,17,0,0,0,2-.09,16.69,16.69,0,0,0-.11,2v10.22a10.67,10.67,0,0,0,.11,1.95h-2v-.93H52.71v.93h-2a12.57,12.57,0,0,0,.1-2Zm1.89,9.47H63.42v-9.73H60.54v5.22c0,.36,0,.39.4.39s.47-.08.52-.23a10,10,0,0,0,.14-2.11,6,6,0,0,0,1.6.61c-.11,2-.19,2.5-.51,2.89s-.89.54-2.16.54c-1.48,0-1.8-.27-1.8-1.46v-5.85H57a21,21,0,0,1-.17,3,7.27,7.27,0,0,1-3,5.23,5.23,5.23,0,0,0-1.19-1.34Zm0-3.06c1.9-1.29,2.55-3,2.55-6.67H52.71Z"/><path class="cls-2" d="M67.79,225.67c0-.73,0-1.36-.1-2.06a15.25,15.25,0,0,0,2,.09H80.42a16.85,16.85,0,0,0,2-.09,19.56,19.56,0,0,0-.1,2v10.91a14.57,14.57,0,0,0,.1,2.2H80.48v-1H69.62v1H67.69a17.75,17.75,0,0,0,.1-2.21Zm1.83,10.47H80.48v-10.8H69.62ZM72.17,228a9.05,9.05,0,0,0-1.54.09v-1.72a8.84,8.84,0,0,0,1.54.09H78a9.07,9.07,0,0,0,1.58-.09v1.72A9.43,9.43,0,0,0,78,228H75.79v1.77h1.75A8.81,8.81,0,0,0,79,229.7v1.68a7.06,7.06,0,0,0-1.09-.09A8.64,8.64,0,0,1,79,232.94l-.92.51a8.41,8.41,0,0,0,1.67-.1v1.77a10.64,10.64,0,0,0-1.6-.09H72a9.74,9.74,0,0,0-1.62.09v-1.77a8.09,8.09,0,0,0,1.62.1h2v-2.16H72.56a8,8,0,0,0-1.46.09V229.7a8.9,8.9,0,0,0,1.46.08H74V228Zm3.62,5.44h1.84a7.73,7.73,0,0,0-1.07-1.7l.9-.46H75.79Z"/><path class="cls-2" d="M93,234.4h4.12a12.61,12.61,0,0,0,2.21-.11v2.14a16.93,16.93,0,0,0-2.18-.09H87a16.75,16.75,0,0,0-2.17.09v-2.14a12.55,12.55,0,0,0,2.21.11h3.84v-7h-2.6a17.37,17.37,0,0,0-2.18.08v-2.12a12.53,12.53,0,0,0,2.21.12h7.57a12.53,12.53,0,0,0,2.21-.12v2.12a17.27,17.27,0,0,0-2.18-.08H93Z"/><path class="cls-2" d="M106.34,224a9.82,9.82,0,0,0-.06,1.53v4.7a9.17,9.17,0,0,0,.06,1.49H104a12.33,12.33,0,0,0,.09-1.53V225.5A10.76,10.76,0,0,0,104,224Zm7.72,0a7.79,7.79,0,0,0-.09,1.58v2.3a19.6,19.6,0,0,1-.44,5.15,6.51,6.51,0,0,1-3.35,4,14.42,14.42,0,0,1-3.31,1.31,6,6,0,0,0-1.19-2,9.09,9.09,0,0,0,3.67-1.36c1.6-1,2.16-2.09,2.35-4.33.07-.73.08-1.48.08-2.84v-2.12a8.94,8.94,0,0,0-.08-1.62Z"/><path class="cls-2" d="M126.57,227.81a8.14,8.14,0,0,0-.07,1.38c-.06,2.9-.52,4.53-1.68,6a9.79,9.79,0,0,1-4.38,3.06,6,6,0,0,0-1.35-1.93,7.89,7.89,0,0,0,3-1.45c1.73-1.38,2.28-2.84,2.28-6a4.18,4.18,0,0,0-.09-1Zm6.9-2.14a5.2,5.2,0,0,0-.68,1.19,10.7,10.7,0,0,1-2.61,3.41,10.29,10.29,0,0,1-2,1.41,5.89,5.89,0,0,0-1.53-1.54,7.78,7.78,0,0,0,2.48-1.57,6.93,6.93,0,0,0,1.61-2.15h-8.92a15.59,15.59,0,0,0-2.31.1v-2.13a13.57,13.57,0,0,0,2.34.14h8.88a4.77,4.77,0,0,0,1.64-.15Z"/><rect class="cls-6" x="197" y="211.69" width="185" height="40"/><path class="cls-2" d="M254.25,228.63a18,18,0,0,1-.48,2.94,10.72,10.72,0,0,1-2.85,5.3,11.52,11.52,0,0,1-2.44,1.9,5.66,5.66,0,0,0-1.39-1.65,8.78,8.78,0,0,0,3.93-3.8,12.37,12.37,0,0,0,1.29-4.69h-2.19a16.5,16.5,0,0,0-2.15.1v-2a16.2,16.2,0,0,0,2.15.1h2.33c0-.88.05-1.28.05-2a15,15,0,0,0-.09-1.55h2.14a12.79,12.79,0,0,0-.1,1.57c0,.9,0,1.31-.07,2h2.83a20,20,0,0,0,2.08-.09c-.06.7-.06,1-.08,1.94l0,7.58c0,.43.05.46.69.46.8,0,1-.08,1.14-.47a12.58,12.58,0,0,0,.32-3.2,4.9,4.9,0,0,0,1.77.7c-.17,2.53-.35,3.57-.76,4.09s-1.07.65-2.77.65c-1.87,0-2.35-.31-2.35-1.48l0-8.34Z"/><path class="cls-2" d="M266.72,227.47a18.78,18.78,0,0,1-1,5l-1.65-.61a12.68,12.68,0,0,0,1-4.69Zm2.47,1.82a13.44,13.44,0,0,1-1.31,6.66,11.36,11.36,0,0,1-2.09,2.84,4.59,4.59,0,0,0-1.38-1.46,8.11,8.11,0,0,0,2-2.84,7.92,7.92,0,0,0,.74-2.52,19.06,19.06,0,0,0,.24-3v-3.83a15.15,15.15,0,0,0-.12-2h2a10.85,10.85,0,0,0-.1,1.94Zm1.51-2.11a25.08,25.08,0,0,1,1.34,4.28l-1.58.75a20.23,20.23,0,0,0-1.18-4.45Zm3.4-3.48a11.58,11.58,0,0,0-.1,1.93v9.83a16.65,16.65,0,0,0,.1,2.17h-2a19.46,19.46,0,0,0,.1-2.19v-9.79a11.78,11.78,0,0,0-.1-2Zm1.33,3.38a29.6,29.6,0,0,1,1.7,4.11l-1.5.9a23.22,23.22,0,0,0-1.56-4.33Zm3.67-3.89a16.81,16.81,0,0,0-.1,2.12v11.07a18.17,18.17,0,0,0,.1,2.29h-2a18.6,18.6,0,0,0,.1-2.29V225.29a15.94,15.94,0,0,0-.1-2.1Z"/><path class="cls-2" d="M290,234.4h4.12a12.61,12.61,0,0,0,2.21-.11v2.14a16.93,16.93,0,0,0-2.18-.09H284a16.75,16.75,0,0,0-2.17.09v-2.14a12.55,12.55,0,0,0,2.21.11h3.84v-7h-2.6a17.37,17.37,0,0,0-2.18.08v-2.12a12.53,12.53,0,0,0,2.21.12h7.57a12.53,12.53,0,0,0,2.21-.12v2.12a17.27,17.27,0,0,0-2.18-.08H290Z"/><path class="cls-2" d="M303.34,224a9.82,9.82,0,0,0-.06,1.53v4.7a9.17,9.17,0,0,0,.06,1.49H301a12.33,12.33,0,0,0,.09-1.53V225.5A10.76,10.76,0,0,0,301,224Zm7.72,0a7.79,7.79,0,0,0-.09,1.58v2.3a19.6,19.6,0,0,1-.44,5.15,6.51,6.51,0,0,1-3.35,4,14.42,14.42,0,0,1-3.31,1.31,6,6,0,0,0-1.19-2,9.09,9.09,0,0,0,3.67-1.36c1.6-1,2.16-2.09,2.35-4.33.07-.73.08-1.48.08-2.84v-2.12a8.94,8.94,0,0,0-.08-1.62Z"/><path class="cls-2" d="M323.57,227.81a8.14,8.14,0,0,0-.07,1.38c-.06,2.9-.52,4.53-1.68,6a9.79,9.79,0,0,1-4.38,3.06,6,6,0,0,0-1.35-1.93,7.89,7.89,0,0,0,3-1.45c1.73-1.38,2.28-2.84,2.28-6a4.18,4.18,0,0,0-.09-1Zm6.9-2.14a5.2,5.2,0,0,0-.68,1.19,10.7,10.7,0,0,1-2.61,3.41,10.29,10.29,0,0,1-2,1.41,5.89,5.89,0,0,0-1.53-1.54,7.78,7.78,0,0,0,2.48-1.57,6.93,6.93,0,0,0,1.61-2.15h-8.92a15.59,15.59,0,0,0-2.31.1v-2.13a13.57,13.57,0,0,0,2.34.14h8.88a4.77,4.77,0,0,0,1.64-.15Z"/></g></g></svg>