<svg xmlns="http://www.w3.org/2000/svg" viewBox="0 0 700.6 489.49"><defs><style>.cls-1{fill:#959596;}.cls-2{fill:#fff;}.cls-3{fill:#99c43a;}.cls-4{fill:#0277b6;}.cls-5{fill:#1dbaea;}.cls-6{fill:#ffd000;}.cls-7{fill:#ed8a33;}.cls-8{fill:#ca2238;}.cls-9{fill:#4aae60;}.cls-10{fill:#e8809f;}</style></defs><title>map</title><g id="レイヤー_2" data-name="レイヤー 2"><g id="メインデザイン"><rect class="cls-1" x="175.17" y="395.29" width="147.98" height="86.22" rx="11.15"/><path class="cls-1" d="M312,487H186.33a16.71,16.71,0,0,1-16.7-16.69V406.44a16.71,16.71,0,0,1,16.7-16.69H312a16.71,16.71,0,0,1,16.7,16.69v63.91A16.71,16.71,0,0,1,312,487ZM186.33,400.83a5.62,5.62,0,0,0-5.62,5.61v63.91a5.62,5.62,0,0,0,5.62,5.61H312a5.62,5.62,0,0,0,5.62-5.61V406.44a5.62,5.62,0,0,0-5.62-5.61Z"/><path class="cls-1" d="M142.62,254.65h-122A11.18,11.18,0,0,0,9.47,265.8v48A11.18,11.18,0,0,0,20.62,325H55.18a11.19,11.19,0,0,1,11.15,11.15l-.07,134.23A11.18,11.18,0,0,0,77.41,481.5h65.21a11.18,11.18,0,0,0,11.15-11.15V265.8A11.19,11.19,0,0,0,142.62,254.65Z"/><path class="cls-1" d="M142.62,487H77.41a16.73,16.73,0,0,1-16.69-16.69l.07-134.23a5.63,5.63,0,0,0-5.61-5.61H20.62a16.71,16.71,0,0,1-16.69-16.7v-48a16.71,16.71,0,0,1,16.69-16.69h122a16.71,16.71,0,0,1,16.69,16.69V470.35A16.71,16.71,0,0,1,142.62,487Zm-122-226.85A5.61,5.61,0,0,0,15,265.8v48a5.62,5.62,0,0,0,5.61,5.62H55.18a16.73,16.73,0,0,1,16.69,16.69L71.8,470.35A5.63,5.63,0,0,0,77.41,476h65.21a5.62,5.62,0,0,0,5.61-5.61V265.8a5.62,5.62,0,0,0-5.61-5.61Z"/><path class="cls-1" d="M683.9,10.25H546.23A11.19,11.19,0,0,0,535.08,21.4V159.86A11.2,11.2,0,0,1,523.93,171l-69.15,0a11.16,11.16,0,0,1-11.15-11.14V147.77a11.19,11.19,0,0,0-11.16-11.15H418.41a11.19,11.19,0,0,0-11.15,11.15V244.9a11.19,11.19,0,0,1-11.15,11.15H187.25A11.19,11.19,0,0,0,176.1,267.2v97.12a11.18,11.18,0,0,0,11.15,11.15H329.61a11.19,11.19,0,0,1,11.15,11.16V472.8A11.19,11.19,0,0,0,351.92,484h80.14a11.19,11.19,0,0,0,11.16-11.15v-9.69A11.18,11.18,0,0,1,454.37,452H555.14c6.14,0,11.15-4.56,11.15-10.14a9.42,9.42,0,0,1,1.43-4.94v-.05a11.38,11.38,0,0,1,9.73-5.23H609a11.21,11.21,0,0,0,11.15-11.2V387.93a11.21,11.21,0,0,1,11.15-11.2h5a11.2,11.2,0,0,1,11.15,11.2v49.7a11.21,11.21,0,0,0,11.16,11.2H683.9a11.21,11.21,0,0,0,11.16-11.2V21.4A11.19,11.19,0,0,0,683.9,10.25Z"/><path class="cls-1" d="M432.06,489.49H351.92a16.71,16.71,0,0,1-16.7-16.69V386.63a5.62,5.62,0,0,0-5.61-5.62H187.25a16.71,16.71,0,0,1-16.69-16.69V267.2a16.71,16.71,0,0,1,16.69-16.69H396.11a5.62,5.62,0,0,0,5.61-5.61V147.77a16.71,16.71,0,0,1,16.69-16.69h14.06a16.71,16.71,0,0,1,16.7,16.69v12.16a5.63,5.63,0,0,0,5.6,5.6l69.15-.05a5.63,5.63,0,0,0,5.62-5.62V21.4A16.71,16.71,0,0,1,546.23,4.71H683.9A16.71,16.71,0,0,1,700.6,21.4V437.63a16.74,16.74,0,0,1-16.7,16.74H658.61a16.74,16.74,0,0,1-16.7-16.74v-49.7a5.64,5.64,0,0,0-5.61-5.66h-5a5.64,5.64,0,0,0-5.61,5.66v32.46A16.74,16.74,0,0,1,609,437.13H577.45a5.92,5.92,0,0,0-4.77,2.24l-.25.41a3.92,3.92,0,0,0-.6,2c0,8.65-7.48,15.68-16.69,15.68H454.37a5.62,5.62,0,0,0-5.61,5.62v9.69A16.71,16.71,0,0,1,432.06,489.49ZM187.25,261.59a5.62,5.62,0,0,0-5.61,5.61v97.12a5.62,5.62,0,0,0,5.61,5.61H329.61a16.71,16.71,0,0,1,16.69,16.7V472.8a5.62,5.62,0,0,0,5.62,5.61h80.14a5.62,5.62,0,0,0,5.62-5.61v-9.69a16.71,16.71,0,0,1,16.69-16.7H555.14c3,0,5.61-2.11,5.61-4.6a14.78,14.78,0,0,1,1.43-6.32v-.18l.82-1.39a17,17,0,0,1,14.45-7.87H609a5.64,5.64,0,0,0,5.61-5.66V387.93a16.74,16.74,0,0,1,16.69-16.74h5A16.73,16.73,0,0,1,653,387.93v49.7a5.65,5.65,0,0,0,5.62,5.66H683.9a5.65,5.65,0,0,0,5.62-5.66V21.4a5.62,5.62,0,0,0-5.62-5.61H546.23a5.61,5.61,0,0,0-5.61,5.61V159.86a16.73,16.73,0,0,1-16.69,16.7l-69.15.05a16.7,16.7,0,0,1-16.69-16.68V147.77a5.62,5.62,0,0,0-5.62-5.61H418.41a5.62,5.62,0,0,0-5.61,5.61V244.9a16.71,16.71,0,0,1-16.69,16.69Z"/><rect class="cls-2" x="171.25" y="390.57" width="147.97" height="86.22" rx="11.15"/><path class="cls-2" d="M308.07,482.33H182.4a16.71,16.71,0,0,1-16.69-16.69V401.72A16.71,16.71,0,0,1,182.4,385H308.07a16.71,16.71,0,0,1,16.69,16.69v63.92A16.71,16.71,0,0,1,308.07,482.33ZM182.4,396.11a5.62,5.62,0,0,0-5.61,5.61v63.92a5.62,5.62,0,0,0,5.61,5.61H308.07a5.62,5.62,0,0,0,5.61-5.61V401.72a5.62,5.62,0,0,0-5.61-5.61Z"/><path class="cls-2" d="M138.69,249.93h-122A11.19,11.19,0,0,0,5.54,261.09v48a11.19,11.19,0,0,0,11.15,11.15H51.25A11.18,11.18,0,0,1,62.4,331.41l-.06,134.23a11.17,11.17,0,0,0,11.14,11.15h65.21a11.19,11.19,0,0,0,11.16-11.15V261.09A11.2,11.2,0,0,0,138.69,249.93Z"/><path class="cls-2" d="M138.69,482.33H73.48a16.71,16.71,0,0,1-16.68-16.7l.06-134.23a5.65,5.65,0,0,0-5.61-5.61H16.69A16.71,16.71,0,0,1,0,309.1v-48a16.71,16.71,0,0,1,16.69-16.7h122a16.72,16.72,0,0,1,16.7,16.7V465.64A16.71,16.71,0,0,1,138.69,482.33Zm-122-226.86a5.62,5.62,0,0,0-5.61,5.62v48a5.62,5.62,0,0,0,5.61,5.61H51.25a16.71,16.71,0,0,1,16.69,16.7l-.06,134.23a5.63,5.63,0,0,0,5.6,5.61h65.21a5.62,5.62,0,0,0,5.62-5.61V261.09a5.62,5.62,0,0,0-5.62-5.62Z"/><path class="cls-2" d="M680,5.54H542.3a11.19,11.19,0,0,0-11.15,11.15V155.15A11.2,11.2,0,0,1,520,166.31l-69.15.05a11.17,11.17,0,0,1-11.15-11.14V143.06a11.19,11.19,0,0,0-11.15-11.15H414.49a11.19,11.19,0,0,0-11.16,11.15v97.12a11.19,11.19,0,0,1-11.15,11.16H183.33a11.18,11.18,0,0,0-11.15,11.15v97.12a11.18,11.18,0,0,0,11.15,11.15H325.68a11.19,11.19,0,0,1,11.16,11.15v86.17A11.18,11.18,0,0,0,348,479.23h80.15a11.18,11.18,0,0,0,11.15-11.15v-9.69a11.18,11.18,0,0,1,11.15-11.15H551.22c6.13,0,11.15-4.57,11.15-10.15a9.35,9.35,0,0,1,1.42-4.93v-.05a11.38,11.38,0,0,1,9.73-5.24h31.54a11.19,11.19,0,0,0,11.15-11.19V383.22A11.21,11.21,0,0,1,627.37,372h5a11.21,11.21,0,0,1,11.15,11.2v49.7a11.2,11.2,0,0,0,11.15,11.19H680a11.2,11.2,0,0,0,11.15-11.19V16.69A11.19,11.19,0,0,0,680,5.54Z"/><path class="cls-2" d="M428.14,484.77H348a16.71,16.71,0,0,1-16.69-16.69V381.91a5.62,5.62,0,0,0-5.62-5.61H183.33a16.71,16.71,0,0,1-16.69-16.69V262.49a16.71,16.71,0,0,1,16.69-16.69H392.18a5.62,5.62,0,0,0,5.61-5.62V143.06a16.71,16.71,0,0,1,16.7-16.69h14.06a16.71,16.71,0,0,1,16.69,16.69v12.16a5.63,5.63,0,0,0,5.6,5.6l69.15,0a5.63,5.63,0,0,0,5.62-5.62V16.69A16.71,16.71,0,0,1,542.3,0H680a16.71,16.71,0,0,1,16.69,16.69V432.92A16.74,16.74,0,0,1,680,449.66h-25.3A16.74,16.74,0,0,1,638,432.92v-49.7a5.64,5.64,0,0,0-5.61-5.66h-5a5.65,5.65,0,0,0-5.62,5.66v32.46a16.73,16.73,0,0,1-16.69,16.74H573.52a5.87,5.87,0,0,0-4.82,2.31l-.19.33a3.83,3.83,0,0,0-.6,2c0,8.65-7.49,15.69-16.69,15.69H450.44a5.62,5.62,0,0,0-5.61,5.61v9.69A16.71,16.71,0,0,1,428.14,484.77ZM183.33,256.88a5.61,5.61,0,0,0-5.61,5.61v97.12a5.61,5.61,0,0,0,5.61,5.61H325.68a16.71,16.71,0,0,1,16.7,16.69v86.17a5.61,5.61,0,0,0,5.61,5.61h80.15a5.62,5.62,0,0,0,5.61-5.61v-9.69a16.71,16.71,0,0,1,16.69-16.69H551.22c3,0,5.61-2.11,5.61-4.61a14.94,14.94,0,0,1,1.95-7.35c.09-.18.19-.36.29-.53a17,17,0,0,1,14.45-7.88h31.54a5.63,5.63,0,0,0,5.61-5.65V383.22a16.74,16.74,0,0,1,16.7-16.74h5a16.74,16.74,0,0,1,16.69,16.74v49.7a5.64,5.64,0,0,0,5.61,5.65H680a5.64,5.64,0,0,0,5.61-5.65V16.69A5.62,5.62,0,0,0,680,11.08H542.3a5.62,5.62,0,0,0-5.61,5.61V155.15A16.72,16.72,0,0,1,520,171.85l-69.14.05a16.7,16.7,0,0,1-16.7-16.68V143.06a5.62,5.62,0,0,0-5.61-5.61H414.49a5.62,5.62,0,0,0-5.62,5.61v97.12a16.71,16.71,0,0,1-16.69,16.7Z"/><path class="cls-3" d="M370.69,285.23V251.34H293.88V370.76h31.8a11.19,11.19,0,0,1,11.16,11.15v86.17A11.18,11.18,0,0,0,348,479.23h56.44V339.07h35.06V285.23Z"/><rect class="cls-4" x="171.25" y="390.57" width="147.97" height="86.22" rx="11.15"/><path class="cls-5" d="M62.4,331.41a11.18,11.18,0,0,0-11.15-11.16H16.69A11.19,11.19,0,0,1,5.54,309.1v-48a11.19,11.19,0,0,1,11.15-11.16h122a11.19,11.19,0,0,1,11.16,11.16V465.64a11.19,11.19,0,0,1-11.16,11.15H73.48a11.17,11.17,0,0,1-11.14-11.15Z"/><path class="cls-6" d="M530.77,338.67V222.78l33,.28V146.69H531.15v18.46c0,6.13-5,1.15-11.15,1.16l-69.15.05a11.17,11.17,0,0,1-11.15-11.14V143.06a11.19,11.19,0,0,0-11.15-11.15H414.49a11.19,11.19,0,0,0-11.16,11.15v97.12a11.19,11.19,0,0,1-11.15,11.16H370.69v33.89h69.63V223.5h42.36v163h81.11V338.67Z"/><path class="cls-7" d="M439.29,468.08v-9.69a11.18,11.18,0,0,1,11.15-11.15H551.22c6.13,0,11.15-4.57,11.15-10.15a9.35,9.35,0,0,1,1.42-4.93V386.45H530.68V223.5h-91.3V339.07H404.43V479.23h23.71A11.18,11.18,0,0,0,439.29,468.08Z"/><path class="cls-8" d="M573.52,426.87h31.54a11.21,11.21,0,0,0,11.16-11.2V383.22A11.2,11.2,0,0,1,627.37,372h5a11.21,11.21,0,0,1,11.15,11.2v49.7a11.2,11.2,0,0,0,11.15,11.19H680a11.2,11.2,0,0,0,11.15-11.19V221.85H530.77v117.5h-18v47.1h51v45.66A11.38,11.38,0,0,1,573.52,426.87Z"/><path class="cls-9" d="M680,5.54H542.3a11.19,11.19,0,0,0-11.15,11.15v130l.26,19.45-35.62.84v55.08H691.13V16.69A11.19,11.19,0,0,0,680,5.54Z"/><path class="cls-10" d="M183.33,251.34a11.18,11.18,0,0,0-11.15,11.15v97.12a11.18,11.18,0,0,0,11.15,11.15H293.88V251.34Z"/><rect class="cls-2" x="531.05" y="45.2" width="160.02" height="1.98"/><rect class="cls-2" x="531.05" y="101.91" width="160.02" height="1.98"/><rect class="cls-2" x="531.29" y="165.79" width="160" height="1.98"/><rect class="cls-2" x="610.18" y="47.62" width="1.98" height="119.11"/><rect class="cls-2" x="641.76" y="222.13" width="2" height="154.63"/><rect class="cls-2" x="530.89" y="283.53" width="111.15" height="1.97"/><rect class="cls-2" x="370.04" y="284.53" width="69" height="1.97"/><rect class="cls-2" x="586.48" y="166.8" width="2.01" height="117"/><rect class="cls-2" x="562.48" y="336.98" width="2.01" height="101.82"/><rect class="cls-2" x="563.79" y="338.8" width="79.68" height="1.97"/><rect class="cls-2" x="642.04" y="304.34" width="48.75" height="1.98"/><rect class="cls-2" x="495.79" y="385.45" width="120.36" height="2.01"/><rect class="cls-2" x="493.86" y="166.52" width="2.05" height="56.12"/><rect class="cls-2" x="404.43" y="221.82" width="287" height="1.97"/><rect class="cls-2" x="440.06" y="161.04" width="1.97" height="62.45"/><rect class="cls-2" x="369.06" y="251.5" width="1.97" height="35"/><polygon class="cls-2" points="514.02 386.29 512 386.29 512 337.32 563.95 337.32 563.95 339.35 514.02 339.35 514.02 386.29"/><rect class="cls-2" x="438.17" y="222.36" width="1.97" height="233"/><rect class="cls-2" x="484.17" y="222.36" width="1.97" height="163"/><rect class="cls-2" x="530.17" y="222.36" width="1.97" height="117"/><rect class="cls-2" x="403.17" y="338.36" width="1.97" height="144"/><rect class="cls-2" x="494.6" y="386.3" width="1.99" height="60.87"/><rect class="cls-2" x="334.52" y="251.35" width="2" height="123.74"/><rect class="cls-2" x="292.52" y="251.35" width="2" height="122"/><polygon class="cls-2" points="404.71 339.35 336.24 339.35 336.24 337.35 402.71 337.35 402.72 285.52 404.71 285.52 404.71 339.35"/><polygon class="cls-2" points="404.43 446.43 369 446.43 369 339.21 370.95 339.21 370.95 444.48 404.43 444.48 404.43 446.43"/><rect class="cls-2" x="337.1" y="416.32" width="32.38" height="1.99"/><rect class="cls-2" x="405.1" y="337.32" width="34" height="1.99"/><rect class="cls-2" x="209.62" y="251.64" width="1.98" height="119.02"/><rect class="cls-2" x="251.26" y="251.64" width="1.98" height="119.02"/><rect class="cls-2" x="211.14" y="305.77" width="82.69" height="2"/><rect class="cls-2" x="243.36" y="390.75" width="1.98" height="86.15"/><rect class="cls-2" x="171.28" y="432.12" width="147.96" height="1.98"/><rect class="cls-2" x="439.61" y="384.3" width="57.07" height="2"/><rect class="cls-2" x="58.87" y="250.2" width="1.98" height="73.08"/><rect class="cls-2" x="32.33" y="250.2" width="1.95" height="70.2"/><rect class="cls-2" x="60.9" y="305.78" width="89.01" height="1.97"/><rect class="cls-2" x="62.56" y="415.62" width="87.28" height="1.95"/><rect class="cls-2" x="99.78" y="307.48" width="2.01" height="109.67"/><rect class="cls-2" x="101.5" y="361.78" width="48.1" height="1.97"/><path class="cls-2" d="M516.63,282.71v1.69h-8.94a14.66,14.66,0,0,0,2.94,2.56l.55.35a20.77,20.77,0,0,0,2.52-2.68l1.65,1a20.18,20.18,0,0,1-2.47,2.62,29.08,29.08,0,0,0,3.88,1.53l-.85,1.65a23.67,23.67,0,0,1-6.48-3.08,16.71,16.71,0,0,1-4.07-4h-1.67v4.81c1.84-.23,3.65-.52,5.45-.87l.23,1.64a84,84,0,0,1-9.85,1.36l-.21-1.69c.55,0,1.32-.1,2.29-.21v-5H499v-1.69h2.62v-8.2h13.14v1.71H503.69v1.12h10.47v1.5H503.69V280h10.47v1.49H503.69v1.22Z"/><path class="cls-2" d="M509,297.9l1.24-1.26c.73.67,1.36,1.26,1.88,1.78a26.36,26.36,0,0,0,2.09-2.54h-5.58v-1.75h7.7v1.75a31,31,0,0,1-2.95,3.82c.36.39.63.68.79.87h2.8v1.75a21.27,21.27,0,0,1-2,4.05l-1.55-1a20.42,20.42,0,0,0,1.67-3h-1.94V309a3.23,3.23,0,0,1-.12.77,1.5,1.5,0,0,1-.19.51,1.06,1.06,0,0,1-.35.27,1.56,1.56,0,0,1-.57.15,7.15,7.15,0,0,1-.79,0c-.49,0-1.32,0-2.48-.09l-.1-1.79c.73.05,1.37.08,1.94.08q.52,0,.6-.12a2.48,2.48,0,0,0,.08-.89v-5.58h-3.2V303h-3.1v1.45H508V306h-3.2v1.9c1.13-.17,2.21-.34,3.22-.52l.05,1.63q-4.87.94-8.88,1.41l-.17-1.78c1.72-.18,3-.33,3.74-.45V306h-3.39v-1.59h3.39V303h-3.2v-9h8.34v6.63h3.86C510.8,299.6,509.86,298.71,509,297.9Zm-6.19-2.25H501.4v2.09h1.36Zm-1.36,3.55v2.21h1.36V299.2Zm4.7-1.46v-2.09h-1.3v2.09Zm0,1.46h-1.3v2.21h1.3Z"/><path class="cls-2" d="M598.31,25.57h7.79v1.55H588.26V25.57h7.8v-.84h-6.44V23.3h6.44v-.84h-7.12V20.85h7.12v-1.2h2.25v1.2h7.11v1.61h-7.11v.84h6.43v1.43h-6.43Zm-8.07,2.27h13.88v6.88a8.71,8.71,0,0,1,0,.91,2.31,2.31,0,0,1-.11.62,1,1,0,0,1-.27.39,1.31,1.31,0,0,1-.49.23,5.38,5.38,0,0,1-.72.12c-.16,0-.51,0-1,0-.33,0-1.28,0-2.87-.1l0-1.74q2.18.09,2.67.09a2,2,0,0,0,.66-.06c.08,0,.12-.2.12-.48v-.49h-9.62v2.83h-2.13Zm2.13,2.48H602v-.88h-9.62Zm0,1.51v.91H602v-.91Z"/><path class="cls-2" d="M607.85,28.86h2.94V27h2.06v1.84h2.36v1.69h-2.13c.86.74,1.75,1.58,2.7,2.52l-1.13,1.28q-.87-1-1.8-1.92V37.3h-2.06V32.53a18.74,18.74,0,0,1-2.59,3.29l-1.05-1.51a15.43,15.43,0,0,0,3.14-3.76h-2.44Zm17.39-2.75-.76,1.73A29.42,29.42,0,0,1,617.64,24v4h-2.13V24a29.72,29.72,0,0,1-6.85,3.84l-.76-1.73A35.23,35.23,0,0,0,614.34,23h-5.72V21.24h6.89V19.65h2.13v1.59h6.88V23H618.8A35.56,35.56,0,0,0,625.24,26.11Zm.06,2.75v1.69h-3.16A17.77,17.77,0,0,0,626,34.64l-1.07,1.53a20.74,20.74,0,0,1-3.39-3.58V37.3h-2V32.76A21.06,21.06,0,0,1,616,36.44l-1.08-1.39a19.68,19.68,0,0,0,4.18-4.5h-3V28.86h3.39V27h2v1.84Z"/><path class="cls-2" d="M549.54,73.61h2.65V71.2q-.81.1-2.34.21l-.18-1.62a41.56,41.56,0,0,0,6.92-1.13l.49,1.59a25.82,25.82,0,0,1-3,.68v2.68h2.45v1.74h-2.25q1.5,2.72,2.69,5l-1.43,1c-.42-.91-.9-1.93-1.46-3v7.85h-1.94V79.29A16.55,16.55,0,0,1,550.27,83l-1.12-1.71a19.8,19.8,0,0,0,2.89-6h-2.5Zm11.24-4.76h2.06v4.66A15.16,15.16,0,0,0,564,80a9.79,9.79,0,0,0,3.69,4.15l-1.15,1.77a11.28,11.28,0,0,1-4-5,17.86,17.86,0,0,1-.68-1.75,16.8,16.8,0,0,1-.68,1.67A11.91,11.91,0,0,1,557,85.9l-1.16-1.77A10.1,10.1,0,0,0,559.54,80a14.73,14.73,0,0,0,1.24-6.44Zm-4.44,8.92A25.69,25.69,0,0,0,558,71.41l1.84.26a25.46,25.46,0,0,1-1.78,6.69Zm9,.16-1.76-.7a25.44,25.44,0,0,0,1.92-6.16l1.88.36A24.8,24.8,0,0,1,565.34,77.93Z"/><path class="cls-2" d="M569.82,69.59h16v16.1h-2.08V84.52H571.89v1.17h-2.07Zm7,1.75h-4.91V76h4.91Zm-4.91,6.4v5.08h4.91V77.74Zm6.93-6.4V76h4.9V71.34Zm0,11.48h4.9V77.74h-4.9Z"/><path class="cls-2" d="M550.37,124.18h2v9.41h4.94V119.72h2.13v13.87h4.95v-9.41h2v12.61h-2v-1.36h-12v1.36h-2Z"/><path class="cls-2" d="M571.22,126.7c0-.6,0-1.62,0-3V122h-2v-1.74H580V122h-2.13v4.75H580v1.75h-2.13v8.34h-2v-8.34h-2.71c-.06.89-.11,1.54-.16,2a14.44,14.44,0,0,1-.89,3.91,9.76,9.76,0,0,1-1.63,2.64l-1.57-1.55a7.6,7.6,0,0,0,1.41-2.17,13,13,0,0,0,.72-3.38q.06-.54.12-1.41H569V126.7Zm2,0h2.62V122h-2.58v1.71C573.25,125.07,573.24,126.08,573.21,126.7Zm5.3,8.44a20.65,20.65,0,0,0,3.91-1.94,17.17,17.17,0,0,0,3.22-2.77l1.36,1.28a18.16,18.16,0,0,1-3.36,3,19.91,19.91,0,0,1-4.11,2.12Zm.62-11.64a17.45,17.45,0,0,0,6-3.7l1.34,1.26a18.21,18.21,0,0,1-6.38,4.09Zm0,5.63a16.43,16.43,0,0,0,6.26-4.23l1.36,1.24a17.24,17.24,0,0,1-2.93,2.64,20.09,20.09,0,0,1-3.7,2Z"/><path class="cls-2" d="M637,120.79h7.47v4.65h-2v-2.91h-13v2.91h-2v-4.65h7.47V119H637Zm-6,15.22v1H629v-6.65H634a14.19,14.19,0,0,0,.49-1.4h-4.31v-5.27h11.44v5.27h-4.92c-.18.59-.34,1-.48,1.4h6.67V137h-2.1v-1Zm0-1.55h9.77V132h-9.77Zm1.24-7.08h7.29v-2H632.3Z"/><path class="cls-2" d="M658.09,125.21a46.2,46.2,0,0,1-.29,7,1.21,1.21,0,0,1-.8,1,4.84,4.84,0,0,1-.69,0c-.54,0-1.23-.05-2.1-.14l-.21-1.74a9.85,9.85,0,0,0,1.43.13c.31,0,.51-.07.58-.23a13,13,0,0,0,.24-3.55c0-.17,0-.46,0-.87h-2.2v.58a26.29,26.29,0,0,1-.5,5.51,13.27,13.27,0,0,1-1.59,4l-1.82-1a10.26,10.26,0,0,0,1.12-2.42,32.39,32.39,0,0,1-4.88,1.84l-.26-1.78c.91-.26,1.58-.46,2-.61v-7.17h-1.94v-1.74h1.94V120h1.9v4.15h1.63v1.74h-1.63v6.48c.48-.2,1-.44,1.69-.74a36.64,36.64,0,0,0,.33-5.62v-4.52h6.28c0-.44,0-1.12,0-2h2c0,.92,0,1.6,0,2h1.26c-.09-.27-.33-.85-.7-1.75l1.63-.68c.35.82.67,1.63,1,2.43h.77v1.74h-3.87c0,.11,0,.79.11,2.06s.22,2.62.37,3.84a25.87,25.87,0,0,0,1.42-4.07l1.74.62a24,24,0,0,1-2.62,6.38,1.49,1.49,0,0,1,0,.22c0,.1,0,.16,0,.2a13.14,13.14,0,0,0,.54,1.65c.16.32.29.49.39.49s.41-1.1.56-3.3l1.56.64c-.2,3.3-.81,4.94-1.85,4.94-1.19,0-2.13-.94-2.83-2.83a17,17,0,0,1-3.31,2.81l-1.32-1.41a15.14,15.14,0,0,0,4-3.59,50.81,50.81,0,0,1-.89-8.65h-4.33v2Z"/><path class="cls-2" d="M606.65,192.88h2.08v1.85a13.88,13.88,0,0,1-1.48,3.6c.7.77,1.35,1.55,2,2.35v-1.94h11v8.59h-2v-.78h-6.94v.78h-2v-5.84l-1,.9c-.62-.83-1.14-1.49-1.55-2v7h-2.06v-6.07a12.82,12.82,0,0,1-1.86,1.47l-.66-2.07a11.28,11.28,0,0,0,4.64-6h-4.13v-1.85h2V190h2.06Zm2.46-.73v-1.69h11.25v1.69Zm2.78,5.68h-2.06v-4.75h9.7v4.75Zm-.7,4.13h2.48v-1.55h-2.48Zm0,1.43V205h2.48v-1.61Zm.7-7h5.56v-1.74h-5.56Zm3.72,5.59h2.52v-1.55h-2.52Zm0,1.43V205h2.52v-1.61Z"/><path class="cls-2" d="M624,202.39V191.1h4.69c.13-.39.28-1,.45-1.73l2.13.14c-.12.54-.25,1.07-.41,1.59h6.52v6.48H626v.83h13.42V200H626v.82H639v.81a19.79,19.79,0,0,1-.23,3.53,2.93,2.93,0,0,1-.72,1.67,2.12,2.12,0,0,1-1.43.42c-.78,0-1.71,0-2.81-.13l-.08-1h-9.13v1h-2v-4.15h2v1.59h2.91v-2.13Zm2.09-8.63h9.19v-1.07H626Zm0,1.35v1.07h9.19v-1.07Zm8.22,10.34c.57.05,1.11.08,1.61.08a.84.84,0,0,0,.62-.2,1.63,1.63,0,0,0,.31-.85,17.64,17.64,0,0,0,.14-2.09h-7.47v2.13h2.91v-1.59h1.88Z"/><path class="cls-2" d="M645.49,274.83a22.13,22.13,0,0,0,4.5-3.65l1.47,1.36a23.79,23.79,0,0,1-4.77,3.92Zm.49-13.05h3.78V260h2v1.75h5.63V260h2v1.75h3.78v1.74h-3.78v1.55h-2v-1.55h-5.63v1.55h-2v-1.55H646Zm3.58,7.42a36.71,36.71,0,0,0-3.53-2.52l1.3-1.61a35.75,35.75,0,0,1,3.55,2.47Zm13.29,8.57a11.32,11.32,0,0,1-5.22-3.12,9.71,9.71,0,0,1-1-1.32,9.6,9.6,0,0,1-1.06,1.34,11.37,11.37,0,0,1-5.18,3.1l-.87-1.78a10.3,10.3,0,0,0,4.38-2.36,4.81,4.81,0,0,0,1.63-3.46v-1.66h2.13v1.66a4.74,4.74,0,0,0,1.61,3.42,10.08,10.08,0,0,0,4.5,2.34Zm-1.9-10h-6.4l-.29.52a15.42,15.42,0,0,1-2.27,3.09l-1.75-1.17a14,14,0,0,0,3.43-5.77l2.06.29c-.13.46-.29.93-.47,1.41h7.88v1.63a12.17,12.17,0,0,1-2.72,4.07l-1.71-1.1A11.17,11.17,0,0,0,661,267.73Z"/><path class="cls-2" d="M676.75,265.91a46.3,46.3,0,0,1-.29,7,1.23,1.23,0,0,1-.8,1c-.2,0-.44,0-.7,0-.53,0-1.22,0-2.09-.13l-.21-1.75a8.8,8.8,0,0,0,1.43.14c.31,0,.51-.08.58-.23a13,13,0,0,0,.24-3.55c0-.17,0-.46,0-.87h-2.2v.58a26.29,26.29,0,0,1-.5,5.51,13.27,13.27,0,0,1-1.59,4.05l-1.82-1a10.32,10.32,0,0,0,1.12-2.43,31.36,31.36,0,0,1-4.88,1.85l-.26-1.79c.91-.26,1.58-.46,2-.6v-7.17h-1.94v-1.75h1.94v-4.15h1.9v4.15h1.63v1.75h-1.63V273c.48-.19,1-.44,1.69-.73a36.7,36.7,0,0,0,.33-5.63v-4.51H677c0-.44,0-1.12,0-2h2c0,.92,0,1.6,0,2h1.26c-.09-.28-.33-.86-.7-1.75l1.63-.68c.35.82.67,1.62,1,2.43H683v1.74h-3.87c0,.1,0,.79.11,2.06s.21,2.62.37,3.84a26,26,0,0,0,1.42-4.08l1.74.62a23.81,23.81,0,0,1-2.62,6.38,1.7,1.7,0,0,1,0,.23c0,.09,0,.16.05.2a13.14,13.14,0,0,0,.54,1.65q.24.48.39.48c.22,0,.41-1.1.56-3.29l1.55.64q-.29,4.94-1.84,4.94c-1.19,0-2.13-.94-2.83-2.83a17.34,17.34,0,0,1-3.31,2.81l-1.32-1.41a15.14,15.14,0,0,0,4-3.59,50.92,50.92,0,0,1-.89-8.65h-4.33v2Z"/><path class="cls-2" d="M611.49,250.09a44.61,44.61,0,0,1-8.61,1v1.65h9v1.68H606.6c0,.52,0,1.21,0,2.06h4.84q0,2-.06,3.45a21.87,21.87,0,0,1-.19,2.44,12.93,12.93,0,0,1-.31,1.63,2.54,2.54,0,0,1-.48.93,1.35,1.35,0,0,1-.64.45,3.39,3.39,0,0,1-.84.1,24.23,24.23,0,0,1-2.63-.2l-.08-1.74a14.19,14.19,0,0,0,2.07.19.76.76,0,0,0,.68-.35,4,4,0,0,0,.41-1.59,35.21,35.21,0,0,0,.17-3.68h-3a15.69,15.69,0,0,1-.51,3.16,11,11,0,0,1-2.36,4.26l-1.55-1.35a10.91,10.91,0,0,0,1.57-2.39,10.61,10.61,0,0,0,.77-2.87,33.32,33.32,0,0,0,.24-4.5h-1.75V256a18.52,18.52,0,0,1-.62,5.21,15.78,15.78,0,0,1-2.15,4.34l-1.36-1.64a13.4,13.4,0,0,0,1.69-3.92c.1-.44.16-.72.17-.84l-.83.68c-.17-.35-.66-1.31-1.48-2.9v8.91h-2v-7a17.14,17.14,0,0,1-1.55,3.49l-1.21-1.92a21.32,21.32,0,0,0,2.68-6.79H594v-1.8h2.29v-3.4h2v3.4h2v1.8h-1.88c.67,1.19,1.46,2.61,2.35,4.25.07-.91.11-2,.11-3.2v-5.18A41.3,41.3,0,0,0,611,248.34Z"/><path class="cls-2" d="M614.42,263.84l-1.24-1.5a30.8,30.8,0,0,0,7.64-9H614V251.6h7.29v-3.45h2.1v3.45h7.29v1.78H623.8a30.8,30.8,0,0,0,7.64,9l-1.24,1.5a29.27,29.27,0,0,1-6.84-8v10h-2.1v-10A29.27,29.27,0,0,1,614.42,263.84Z"/><path class="cls-2" d="M554.13,259.69h3.49v1.8h-3.49v4.3h-2.07v-4.3h-3.65v-1.8h3.65v-2.81h-3.22v-1.71h3.22v-2.6h-3.3v1.2h-.93v3.3h-4.58c-.15.62-.27,1.09-.37,1.4h5v7.13h-2v-.87h-3v.87H541v-3.9a10.22,10.22,0,0,1-1.18,1.63l-.78-1.94a11.77,11.77,0,0,0,2.2-4.32h-1.4v-1.59h1.76c.13-.71.22-1.28.26-1.71h-2.56v-1.64H542c0-.7,0-1.25,0-1.65h-2v-1.55h7.76v3.2h.78v-1.3h1.86c-.42-1-.81-1.76-1.19-2.45l1.88-.37c.48.9.93,1.83,1.34,2.82h1.17a29.41,29.41,0,0,0,1.24-2.82l1.94.31a26.84,26.84,0,0,1-1.11,2.51h1.69v1.74h-3.3v2.6h3v1.71h-3Zm-11.25,3.43h3v-3.05h-3Zm.94-9.35c-.06.57-.13,1.14-.24,1.71h2.31v-1.71Zm.13-1.64h1.94v-1.65H544C544,250.85,544,251.4,544,252.13Z"/><path class="cls-2" d="M558.8,265a30.36,30.36,0,0,0,1.59-4.36l1.79.56a29.14,29.14,0,0,1-1.61,4.56ZM576,259.69a21.77,21.77,0,0,1-.24,3.74,3.16,3.16,0,0,1-.71,1.75,2,2,0,0,1-1.42.46c-.79,0-1.73-.05-2.83-.14l-.12-1.74c.86.09,1.56.14,2.12.14a.86.86,0,0,0,.66-.24,2.34,2.34,0,0,0,.34-1.08,22.5,22.5,0,0,0,.16-2.6H571.7c.52,1.25.91,2.31,1.18,3.16l-1.53.46c-.44-1.28-.84-2.36-1.2-3.23l1.2-.39H560.53V248.83h14.68v1.69h-6.15V252h5.57v1.55h-5.57v1.55h5.57v1.55h-5.57v1.59H576ZM567,252v-1.51h-4.38V252Zm0,1.55h-4.38v1.55H567Zm0,3.1h-4.38v1.59H567Zm-3.07,8.5c-.14-1.19-.36-2.57-.67-4.12l1.68-.29a37.21,37.21,0,0,1,.74,4.13Zm3.86-.65c-.26-1.21-.57-2.42-.95-3.62l1.61-.39a36.73,36.73,0,0,1,1,3.65Z"/><path class="cls-2" d="M578.55,322.24v-5.43H568.7v-1.74h1.07l-.49-1.13h-1.74v6.89c.65-.27,1.31-.56,2-.87l.16,1.8a38.21,38.21,0,0,1-5.86,2.27l-.25-1.79c.93-.28,1.58-.49,1.94-.62v-7.68h-1.84V312.2h1.84v-4.15h2v4.15h1.84v1.32a6.39,6.39,0,0,0,3.78-1.94,5.18,5.18,0,0,0,.54-.81h-4.32V309h4.9a8.91,8.91,0,0,0,.14-1.67h2a9.3,9.3,0,0,1-.14,1.67h5v1.75H575.8a.2.2,0,0,1,0,.08.13.13,0,0,0,0,.07,40.43,40.43,0,0,1,5.93,2.95l-.64,1.2h.84v1.74h-1.28v5.34c0,.55,0,.92,0,1.1a4.33,4.33,0,0,1-.14.76,1.55,1.55,0,0,1-.23.5,1.17,1.17,0,0,1-.47.27,3,3,0,0,1-.68.14c-.33,0-.66,0-1,0-.52,0-1.47,0-2.86-.1l-.09-1.69c1,.06,1.9.08,2.56.08a1.19,1.19,0,0,0,.75-.15A1.54,1.54,0,0,0,578.55,322.24Zm-6.4-4.49H577v4.92h-4.85V324h-1.9v-6.2Zm7.89-2.68c-.77-.5-1.56-1-2.36-1.4-1.21-.64-2.13-1.11-2.78-1.39a3.15,3.15,0,0,1-.27.31,7.51,7.51,0,0,1-4,2.48Zm-7.89,4.23v1.82h3V319.3Z"/><path class="cls-2" d="M584.11,308.57h16.1v1.85h-7.08v4.5h5.72v1.8h-5.72v5.72h7.47v1.84H583.73v-1.84H591v-5.72h-5.53v-1.8H591v-4.5h-6.89Zm11.95,8.65c1.3,1.14,2.43,2.2,3.37,3.18L598,321.76q-1.44-1.5-3.3-3.1Z"/><path class="cls-2" d="M518.33,357.8h2v9.4h4.94V353.33h2.14V367.2h4.94v-9.4h2v12.6h-2V369h-12v1.36h-2Z"/><path class="cls-2" d="M544.71,362.12h2.13v1.43h7.37v1.71h-6.5a26.09,26.09,0,0,0,7.12,3.45l-.76,1.73a25.89,25.89,0,0,1-7.23-3.82v4.07h-2.13v-4.07a26.1,26.1,0,0,1-7.24,3.82l-.75-1.73a26,26,0,0,0,7.11-3.45h-6.49v-1.71h7.37Zm1.68-5.29v1.61h-2.54c1,.77,1.9,1.53,2.79,2.26L545.09,362c-.81-.89-1.62-1.74-2.42-2.54v3.36h-1.84V359.6a10.25,10.25,0,0,1-2.85,3l-1.13-1.74a11.63,11.63,0,0,0,3-2.4h-2.62v-1.61h3.53v-1.19c-.71.07-1.75.14-3.1.22l-.2-1.61a78,78,0,0,0,8.3-.92l.54,1.56q-1.56.28-3.6.54v1.4Zm.89,3.23V354h2v6.05Zm4.6-6.53h2v6.4a4.21,4.21,0,0,1-.41,2.35c-.27.3-1,.46-2.12.46l-2.52-.1-.09-1.65c1.29.07,2,.1,2.23.1.42,0,.68,0,.75-.14a1.87,1.87,0,0,0,.12-.89Z"/><path class="cls-2" d="M578.07,369.49h-5.3v-7.37h6.11V361h-7.66v-1.67h7.66v-1.59H581v1.59h7.66V361H581v1.1h6.11v7.37h-5.29a26.44,26.44,0,0,0,7.17,3.88l-.85,1.74a27.21,27.21,0,0,1-7.14-4.17v4.46h-2.13v-4.46a27,27,0,0,1-7.13,4.17l-.86-1.74A26.52,26.52,0,0,0,578.07,369.49Zm.81-5.82h-4.13V365h4.13Zm-4.13,2.81v1.46h4.13v-1.46Zm6.26-2.81V365h4.13v-1.36Zm0,4.27h4.13v-1.46H581Z"/><path class="cls-2" d="M596.57,370.13a18.9,18.9,0,0,1-4.83,4.63l-1.22-1.43a18.31,18.31,0,0,0,4.57-4.32Zm11.49-10.78v1.71H590.61v-1.71h7.66v-1.59h2.14v1.59Zm-10.18,15.86c-.45,0-1.37,0-2.77-.1l-.08-1.8q1.82.12,2.52.12c.46,0,.72-.05.8-.14a1.87,1.87,0,0,0,.12-.89v-3.78h-5.92v-6.4h13.58v6.4H600.6v3.78a3.79,3.79,0,0,1-.45,2.36A3.57,3.57,0,0,1,597.88,375.21ZM594.65,367H604v-3.26h-9.38Zm7.29,3.35,1.3-1.39a34.92,34.92,0,0,1,4.94,4.55l-1.36,1.34A36.26,36.26,0,0,0,601.94,370.38Z"/><path class="cls-2" d="M572.46,402.83h1.67v1.84a22.42,22.42,0,0,1-1.21,3.44c.6.86,1.21,1.82,1.82,2.89v-8.85H578v-2.23h1.51v2.23h3.29v11.77h-1.5v-1.16h-1.79v4.61H578v-4.61H576.2v1.16h-1.46v-2.4l-.86,1c-.5-.89-1-1.69-1.42-2.39v7.23H571v-6.26a11.51,11.51,0,0,1-1.54,1.67l-.5-2.08a12.72,12.72,0,0,0,3.67-6H569.3v-1.84H571v-2.91h1.5ZM578,403.9H576.2v2.66H578Zm-1.83,4.36v2.81H578v-2.81Zm3.34-4.36v2.66h1.79V403.9Zm0,7.17h1.79v-2.81h-1.79Z"/><path class="cls-2" d="M583.82,409.33,583,407.7a13.31,13.31,0,0,0,3.73-3.43,10.27,10.27,0,0,0,.77-1.24h-4v-1.75h4.73a13.44,13.44,0,0,0,.48-1.63l1.57.25c-.1.44-.23.9-.38,1.38h6V403H592a11.52,11.52,0,0,0,4.46,4.65l-.84,1.65a12.46,12.46,0,0,1-2.8-2.41v.95h-6.1v-1A14.89,14.89,0,0,1,583.82,409.33Zm-.57,6.16a15.61,15.61,0,0,0,3-3.89l1.08,1a16.5,16.5,0,0,1-3.15,4.21Zm12.4-5.91v1.75h-4.94v3.35c0,.31,0,.63,0,1a4,4,0,0,1-.09.68,1.33,1.33,0,0,1-.2.46.87.87,0,0,1-.36.24,2.71,2.71,0,0,1-.54.11,6.74,6.74,0,0,1-.79,0c-.31,0-1,0-2-.1l-.06-1.74c.9.06,1.48.1,1.73.1a1.24,1.24,0,0,0,.61-.08c.06-.05.09-.27.09-.64v-3.39h-5.38v-1.75ZM589.23,403a15.92,15.92,0,0,1-1.31,2.28c-.27.39-.48.68-.63.86h4.87A15.16,15.16,0,0,1,590.3,403Zm2.64,9.73,1-1.28a41.23,41.23,0,0,1,3.29,4.23l-1,1.26A41.67,41.67,0,0,0,591.87,412.76Z"/><path class="cls-2" d="M598.39,400.5h1.51V408a24.43,24.43,0,0,1-.48,5.33,11.23,11.23,0,0,1-1.6,3.8l-1.24-1.1a11.13,11.13,0,0,0,1.42-3.51,27.05,27.05,0,0,0,.39-5.24Zm4.54,14.74V401h1.52v14.25Zm4.79,1.65V400.5h1.58v16.39Z"/><path class="cls-2" d="M647.77,360.08a70,70,0,0,0,7.68-.43,43.93,43.93,0,0,0,6.55-1.12l.43,1.84a41.43,41.43,0,0,1-6.42,1.14v4.81h7.66v1.9H656V376h-2.13v-7.76h-7.66v-1.9h7.66v-4.61c-2,.14-4,.21-6.11.21Z"/><path class="cls-2" d="M683,359.54v1.7h-4.17V362h1.59v1H683v1.66h-2.58V367h-8v-2.33h-2.32v2.95H681.8v1.59h-6.4V370h7.37v1.65h-6a29.38,29.38,0,0,0,6.59,2.52l-.7,1.65a28.36,28.36,0,0,1-7.29-3.32v3.41h-2.13v-3.41a28.68,28.68,0,0,1-7.29,3.32l-.7-1.65a29.77,29.77,0,0,0,6.59-2.52h-6V370h7.37v-.74H668v-4.54H665.7V363H668v-1h1.84v-.78H665.7v-1.7h4.17V358.3h2v1.24h4.85V358.3h2v1.24ZM672.43,363v-1h2v1h3.94v-.78h-1.61v-1h-4.85v1h-1.8V363Zm2,1.66v.92h3.94v-.92Z"/><path class="cls-2" d="M516.35,197.25h-3.68v1.22h3.49v1.68h-3.39c.85.74,1.75,1.58,2.69,2.53L514.34,204c-.65-.75-1.21-1.35-1.67-1.79v4.54h-2v-4.42a15.19,15.19,0,0,1-2.56,3.14l-1.14-1.51a12.82,12.82,0,0,0,3.16-3.77h-2.75v-1.68h3.29v-1.22h-3.29v-1.63h2c-.29-1.13-.59-2.13-.89-3h-1.05v-1.68h3.2V189h2v1.94h3.74v1.68h-1.06a16.56,16.56,0,0,1-1,3h2Zm-5.14-1.63h1.23a17.84,17.84,0,0,0,1.06-3h-3.14C510.7,193.64,511,194.65,511.21,195.62Zm4.77,10.9-1.49-1.34a13.43,13.43,0,0,0,1.65-3.16,17.33,17.33,0,0,0,.85-4.27c.18-1.85.28-4.22.28-7.12a27.4,27.4,0,0,0,7-1.33l.51,1.82a27.22,27.22,0,0,1-5.59,1.18c0,1.26,0,2.19-.07,2.79h6v1.85h-1.8v9.6h-2v-9.6H519q-.07.93-.12,1.35a22,22,0,0,1-1,4.81A12.68,12.68,0,0,1,516,206.52Z"/><path class="cls-2" d="M529.77,198.06a41.94,41.94,0,0,0-3.53-3l1.19-1.39a37.64,37.64,0,0,1,3.54,2.91Zm10.92,5.68c-.21-.94-.5-2-.87-3.16l1.31-.31H534c-.52.52-.91.89-1.18,1.13l1.49.29a35.73,35.73,0,0,1-1.16,4.61l-1.73-.54c.48-1.54.85-2.92,1.1-4.13l-.31.24c-.15.12-.27.22-.36.28l-.82-1.1a22.92,22.92,0,0,1-2.67,5.49l-1.67-1.11a26,26,0,0,0,2.85-5.84l1.72.7a16.58,16.58,0,0,0,1.89-1.69,11,11,0,0,0,.87-1h-1.92v-7.22A22.27,22.27,0,0,0,537,189.1l.62,1.75a19.69,19.69,0,0,1-3.52.93v1.32H537v1.55H534.1V196h7.27v-1.39h-3V193.1h3v-1.42h-3.24V190h5.31v7.61h-7.27c-.17.27-.43.64-.79,1.12h9c0,1.71,0,3.08-.11,4.11a8.93,8.93,0,0,1-.47,2.37,2,2,0,0,1-.73,1.08,2.33,2.33,0,0,1-1.21.27c-.89,0-1.88,0-3-.07l-.1-1.75c.84.05,1.6.08,2.29.08a.87.87,0,0,0,.73-.27,2.59,2.59,0,0,0,.37-1.15Zm-13.44-12.91,1.2-1.4a33.76,33.76,0,0,1,3.2,2.62l-1.2,1.45A41.07,41.07,0,0,0,527.25,190.83Zm8,14.77c-.13-1.38-.29-2.75-.49-4.11l1.59-.27c.25,1.35.43,2.72.55,4.13Zm2.77-.85c-.15-1-.38-2.18-.68-3.61l1.54-.35c.31,1.34.55,2.54.73,3.61Zm3.3-4.48c.37,1.2.65,2.2.83,3a28.08,28.08,0,0,0,.18-3Z"/><path class="cls-2" d="M464,191.82H451.27v2.52h-2v-4.11h7.27v-1.65h2.13v1.65H466v4.11h-2Zm-11.83,14v.77H450.1v-7.46h15v7.46h-2v-.77Zm1.36-7.31h-2.1v-3.8h12.41v3.8ZM452,194.07v-1.52h11.25v1.52Zm.16,7.69h4.5V200.7h-4.5Zm0,1.46v1.12h4.5v-1.12Zm1.36-6h8.22v-1h-8.22Zm5.08,4.55h4.5V200.7h-4.5Zm0,1.46v1.12h4.5v-1.12Z"/><path class="cls-2" d="M469,193.82h2v9.4H476V189.35h2.14v13.87H483v-9.4h2v12.6h-2v-1.36H471v1.36h-2Z"/><path class="cls-2" d="M641.94,85.92V85h-8.38v1h-2V80.86A18,18,0,0,1,628.23,83l-.72-1.76a15.94,15.94,0,0,0,4.07-2.74,11.91,11.91,0,0,0,1.71-2.07H628V74.63h17.26v1.75h-9.62a12.37,12.37,0,0,1-1.16,1.82H644v7.72Zm2.48-12.64H628.91V69.44h2v2.13h4.68v-3h2.09v3h4.67V69.44h2Zm-10.86,10h8.38V79.91h-8.38Z"/><path class="cls-2" d="M647.23,78.74h8.09V76.13H648.2V74.38h7.12V72q-3,.23-6.34.23l-.1-1.78a72.61,72.61,0,0,0,7.68-.43,43.82,43.82,0,0,0,6.55-1.13l.43,1.79a43.42,43.42,0,0,1-6.09,1.1v2.64h6.46v1.75h-6.46v2.61h7.43v1.79h-7.43v2.58c0,.55,0,.92,0,1.1a3.48,3.48,0,0,1-.14.74,1.42,1.42,0,0,1-.27.5,1,1,0,0,1-.46.29,3.2,3.2,0,0,1-.7.14c-.34,0-.67,0-1,0-.63,0-1.77,0-3.41-.1L651.36,84c1.49.06,2.48.09,3,.09a1.33,1.33,0,0,0,.81-.15c.11-.1.16-.39.16-.87V80.53h-8.09Z"/><path class="cls-2" d="M457,275.27h1.59v12.91a17,17,0,0,0,4.6-2.11A16.34,16.34,0,0,1,460,282l1.8-.78a12.82,12.82,0,0,0,2.93,3.71,11.73,11.73,0,0,0,3-4.15H459.4v-1.69h4.07v-2.58H459.1v-1.74h4.37v-2.17h2.13v2.17h4.62v1.74H465.6v2.58h4.17v1.69a14.61,14.61,0,0,1-3.59,5.31,17.14,17.14,0,0,0,4.23,2.21l-.64,1.75a18,18,0,0,1-5.1-2.72A21.41,21.41,0,0,1,459.1,290l-.56-1.36H454.2v1.16h-1.82V275.27H454V286.9h.67v-14h1.69v14h.7Z"/><path class="cls-2" d="M468.8,304.88h-6.59v1.45H470V308h-7.75v2.72h-2.14V308h-7.75v-1.65h7.75v-1.45h-6.2v-10.8H459c.13-.39.28-1,.45-1.73l2.13.14c-.12.54-.25,1.07-.41,1.59H468v4.79H455.94v1.3H468.8Zm-12.86-7.5h10v-1.67h-10Zm0,4.34v1.67h10.79v-1.67Z"/><path class="cls-2" d="M513.35,414.51h3.24v1.55H508v-1.55h3.33v-.86h-2.75v-1.51h2.75v-.87h-3.14v-1.61h3.14v-1.2h2v1.2h3.16v1.61h-3.16v.87h2.72v.68a20.35,20.35,0,0,0,1.53-1.88,16.4,16.4,0,0,0,1.53-2.71l1.8.25c-.18.49-.33.86-.44,1.1h3.86v1.63a15.29,15.29,0,0,1-1.34,1.51h2.5v3.53h.77V418h-.77v4h-1.88v-.5H522v1.61c0,.54,0,.9,0,1.08a5.25,5.25,0,0,1-.1.76,1.75,1.75,0,0,1-.21.5.87.87,0,0,1-.37.3,2.63,2.63,0,0,1-.58.13,6.91,6.91,0,0,1-.8,0c-.41,0-1.19,0-2.32-.1l-.1-1.78c.84.06,1.41.1,1.71.1s.58-.06.66-.16a2,2,0,0,0,.11-.87v-1.61h-3.06V419.9H520V418h-3.45v-1.71H520v-1.94h-2.19v-.69a11.08,11.08,0,0,1-1,.95l-1-.92h-2.54Zm.83,11.36q-.52,0-1.86-.12l0-1.72,1.4.1c.3,0,.47,0,.5-.08a.85.85,0,0,0,.08-.47V423h-3.72v2.91H508.6v-9.15h7.56v6.82c0,.47,0,.78,0,.93a4.25,4.25,0,0,1-.09.62,1,1,0,0,1-.2.39.94.94,0,0,1-.39.23,2.16,2.16,0,0,1-.52.1C514.82,425.86,514.57,425.87,514.18,425.87Zm-3.64-6.65h3.72v-.87h-3.72Zm0,1.45v.88h3.72v-.88Zm9.93-7.95c.19-.16.47-.44.85-.81l.23-.22.26-.26.21-.22h-2.41c0,.07-.09.16-.17.28l-.18.26c-.15.24-.38.56-.69,1Zm3.16,1.59H522v1.94h1.61ZM522,419.9h1.61V418H522Z"/><path class="cls-2" d="M542.44,423V410.78H530.22v15.09h-2V409h16.29V423c0,.54,0,.91,0,1.09a3.5,3.5,0,0,1-.13.77,1.18,1.18,0,0,1-.25.51,1.45,1.45,0,0,1-.47.27,3.75,3.75,0,0,1-.7.14h-1c-.79,0-1.86,0-3.22-.07l-.07-1.81c1.65.07,2.58.1,2.79.1a.76.76,0,0,0,1-1Zm-.78-6.45h-4.32v4.07H539v-3.11h1.94v5.76H539v-1h-5.24v1.94h-1.94v-6.73h1.94v3.11h1.61v-4.07H531v-1.69h2.61c-.33-1-.72-2.09-1.16-3.16l1.78-.49a37,37,0,0,1,1.32,3.65H537a20.89,20.89,0,0,0,1.57-3.72l1.78.52a18.68,18.68,0,0,1-1.32,3.2h2.68Z"/><path class="cls-2" d="M448.91,409.58q4.17,0,8.28-.27a66,66,0,0,0,6.59-.7l.33,1.63c-.64.11-1.53.23-2.65.37l1.16.41a15.26,15.26,0,0,1-.72,1.61h2.85v3.88h-1.18c.32.45.67,1,1,1.55l-1.44,1a26.37,26.37,0,0,0-2.07-2.94c0,.35,0,.61-.06.79a4.52,4.52,0,0,1-.19.66,1.38,1.38,0,0,1-.24.47,1.15,1.15,0,0,1-.44.23,3,3,0,0,1-.64.12c-.23,0-.54,0-.91.05q-.9.06-2.19.06h-1.07a9.62,9.62,0,0,1-.74.68h7.47v1.55a12,12,0,0,1-3.3,2.39,33.3,33.3,0,0,0,6.19,1.12L464.5,426a33.14,33.14,0,0,1-7-1.47l-1-.35a35.36,35.36,0,0,1-8.12,1.82l-.47-1.73a37.21,37.21,0,0,0,6.23-1.1,16.22,16.22,0,0,1-2.19-1.26l.93-1.15h-.39a20.49,20.49,0,0,1-3.84,1.84l-.91-1.53a19.46,19.46,0,0,0,5.33-2.71,1,1,0,0,1-.4-.24.79.79,0,0,1-.28-.5q0-.39,0-.93v-1.82h1.93v1.24a1.85,1.85,0,0,0,.08.74c.07.09.26.14.58.15.49,0,1,0,1.44,0s.89,0,1.43,0a2.24,2.24,0,0,0,1.17-.25,2.12,2.12,0,0,0,.29-1.15l1.7.35s-.1-.12-.18-.22-.15-.17-.18-.22l1.39-1c.22.25.49.58.82,1v-1.28h-6.34a23.88,23.88,0,0,1,2.11,1.12l-.93,1.38a29.43,29.43,0,0,0-3-1.53l.6-1h-5.17v1.67c.25-.38.45-.7.6-1l1.39.93a10.3,10.3,0,0,1-2.69,3.33l-.31-.29a1.62,1.62,0,0,1-.2-.18l-.22-.24-.2-.2-.31-.29a12.87,12.87,0,0,0,1.43-1.43h-1.47v-3.88h3.31c-.22-.46-.47-.93-.75-1.42H449Zm7,3.05c-.26-.53-.52-1-.79-1.53-.54,0-1.33,0-2.37.07.08.16.33.64.74,1.46Zm.62,9.67a15.63,15.63,0,0,0,3-1.59h-6A17.71,17.71,0,0,0,456.49,422.3Zm3.32-9.67c.34-.65.64-1.3.91-1.94-1.42.14-2.62.24-3.61.31.33.62.59,1.16.8,1.63Z"/><path class="cls-2" d="M467.12,417.34v-1.81h4v-3.68h-1.22a22.44,22.44,0,0,1-1.32,3.24l-1.66-.66a25.3,25.3,0,0,0,2-6.28l1.78.27c-.1.58-.21,1.14-.34,1.69h5.29v1.74h-2.52v3.68H476v1.81h-2.89c-.05.37-.09.68-.13.91,1.1,1.63,2.19,3.37,3.29,5.24l-1.63,1.1q-1.07-1.86-2.38-4c-.21.52-.34.84-.41,1a10.32,10.32,0,0,1-3.51,4.22l-1.22-1.61a9.48,9.48,0,0,0,3-3.58,10.68,10.68,0,0,0,1-3.26Zm17.18-7.62v16h-2v-1.17h-3.82v1.17h-1.94v-16Zm-5.82,13h3.82V411.52h-3.82Z"/><path class="cls-2" d="M415.63,299.63q-1.45-1.45-3.28-2.95l1.19-1.36c1,.79,2,1.67,3,2.62l.87-1.16c.09.1.22.26.38.48l.36.51c.47-1,.91-2.15,1.34-3.34H417v-.69l-1.11,1.14c-.9-.89-1.89-1.78-2.95-2.66l1.25-1.26a33.38,33.38,0,0,1,2.81,2.47v-.7h3.29c-.32-.77-.6-1.38-.83-1.84l2-.43c.38.76.73,1.52,1,2.27H425c.33-.71.65-1.47.95-2.27l1.95.37a20,20,0,0,1-.77,1.9h3.35v1.7h-3.06q-.92,2.55-2,4.81l1.07,1.51c.62-1.31,1.31-2.95,2.07-4.9l1.59.74c-.71,1.78-1.44,3.48-2.21,5.09l1.44-.3q.75,3.27,1.32,6.55l-1.65.33c0-.16-.07-.39-.13-.69s-.1-.53-.12-.69l-4.21.51c0,.06,0,.15.05.28a1.7,1.7,0,0,0,0,.26l-1.61.33c-.11-.65-.19-1.13-.26-1.45l-6.41.75-.12-1.69,1.72-.17c.59-1.09,1.1-2.08,1.54-3-.78-1.07-1.81-2.42-3.11-4Zm1.59,2.25a24.86,24.86,0,0,1-2.73,6.17l-1.65-1a27.26,27.26,0,0,0,2.64-5.84Zm7-4.3q.74-1.69,1.26-3.15h-4.09q-.87,2.44-2.06,5c.57.78.93,1.28,1.07,1.49q1.14-2.48,2.15-5.06l1.59.74-.23.58.14.19A1.91,1.91,0,0,1,424.24,297.58Zm-1.69,7.69c-.15-.82-.39-1.94-.71-3.35-.59,1.21-1.19,2.41-1.83,3.59Zm3.11-2.73q-1.57-2.27-2.51-3.51c-.33.79-.73,1.67-1.2,2.65l1.44-.3c.23,1,.51,2.32.85,4C424.67,304.52,425.14,303.59,425.66,302.54Zm2.87,2.79c-.22-1.16-.46-2.28-.7-3.35-.53,1.12-1.15,2.32-1.84,3.6Z"/><path class="cls-2" d="M421.49,310.84c0,.32,0,.72,0,1.2l0,.74a11.6,11.6,0,0,1-.12,1.32,6.5,6.5,0,0,1-.23.85,1,1,0,0,1-.33.43,1.41,1.41,0,0,1-.48.21c-.21,0-.44,0-.68,0-.4,0-1.21,0-2.41-.1l-.09-1.59c.6.05,1.13.08,1.59.08s.56-.07.62-.2a6.74,6.74,0,0,0,.15-1.39h-1.92a7,7,0,0,1-.68,1.65,7.25,7.25,0,0,1-2,2.07H428.7v8h-3.28a35.61,35.61,0,0,1,4.87,1.86l-.91,1.57a44.15,44.15,0,0,0-6.19-2.4l.45-1h-4.23l.47.87a16.74,16.74,0,0,1-2.78,1.32,23.6,23.6,0,0,1-3.6,1.11l-.72-1.63a30.47,30.47,0,0,0,5.12-1.67h-3.55v-7.58l-.87.52-1-1.66a6.81,6.81,0,0,0,2.68-2.25,5.27,5.27,0,0,0,.33-.7h-2.31v-1.59h2.66c0-.35.05-.73.05-1.13h2a10.28,10.28,0,0,1-.06,1.13Zm-5,7.56h10.09v-.74H416.48Zm0,1.3v.77h10.09v-.77Zm0,2.07v.78h10.09v-.78Zm7.76-6.39h-2v-4.89h7.51v4.89Zm0-1.5h3.49v-1.74h-3.49Z"/><path class="cls-2" d="M413.19,394.67v-1.84h16.67v1.84Zm1.26-12.89v-1.84H428.6v1.84Zm1.16,6V386h11.83v1.78Z"/><path class="cls-2" d="M413.34,404.08h7.12v-.91q-3.31.13-6.11.13v-1.65a90.52,90.52,0,0,0,14.33-1l.23,1.69c-2,.3-4.06.52-6.32.68v1h7.12v1.61h-7.12v.81h6v6h-6v.82h6.53v1.61h-6.53v1h7.62v1.68H412.84v-1.68h7.62v-1h-6.54v-1.61h6.54v-.82h-6v-6h6v-.81h-7.12Zm3.14,4.79h4V408h-4Zm0,1.28V411h4v-.85Zm6.11-1.28h4V408h-4Zm0,2.13h4v-.85h-4Z"/><path class="cls-2" d="M412,168.42a15.5,15.5,0,0,0,4.46-4.32,16,16,0,0,0,2.14-4.91h-5.88v-1.78H429.6v1.78h-8.86A19.72,19.72,0,0,1,418.9,164h9.83v9.7h-2.1v-1h-7.95v1h-2.07V167a16.94,16.94,0,0,1-3.55,3.16Zm6.67,2.56h7.95V165.8h-7.95Z"/><path class="cls-2" d="M414.53,177.19h2v7.46a18.43,18.43,0,0,1-.64,5.33,10.27,10.27,0,0,1-2.13,3.81l-1.65-1.11a9.69,9.69,0,0,0,1.88-3.51,20.32,20.32,0,0,0,.52-5.24Zm6.05,14.73V177.67h2v14.25Zm6.4,1.65V177.19h2.1v16.38Z"/><path class="cls-2" d="M391,263.57H393v1.85a13.52,13.52,0,0,1-1.47,3.6c.7.76,1.35,1.55,2,2.35v-1.94h11V278h-2v-.78H395.5V278h-2v-5.84l-1,.89c-.62-.82-1.14-1.48-1.55-2v7H388.9v-6.07a13.55,13.55,0,0,1-1.86,1.47l-.66-2.07a11.28,11.28,0,0,0,4.64-6h-4.13v-1.85h2v-2.9H391Zm2.46-.73v-1.69h11.25v1.69Zm2.78,5.68h-2.06v-4.75h9.7v4.75Zm-.7,4.13H398V271.1H395.5Zm0,1.43v1.61H398v-1.61Zm.7-7h5.56v-1.74H396.2Zm3.72,5.59h2.52V271.1h-2.52Zm0,1.43v1.61h2.52v-1.61Z"/><path class="cls-2" d="M411,260.7h2.1V264h5.11v-3.3h2.1V264h3.59v1.8h-3.59v4.95H424v1.78h-3.72V278h-2.1v-5.43h-5.56s0,.09,0,.14a.69.69,0,0,0,0,.13,7.65,7.65,0,0,1-.77,2.14,9.43,9.43,0,0,1-1.21,1.63,14.59,14.59,0,0,1-1.78,1.57l-1.42-1.48c.48-.37.91-.74,1.3-1.1a7.09,7.09,0,0,0,.95-1.13,5.26,5.26,0,0,0,.68-1.3q.06-.17.18-.6h-4v-1.78h4.33c.07-.61.12-1.11.13-1.5s0-1.5,0-2.92v-.53h-4.36V264H411Zm1.9,10.05h5.31V265.8h-5.11v.53c0,1.5,0,2.75-.12,3.76,0,.08,0,.19-.05.34A2.67,2.67,0,0,0,412.87,270.75Z"/><path class="cls-2" d="M351.06,312a18.9,18.9,0,0,1-4.83,4.63L345,315.19a18.17,18.17,0,0,0,4.57-4.33Zm11.49-10.78v1.7H345.1v-1.7h7.66v-1.6h2.13v1.6Zm-10.18,15.86c-.45,0-1.37,0-2.77-.1l-.08-1.8c1.21.07,2.05.11,2.52.11s.72,0,.8-.13a1.9,1.9,0,0,0,.12-.89v-3.79H347v-6.39h13.57v6.39h-5.52v3.79a3.81,3.81,0,0,1-.45,2.36A3.59,3.59,0,0,1,352.37,317.07Zm-3.23-8.19h9.38v-3.25h-9.38Zm7.29,3.36,1.3-1.4a35.61,35.61,0,0,1,4.94,4.56l-1.36,1.34A36.26,36.26,0,0,0,356.43,312.24Z"/><path class="cls-2" d="M380,307.06a6.49,6.49,0,0,1,1.71,2.21,6.16,6.16,0,0,1,.62,2.66,3.45,3.45,0,0,1-.74,2.46,3.08,3.08,0,0,1-2.3.74h-1.22l-.33-1.79h.52A3,3,0,0,0,380,313a1.35,1.35,0,0,0,.4-1.16q0-2.33-2.55-4.71a29.45,29.45,0,0,0,2.36-5.22h-2.91v15.22h-2V301.71a26.41,26.41,0,0,1-2.14,3.18h1.61v1.71h-3.12l-.62.62c-.47.43-.82.76-1.05,1h4.15v9h-2v-.77h-4.22v.77h-2v-6.09l-1.36.72-.56-1.88a23,23,0,0,0,4.95-3.31h-4.62v-1.71h3.68v-2h-2.77v-1.66h2.77v-1.69h2v1.69h2.56v1.29a19.47,19.47,0,0,0,1.38-2.27l1.34.59v-.53h7v1.65A28.43,28.43,0,0,1,380,307.06Zm-12.15,4.42h4.22v-1.59h-4.22Zm0,1.61v1.65h4.22v-1.65Zm4.4-10.22H370v2h.64A21,21,0,0,0,372.29,302.87Z"/><path class="cls-2" d="M345.4,370.91a13.91,13.91,0,0,0,5.65-4.67,11.42,11.42,0,0,0,1.88-5.18h-7.2v-1.84H353v-3.88h2.13v3.88h7.27v1.84h-7.19a11.19,11.19,0,0,0,1.88,5.18,13.81,13.81,0,0,0,5.64,4.67l-1.11,1.59a14.43,14.43,0,0,1-6.08-5.29,15.63,15.63,0,0,1-1.4-2.68,15,15,0,0,1-1.44,2.68,14.65,14.65,0,0,1-6.2,5.29Z"/><path class="cls-2" d="M349.81,384.33a4.14,4.14,0,0,0-.35-1.73,10.33,10.33,0,0,0-1.38-2,22.66,22.66,0,0,0,2.21-4.79h-2.42v15.26h-1.94V374.24h6.2v1.61a25.08,25.08,0,0,1-2.05,4.7,8.16,8.16,0,0,1,1.2,2.07,6.18,6.18,0,0,1,.37,2.15,2.87,2.87,0,0,1-.66,2.1,2.82,2.82,0,0,1-2.06.66h-.39l-.32-1.65h.38a1.18,1.18,0,0,0,.95-.31A2.09,2.09,0,0,0,349.81,384.33Zm13-10v1.75h-8.28v2.52h7.81v1.7a16.52,16.52,0,0,1-2.91,6.34,12.25,12.25,0,0,0,3.82,2.68l-1,1.69a13,13,0,0,1-4.19-2.89,14.72,14.72,0,0,1-4.65,2.89l-.79-1.61a9.83,9.83,0,0,1-1,1.51l-1.38-1.74a11.09,11.09,0,0,0,1.67-3.79,23.09,23.09,0,0,0,.54-5.46v-5.59Zm-6,12.3a16.42,16.42,0,0,1-2.32-4.62,18.8,18.8,0,0,1-.74,4.69,17.18,17.18,0,0,1-1,2.52A12.21,12.21,0,0,0,356.86,386.64Zm1.32-1.56a15,15,0,0,0,2.12-4.77h-5.74v.9l1.61-.6A16.06,16.06,0,0,0,358.18,385.08Z"/><path class="cls-2" d="M380.81,381.37l-1.13-1.63a16.75,16.75,0,0,0,5-3.43,9.64,9.64,0,0,0,1-1.24H380.4v-1.75h6.3a10,10,0,0,0,.64-1.63l2.1.25a11.79,11.79,0,0,1-.51,1.38h7.95v1.75h-5.23a14,14,0,0,0,6,4.65l-1.13,1.65a15.93,15.93,0,0,1-3.72-2.41v1h-8.14v-1A18.84,18.84,0,0,1,380.81,381.37Zm-.76,6.16a17.24,17.24,0,0,0,4-3.89l1.44,1a17.8,17.8,0,0,1-4.19,4.21Zm16.54-5.91v1.74H390v3.36c0,.31,0,.63,0,1a3.54,3.54,0,0,1-.12.68,1.39,1.39,0,0,1-.27.46,1.18,1.18,0,0,1-.48.24,4.56,4.56,0,0,1-.72.11c-.34,0-.69,0-1.05,0s-1.29,0-2.62-.1l-.07-1.74c1.2.06,2,.1,2.3.1a2.21,2.21,0,0,0,.82-.08c.08,0,.11-.27.11-.64v-3.4h-7.17v-1.74ZM388,375.07a15.42,15.42,0,0,1-1.75,2.28c-.36.39-.64.68-.83.86h6.5a14.42,14.42,0,0,1-2.49-3.14Zm3.53,9.73,1.32-1.28a46.18,46.18,0,0,1,4.38,4.23L395.89,389A45.37,45.37,0,0,0,391.55,384.8Z"/><path class="cls-2" d="M392.93,405.41a19.16,19.16,0,0,0,4.94,2l-.91,1.63a16.17,16.17,0,0,1-6.46-3.14,12.11,12.11,0,0,1-3.41-4.17H384v5.08c1.84-.23,3.66-.53,5.47-.88l.29,1.71a88.66,88.66,0,0,1-10,1.36l-.17-1.75,2.38-.21V393h5.62V391.3h2.14V393h5.52v8.55c.22-.18.54-.45.95-.81l1.24,1.3A30.22,30.22,0,0,1,392.93,405.41ZM384,396.59h9.12v-1.86H384Zm0,1.55v2h9.12v-2Zm7.35,6.17a32.72,32.72,0,0,0,3.67-2.54h-5.88A10.32,10.32,0,0,0,391.37,404.31Z"/><path class="cls-2" d="M345.61,469.31a18,18,0,0,0,2-3.51,16.29,16.29,0,0,0,.85-2.48h-2.55v-1.75h2.87v-2.93c-.73.11-1.57.19-2.54.25l-.13-1.62a40,40,0,0,0,6.62-1.13l.45,1.59a28,28,0,0,1-2.74.64v3.2h2.81v1.75h-2.39q1.74,3,2.79,4.94l-1.32,1.18c-.47-1-1.1-2.33-1.89-3.89v8H348.8v-6.73a15.84,15.84,0,0,1-2.22,4.17Zm9.91,2.69v1.17H353.8v-16H361v16h-1.73V472Zm3.72-1.74V459h-3.72v11.25Z"/><path class="cls-2" d="M371,455.93l1.64.17c-.1.74-.22,1.43-.37,2.08H377V460a27,27,0,0,1-1.17,5.31l-1.56-.71a22.94,22.94,0,0,0,1.13-4.6h-3.55a1.7,1.7,0,0,0-.09.29,2.83,2.83,0,0,0-.08.29,23.93,23.93,0,0,1-1.48,3.86l-1.32-1.05a2.79,2.79,0,0,1-.18.49.91.91,0,0,1-.34.27,1.57,1.57,0,0,1-.46.12c-.23,0-.45,0-.69,0s-.73,0-1.33,0l-.05-1.07h-3.5V459h4.38v3.63c.28,0,.45-.05.5-.14a2.47,2.47,0,0,0,.08-.89v-3.24h-5.63v-1.65h8.44v1.65H369v3.2c0,.52,0,.87,0,1.05a4.21,4.21,0,0,1,0,.44A25.3,25.3,0,0,0,371,455.93Zm6.24,15.36-.53,2a7.11,7.11,0,0,1-2.25-2.23,12.39,12.39,0,0,1-1.51-3,10.48,10.48,0,0,1-.55,1.37,8.12,8.12,0,0,1-3,3.86l-.42-1.41a3.9,3.9,0,0,1-.08.52,1.58,1.58,0,0,1-.18.47.81.81,0,0,1-.35.27,1.2,1.2,0,0,1-.49.15,5.6,5.6,0,0,1-.7,0c-.33,0-.9,0-1.7-.06l-.08-1.72h.53l.47,0h.25c.31,0,.5-.05.56-.14a2.15,2.15,0,0,0,.1-.89v-4.21h-5.63v-1.65h8.44v1.65H369v4.83q3-2.13,3-7.74v-2.32h1.72v2.32a11.41,11.41,0,0,0,.93,4.75A7.11,7.11,0,0,0,377.23,471.29Zm-13.42-.18v1.16h-1.5V467h4.38v4.15Zm0-9.31h1.38v-1.39h-1.38Zm0,7.95h1.38v-1.39h-1.38Z"/><path class="cls-2" d="M378,460.7h1.75v9.4H384V456.24h1.84V470.1h4.25v-9.4h1.75v12.6h-1.75v-1.36H379.78v1.36H378Z"/><path class="cls-2" d="M312.64,305.52h-6.27v-1.81h2.81v-9.6a61.15,61.15,0,0,0,6.91-.38,32.61,32.61,0,0,0,5.33-1l.54,1.84a31.05,31.05,0,0,1-5.48.95c-1.31.14-3,.25-5.16.31v1.26h11.79v1.74h-2.89v4.85H324v1.81h-6.13a32.9,32.9,0,0,1,5.7,3.25l-1.14,1.61a35.39,35.39,0,0,0-6-3.53l.81-1.33h-4l.83,1.16a22.62,22.62,0,0,1-2.91,2,27.87,27.87,0,0,1-3.43,1.61l-.95-1.69A24.14,24.14,0,0,0,312.64,305.52Zm5.48-1.81v-4.85h-6.8v4.85Z"/><path class="cls-2" d="M322.91,319.5V326h-5.15v1.13H324v1.68h-6.2v1.94h-2.08V328.8h-6.26v-1.68h6.26V326h-5.14V319.5h5.14v-1h-5.76v-1.61h5.76v-1h-6.34v5.49a18.86,18.86,0,0,1-2,9.15l-1.49-1.69a14,14,0,0,0,1.12-3.68,32.16,32.16,0,0,0,.33-5.2v-5.76h7.18v-1.61h2.13v1.61h7.12v1.69h-6v1h5.81v1.61h-5.81v1ZM315.68,322V321h-3.2V322Zm0,1.35h-3.2v1.17h3.2Zm2.08-1.35H321V321h-3.21Zm0,1.35v1.17H321v-1.17Z"/><path class="cls-2" d="M262.63,276.22a28.31,28.31,0,0,0,1.59-4.1l1.79.55A25.83,25.83,0,0,1,264.4,277Zm2.12-4.41V260.53h4.69c.13-.39.28-1,.45-1.73l2.13.14c-.12.54-.25,1.07-.41,1.59h6.52V267H266.82v.84h13.44v1.61H266.82v.81h12.95v.82a19.86,19.86,0,0,1-.23,3.53,2.92,2.92,0,0,1-.73,1.66,2,2,0,0,1-1.4.43c-.79,0-1.73-.05-2.83-.14l-.12-1.74.62.06c-.31-.83-.68-1.7-1.1-2.62l1.3-.45Zm2.07-8.63h9.23v-1.06h-9.23Zm0,1.36v1.07h9.23v-1.07Zm.93,12c-.14-1.13-.37-2.4-.68-3.82l1.75-.33a31.51,31.51,0,0,1,.72,3.84Zm3.86-.59c-.27-1.15-.59-2.27-.95-3.37l1.67-.43a31.28,31.28,0,0,1,1,3.38Zm4.23-1h.83a.84.84,0,0,0,.62-.19,1.63,1.63,0,0,0,.31-.85,17.68,17.68,0,0,0,.14-2.1h-2.15c.45,1,.84,1.91,1.16,2.81Z"/><path class="cls-2" d="M269.46,290.68q-3.65.65-6.73,1l-.17-1.74,1.31-.16v-11h-1.06V277h9.79v.93h7.66v1.79a23.92,23.92,0,0,1-3,8.82,13.72,13.72,0,0,0,3.67,3.31l-1,1.71a16.66,16.66,0,0,1-3.8-3.41,15.46,15.46,0,0,1-3.65,3.41l-1-1.51v1.86h-2Zm0-11.92h-3.65v2.36h3.65Zm-3.65,6.43h3.65v-2.52h-3.65Zm3.65,3.71v-2.16h-3.65v2.76C267.18,289.29,268.4,289.09,269.46,288.9Zm2.66-8.19,1.88-.42a22.46,22.46,0,0,0,2.05,6.38,22,22,0,0,0,2.17-6.94h-6v-1h-.73v13a13.49,13.49,0,0,0,3.43-3.28l0,0v0A22.88,22.88,0,0,1,272.12,280.71Z"/><path class="cls-2" d="M277.74,333.51V321.33H265.52v15.09h-2V319.59h16.28v13.92c0,.54,0,.91,0,1.09a4.12,4.12,0,0,1-.14.77,1.18,1.18,0,0,1-.25.51,1.45,1.45,0,0,1-.47.27,3,3,0,0,1-.7.13c-.16,0-.49,0-1,0-.79,0-1.87,0-3.22-.07l-.08-1.81c1.65.07,2.58.1,2.79.1.49,0,.79,0,.89-.16A1.49,1.49,0,0,0,277.74,333.51Zm-.78-6.46h-4.32v4.07h1.61V328h1.94v5.76h-1.94v-1H269v1.94h-1.94V328H269v3.1h1.61v-4.07H266.3v-1.68h2.62c-.34-1-.73-2.09-1.17-3.16l1.79-.49c.54,1.32,1,2.54,1.31,3.65h1.4a20.69,20.69,0,0,0,1.57-3.73l1.79.53a20.84,20.84,0,0,1-1.32,3.2H277Z"/><path class="cls-2" d="M263.58,343.73h2v9.4h4.94V339.27h2.14v13.86h4.94v-9.4h2v12.6h-2V355h-12v1.35h-2Z"/><path class="cls-2" d="M223.81,270.73V259.44h4.69c.13-.38.28-1,.45-1.72l2.13.14c-.12.54-.25,1.07-.41,1.58h6.52v6.48H225.9v.84h13.42v1.6H225.9v.82h12.94V270a19.53,19.53,0,0,1-.24,3.53,2.93,2.93,0,0,1-.71,1.67,2.17,2.17,0,0,1-1.44.43c-.78,0-1.71-.05-2.81-.14l-.08-1h-9.13v1h-2v-4.15h2v1.59h2.91v-2.13Zm2.09-8.63h9.19V261H225.9Zm0,1.36v1.06h9.19v-1.06Zm8.22,10.33a15.34,15.34,0,0,0,1.61.08.84.84,0,0,0,.62-.19,1.67,1.67,0,0,0,.31-.86,17.64,17.64,0,0,0,.14-2.09h-7.47v2.13h2.91v-1.59h1.88Z"/><path class="cls-2" d="M228.75,280v1.78h-1.63c.8,1.68,1.61,3.4,2.41,5.16v-9.85H239v9h-4a11.13,11.13,0,0,0,1.11,2.56,20,20,0,0,0,2.54-2.37l1.22,1.23a21.33,21.33,0,0,1-2.71,2.55,9.87,9.87,0,0,0,2.91,2.25L239,293.8a10,10,0,0,1-3.78-3.21A12.94,12.94,0,0,1,233.1,286h-1.57v5.45c1.28-.23,2.45-.49,3.5-.78l.33,1.73a53,53,0,0,1-7.52,1.36l-.17-1.75c.62,0,1.24-.13,1.86-.23v-4.48l-1.42,1c-.41-1.05-.93-2.31-1.55-3.78V294h-1.94v-7.33a17.93,17.93,0,0,1-1.94,3.7l-1.24-1.57a23.67,23.67,0,0,0,3.18-7.06h-2.46V280h2.46v-3.45h1.94V280Zm-2.19,1.8,0,0h0Zm5-1.14H237v-1.88h-5.46Zm0,1.74v2H237v-2Z"/><path class="cls-2" d="M232.24,320.73h6.89v1.79H225.32v4.23a24.55,24.55,0,0,1-.52,5.46,15,15,0,0,1-1.57,4.08l-1.55-1.63a13,13,0,0,0,1.2-3.77,32.59,32.59,0,0,0,.39-5.5v-4.66h6.84v-2.17h2.13Zm1.44,8.26,1.74-.94q2.42,3.93,4.17,7.42l-1.76.93c-.12-.24-.3-.6-.55-1s-.39-.74-.44-.85a95,95,0,0,1-12.16,1.32l-.1-1.8,1.92-.1a105.18,105.18,0,0,0,4-10.7l2.07.46a103.66,103.66,0,0,1-3.72,10.07c2.06-.17,4.44-.45,7.16-.84C235.23,331.58,234.47,330.28,233.68,329Z"/><path class="cls-2" d="M223.81,351.14V339.85h4.69c.13-.38.28-1,.45-1.72l2.13.13c-.12.55-.25,1.08-.41,1.59h6.52v6.48H225.9v.83h13.42v1.61H225.9v.82h12.94v.81a19.53,19.53,0,0,1-.24,3.53,3,3,0,0,1-.71,1.67,2.17,2.17,0,0,1-1.44.43c-.77,0-1.71,0-2.81-.14l-.08-1h-9.13v1h-2v-4.15h2v1.59h2.91v-2.13Zm2.09-8.63h9.19v-1.07H225.9Zm0,1.36v1.06h9.19v-1.06Zm8.22,10.33c.57.05,1.11.08,1.61.08a.82.82,0,0,0,.62-.19,1.67,1.67,0,0,0,.31-.86,17.64,17.64,0,0,0,.14-2.09h-7.46v2.13h2.9v-1.59h1.88Z"/><path class="cls-2" d="M182.46,288.92h2v9.41h4.94V284.46h2.14v13.87h4.94v-9.41h2v12.61h-2v-1.36h-12v1.36h-2Z"/><path class="cls-2" d="M184.85,317.49v1.16h-2.13v-15.9h15.59v15.9h-2.14v-1.16Zm11.32-1.75V304.55H184.85v11.19Z"/><path class="cls-2" d="M188.55,407q4.17,0,8.28-.27,3.93-.25,6.59-.7l.33,1.63c-.65.1-1.53.23-2.66.37l1.17.41a17.63,17.63,0,0,1-.72,1.61h2.85v3.87h-1.18c.32.46.66,1,1,1.56l-1.44,1a26.37,26.37,0,0,0-2.07-2.94c0,.35,0,.61-.06.79a3.72,3.72,0,0,1-.2.66.82.82,0,0,1-.67.7,2.68,2.68,0,0,1-.64.11c-.24,0-.54.05-.92.06q-.88.06-2.19.06H195c-.24.23-.48.46-.74.68h7.47v1.55a12.23,12.23,0,0,1-3.3,2.39,33.34,33.34,0,0,0,6.18,1.12l-.46,1.73a33,33,0,0,1-7-1.48l-1-.35a34.31,34.31,0,0,1-8.12,1.83l-.47-1.73a37.21,37.21,0,0,0,6.23-1.1,17,17,0,0,1-2.2-1.26l.94-1.15h-.39a20.49,20.49,0,0,1-3.84,1.84l-.91-1.53a19.6,19.6,0,0,0,5.33-2.71,1.39,1.39,0,0,1-.41-.23A.91.91,0,0,1,192,415a8.38,8.38,0,0,1,0-.93v-1.82h1.94v1.24a1.88,1.88,0,0,0,.08.74c.06.08.26.14.58.15.49,0,1,0,1.44,0s.89,0,1.43,0a2.19,2.19,0,0,0,1.16-.25,2.09,2.09,0,0,0,.29-1.15l1.71.35-.18-.22-.19-.22,1.4-1c.22.24.49.58.81,1v-1.28h-6.34a23.92,23.92,0,0,1,2.12,1.12l-.93,1.38a30.51,30.51,0,0,0-3-1.53l.6-1h-5.18v1.66a7.87,7.87,0,0,0,.6-1l1.4.94a10.33,10.33,0,0,1-2.7,3.33l-.31-.29-.19-.18c-.06-.08-.14-.15-.22-.24l-.21-.2-.31-.29a12.24,12.24,0,0,0,1.44-1.44h-1.47V410H191c-.22-.46-.47-.93-.76-1.42h-1.6Zm7,3c-.26-.53-.52-1-.79-1.54-.55,0-1.34.06-2.37.08l.74,1.46Zm.62,9.67a15.93,15.93,0,0,0,3-1.59h-6A17.71,17.71,0,0,0,196.13,419.7Zm3.32-9.67c.33-.65.64-1.3.91-1.94-1.42.14-2.63.24-3.61.31.32.62.59,1.16.8,1.63Z"/><path class="cls-2" d="M212.69,415v-1.59h1.88c0-.07,0-.15,0-.26s0-.21,0-.3a2.35,2.35,0,0,0,0-.26h-1.75v-1.51h1.3c-.23-.54-.53-1.19-.91-1.94l1.22-.4-1.66,0-.14-1.71a53.26,53.26,0,0,0,11.07-.95l.37,1.63c-.48.11-1.09.24-1.82.37l1.32.29a25.09,25.09,0,0,1-.88,2.69h1.38v1.51h-7.56a2.35,2.35,0,0,1,0,.26q0,.13,0,.3c0,.11,0,.19,0,.26h7.82V415h-8a6.67,6.67,0,0,1-.16.77h7.41v1.52a11,11,0,0,1-2.77,3.08,19.69,19.69,0,0,0,3.8,1.16l-.68,1.67a22,22,0,0,1-5-1.71,21.42,21.42,0,0,1-4.75,1.71l-.77-1.59a19.32,19.32,0,0,0,3.8-1.18,13.15,13.15,0,0,1-2.08-1.84,14.75,14.75,0,0,1-3.23,4.53l-1.19-1.55.21-.2.23-.23.2-.21c-.39-.59-.68-1-.87-1.28a13.9,13.9,0,0,1-3.37,4.11l-.86-1.7a12.85,12.85,0,0,0,2.95-4c-.19-.22-.5-.53-.91-.95-.08.22-.21.54-.39.95l-1.43-1.41A36.53,36.53,0,0,0,208,410.8h-1.61v-1.74h1.88c.17-1.24.29-2.28.37-3.13l1.88.08c-.12,1.31-.23,2.32-.33,3.05h2.35v.83a22.92,22.92,0,0,1-1.19,7.91c.38.47.79,1,1.22,1.67a11.64,11.64,0,0,0,1.81-4.46Zm-3.78.25c.31.26.65.57,1,.93a21.29,21.29,0,0,0,.77-5.39h-.79A37.7,37.7,0,0,1,208.91,415.26Zm8.82-4.17c-.28-.68-.61-1.39-1-2.13l1.09-.35c-.88.05-1.79.09-2.74.12.4.79.77,1.57,1.09,2.36Zm1.3,8.36a9,9,0,0,0,2.21-2.15H215.7c0,.11-.15.4-.33.85l0,0,1.28-.7A11.26,11.26,0,0,0,219,419.45Zm1.67-8.36a27.53,27.53,0,0,0,1-2.89c-.95.13-2,.25-3.07.35.46,1,.83,1.81,1.13,2.54Z"/><path class="cls-2" d="M260,406.92a99.17,99.17,0,0,0,14.39-.87l.37,1.65q-2.79.42-6.42.66v1.92H276V412h-5.41a25.14,25.14,0,0,0,5.84,3.26l-.6,1.78c-.39-.18-.95-.45-1.67-.81v7.21h-2v-.77h-9.51v.77h-2v-7.21l-1.67.81-.6-1.78a25.35,25.35,0,0,0,5.84-3.26h-5.41v-1.68h7.62v-1.81q-2.72.13-6.21.14Zm6.33,5.14A21.43,21.43,0,0,1,262,415.4h4.37Zm5.76,4.85h-9.51v1.39h9.51Zm-9.51,4.26h9.51v-1.45h-9.51Zm5.76-9.11v3.34h4.37A21.43,21.43,0,0,1,268.37,412.06Z"/><path class="cls-2" d="M280.12,406.63h2v7.47a18.53,18.53,0,0,1-.64,5.33,10.23,10.23,0,0,1-2.13,3.8l-1.65-1.11a9.69,9.69,0,0,0,1.88-3.51,20.24,20.24,0,0,0,.52-5.23Zm6.05,14.74V407.12h2v14.25Zm6.4,1.65V406.63h2.1V423Z"/><path class="cls-2" d="M197.84,451.76h7.56v1.74H188.14v-1.74h7.57v-1.59h2.13Zm7.08,7.68v5.47a4.29,4.29,0,0,1-.39,2.36q-.39.45-2.1.45c-.32,0-1.13,0-2.42-.1l-.06-1.36h-5.74V467h-1.94V462h9v3.93c.22,0,.45,0,.7,0,.45,0,.72,0,.79-.11s.12-.34.12-.8v-3.87H190.66v6.64h-2v-8.33Zm-12-.84h-2.07v-4.26h11.83v4.26Zm0-1.45h7.68v-1.32h-7.68Zm1.28,7.6h5.12v-1.24h-5.12Z"/><path class="cls-2" d="M207.48,459.24v-1.8h4v-3.68h-1.22A22.31,22.31,0,0,1,209,457l-1.67-.66a25.58,25.58,0,0,0,2-6.28l1.78.27c-.1.58-.22,1.15-.35,1.69h5.3v1.75h-2.53v3.68h2.78v1.8h-2.89c-.05.38-.1.68-.14.91q1.65,2.44,3.3,5.24l-1.63,1.1c-.71-1.24-1.51-2.56-2.38-4-.21.52-.35.83-.41,1a10.58,10.58,0,0,1-3.51,4.23l-1.22-1.61a9.47,9.47,0,0,0,3-3.59,10.07,10.07,0,0,0,.95-3.26Zm17.18-7.62v16h-2v-1.16h-3.82v1.16H216.9v-16Zm-5.82,13.05h3.82V453.43h-3.82Z"/><path class="cls-2" d="M272.46,462.89l-1.1,1.34a22.09,22.09,0,0,0-3.14-2.37l.93-1.18h-5.47V457a14.68,14.68,0,0,1-1.51,2.1v7a17.46,17.46,0,0,0,1.66-4.13l1.75.54a16.18,16.18,0,0,1-2.09,5l-1.32-.85V468h-2v-7.18a10.41,10.41,0,0,1-1.55,1.5l-.6-2.12a16.75,16.75,0,0,0,2.54-2.25,17.93,17.93,0,0,0,2-2.75l1.11.68v-1.22h4.94v-1.21h-5.48v-1q-.7.79-1.17,1.23a17.58,17.58,0,0,1-2.85,2.09l-.77-1.71a15.78,15.78,0,0,0,2.38-1.76,13.66,13.66,0,0,0,1.9-2.13l1.57.93c-.2.28-.36.49-.46.62h4.88v-1.5h2.08v1.5h5.58v1.7H270.7v1.21h5v6h-6.28A23.77,23.77,0,0,1,272.46,462.89Zm-6.88-3.76h1.55v-2.95h-1.55Zm7.23,3.39,1.71-.72a38.8,38.8,0,0,1,2.19,5l-1.67.73c-.39-1.08-.8-2.09-1.24-3,0,.11,0,.29,0,.52a2.7,2.7,0,0,1,0,.49c0,.18-.06.46-.13.85a3,3,0,0,1-.2.62,1.06,1.06,0,0,1-.35.43,1.85,1.85,0,0,1-.48.29,3.61,3.61,0,0,1-.74.13c-.44.05-.75.08-.95.08h-1.26c-.75,0-1.24,0-1.47,0a7.4,7.4,0,0,1-1-.13,2.18,2.18,0,0,1-.66-.26,1.13,1.13,0,0,1-.35-.5,2.64,2.64,0,0,1-.17-.76c0-.17,0-.54,0-1.1v-3.3h2v3.06c0,.68.07,1.07.21,1.19a3.61,3.61,0,0,0,1.51.17,3.67,3.67,0,0,0,1.88-.27,3.87,3.87,0,0,0,.37-1.92l1.82.31Q273.3,463.45,272.81,462.52Zm-3.89-3.39h1.55v-2.95h-1.55Zm4.88,0v-2.95h-1.55v2.95Z"/><path class="cls-2" d="M279.77,463V451.68h4.7c.13-.39.27-1,.44-1.73l2.14.14c-.12.54-.26,1.07-.41,1.59h6.51v6.48H281.87V459h13.42v1.61H281.87v.81H294.8v.82a20.79,20.79,0,0,1-.23,3.53,3.07,3.07,0,0,1-.72,1.67,2.12,2.12,0,0,1-1.43.42c-.78,0-1.72,0-2.81-.14l-.08-1h-9.14v1h-2v-4.15h2v1.59h2.91V463Zm2.1-8.62h9.19v-1.07h-9.19Zm0,1.35v1.07h9.19v-1.07ZM290.09,466c.57.05,1.11.08,1.61.08a.85.85,0,0,0,.62-.2,1.72,1.72,0,0,0,.31-.85,20.2,20.2,0,0,0,.14-2.1H285.3v2.14h2.91v-1.59h1.88Z"/><path class="cls-2" d="M85.6,273.79h2.08v1.85a13.54,13.54,0,0,1-1.48,3.6c.7.77,1.35,1.55,2,2.35v-1.94h11v8.59h-2v-.77H90.14v.77h-2V282.4l-1,.9c-.62-.83-1.14-1.49-1.55-2v7h-2v-6.07a13.5,13.5,0,0,1-1.87,1.47L81,281.67a11.28,11.28,0,0,0,4.64-6H81.53v-1.85h2v-2.9h2Zm2.46-.73v-1.69H99.31v1.69Zm2.78,5.68H88.78V274h9.7v4.75Zm-.7,4.13h2.48v-1.55H90.14Zm0,1.44v1.6h2.48v-1.6Zm.7-7H96.4v-1.75H90.84Zm3.72,5.58h2.52v-1.55H94.56Zm0,1.44v1.6h2.52v-1.6Z"/><path class="cls-2" d="M116,285.2V273H103.77V288.1h-2V271.27H118V285.2c0,.54,0,.9,0,1.08a3.71,3.71,0,0,1-.13.78,1.13,1.13,0,0,1-.25.5,1.17,1.17,0,0,1-.47.27,3.09,3.09,0,0,1-.7.14l-1,0c-.79,0-1.86,0-3.22-.08l-.07-1.8,2.79.1a1.52,1.52,0,0,0,.89-.16A1.49,1.49,0,0,0,116,285.2Zm-.78-6.46h-4.32v4.07h1.61v-3.1h1.94v5.76H112.5v-1h-5.24v1.94h-1.94v-6.73h1.94v3.1h1.61v-4.07h-4.32v-1.69h2.61c-.33-1-.72-2.08-1.16-3.16l1.78-.48a36.88,36.88,0,0,1,1.32,3.64h1.4a20.29,20.29,0,0,0,1.57-3.72l1.78.52a18.68,18.68,0,0,1-1.32,3.2h2.68Z"/><path class="cls-2" d="M104.23,345.86a13.74,13.74,0,0,0,5.64-4.67,11.32,11.32,0,0,0,1.89-5.18h-7.2v-1.84h7.27v-3.88H114v3.88h7.27V336H114a11.42,11.42,0,0,0,1.88,5.18,13.83,13.83,0,0,0,5.65,4.67l-1.11,1.59a14.45,14.45,0,0,1-6.09-5.29,15.21,15.21,0,0,1-1.39-2.68,14.91,14.91,0,0,1-1.44,2.68,14.65,14.65,0,0,1-6.2,5.29Z"/><path class="cls-2" d="M124.44,346.15a8.54,8.54,0,0,0,3.6-3.33,11.79,11.79,0,0,0,1.28-4.58h-2.61V337a21.41,21.41,0,0,1-2.21,2.15l-1.44-1.45a21.65,21.65,0,0,0,5.6-7.1l1.87.68a22.85,22.85,0,0,1-3.36,5.2h10.24a22.85,22.85,0,0,1-3.36-5.2l1.87-.68a21.65,21.65,0,0,0,5.6,7.1l-1.43,1.45a21.31,21.31,0,0,1-1.75-1.64v.95c0,1.73,0,2.91,0,3.52a21.82,21.82,0,0,1-.23,2.45,9.43,9.43,0,0,1-.37,1.63,1.91,1.91,0,0,1-.64.89,2.2,2.2,0,0,1-.85.43,7.2,7.2,0,0,1-1.21.09c-.59,0-1.64-.05-3.16-.15l0-1.82c1.28.07,2.25.11,2.92.11a1.08,1.08,0,0,0,.9-.37,4.35,4.35,0,0,0,.46-1.78,35,35,0,0,0,.18-4.13v-1.07h-4.91a13.75,13.75,0,0,1-1.47,5.55,10.59,10.59,0,0,1-4.15,4Z"/><path class="cls-2" d="M76.77,340.67l1.76-.67A28.77,28.77,0,0,1,81,343.35l-1.78.72a2.8,2.8,0,0,0-.19-.28l-.18-.28c-2.66.2-5.11.33-7.33.38l-.1-1.55c.56,0,1,0,1.26,0a30.19,30.19,0,0,0,1.87-2.79l2,.33A27.58,27.58,0,0,1,75,342.23l2.87-.16C77.37,341.45,77,341,76.77,340.67ZM71.7,356.09a25.63,25.63,0,0,0,2.66-3.53l1.57.83a22.5,22.5,0,0,1-2.67,3.71Zm8.23-5.95a2.31,2.31,0,0,1-.29,1.43,1.81,1.81,0,0,1-1.27.31l-2.28,0,0-1.55,1.49,0a.71.71,0,0,0,.39-.06s.06-.16.06-.37v-.34H74.3v2.38h-2v-7.76h7.62Zm-5.63-3.82H78v-.72H74.3Zm0,1.26v.73H78v-.73ZM77.79,357c-.14-1.12-.37-2.4-.68-3.82L79,353a31.32,31.32,0,0,1,.71,3.84Zm4.72,0a36.09,36.09,0,0,0-1.5-3.72l1.77-.49c.6,1.32,1.12,2.59,1.55,3.8Zm2.48-13a4.5,4.5,0,0,0,1.82-.2c.18-.12.32-.57.43-1.33l1.9.27c-.06.39-.09.69-.12.91a3,3,0,0,1-.15.68c0,.05-.08.22-.2.5a.92.92,0,0,1-.35.33,1,1,0,0,1-.46.21l-.74.1c-.47.05-.78.08-.93.08H84.91c-.6,0-1.18,0-1.75,0a9.22,9.22,0,0,1-1.08-.1,1.18,1.18,0,0,1-.64-.21.79.79,0,0,1-.23-.35,2,2,0,0,1-.06-.58v-4.46h2.07v1.53A44.79,44.79,0,0,0,88.57,340l.51,1.59A42.66,42.66,0,0,1,83.22,343v.54c0,.25.08.39.24.43A8.66,8.66,0,0,0,85,344.05Zm0,6.28a4.74,4.74,0,0,0,1.86-.19c.21-.15.35-.63.44-1.46l1.89.27q0,.24-.06.57a3.74,3.74,0,0,0,0,.4,5,5,0,0,1-.18.72,1.87,1.87,0,0,1-.19.54,1,1,0,0,1-.35.35,1.34,1.34,0,0,1-.46.24,7.39,7.39,0,0,1-.74.11,8.49,8.49,0,0,1-1,.06h-1.3c-.88,0-1.46,0-1.75,0a9.22,9.22,0,0,1-1.08-.1,1.18,1.18,0,0,1-.64-.21.79.79,0,0,1-.23-.37,2,2,0,0,1-.06-.56v-4.81h2.07v1.63a43,43,0,0,0,5.35-1.42l.51,1.6a42.66,42.66,0,0,1-5.86,1.43v.76c0,.23.08.36.24.4A10.06,10.06,0,0,0,85,350.33ZM87.51,357c-.73-1.1-1.61-2.31-2.66-3.63l1.59-1q1.4,1.73,2.68,3.69Z"/><path class="cls-2" d="M78.28,363.87h-6.5v-1.79h7.58V359h2.1v3.06H89v1.79h-6.5a31.05,31.05,0,0,0,7.29,8.8l-1.1,1.76a33.94,33.94,0,0,1-4.48-4.75,35.7,35.7,0,0,1-2.79-4.15v6.32h4.15v1.75H81.46v3.26h-2.1V373.6H75.21v-1.75h4.15v-6.32a35.7,35.7,0,0,1-2.79,4.15,33.36,33.36,0,0,1-4.48,4.75L71,372.67A31.05,31.05,0,0,0,78.28,363.87Z"/><path class="cls-2" d="M114,383h7.46v4.65h-2v-2.91h-13v2.91h-2V383h7.46v-1.75H114Zm-6,15.22v1h-2.09v-6.65H111c.14-.35.3-.82.48-1.4h-4.3V385.9h11.44v5.27h-4.93c-.18.58-.34,1.05-.48,1.4h6.67v6.65h-2.09v-1Zm0-1.55h9.78v-2.43H108Zm1.24-7.08h7.29v-2h-7.29Z"/><path class="cls-2" d="M138.2,396.41V391H130v6.79h-4.46v1.16h-1.82V384.39h1.63V396H126V382h1.74V396h.64V384.39H130v4.84h.84l-.64-1.51a5.61,5.61,0,0,0,3.39-2,4.66,4.66,0,0,0,.44-.77h-3.48v-1.75h4a10.61,10.61,0,0,0,.12-1.66h2.05a10.8,10.8,0,0,1-.12,1.66H141v1.75h-4.85a.56.56,0,0,1-.1.21,36.5,36.5,0,0,1,5.22,2.89l-.6,1.2h.79V391H140.2v5.33c0,.38,0,.75,0,1.11a5.4,5.4,0,0,1-.11.75,2.28,2.28,0,0,1-.24.53.79.79,0,0,1-.38.27,2.31,2.31,0,0,1-.62.11,8.25,8.25,0,0,1-.86,0q-.62,0-2.52-.09l-.08-1.69c.93.05,1.66.08,2.18.08.33,0,.53-.05.58-.14A2.34,2.34,0,0,0,138.2,396.41Zm-5.23-4.5H137v4.92H133v1.28h-1.88v-6.2Zm6.77-2.68a31.29,31.29,0,0,0-4.5-2.65s0,0-.05.06a.25.25,0,0,1-.05.07,6.86,6.86,0,0,1-3.65,2.52ZM133,393.46v1.82h2.27v-1.82Z"/><path class="cls-2" d="M77.94,449a18.5,18.5,0,0,1-1.84,8.38l-1.5-1.69a13.26,13.26,0,0,0,1-3.57,35.65,35.65,0,0,0,.31-5.31v-5.76h7.17v-1.61h2.14v1.61h7.13v1.63H87.25v1.41h4.51V449Zm-.45,8.14-.19-1.7,2.13-.27v-5.71h2V451h3.74v1.55H81.43v2.35c1.51-.29,2.78-.55,3.82-.8v1.69A54.75,54.75,0,0,1,77.49,457.16Zm3.1-14.46H77.94v1.41h2.65Zm0,4.85v-2H77.94v2Zm2-4.85v1.41h2.66V442.7Zm2.66,4.85v-2H82.59v2Zm4,7.81c.78,0,1.24-.1,1.4-.29a5.41,5.41,0,0,0,.35-2l1.78.2c0,.2,0,.44,0,.72s0,.44,0,.52a4.73,4.73,0,0,1-.15.91,2.46,2.46,0,0,0-.07.29c0,.1,0,.19,0,.25a.53.53,0,0,1,0,.16,1.58,1.58,0,0,1-.29.42,1,1,0,0,1-.4.32l-.14,0-.22,0-.26.05a4.65,4.65,0,0,1-.82.08h-2.4a7,7,0,0,1-.9-.08,2.31,2.31,0,0,1-.56-.13,1,1,0,0,1-.29-.26,1,1,0,0,1-.13-.35,3.15,3.15,0,0,1,0-.54v-6.17h2v1.87a30.41,30.41,0,0,0,4.17-1.71l.68,1.45a26.62,26.62,0,0,1-4.85,1.85v1.94c0,.24.06.38.16.42A5.85,5.85,0,0,0,89.24,455.36Zm-2-7.81H89.9v-2H87.25Z"/><path class="cls-2" d="M100,450.61l1.94.1a6.22,6.22,0,0,1-1.75,4.17,10,10,0,0,1-4.83,2.36l-.87-1.68a9.29,9.29,0,0,0,4.07-1.79A4.73,4.73,0,0,0,100,450.61Zm-4.27.19V440.3h2v10.5Zm6.24-.81h-2v-9.56H110.8V450Zm0-5.59h6.79v-2.28h-6.79Zm0,1.6v2.32h6.79V446Zm2.53,4.65h2.09v3.82a1.4,1.4,0,0,0,0,.37.76.76,0,0,0,.08.23c0,.05.12.09.31.12l.5.05a8.18,8.18,0,0,0,.85,0,3.76,3.76,0,0,0,.6,0l.2,0h.21a.34.34,0,0,0,.29-.18l.18-.29a1.3,1.3,0,0,0,.11-.52l.06-.72q0-.33.06-1.05l2,.16q0,.87-.06,1.41a7.3,7.3,0,0,1-.16,1.05c-.1.49-.16.76-.17.79a1.48,1.48,0,0,1-.33.53,1.52,1.52,0,0,1-.47.35,3.47,3.47,0,0,1-.7.17,4.47,4.47,0,0,1-.89.1h-1.2c-.72,0-1.2,0-1.43,0a5,5,0,0,1-1-.12,2,2,0,0,1-.66-.21,1,1,0,0,1-.35-.39,1.44,1.44,0,0,1-.2-.58c0-.28,0-.56,0-.83Z"/><path class="cls-2" d="M115.65,452.35V441.07h4.7c.12-.39.27-1,.44-1.73l2.13.14c-.11.54-.25,1.07-.4,1.59H129v6.48H117.75v.83h13.42V450H117.75v.81h12.93v.82a20.79,20.79,0,0,1-.23,3.53,3.07,3.07,0,0,1-.72,1.67,2.12,2.12,0,0,1-1.43.42c-.78,0-1.72,0-2.82-.13l-.07-1h-9.14v1h-2V452.9h2v1.59h2.91v-2.14Zm2.1-8.62h9.19v-1.07h-9.19Zm0,1.35v1.07h9.19v-1.07ZM126,455.42c.57.05,1.1.08,1.61.08a.85.85,0,0,0,.62-.2,1.72,1.72,0,0,0,.31-.85,18.31,18.31,0,0,0,.13-2.1h-7.46v2.14h2.91V452.9H126Z"/><path class="cls-2" d="M42.25,269.07v-1.81h3.47c.16-1,.26-1.95.31-2.71l2.1.12c-.1,1-.2,1.84-.32,2.59H55v1.81H47.49a32.06,32.06,0,0,1-1,3.49h7.89v1.74H50.84v5.49h4.21v1.78H43.16v-1.78h5.59V274.3H45.86a28.66,28.66,0,0,1-3.36,6l-1.36-1v2.87h-2v-8.79a14.31,14.31,0,0,1-1.26,1.86l-1-1.9a19.78,19.78,0,0,0,3.92-8.7l1.88.29A23.88,23.88,0,0,1,41.14,270v8.65a25.7,25.7,0,0,0,4.25-9.56Z"/><path class="cls-2" d="M46.19,285.1c0,.33,0,.73,0,1.21l0,.73a11.14,11.14,0,0,1-.12,1.32,6.09,6.09,0,0,1-.23.85,1.06,1.06,0,0,1-.33.43,1.1,1.1,0,0,1-.48.21,4.88,4.88,0,0,1-.68,0c-.4,0-1.21,0-2.41-.09l-.1-1.59c.61.05,1.14.07,1.6.07s.56-.06.62-.19a6.89,6.89,0,0,0,.15-1.4H42.21a6.66,6.66,0,0,1-.68,1.65,7.15,7.15,0,0,1-2,2.08H53.4v7.95H50.12A35.61,35.61,0,0,1,55,300.23l-.91,1.57a45.35,45.35,0,0,0-6.19-2.41l.45-1H44.11l.47.87a17.59,17.59,0,0,1-2.78,1.32,23.58,23.58,0,0,1-3.6,1.1L37.48,300a30.56,30.56,0,0,0,5.12-1.66H39.05v-7.58l-.87.52-1-1.67a6.65,6.65,0,0,0,2.68-2.25,5.27,5.27,0,0,0,.33-.7H37.85V285.1H40.5a9.71,9.71,0,0,0,.06-1.12h2a10.1,10.1,0,0,1-.06,1.12Zm-5,7.57H51.27v-.74H41.18Zm0,1.3v.77H51.27V294Zm0,2.07v.78H51.27V296Zm7.76-6.4H47v-4.88h7.51v4.88Zm0-1.49h3.49V286.4H48.94Z"/><path class="cls-2" d="M28.49,272.15v1.69H19.55a15.32,15.32,0,0,0,2.94,2.56l.55.35a22.16,22.16,0,0,0,2.52-2.68l1.65,1a18.87,18.87,0,0,1-2.47,2.61,27.74,27.74,0,0,0,3.88,1.54l-.85,1.65a23.4,23.4,0,0,1-6.48-3.09,16.5,16.5,0,0,1-4.07-4H15.55v4.81c1.84-.24,3.65-.53,5.45-.88l.23,1.65a86.12,86.12,0,0,1-9.85,1.36l-.21-1.69c.56,0,1.32-.11,2.29-.21v-5H10.84v-1.69h2.62V264H26.61v1.7H15.55v1.13H26v1.49H15.55v1.17H26v1.49H15.55v1.22Z"/><path class="cls-2" d="M25.58,299v-5.43h-8.2v6.78H12.92v1.17H11.09V287h1.63v11.64h.64V284.56h1.75v14.06h.64V287h1.63v4.85h.83l-.64-1.51a5.56,5.56,0,0,0,3.39-2,5.44,5.44,0,0,0,.45-.77H17.92v-1.75h4a10.65,10.65,0,0,0,.12-1.67h2a11,11,0,0,1-.11,1.67h4.38v1.75H23.5a1,1,0,0,1-.09.21,37,37,0,0,1,5.21,2.89l-.6,1.2h.8v1.75H27.57v5.33q0,.55,0,1.11a7.37,7.37,0,0,1-.12.75,2,2,0,0,1-.23.52.82.82,0,0,1-.39.28,2.31,2.31,0,0,1-.62.11,8.19,8.19,0,0,1-.85,0c-.42,0-1.26,0-2.53-.1l-.07-1.68c.93.05,1.65.08,2.17.08.33,0,.53,0,.58-.14A2.29,2.29,0,0,0,25.58,299Zm-5.24-4.5h4.07v4.92H20.34v1.28H18.46v-6.2Zm6.77-2.68a31.29,31.29,0,0,0-4.5-2.65l-.05.06s0,.06,0,.07a6.84,6.84,0,0,1-3.64,2.52Zm-6.77,4.23v1.82h2.27v-1.82Z"/></g></g></svg>