<svg xmlns="http://www.w3.org/2000/svg" xmlns:xlink="http://www.w3.org/1999/xlink" viewBox="0 0 325 114.05"><defs><style>.cls-1{fill:none;stroke:#642a02;stroke-miterlimit:10;stroke-width:2.06px;}.cls-2{fill:url(#ブルー);}.cls-3{fill:#fff;}</style><linearGradient id="ブルー" x1="200" y1="90.42" x2="200" y2="34.42" gradientUnits="userSpaceOnUse"><stop offset="0" stop-color="#3faadb"/><stop offset="0.5" stop-color="#008cd4"/><stop offset="1" stop-color="#0080c2"/></linearGradient></defs><title>order-tel</title><g id="レイヤー_2" data-name="レイヤー 2"><g id="メインデザイン"><path d="M61,63.54l-6-4.7a7.93,7.93,0,0,0-10.22.4,26.19,26.19,0,0,0-2.78,2.84.75.75,0,0,1-.16.15l0,0a1.14,1.14,0,0,1-.82.1h0C37.67,61.85,29,54,27.13,52.1,24.92,50,15,38.94,17.15,37.31A26.19,26.19,0,0,0,20,34.53a7.93,7.93,0,0,0,.4-10.22l-4.7-6a8,8,0,0,0-1.23-1.23L14.37,17a7.59,7.59,0,0,0-.65-.46l-.12-.08a8,8,0,0,0-2.36-1h0a8.11,8.11,0,0,0-.86-.14h-.05a7.84,7.84,0,0,0-8.26,4.94c-1.16,3-2.4,7.19-2,10.87,0,.16.07.36.11.53s0,.06,0,.08c1.18,5.92,10.21,18.87,17,26.36l.27.29.46.52h0c.33.35,2.09,2.11,2.44,2.44h0c7.34,6.82,21,16.48,27.17,17.7h.08c.18,0,.37.09.53.11,3.68.41,7.9-.83,10.87-2a7.93,7.93,0,0,0,2-13.62Z"/><line class="cls-1" x1="75" y1="27.93" x2="325" y2="27.93"/><path d="M82.84,11.92A10.79,10.79,0,0,0,83,14H81.3a11.35,11.35,0,0,0,.14-2V1.53H78.63a12.82,12.82,0,0,0-2.07.13V.14a12.63,12.63,0,0,0,2,.13h7A12.58,12.58,0,0,0,87.76.14V1.66a12.9,12.9,0,0,0-2.13-.13H82.84Z"/><path d="M98.65,14.08a11.75,11.75,0,0,0-2-.13H91.36c-.87,0-1.37,0-2,.06a13.38,13.38,0,0,0,.14-2.14V2.27a14.22,14.22,0,0,0-.14-2c.63,0,1.11.05,2,.05h5.13a13.53,13.53,0,0,0,2-.13V1.66a12.64,12.64,0,0,0-2-.13H90.94V6.14h4.74a14.19,14.19,0,0,0,2-.13V7.53a12.23,12.23,0,0,0-2-.13H90.94v5.29h5.71a13.43,13.43,0,0,0,2-.12Z"/><path d="M102.91,14c-.83,0-1.33,0-2,.06a12.52,12.52,0,0,0,.14-2.14V2.39A11.52,11.52,0,0,0,101,.27h1.69a12.32,12.32,0,0,0-.14,2.12V12.68h5.67a14.25,14.25,0,0,0,2.09-.13v1.53a12.28,12.28,0,0,0-2.09-.13Z"/><path d="M121.06,14.08a11.75,11.75,0,0,0-2-.13h-5.27c-.87,0-1.37,0-2,.06a13.38,13.38,0,0,0,.14-2.14V2.27a14.22,14.22,0,0,0-.14-2c.63,0,1.11.05,2,.05h5.13a13.53,13.53,0,0,0,2-.13V1.66a12.64,12.64,0,0,0-2-.13h-5.55V6.14h4.74a14.19,14.19,0,0,0,2-.13V7.53a12.23,12.23,0,0,0-2-.13h-4.74v5.29h5.71a13.43,13.43,0,0,0,2-.12Z"/><path d="M123.36,14a10.91,10.91,0,0,0,.14-2V2.27a12.92,12.92,0,0,0-.14-2c.65,0,1.15.05,2,.05H129c2.78,0,4.34,1.42,4.34,3.93s-1.62,4.17-4.43,4.17h-4v3.55a10.81,10.81,0,0,0,.14,2Zm5.56-6.82a2.65,2.65,0,0,0,3-2.86c0-1.8-1-2.76-3-2.76h-4V7.13Z"/><path d="M146.51.27a10.77,10.77,0,0,0-.14,2v9.69a11,11,0,0,0,.14,2h-1.69a10.91,10.91,0,0,0,.14-2V7.38h-8.14v4.56a10.43,10.43,0,0,0,.15,2h-1.69a11.33,11.33,0,0,0,.14-2V2.29a11.68,11.68,0,0,0-.14-2H137a10.64,10.64,0,0,0-.15,2V6.1H145V2.29a10.76,10.76,0,0,0-.14-2Z"/><path d="M161.27,7.11c0,4.34-2.43,7.11-6.23,7.11s-6.21-2.77-6.21-7.11S151.28,0,155.06,0,161.27,2.77,161.27,7.11Zm-3.08,4.61a6.43,6.43,0,0,0,1.6-4.61,6.36,6.36,0,0,0-1.58-4.61,4.39,4.39,0,0,0-3.15-1.24c-2.88,0-4.77,2.3-4.77,5.83S152.2,13,155.08,13A4.26,4.26,0,0,0,158.19,11.72Z"/><path d="M165.52.27a9.34,9.34,0,0,0,.91,1.62l5.69,8.52c.2.3.74,1.19,1.17,2-.07-1.44-.1-2.23-.1-2.4V2.34A11.18,11.18,0,0,0,173,.27h1.68a11,11,0,0,0-.15,2.07v9.6a10,10,0,0,0,.15,2h-2a12.76,12.76,0,0,0-.93-1.62L166,3.65c-.15-.21-.74-1.24-1-1.72.07.84.11,1.72.11,2.19v7.69A11.29,11.29,0,0,0,165.3,14h-1.67a12.19,12.19,0,0,0,.14-2.14V2.29a12.15,12.15,0,0,0-.14-2Z"/><path d="M186.79,14.08a11.62,11.62,0,0,0-2-.13H179.5c-.86,0-1.37,0-2,.06a12.22,12.22,0,0,0,.15-2.14V2.27a12.94,12.94,0,0,0-.15-2c.63,0,1.12.05,2,.05h5.13a13.34,13.34,0,0,0,2-.13V1.66a12.64,12.64,0,0,0-2-.13h-5.54V6.14h4.73a14,14,0,0,0,2-.13V7.53a12.15,12.15,0,0,0-2-.13h-4.73v5.29h5.71a13.29,13.29,0,0,0,2-.12Z"/><path d="M76,100.41a7.1,7.1,0,0,0,1.32.08h1a8.34,8.34,0,0,0,1.33-.08c-.09,1-.14,1.8-.14,2.66v7.78a9.85,9.85,0,0,0,.13,1.81H78.14a10.75,10.75,0,0,0,.12-1.81v-9.27H77.4a8.83,8.83,0,0,0-1.39.1Z"/><path d="M86.26,111.76a4,4,0,0,1-1-1.47,11,11,0,0,1-.61-3.7,9.37,9.37,0,0,1,.93-4.35,4.29,4.29,0,0,1,6.52-.83,4,4,0,0,1,1,1.47,11,11,0,0,1,.61,3.71,8.31,8.31,0,0,1-1.13,4.63,3.9,3.9,0,0,1-3.39,1.68A4,4,0,0,1,86.26,111.76Zm.93-9.57a3.26,3.26,0,0,0-.72,1.17,9.81,9.81,0,0,0-.5,3.23,8.71,8.71,0,0,0,.76,3.81,2.72,2.72,0,0,0,2.48,1.39,2.65,2.65,0,0,0,2-.75,3.1,3.1,0,0,0,.75-1.25,10,10,0,0,0,.49-3.23,9.19,9.19,0,0,0-.71-3.73,2.72,2.72,0,0,0-2.52-1.46A2.62,2.62,0,0,0,87.19,102.19Z"/><path d="M97.16,105.62H95.57V104h1.59Zm-1.59,7v-1.59h1.59v1.59Z"/><path d="M100.61,111.76a4.11,4.11,0,0,1-1-1.47,11,11,0,0,1-.6-3.7,9.38,9.38,0,0,1,.92-4.35,4.17,4.17,0,0,1,7.48.64,11,11,0,0,1,.61,3.71,8.4,8.4,0,0,1-1.12,4.63,3.92,3.92,0,0,1-3.4,1.68A4,4,0,0,1,100.61,111.76Zm.93-9.57a3.41,3.41,0,0,0-.72,1.17,10.08,10.08,0,0,0-.49,3.23,8.87,8.87,0,0,0,.75,3.81,2.72,2.72,0,0,0,2.48,1.39,2.65,2.65,0,0,0,2-.75,3.1,3.1,0,0,0,.75-1.25,9.77,9.77,0,0,0,.5-3.23,9.17,9.17,0,0,0-.72-3.73,2.72,2.72,0,0,0-2.52-1.46A2.62,2.62,0,0,0,101.54,102.19Z"/><path d="M111.13,111.76a3.86,3.86,0,0,1-1-1.47,11,11,0,0,1-.61-3.7,9.37,9.37,0,0,1,.93-4.35,4.17,4.17,0,0,1,7.47.64,11,11,0,0,1,.61,3.71,8.4,8.4,0,0,1-1.12,4.63,3.92,3.92,0,0,1-3.4,1.68A4,4,0,0,1,111.13,111.76Zm.92-9.57a3.41,3.41,0,0,0-.72,1.17,10.08,10.08,0,0,0-.49,3.23,8.87,8.87,0,0,0,.75,3.81,2.72,2.72,0,0,0,2.48,1.39,2.65,2.65,0,0,0,2-.75,3.1,3.1,0,0,0,.75-1.25,9.77,9.77,0,0,0,.5-3.23,9.17,9.17,0,0,0-.72-3.73,2.71,2.71,0,0,0-2.52-1.46A2.64,2.64,0,0,0,112.05,102.19Z"/><path d="M124.13,106.64c1.43-1.39,2.42-1.89,3.86-1.89a4.33,4.33,0,0,1,2,.47,8.6,8.6,0,0,1,1.51,1,5.19,5.19,0,0,0,3.07,1.31,3.19,3.19,0,0,0,1.28-.27,4.24,4.24,0,0,0,1.82-1.56l.84.72a6.4,6.4,0,0,1-1.84,1.65,4.37,4.37,0,0,1-2.12.55,5.11,5.11,0,0,1-1.52-.26,8,8,0,0,1-2.22-1.3,4.38,4.38,0,0,0-2.88-1.21,3.37,3.37,0,0,0-1.65.41,6.09,6.09,0,0,0-1.35,1.12Z"/><path d="M145.89,100.41a7.22,7.22,0,0,0,1.33.08h1a8.41,8.41,0,0,0,1.33-.08,25.27,25.27,0,0,0-.14,2.66v7.78a10.9,10.9,0,0,0,.12,1.81H148a9.72,9.72,0,0,0,.13-1.81v-9.27h-.86a9,9,0,0,0-1.4.1Z"/><path d="M156.18,110a2.54,2.54,0,0,0,.58,1,2.62,2.62,0,0,0,2,.75,2.77,2.77,0,0,0,2.58-1.47,6.42,6.42,0,0,0,.69-2c.06-.4.11-1.06.14-1.88a3,3,0,0,1-.64.9,3.93,3.93,0,0,1-2.91,1.12,4,4,0,0,1-2.88-1.06,4.25,4.25,0,1,1,7.12-4.4,9.72,9.72,0,0,1,.47,3.33,8.35,8.35,0,0,1-1.33,5.11,3.93,3.93,0,0,1-3.33,1.49A4,4,0,0,1,156,112a4.11,4.11,0,0,1-1.12-1.58Zm5.7-5.63a2.94,2.94,0,0,0-3-3,3,3,0,0,0-2.55,1.36,3.37,3.37,0,0,0-.42,1.68,2.71,2.71,0,0,0,2.85,3A3,3,0,0,0,161.88,104.37Z"/><path d="M167,105.62h-1.58V104H167Zm-1.58,7v-1.59H167v1.59Z"/><path d="M170.5,111.76a4,4,0,0,1-1-1.47,11,11,0,0,1-.61-3.7,9.37,9.37,0,0,1,.93-4.35,4.29,4.29,0,0,1,6.52-.83,4.15,4.15,0,0,1,1,1.47,11,11,0,0,1,.6,3.71,8.32,8.32,0,0,1-1.12,4.63,3.91,3.91,0,0,1-3.39,1.68A4,4,0,0,1,170.5,111.76Zm.93-9.57a3.26,3.26,0,0,0-.72,1.17,9.81,9.81,0,0,0-.5,3.23,8.87,8.87,0,0,0,.75,3.81,2.74,2.74,0,0,0,2.49,1.39,2.67,2.67,0,0,0,2-.75,3.22,3.22,0,0,0,.75-1.25,10,10,0,0,0,.49-3.23,9,9,0,0,0-.72-3.73,2.7,2.7,0,0,0-2.51-1.46A2.62,2.62,0,0,0,171.43,102.19Z"/><path d="M181,111.76a4,4,0,0,1-1-1.47,11,11,0,0,1-.61-3.7,9.37,9.37,0,0,1,.93-4.35,4.29,4.29,0,0,1,6.52-.83,4,4,0,0,1,1,1.47,11,11,0,0,1,.61,3.71,8.31,8.31,0,0,1-1.13,4.63,3.9,3.9,0,0,1-3.39,1.68A4,4,0,0,1,181,111.76Zm.93-9.57a3.26,3.26,0,0,0-.72,1.17,9.81,9.81,0,0,0-.5,3.23,8.71,8.71,0,0,0,.76,3.81,2.72,2.72,0,0,0,2.48,1.39,2.65,2.65,0,0,0,2-.75,3.1,3.1,0,0,0,.75-1.25,10,10,0,0,0,.49-3.23,9.19,9.19,0,0,0-.71-3.73,2.72,2.72,0,0,0-2.52-1.46A2.62,2.62,0,0,0,181.94,102.19Z"/><path d="M203.18,114.05a10.83,10.83,0,0,1-2.23-3.44,10.47,10.47,0,0,1,0-7.88,10.94,10.94,0,0,1,2.23-3.44h1.42a10.1,10.1,0,0,0-2.43,3.32,9.93,9.93,0,0,0,0,8.13,10.18,10.18,0,0,0,2.43,3.31Z"/><path d="M208.92,105.74a9.36,9.36,0,0,0,0-.94c.34,0,.69,0,1.13,0h3.48v-2.61h-3.76a13.29,13.29,0,0,1-2.66,3.26,2.65,2.65,0,0,0-.77-.76,10.43,10.43,0,0,0,3.2-4.31,6,6,0,0,0,.4-1.17l1.14.32c-.06.13-.11.24-.21.43l-.61,1.3h7.94a8.78,8.78,0,0,0,1.44-.08v1.09a8.09,8.09,0,0,0-1.44-.08h-3.61v2.61h2.89a9.2,9.2,0,0,0,1.43-.08v1a13.69,13.69,0,0,0-1.41-.06h-2.91v3.14h4a10,10,0,0,0,1.62-.1V110a12.48,12.48,0,0,0-1.62-.09h-4v2.64a7.35,7.35,0,0,0,.11,1.49h-1.27a7.06,7.06,0,0,0,.1-1.49v-2.64H207.7a12.38,12.38,0,0,0-1.62.09V108.8a10.35,10.35,0,0,0,1.62.1h1.22Zm4.56,3.16v-3.14H210v3.14Z"/><path d="M234.36,102a8.42,8.42,0,0,0,1.79-.12V103a11.66,11.66,0,0,0-1.79-.1h-4.8v2.77h3.86a8.84,8.84,0,0,0,1.79-.11v1.12a12.57,12.57,0,0,0-1.79-.1h-3.37a13.78,13.78,0,0,0,2.45,2.87,16,16,0,0,0,4,2.65,4.52,4.52,0,0,0-.71,1,16.74,16.74,0,0,1-3.74-2.69,12.88,12.88,0,0,1-2.6-3.3,17.14,17.14,0,0,1,.1,1.81v3.49a8.87,8.87,0,0,0,.11,1.58h-1.25a8.65,8.65,0,0,0,.11-1.58V109c0-.58,0-1,.08-1.81a12.49,12.49,0,0,1-2.25,3,20.14,20.14,0,0,1-3.78,2.88,3.39,3.39,0,0,0-.72-.93,15.83,15.83,0,0,0,6.16-5.49H225a13.81,13.81,0,0,0-1.74.1v-1.12a11.23,11.23,0,0,0,1.74.11h3.57v-2.77H224.1a13.59,13.59,0,0,0-1.76.1v-1.16a11.13,11.13,0,0,0,1.76.12h4.43v-1.25a8.1,8.1,0,0,0-.09-1.3h1.21a6.39,6.39,0,0,0-.09,1.3V102Z"/><path d="M240.92,105.74a9.36,9.36,0,0,0,0-.94c.34,0,.69,0,1.13,0h3.48v-2.61h-3.76a13.29,13.29,0,0,1-2.66,3.26,2.65,2.65,0,0,0-.77-.76,10.43,10.43,0,0,0,3.2-4.31,6,6,0,0,0,.4-1.17l1.14.32c-.06.13-.11.24-.21.43l-.61,1.3h7.94a8.78,8.78,0,0,0,1.44-.08v1.09a8.09,8.09,0,0,0-1.44-.08h-3.61v2.61h2.89a9.2,9.2,0,0,0,1.43-.08v1a13.69,13.69,0,0,0-1.41-.06h-2.91v3.14h4a10,10,0,0,0,1.62-.1V110a12.48,12.48,0,0,0-1.62-.09h-4v2.64a7.35,7.35,0,0,0,.11,1.49h-1.27a7.06,7.06,0,0,0,.1-1.49v-2.64H239.7a12.38,12.38,0,0,0-1.62.09V108.8a10.35,10.35,0,0,0,1.62.1h1.22Zm4.56,3.16v-3.14H242v3.14Z"/><path d="M258.18,102.7a10.37,10.37,0,0,0,1.47-.06c-.17,1.82-.17,1.82-.28,2.53a15.36,15.36,0,0,1-1.22,4.29,18.81,18.81,0,0,1,1.7,1.65l-.64.88a17,17,0,0,0-1.54-1.64,10.18,10.18,0,0,1-3,3.25,2.91,2.91,0,0,0-.74-.78,10,10,0,0,0,3-3.12,17.74,17.74,0,0,0-2.39-1.65A23.23,23.23,0,0,0,256,103.6h-.53a7.23,7.23,0,0,0-1.28.1v-1.09a8.51,8.51,0,0,0,1.31.09h.69a17,17,0,0,0,.43-3,1.56,1.56,0,0,0,0-.2l1.15.12a7.08,7.08,0,0,0-.18.92c-.09.55-.22,1.27-.41,2.21Zm-1.22.9a28.65,28.65,0,0,1-1.24,4.07c.86.59,1.15.78,1.66,1.16a14.71,14.71,0,0,0,1.22-5.23Zm2.63,1.5a6.19,6.19,0,0,0,.67,0l.56,0a23.33,23.33,0,0,0,2-5.73l1.21.3a14.69,14.69,0,0,0-.61,1.73,39.23,39.23,0,0,1-1.5,3.64c2.3-.2,2.66-.23,4.67-.48a18.23,18.23,0,0,0-1.76-2.53l.88-.45a27.21,27.21,0,0,1,2.88,4.62l-.91.55c-.3-.67-.38-.83-.65-1.38-2.6.35-3.27.43-6.15.69a4.46,4.46,0,0,0-1,.16Zm2,8.86h-1.05a12.33,12.33,0,0,0,.06-1.43v-3.81a13.93,13.93,0,0,0-.06-1.49,11.06,11.06,0,0,0,1.42.07h3.94a10.32,10.32,0,0,0,1.52-.07,7.51,7.51,0,0,0-.08,1v4a8.56,8.56,0,0,0,.09,1.67h-1.1V113h-4.74Zm0-1.85h4.74v-3.9h-4.74Z"/><path d="M273.49,100.4a22.76,22.76,0,0,0-1.23,7.51c0,.55,0,1.5.06,2.24,0,.12,0,.16,0,.44v.31h.06a13.9,13.9,0,0,1,1-2.81,3.09,3.09,0,0,0,.13-.32l.78.37a13.84,13.84,0,0,0-1.38,4.54,1.38,1.38,0,0,0,0,.32l-1.14.11c0-.14,0-.22-.1-.59a26.22,26.22,0,0,1-.44-4.75,26.83,26.83,0,0,1,.83-6.58,6.65,6.65,0,0,0,.17-1Zm1.62,3a11.19,11.19,0,0,0,2.88.25c.63,0,1.06,0,1.71,0,0-1.5,0-1.5,0-2.72a3.65,3.65,0,0,0-.05-.65h1.2a16.4,16.4,0,0,0-.11,2.51c0,.17,0,.43,0,.78a10.44,10.44,0,0,0,2.77-.59l.05,1.09-1.12.22a15,15,0,0,1-1.7.26c0,1.58.05,2.4.18,4.53a11.28,11.28,0,0,1,2.67,1.57l.4.27L283.5,112a8.58,8.58,0,0,0-2.28-1.66l-.16-.1-.14-.1a2.51,2.51,0,0,1,0,.42,2.34,2.34,0,0,1-2.86,2.43c-1.86,0-3-.88-3-2.27s1.27-2.27,3-2.27a4.39,4.39,0,0,1,1.78.32c-.05-.34-.11-1.84-.16-4.18-.72,0-1.22,0-1.83,0s-1.24,0-1.8,0a4.6,4.6,0,0,0-.52,0l-.27,0h-.22Zm3.07,6c-1.25,0-2.06.53-2.06,1.33S276.85,112,278,112a2.23,2.23,0,0,0,1.64-.56,1.86,1.86,0,0,0,.3-1.25c0-.11,0-.48,0-.48A4.27,4.27,0,0,0,278.18,109.38Z"/><path d="M287.76,106.74c0-.74,0-1.2.05-2a11.44,11.44,0,0,1-1.73,2.44,3.14,3.14,0,0,0-.65-.92,15.62,15.62,0,0,0,2.93-4.33,12,12,0,0,0,.88-2.71l1.13.35c-.2.55-.41,1.06-.59,1.54a22.3,22.3,0,0,1-1,2.23V112a15.33,15.33,0,0,0,.08,1.88h-1.2a17.68,17.68,0,0,0,.09-1.92Zm3.67-2.82a10.69,10.69,0,0,0-1.6.1v-1.16a10.33,10.33,0,0,0,1.6.1h2.91v-1.78a13.19,13.19,0,0,0-.11-1.57h1.23a13.51,13.51,0,0,0-.09,1.57V103h3.39a11,11,0,0,0,1.65-.1V104a10.93,10.93,0,0,0-1.63-.1h-3.11a16.33,16.33,0,0,0,5.12,6.51,4.08,4.08,0,0,0-.86.85,15,15,0,0,1-2.07-2.08,15.64,15.64,0,0,1-2.56-4.43c0,.62.05,1.1.05,1.81v5.68a10.45,10.45,0,0,0,.11,1.65h-1.25a11.14,11.14,0,0,0,.13-1.65v-5.62c0-.64,0-1.26,0-1.81a14.8,14.8,0,0,1-1.69,3.35,14.26,14.26,0,0,1-2.75,3.07,3.1,3.1,0,0,0-.77-.83,14.81,14.81,0,0,0,3.35-3.68,17.72,17.72,0,0,0,1.52-2.82Z"/><path d="M304.45,105.58a13.19,13.19,0,0,0-1.71.08v-1a10.86,10.86,0,0,0,1.71.08h2.32a9.19,9.19,0,0,0-.85-1.81h-2a16.53,16.53,0,0,0-1.81.08v-1a13.27,13.27,0,0,0,1.78.09H305a8.34,8.34,0,0,0-1.31-1.69l.91-.43a9.46,9.46,0,0,1,1.42,2.12h1.35v-1.23a7.11,7.11,0,0,0-.1-1.34h1.09a8.9,8.9,0,0,0-.06,1.33v1.24H310v-1.24a9.06,9.06,0,0,0-.06-1.33H311a7.71,7.71,0,0,0-.1,1.34v1.23h1.54a10.27,10.27,0,0,0,1.26-2.2l1,.41a14.72,14.72,0,0,1-1.2,1.79h1a13.13,13.13,0,0,0,1.79-.09v1a16.53,16.53,0,0,0-1.81-.08h-1.88a18.79,18.79,0,0,1-.87,1.81h2.27a11.14,11.14,0,0,0,1.73-.08v1a13.24,13.24,0,0,0-1.73-.08h-4.35v1.17H313a11.22,11.22,0,0,0,1.73-.08v1a11.6,11.6,0,0,0-1.73-.08h-3.36v1.23h4.85a13,13,0,0,0,1.83-.09v1a14.08,14.08,0,0,0-1.81-.1h-4.2a12.63,12.63,0,0,0,6.36,2.77,3.88,3.88,0,0,0-.63,1,17.49,17.49,0,0,1-3.92-1.5,10.24,10.24,0,0,1-2.54-2c0,.72.06,1,.06,1.36v1.08a11.09,11.09,0,0,0,.1,1.66h-1.16a10.53,10.53,0,0,0,.1-1.68v-1.06c0-.36,0-.72.06-1.34a12.68,12.68,0,0,1-6,3.44,3.54,3.54,0,0,0-.66-.93,12.19,12.19,0,0,0,5.94-2.83H304a13.87,13.87,0,0,0-1.81.1v-1a13.07,13.07,0,0,0,1.81.09h4.59v-1.23h-3.17a11.3,11.3,0,0,0-1.71.08v-1a11.3,11.3,0,0,0,1.71.08h3.17v-1.17Zm6.18-.83a8.43,8.43,0,0,0,.82-1.81H307a13.63,13.63,0,0,1,.75,1.81Z"/><path d="M317.81,114.05a9.84,9.84,0,0,0,2.43-3.31,9.93,9.93,0,0,0,0-8.13,9.86,9.86,0,0,0-2.43-3.32h1.43a10.89,10.89,0,0,1,2.22,3.44,10.47,10.47,0,0,1,0,7.88,10.79,10.79,0,0,1-2.22,3.44Z"/><rect class="cls-2" x="76" y="34.42" width="248" height="56" rx="5"/><path class="cls-3" d="M106.35,52.67C107.54,54,109,56.74,109,61.59s-1.22,8.25-3.4,10.28a6.61,6.61,0,0,1-4.48,1.85,6.3,6.3,0,0,1-4.22-1.44c-1.77-1.55-3.14-4.81-3.14-9.73,0-3.7.74-7,2.77-9.29A7.29,7.29,0,0,1,102,50.78,5.84,5.84,0,0,1,106.35,52.67Zm-7.54.63C97.7,54.67,97,57.78,97,61.11c0,7.36,1.74,11.1,4.81,11.1a2.72,2.72,0,0,0,2-.85c1.11-1.34,1.85-4,1.85-8.74,0-6.88-1.78-10.43-4.59-10.43A2.81,2.81,0,0,0,98.81,53.3Z"/><path class="cls-3" d="M124.23,51.08a6.52,6.52,0,0,1-1.6,2.55,1.77,1.77,0,0,1-1.25.52c-1.67,0-3.33-.19-4-.22a.67.67,0,0,0-.48.33,20.94,20.94,0,0,0-1.26,3c-.08.23,0,.49.15.52a70.15,70.15,0,0,1,6.88,3.85c2.11,1.52,3,3.07,3,5.37,0,4.69-4.78,7.8-8.7,7.8A6.39,6.39,0,0,1,112.16,73a2,2,0,0,1-.52-1.18,5,5,0,0,1,.67-1.93.83.83,0,0,1,.48-.15,6.68,6.68,0,0,0,5.81,3.41A4,4,0,0,0,122.82,69c0-2.22-.7-3.56-3.11-5.26-2.11-1.48-5-2.66-6-3.36a2.27,2.27,0,0,1-.08-1.11,41.63,41.63,0,0,1,3.41-7.78c.22-.18.48-.48.81-.44.78,0,2.78.22,4.11.19a2.58,2.58,0,0,0,1.85-.56C123.89,50.67,124.26,50.93,124.23,51.08Z"/><path class="cls-3" d="M141.58,52.67c1.18,1.33,2.63,4.07,2.63,8.92S143,69.84,140.8,71.87a6.59,6.59,0,0,1-4.48,1.85,6.28,6.28,0,0,1-4.21-1.44c-1.78-1.55-3.15-4.81-3.15-9.73,0-3.7.74-7,2.78-9.29a7.25,7.25,0,0,1,5.47-2.48A5.89,5.89,0,0,1,141.58,52.67ZM134,53.3c-1.11,1.37-1.81,4.48-1.81,7.81,0,7.36,1.74,11.1,4.81,11.1a2.68,2.68,0,0,0,2-.85c1.11-1.34,1.85-4,1.85-8.74,0-6.88-1.77-10.43-4.59-10.43A2.81,2.81,0,0,0,134,53.3Z"/><path class="cls-3" d="M146.76,66.47c0-.48.29-1.85.48-1.85,1.74,0,6.25-.15,7.33-.18v.37a4.5,4.5,0,0,1-.56,1.73c-.33.15-6.44.3-7.22.26Z"/><path class="cls-3" d="M169.77,55.85c0,2.44-1.74,3.92-3.25,5a.15.15,0,0,0,0,.18c2.48.78,5.21,2.41,5.21,5.85a7.55,7.55,0,0,1-3.66,6.29,10.17,10.17,0,0,1-5.66,1.7,7.33,7.33,0,0,1-3.22-.59A2.47,2.47,0,0,1,158,73a10.77,10.77,0,0,1-.66-2.74c0-.19.77-.52.88-.48a6.34,6.34,0,0,0,2.26,2.85,6.25,6.25,0,0,0,3.41.77,4.45,4.45,0,0,0,4.58-4.81c0-3.11-2.22-5.44-5.69-5.44a6.68,6.68,0,0,0-1.34.11,2.82,2.82,0,0,1,.52-1.4c3.52-.74,4.85-2.48,4.85-4.59a3.68,3.68,0,0,0-3.74-4,6.06,6.06,0,0,0-4.33,2.11c-.15,0-.55-.74-.55-.92,1.26-1.52,3.66-3.67,6.4-3.67A5,5,0,0,1,169.77,55.85Z"/><path class="cls-3" d="M187.72,73.39c-1,0-2.59-.11-5-.11s-4.37.11-5.33.11a1.33,1.33,0,0,1,0-1.07c.85-.08,1.63-.15,2.26-.26,1.14-.22,1.37-.82,1.37-2,.07-1.7.11-4.81.11-8,0-3.51-.08-6.62-.11-7.33-.08-.51-.23-1-1-1.11-.45,0-1.37-.11-2.15-.11a1.41,1.41,0,0,1,.08-1,19.41,19.41,0,0,0,5.88-1.74c.15,0,.44,0,.48.15-.15,1.15-.19,2.07-.19,8.88,0,2,0,8.66.12,10.07.07,1.25.29,1.92,1.25,2.14.67.15,1.26.19,2.34.33A1.73,1.73,0,0,1,187.72,73.39Z"/><path class="cls-3" d="M205.26,51.08a6.63,6.63,0,0,1-1.6,2.55,1.77,1.77,0,0,1-1.25.52c-1.67,0-3.33-.19-4-.22a.65.65,0,0,0-.48.33,20.94,20.94,0,0,0-1.26,3c-.08.23,0,.49.15.52a70.15,70.15,0,0,1,6.88,3.85c2.11,1.52,3,3.07,3,5.37,0,4.69-4.78,7.8-8.7,7.8A6.39,6.39,0,0,1,193.19,73a2,2,0,0,1-.52-1.18,5,5,0,0,1,.67-1.93.83.83,0,0,1,.48-.15,6.68,6.68,0,0,0,5.81,3.41A4,4,0,0,0,203.85,69c0-2.22-.7-3.56-3.11-5.26-2.11-1.48-5-2.66-6-3.36a2.27,2.27,0,0,1-.08-1.11,41.63,41.63,0,0,1,3.41-7.78c.22-.18.48-.48.81-.44.78,0,2.78.22,4.11.19a2.58,2.58,0,0,0,1.85-.56C204.92,50.67,205.29,50.93,205.26,51.08Z"/><path class="cls-3" d="M211.14,74.28c5.92-2.74,8.55-6.44,10-10.47,0-.08-.08-.19-.15-.11a11.77,11.77,0,0,1-5.33,1.85c-3,0-5.7-2.82-5.7-6.78a7.92,7.92,0,0,1,3.44-6.55,8.48,8.48,0,0,1,4.55-1.4c4.52,0,7.11,4,7.11,8.77,0,7.44-5.92,13.28-13.47,15.69C211.43,75.24,211.1,74.46,211.14,74.28Zm1.85-17c0,4.22,2.44,6.07,5.1,6.07a5.45,5.45,0,0,0,2.82-.78,1.82,1.82,0,0,0,.66-.85,9.85,9.85,0,0,0,.22-2.19c0-4.1-2-7.32-4.84-7.32C214.58,52.19,213,54.26,213,57.26Z"/><path class="cls-3" d="M227.79,66.47c0-.48.29-1.85.48-1.85,1.74,0,6.25-.15,7.32-.18v.37a4.51,4.51,0,0,1-.55,1.73c-.33.15-6.44.3-7.22.26Z"/><path class="cls-3" d="M238.81,56.26c-.18,0-.77-.59-.74-.74,1-1.93,3.63-4.74,7-4.74s5.88,2.63,5.88,6.55c0,2.63-1.55,5.26-4.1,8.07-1.93,2.25-3,3.33-4.41,4.81-.07.11,0,.29.11.29a72.76,72.76,0,0,0,7.4.19c.71,0,1.48-.41,2.82-3.29a1.19,1.19,0,0,1,1,.4,25.27,25.27,0,0,1-2,5.33c-.11.15-.52.26-1.78.26-2.48,0-6.66-.11-9.77-.11-.63,0-1.4,0-1.85.07a1.89,1.89,0,0,1-.15-.81,45.1,45.1,0,0,0,6.37-6.74c2-2.59,3.14-5.21,3.14-7.58s-1.18-4.74-4.18-4.74C241.81,53.48,240.29,54.45,238.81,56.26Z"/><path class="cls-3" d="M269.71,56.15c0,1.74-.89,3.07-3.89,5.1a.21.21,0,0,0,0,.19c3.33,2.11,4.67,3.51,4.67,6.07,0,3.29-3.37,6.18-7.26,6.18-5,0-6.84-3.15-6.84-5.52,0-1.66.59-2.85,4.59-5.66.11-.07.11-.18,0-.22-2.85-1.92-3.7-3.66-3.7-5.59a5.6,5.6,0,0,1,2.15-4.36A7.27,7.27,0,0,1,264,50.78,5.42,5.42,0,0,1,269.71,56.15ZM267.56,69c0-2.48-1.44-3.77-5.29-5.95a.47.47,0,0,0-.33,0c-2,1.66-2.78,2.88-2.78,4.62A4.73,4.73,0,0,0,264,72.43,3.3,3.3,0,0,0,267.56,69ZM260,55.44c0,2.34,1.51,3.52,4.55,5.26a.28.28,0,0,0,.33,0c1.85-1.56,2.3-3,2.3-4.26,0-2.62-1.63-4.4-3.93-4.4A3.11,3.11,0,0,0,260,55.44Z"/><path class="cls-3" d="M274,56.26c-.19,0-.78-.59-.74-.74,1-1.93,3.62-4.74,6.95-4.74s5.89,2.63,5.89,6.55c0,2.63-1.56,5.26-4.11,8.07-1.92,2.25-3,3.33-4.4,4.81-.08.11,0,.29.11.29a72.68,72.68,0,0,0,7.4.19c.7,0,1.48-.41,2.81-3.29a1.19,1.19,0,0,1,1,.4,25.27,25.27,0,0,1-2,5.33c-.11.15-.52.26-1.78.26-2.47,0-6.66-.11-9.76-.11-.63,0-1.41,0-1.85.07a1.89,1.89,0,0,1-.15-.81,45.08,45.08,0,0,0,6.36-6.74c2-2.59,3.15-5.21,3.15-7.58s-1.19-4.74-4.18-4.74C277,53.48,275.52,54.45,274,56.26Z"/><path class="cls-3" d="M304.93,56.15c0,1.74-.89,3.07-3.88,5.1a.17.17,0,0,0,0,.19c3.33,2.11,4.66,3.51,4.66,6.07,0,3.29-3.37,6.18-7.25,6.18-5,0-6.85-3.15-6.85-5.52,0-1.66.59-2.85,4.59-5.66.11-.07.11-.18,0-.22-2.85-1.92-3.7-3.66-3.7-5.59a5.62,5.62,0,0,1,2.14-4.36,7.3,7.3,0,0,1,4.52-1.56A5.42,5.42,0,0,1,304.93,56.15ZM302.79,69c0-2.48-1.45-3.77-5.29-5.95a.49.49,0,0,0-.34,0c-2,1.66-2.77,2.88-2.77,4.62a4.72,4.72,0,0,0,4.84,4.74A3.31,3.31,0,0,0,302.79,69ZM295.2,55.44c0,2.34,1.52,3.52,4.55,5.26a.3.3,0,0,0,.34,0c1.85-1.56,2.29-3,2.29-4.26,0-2.62-1.63-4.4-3.92-4.4A3.11,3.11,0,0,0,295.2,55.44Z"/></g></g></svg>