<svg xmlns="http://www.w3.org/2000/svg" xmlns:xlink="http://www.w3.org/1999/xlink" viewBox="0 0 325 90.15"><defs><style>.cls-1{fill:none;stroke:#642a02;stroke-miterlimit:10;stroke-width:2.06px;}.cls-2{fill:url(#ブルー);}.cls-3{fill:#fff;}</style><linearGradient id="ブルー" x1="200" y1="90.15" x2="200" y2="34.15" gradientUnits="userSpaceOnUse"><stop offset="0" stop-color="#3faadb"/><stop offset="0.5" stop-color="#008cd4"/><stop offset="1" stop-color="#0080c2"/></linearGradient></defs><title>order-mail</title><g id="レイヤー_2" data-name="レイヤー 2"><g id="メインデザイン"><line class="cls-1" x1="75" y1="27.66" x2="325" y2="27.66"/><path d="M78.87,3.76a17.27,17.27,0,0,1-.81-2.23c.06.77.13,1.89.13,2.32v7.71a12.17,12.17,0,0,0,.14,2.12H76.7a12.63,12.63,0,0,0,.14-2.12V2.14A13.29,13.29,0,0,0,76.7,0h2.08a8.68,8.68,0,0,0,.6,1.78l4.45,9.92,4.42-9.92A9.08,9.08,0,0,0,88.87,0h2.07a12,12,0,0,0-.15,2.14v9.42a11.06,11.06,0,0,0,.15,2.12H89.3a11.86,11.86,0,0,0,.14-2.12V3.75c0-.51.06-1.48.13-2.22a11.36,11.36,0,0,1-.78,2.2l-3.67,8.08a9.94,9.94,0,0,0-.68,1.87H83.16a9.53,9.53,0,0,0-.67-1.89Z"/><path d="M103.72,13.68a15.12,15.12,0,0,0-.56-1.83l-.94-2.32H95.94L95,11.85a10.25,10.25,0,0,0-.56,1.83H92.57a10.86,10.86,0,0,0,1-2.07l4-9.94A10.19,10.19,0,0,0,98.15,0H100a9.29,9.29,0,0,0,.61,1.67l4,9.94a17.41,17.41,0,0,0,.95,2.07ZM99.47,2.34c-.06-.14-.06-.16-.4-1.15l-.2.59c-.11.29-.16.49-.2.56l-2.3,5.94h5.42Z"/><path d="M108.92,0a11,11,0,0,0-.17,2v9.65a10.85,10.85,0,0,0,.17,2h-1.71a11.56,11.56,0,0,0,.14-2V2a11.6,11.6,0,0,0-.14-2Z"/><path d="M113.65,13.68c-.83,0-1.33,0-2,.06a13.63,13.63,0,0,0,.14-2.14V2.12A12.47,12.47,0,0,0,111.69,0h1.69a11.39,11.39,0,0,0-.14,2.12V12.41h5.67a14.34,14.34,0,0,0,2.09-.13v1.53a12.28,12.28,0,0,0-2.09-.13Z"/><path d="M63.43,24.11H.57a.56.56,0,0,0-.57.56v1.48a.67.67,0,0,0,.25.52Q14.71,38.21,29.16,49.73a4.11,4.11,0,0,0,2.57.9l.27,0,.26,0a4.12,4.12,0,0,0,2.58-.9Q49.27,38.18,63.75,26.67a.67.67,0,0,0,.25-.52V24.67A.57.57,0,0,0,63.43,24.11Z"/><path d="M63.38,36.64,39.31,56a12.14,12.14,0,0,1-15.12,0l-9.52-7.6L.61,37.17a.38.38,0,0,0-.61.29V68a1.68,1.68,0,0,0,1.69,1.68H62.31A1.69,1.69,0,0,0,64,68V36.93A.38.38,0,0,0,63.38,36.64Z"/><rect class="cls-2" x="76" y="34.15" width="248" height="56" rx="5"/><path class="cls-3" d="M118.61,68.39a6.85,6.85,0,0,1-.2,2,2.11,2.11,0,0,1-2.2,1.4,7.49,7.49,0,0,1-4.54-1.71,3.5,3.5,0,0,1-1.32-2.71,5.1,5.1,0,0,1,2.06-3.55,12.68,12.68,0,0,1,3.51-2l0-3.7-1,.05c-.36,0-.7,0-1.3,0l-1.32,0c-.31,0-.53,0-.6,0a3.56,3.56,0,0,0-.5,0l0-2.69a15.12,15.12,0,0,0,2.91.22c.24,0,.5,0,.84,0l1,0V54.06a16.38,16.38,0,0,0-.15-2.76h3a16,16,0,0,0-.14,2.62v1.54a26.41,26.41,0,0,0,4.63-.92l.1,2.69-2.54.43c-.8.15-1.28.22-2.19.32V61.1a16.63,16.63,0,0,1,4.9-.68c4,0,6.86,2.45,6.86,5.86a5.33,5.33,0,0,1-5.45,5.47A3.86,3.86,0,0,1,121,69.09a7.87,7.87,0,0,1-.41-3.07A10.34,10.34,0,0,0,123.21,65a10,10,0,0,0,0,1.06,4.64,4.64,0,0,0,.33,2.11A1.68,1.68,0,0,0,125,69a2.47,2.47,0,0,0,2.43-2.67c0-2.06-1.68-3.41-4.25-3.41a15.37,15.37,0,0,0-4.61.8Zm-2.72-3.86c-1.8,1-2.85,2-2.85,2.88a1.31,1.31,0,0,0,.79,1.1,2.86,2.86,0,0,0,1.54.53c.4,0,.52-.21.52-1Zm13.3-4.85a20.51,20.51,0,0,0-4.8-5.18L126.65,53a20.53,20.53,0,0,1,4.75,4.92Z"/><path class="cls-3" d="M137.13,66.76v1.37H134.3a17.69,17.69,0,0,0,.12-2.47V56.34a15.51,15.51,0,0,0-.12-2.3c.89.07,1.46.1,2.66.1h5.52v-.7a15.72,15.72,0,0,0-.14-2.62h3a14.11,14.11,0,0,0-.17,2.52v.8h5.69c1.37,0,1.89,0,2.76-.1a14.83,14.83,0,0,0-.12,2.28v9.34a16.47,16.47,0,0,0,.12,2.47h-2.86V66.76h-5.59V70a19.18,19.18,0,0,0,.17,3h-3a20.78,20.78,0,0,0,.16-3V66.76Zm0-10.22v2.68h5.35V56.54Zm0,5.06v2.76h5.35V61.6Zm8-2.38h5.59V56.54h-5.59Zm0,5.14h5.59V61.6h-5.59Z"/><path class="cls-3" d="M156.81,59.85a10.42,10.42,0,0,0,1.92.12h2a10.15,10.15,0,0,0,1.83-.12,22.45,22.45,0,0,0-.1,2.64v5A3,3,0,0,0,163.8,69c1.15.72,2.4.89,6.53.89a67.23,67.23,0,0,0,8.9-.5,13.1,13.1,0,0,0-.72,2.85c-2.14.07-5.62.15-7.27.15-3.94,0-5.88-.15-7.13-.56a5.72,5.72,0,0,1-3.05-2.25,21.15,21.15,0,0,1-2.47,2.13c-.41.32-.55.44-.72.58l-.36.29-1.18-2.74a15.28,15.28,0,0,0,3.58-2.35V62.37h-1.47a8.5,8.5,0,0,0-1.63.12Zm2.28-8.67a29.46,29.46,0,0,1,4.2,4.4l-2,1.94A24.72,24.72,0,0,0,157.17,53Zm7.73,3a11.66,11.66,0,0,0-2,.12v-2.6a10.3,10.3,0,0,0,2,.12h3.43a11.89,11.89,0,0,0,1.76-.09A12.49,12.49,0,0,0,172,53a16.53,16.53,0,0,0,1.58,7,14.5,14.5,0,0,0,5.28,6.16,11.58,11.58,0,0,0-1.58,2.52,17.35,17.35,0,0,1-3.84-3.74,17,17,0,0,1-2.69-5.69,14,14,0,0,1-2.62,5.86,15.28,15.28,0,0,1-3.24,3.29A13.38,13.38,0,0,0,163,66.26a13.27,13.27,0,0,0,3.17-3.07,15.67,15.67,0,0,0,2.66-5.72,17.56,17.56,0,0,0,.46-3.33Z"/><path class="cls-3" d="M183.33,52.36a13.82,13.82,0,0,0,2.43.12c1.44,0,3.57-.1,4.46-.22a1.76,1.76,0,0,0,1-.28l1.9,1.63a3.52,3.52,0,0,0-.51,1c-.12.28-1.58,4.7-1.8,5.44a19.89,19.89,0,0,1,5.31,1.52,26.34,26.34,0,0,0,.24-4.44,7.47,7.47,0,0,0-.1-1.28l3,.12a7.91,7.91,0,0,0-.15,1.61,39.63,39.63,0,0,1-.43,5.09c.77.38,1.82.94,2.57,1.37a7.89,7.89,0,0,0,1.1.57l-1.08,3.17A24.73,24.73,0,0,0,198,65.56a11.3,11.3,0,0,1-2.62,4.23,13.84,13.84,0,0,1-3.62,2.71,8.78,8.78,0,0,0-2.18-2.16,11.47,11.47,0,0,0,3.72-2.52,9.71,9.71,0,0,0,2.13-3.55,18.06,18.06,0,0,0-5.4-1.66,32,32,0,0,1-2.37,5.9c-.89,1.54-2,2.28-3.29,2.28-2.21,0-3.84-1.94-3.84-4.56a6,6,0,0,1,3-5.25A8.61,8.61,0,0,1,188,59.82c.62-1.89.91-2.8,1.51-5-1.22.09-1.8.12-4.15.21-1,0-1.42.08-1.9.15Zm.72,11.43a3.35,3.35,0,0,0-.91,2.3c0,1,.53,1.78,1.18,1.78.45,0,.81-.44,1.37-1.52a32,32,0,0,0,1.56-4A4.72,4.72,0,0,0,184.05,63.79Z"/><path class="cls-3" d="M222.6,54.83a3.57,3.57,0,0,0-.41,1.08c-1.2,4.59-2.62,7.47-4.92,10.06a23.37,23.37,0,0,1-8.93,6.12,8.8,8.8,0,0,0-2.11-2.86,19.62,19.62,0,0,0,5.26-2.44,16.67,16.67,0,0,0,7.27-10.47H207.33a19.07,19.07,0,0,0-3,.14V53.34a16.28,16.28,0,0,0,3.07.17h11a8.9,8.9,0,0,0,2.57-.24Z"/><path class="cls-3" d="M229.1,61.27a18.61,18.61,0,0,0-2.16.09V58.77a10.39,10.39,0,0,0,2.16.14h7V57.45a12.82,12.82,0,0,0-.12-1.9h2.8a11.39,11.39,0,0,0-.07,1.8l0,1.59h2.08a10.2,10.2,0,0,0,2.16-.15v2.59a17.83,17.83,0,0,0-2.18-.09h-2.06l.12,9.14a10.62,10.62,0,0,0,.14,2h-2.93a15,15,0,0,0,.1-2l0-6c0-.27,0-1.21,0-1.49a9.24,9.24,0,0,1-.82,1.34,22.91,22.91,0,0,1-7.77,6.34,7.76,7.76,0,0,0-1.78-2.26A21,21,0,0,0,231,65.2a17.84,17.84,0,0,0,3.5-3.93Z"/><path class="cls-3" d="M247,60.14a24.33,24.33,0,0,0,3.89.16h12.79a24.48,24.48,0,0,0,3.89-.16v3.33a26.38,26.38,0,0,0-3.91-.12H250.87a26.3,26.3,0,0,0-3.91.12Z"/><path class="cls-3" d="M280.44,52.22a7,7,0,0,0-.63,1.72,138.92,138.92,0,0,1-4.75,13.68,93.71,93.71,0,0,0,10-1.22c-.27-.57-.56-1.1-1.13-2.18a30.18,30.18,0,0,0-2.28-3.82l2.71-1.06a56.69,56.69,0,0,1,5.81,11.12L287.25,72a24.83,24.83,0,0,0-1.15-3l-.86.2c-2.43.5-6.41,1-13.59,1.7a13,13,0,0,0-2.18.29L269,67.94h.62c.48,0,1.06,0,2.06-.07,1.28-3,2.24-5.74,3.49-9.68A38.81,38.81,0,0,0,277,51.54Z"/></g></g></svg>