<svg xmlns="http://www.w3.org/2000/svg" xmlns:xlink="http://www.w3.org/1999/xlink" viewBox="0 0 69.15 74.38"><defs><style>.cls-1,.cls-2,.cls-3,.cls-4,.cls-5,.cls-6{fill-rule:evenodd;}.cls-1{fill:url(#radial-gradient);}.cls-2{fill:url(#radial-gradient-2);}.cls-3{fill:url(#linear-gradient);}.cls-4{fill:url(#linear-gradient-2);}.cls-5{fill:url(#linear-gradient-3);}.cls-6{fill:url(#radial-gradient-3);}.cls-7{fill:none;}.cls-8{fill:#fff;}.cls-9{fill:#a5a5a5;}</style><radialGradient id="radial-gradient" cx="-1.18" cy="-10.03" r="115.53" gradientUnits="userSpaceOnUse"><stop offset="0" stop-color="#fff"/><stop offset="0.5" stop-color="#faaf3a"/><stop offset="1" stop-color="#c3262d"/></radialGradient><radialGradient id="radial-gradient-2" cx="9.18" cy="1.21" r="95.3" xlink:href="#radial-gradient"/><linearGradient id="linear-gradient" x1="38.57" y1="27.52" x2="11.58" y2="54.76" gradientUnits="userSpaceOnUse"><stop offset="0" stop-color="#ec9422"/><stop offset="1" stop-color="#fff"/></linearGradient><linearGradient id="linear-gradient-2" x1="43.28" y1="10.43" x2="20.36" y2="53.62" xlink:href="#linear-gradient"/><linearGradient id="linear-gradient-3" x1="-1.12" y1="77.83" x2="67.47" y2="6.27" xlink:href="#linear-gradient"/><radialGradient id="radial-gradient-3" cx="48.63" cy="-54.76" r="126.84" xlink:href="#radial-gradient"/></defs><title>oshigoto-denki-mark</title><g id="レイヤー_2" data-name="レイヤー 2"><g id="メインロゴ1"><path class="cls-1" d="M34.57,0A34.58,34.58,0,0,0,4.22,51.14c4.61-13.36,13.13-25.32,24.3-36.32L29.3,28A137.83,137.83,0,0,1,55.75,7.24,34.47,34.47,0,0,0,34.57,0ZM58.22,9.34c-12.81,13.07-23.58,30-32.21,51l-4.1-13.09a53.57,53.57,0,0,0-6.57,16.07,34.58,34.58,0,0,0,42.88-54Z"/><path class="cls-2" d="M5.84,46.88C10.7,35.22,18.55,24.63,28.52,14.82L29.3,28A136.92,136.92,0,0,1,52.73,9.13,31.26,31.26,0,0,0,5.84,46.88Z"/><path class="cls-3" d="M15.34,63.31a53.57,53.57,0,0,1,6.57-16.07l1.56-16.82C16.4,38.64,12,48,9,57.86a35.45,35.45,0,0,0,6.34,5.45Z"/><polygon class="cls-4" points="26.01 60.33 26.27 42.33 23.46 30.42 21.91 47.24 26.01 60.33"/><path class="cls-5" d="M26,60.33c8.63-21,19.4-37.92,32.21-51A118,118,0,0,1,67.77.62Q62.25,4.19,57,8.29a135.2,135.2,0,0,0-30.77,34Z"/><path class="cls-6" d="M17.22,64.49a54,54,0,0,1,4.68-8.34l3,11.64,1,.29C36.46,46.14,53.42,23.52,68.27,26.81a33.22,33.22,0,0,0-7.7-15.08A60.18,60.18,0,0,1,67.77.62a118,118,0,0,0-9.55,8.72c-12.81,13.07-23.58,30-32.21,51l-4.1-13.09a53.57,53.57,0,0,0-6.57,16.07,60.23,60.23,0,0,0-1.43,11.07,54.47,54.47,0,0,1,3.31-9.89Z"/><path class="cls-7" d="M35.05,67.09l.83,0c-.06-1.57-.1-2.64-.1-2.64Z"/><path class="cls-7" d="M34.66,2.4a32.35,32.35,0,0,0-9.81,63.18l1.09-6.87c-.48-.25-.75-.43-.75-.43.35-1.08,2.36-9.53,1.77-12.76a24.79,24.79,0,0,0-2.84-6.84,35.39,35.39,0,0,1-2.91-4.32c-.6-1.18-2.47-5.79,1.56-7.85,1.16-.6,5.92-.69,6.88-.76,0,0,1.41-.63,1.51-.64l.18,0a23.37,23.37,0,0,0,.3-3.43c0-1.52-.8-4.39-1-6.19h0c0-.1,0-.19,0-.28s0-.1,0-.15a1.7,1.7,0,0,1,0-.22.86.86,0,0,1,0-.16v-.18a.57.57,0,0,1,0-.13.85.85,0,0,1,.05-.24c.36-1.07,7.78-2.27,7.78-2.27a3,3,0,0,1-.85,1.22S40.27,23,39.71,23.5a1.17,1.17,0,0,1-.26.18l-.09.05-.08,0h0a13,13,0,0,1-2.46.71l.31,1.9.3.06,1.66,1.38a45.63,45.63,0,0,1,6.12,3c4.3,3.37,6.89,7.71,6.89,8.65s-.47,2.78-1.48,3.14l-.23.08h0a12.14,12.14,0,0,1-7.58-.23s0,1.94,0,2.58S45,58,45,58a1.89,1.89,0,0,1-.71.43h0v0h0a1,1,0,0,1,0,.16V59c0,.1,0,.22,0,.34v.06c0,1.32-.13,3.65-.23,6.32A32.35,32.35,0,0,0,34.66,2.4Z"/><path d="M30.6,15.52c0-.1,0-.19,0-.28C30.57,15.33,30.58,15.42,30.6,15.52Z"/><path d="M30.53,14.71v0Z"/><path d="M30.55,15.09a1.7,1.7,0,0,1,0-.22A1.7,1.7,0,0,0,30.55,15.09Z"/><path d="M39.45,23.68l-.09.05Z"/><path d="M39.3,32.56h0l-1.42-.18h0l-1.4-.17,3.88.48Z"/><path d="M30.54,14.4a.85.85,0,0,1,.05-.24A.85.85,0,0,0,30.54,14.4Z"/><polygon points="42.83 33.24 42.83 33.24 42.83 33.24 42.83 33.24"/><path d="M35.39,24.7l1.43-.22a13,13,0,0,0,2.46-.71L36,13.72a7.58,7.58,0,0,0,1.48-.61,3,3,0,0,0,.85-1.22,26.44,26.44,0,0,1-4.54,1.77,5.35,5.35,0,0,0-3.23,1.86c.24,1.8,1,4.67,1,6.19a23.37,23.37,0,0,1-.3,3.43l4.7,2.7Z"/><path d="M44.34,58.92v0Z"/><path d="M44.35,58.42h0l0,0Z"/><path d="M44.34,58.61v0Z"/><path d="M41.59,59.28a16.52,16.52,0,0,0,2.74-.86s-2.22-11.91-2.28-12.91,0-3.23,0-3.23l.81.16a12.14,12.14,0,0,0,7.58.23A4.1,4.1,0,0,0,51,38.73a22.58,22.58,0,0,0-5.36-7.09A49,49,0,0,0,39,28.34l-1.9-2a14,14,0,0,1,3.24,6.31l1.73.2a2.17,2.17,0,0,1,.73.35l1.63.26a7.35,7.35,0,0,1,.54.64h0a6.74,6.74,0,0,1,2.31.46,6.68,6.68,0,0,1,1.47,2h-.44S47.63,35,47.1,34.85a11.08,11.08,0,0,0-1.81-.27l0,0a1.45,1.45,0,0,1,.13.29H45l-.7-1.13s-.69-.1-.93-.12c-1.57,0-6.74-.47-7.19-.57-5.54-1.18-6.79-2.92-7.51-3.59a6.25,6.25,0,0,1-1.12-2.31A18.3,18.3,0,0,0,30,29.57c1.83,1.26,6.49,2.64,6.49,2.64-.83-1.58-5.14-7.07-5.14-7.07l-.18,0c-.1,0-1.51.64-1.51.64-1,.07-5.72.16-6.88.76-4,2.06-2.16,6.67-1.56,7.85a35.39,35.39,0,0,0,2.91,4.32A24.79,24.79,0,0,1,27,45.52c.59,3.23-1.42,11.68-1.77,12.76,0,0,.27.18.75.43l-1.09,6.87a32.31,32.31,0,0,0,9.69,1.51l1.31-4.29-.07,1.63s0,1.07.1,2.64a32.36,32.36,0,0,0,7.49-1.17l.18-6.62A13.52,13.52,0,0,1,41.59,59.28Zm-14-21.22a29.55,29.55,0,0,0,7.61,1.52c3.17,0,9.46-.73,9.46-.73a66.78,66.78,0,0,1-8.77,1.25C32.22,40.25,27.55,38.06,27.55,38.06Zm13.07,9.71s-1.4-5.94-1.81-6.77a21.77,21.77,0,0,0,2.38.84S40.91,45.6,40.62,47.77Z"/><path d="M44.32,59.32v0Z"/><path class="cls-8" d="M37.88,32.38l0-.64L37,30.44l-.53.55,1.08-2.27L36,27.84h0l-4.7-2.7s4.31,5.49,5.14,7.07Z"/><path class="cls-8" d="M39.36,30.08l-.59-.23.1,1.72.43,1,1.06.13h0a14,14,0,0,0-3.24-6.31l.43,2.34Z"/><polygon points="37.56 28.72 36.48 30.99 37.01 30.45 36.85 30.21 37.56 28.72"/><polygon points="38.77 29.85 39.36 30.08 37.56 28.72 38.76 29.62 38.77 29.85"/><path d="M39.3,32.56h0l-.43-1-.1-1.72v-.23l-1.2-.9-.71,1.49.16.23.91,1.3,0,.64h0Z"/><path d="M40.62,47.77c.29-2.17.57-5.93.57-5.93A21.77,21.77,0,0,1,38.81,41C39.22,41.83,40.62,47.77,40.62,47.77Z"/><path class="cls-9" d="M36.48,32.21S31.82,30.83,30,29.57a18.3,18.3,0,0,1-2.44-2.44,6.25,6.25,0,0,0,1.12,2.31c.72.67,2,2.41,7.51,3.59.45.1,5.62.54,7.19.57.24,0,.93.12.93.12l.7,1.13h.4a1.45,1.45,0,0,0-.13-.29,2.72,2.72,0,0,0-.27-.42,7.35,7.35,0,0,0-.54-.64l-1.63-.26h0a2.17,2.17,0,0,0-.73-.35l-1.73-.2h0Z"/><path class="cls-9" d="M45.61,31.64A22.58,22.58,0,0,1,51,38.73a4.1,4.1,0,0,1-.58,3.94h0l.23-.08c1-.36,1.48-2.21,1.48-3.14s-2.59-5.28-6.89-8.65a45.63,45.63,0,0,0-6.12-3l-1.66-1.38-.3-.06,1.9,2A49,49,0,0,1,45.61,31.64Z"/><path class="cls-9" d="M42.05,45.51c.06,1,2.28,12.91,2.28,12.91A1.89,1.89,0,0,0,45,58s-2.21-12.34-2.21-13,0-2.58,0-2.58L42,42.28S42,44.51,42.05,45.51Z"/><path class="cls-9" d="M44.32,59.32c0-.12,0-.24,0-.34v-.37a1,1,0,0,0,0-.16h0l0,0a16.52,16.52,0,0,1-2.74.86,13.52,13.52,0,0,0,2,0l-.18,6.62.72-.2c.1-2.67.19-5,.23-6.32Z"/><path class="cls-9" d="M35.85,62.8l-1.31,4.29h.51l.73-2.66Z"/><path class="cls-9" d="M35.16,39.58a29.55,29.55,0,0,1-7.61-1.52s4.67,2.19,8.3,2a66.78,66.78,0,0,0,8.77-1.25S38.33,39.57,35.16,39.58Z"/><path class="cls-9" d="M33.83,13.66a26.44,26.44,0,0,0,4.54-1.77s-7.42,1.2-7.78,2.27a.85.85,0,0,0-.05.24.57.57,0,0,0,0,.13v.18a.86.86,0,0,0,0,.16,1.7,1.7,0,0,0,0,.22c0,.05,0,.1,0,.15s0,.18,0,.28h0A5.35,5.35,0,0,1,33.83,13.66Z"/><path class="cls-9" d="M39.28,23.77h0l.08,0,.09-.05a1.17,1.17,0,0,0,.26-.18c.56-.55-2.19-10.39-2.19-10.39a7.58,7.58,0,0,1-1.48.61Z"/><polygon class="cls-9" points="36.04 27.84 36.04 27.84 37.56 28.72 37.13 26.38 36.82 24.48 35.39 24.7 36.04 27.84"/><path class="cls-9" d="M45.29,34.58a11.08,11.08,0,0,1,1.81.27c.53.18,1.24,1.79,1.24,1.79h.44a6.68,6.68,0,0,0-1.47-2A6.74,6.74,0,0,0,45,34.13h0a2.72,2.72,0,0,1,.27.42Z"/></g></g></svg>