<svg xmlns="http://www.w3.org/2000/svg" xmlns:xlink="http://www.w3.org/1999/xlink" viewBox="0 0 309.34 156.61"><defs><style>.cls-1{fill:none;}.cls-11,.cls-2,.cls-3,.cls-4,.cls-5,.cls-6,.cls-7,.cls-9{fill-rule:evenodd;}.cls-2{fill:url(#名称未設定グラデーション_10);}.cls-3{fill:url(#名称未設定グラデーション_10-2);}.cls-4{fill:url(#名称未設定グラデーション_11);}.cls-5{fill:url(#名称未設定グラデーション_11-2);}.cls-6{fill:url(#名称未設定グラデーション_11-3);}.cls-7{fill:url(#名称未設定グラデーション_10-3);}.cls-8{clip-path:url(#clip-path);}.cls-9{fill:#d7d7d7;}.cls-10{fill:#fff;}.cls-11,.cls-12{fill:#a5a5a5;}</style><radialGradient id="名称未設定グラデーション_10" cx="-1.58" cy="1510.54" r="152.33" gradientTransform="matrix(1, 0, 0, -1, 0, 1497.32)" gradientUnits="userSpaceOnUse"><stop offset="0" stop-color="#fff"/><stop offset="0.5" stop-color="#faaf3a"/><stop offset="1" stop-color="#c3262d"/></radialGradient><radialGradient id="名称未設定グラデーション_10-2" cx="12.08" cy="1495.72" r="125.66" xlink:href="#名称未設定グラデーション_10"/><linearGradient id="名称未設定グラデーション_11" x1="50.83" y1="1461.04" x2="15.25" y2="1425.11" gradientTransform="matrix(1, 0, 0, -1, 0, 1497.32)" gradientUnits="userSpaceOnUse"><stop offset="0" stop-color="#ec9422"/><stop offset="1" stop-color="#fff"/></linearGradient><linearGradient id="名称未設定グラデーション_11-2" x1="57.05" y1="1483.57" x2="26.83" y2="1426.62" xlink:href="#名称未設定グラデーション_11"/><linearGradient id="名称未設定グラデーション_11-3" x1="-1.5" y1="1394.69" x2="88.94" y2="1489.06" xlink:href="#名称未設定グラデーション_11"/><radialGradient id="名称未設定グラデーション_10-3" cx="64.09" cy="1569.53" r="167.24" xlink:href="#名称未設定グラデーション_10"/><clipPath id="clip-path"><circle class="cls-1" cx="45.67" cy="45.82" r="42.65"/></clipPath></defs><title>oshigoto-denki-logo</title><g id="レイヤー_2" data-name="レイヤー 2"><g id="レイヤー_1-2" data-name="レイヤー 1"><path class="cls-2" d="M45.56,0a45.6,45.6,0,0,0-40,67.42c6.09-17.61,17.31-33.37,32-47.88l1,17.39A181,181,0,0,1,73.43,9.55,45.44,45.44,0,0,0,45.56,0ZM76.74,12.32C59.85,29.55,45.64,51.85,34.28,79.55L28.87,62.28a70.31,70.31,0,0,0-8.66,21.2A45.59,45.59,0,0,0,76.74,12.32Z"/><path class="cls-3" d="M7.68,61.81c6.41-15.37,16.75-29.33,29.9-42.27l1,17.39A179.18,179.18,0,0,1,69.5,12,41.22,41.22,0,0,0,7.68,61.77Z"/><path class="cls-4" d="M20.21,83.48a70.31,70.31,0,0,1,8.66-21.2l2.05-22.17C21.61,50.94,15.8,63.22,11.85,76.28a46.69,46.69,0,0,0,8.36,7.2Z"/><polygon class="cls-5" points="34.28 79.55 34.61 55.82 30.92 40.11 28.87 62.28 34.28 79.55"/><path class="cls-6" d="M34.28,79.55c11.36-27.7,25.57-50,42.46-67.23A152.52,152.52,0,0,1,89.34.81Q82.05,5.54,75.18,10.93A178.17,178.17,0,0,0,34.63,55.82Z"/><path class="cls-7" d="M22.68,85a69,69,0,0,1,6.18-11l4,15.36,1.39.38C48.05,60.81,70.41,31,90,35.32A43.83,43.83,0,0,0,79.85,15.44,78.72,78.72,0,0,1,89.34.78a152.52,152.52,0,0,0-12.6,11.51C59.85,29.52,45.64,51.82,34.28,79.52L28.87,62.25a70.31,70.31,0,0,0-8.66,21.2A77.94,77.94,0,0,0,18.32,98a70.94,70.94,0,0,1,4.36-13Z"/><g class="cls-8"><path class="cls-9" d="M73.73,145.32c0,6.24-13.81,11.29-30.84,11.29s-30.83-5.05-30.83-11.29S25.86,134,42.89,134,73.73,139.09,73.73,145.32Z"/><path d="M59.63,40.62a60.79,60.79,0,0,0-8.07-3.94l-2.19-1.81L49,34.78l-.42-2.51s3.07-.56,3.81-1.28-2.88-13.71-2.88-13.71a4,4,0,0,0,1.12-1.6s-9.78,1.57-10.26,3,1.37,7.28,1.39,10a32.71,32.71,0,0,1-.4,4.52l-.23-.05c-.14,0-2,.85-2,.85-1.27.09-7.54.21-9.08,1-5.3,2.72-2.84,8.8-2.05,10.35A46.48,46.48,0,0,0,31.82,51a33.06,33.06,0,0,1,3.75,9c.77,4.26-1.88,15.41-2.34,16.84,0,0,.36.23,1,.55,0,0-9.63,60.71-10,62.61l1.12.5c-.22.82-.45,1.67-.61,2.4a20.61,20.61,0,0,0-.69,3.48c0,.64,1.1,5.73,1.53,6.05s4.21.23,4.76,0,2.07-6.54,2.2-7.28a18.27,18.27,0,0,0,0-3.77,10.09,10.09,0,0,0,1.64-.67s5.52-26.84,6.3-31.13L47.15,85s.78,19.64.82,20.19-.41,23.79-.48,25.67c0,0,.4.32,1,.73a20.84,20.84,0,0,0-.28,2.85,12,12,0,0,0,.18,2.24,13.84,13.84,0,0,0,3.38.58l.69-.47a3,3,0,0,1,1.34.68,9.69,9.69,0,0,0,3.32,1.25,22.21,22.21,0,0,0,5.87-.26c.43-.22.25-1.05-.34-1.5s-2.4-1.05-3.36-1.65c-.76-.47-2.61-1.76-3.37-2.34l.78-.11s.94-23.25.82-26.42.89-26.74.93-29.37h0a2.67,2.67,0,0,0,.94-.57s-2.92-16.26-2.92-17.11V56a16,16,0,0,0,10.3.21c1.34-.48,2-2.92,2-4.15S65.25,45.07,59.63,40.62Z"/><path class="cls-10" d="M53.2,43.1l-5.13-.63C47,40.38,41.3,33.15,41.3,33.15l8.2,4.71-.56-3.08C52.68,39.3,53.2,43.1,53.2,43.1Zm-2.05,11c.54,1.09,2.38,8.93,2.38,8.93.39-2.87.76-7.82.76-7.82a31.87,31.87,0,0,1-3.14-1.15Z"/><polygon points="49.51 37.86 51.88 39.66 49.96 38.93 48.07 40.86 49.51 37.86"/><path d="M51.15,54.06a31.61,31.61,0,0,0,3.14,1.11s-.37,5-.76,7.82C53.53,63,51.69,55.15,51.15,54.06Zm-.07-15L49.5,37.87l-.94,2,1.42,2-.06.85,1.87.23c-.35-.83-.56-1.3-.56-1.3Z"/><path class="cls-11" d="M58.63,44.17l-2.15-.34h0a2.85,2.85,0,0,0-1-.46c-.49,0-7.42-.9-7.42-.9S41.92,40.64,39.51,39a24.42,24.42,0,0,1-3.21-3.22,8.24,8.24,0,0,0,1.47,3c1,.89,2.59,3.18,9.91,4.73.58.13,7.4.71,9.47.75a12.39,12.39,0,0,1,1.23.16l.92,1.49h.53A5.9,5.9,0,0,0,58.63,44.17Z"/><path class="cls-12" d="M66.72,56.17c1.34-.48,2-2.92,2-4.15s-3.43-7-9.09-11.4a60.79,60.79,0,0,0-8.07-3.94l-2.19-1.81L49,34.78l2.5,2.58a63.91,63.91,0,0,1,8.67,4.36c2,1.32,6.14,6.81,7.07,9.34a5.44,5.44,0,0,1-.77,5.22Z"/><path class="cls-12" d="M59.37,76.46S56.45,60.2,56.45,59.35V56l-1.07-.21s0,2.94.08,4.25,3,17,3,17A2.71,2.71,0,0,0,59.37,76.46Z"/><path class="cls-12" d="M56.7,132.81s.94-23.25.82-26.42.88-26.52.93-29.33h0a21.7,21.7,0,0,1-3.62,1.13,18.66,18.66,0,0,0,2.59,0L55.94,133Z"/><path class="cls-12" d="M39,111.81c-.66,3.62-6.46,29.62-6.46,29.62a10.09,10.09,0,0,0,1.64-.67s5.52-26.84,6.3-31.13L47.15,85l.1-2.15S39.87,106.75,39,111.81Z"/><path class="cls-12" d="M58.81,51.22a86.5,86.5,0,0,1-11.56,1.65c-4.79.21-10.94-2.68-10.94-2.68s5.84,2,10,2S58.81,51.22,58.81,51.22Z"/><path class="cls-12" d="M40.31,18.67a4.5,4.5,0,0,0,0,1.79A7,7,0,0,1,44.63,18a37.06,37.06,0,0,0,6-2.33S40.79,17.25,40.31,18.67Z"/><path class="cls-12" d="M52.33,31c.74-.73-2.88-13.71-2.88-13.71a9.83,9.83,0,0,1-2,.8l4.28,13.26A2,2,0,0,0,52.33,31Z"/><polygon class="cls-12" points="48.52 32.27 46.64 32.56 47.49 36.71 49.51 37.86 48.94 34.78 48.52 32.27"/><path class="cls-12" d="M62.63,136.91c-.59-.44-2.4-1-3.36-1.65-.76-.47-2.61-1.76-3.37-2.34H54.56s3.25,2.84,4.91,3.26a7.58,7.58,0,0,1,3.56,2.2C63.4,138.11,63.21,137.34,62.63,136.91Z"/><path class="cls-11" d="M62.36,45.61a8.62,8.62,0,0,0-3-.6,4,4,0,0,1,.38.59,15,15,0,0,1,2.39.35c.7.24,1.63,2.37,1.63,2.37h.58A8.66,8.66,0,0,0,62.36,45.61Z"/><path class="cls-12" d="M30.63,141.43a24.31,24.31,0,0,1,1,4.55c-.06.9-1,4.93-2.26,6.63a6.67,6.67,0,0,0,1-.13c.55-.2,2.07-6.54,2.2-7.28a18.27,18.27,0,0,0,0-3.77A12.56,12.56,0,0,1,30.63,141.43Z"/></g><path d="M129.46,43a9.75,9.75,0,0,1,2,4,12.91,12.91,0,0,1,.39,4.87,8.23,8.23,0,0,1-.42,1.83,21.39,21.39,0,0,1-1,2.43,8.87,8.87,0,0,1-2,2.59,8.42,8.42,0,0,1-3.24,1.8v-3a5.38,5.38,0,0,0,2.66-2.32,9.07,9.07,0,0,0,1.21-2.91l.17-1.35v-.58a10.39,10.39,0,0,0-.09-1.37,9.5,9.5,0,0,0-.38-1.91,6.38,6.38,0,0,0-1-1.94,6.09,6.09,0,0,0-1.88-1.69,12.71,12.71,0,0,0-4-1.17,19.13,19.13,0,0,0-4.41-.09,22.76,22.76,0,0,0-4,.76V48c0,4.17-.74,7.15-2.23,9a5.34,5.34,0,0,1-4.59,1.16,5.2,5.2,0,0,1-3.79-2.69,8.19,8.19,0,0,1-.56-6.36A12.1,12.1,0,0,1,105.68,44a14.37,14.37,0,0,1,5.21-3.09V34.6h-6.42V32.2h6.42V27.32h2.58V32.2h9v2.48h-9V40.2l2.38-.39a26.18,26.18,0,0,1,3.19-.23,19.81,19.81,0,0,1,3.77.18,15.27,15.27,0,0,1,3.51,1.05A8.74,8.74,0,0,1,129.46,43Zm-18.75,8.83c.12-1.27.17-2.52.17-3.74V43.85a9.62,9.62,0,0,0-4.3,3,7.4,7.4,0,0,0-1.84,5,3.57,3.57,0,0,0,2.41,3.61,2,2,0,0,0,2.3-.71,5.33,5.33,0,0,0,1.26-2.88ZM128.8,28.74l4.83,9.56h-3l-4.87-9.52Z"/><path d="M144.33,36.74v22.9h-2.6v-18a51.29,51.29,0,0,1-3.58,5.06l-1.42-2.2a42.21,42.21,0,0,0,7.91-16l2.56.71A59.53,59.53,0,0,1,144.33,36.74Zm14,1.78h10.14v2.37H158.32V55.57h8.9v2.37H147V55.57h8.65V40.89H146V38.52h9.6v-9.9h2.67Z"/><path d="M187.07,35.44V33.38H173.38v-2h13.69V27.77h2.56v3.61h13.94v2H189.63v2.06h10.14v6.09H189.63v2.06h10.6v3.83h4.17v2.09h-4.17V55h-2.44V53.47h-8.16v3.69a2.35,2.35,0,0,1-.74,2,4.36,4.36,0,0,1-2.38.47c-1.26,0-2.6-.07-4-.21l-.42-2.55a20.54,20.54,0,0,0,3.83.45c.81,0,1.21-.34,1.21-1V53.48H175.4V51.53h11.67V49.48H172.49V47.53h14.58V45.59h-11.7v-2h11.7V41.53h-9.94V35.44Zm0,1.84h-7.56v2.37h7.56Zm2.51,0v2.37h7.77V37.28Zm0,10.21h8.21V45.55h-8.16Zm0,4h8.21V49.44h-8.16Z"/><path d="M232.46,33.12A23.78,23.78,0,0,0,227.63,37a22.68,22.68,0,0,0-4,5.71A11.42,11.42,0,0,0,222.27,49a7.39,7.39,0,0,0,1.84,3.69,10.47,10.47,0,0,0,3.19,2.49,23.25,23.25,0,0,0,3,1.27,7.16,7.16,0,0,0,1.82.41v2.77a26.6,26.6,0,0,1-3.39-.94,21.18,21.18,0,0,1-3.21-1.48,14,14,0,0,1-2.82-2.08,10.8,10.8,0,0,1-2.06-2.78,8.79,8.79,0,0,1-1-3.47A14.87,14.87,0,0,1,222,40.16a25.57,25.57,0,0,1,6.24-7.07H210.82V30.58h27.27v2.51ZM231,35.44h2.2l3.5,7.75h-2.22Zm4.19,0h2.2l3.49,7.75h-2.22Z"/><path d="M269,41.46a15,15,0,0,1,3.32,5.15A9.82,9.82,0,0,1,272.8,52a8,8,0,0,1-2.73,4.6,7.21,7.21,0,0,1-6,.79,5.68,5.68,0,0,1-1.47-.7,6.12,6.12,0,0,1-1.31-1.23c-.43-.52-.74-.92-.94-1.21l-1-1.46a12.58,12.58,0,0,0-1.13-1.4,4.42,4.42,0,0,0-1.32-.9,4.47,4.47,0,0,0-2-.42,10.65,10.65,0,0,0-3.33,1.12,11.81,11.81,0,0,0-3.06,2.19A16.28,16.28,0,0,0,246,57.86h-2.77l15-29.86h2.93L250.27,49.28q5.56-2.84,8.83-.7a11,11,0,0,1,2.68,3,11.68,11.68,0,0,0,2.1,2.65,3.78,3.78,0,0,0,3.31,1A4.39,4.39,0,0,0,270,52.94a6,6,0,0,0,.47-2.33,10.56,10.56,0,0,0-.36-2.85,11.58,11.58,0,0,0-1.42-3.12,16.29,16.29,0,0,0-2.81-3.22Z"/><path d="M280.63,43.47V41h13.83l-1.09-6.13h-10.9V32.5h10.4l-1-5.54h2.76l.95,5.54h11.85v2.37H296.08L297.17,41h12.17v2.51H297.7l1.2,7.38h-2.62l-1.35-7.38Zm.79,4.16h2.65a8,8,0,0,0,1.41,5.26A7.72,7.72,0,0,0,288.9,56a16.1,16.1,0,0,0,5.16,1.19,51,51,0,0,0,6.54.12q3.5-.13,4.29-.12v2.55q-12.28.78-17.53-1.79a9.39,9.39,0,0,1-2.21-1.48,8,8,0,0,1-1.57-1.81,13.88,13.88,0,0,1-1-1.91,10.32,10.32,0,0,1-.64-1.87q-.19-.88-.3-1.56c-.07-.45-.11-.82-.14-1.09Z"/><path d="M147,74.43a2.91,2.91,0,0,1-.82,2,2.73,2.73,0,0,1-3.84.16l-.16-.16a2.86,2.86,0,0,1-.86-2v-4a2.85,2.85,0,0,1,4.81-2.12l0,0a2.91,2.91,0,0,1,.82,2.09Zm-1-4a2,2,0,0,0-.51-1.4,1.81,1.81,0,0,0-1.35-.53,1.79,1.79,0,0,0-1.31.54,1.86,1.86,0,0,0-.55,1.39v4a1.88,1.88,0,0,0,.56,1.34,1.74,1.74,0,0,0,1.3.58,1.78,1.78,0,0,0,1.34-.56,2,2,0,0,0,.52-1.36Z"/><path d="M155.86,70.2v.1h-1v-.56a.54.54,0,0,0,0-.18l-.07-.19a.66.66,0,0,0-.11-.24c-.26-.47-.83-.7-1.73-.7a1.61,1.61,0,0,0-.31,0,2.16,2.16,0,0,0-.43.14,1.86,1.86,0,0,0-.45.27,1.29,1.29,0,0,0-.33.47,1.64,1.64,0,0,0-.14.69,1.43,1.43,0,0,0,.44,1,2.57,2.57,0,0,0,1,.69,24.58,24.58,0,0,1,2.33.93,1.68,1.68,0,0,1,.75.72,2.44,2.44,0,0,1,.29,1.22,2.71,2.71,0,0,1-.78,2.07,2.89,2.89,0,0,1-2.07.77,5.38,5.38,0,0,1-1.44-.2,2.45,2.45,0,0,1-1.67-1.51,3.13,3.13,0,0,1-.23-1.17v-.11h1v.09a2,2,0,0,0,.72,1.46,2.36,2.36,0,0,0,1.5.46,2.2,2.2,0,0,0,1.52-.48,1.64,1.64,0,0,0,.48-1.36,1.19,1.19,0,0,0-.25-.81,1.88,1.88,0,0,0-.65-.46c-.2-.1-.78-.31-1.73-.64a3.58,3.58,0,0,1-1.07-.58,3,3,0,0,1-.65-.67,2.43,2.43,0,0,1-.32-.67,2.85,2.85,0,0,1-.14-.5V70a2.63,2.63,0,0,1,.28-1.35,2.14,2.14,0,0,1,.54-.62,2.31,2.31,0,0,1,.64-.38,3.09,3.09,0,0,1,.59-.18,1.74,1.74,0,0,1,.45-.06H153a3.53,3.53,0,0,1,1.57.31,2.09,2.09,0,0,1,1,.81A3,3,0,0,1,155.86,70.2Z"/><path d="M163.41,71.67V67.61h1v9.53h-1V72.63h-3.78v4.51h-1V67.61h1v4.06Z"/><path d="M168.14,68.6v-1h4.19v1h-1.59v7.56h1.59v1h-4.19v-1h1.6V68.6Z"/><path d="M181.94,72v2.48a3,3,0,0,1-.51,1.6l.86.89-.71.7-.85-.9a2,2,0,0,1-.71.44,2.73,2.73,0,0,1-3-.7,2.85,2.85,0,0,1-.82-2.05v-4a2.9,2.9,0,0,1,.81-2.09,2.7,2.7,0,0,1,2-.84,2.74,2.74,0,0,1,2,.84,2.84,2.84,0,0,1,.82,2.06v.09h-1v-.09a1.85,1.85,0,0,0-1.79-1.91H179a1.79,1.79,0,0,0-1.31.54,1.89,1.89,0,0,0-.54,1.39v4a1.84,1.84,0,0,0,.56,1.34,1.73,1.73,0,0,0,1.29.58,1.76,1.76,0,0,0,1.31-.57,1.88,1.88,0,0,0,.56-1.34V73h-2V72Z"/><path d="M190.72,74.43a2.85,2.85,0,0,1-.82,2,2.72,2.72,0,0,1-3.83.17,1.37,1.37,0,0,1-.17-.17,2.79,2.79,0,0,1-.87-2v-4a2.85,2.85,0,0,1,.86-2.08,2.79,2.79,0,0,1,4,0,2.9,2.9,0,0,1,.81,2.09Zm-1-4a1.85,1.85,0,0,0-3.18-1.4,1.86,1.86,0,0,0-.55,1.39v4a1.88,1.88,0,0,0,.56,1.34,1.81,1.81,0,0,0,2.56.08l.08-.08a2,2,0,0,0,.53-1.36Z"/><path d="M193.56,68.6v-1h6.24v1h-2.64v8.54h-1V68.6Z"/><path d="M208.22,74.43a2.86,2.86,0,0,1-.83,2,2.66,2.66,0,0,1-2,.87,2.71,2.71,0,0,1-2-.88,2.86,2.86,0,0,1-.86-2v-4a2.85,2.85,0,0,1,4.81-2.12l0,0a2.91,2.91,0,0,1,.82,2.09Zm-1-4a2,2,0,0,0-.51-1.4,1.81,1.81,0,0,0-1.36-.53A1.79,1.79,0,0,0,204,69a1.89,1.89,0,0,0-.54,1.39v4a1.84,1.84,0,0,0,.56,1.34,1.73,1.73,0,0,0,1.29.58,1.78,1.78,0,0,0,1.34-.56,2,2,0,0,0,.53-1.36Z"/><path d="M211.44,71.64h5.24v1h-5.24Z"/><path d="M225.72,70.54v3.69a2.87,2.87,0,0,1-.82,2.08,2.66,2.66,0,0,1-2,.83h-2.47V67.61h2.47a2.64,2.64,0,0,1,2,.88A2.91,2.91,0,0,1,225.72,70.54Zm-2.83-1.9h-1.47v7.48h1.47a1.74,1.74,0,0,0,1.32-.56,1.89,1.89,0,0,0,.53-1.35V70.55a2,2,0,0,0-.53-1.34A1.75,1.75,0,0,0,222.89,68.64Z"/><path d="M229.26,77.14V67.61h4.91v1h-3.91v3.12h3.12v1h-3.12v3.44h3.91v1Z"/><path d="M242.13,73V67.63h1v9.53h-1V74.5l-3.74-4v6.66h-1V67.63h1v1.54Z"/><path d="M251.14,67.62h1.49L248,72.17l4.68,5h-1.45L247.3,73v4.2h-1V67.65h1v3.93Z"/><path d="M255.63,68.6v-1h4.19v1h-1.6v7.56h1.6v1h-4.19v-1h1.6V68.6Z"/></g></g></svg>