<svg xmlns="http://www.w3.org/2000/svg" xmlns:xlink="http://www.w3.org/1999/xlink" viewBox="0 0 234.63 74.38"><defs><style>.cls-1,.cls-2,.cls-3,.cls-4,.cls-5,.cls-6{fill-rule:evenodd;}.cls-1{fill:url(#radial-gradient);}.cls-2{fill:url(#radial-gradient-2);}.cls-3{fill:url(#linear-gradient);}.cls-4{fill:url(#linear-gradient-2);}.cls-5{fill:url(#linear-gradient-3);}.cls-6{fill:url(#radial-gradient-3);}.cls-7{fill:none;}.cls-8{fill:#fff;}.cls-9{fill:#a5a5a5;}</style><radialGradient id="radial-gradient" cx="-1.18" cy="-10.03" r="115.53" gradientUnits="userSpaceOnUse"><stop offset="0" stop-color="#fff"/><stop offset="0.5" stop-color="#faaf3a"/><stop offset="1" stop-color="#c3262d"/></radialGradient><radialGradient id="radial-gradient-2" cx="9.18" cy="1.21" r="95.3" xlink:href="#radial-gradient"/><linearGradient id="linear-gradient" x1="38.57" y1="27.52" x2="11.58" y2="54.76" gradientUnits="userSpaceOnUse"><stop offset="0" stop-color="#ec9422"/><stop offset="1" stop-color="#fff"/></linearGradient><linearGradient id="linear-gradient-2" x1="43.28" y1="10.43" x2="20.36" y2="53.62" xlink:href="#linear-gradient"/><linearGradient id="linear-gradient-3" x1="-1.12" y1="77.83" x2="67.47" y2="6.27" xlink:href="#linear-gradient"/><radialGradient id="radial-gradient-3" cx="48.63" cy="-54.76" r="126.84" xlink:href="#radial-gradient"/></defs><title>oshigoto-denki-logo</title><g id="レイヤー_2" data-name="レイヤー 2"><g id="メインロゴ1"><path class="cls-1" d="M34.57,0A34.58,34.58,0,0,0,4.22,51.14c4.61-13.36,13.13-25.32,24.3-36.32L29.3,28A137.83,137.83,0,0,1,55.75,7.24,34.47,34.47,0,0,0,34.57,0ZM58.22,9.34c-12.81,13.07-23.58,30-32.21,51l-4.1-13.09a53.57,53.57,0,0,0-6.57,16.07,34.58,34.58,0,0,0,42.88-54Z"/><path class="cls-2" d="M5.84,46.88C10.7,35.22,18.55,24.63,28.52,14.82L29.3,28A136.92,136.92,0,0,1,52.73,9.13,31.26,31.26,0,0,0,5.84,46.88Z"/><path class="cls-3" d="M15.34,63.31a53.57,53.57,0,0,1,6.57-16.07l1.56-16.82C16.4,38.64,12,48,9,57.86a35.45,35.45,0,0,0,6.34,5.45Z"/><polygon class="cls-4" points="26.01 60.33 26.27 42.33 23.46 30.42 21.91 47.24 26.01 60.33"/><path class="cls-5" d="M26,60.33c8.63-21,19.4-37.92,32.21-51A118,118,0,0,1,67.77.62Q62.25,4.19,57,8.29a135.2,135.2,0,0,0-30.77,34Z"/><path class="cls-6" d="M17.22,64.49a54,54,0,0,1,4.68-8.34l3,11.64,1,.29C36.46,46.14,53.42,23.52,68.27,26.81a33.22,33.22,0,0,0-7.7-15.08A60.18,60.18,0,0,1,67.77.62a118,118,0,0,0-9.55,8.72c-12.81,13.07-23.58,30-32.21,51l-4.1-13.09a53.57,53.57,0,0,0-6.57,16.07,60.23,60.23,0,0,0-1.43,11.07,54.47,54.47,0,0,1,3.31-9.89Z"/><path d="M98.2,32.64a7.22,7.22,0,0,1,1.53,3.06,9.46,9.46,0,0,1,.3,3.69,6.18,6.18,0,0,1-.32,1.39,14.46,14.46,0,0,1-.77,1.84A6.59,6.59,0,0,1,95,46V43.71A4.1,4.1,0,0,0,97,42a7.09,7.09,0,0,0,.91-2.2l.13-1a3.93,3.93,0,0,0,0-.45,7.05,7.05,0,0,0-.07-1,8.27,8.27,0,0,0-.28-1.45,5.33,5.33,0,0,0-.79-1.47A4.86,4.86,0,0,0,95.49,33a9.48,9.48,0,0,0-3-.89,15.12,15.12,0,0,0-3.35-.07,16.49,16.49,0,0,0-3,.58V36.5q0,4.74-1.69,6.8A4.24,4.24,0,0,1,78,42.15a6.27,6.27,0,0,1-.42-4.83,9.2,9.2,0,0,1,2.56-3.88,10.85,10.85,0,0,1,4-2.35V26.3H79.25V24.42h4.87v-3.7h1.95v3.7H92.9V26.3H86.07v4.19l1.81-.3A21.35,21.35,0,0,1,90.29,30a15.88,15.88,0,0,1,2.86.13,11.21,11.21,0,0,1,2.66.81A6.46,6.46,0,0,1,98.2,32.64ZM84,39.34c.09-1,.14-1.91.14-2.84V33.29a7.33,7.33,0,0,0-3.27,2.24,5.62,5.62,0,0,0-1.39,3.77A2.71,2.71,0,0,0,81.28,42,1.54,1.54,0,0,0,83,41.5,4,4,0,0,0,84,39.34ZM97.71,21.82,101.39,29H99.06l-3.69-7.22Z"/><path d="M109.48,27.86V45.23h-2V31.55a41,41,0,0,1-2.72,3.84l-1.07-1.67a32.06,32.06,0,0,0,6-12.12l1.94.54A44.4,44.4,0,0,1,109.48,27.86Zm10.61,1.36h7.69V31h-7.69V42.15h6.75V44H111.49v-1.8h6.58V31h-7.3V29.22h7.3V21.71h2Z"/><path d="M141.9,26.88V25.32H131.51V23.78H141.9V21h1.9v2.74h10.57v1.54H143.8v1.56h7.69V31.5H143.8v1.56h8.08V36H155v1.59h-3.16v4.14H150V40.53H143.8v2.8a1.75,1.75,0,0,1-.56,1.52,3.28,3.28,0,0,1-1.8.36c-1,0-2-.06-3.05-.16l-.31-1.93a14.87,14.87,0,0,0,2.9.34c.61,0,.92-.26.92-.77V40.53h-8.85V39.05h8.85V37.5H130.84V36H141.9V34.55H133V33.06h8.88V31.5h-7.54V26.88Zm0,1.39h-5.74v1.8h5.74Zm1.9,0v1.8h5.9v-1.8Zm0,7.75H150V34.55H143.8Zm0,3H150V37.5H143.8Z"/><path d="M176.32,25.12a17.77,17.77,0,0,0-3.65,3,17.33,17.33,0,0,0-3,4.33,8.62,8.62,0,0,0-1,4.74A5.67,5.67,0,0,0,170,40a8,8,0,0,0,2.42,1.89,19.1,19.1,0,0,0,2.27.95,5.34,5.34,0,0,0,1.39.32l0,2.1a18.86,18.86,0,0,1-2.57-.72,13.86,13.86,0,0,1-2.43-1.12,11,11,0,0,1-2.14-1.57,7.87,7.87,0,0,1-1.56-2.12,6.52,6.52,0,0,1-.74-2.62,11.32,11.32,0,0,1,1.78-6.59,19.65,19.65,0,0,1,4.73-5.36H159.91v-1.9h20.68v1.9Zm-1.13,1.76h1.67l2.65,5.88h-1.68Zm3.18,0H180l2.65,5.88H181Z"/><path d="M204,31.45a11.13,11.13,0,0,1,2.52,3.9,7.47,7.47,0,0,1,.38,4.11A6.1,6.1,0,0,1,204.85,43a5.5,5.5,0,0,1-4.53.6,4.38,4.38,0,0,1-1.11-.53,4.49,4.49,0,0,1-1-.93c-.33-.4-.56-.71-.71-.92l-.76-1.11a10,10,0,0,0-.86-1.06,3.36,3.36,0,0,0-1-.69,3.41,3.41,0,0,0-1.5-.31,8.12,8.12,0,0,0-2.53.85,9.31,9.31,0,0,0-2.32,1.66,12.08,12.08,0,0,0-1.93,3.37h-2.1l11.33-22.62h2.22L189.83,37.4q4.21-2.15,6.7-.53a8.39,8.39,0,0,1,2,2.3,9.14,9.14,0,0,0,1.59,2,2.9,2.9,0,0,0,2.51.74,3.33,3.33,0,0,0,2.15-1.74,4.72,4.72,0,0,0,.36-1.77,8,8,0,0,0-.28-2.16,8.34,8.34,0,0,0-1.08-2.36,11.84,11.84,0,0,0-2.12-2.44Z"/><path d="M212.86,33v-1.9h10.49l-.83-4.65h-8.27v-1.8h7.89l-.76-4.2h2.06l.72,4.2h9v1.8h-8.61l.83,4.65h9.23V33H225.8l.91,5.59h-2l-1-5.59Zm.6,3.15h2a6.08,6.08,0,0,0,1.07,4,5.83,5.83,0,0,0,2.59,2.35,12.1,12.1,0,0,0,3.92.91,40.18,40.18,0,0,0,5,.09c1.77-.07,2.85-.1,3.26-.09V45.3q-9.33.59-13.3-1.35a7.27,7.27,0,0,1-1.68-1.13,6.75,6.75,0,0,1-1.19-1.37,9.68,9.68,0,0,1-.78-1.45,7.43,7.43,0,0,1-.48-1.42c-.1-.45-.18-.84-.23-1.18s-.09-.62-.11-.83Z"/><path d="M111.5,56.45a2.22,2.22,0,0,1-.62,1.56,2.06,2.06,0,0,1-3,0,2.14,2.14,0,0,1-.66-1.55V53.4a2.16,2.16,0,0,1,.65-1.58,2.12,2.12,0,0,1,3,0,2.18,2.18,0,0,1,.62,1.58Zm-.74-3.06a1.47,1.47,0,0,0-.39-1.06,1.37,1.37,0,0,0-1-.4,1.34,1.34,0,0,0-1,.41,1.39,1.39,0,0,0-.42,1v3.07a1.47,1.47,0,0,0,.43,1,1.33,1.33,0,0,0,1,.44,1.37,1.37,0,0,0,1-.43,1.45,1.45,0,0,0,.4-1Z"/><path d="M118.23,53.24v.08h-.76V53a.54.54,0,0,0,0-.11.33.33,0,0,0,0-.15l-.05-.14a.76.76,0,0,0-.09-.18c-.19-.35-.63-.53-1.31-.53l-.23,0a1.77,1.77,0,0,0-.67.31,1,1,0,0,0-.25.36,1.24,1.24,0,0,0-.11.52,1.13,1.13,0,0,0,.34.72,1.83,1.83,0,0,0,.74.52,18.08,18.08,0,0,1,1.77.71,1.28,1.28,0,0,1,.58.55,1.87,1.87,0,0,1,.21.92,2,2,0,0,1-.59,1.57,2.14,2.14,0,0,1-1.57.58,3.83,3.83,0,0,1-1.09-.15,1.92,1.92,0,0,1-.82-.46,1.78,1.78,0,0,1-.44-.68,2.32,2.32,0,0,1-.18-.89v-.08h.72l0,.07a1.52,1.52,0,0,0,.54,1.1,1.84,1.84,0,0,0,1.14.35,1.7,1.7,0,0,0,1.16-.36,1.28,1.28,0,0,0,.37-1,1,1,0,0,0-.2-.62,1.43,1.43,0,0,0-.49-.35c-.15-.07-.59-.23-1.31-.48a2.86,2.86,0,0,1-.81-.44,2.15,2.15,0,0,1-.5-.51,2.38,2.38,0,0,1-.24-.51,1.59,1.59,0,0,1-.1-.37.47.47,0,0,1,0-.17,2,2,0,0,1,.2-1,1.85,1.85,0,0,1,.41-.47,2,2,0,0,1,.49-.29,3.14,3.14,0,0,1,.45-.13,1.74,1.74,0,0,1,.34,0H116a2.8,2.8,0,0,1,1.19.23,1.67,1.67,0,0,1,.73.62A2.26,2.26,0,0,1,118.23,53.24Z"/><path d="M124,54.35V51.28h.74v7.23H124V55.09h-2.83v3.42h-.74V51.28h.74v3.07Z"/><path d="M127.54,52v-.75h3.18V52h-1.21v5.73h1.21v.75h-3.18v-.75h1.21V52Z"/><path d="M138,54.59v1.88a2.15,2.15,0,0,1-.38,1.2l.65.68-.54.53-.64-.68a1.45,1.45,0,0,1-.54.33,1.91,1.91,0,0,1-.71.14,2,2,0,0,1-1.52-.66,2.18,2.18,0,0,1-.63-1.56V53.4a2.14,2.14,0,0,1,.62-1.58,2,2,0,0,1,1.53-.64,2.07,2.07,0,0,1,1.54.63,2.15,2.15,0,0,1,.62,1.57v.07h-.74v-.07a1.4,1.4,0,0,0-1.42-1.45,1.31,1.31,0,0,0-1,.41,1.39,1.39,0,0,0-.42,1v3.07a1.42,1.42,0,0,0,.43,1,1.32,1.32,0,0,0,2,0,1.43,1.43,0,0,0,.43-1V55.33h-1.49v-.74Z"/><path d="M144.67,56.45A2.18,2.18,0,0,1,144,58a2,2,0,0,1-1.53.66A2,2,0,0,1,141,58a2.14,2.14,0,0,1-.66-1.55V53.4a2.12,2.12,0,0,1,.65-1.58,2.12,2.12,0,0,1,3,0,2.18,2.18,0,0,1,.62,1.58Zm-.74-3.06a1.47,1.47,0,0,0-.39-1.06,1.37,1.37,0,0,0-1-.4,1.33,1.33,0,0,0-1,.41,1.39,1.39,0,0,0-.42,1v3.07a1.42,1.42,0,0,0,.43,1,1.33,1.33,0,0,0,1,.44,1.37,1.37,0,0,0,1-.43,1.5,1.5,0,0,0,.4-1Z"/><path d="M146.82,52v-.75h4.73V52h-2v6.48h-.73V52Z"/><path d="M157.93,56.45a2.17,2.17,0,0,1-.62,1.56,2,2,0,0,1-1.53.66,2.08,2.08,0,0,1-1.5-.67,2.17,2.17,0,0,1-.65-1.55V53.4a2.15,2.15,0,0,1,.64-1.58,2.09,2.09,0,0,1,1.51-.64,2.06,2.06,0,0,1,1.54.64,2.17,2.17,0,0,1,.61,1.58Zm-.73-3.06a1.48,1.48,0,0,0-.4-1.06,1.35,1.35,0,0,0-1-.4,1.31,1.31,0,0,0-1,.41,1.39,1.39,0,0,0-.42,1v3.07a1.46,1.46,0,0,0,.42,1,1.37,1.37,0,0,0,1,.44,1.33,1.33,0,0,0,1-.43,1.46,1.46,0,0,0,.41-1Z"/><path d="M160.38,54.33h4v.78h-4Z"/><path d="M171.21,53.5v2.8a2.17,2.17,0,0,1-.62,1.57,2,2,0,0,1-1.53.64h-1.87V51.28h1.87a2,2,0,0,1,1.52.66A2.22,2.22,0,0,1,171.21,53.5Zm-2.15-1.44H168v5.67h1.11a1.34,1.34,0,0,0,1-.42,1.49,1.49,0,0,0,.39-1V53.51a1.44,1.44,0,0,0-.4-1A1.27,1.27,0,0,0,169.06,52.06Z"/><path d="M173.89,58.51V51.28h3.73V52h-3v2.36H177v.76h-2.37v2.61h3v.75Z"/><path d="M183.65,55.35V51.28h.74v7.23h-.74v-2l-2.83-3v5h-.73V51.28h.73v1.17Z"/><path d="M190.49,51.29h1.12l-3.51,3.44,3.55,3.78h-1.1l-3-3.19v3.19h-.74V51.29h.74v3Z"/><path d="M193.88,52v-.75h3.18V52h-1.21v5.73h1.21v.75h-3.18v-.75h1.21V52Z"/><path class="cls-7" d="M35.05,67.09l.83,0c-.06-1.57-.1-2.64-.1-2.64Z"/><path class="cls-7" d="M34.66,2.4a32.35,32.35,0,0,0-9.81,63.18l1.09-6.87c-.48-.25-.75-.43-.75-.43.35-1.08,2.36-9.53,1.77-12.76a24.79,24.79,0,0,0-2.84-6.84,35.39,35.39,0,0,1-2.91-4.32c-.6-1.18-2.47-5.79,1.56-7.85,1.16-.6,5.92-.69,6.88-.76,0,0,1.41-.63,1.51-.64l.18,0a23.37,23.37,0,0,0,.3-3.43c0-1.52-.8-4.39-1-6.19h0c0-.1,0-.19,0-.28s0-.1,0-.15a1.7,1.7,0,0,1,0-.22.86.86,0,0,1,0-.16v-.18a.57.57,0,0,1,0-.13.85.85,0,0,1,.05-.24c.36-1.07,7.78-2.27,7.78-2.27a3,3,0,0,1-.85,1.22S40.27,23,39.71,23.5a1.17,1.17,0,0,1-.26.18l-.09.05-.08,0h0a13,13,0,0,1-2.46.71l.31,1.9.3.06,1.66,1.38a45.63,45.63,0,0,1,6.12,3c4.3,3.37,6.89,7.71,6.89,8.65s-.47,2.78-1.48,3.14l-.23.08h0a12.14,12.14,0,0,1-7.58-.23s0,1.94,0,2.58S45,58,45,58a1.89,1.89,0,0,1-.71.43h0v0h0a1,1,0,0,1,0,.16V59c0,.1,0,.22,0,.34v.06c0,1.32-.13,3.65-.23,6.32A32.35,32.35,0,0,0,34.66,2.4Z"/><path d="M30.6,15.52c0-.1,0-.19,0-.28C30.57,15.33,30.58,15.42,30.6,15.52Z"/><path d="M30.53,14.71v0Z"/><path d="M30.55,15.09a1.7,1.7,0,0,1,0-.22A1.7,1.7,0,0,0,30.55,15.09Z"/><path d="M39.45,23.68l-.09.05Z"/><path d="M39.3,32.56h0l-1.42-.18h0l-1.4-.17,3.88.48Z"/><path d="M30.54,14.4a.85.85,0,0,1,.05-.24A.85.85,0,0,0,30.54,14.4Z"/><polygon points="42.83 33.24 42.83 33.24 42.83 33.24 42.83 33.24"/><path d="M35.39,24.7l1.43-.22a13,13,0,0,0,2.46-.71L36,13.72a7.58,7.58,0,0,0,1.48-.61,3,3,0,0,0,.85-1.22,26.44,26.44,0,0,1-4.54,1.77,5.35,5.35,0,0,0-3.23,1.86c.24,1.8,1,4.67,1,6.19a23.37,23.37,0,0,1-.3,3.43l4.7,2.7Z"/><path d="M44.34,58.92v0Z"/><path d="M44.35,58.42h0l0,0Z"/><path d="M44.34,58.61v0Z"/><path d="M41.59,59.28a16.52,16.52,0,0,0,2.74-.86s-2.22-11.91-2.28-12.91,0-3.23,0-3.23l.81.16a12.14,12.14,0,0,0,7.58.23A4.1,4.1,0,0,0,51,38.73a22.58,22.58,0,0,0-5.36-7.09A49,49,0,0,0,39,28.34l-1.9-2a14,14,0,0,1,3.24,6.31l1.73.2a2.17,2.17,0,0,1,.73.35l1.63.26a7.35,7.35,0,0,1,.54.64h0a6.74,6.74,0,0,1,2.31.46,6.68,6.68,0,0,1,1.47,2h-.44S47.63,35,47.1,34.85a11.08,11.08,0,0,0-1.81-.27l0,0a1.45,1.45,0,0,1,.13.29H45l-.7-1.13s-.69-.1-.93-.12c-1.57,0-6.74-.47-7.19-.57-5.54-1.18-6.79-2.92-7.51-3.59a6.25,6.25,0,0,1-1.12-2.31A18.3,18.3,0,0,0,30,29.57c1.83,1.26,6.49,2.64,6.49,2.64-.83-1.58-5.14-7.07-5.14-7.07l-.18,0c-.1,0-1.51.64-1.51.64-1,.07-5.72.16-6.88.76-4,2.06-2.16,6.67-1.56,7.85a35.39,35.39,0,0,0,2.91,4.32A24.79,24.79,0,0,1,27,45.52c.59,3.23-1.42,11.68-1.77,12.76,0,0,.27.18.75.43l-1.09,6.87a32.31,32.31,0,0,0,9.69,1.51l1.31-4.29-.07,1.63s0,1.07.1,2.64a32.36,32.36,0,0,0,7.49-1.17l.18-6.62A13.52,13.52,0,0,1,41.59,59.28Zm-14-21.22a29.55,29.55,0,0,0,7.61,1.52c3.17,0,9.46-.73,9.46-.73a66.78,66.78,0,0,1-8.77,1.25C32.22,40.25,27.55,38.06,27.55,38.06Zm13.07,9.71s-1.4-5.94-1.81-6.77a21.77,21.77,0,0,0,2.38.84S40.91,45.6,40.62,47.77Z"/><path d="M44.32,59.32v0Z"/><path class="cls-8" d="M37.88,32.38l0-.64L37,30.44l-.53.55,1.08-2.27L36,27.84h0l-4.7-2.7s4.31,5.49,5.14,7.07Z"/><path class="cls-8" d="M39.36,30.08l-.59-.23.1,1.72.43,1,1.06.13h0a14,14,0,0,0-3.24-6.31l.43,2.34Z"/><polygon points="37.56 28.72 36.48 30.99 37.01 30.45 36.85 30.21 37.56 28.72"/><polygon points="38.77 29.85 39.36 30.08 37.56 28.72 38.76 29.62 38.77 29.85"/><path d="M39.3,32.56h0l-.43-1-.1-1.72v-.23l-1.2-.9-.71,1.49.16.23.91,1.3,0,.64h0Z"/><path d="M40.62,47.77c.29-2.17.57-5.93.57-5.93A21.77,21.77,0,0,1,38.81,41C39.22,41.83,40.62,47.77,40.62,47.77Z"/><path class="cls-9" d="M36.48,32.21S31.82,30.83,30,29.57a18.3,18.3,0,0,1-2.44-2.44,6.25,6.25,0,0,0,1.12,2.31c.72.67,2,2.41,7.51,3.59.45.1,5.62.54,7.19.57.24,0,.93.12.93.12l.7,1.13h.4a1.45,1.45,0,0,0-.13-.29,2.72,2.72,0,0,0-.27-.42,7.35,7.35,0,0,0-.54-.64l-1.63-.26h0a2.17,2.17,0,0,0-.73-.35l-1.73-.2h0Z"/><path class="cls-9" d="M45.61,31.64A22.58,22.58,0,0,1,51,38.73a4.1,4.1,0,0,1-.58,3.94h0l.23-.08c1-.36,1.48-2.21,1.48-3.14s-2.59-5.28-6.89-8.65a45.63,45.63,0,0,0-6.12-3l-1.66-1.38-.3-.06,1.9,2A49,49,0,0,1,45.61,31.64Z"/><path class="cls-9" d="M42.05,45.51c.06,1,2.28,12.91,2.28,12.91A1.89,1.89,0,0,0,45,58s-2.21-12.34-2.21-13,0-2.58,0-2.58L42,42.28S42,44.51,42.05,45.51Z"/><path class="cls-9" d="M44.32,59.32c0-.12,0-.24,0-.34v-.37a1,1,0,0,0,0-.16h0l0,0a16.52,16.52,0,0,1-2.74.86,13.52,13.52,0,0,0,2,0l-.18,6.62.72-.2c.1-2.67.19-5,.23-6.32Z"/><path class="cls-9" d="M35.85,62.8l-1.31,4.29h.51l.73-2.66Z"/><path class="cls-9" d="M35.16,39.58a29.55,29.55,0,0,1-7.61-1.52s4.67,2.19,8.3,2a66.78,66.78,0,0,0,8.77-1.25S38.33,39.57,35.16,39.58Z"/><path class="cls-9" d="M33.83,13.66a26.44,26.44,0,0,0,4.54-1.77s-7.42,1.2-7.78,2.27a.85.85,0,0,0-.05.24.57.57,0,0,0,0,.13v.18a.86.86,0,0,0,0,.16,1.7,1.7,0,0,0,0,.22c0,.05,0,.1,0,.15s0,.18,0,.28h0A5.35,5.35,0,0,1,33.83,13.66Z"/><path class="cls-9" d="M39.28,23.77h0l.08,0,.09-.05a1.17,1.17,0,0,0,.26-.18c.56-.55-2.19-10.39-2.19-10.39a7.58,7.58,0,0,1-1.48.61Z"/><polygon class="cls-9" points="36.04 27.84 36.04 27.84 37.56 28.72 37.13 26.38 36.82 24.48 35.39 24.7 36.04 27.84"/><path class="cls-9" d="M45.29,34.58a11.08,11.08,0,0,1,1.81.27c.53.18,1.24,1.79,1.24,1.79h.44a6.68,6.68,0,0,0-1.47-2A6.74,6.74,0,0,0,45,34.13h0a2.72,2.72,0,0,1,.27.42Z"/></g></g></svg>