<svg xmlns="http://www.w3.org/2000/svg" viewBox="0 0 254.83 71.59"><defs><style>.cls-1{fill:#2996cd;}</style></defs><title>tel</title><g id="レイヤー_2" data-name="レイヤー 2"><g id="メインデザイン"><path class="cls-1" d="M69.25,3.31a14.87,14.87,0,0,1-2.31.47c0,.69,0,1.43,0,2.06a8.93,8.93,0,0,1,2.63-.51c2.1,0,3.58,1.11,3.58,3A2.84,2.84,0,0,1,70,11.42a2.94,2.94,0,0,1-2.41-1.15,11.15,11.15,0,0,0,.63-.95,2.24,2.24,0,0,0,1.81.94,1.73,1.73,0,0,0,1.79-1.91c0-1.11-.82-1.93-2.32-1.93a8.8,8.8,0,0,0-2.61.5c0,1,0,2.33,0,2.66a2,2,0,0,1-2.17,2.08,2.06,2.06,0,0,1-2.23-2.05,3.22,3.22,0,0,1,1.55-2.42,8.43,8.43,0,0,1,1.63-.91V3.88c-.87.06-1.84.07-2.9.07l0-1.21c1.08,0,2,0,2.92-.05V.43l1.66.06A.34.34,0,0,1,67,.78C67,1.26,67,1.93,67,2.56a9.11,9.11,0,0,0,2.1-.49ZM65.72,7.43c-.39.19-2,1-2,2.15a1,1,0,1,0,2-.07C65.74,9.2,65.74,8.3,65.72,7.43Zm7.14-2.76A10.32,10.32,0,0,0,70,2.92l.62-1a10.63,10.63,0,0,1,3,1.73Z"/><path class="cls-1" d="M86,2.45h-8.3a9.56,9.56,0,0,1-2.09,2.83,7,7,0,0,0-1-.72A9.23,9.23,0,0,0,77.34.1L78.8.49c0,.12-.16.15-.32.14-.08.27-.19.55-.29.81H86ZM77,6.77c.73.39,1.54.87,2.32,1.39A9.36,9.36,0,0,0,80.64,6.3L82,6.81a.32.32,0,0,1-.34.13,11.94,11.94,0,0,1-1.38,1.88,14,14,0,0,1,2.18,1.82l-.94.9a15.23,15.23,0,0,0-2.1-1.85,13.82,13.82,0,0,1-3.58,2.41,6.13,6.13,0,0,0-.82-.89A12.39,12.39,0,0,0,78.47,9a26.63,26.63,0,0,0-2.32-1.46ZM76,5.13h8.35c0,3.21.17,5.67,1,5.67.23,0,.29-.72.3-1.78a4.9,4.9,0,0,0,.81.73c-.09,1.61-.33,2.23-1.19,2.24-1.78,0-2.1-2.44-2.17-5.84H76Zm8.87-.86H77.45v-1h7.39Z"/><path class="cls-1" d="M98.06.72l.75.32a.33.33,0,0,1-.12.16,8,8,0,0,1-2,3.29,7.16,7.16,0,0,0,2.59,1.18,4,4,0,0,0-.74,1,8,8,0,0,1-2.71-1.42,9.86,9.86,0,0,1-2.77,1.44,4.68,4.68,0,0,0-.59-.91V7.86H90.62v.91h2.23V9.83H90.62V12H89.54V9.83H87.28V8.77h2.26V7.86H87.73V3.34h1.81V2.5H87.42v-1h2.12V.14l1.37.09c0,.1-.09.16-.29.19v1h2.09V2.5H90.62v.84H92.5V5.71A8,8,0,0,0,95,4.46,8.06,8.06,0,0,1,93.55,2l.82-.22H93v-1h4.82ZM88.62,4.19v1h1v-1Zm0,1.81V7h1V6Zm3-.83v-1H90.5v1Zm0,1.82V6H90.5V7Zm4.91,1.65v2h2.68v1.06H92.54V10.61h2.77v-2H93.22v-1h2.09V6.06l1.48.09c0,.1-.09.18-.3.2V7.62h2.12v1ZM94.58,1.81a6.24,6.24,0,0,0,1.28,1.94,6.65,6.65,0,0,0,1.36-1.94Z"/><path class="cls-1" d="M103.15,1.11c0,.14-.15.22-.4.23A30.28,30.28,0,0,0,102.09,7a14,14,0,0,0,.11,2.13c.2-.49.72-1.68.89-2.11l.64.88c-.47,1.07-.88,1.78-1.06,2.36a2.15,2.15,0,0,0-.1.59,1.54,1.54,0,0,0,.06.43l-1.25.2A13.94,13.94,0,0,1,100.81,7a39.24,39.24,0,0,1,.62-6.14ZM111,10.45c-.44,0-.91,0-1.38,0a16.67,16.67,0,0,1-2.29-.13c-1.65-.23-2.37-1.12-2.37-2.17a3.92,3.92,0,0,1,1.14-2.48l1.18.43a2.81,2.81,0,0,0-1,1.88c0,1.18,1.58,1.25,3,1.25A16.63,16.63,0,0,0,111,9.19ZM105.15,2.5A42.73,42.73,0,0,0,110.57,2l.12,1.24a43.82,43.82,0,0,1-5.51.45Z"/><path class="cls-1" d="M119.79,3.31a14.63,14.63,0,0,1-2.31.47c0,.69,0,1.43,0,2.06a8.87,8.87,0,0,1,2.62-.51c2.1,0,3.58,1.11,3.58,3a2.84,2.84,0,0,1-3.1,3.07,3,3,0,0,1-2.41-1.15,7.81,7.81,0,0,0,.63-.95,2.26,2.26,0,0,0,1.81.94,1.73,1.73,0,0,0,1.79-1.91c0-1.11-.82-1.93-2.32-1.93a8.68,8.68,0,0,0-2.6.5c0,1,0,2.33,0,2.66a2,2,0,0,1-2.16,2.08,2.06,2.06,0,0,1-2.24-2.05,3.21,3.21,0,0,1,1.56-2.42,7.87,7.87,0,0,1,1.63-.91V3.88c-.88.06-1.85.07-2.91.07V2.74c1.07,0,2,0,2.92-.05V.43l1.65.06a.34.34,0,0,1-.34.29c0,.48,0,1.15-.06,1.78a9,9,0,0,0,2.09-.49Zm-3.52,4.12c-.4.19-2,1-2,2.15a1,1,0,1,0,2-.07C116.28,9.2,116.28,8.3,116.27,7.43Zm7.13-2.76a10.41,10.41,0,0,0-2.86-1.75l.61-1a10.84,10.84,0,0,1,3,1.73Z"/><path class="cls-1" d="M130.58,5.27H127V12h-1.19V.66h4.74ZM129.44,1.6H127v.91h2.41ZM127,4.33h2.41v-1H127Zm6.47,5.84h-3.75v.75h-1.11V6.3h4.86ZM132.38,7.3h-2.63V9.17h2.63ZM136.46.66v9.79c0,1.45-.67,1.51-3,1.51a4.12,4.12,0,0,0-.42-1.22c.48,0,1,0,1.36,0,.81,0,.86,0,.86-.32V5.28H131.6V.66Zm-1.22.93h-2.49v.92h2.49Zm-2.49,2.76h2.49v-1h-2.49Z"/><path class="cls-1" d="M140.55,4.46a16.73,16.73,0,0,1-2.07,1.31,6.27,6.27,0,0,0-.73-.94,14.32,14.32,0,0,0,5.33-4.7l1.65.1a.36.36,0,0,1-.3.23,14.72,14.72,0,0,0,5.41,4.19,6.43,6.43,0,0,0-.79,1.07A15.78,15.78,0,0,1,147,4.42v.94h-6.42ZM139.82,12V6.81h7.93V12h-1.22v-.51H141V12Zm7-7.71a15,15,0,0,1-3.07-2.94,14,14,0,0,1-2.93,2.94Zm-.25,3.6H141v2.53h5.54Z"/><path class="cls-1" d="M159.43,5.19c0,1.81,0,3.46-1.72,3.46a4.55,4.55,0,0,1-1.91-.51,6.1,6.1,0,0,0,.17-1,3.61,3.61,0,0,0,1.49.46A.65.65,0,0,0,158.1,7a12.77,12.77,0,0,0,.09-2.1c-1.31.21-2.65.42-3.68.61,0,3.85,0,4.65,2.08,4.73h.66a21.75,21.75,0,0,0,3.37-.23l0,1.19a28.15,28.15,0,0,1-3.22.15c-2,0-3.82-.06-4.06-2.83-.05-.65-.07-1.69-.1-2.8-.76.15-1.78.34-2.35.47L150.72,5c.62-.09,1.66-.27,2.53-.42,0-1.1,0-2.3,0-3.19l1.67.13c0,.16-.13.23-.35.28,0,.68,0,1.67,0,2.57l3.66-.62c0-1.06-.09-2.28-.17-3.24l1.59.08c0,.13-.09.19-.28.25,0,.81.07,1.81.09,2.69L162,3.17l.1,1.21c-.71.08-1.65.21-2.65.35Z"/><path class="cls-1" d="M171,11.86a37.85,37.85,0,0,0-4.89-4.57c-.71-.56-.91-.91-.91-1.44a1.64,1.64,0,0,1,.63-1.19c1.22-1.12,3.43-3.27,4.51-4.41l1.46,1a.4.4,0,0,1-.32.14h-.14c-1.21,1.13-3.08,2.78-4.12,3.74-.3.29-.57.53-.57.72s.28.46.74.79a40.24,40.24,0,0,1,4.87,4.32Z"/><path class="cls-1" d="M183.6,3.21a16,16,0,0,1-3.66.67,35.74,35.74,0,0,1-2.24,7.74l-1.29-.45a26.6,26.6,0,0,0,2.23-7.23h-2.2l0-1.2c.41,0,1.07,0,1.67,0,.23,0,.47,0,.72,0,.1-.75.2-1.64.28-2.4l1.71.17a.43.43,0,0,1-.37.28c-.08.5-.18,1.18-.29,1.84A13.33,13.33,0,0,0,183.35,2ZM187,11.37c-.48,0-1,.06-1.49.06-1.82,0-4.14-.11-4.12-2.07a3,3,0,0,1,.8-1.86l1.06.42a2,2,0,0,0-.62,1.25c0,.9,1,1,2.68,1a14.77,14.77,0,0,0,1.67-.09Zm-4.86-6.19a15.59,15.59,0,0,1,4.55-.63v1.2a14.7,14.7,0,0,0-4.27.5ZM184.33.8A8.9,8.9,0,0,1,186,2.48l-.59.5a8.92,8.92,0,0,0-1.63-1.68ZM186,0a7.4,7.4,0,0,1,1.68,1.67l-.58.52A8.36,8.36,0,0,0,185.47.51Z"/><path class="cls-1" d="M199.41,3.31a23.27,23.27,0,0,1-4,.62c.48,1.57,1,2.48,2.27,3L196.8,8A3.78,3.78,0,0,0,194,7.16l-.28-1a12.05,12.05,0,0,1,1.34.15,6.44,6.44,0,0,1-1-2.26c-.53,0-1.18.06-1.88.06s-2.21,0-3,0V2.86c.73,0,1.73.05,3.05.05.53,0,1.13,0,1.58-.07-.15-.69-.28-1.55-.4-2.45l1.77,0c0,.15-.13.26-.34.3a17.88,17.88,0,0,0,.28,2,19.93,19.93,0,0,0,4-.7Zm-2.33,8.16h-2.33c-2.86,0-4.57-1-4.57-2.61a3,3,0,0,1,1.12-2.14l.94.72a1.86,1.86,0,0,0-.78,1.37c0,1.09,1.43,1.46,3.32,1.46,1.05,0,1.76,0,2.4-.06Z"/><path class="cls-1" d="M203.58,1.88a.37.37,0,0,1-.34.22A20,20,0,0,0,203,5.48c0,3.44,1.12,4.19,1.77,4.19.47,0,1.06-1.29,1.41-2.51a6.35,6.35,0,0,0,1,.77c-.72,2.25-1.53,3.09-2.51,3.09-1.79,0-2.81-2.21-2.95-4.42,0-.48-.05-1-.05-1.57a29.36,29.36,0,0,1,.2-3.48Zm7.69,6a6.16,6.16,0,0,0-3.08-4.64l.8-.94a7,7,0,0,1,3.6,5.16Z"/><path class="cls-1" d="M217.19,10.2a1.77,1.77,0,1,1-1.77-1.77A1.77,1.77,0,0,1,217.19,10.2Zm-.53,0a1.25,1.25,0,1,0-1.24,1.25A1.24,1.24,0,0,0,216.66,10.2Z"/><path class="cls-1" d="M42.06,36.4c0-6.44,2.62-11,7.86-11,5.48,0,7.6,4.93,7.6,10.81,0,7-2.86,11-7.76,11C44.34,47.24,42.06,42.31,42.06,36.4ZM49.82,44c2.1,0,3.14-2.68,3.14-7.64,0-4.79-1-7.62-3.11-7.62-2,0-3.23,2.58-3.23,7.62S47.76,44,49.79,44Z"/><path class="cls-1" d="M73.7,25.74v3.41H65.78l-.62,4.15a8.75,8.75,0,0,1,1.3-.09c4.06,0,7.88,2.07,7.88,6.64,0,4.06-3.42,7.39-8.9,7.39a13.65,13.65,0,0,1-5.55-1.09l.9-3.14a10.77,10.77,0,0,0,4.4,1c2.38,0,4.56-1.37,4.56-3.81s-2.06-4-6-4a21.78,21.78,0,0,0-2.62.14l1.41-10.61Z"/><path class="cls-1" d="M77.3,36.4c0-6.44,2.62-11,7.86-11,5.48,0,7.6,4.93,7.6,10.81,0,7-2.86,11-7.76,11C79.58,47.24,77.3,42.31,77.3,36.4ZM85.06,44c2.1,0,3.15-2.68,3.15-7.64,0-4.79-1-7.62-3.12-7.62-2,0-3.23,2.58-3.23,7.62S83,44,85,44Z"/><path class="cls-1" d="M94.89,37h8.44v2.86H94.89Z"/><path class="cls-1" d="M115.19,35.54c2.59.53,4.74,2.43,4.74,5.32,0,3.52-3.11,6.38-8.53,6.38A12.39,12.39,0,0,1,105.55,46l1-3.13A10.23,10.23,0,0,0,111.09,44c2.81,0,4.19-1.56,4.19-3.3,0-2.38-2.28-3.5-4.77-3.5h-1.57V34.25h1.47c1.82,0,4.16-.93,4.16-3,0-1.48-1.07-2.58-3.23-2.58a8.93,8.93,0,0,0-4.07,1.15l-1-3a12.92,12.92,0,0,1,6.07-1.45c4.46,0,6.8,2.38,6.8,5.18,0,2.18-1.44,4-4,4.87Z"/><path class="cls-1" d="M129.64,46.93V29.46h-.06l-4,1.9-1-3,5.67-2.64h3.82V46.93Z"/><path class="cls-1" d="M154.71,25.74v3.41h-7.92l-.61,4.15a8.71,8.71,0,0,1,1.29-.09c4.07,0,7.89,2.07,7.89,6.64,0,4.06-3.42,7.39-8.9,7.39a13.61,13.61,0,0,1-5.55-1.09L141.8,43a10.83,10.83,0,0,0,4.41,1c2.37,0,4.56-1.37,4.56-3.81s-2.07-4-6-4a21.78,21.78,0,0,0-2.62.14l1.42-10.61Z"/><path class="cls-1" d="M169.13,37.72a5.91,5.91,0,0,1-4.38,1.65,6.18,6.18,0,0,1-6.44-6.44,7.47,7.47,0,0,1,7.77-7.5c5.08,0,7.7,3.86,7.7,8.93,0,7.34-4.19,13.24-13.56,12.85V44a13.12,13.12,0,0,0,2.25-.08,7.31,7.31,0,0,0,6.75-6.13Zm-6.29-5.15c0,2.49,1.3,4,3.15,4A3.43,3.43,0,0,0,168.91,35a2.94,2.94,0,0,0,.25-1.54c0-2.83-1-5.07-3.24-5.07C164.08,28.37,162.84,30.16,162.84,32.57Z"/><path class="cls-1" d="M175.9,37h8.44v2.86H175.9Z"/><path class="cls-1" d="M201.29,46.93H186.72V44.38l2.58-2.52c4.41-4.14,7-6.86,7-9.71,0-1.85-1.08-3.39-3.64-3.39a8.07,8.07,0,0,0-4.34,1.54l-1.26-3a11.85,11.85,0,0,1,6.53-1.9c5,0,7.27,2.88,7.27,6.33,0,3.75-2.81,6.83-6.19,9.94l-1.95,1.73v.06h8.57Z"/><path class="cls-1" d="M208.13,35.82a5.39,5.39,0,0,1-3.3-4.65c0-3.5,3.17-5.74,7.21-5.74,4.62,0,6.81,2.66,6.81,5.32,0,1.71-1,3.58-3.42,4.76v.05c2.28,1,4.16,2.78,4.16,5.41,0,3.78-3.27,6.27-7.89,6.27-5,0-7.61-2.77-7.61-5.8,0-2.6,1.69-4.48,4-5.54ZM215,41.3c0-2.07-1.54-3.38-3.58-4a3.94,3.94,0,0,0-2.8,3.75,3.17,3.17,0,0,0,3.17,3.36A3,3,0,0,0,215,41.3ZM209.11,31c0,1.63,1.3,2.75,3.11,3.36a3.61,3.61,0,0,0,2.38-3.22,2.64,2.64,0,0,0-2.72-2.91A2.6,2.6,0,0,0,209.11,31Z"/><path class="cls-1" d="M236.53,46.93H222V44.38l2.58-2.52c4.41-4.14,7-6.86,7-9.71,0-1.85-1.08-3.39-3.64-3.39a8.07,8.07,0,0,0-4.34,1.54l-1.26-3a11.85,11.85,0,0,1,6.53-1.9c5,0,7.27,2.88,7.27,6.33,0,3.75-2.81,6.83-6.19,9.94L228,43.43v.06h8.57Z"/><path class="cls-1" d="M243.37,35.82a5.39,5.39,0,0,1-3.3-4.65c0-3.5,3.17-5.74,7.21-5.74,4.62,0,6.81,2.66,6.81,5.32,0,1.71-1.05,3.58-3.42,4.76v.05c2.28,1,4.16,2.78,4.16,5.41,0,3.78-3.27,6.27-7.89,6.27-5,0-7.61-2.77-7.61-5.8,0-2.6,1.69-4.48,4-5.54Zm6.9,5.48c0-2.07-1.54-3.38-3.58-4a3.94,3.94,0,0,0-2.8,3.75,3.17,3.17,0,0,0,3.17,3.36A3,3,0,0,0,250.27,41.3ZM244.35,31c0,1.63,1.3,2.75,3.11,3.36a3.61,3.61,0,0,0,2.38-3.22,2.64,2.64,0,0,0-2.71-2.91A2.6,2.6,0,0,0,244.35,31Z"/><path class="cls-1" d="M1.7,21.83A5.63,5.63,0,0,0,0,25.93V45.3a5.63,5.63,0,0,0,1.7,4.11,5.63,5.63,0,0,0,4.11,1.7H25.18A5.8,5.8,0,0,0,31,45.3V25.93a5.8,5.8,0,0,0-5.8-5.8H5.81a5.59,5.59,0,0,0-4.11,1.7ZM5.61,43.64a5.23,5.23,0,0,1-.45-2,1.08,1.08,0,0,1,0-.32q.06-.16.78-.6c.48-.29,1.07-.62,1.79-1l1.06-.58.39-.26a3,3,0,0,1,.5-.31,1.17,1.17,0,0,1,.43-.1c.24,0,.55.22.94.66s.78.88,1.15,1.32.68.67.89.67a.88.88,0,0,0,.33-.08,2.1,2.1,0,0,0,.32-.13l.34-.19.28-.17A15.45,15.45,0,0,0,17.84,38a15.45,15.45,0,0,0,2.55-3.44l.18-.28.19-.35c0-.08.08-.18.13-.31a.93.93,0,0,0,.07-.33,1.15,1.15,0,0,0-.41-.68,8.59,8.59,0,0,0-.91-.77,7.77,7.77,0,0,1-.91-.8,1.18,1.18,0,0,1-.41-.74,1,1,0,0,1,.1-.42,2.9,2.9,0,0,1,.3-.51c.13-.18.22-.31.26-.38l.3-.57c.17-.31.33-.61.51-.92l.53-1a9.47,9.47,0,0,1,.51-.82,1.18,1.18,0,0,1,.33-.36.89.89,0,0,1,.32,0,5.4,5.4,0,0,1,2,.44,3.63,3.63,0,0,1,1.61,1.91,6.39,6.39,0,0,1,.69,2.63,5.6,5.6,0,0,1-.05.69c0,.24-.07.45-.1.61a5.37,5.37,0,0,1-.18.67c-.09.28-.16.47-.2.59s-.13.35-.26.67l-.22.6a18,18,0,0,1-4.37,6.47A18.18,18.18,0,0,1,14,44.94l-.6.22-.67.25c-.12.05-.32.11-.6.2a4.87,4.87,0,0,1-.66.18,5.77,5.77,0,0,1-.62.1,4.18,4.18,0,0,1-.68.06,6.4,6.4,0,0,1-2.64-.69,3.66,3.66,0,0,1-1.9-1.62Z"/><path class="cls-1" d="M10.37,60.94c0,.07-.12.1-.24.1A16.91,16.91,0,0,1,9,62.46h1.95v2.33h-.77V63.17H1.57v1.62H.81V62.46H2.63A7.93,7.93,0,0,0,1.47,61l.68-.33a7.63,7.63,0,0,1,1.21,1.53l-.59.31H8.05a12.33,12.33,0,0,0,1.39-1.92ZM9.1,66.88h-3c-.1.31-.23.71-.36,1.07h4.33v3.59H9.28v-.42H2.58v.45H1.8V68H5c.1-.33.2-.72.29-1.07H2.67v-2.8H9.1Zm.18,3.53V68.67H2.58v1.74ZM3.44,64.73v1.5H8.31v-1.5Zm1.91-4.32a7.65,7.65,0,0,1,1,1.72l-.71.3a8,8,0,0,0-1-1.76Z"/><path class="cls-1" d="M23.31,68.64H19.15a11.11,11.11,0,0,0,4.45,2,3.41,3.41,0,0,0-.54.71,11.67,11.67,0,0,1-4.69-2.57v2.75h-.81V68.88a12.25,12.25,0,0,1-4.65,2.47,3.38,3.38,0,0,0-.53-.68,11.65,11.65,0,0,0,4.4-2H12.69V68h4.87V67H13.85v-.64h3.71v-1H13.24V64.7H16a5.61,5.61,0,0,0-.63-1.28l.47-.09H12.74v-.71h2a8.85,8.85,0,0,0-1-1.82l.68-.24a7.48,7.48,0,0,1,1.07,1.82l-.63.24h1.57V60.41l1,.06c0,.12-.11.18-.27.21v1.94h1.56V60.41l1,.06c0,.12-.12.18-.27.21v1.94H21l-.44-.17a11.92,11.92,0,0,0,1-1.87l.95.33c0,.07-.12.1-.25.1a18.76,18.76,0,0,1-1,1.61h2v.71H20.55l.35.11a.22.22,0,0,1-.25.1c-.17.33-.44.8-.67,1.16h2.84v.67H18.37v1h3.86V67H18.37v1h4.94Zm-4.11-4a11.09,11.09,0,0,0,.67-1.29H16.14a5.79,5.79,0,0,1,.66,1.28l-.38.09h3Z"/><path class="cls-1" d="M28.44,61.22v7.94H25.8v1H25V61.22Zm-.76.74H25.8v2.82h1.88ZM25.8,68.41h1.88v-2.9H25.8Zm6.77-4.12h3.16V65H28.65v-.73h3.13V62.65H29.17v-.72h2.61V60.44l1,.06c0,.08-.08.14-.24.17v1.26h2.68v.72H32.57Zm1.91,1.07c0,.08-.07.14-.23.15v1H35.7v.72H34.25v3.36c0,.49-.1.72-.48.84a7.55,7.55,0,0,1-2,.13,2.86,2.86,0,0,0-.28-.75l1.2,0c.67,0,.73,0,.73-.25V67.26H28.7v-.72h4.76V65.3Zm-3.42,5a9.08,9.08,0,0,0-1.57-2.16l.65-.38a8.9,8.9,0,0,1,1.62,2.11Z"/><path class="cls-1" d="M41.76,65.09H38.18v6.49h-.79V61h4.37ZM41,61.59H38.18v1.1H41Zm-2.81,2.87H41V63.3H38.18Zm6.41,6H40.81v.63h-.74V66h4.52Zm-.77-3.74h-3v1.2h3Zm-3,3.09h3V68.52h-3ZM47.37,61v9.5c0,1.07-.47,1.12-2.54,1.12a3.08,3.08,0,0,0-.28-.84l1.07,0c.87,0,1,0,1-.3V65.1H42.9V61Zm-.8.64h-2.9v1.1h2.9Zm-2.9,2.88h2.9V63.3h-2.9Z"/><path class="cls-1" d="M63.83,70.55v-8h0l-1.47.85-.24-.74,1.86-1h.85v9Z"/><path class="cls-1" d="M68,66.09c0-3.14,1.22-4.67,2.9-4.67S73.63,63,73.63,66c0,3.12-1.09,4.72-2.88,4.72C69.12,70.69,68,69.09,68,66.09ZM72.62,66c0-2.25-.54-3.79-1.8-3.79C69.75,62.23,69,63.65,69,66s.66,3.86,1.79,3.86C72.12,69.88,72.62,68.15,72.62,66Z"/><path class="cls-1" d="M81.1,63.08a.82.82,0,1,1-.81-.82A.8.8,0,0,1,81.1,63.08Zm0,5.83a.82.82,0,1,1-.81-.81A.81.81,0,0,1,81.1,68.91Z"/><path class="cls-1" d="M87,66.09c0-3.14,1.22-4.67,2.9-4.67S92.6,63,92.6,66c0,3.12-1.09,4.72-2.88,4.72C88.09,70.69,87,69.09,87,66.09ZM91.59,66c0-2.25-.54-3.79-1.8-3.79C88.73,62.23,88,63.65,88,66s.66,3.86,1.79,3.86C91.09,69.88,91.59,68.15,91.59,66Z"/><path class="cls-1" d="M93.74,66.09c0-3.14,1.23-4.67,2.91-4.67S99.39,63,99.39,66c0,3.12-1.09,4.72-2.88,4.72C94.88,70.69,93.74,69.09,93.74,66.09ZM98.38,66c0-2.25-.54-3.79-1.79-3.79-1.07,0-1.83,1.42-1.83,3.79s.66,3.86,1.79,3.86C97.88,69.88,98.38,68.15,98.38,66Z"/><path class="cls-1" d="M111.54,65.49a3.57,3.57,0,0,1-3.11,2.07,3.62,3.62,0,0,1-2.68-1.26,2.83,2.83,0,0,0-2.09-1,2.72,2.72,0,0,0-2.32,1.62l-.78-.4a3.57,3.57,0,0,1,3.12-2.08,3.61,3.61,0,0,1,2.67,1.26,2.81,2.81,0,0,0,2.09,1,2.72,2.72,0,0,0,2.32-1.62Z"/><path class="cls-1" d="M115.35,70.55v-8h0l-1.48.85-.24-.74,1.86-1h.85v9Z"/><path class="cls-1" d="M124.14,66.3a2.54,2.54,0,0,1-2.07,1,2.5,2.5,0,0,1-2.48-2.72,3,3,0,0,1,2.84-3.16c1.68,0,2.75,1.46,2.75,3.76,0,3-1.51,5.06-3.81,5.42a5.59,5.59,0,0,1-1.07.08v-.83a3.94,3.94,0,0,0,.92-.06c1.51-.21,2.65-1.44,3-3.49Zm-3.54-1.78c0,1.21.68,2,1.71,2a1.81,1.81,0,0,0,1.86-1.46c0-1.73-.63-2.89-1.82-2.89C121.31,62.19,120.6,63.17,120.6,64.52Z"/><path class="cls-1" d="M132.64,63.08a.82.82,0,1,1-.81-.82A.8.8,0,0,1,132.64,63.08Zm0,5.83a.82.82,0,1,1-.81-.81A.81.81,0,0,1,132.64,68.91Z"/><path class="cls-1" d="M138.49,66.09c0-3.14,1.22-4.67,2.9-4.67S144.14,63,144.14,66c0,3.12-1.09,4.72-2.88,4.72C139.63,70.69,138.49,69.09,138.49,66.09Zm4.64-.07c0-2.25-.54-3.79-1.8-3.79-1.07,0-1.82,1.42-1.82,3.79s.66,3.86,1.79,3.86C142.63,69.88,143.13,68.15,143.13,66Z"/><path class="cls-1" d="M145.28,66.09c0-3.14,1.22-4.67,2.9-4.67S150.93,63,150.93,66c0,3.12-1.09,4.72-2.88,4.72C146.42,70.69,145.28,69.09,145.28,66.09Zm4.64-.07c0-2.25-.54-3.79-1.8-3.79-1.06,0-1.82,1.42-1.82,3.79s.66,3.86,1.79,3.86C149.42,69.88,149.92,68.15,149.92,66Z"/><path class="cls-1" d="M163.17,60.47a7.59,7.59,0,0,0,0,11v.06h-.72a7.94,7.94,0,0,1,0-11.16h.72Z"/><path class="cls-1" d="M175.28,68v.79h-4.49v2.75H170V68.82h-5.68V68h2v-3.3H170v-2h-3.09A11.26,11.26,0,0,1,165,65.19a4.28,4.28,0,0,0-.65-.53,11,11,0,0,0,2.8-4.28l1,.32a.23.23,0,0,1-.28.11,8.7,8.7,0,0,1-.54,1.16h7.39v.79h-3.91v2h3.65v.77h-3.65V68Zm-8.16,0H170V65.5h-2.85Z"/><path class="cls-1" d="M182.93,66.33a12.28,12.28,0,0,0,4.67,3.79,3.54,3.54,0,0,0-.59.7,13.73,13.73,0,0,1-4.66-4v4.77h-.84V66.85a13.38,13.38,0,0,1-4.6,4,3.48,3.48,0,0,0-.58-.69A12.09,12.09,0,0,0,181,66.33h-3.7v-.79h4.25V63.32h-4.88v-.81h4.88v-2.1l1.08.06c0,.09-.08.15-.24.17v1.87h5v.81h-5v2.22h4.33v.79Z"/><path class="cls-1" d="M199.64,68v.79h-4.49v2.75h-.81V68.82h-5.69V68h2v-3.3h3.67v-2h-3.1a11.26,11.26,0,0,1-1.92,2.43,3.84,3.84,0,0,0-.65-.53,11,11,0,0,0,2.8-4.28l1,.32a.23.23,0,0,1-.28.11,8.7,8.7,0,0,1-.54,1.16h7.39v.79h-3.91v2h3.65v.77h-3.65V68Zm-8.16,0h2.86V65.5h-2.86Z"/><path class="cls-1" d="M204.9,62.92l.45.12-.07.17a15.72,15.72,0,0,1-1.15,5.16,8.34,8.34,0,0,1,1.41,1.3l-.49.66a8.49,8.49,0,0,0-1.28-1.24,6.46,6.46,0,0,1-2.38,2.5,3.1,3.1,0,0,0-.5-.66,5.66,5.66,0,0,0,2.25-2.34c-.44-.33-.91-.64-1.36-.92l-.15.53-.68-.36c.3-1.06.67-2.58,1-4.13h-1.2V63h1.37c.19-.9.36-1.77.5-2.53l1,.12c0,.08-.08.13-.24.14-.13.68-.29,1.46-.47,2.27h1.84Zm-2.16.79c-.25,1.12-.53,2.25-.78,3.23.5.27,1,.61,1.52,1a14.33,14.33,0,0,0,1-4.18Zm7.32-1.3A12.69,12.69,0,0,1,212,65.56l-.7.38c-.09-.24-.21-.51-.35-.81-1.9.15-3.84.27-5.1.36a.19.19,0,0,1-.17.15l-.33-.93,1,0a30.24,30.24,0,0,0,1.37-4.26l1.05.27c0,.08-.13.13-.27.14a39.14,39.14,0,0,1-1.36,3.83l3.49-.17a19.56,19.56,0,0,0-1.17-1.74Zm-3.83,9.16V66.65h5.08v4.87h-.8V71H207v.57Zm4.28-4.16H207v2.85h3.52Z"/><path class="cls-1" d="M223.49,65.56l-.07,0a.29.29,0,0,1-.18-.07c-.91.3-2.24.79-3.24,1.23a8.62,8.62,0,0,1,0,.93c0,.38,0,.82,0,1.28l-.87,0c0-.43.06-1,.06-1.45a3.47,3.47,0,0,0,0-.48c-1.35.66-2.45,1.46-2.45,2.18s.82,1,2.48,1a28.44,28.44,0,0,0,3-.12V71c-.71.07-1.79.09-3,.09-2.3,0-3.32-.55-3.32-1.77,0-1.06,1.39-2.08,3.19-3-.08-.76-.41-1.13-.89-1.13a4,4,0,0,0-2.87,1.69A18.23,18.23,0,0,1,214,68.19l-.58-.59a8.5,8.5,0,0,0,3-4.43h-2.68v-.77h2.89a15.47,15.47,0,0,0,.33-1.72l1.17.14c0,.12-.12.2-.3.22-.08.48-.19.9-.3,1.33a16.35,16.35,0,0,0,4.13-.69l.14.8a18.17,18.17,0,0,1-4.49.67,8.67,8.67,0,0,1-.87,2h0a3.18,3.18,0,0,1,1.93-.78c.82,0,1.34.59,1.49,1.56,1-.46,2.28-1,3.24-1.32Z"/><path class="cls-1" d="M228.55,60.92l.51.31s-.06.08-.09.11c-.31.91-.78,2.12-1.19,3.12A3.8,3.8,0,0,1,229,67.05c0,1.72-1.06,1.68-2,1.64a2.07,2.07,0,0,0-.21-.71,3.2,3.2,0,0,0,.52,0c.47,0,.93,0,.93-1A3.7,3.7,0,0,0,227,64.55c.39-.91.76-2,1-2.86h-1.71v9.89h-.73V61h2.82Zm4.5-.45a.24.24,0,0,1-.17.15,11.52,11.52,0,0,0,3.5,3.31,4.51,4.51,0,0,0-.46.68,12.54,12.54,0,0,1-3.5-3.42A11.44,11.44,0,0,1,229,64.67a2.38,2.38,0,0,0-.43-.62A10.1,10.1,0,0,0,232,60.41Zm-2,7.49a.21.21,0,0,1-.25.09,8.51,8.51,0,0,1-1.74,2.75,4.8,4.8,0,0,0-.53-.47,7.28,7.28,0,0,0,1.63-2.66Zm4.72-1h-3v3.63c0,.88-.37.95-2,.95a3.14,3.14,0,0,0-.27-.76h1.27c.15,0,.2-.06.2-.2V67h-2.76v-.71h2.76v-1.6h-1.88V64h4.61v.7h-2v1.6h3Zm-.38,3.72A16.41,16.41,0,0,0,233.73,68l.61-.3a16.34,16.34,0,0,1,1.74,2.7Z"/><path class="cls-1" d="M244.84,71.47a36.52,36.52,0,0,0-4.7-4.46c-.6-.48-.82-.81-.82-1.25a1.54,1.54,0,0,1,.64-1.09c1.09-1,3.14-3,4.29-4.12l1,.67a.34.34,0,0,1-.26.12l-.15,0c-1.19,1.15-3.07,2.79-4.05,3.71-.29.28-.51.52-.51.71s.21.44.63.75a40.78,40.78,0,0,1,4.74,4.36Z"/><path class="cls-1" d="M249.45,71.51a7.59,7.59,0,0,0,0-11v-.06h.72a7.94,7.94,0,0,1,0,11.16h-.72Z"/></g></g></svg>